G04 ================== begin FILE IDENTIFICATION RECORD ==================*
G04 Layout Name:  TKA13_DEV_REVB_01.brd*
G04 Film Name:    DRILL*
G04 File Format:  Gerber RS274X*
G04 File Origin:  Cadence Allegro 16.3-p003*
G04 Origin Date:  Thu Jun 27 23:25:28 2013*
G04 *
G04 Layer:  MANUFACTURING/NCLEGEND-1-2*
G04 Layer:  MANUFACTURING/NCDRILL_LEGEND*
G04 Layer:  MANUFACTURING/NCDRILL_FIGURE*
G04 *
G04 Offset:    (0.000 0.000)*
G04 Mirror:    No*
G04 Mode:      Positive*
G04 Rotation:  0*
G04 FullContactRelief:  No*
G04 UndefLineWidth:     0.100*
G04 ================== end FILE IDENTIFICATION RECORD ====================*
%FSLAX34Y34*MOMM*%
%IR0*IPPOS*OFA0.00000B0.00000*MIA0B0*SFA1.00000B1.00000*%
%AMMACRO13*
1,1,.1,-.508,-1.016*
20,1,.1,-.508,-1.016,-.508,1.016,0.0*
1,1,.1,-.508,1.016*
20,1,.1,-.508,1.016,-.500282,1.104213,0.0*
1,1,.1,-.500282,1.104213*
20,1,.1,-.500282,1.104213,-.477364,1.189746,0.0*
1,1,.1,-.477364,1.189746*
20,1,.1,-.477364,1.189746,-.439941,1.27,0.0*
1,1,.1,-.439941,1.27*
20,1,.1,-.439941,1.27,-.389151,1.342536,0.0*
1,1,.1,-.389151,1.342536*
20,1,.1,-.389151,1.342536,-.326536,1.405151,0.0*
1,1,.1,-.326536,1.405151*
20,1,.1,-.326536,1.405151,-.254,1.455941,0.0*
1,1,.1,-.254,1.455941*
20,1,.1,-.254,1.455941,-.173746,1.493364,0.0*
1,1,.1,-.173746,1.493364*
20,1,.1,-.173746,1.493364,-.088213,1.516282,0.0*
1,1,.1,-.088213,1.516282*
20,1,.1,-.088213,1.516282,0.0,1.524,0.0*
1,1,.1,0.0,1.524*
20,1,.1,0.0,1.524,.088213,1.516282,0.0*
1,1,.1,.088213,1.516282*
20,1,.1,.088213,1.516282,.173746,1.493364,0.0*
1,1,.1,.173746,1.493364*
20,1,.1,.173746,1.493364,.254,1.455941,0.0*
1,1,.1,.254,1.455941*
20,1,.1,.254,1.455941,.326536,1.405151,0.0*
1,1,.1,.326536,1.405151*
20,1,.1,.326536,1.405151,.389151,1.342536,0.0*
1,1,.1,.389151,1.342536*
20,1,.1,.389151,1.342536,.439941,1.27,0.0*
1,1,.1,.439941,1.27*
20,1,.1,.439941,1.27,.477364,1.189746,0.0*
1,1,.1,.477364,1.189746*
20,1,.1,.477364,1.189746,.500282,1.104213,0.0*
1,1,.1,.500282,1.104213*
20,1,.1,.500282,1.104213,.508,1.016,0.0*
1,1,.1,.508,1.016*
20,1,.1,.508,1.016,.508,-1.016,0.0*
1,1,.1,.508,-1.016*
20,1,.1,.508,-1.016,.500282,-1.104213,0.0*
1,1,.1,.500282,-1.104213*
20,1,.1,.500282,-1.104213,.477364,-1.189746,0.0*
1,1,.1,.477364,-1.189746*
20,1,.1,.477364,-1.189746,.439941,-1.27,0.0*
1,1,.1,.439941,-1.27*
20,1,.1,.439941,-1.27,.389151,-1.342536,0.0*
1,1,.1,.389151,-1.342536*
20,1,.1,.389151,-1.342536,.326536,-1.405151,0.0*
1,1,.1,.326536,-1.405151*
20,1,.1,.326536,-1.405151,.254,-1.455941,0.0*
1,1,.1,.254,-1.455941*
20,1,.1,.254,-1.455941,.173746,-1.493364,0.0*
1,1,.1,.173746,-1.493364*
20,1,.1,.173746,-1.493364,.088213,-1.516282,0.0*
1,1,.1,.088213,-1.516282*
20,1,.1,.088213,-1.516282,0.0,-1.524,0.0*
1,1,.1,0.0,-1.524*
20,1,.1,0.0,-1.524,-.088213,-1.516282,0.0*
1,1,.1,-.088213,-1.516282*
20,1,.1,-.088213,-1.516282,-.173746,-1.493364,0.0*
1,1,.1,-.173746,-1.493364*
20,1,.1,-.173746,-1.493364,-.254,-1.455941,0.0*
1,1,.1,-.254,-1.455941*
20,1,.1,-.254,-1.455941,-.326536,-1.405151,0.0*
1,1,.1,-.326536,-1.405151*
20,1,.1,-.326536,-1.405151,-.389151,-1.342536,0.0*
1,1,.1,-.389151,-1.342536*
20,1,.1,-.389151,-1.342536,-.439941,-1.27,0.0*
1,1,.1,-.439941,-1.27*
20,1,.1,-.439941,-1.27,-.477364,-1.189746,0.0*
1,1,.1,-.477364,-1.189746*
20,1,.1,-.477364,-1.189746,-.500282,-1.104213,0.0*
1,1,.1,-.500282,-1.104213*
20,1,.1,-.500282,-1.104213,-.508,-1.016,0.0*
1,1,.1,-.508,-1.016*
1,1,.1,0.0,-.254*
20,1,.1,0.0,-.254,-.068,-.246,0.0*
1,1,.1,-.068,-.246*
20,1,.1,-.068,-.246,-.127,-.212,0.0*
1,1,.1,-.127,-.212*
20,1,.1,-.127,-.212,-.178,-.161,0.0*
1,1,.1,-.178,-.161*
20,1,.1,-.178,-.161,-.212,-.102,0.0*
1,1,.1,-.212,-.102*
20,1,.1,-.212,-.102,-.229,-.034,0.0*
1,1,.1,-.229,-.034*
20,1,.1,-.229,-.034,-.229,.034,0.0*
1,1,.1,-.229,.034*
20,1,.1,-.229,.034,-.212,.102,0.0*
1,1,.1,-.212,.102*
20,1,.1,-.212,.102,-.178,.161,0.0*
1,1,.1,-.178,.161*
20,1,.1,-.178,.161,-.127,.212,0.0*
1,1,.1,-.127,.212*
20,1,.1,-.127,.212,-.068,.246,0.0*
1,1,.1,-.068,.246*
20,1,.1,-.068,.246,0.0,.254,0.0*
1,1,.1,0.0,.254*
20,1,.1,0.0,.254,.068,.246,0.0*
1,1,.1,.068,.246*
20,1,.1,.068,.246,.127,.212,0.0*
1,1,.1,.127,.212*
20,1,.1,.127,.212,.178,.161,0.0*
1,1,.1,.178,.161*
20,1,.1,.178,.161,.212,.102,0.0*
1,1,.1,.212,.102*
20,1,.1,.212,.102,.229,.034,0.0*
1,1,.1,.229,.034*
20,1,.1,.229,.034,.229,-.034,0.0*
1,1,.1,.229,-.034*
20,1,.1,.229,-.034,.212,-.102,0.0*
1,1,.1,.212,-.102*
20,1,.1,.212,-.102,.178,-.161,0.0*
1,1,.1,.178,-.161*
20,1,.1,.178,-.161,.127,-.212,0.0*
1,1,.1,.127,-.212*
20,1,.1,.127,-.212,.068,-.246,0.0*
1,1,.1,.068,-.246*
20,1,.1,.068,-.246,0.0,-.254,0.0*
1,1,.1,0.0,-.254*
1,1,.1,.068,-.119*
20,1,.1,.068,-.119,.169,-.254,0.0*
1,1,.1,.169,-.254*
%
%ADD13MACRO13*%
%AMMACRO16*
1,1,.1,-1.016,.508*
20,1,.1,-1.016,.508,1.016,.508,0.0*
1,1,.1,1.016,.508*
20,1,.1,1.016,.508,1.104213,.500282,0.0*
1,1,.1,1.104213,.500282*
20,1,.1,1.104213,.500282,1.189746,.477364,0.0*
1,1,.1,1.189746,.477364*
20,1,.1,1.189746,.477364,1.27,.439941,0.0*
1,1,.1,1.27,.439941*
20,1,.1,1.27,.439941,1.342536,.389151,0.0*
1,1,.1,1.342536,.389151*
20,1,.1,1.342536,.389151,1.405151,.326536,0.0*
1,1,.1,1.405151,.326536*
20,1,.1,1.405151,.326536,1.455941,.254,0.0*
1,1,.1,1.455941,.254*
20,1,.1,1.455941,.254,1.493364,.173746,0.0*
1,1,.1,1.493364,.173746*
20,1,.1,1.493364,.173746,1.516282,.088213,0.0*
1,1,.1,1.516282,.088213*
20,1,.1,1.516282,.088213,1.524,0.0,0.0*
1,1,.1,1.524,0.0*
20,1,.1,1.524,0.0,1.516282,-.088213,0.0*
1,1,.1,1.516282,-.088213*
20,1,.1,1.516282,-.088213,1.493364,-.173746,0.0*
1,1,.1,1.493364,-.173746*
20,1,.1,1.493364,-.173746,1.455941,-.254,0.0*
1,1,.1,1.455941,-.254*
20,1,.1,1.455941,-.254,1.405151,-.326536,0.0*
1,1,.1,1.405151,-.326536*
20,1,.1,1.405151,-.326536,1.342536,-.389151,0.0*
1,1,.1,1.342536,-.389151*
20,1,.1,1.342536,-.389151,1.27,-.439941,0.0*
1,1,.1,1.27,-.439941*
20,1,.1,1.27,-.439941,1.189746,-.477364,0.0*
1,1,.1,1.189746,-.477364*
20,1,.1,1.189746,-.477364,1.104213,-.500282,0.0*
1,1,.1,1.104213,-.500282*
20,1,.1,1.104213,-.500282,1.016,-.508,0.0*
1,1,.1,1.016,-.508*
20,1,.1,1.016,-.508,-1.016,-.508,0.0*
1,1,.1,-1.016,-.508*
20,1,.1,-1.016,-.508,-1.104213,-.500282,0.0*
1,1,.1,-1.104213,-.500282*
20,1,.1,-1.104213,-.500282,-1.189746,-.477364,0.0*
1,1,.1,-1.189746,-.477364*
20,1,.1,-1.189746,-.477364,-1.27,-.439941,0.0*
1,1,.1,-1.27,-.439941*
20,1,.1,-1.27,-.439941,-1.342536,-.389151,0.0*
1,1,.1,-1.342536,-.389151*
20,1,.1,-1.342536,-.389151,-1.405151,-.326536,0.0*
1,1,.1,-1.405151,-.326536*
20,1,.1,-1.405151,-.326536,-1.455941,-.254,0.0*
1,1,.1,-1.455941,-.254*
20,1,.1,-1.455941,-.254,-1.493364,-.173746,0.0*
1,1,.1,-1.493364,-.173746*
20,1,.1,-1.493364,-.173746,-1.516282,-.088213,0.0*
1,1,.1,-1.516282,-.088213*
20,1,.1,-1.516282,-.088213,-1.524,0.0,0.0*
1,1,.1,-1.524,0.0*
20,1,.1,-1.524,0.0,-1.516282,.088213,0.0*
1,1,.1,-1.516282,.088213*
20,1,.1,-1.516282,.088213,-1.493364,.173746,0.0*
1,1,.1,-1.493364,.173746*
20,1,.1,-1.493364,.173746,-1.455941,.254,0.0*
1,1,.1,-1.455941,.254*
20,1,.1,-1.455941,.254,-1.405151,.326536,0.0*
1,1,.1,-1.405151,.326536*
20,1,.1,-1.405151,.326536,-1.342536,.389151,0.0*
1,1,.1,-1.342536,.389151*
20,1,.1,-1.342536,.389151,-1.27,.439941,0.0*
1,1,.1,-1.27,.439941*
20,1,.1,-1.27,.439941,-1.189746,.477364,0.0*
1,1,.1,-1.189746,.477364*
20,1,.1,-1.189746,.477364,-1.104213,.500282,0.0*
1,1,.1,-1.104213,.500282*
20,1,.1,-1.104213,.500282,-1.016,.508,0.0*
1,1,.1,-1.016,.508*
1,1,.1,0.0,-.254*
20,1,.1,0.0,-.254,-.068,-.246,0.0*
1,1,.1,-.068,-.246*
20,1,.1,-.068,-.246,-.127,-.212,0.0*
1,1,.1,-.127,-.212*
20,1,.1,-.127,-.212,-.178,-.161,0.0*
1,1,.1,-.178,-.161*
20,1,.1,-.178,-.161,-.212,-.102,0.0*
1,1,.1,-.212,-.102*
20,1,.1,-.212,-.102,-.229,-.034,0.0*
1,1,.1,-.229,-.034*
20,1,.1,-.229,-.034,-.229,.034,0.0*
1,1,.1,-.229,.034*
20,1,.1,-.229,.034,-.212,.102,0.0*
1,1,.1,-.212,.102*
20,1,.1,-.212,.102,-.178,.161,0.0*
1,1,.1,-.178,.161*
20,1,.1,-.178,.161,-.127,.212,0.0*
1,1,.1,-.127,.212*
20,1,.1,-.127,.212,-.068,.246,0.0*
1,1,.1,-.068,.246*
20,1,.1,-.068,.246,0.0,.254,0.0*
1,1,.1,0.0,.254*
20,1,.1,0.0,.254,.068,.246,0.0*
1,1,.1,.068,.246*
20,1,.1,.068,.246,.127,.212,0.0*
1,1,.1,.127,.212*
20,1,.1,.127,.212,.178,.161,0.0*
1,1,.1,.178,.161*
20,1,.1,.178,.161,.212,.102,0.0*
1,1,.1,.212,.102*
20,1,.1,.212,.102,.229,.034,0.0*
1,1,.1,.229,.034*
20,1,.1,.229,.034,.229,-.034,0.0*
1,1,.1,.229,-.034*
20,1,.1,.229,-.034,.212,-.102,0.0*
1,1,.1,.212,-.102*
20,1,.1,.212,-.102,.178,-.161,0.0*
1,1,.1,.178,-.161*
20,1,.1,.178,-.161,.127,-.212,0.0*
1,1,.1,.127,-.212*
20,1,.1,.127,-.212,.068,-.246,0.0*
1,1,.1,.068,-.246*
20,1,.1,.068,-.246,0.0,-.254,0.0*
1,1,.1,0.0,-.254*
1,1,.1,.068,-.119*
20,1,.1,.068,-.119,.169,-.254,0.0*
1,1,.1,.169,-.254*
%
%ADD16MACRO16*%
%AMMACRO15*
1,1,.1,-1.27,.508*
20,1,.1,-1.27,.508,1.27,.508,0.0*
1,1,.1,1.27,.508*
20,1,.1,1.27,.508,1.358213,.500282,0.0*
1,1,.1,1.358213,.500282*
20,1,.1,1.358213,.500282,1.443746,.477364,0.0*
1,1,.1,1.443746,.477364*
20,1,.1,1.443746,.477364,1.524,.439941,0.0*
1,1,.1,1.524,.439941*
20,1,.1,1.524,.439941,1.596536,.389151,0.0*
1,1,.1,1.596536,.389151*
20,1,.1,1.596536,.389151,1.659151,.326536,0.0*
1,1,.1,1.659151,.326536*
20,1,.1,1.659151,.326536,1.709941,.254,0.0*
1,1,.1,1.709941,.254*
20,1,.1,1.709941,.254,1.747364,.173746,0.0*
1,1,.1,1.747364,.173746*
20,1,.1,1.747364,.173746,1.770282,.088213,0.0*
1,1,.1,1.770282,.088213*
20,1,.1,1.770282,.088213,1.778,0.0,0.0*
1,1,.1,1.778,0.0*
20,1,.1,1.778,0.0,1.770282,-.088213,0.0*
1,1,.1,1.770282,-.088213*
20,1,.1,1.770282,-.088213,1.747364,-.173746,0.0*
1,1,.1,1.747364,-.173746*
20,1,.1,1.747364,-.173746,1.709941,-.254,0.0*
1,1,.1,1.709941,-.254*
20,1,.1,1.709941,-.254,1.659151,-.326536,0.0*
1,1,.1,1.659151,-.326536*
20,1,.1,1.659151,-.326536,1.596536,-.389151,0.0*
1,1,.1,1.596536,-.389151*
20,1,.1,1.596536,-.389151,1.524,-.439941,0.0*
1,1,.1,1.524,-.439941*
20,1,.1,1.524,-.439941,1.443746,-.477364,0.0*
1,1,.1,1.443746,-.477364*
20,1,.1,1.443746,-.477364,1.358213,-.500282,0.0*
1,1,.1,1.358213,-.500282*
20,1,.1,1.358213,-.500282,1.27,-.508,0.0*
1,1,.1,1.27,-.508*
20,1,.1,1.27,-.508,-1.27,-.508,0.0*
1,1,.1,-1.27,-.508*
20,1,.1,-1.27,-.508,-1.358213,-.500282,0.0*
1,1,.1,-1.358213,-.500282*
20,1,.1,-1.358213,-.500282,-1.443746,-.477364,0.0*
1,1,.1,-1.443746,-.477364*
20,1,.1,-1.443746,-.477364,-1.524,-.439941,0.0*
1,1,.1,-1.524,-.439941*
20,1,.1,-1.524,-.439941,-1.596536,-.389151,0.0*
1,1,.1,-1.596536,-.389151*
20,1,.1,-1.596536,-.389151,-1.659151,-.326536,0.0*
1,1,.1,-1.659151,-.326536*
20,1,.1,-1.659151,-.326536,-1.709941,-.254,0.0*
1,1,.1,-1.709941,-.254*
20,1,.1,-1.709941,-.254,-1.747364,-.173746,0.0*
1,1,.1,-1.747364,-.173746*
20,1,.1,-1.747364,-.173746,-1.770282,-.088213,0.0*
1,1,.1,-1.770282,-.088213*
20,1,.1,-1.770282,-.088213,-1.778,0.0,0.0*
1,1,.1,-1.778,0.0*
20,1,.1,-1.778,0.0,-1.770282,.088213,0.0*
1,1,.1,-1.770282,.088213*
20,1,.1,-1.770282,.088213,-1.747364,.173746,0.0*
1,1,.1,-1.747364,.173746*
20,1,.1,-1.747364,.173746,-1.709941,.254,0.0*
1,1,.1,-1.709941,.254*
20,1,.1,-1.709941,.254,-1.659151,.326536,0.0*
1,1,.1,-1.659151,.326536*
20,1,.1,-1.659151,.326536,-1.596536,.389151,0.0*
1,1,.1,-1.596536,.389151*
20,1,.1,-1.596536,.389151,-1.524,.439941,0.0*
1,1,.1,-1.524,.439941*
20,1,.1,-1.524,.439941,-1.443746,.477364,0.0*
1,1,.1,-1.443746,.477364*
20,1,.1,-1.443746,.477364,-1.358213,.500282,0.0*
1,1,.1,-1.358213,.500282*
20,1,.1,-1.358213,.500282,-1.27,.508,0.0*
1,1,.1,-1.27,.508*
1,1,.1,-.22,-.254*
20,1,.1,-.22,-.254,-.22,.254,0.0*
1,1,.1,-.22,.254*
20,1,.1,-.22,.254,0.0,-.169,0.0*
1,1,.1,0.0,-.169*
20,1,.1,0.0,-.169,.22,.254,0.0*
1,1,.1,.22,.254*
20,1,.1,.22,.254,.22,-.254,0.0*
1,1,.1,.22,-.254*
%
%ADD15MACRO15*%
%AMMACRO25*
1,1,.1,.5,0.0*
20,1,.1,.5,0.0,.492404,-.086824,0.0*
1,1,.1,.492404,-.086824*
20,1,.1,.492404,-.086824,.469846,-.17101,0.0*
1,1,.1,.469846,-.17101*
20,1,.1,.469846,-.17101,.433013,-.25,0.0*
1,1,.1,.433013,-.25*
20,1,.1,.433013,-.25,.383022,-.321394,0.0*
1,1,.1,.383022,-.321394*
20,1,.1,.383022,-.321394,.321394,-.383022,0.0*
1,1,.1,.321394,-.383022*
20,1,.1,.321394,-.383022,.25,-.433013,0.0*
1,1,.1,.25,-.433013*
20,1,.1,.25,-.433013,.17101,-.469846,0.0*
1,1,.1,.17101,-.469846*
20,1,.1,.17101,-.469846,.086824,-.492404,0.0*
1,1,.1,.086824,-.492404*
20,1,.1,.086824,-.492404,0.0,-.5,0.0*
1,1,.1,0.0,-.5*
20,1,.1,0.0,-.5,-.086824,-.492404,0.0*
1,1,.1,-.086824,-.492404*
20,1,.1,-.086824,-.492404,-.17101,-.469846,0.0*
1,1,.1,-.17101,-.469846*
20,1,.1,-.17101,-.469846,-.25,-.433013,0.0*
1,1,.1,-.25,-.433013*
20,1,.1,-.25,-.433013,-.321394,-.383022,0.0*
1,1,.1,-.321394,-.383022*
20,1,.1,-.321394,-.383022,-.383022,-.321394,0.0*
1,1,.1,-.383022,-.321394*
20,1,.1,-.383022,-.321394,-.433013,-.25,0.0*
1,1,.1,-.433013,-.25*
20,1,.1,-.433013,-.25,-.469846,-.17101,0.0*
1,1,.1,-.469846,-.17101*
20,1,.1,-.469846,-.17101,-.492404,-.086824,0.0*
1,1,.1,-.492404,-.086824*
20,1,.1,-.492404,-.086824,-.5,0.0,0.0*
1,1,.1,-.5,0.0*
20,1,.1,-.5,0.0,-.492404,.086824,0.0*
1,1,.1,-.492404,.086824*
20,1,.1,-.492404,.086824,-.469846,.17101,0.0*
1,1,.1,-.469846,.17101*
20,1,.1,-.469846,.17101,-.433013,.25,0.0*
1,1,.1,-.433013,.25*
20,1,.1,-.433013,.25,-.383022,.321394,0.0*
1,1,.1,-.383022,.321394*
20,1,.1,-.383022,.321394,-.321394,.383022,0.0*
1,1,.1,-.321394,.383022*
20,1,.1,-.321394,.383022,-.25,.433013,0.0*
1,1,.1,-.25,.433013*
20,1,.1,-.25,.433013,-.17101,.469846,0.0*
1,1,.1,-.17101,.469846*
20,1,.1,-.17101,.469846,-.086824,.492404,0.0*
1,1,.1,-.086824,.492404*
20,1,.1,-.086824,.492404,0.0,.5,0.0*
1,1,.1,0.0,.5*
20,1,.1,0.0,.5,.086824,.492404,0.0*
1,1,.1,.086824,.492404*
20,1,.1,.086824,.492404,.17101,.469846,0.0*
1,1,.1,.17101,.469846*
20,1,.1,.17101,.469846,.25,.433013,0.0*
1,1,.1,.25,.433013*
20,1,.1,.25,.433013,.321394,.383022,0.0*
1,1,.1,.321394,.383022*
20,1,.1,.321394,.383022,.383022,.321394,0.0*
1,1,.1,.383022,.321394*
20,1,.1,.383022,.321394,.433013,.25,0.0*
1,1,.1,.433013,.25*
20,1,.1,.433013,.25,.469846,.17101,0.0*
1,1,.1,.469846,.17101*
20,1,.1,.469846,.17101,.492404,.086824,0.0*
1,1,.1,.492404,.086824*
20,1,.1,.492404,.086824,.5,0.0,0.0*
1,1,.1,.5,0.0*
1,1,.1,-.158,-.25*
20,1,.1,-.158,-.25,-.158,.25,0.0*
1,1,.1,-.158,.25*
20,1,.1,-.158,.25,.158,.25,0.0*
1,1,.1,.158,.25*
1,1,.1,.042,.008*
20,1,.1,.042,.008,-.158,.008,0.0*
1,1,.1,-.158,.008*
%
%ADD25MACRO25*%
%AMMACRO14*
1,1,.1,.5,0.0*
20,1,.1,.5,0.0,.492404,-.086824,0.0*
1,1,.1,.492404,-.086824*
20,1,.1,.492404,-.086824,.469846,-.17101,0.0*
1,1,.1,.469846,-.17101*
20,1,.1,.469846,-.17101,.433013,-.25,0.0*
1,1,.1,.433013,-.25*
20,1,.1,.433013,-.25,.383022,-.321394,0.0*
1,1,.1,.383022,-.321394*
20,1,.1,.383022,-.321394,.321394,-.383022,0.0*
1,1,.1,.321394,-.383022*
20,1,.1,.321394,-.383022,.25,-.433013,0.0*
1,1,.1,.25,-.433013*
20,1,.1,.25,-.433013,.17101,-.469846,0.0*
1,1,.1,.17101,-.469846*
20,1,.1,.17101,-.469846,.086824,-.492404,0.0*
1,1,.1,.086824,-.492404*
20,1,.1,.086824,-.492404,0.0,-.5,0.0*
1,1,.1,0.0,-.5*
20,1,.1,0.0,-.5,-.086824,-.492404,0.0*
1,1,.1,-.086824,-.492404*
20,1,.1,-.086824,-.492404,-.17101,-.469846,0.0*
1,1,.1,-.17101,-.469846*
20,1,.1,-.17101,-.469846,-.25,-.433013,0.0*
1,1,.1,-.25,-.433013*
20,1,.1,-.25,-.433013,-.321394,-.383022,0.0*
1,1,.1,-.321394,-.383022*
20,1,.1,-.321394,-.383022,-.383022,-.321394,0.0*
1,1,.1,-.383022,-.321394*
20,1,.1,-.383022,-.321394,-.433013,-.25,0.0*
1,1,.1,-.433013,-.25*
20,1,.1,-.433013,-.25,-.469846,-.17101,0.0*
1,1,.1,-.469846,-.17101*
20,1,.1,-.469846,-.17101,-.492404,-.086824,0.0*
1,1,.1,-.492404,-.086824*
20,1,.1,-.492404,-.086824,-.5,0.0,0.0*
1,1,.1,-.5,0.0*
20,1,.1,-.5,0.0,-.492404,.086824,0.0*
1,1,.1,-.492404,.086824*
20,1,.1,-.492404,.086824,-.469846,.17101,0.0*
1,1,.1,-.469846,.17101*
20,1,.1,-.469846,.17101,-.433013,.25,0.0*
1,1,.1,-.433013,.25*
20,1,.1,-.433013,.25,-.383022,.321394,0.0*
1,1,.1,-.383022,.321394*
20,1,.1,-.383022,.321394,-.321394,.383022,0.0*
1,1,.1,-.321394,.383022*
20,1,.1,-.321394,.383022,-.25,.433013,0.0*
1,1,.1,-.25,.433013*
20,1,.1,-.25,.433013,-.17101,.469846,0.0*
1,1,.1,-.17101,.469846*
20,1,.1,-.17101,.469846,-.086824,.492404,0.0*
1,1,.1,-.086824,.492404*
20,1,.1,-.086824,.492404,0.0,.5,0.0*
1,1,.1,0.0,.5*
20,1,.1,0.0,.5,.086824,.492404,0.0*
1,1,.1,.086824,.492404*
20,1,.1,.086824,.492404,.17101,.469846,0.0*
1,1,.1,.17101,.469846*
20,1,.1,.17101,.469846,.25,.433013,0.0*
1,1,.1,.25,.433013*
20,1,.1,.25,.433013,.321394,.383022,0.0*
1,1,.1,.321394,.383022*
20,1,.1,.321394,.383022,.383022,.321394,0.0*
1,1,.1,.383022,.321394*
20,1,.1,.383022,.321394,.433013,.25,0.0*
1,1,.1,.433013,.25*
20,1,.1,.433013,.25,.469846,.17101,0.0*
1,1,.1,.469846,.17101*
20,1,.1,.469846,.17101,.492404,.086824,0.0*
1,1,.1,.492404,.086824*
20,1,.1,.492404,.086824,.5,0.0,0.0*
1,1,.1,.5,0.0*
1,1,.1,-.175,-.25*
20,1,.1,-.175,-.25,-.175,.25,0.0*
1,1,.1,-.175,.25*
1,1,.1,.175,.25*
20,1,.1,.175,.25,.175,-.25,0.0*
1,1,.1,.175,-.25*
1,1,.1,.175,0.0*
20,1,.1,.175,0.0,-.175,0.0,0.0*
1,1,.1,-.175,0.0*
%
%ADD14MACRO14*%
%AMMACRO22*
1,1,.1,.5,0.0*
20,1,.1,.5,0.0,.492404,-.086824,0.0*
1,1,.1,.492404,-.086824*
20,1,.1,.492404,-.086824,.469846,-.17101,0.0*
1,1,.1,.469846,-.17101*
20,1,.1,.469846,-.17101,.433013,-.25,0.0*
1,1,.1,.433013,-.25*
20,1,.1,.433013,-.25,.383022,-.321394,0.0*
1,1,.1,.383022,-.321394*
20,1,.1,.383022,-.321394,.321394,-.383022,0.0*
1,1,.1,.321394,-.383022*
20,1,.1,.321394,-.383022,.25,-.433013,0.0*
1,1,.1,.25,-.433013*
20,1,.1,.25,-.433013,.17101,-.469846,0.0*
1,1,.1,.17101,-.469846*
20,1,.1,.17101,-.469846,.086824,-.492404,0.0*
1,1,.1,.086824,-.492404*
20,1,.1,.086824,-.492404,0.0,-.5,0.0*
1,1,.1,0.0,-.5*
20,1,.1,0.0,-.5,-.086824,-.492404,0.0*
1,1,.1,-.086824,-.492404*
20,1,.1,-.086824,-.492404,-.17101,-.469846,0.0*
1,1,.1,-.17101,-.469846*
20,1,.1,-.17101,-.469846,-.25,-.433013,0.0*
1,1,.1,-.25,-.433013*
20,1,.1,-.25,-.433013,-.321394,-.383022,0.0*
1,1,.1,-.321394,-.383022*
20,1,.1,-.321394,-.383022,-.383022,-.321394,0.0*
1,1,.1,-.383022,-.321394*
20,1,.1,-.383022,-.321394,-.433013,-.25,0.0*
1,1,.1,-.433013,-.25*
20,1,.1,-.433013,-.25,-.469846,-.17101,0.0*
1,1,.1,-.469846,-.17101*
20,1,.1,-.469846,-.17101,-.492404,-.086824,0.0*
1,1,.1,-.492404,-.086824*
20,1,.1,-.492404,-.086824,-.5,0.0,0.0*
1,1,.1,-.5,0.0*
20,1,.1,-.5,0.0,-.492404,.086824,0.0*
1,1,.1,-.492404,.086824*
20,1,.1,-.492404,.086824,-.469846,.17101,0.0*
1,1,.1,-.469846,.17101*
20,1,.1,-.469846,.17101,-.433013,.25,0.0*
1,1,.1,-.433013,.25*
20,1,.1,-.433013,.25,-.383022,.321394,0.0*
1,1,.1,-.383022,.321394*
20,1,.1,-.383022,.321394,-.321394,.383022,0.0*
1,1,.1,-.321394,.383022*
20,1,.1,-.321394,.383022,-.25,.433013,0.0*
1,1,.1,-.25,.433013*
20,1,.1,-.25,.433013,-.17101,.469846,0.0*
1,1,.1,-.17101,.469846*
20,1,.1,-.17101,.469846,-.086824,.492404,0.0*
1,1,.1,-.086824,.492404*
20,1,.1,-.086824,.492404,0.0,.5,0.0*
1,1,.1,0.0,.5*
20,1,.1,0.0,.5,.086824,.492404,0.0*
1,1,.1,.086824,.492404*
20,1,.1,.086824,.492404,.17101,.469846,0.0*
1,1,.1,.17101,.469846*
20,1,.1,.17101,.469846,.25,.433013,0.0*
1,1,.1,.25,.433013*
20,1,.1,.25,.433013,.321394,.383022,0.0*
1,1,.1,.321394,.383022*
20,1,.1,.321394,.383022,.383022,.321394,0.0*
1,1,.1,.383022,.321394*
20,1,.1,.383022,.321394,.433013,.25,0.0*
1,1,.1,.433013,.25*
20,1,.1,.433013,.25,.469846,.17101,0.0*
1,1,.1,.469846,.17101*
20,1,.1,.469846,.17101,.492404,.086824,0.0*
1,1,.1,.492404,.086824*
20,1,.1,.492404,.086824,.5,0.0,0.0*
1,1,.1,.5,0.0*
1,1,.1,-.167,-.15*
20,1,.1,-.167,-.15,-.125,-.2,0.0*
1,1,.1,-.125,-.2*
20,1,.1,-.125,-.2,-.075,-.233,0.0*
1,1,.1,-.075,-.233*
20,1,.1,-.075,-.233,-.017,-.25,0.0*
1,1,.1,-.017,-.25*
20,1,.1,-.017,-.25,.05,-.233,0.0*
1,1,.1,.05,-.233*
20,1,.1,.05,-.233,.1,-.2,0.0*
1,1,.1,.1,-.2*
20,1,.1,.1,-.2,.15,-.15,0.0*
1,1,.1,.15,-.15*
20,1,.1,.15,-.15,.167,-.083,0.0*
1,1,.1,.167,-.083*
20,1,.1,.167,-.083,.167,.25,0.0*
1,1,.1,.167,.25*
%
%ADD22MACRO22*%
%AMMACRO11*
1,1,.1,.15,.15*
20,1,.1,.15,.15,.15,-.15,0.0*
1,1,.1,.15,-.15*
20,1,.1,.15,-.15,-.15,-.15,0.0*
1,1,.1,-.15,-.15*
20,1,.1,-.15,-.15,-.15,.15,0.0*
1,1,.1,-.15,.15*
20,1,.1,-.15,.15,.15,.15,0.0*
1,1,.1,.15,.15*
1,1,.1,-.063,-.075*
20,1,.1,-.063,-.075,0.0,.075,0.0*
1,1,.1,0.0,.075*
20,1,.1,0.0,.075,.063,-.075,0.0*
1,1,.1,.063,-.075*
1,1,.1,.04,-.023*
20,1,.1,.04,-.023,-.04,-.023,0.0*
1,1,.1,-.04,-.023*
%
%ADD11MACRO11*%
%AMMACRO21*
1,1,.1,1.15,0.0*
20,1,.1,1.15,0.0,1.132529,-.199695,0.0*
1,1,.1,1.132529,-.199695*
20,1,.1,1.132529,-.199695,1.080647,-.393323,0.0*
1,1,.1,1.080647,-.393323*
20,1,.1,1.080647,-.393323,.995929,-.575,0.0*
1,1,.1,.995929,-.575*
20,1,.1,.995929,-.575,.880951,-.739206,0.0*
1,1,.1,.880951,-.739206*
20,1,.1,.880951,-.739206,.739206,-.880951,0.0*
1,1,.1,.739206,-.880951*
20,1,.1,.739206,-.880951,.575,-.995929,0.0*
1,1,.1,.575,-.995929*
20,1,.1,.575,-.995929,.393323,-1.080647,0.0*
1,1,.1,.393323,-1.080647*
20,1,.1,.393323,-1.080647,.199695,-1.132529,0.0*
1,1,.1,.199695,-1.132529*
20,1,.1,.199695,-1.132529,0.0,-1.15,0.0*
1,1,.1,0.0,-1.15*
20,1,.1,0.0,-1.15,-.199695,-1.132529,0.0*
1,1,.1,-.199695,-1.132529*
20,1,.1,-.199695,-1.132529,-.393323,-1.080647,0.0*
1,1,.1,-.393323,-1.080647*
20,1,.1,-.393323,-1.080647,-.575,-.995929,0.0*
1,1,.1,-.575,-.995929*
20,1,.1,-.575,-.995929,-.739206,-.880951,0.0*
1,1,.1,-.739206,-.880951*
20,1,.1,-.739206,-.880951,-.880951,-.739206,0.0*
1,1,.1,-.880951,-.739206*
20,1,.1,-.880951,-.739206,-.995929,-.575,0.0*
1,1,.1,-.995929,-.575*
20,1,.1,-.995929,-.575,-1.080647,-.393323,0.0*
1,1,.1,-1.080647,-.393323*
20,1,.1,-1.080647,-.393323,-1.132529,-.199695,0.0*
1,1,.1,-1.132529,-.199695*
20,1,.1,-1.132529,-.199695,-1.15,0.0,0.0*
1,1,.1,-1.15,0.0*
20,1,.1,-1.15,0.0,-1.132529,.199695,0.0*
1,1,.1,-1.132529,.199695*
20,1,.1,-1.132529,.199695,-1.080647,.393323,0.0*
1,1,.1,-1.080647,.393323*
20,1,.1,-1.080647,.393323,-.995929,.575,0.0*
1,1,.1,-.995929,.575*
20,1,.1,-.995929,.575,-.880951,.739206,0.0*
1,1,.1,-.880951,.739206*
20,1,.1,-.880951,.739206,-.739206,.880951,0.0*
1,1,.1,-.739206,.880951*
20,1,.1,-.739206,.880951,-.575,.995929,0.0*
1,1,.1,-.575,.995929*
20,1,.1,-.575,.995929,-.393323,1.080647,0.0*
1,1,.1,-.393323,1.080647*
20,1,.1,-.393323,1.080647,-.199695,1.132529,0.0*
1,1,.1,-.199695,1.132529*
20,1,.1,-.199695,1.132529,0.0,1.15,0.0*
1,1,.1,0.0,1.15*
20,1,.1,0.0,1.15,.199695,1.132529,0.0*
1,1,.1,.199695,1.132529*
20,1,.1,.199695,1.132529,.393323,1.080647,0.0*
1,1,.1,.393323,1.080647*
20,1,.1,.393323,1.080647,.575,.995929,0.0*
1,1,.1,.575,.995929*
20,1,.1,.575,.995929,.739206,.880951,0.0*
1,1,.1,.739206,.880951*
20,1,.1,.739206,.880951,.880951,.739206,0.0*
1,1,.1,.880951,.739206*
20,1,.1,.880951,.739206,.995929,.575,0.0*
1,1,.1,.995929,.575*
20,1,.1,.995929,.575,1.080647,.393323,0.0*
1,1,.1,1.080647,.393323*
20,1,.1,1.080647,.393323,1.132529,.199695,0.0*
1,1,.1,1.132529,.199695*
20,1,.1,1.132529,.199695,1.15,0.0,0.0*
1,1,.1,1.15,0.0*
1,1,.1,-.422,-.575*
20,1,.1,-.422,-.575,-.422,.575,0.0*
1,1,.1,-.422,.575*
1,1,.1,.307,.575*
20,1,.1,.307,.575,-.422,-.134,0.0*
1,1,.1,-.422,-.134*
1,1,.1,.422,-.575*
20,1,.1,.422,-.575,-.096,.192,0.0*
1,1,.1,-.096,.192*
%
%ADD21MACRO21*%
%AMMACRO12*
1,1,.1,.635,.635*
20,1,.1,.635,.635,.635,-.635,0.0*
1,1,.1,.635,-.635*
20,1,.1,.635,-.635,-.635,-.635,0.0*
1,1,.1,-.635,-.635*
20,1,.1,-.635,-.635,-.635,.635,0.0*
1,1,.1,-.635,.635*
20,1,.1,-.635,.635,.635,.635,0.0*
1,1,.1,.635,.635*
1,1,.1,.085,.022*
20,1,.1,.085,.022,.128,.053,0.0*
1,1,.1,.128,.053*
20,1,.1,.128,.053,.159,.106,0.0*
1,1,.1,.159,.106*
20,1,.1,.159,.106,.18,.18,0.0*
1,1,.1,.18,.18*
20,1,.1,.18,.18,.159,.244,0.0*
1,1,.1,.159,.244*
20,1,.1,.159,.244,.117,.286,0.0*
1,1,.1,.117,.286*
20,1,.1,.117,.286,.043,.318,0.0*
1,1,.1,.043,.318*
20,1,.1,.043,.318,-.243,.318,0.0*
1,1,.1,-.243,.318*
20,1,.1,-.243,.318,-.243,-.317,0.0*
1,1,.1,-.243,-.317*
20,1,.1,-.243,-.317,.106,-.317,0.0*
1,1,.1,.106,-.317*
20,1,.1,.106,-.317,.18,-.275,0.0*
1,1,.1,.18,-.275*
20,1,.1,.18,-.275,.223,-.211,0.0*
1,1,.1,.223,-.211*
20,1,.1,.223,-.211,.244,-.137,0.0*
1,1,.1,.244,-.137*
20,1,.1,.244,-.137,.223,-.063,0.0*
1,1,.1,.223,-.063*
20,1,.1,.223,-.063,.159,0.0,0.0*
1,1,.1,.159,0.0*
20,1,.1,.159,0.0,.085,.022,0.0*
1,1,.1,.085,.022*
20,1,.1,.085,.022,-.243,.022,0.0*
1,1,.1,-.243,.022*
%
%ADD12MACRO12*%
%AMMACRO28*
1,1,.1,.45,0.0*
20,1,.1,.45,0.0,.443163,-.078142,0.0*
1,1,.1,.443163,-.078142*
20,1,.1,.443163,-.078142,.422862,-.153909,0.0*
1,1,.1,.422862,-.153909*
20,1,.1,.422862,-.153909,.389711,-.225,0.0*
1,1,.1,.389711,-.225*
20,1,.1,.389711,-.225,.34472,-.289254,0.0*
1,1,.1,.34472,-.289254*
20,1,.1,.34472,-.289254,.289254,-.34472,0.0*
1,1,.1,.289254,-.34472*
20,1,.1,.289254,-.34472,.225,-.389711,0.0*
1,1,.1,.225,-.389711*
20,1,.1,.225,-.389711,.153909,-.422862,0.0*
1,1,.1,.153909,-.422862*
20,1,.1,.153909,-.422862,.078142,-.443163,0.0*
1,1,.1,.078142,-.443163*
20,1,.1,.078142,-.443163,0.0,-.45,0.0*
1,1,.1,0.0,-.45*
20,1,.1,0.0,-.45,-.078142,-.443163,0.0*
1,1,.1,-.078142,-.443163*
20,1,.1,-.078142,-.443163,-.153909,-.422862,0.0*
1,1,.1,-.153909,-.422862*
20,1,.1,-.153909,-.422862,-.225,-.389711,0.0*
1,1,.1,-.225,-.389711*
20,1,.1,-.225,-.389711,-.289254,-.34472,0.0*
1,1,.1,-.289254,-.34472*
20,1,.1,-.289254,-.34472,-.34472,-.289254,0.0*
1,1,.1,-.34472,-.289254*
20,1,.1,-.34472,-.289254,-.389711,-.225,0.0*
1,1,.1,-.389711,-.225*
20,1,.1,-.389711,-.225,-.422862,-.153909,0.0*
1,1,.1,-.422862,-.153909*
20,1,.1,-.422862,-.153909,-.443163,-.078142,0.0*
1,1,.1,-.443163,-.078142*
20,1,.1,-.443163,-.078142,-.45,0.0,0.0*
1,1,.1,-.45,0.0*
20,1,.1,-.45,0.0,-.443163,.078142,0.0*
1,1,.1,-.443163,.078142*
20,1,.1,-.443163,.078142,-.422862,.153909,0.0*
1,1,.1,-.422862,.153909*
20,1,.1,-.422862,.153909,-.389711,.225,0.0*
1,1,.1,-.389711,.225*
20,1,.1,-.389711,.225,-.34472,.289254,0.0*
1,1,.1,-.34472,.289254*
20,1,.1,-.34472,.289254,-.289254,.34472,0.0*
1,1,.1,-.289254,.34472*
20,1,.1,-.289254,.34472,-.225,.389711,0.0*
1,1,.1,-.225,.389711*
20,1,.1,-.225,.389711,-.153909,.422862,0.0*
1,1,.1,-.153909,.422862*
20,1,.1,-.153909,.422862,-.078142,.443163,0.0*
1,1,.1,-.078142,.443163*
20,1,.1,-.078142,.443163,0.0,.45,0.0*
1,1,.1,0.0,.45*
20,1,.1,0.0,.45,.078142,.443163,0.0*
1,1,.1,.078142,.443163*
20,1,.1,.078142,.443163,.153909,.422862,0.0*
1,1,.1,.153909,.422862*
20,1,.1,.153909,.422862,.225,.389711,0.0*
1,1,.1,.225,.389711*
20,1,.1,.225,.389711,.289254,.34472,0.0*
1,1,.1,.289254,.34472*
20,1,.1,.289254,.34472,.34472,.289254,0.0*
1,1,.1,.34472,.289254*
20,1,.1,.34472,.289254,.389711,.225,0.0*
1,1,.1,.389711,.225*
20,1,.1,.389711,.225,.422862,.153909,0.0*
1,1,.1,.422862,.153909*
20,1,.1,.422862,.153909,.443163,.078142,0.0*
1,1,.1,.443163,.078142*
20,1,.1,.443163,.078142,.45,0.0,0.0*
1,1,.1,.45,0.0*
1,1,.1,.165,.187*
20,1,.1,.165,.187,.12,.21,0.0*
1,1,.1,.12,.21*
20,1,.1,.12,.21,.068,.225,0.0*
1,1,.1,.068,.225*
20,1,.1,.068,.225,.008,.225,0.0*
1,1,.1,.008,.225*
20,1,.1,.008,.225,-.06,.202,0.0*
1,1,.1,-.06,.202*
20,1,.1,-.06,.202,-.112,.165,0.0*
1,1,.1,-.112,.165*
20,1,.1,-.112,.165,-.15,.12,0.0*
1,1,.1,-.15,.12*
20,1,.1,-.15,.12,-.18,.045,0.0*
1,1,.1,-.18,.045*
20,1,.1,-.18,.045,-.188,-.023,0.0*
1,1,.1,-.188,-.023*
20,1,.1,-.188,-.023,-.172,-.09,0.0*
1,1,.1,-.172,-.09*
20,1,.1,-.172,-.09,-.15,-.135,0.0*
1,1,.1,-.15,-.135*
20,1,.1,-.15,-.135,-.105,-.18,0.0*
1,1,.1,-.105,-.18*
20,1,.1,-.105,-.18,-.052,-.21,0.0*
1,1,.1,-.052,-.21*
20,1,.1,-.052,-.21,0.0,-.225,0.0*
1,1,.1,0.0,-.225*
20,1,.1,0.0,-.225,.052,-.225,0.0*
1,1,.1,.052,-.225*
20,1,.1,.052,-.225,.105,-.21,0.0*
1,1,.1,.105,-.21*
20,1,.1,.105,-.21,.15,-.188,0.0*
1,1,.1,.15,-.188*
20,1,.1,.15,-.188,.188,-.158,0.0*
1,1,.1,.188,-.158*
%
%ADD28MACRO28*%
%AMMACRO24*
1,1,.1,.635,0.0*
20,1,.1,.635,0.0,.625353,-.110267,0.0*
1,1,.1,.625353,-.110267*
20,1,.1,.625353,-.110267,.596705,-.217183,0.0*
1,1,.1,.596705,-.217183*
20,1,.1,.596705,-.217183,.549926,-.3175,0.0*
1,1,.1,.549926,-.3175*
20,1,.1,.549926,-.3175,.486438,-.40817,0.0*
1,1,.1,.486438,-.40817*
20,1,.1,.486438,-.40817,.40817,-.486438,0.0*
1,1,.1,.40817,-.486438*
20,1,.1,.40817,-.486438,.3175,-.549926,0.0*
1,1,.1,.3175,-.549926*
20,1,.1,.3175,-.549926,.217183,-.596705,0.0*
1,1,.1,.217183,-.596705*
20,1,.1,.217183,-.596705,.110267,-.625353,0.0*
1,1,.1,.110267,-.625353*
20,1,.1,.110267,-.625353,0.0,-.635,0.0*
1,1,.1,0.0,-.635*
20,1,.1,0.0,-.635,-.110267,-.625353,0.0*
1,1,.1,-.110267,-.625353*
20,1,.1,-.110267,-.625353,-.217183,-.596705,0.0*
1,1,.1,-.217183,-.596705*
20,1,.1,-.217183,-.596705,-.3175,-.549926,0.0*
1,1,.1,-.3175,-.549926*
20,1,.1,-.3175,-.549926,-.40817,-.486438,0.0*
1,1,.1,-.40817,-.486438*
20,1,.1,-.40817,-.486438,-.486438,-.40817,0.0*
1,1,.1,-.486438,-.40817*
20,1,.1,-.486438,-.40817,-.549926,-.3175,0.0*
1,1,.1,-.549926,-.3175*
20,1,.1,-.549926,-.3175,-.596705,-.217183,0.0*
1,1,.1,-.596705,-.217183*
20,1,.1,-.596705,-.217183,-.625353,-.110267,0.0*
1,1,.1,-.625353,-.110267*
20,1,.1,-.625353,-.110267,-.635,0.0,0.0*
1,1,.1,-.635,0.0*
20,1,.1,-.635,0.0,-.625353,.110267,0.0*
1,1,.1,-.625353,.110267*
20,1,.1,-.625353,.110267,-.596705,.217183,0.0*
1,1,.1,-.596705,.217183*
20,1,.1,-.596705,.217183,-.549926,.3175,0.0*
1,1,.1,-.549926,.3175*
20,1,.1,-.549926,.3175,-.486438,.40817,0.0*
1,1,.1,-.486438,.40817*
20,1,.1,-.486438,.40817,-.40817,.486438,0.0*
1,1,.1,-.40817,.486438*
20,1,.1,-.40817,.486438,-.3175,.549926,0.0*
1,1,.1,-.3175,.549926*
20,1,.1,-.3175,.549926,-.217183,.596705,0.0*
1,1,.1,-.217183,.596705*
20,1,.1,-.217183,.596705,-.110267,.625353,0.0*
1,1,.1,-.110267,.625353*
20,1,.1,-.110267,.625353,0.0,.635,0.0*
1,1,.1,0.0,.635*
20,1,.1,0.0,.635,.110267,.625353,0.0*
1,1,.1,.110267,.625353*
20,1,.1,.110267,.625353,.217183,.596705,0.0*
1,1,.1,.217183,.596705*
20,1,.1,.217183,.596705,.3175,.549926,0.0*
1,1,.1,.3175,.549926*
20,1,.1,.3175,.549926,.40817,.486438,0.0*
1,1,.1,.40817,.486438*
20,1,.1,.40817,.486438,.486438,.40817,0.0*
1,1,.1,.486438,.40817*
20,1,.1,.486438,.40817,.549926,.3175,0.0*
1,1,.1,.549926,.3175*
20,1,.1,.549926,.3175,.596705,.217183,0.0*
1,1,.1,.596705,.217183*
20,1,.1,.596705,.217183,.625353,.110267,0.0*
1,1,.1,.625353,.110267*
20,1,.1,.625353,.110267,.635,0.0,0.0*
1,1,.1,.635,0.0*
1,1,.1,.064,0.0*
20,1,.1,.064,0.0,.276,0.0,0.0*
1,1,.1,.276,0.0*
20,1,.1,.276,0.0,.276,-.19,0.0*
1,1,.1,.276,-.19*
20,1,.1,.276,-.19,.212,-.254,0.0*
1,1,.1,.212,-.254*
20,1,.1,.212,-.254,.138,-.296,0.0*
1,1,.1,.138,-.296*
20,1,.1,.138,-.296,.032,-.317,0.0*
1,1,.1,.032,-.317*
20,1,.1,.032,-.317,-.074,-.296,0.0*
1,1,.1,-.074,-.296*
20,1,.1,-.074,-.296,-.148,-.254,0.0*
1,1,.1,-.148,-.254*
20,1,.1,-.148,-.254,-.211,-.19,0.0*
1,1,.1,-.211,-.19*
20,1,.1,-.211,-.19,-.254,-.116,0.0*
1,1,.1,-.254,-.116*
20,1,.1,-.254,-.116,-.275,-.031,0.0*
1,1,.1,-.275,-.031*
20,1,.1,-.275,-.031,-.275,.043,0.0*
1,1,.1,-.275,.043*
20,1,.1,-.275,.043,-.254,.106,0.0*
1,1,.1,-.254,.106*
20,1,.1,-.254,.106,-.211,.18,0.0*
1,1,.1,-.211,.18*
20,1,.1,-.211,.18,-.148,.244,0.0*
1,1,.1,-.148,.244*
20,1,.1,-.148,.244,-.084,.286,0.0*
1,1,.1,-.084,.286*
20,1,.1,-.084,.286,0.0,.318,0.0*
1,1,.1,0.0,.318*
20,1,.1,0.0,.318,.075,.318,0.0*
1,1,.1,.075,.318*
20,1,.1,.075,.318,.159,.297,0.0*
1,1,.1,.159,.297*
20,1,.1,.159,.297,.223,.254,0.0*
1,1,.1,.223,.254*
%
%ADD24MACRO24*%
%AMMACRO10*
1,1,.1,1.2,1.2*
20,1,.1,1.2,1.2,1.2,-1.2,0.0*
1,1,.1,1.2,-1.2*
20,1,.1,1.2,-1.2,-1.2,-1.2,0.0*
1,1,.1,-1.2,-1.2*
20,1,.1,-1.2,-1.2,-1.2,1.2,0.0*
1,1,.1,-1.2,1.2*
20,1,.1,-1.2,1.2,1.2,1.2,0.0*
1,1,.1,1.2,1.2*
1,1,.1,-.4,.6*
20,1,.1,-.4,.6,-.4,-.6,0.0*
1,1,.1,-.4,-.6*
20,1,.1,-.4,-.6,.4,-.6,0.0*
1,1,.1,.4,-.6*
%
%ADD10MACRO10*%
%AMMACRO27*
1,1,.1,.45,0.0*
20,1,.1,.45,0.0,-.45,0.0,0.0*
1,1,.1,-.45,0.0*
1,1,.1,0.0,.45*
20,1,.1,0.0,.45,0.0,-.45,0.0*
1,1,.1,0.0,-.45*
1,1,.1,.06,0.0*
20,1,.1,.06,0.0,.06,.45,0.0*
1,1,.1,.06,.45*
20,1,.1,.06,.45,.21,.45,0.0*
1,1,.1,.21,.45*
20,1,.1,.21,.45,.27,.427,0.0*
1,1,.1,.27,.427*
20,1,.1,.27,.427,.315,.397,0.0*
1,1,.1,.315,.397*
20,1,.1,.315,.397,.353,.353,0.0*
1,1,.1,.353,.353*
20,1,.1,.353,.353,.383,.3,0.0*
1,1,.1,.383,.3*
20,1,.1,.383,.3,.39,.225,0.0*
1,1,.1,.39,.225*
20,1,.1,.39,.225,.383,.15,0.0*
1,1,.1,.383,.15*
20,1,.1,.383,.15,.353,.097,0.0*
1,1,.1,.353,.097*
20,1,.1,.353,.097,.315,.052,0.0*
1,1,.1,.315,.052*
20,1,.1,.315,.052,.27,.022,0.0*
1,1,.1,.27,.022*
20,1,.1,.27,.022,.21,0.0,0.0*
1,1,.1,.21,0.0*
20,1,.1,.21,0.0,.06,0.0,0.0*
1,1,.1,.06,0.0*
%
%ADD27MACRO27*%
%AMMACRO23*
1,1,.1,.4,0.0*
20,1,.1,.4,0.0,.393923,-.069459,0.0*
1,1,.1,.393923,-.069459*
20,1,.1,.393923,-.069459,.375877,-.136808,0.0*
1,1,.1,.375877,-.136808*
20,1,.1,.375877,-.136808,.34641,-.2,0.0*
1,1,.1,.34641,-.2*
20,1,.1,.34641,-.2,.306418,-.257115,0.0*
1,1,.1,.306418,-.257115*
20,1,.1,.306418,-.257115,.257115,-.306418,0.0*
1,1,.1,.257115,-.306418*
20,1,.1,.257115,-.306418,.2,-.34641,0.0*
1,1,.1,.2,-.34641*
20,1,.1,.2,-.34641,.136808,-.375877,0.0*
1,1,.1,.136808,-.375877*
20,1,.1,.136808,-.375877,.069459,-.393923,0.0*
1,1,.1,.069459,-.393923*
20,1,.1,.069459,-.393923,0.0,-.4,0.0*
1,1,.1,0.0,-.4*
20,1,.1,0.0,-.4,-.069459,-.393923,0.0*
1,1,.1,-.069459,-.393923*
20,1,.1,-.069459,-.393923,-.136808,-.375877,0.0*
1,1,.1,-.136808,-.375877*
20,1,.1,-.136808,-.375877,-.2,-.34641,0.0*
1,1,.1,-.2,-.34641*
20,1,.1,-.2,-.34641,-.257115,-.306418,0.0*
1,1,.1,-.257115,-.306418*
20,1,.1,-.257115,-.306418,-.306418,-.257115,0.0*
1,1,.1,-.306418,-.257115*
20,1,.1,-.306418,-.257115,-.34641,-.2,0.0*
1,1,.1,-.34641,-.2*
20,1,.1,-.34641,-.2,-.375877,-.136808,0.0*
1,1,.1,-.375877,-.136808*
20,1,.1,-.375877,-.136808,-.393923,-.069459,0.0*
1,1,.1,-.393923,-.069459*
20,1,.1,-.393923,-.069459,-.4,0.0,0.0*
1,1,.1,-.4,0.0*
20,1,.1,-.4,0.0,-.393923,.069459,0.0*
1,1,.1,-.393923,.069459*
20,1,.1,-.393923,.069459,-.375877,.136808,0.0*
1,1,.1,-.375877,.136808*
20,1,.1,-.375877,.136808,-.34641,.2,0.0*
1,1,.1,-.34641,.2*
20,1,.1,-.34641,.2,-.306418,.257115,0.0*
1,1,.1,-.306418,.257115*
20,1,.1,-.306418,.257115,-.257115,.306418,0.0*
1,1,.1,-.257115,.306418*
20,1,.1,-.257115,.306418,-.2,.34641,0.0*
1,1,.1,-.2,.34641*
20,1,.1,-.2,.34641,-.136808,.375877,0.0*
1,1,.1,-.136808,.375877*
20,1,.1,-.136808,.375877,-.069459,.393923,0.0*
1,1,.1,-.069459,.393923*
20,1,.1,-.069459,.393923,0.0,.4,0.0*
1,1,.1,0.0,.4*
20,1,.1,0.0,.4,.069459,.393923,0.0*
1,1,.1,.069459,.393923*
20,1,.1,.069459,.393923,.136808,.375877,0.0*
1,1,.1,.136808,.375877*
20,1,.1,.136808,.375877,.2,.34641,0.0*
1,1,.1,.2,.34641*
20,1,.1,.2,.34641,.257115,.306418,0.0*
1,1,.1,.257115,.306418*
20,1,.1,.257115,.306418,.306418,.257115,0.0*
1,1,.1,.306418,.257115*
20,1,.1,.306418,.257115,.34641,.2,0.0*
1,1,.1,.34641,.2*
20,1,.1,.34641,.2,.375877,.136808,0.0*
1,1,.1,.375877,.136808*
20,1,.1,.375877,.136808,.393923,.069459,0.0*
1,1,.1,.393923,.069459*
20,1,.1,.393923,.069459,.4,0.0,0.0*
1,1,.1,.4,0.0*
1,1,.1,-.08,.2*
20,1,.1,-.08,.2,.08,.2,0.0*
1,1,.1,.08,.2*
1,1,.1,0.0,.2*
20,1,.1,0.0,.2,0.0,-.2,0.0*
1,1,.1,0.0,-.2*
1,1,.1,-.08,-.2*
20,1,.1,-.08,-.2,.08,-.2,0.0*
1,1,.1,.08,-.2*
%
%ADD23MACRO23*%
%AMMACRO26*
1,1,.1,.46,0.0*
20,1,.1,.46,0.0,.453012,-.079878,0.0*
1,1,.1,.453012,-.079878*
20,1,.1,.453012,-.079878,.432259,-.157329,0.0*
1,1,.1,.432259,-.157329*
20,1,.1,.432259,-.157329,.398372,-.23,0.0*
1,1,.1,.398372,-.23*
20,1,.1,.398372,-.23,.35238,-.295682,0.0*
1,1,.1,.35238,-.295682*
20,1,.1,.35238,-.295682,.295682,-.35238,0.0*
1,1,.1,.295682,-.35238*
20,1,.1,.295682,-.35238,.23,-.398372,0.0*
1,1,.1,.23,-.398372*
20,1,.1,.23,-.398372,.157329,-.432259,0.0*
1,1,.1,.157329,-.432259*
20,1,.1,.157329,-.432259,.079878,-.453012,0.0*
1,1,.1,.079878,-.453012*
20,1,.1,.079878,-.453012,0.0,-.46,0.0*
1,1,.1,0.0,-.46*
20,1,.1,0.0,-.46,-.079878,-.453012,0.0*
1,1,.1,-.079878,-.453012*
20,1,.1,-.079878,-.453012,-.157329,-.432259,0.0*
1,1,.1,-.157329,-.432259*
20,1,.1,-.157329,-.432259,-.23,-.398372,0.0*
1,1,.1,-.23,-.398372*
20,1,.1,-.23,-.398372,-.295682,-.35238,0.0*
1,1,.1,-.295682,-.35238*
20,1,.1,-.295682,-.35238,-.35238,-.295682,0.0*
1,1,.1,-.35238,-.295682*
20,1,.1,-.35238,-.295682,-.398372,-.23,0.0*
1,1,.1,-.398372,-.23*
20,1,.1,-.398372,-.23,-.432259,-.157329,0.0*
1,1,.1,-.432259,-.157329*
20,1,.1,-.432259,-.157329,-.453012,-.079878,0.0*
1,1,.1,-.453012,-.079878*
20,1,.1,-.453012,-.079878,-.46,0.0,0.0*
1,1,.1,-.46,0.0*
20,1,.1,-.46,0.0,-.453012,.079878,0.0*
1,1,.1,-.453012,.079878*
20,1,.1,-.453012,.079878,-.432259,.157329,0.0*
1,1,.1,-.432259,.157329*
20,1,.1,-.432259,.157329,-.398372,.23,0.0*
1,1,.1,-.398372,.23*
20,1,.1,-.398372,.23,-.35238,.295682,0.0*
1,1,.1,-.35238,.295682*
20,1,.1,-.35238,.295682,-.295682,.35238,0.0*
1,1,.1,-.295682,.35238*
20,1,.1,-.295682,.35238,-.23,.398372,0.0*
1,1,.1,-.23,.398372*
20,1,.1,-.23,.398372,-.157329,.432259,0.0*
1,1,.1,-.157329,.432259*
20,1,.1,-.157329,.432259,-.079878,.453012,0.0*
1,1,.1,-.079878,.453012*
20,1,.1,-.079878,.453012,0.0,.46,0.0*
1,1,.1,0.0,.46*
20,1,.1,0.0,.46,.079878,.453012,0.0*
1,1,.1,.079878,.453012*
20,1,.1,.079878,.453012,.157329,.432259,0.0*
1,1,.1,.157329,.432259*
20,1,.1,.157329,.432259,.23,.398372,0.0*
1,1,.1,.23,.398372*
20,1,.1,.23,.398372,.295682,.35238,0.0*
1,1,.1,.295682,.35238*
20,1,.1,.295682,.35238,.35238,.295682,0.0*
1,1,.1,.35238,.295682*
20,1,.1,.35238,.295682,.398372,.23,0.0*
1,1,.1,.398372,.23*
20,1,.1,.398372,.23,.432259,.157329,0.0*
1,1,.1,.432259,.157329*
20,1,.1,.432259,.157329,.453012,.079878,0.0*
1,1,.1,.453012,.079878*
20,1,.1,.453012,.079878,.46,0.0,0.0*
1,1,.1,.46,0.0*
1,1,.1,.153,-.23*
20,1,.1,.153,-.23,-.153,-.23,0.0*
1,1,.1,-.153,-.23*
20,1,.1,-.153,-.23,-.153,.23,0.0*
1,1,.1,-.153,.23*
20,1,.1,-.153,.23,.153,.23,0.0*
1,1,.1,.153,.23*
1,1,.1,.031,.008*
20,1,.1,.031,.008,-.153,.008,0.0*
1,1,.1,-.153,.008*
%
%ADD26MACRO26*%
%AMMACRO17*
1,1,.1,.294506,-.711*
20,1,.1,.294506,-.711,-.294506,-.711,0.0*
1,1,.1,-.294506,-.711*
20,1,.1,-.294506,-.711,-.711,-.294506,0.0*
1,1,.1,-.711,-.294506*
20,1,.1,-.711,-.294506,-.711,.294506,0.0*
1,1,.1,-.711,.294506*
20,1,.1,-.711,.294506,-.294506,.711,0.0*
1,1,.1,-.294506,.711*
20,1,.1,-.294506,.711,.294506,.711,0.0*
1,1,.1,.294506,.711*
20,1,.1,.294506,.711,.711,.294506,0.0*
1,1,.1,.711,.294506*
20,1,.1,.711,.294506,.711,-.294506,0.0*
1,1,.1,.711,-.294506*
20,1,.1,.711,-.294506,.294506,-.711,0.0*
1,1,.1,.294506,-.711*
1,1,.1,-.237,-.355*
20,1,.1,-.237,-.355,-.237,.356,0.0*
1,1,.1,-.237,.356*
20,1,.1,-.237,.356,.048,.356,0.0*
1,1,.1,.048,.356*
20,1,.1,.048,.356,.143,.32,0.0*
1,1,.1,.143,.32*
20,1,.1,.143,.32,.214,.238,0.0*
1,1,.1,.214,.238*
20,1,.1,.214,.238,.238,.143,0.0*
1,1,.1,.238,.143*
20,1,.1,.238,.143,.214,.048,0.0*
1,1,.1,.214,.048*
20,1,.1,.214,.048,.155,-.023,0.0*
1,1,.1,.155,-.023*
20,1,.1,.155,-.023,.048,-.059,0.0*
1,1,.1,.048,-.059*
20,1,.1,.048,-.059,-.237,-.059,0.0*
1,1,.1,-.237,-.059*
%
%ADD17MACRO17*%
%AMMACRO19*
1,1,.1,.45,0.0*
20,1,.1,.45,0.0,.443163,-.078142,0.0*
1,1,.1,.443163,-.078142*
20,1,.1,.443163,-.078142,.422862,-.153909,0.0*
1,1,.1,.422862,-.153909*
20,1,.1,.422862,-.153909,.389711,-.225,0.0*
1,1,.1,.389711,-.225*
20,1,.1,.389711,-.225,.34472,-.289254,0.0*
1,1,.1,.34472,-.289254*
20,1,.1,.34472,-.289254,.289254,-.34472,0.0*
1,1,.1,.289254,-.34472*
20,1,.1,.289254,-.34472,.225,-.389711,0.0*
1,1,.1,.225,-.389711*
20,1,.1,.225,-.389711,.153909,-.422862,0.0*
1,1,.1,.153909,-.422862*
20,1,.1,.153909,-.422862,.078142,-.443163,0.0*
1,1,.1,.078142,-.443163*
20,1,.1,.078142,-.443163,0.0,-.45,0.0*
1,1,.1,0.0,-.45*
20,1,.1,0.0,-.45,-.078142,-.443163,0.0*
1,1,.1,-.078142,-.443163*
20,1,.1,-.078142,-.443163,-.153909,-.422862,0.0*
1,1,.1,-.153909,-.422862*
20,1,.1,-.153909,-.422862,-.225,-.389711,0.0*
1,1,.1,-.225,-.389711*
20,1,.1,-.225,-.389711,-.289254,-.34472,0.0*
1,1,.1,-.289254,-.34472*
20,1,.1,-.289254,-.34472,-.34472,-.289254,0.0*
1,1,.1,-.34472,-.289254*
20,1,.1,-.34472,-.289254,-.389711,-.225,0.0*
1,1,.1,-.389711,-.225*
20,1,.1,-.389711,-.225,-.422862,-.153909,0.0*
1,1,.1,-.422862,-.153909*
20,1,.1,-.422862,-.153909,-.443163,-.078142,0.0*
1,1,.1,-.443163,-.078142*
20,1,.1,-.443163,-.078142,-.45,0.0,0.0*
1,1,.1,-.45,0.0*
20,1,.1,-.45,0.0,-.443163,.078142,0.0*
1,1,.1,-.443163,.078142*
20,1,.1,-.443163,.078142,-.422862,.153909,0.0*
1,1,.1,-.422862,.153909*
20,1,.1,-.422862,.153909,-.389711,.225,0.0*
1,1,.1,-.389711,.225*
20,1,.1,-.389711,.225,-.34472,.289254,0.0*
1,1,.1,-.34472,.289254*
20,1,.1,-.34472,.289254,-.289254,.34472,0.0*
1,1,.1,-.289254,.34472*
20,1,.1,-.289254,.34472,-.225,.389711,0.0*
1,1,.1,-.225,.389711*
20,1,.1,-.225,.389711,-.153909,.422862,0.0*
1,1,.1,-.153909,.422862*
20,1,.1,-.153909,.422862,-.078142,.443163,0.0*
1,1,.1,-.078142,.443163*
20,1,.1,-.078142,.443163,0.0,.45,0.0*
1,1,.1,0.0,.45*
20,1,.1,0.0,.45,.078142,.443163,0.0*
1,1,.1,.078142,.443163*
20,1,.1,.078142,.443163,.153909,.422862,0.0*
1,1,.1,.153909,.422862*
20,1,.1,.153909,.422862,.225,.389711,0.0*
1,1,.1,.225,.389711*
20,1,.1,.225,.389711,.289254,.34472,0.0*
1,1,.1,.289254,.34472*
20,1,.1,.289254,.34472,.34472,.289254,0.0*
1,1,.1,.34472,.289254*
20,1,.1,.34472,.289254,.389711,.225,0.0*
1,1,.1,.389711,.225*
20,1,.1,.389711,.225,.422862,.153909,0.0*
1,1,.1,.422862,.153909*
20,1,.1,.422862,.153909,.443163,.078142,0.0*
1,1,.1,.443163,.078142*
20,1,.1,.443163,.078142,.45,0.0,0.0*
1,1,.1,.45,0.0*
1,1,.1,-.195,-.225*
20,1,.1,-.195,-.225,-.195,.225,0.0*
1,1,.1,-.195,.225*
20,1,.1,-.195,.225,0.0,-.15,0.0*
1,1,.1,0.0,-.15*
20,1,.1,0.0,-.15,.195,.225,0.0*
1,1,.1,.195,.225*
20,1,.1,.195,.225,.195,-.225,0.0*
1,1,.1,.195,-.225*
%
%ADD19MACRO19*%
%AMMACRO20*
1,1,.1,.45,0.0*
20,1,.1,.45,0.0,.443163,-.078142,0.0*
1,1,.1,.443163,-.078142*
20,1,.1,.443163,-.078142,.422862,-.153909,0.0*
1,1,.1,.422862,-.153909*
20,1,.1,.422862,-.153909,.389711,-.225,0.0*
1,1,.1,.389711,-.225*
20,1,.1,.389711,-.225,.34472,-.289254,0.0*
1,1,.1,.34472,-.289254*
20,1,.1,.34472,-.289254,.289254,-.34472,0.0*
1,1,.1,.289254,-.34472*
20,1,.1,.289254,-.34472,.225,-.389711,0.0*
1,1,.1,.225,-.389711*
20,1,.1,.225,-.389711,.153909,-.422862,0.0*
1,1,.1,.153909,-.422862*
20,1,.1,.153909,-.422862,.078142,-.443163,0.0*
1,1,.1,.078142,-.443163*
20,1,.1,.078142,-.443163,0.0,-.45,0.0*
1,1,.1,0.0,-.45*
20,1,.1,0.0,-.45,-.078142,-.443163,0.0*
1,1,.1,-.078142,-.443163*
20,1,.1,-.078142,-.443163,-.153909,-.422862,0.0*
1,1,.1,-.153909,-.422862*
20,1,.1,-.153909,-.422862,-.225,-.389711,0.0*
1,1,.1,-.225,-.389711*
20,1,.1,-.225,-.389711,-.289254,-.34472,0.0*
1,1,.1,-.289254,-.34472*
20,1,.1,-.289254,-.34472,-.34472,-.289254,0.0*
1,1,.1,-.34472,-.289254*
20,1,.1,-.34472,-.289254,-.389711,-.225,0.0*
1,1,.1,-.389711,-.225*
20,1,.1,-.389711,-.225,-.422862,-.153909,0.0*
1,1,.1,-.422862,-.153909*
20,1,.1,-.422862,-.153909,-.443163,-.078142,0.0*
1,1,.1,-.443163,-.078142*
20,1,.1,-.443163,-.078142,-.45,0.0,0.0*
1,1,.1,-.45,0.0*
20,1,.1,-.45,0.0,-.443163,.078142,0.0*
1,1,.1,-.443163,.078142*
20,1,.1,-.443163,.078142,-.422862,.153909,0.0*
1,1,.1,-.422862,.153909*
20,1,.1,-.422862,.153909,-.389711,.225,0.0*
1,1,.1,-.389711,.225*
20,1,.1,-.389711,.225,-.34472,.289254,0.0*
1,1,.1,-.34472,.289254*
20,1,.1,-.34472,.289254,-.289254,.34472,0.0*
1,1,.1,-.289254,.34472*
20,1,.1,-.289254,.34472,-.225,.389711,0.0*
1,1,.1,-.225,.389711*
20,1,.1,-.225,.389711,-.153909,.422862,0.0*
1,1,.1,-.153909,.422862*
20,1,.1,-.153909,.422862,-.078142,.443163,0.0*
1,1,.1,-.078142,.443163*
20,1,.1,-.078142,.443163,0.0,.45,0.0*
1,1,.1,0.0,.45*
20,1,.1,0.0,.45,.078142,.443163,0.0*
1,1,.1,.078142,.443163*
20,1,.1,.078142,.443163,.153909,.422862,0.0*
1,1,.1,.153909,.422862*
20,1,.1,.153909,.422862,.225,.389711,0.0*
1,1,.1,.225,.389711*
20,1,.1,.225,.389711,.289254,.34472,0.0*
1,1,.1,.289254,.34472*
20,1,.1,.289254,.34472,.34472,.289254,0.0*
1,1,.1,.34472,.289254*
20,1,.1,.34472,.289254,.389711,.225,0.0*
1,1,.1,.389711,.225*
20,1,.1,.389711,.225,.422862,.153909,0.0*
1,1,.1,.422862,.153909*
20,1,.1,.422862,.153909,.443163,.078142,0.0*
1,1,.1,.443163,.078142*
20,1,.1,.443163,.078142,.45,0.0,0.0*
1,1,.1,.45,0.0*
1,1,.1,-.172,-.225*
20,1,.1,-.172,-.225,-.172,.225,0.0*
1,1,.1,-.172,.225*
20,1,.1,-.172,.225,.172,-.225,0.0*
1,1,.1,.172,-.225*
20,1,.1,.172,-.225,.172,.225,0.0*
1,1,.1,.172,.225*
%
%ADD20MACRO20*%
%AMMACRO18*
1,1,.1,.45,0.0*
20,1,.1,.45,0.0,.443163,-.078142,0.0*
1,1,.1,.443163,-.078142*
20,1,.1,.443163,-.078142,.422862,-.153909,0.0*
1,1,.1,.422862,-.153909*
20,1,.1,.422862,-.153909,.389711,-.225,0.0*
1,1,.1,.389711,-.225*
20,1,.1,.389711,-.225,.34472,-.289254,0.0*
1,1,.1,.34472,-.289254*
20,1,.1,.34472,-.289254,.289254,-.34472,0.0*
1,1,.1,.289254,-.34472*
20,1,.1,.289254,-.34472,.225,-.389711,0.0*
1,1,.1,.225,-.389711*
20,1,.1,.225,-.389711,.153909,-.422862,0.0*
1,1,.1,.153909,-.422862*
20,1,.1,.153909,-.422862,.078142,-.443163,0.0*
1,1,.1,.078142,-.443163*
20,1,.1,.078142,-.443163,0.0,-.45,0.0*
1,1,.1,0.0,-.45*
20,1,.1,0.0,-.45,-.078142,-.443163,0.0*
1,1,.1,-.078142,-.443163*
20,1,.1,-.078142,-.443163,-.153909,-.422862,0.0*
1,1,.1,-.153909,-.422862*
20,1,.1,-.153909,-.422862,-.225,-.389711,0.0*
1,1,.1,-.225,-.389711*
20,1,.1,-.225,-.389711,-.289254,-.34472,0.0*
1,1,.1,-.289254,-.34472*
20,1,.1,-.289254,-.34472,-.34472,-.289254,0.0*
1,1,.1,-.34472,-.289254*
20,1,.1,-.34472,-.289254,-.389711,-.225,0.0*
1,1,.1,-.389711,-.225*
20,1,.1,-.389711,-.225,-.422862,-.153909,0.0*
1,1,.1,-.422862,-.153909*
20,1,.1,-.422862,-.153909,-.443163,-.078142,0.0*
1,1,.1,-.443163,-.078142*
20,1,.1,-.443163,-.078142,-.45,0.0,0.0*
1,1,.1,-.45,0.0*
20,1,.1,-.45,0.0,-.443163,.078142,0.0*
1,1,.1,-.443163,.078142*
20,1,.1,-.443163,.078142,-.422862,.153909,0.0*
1,1,.1,-.422862,.153909*
20,1,.1,-.422862,.153909,-.389711,.225,0.0*
1,1,.1,-.389711,.225*
20,1,.1,-.389711,.225,-.34472,.289254,0.0*
1,1,.1,-.34472,.289254*
20,1,.1,-.34472,.289254,-.289254,.34472,0.0*
1,1,.1,-.289254,.34472*
20,1,.1,-.289254,.34472,-.225,.389711,0.0*
1,1,.1,-.225,.389711*
20,1,.1,-.225,.389711,-.153909,.422862,0.0*
1,1,.1,-.153909,.422862*
20,1,.1,-.153909,.422862,-.078142,.443163,0.0*
1,1,.1,-.078142,.443163*
20,1,.1,-.078142,.443163,0.0,.45,0.0*
1,1,.1,0.0,.45*
20,1,.1,0.0,.45,.078142,.443163,0.0*
1,1,.1,.078142,.443163*
20,1,.1,.078142,.443163,.153909,.422862,0.0*
1,1,.1,.153909,.422862*
20,1,.1,.153909,.422862,.225,.389711,0.0*
1,1,.1,.225,.389711*
20,1,.1,.225,.389711,.289254,.34472,0.0*
1,1,.1,.289254,.34472*
20,1,.1,.289254,.34472,.34472,.289254,0.0*
1,1,.1,.34472,.289254*
20,1,.1,.34472,.289254,.389711,.225,0.0*
1,1,.1,.389711,.225*
20,1,.1,.389711,.225,.422862,.153909,0.0*
1,1,.1,.422862,.153909*
20,1,.1,.422862,.153909,.443163,.078142,0.0*
1,1,.1,.443163,.078142*
20,1,.1,.443163,.078142,.45,0.0,0.0*
1,1,.1,.45,0.0*
1,1,.1,0.0,-.225*
20,1,.1,0.0,-.225,-.06,-.218,0.0*
1,1,.1,-.06,-.218*
20,1,.1,-.06,-.218,-.112,-.188,0.0*
1,1,.1,-.112,-.188*
20,1,.1,-.112,-.188,-.158,-.143,0.0*
1,1,.1,-.158,-.143*
20,1,.1,-.158,-.143,-.188,-.09,0.0*
1,1,.1,-.188,-.09*
20,1,.1,-.188,-.09,-.203,-.03,0.0*
1,1,.1,-.203,-.03*
20,1,.1,-.203,-.03,-.203,.03,0.0*
1,1,.1,-.203,.03*
20,1,.1,-.203,.03,-.188,.09,0.0*
1,1,.1,-.188,.09*
20,1,.1,-.188,.09,-.158,.143,0.0*
1,1,.1,-.158,.143*
20,1,.1,-.158,.143,-.112,.187,0.0*
1,1,.1,-.112,.187*
20,1,.1,-.112,.187,-.06,.218,0.0*
1,1,.1,-.06,.218*
20,1,.1,-.06,.218,0.0,.225,0.0*
1,1,.1,0.0,.225*
20,1,.1,0.0,.225,.06,.218,0.0*
1,1,.1,.06,.218*
20,1,.1,.06,.218,.112,.187,0.0*
1,1,.1,.112,.187*
20,1,.1,.112,.187,.158,.143,0.0*
1,1,.1,.158,.143*
20,1,.1,.158,.143,.188,.09,0.0*
1,1,.1,.188,.09*
20,1,.1,.188,.09,.203,.03,0.0*
1,1,.1,.203,.03*
20,1,.1,.203,.03,.203,-.03,0.0*
1,1,.1,.203,-.03*
20,1,.1,.203,-.03,.188,-.09,0.0*
1,1,.1,.188,-.09*
20,1,.1,.188,-.09,.158,-.143,0.0*
1,1,.1,.158,-.143*
20,1,.1,.158,-.143,.112,-.188,0.0*
1,1,.1,.112,-.188*
20,1,.1,.112,-.188,.06,-.218,0.0*
1,1,.1,.06,-.218*
20,1,.1,.06,-.218,0.0,-.225,0.0*
1,1,.1,0.0,-.225*
%
%ADD18MACRO18*%
%ADD29C,.2*%
%ADD30C,.1*%
%ADD31C,.15*%
G75*
%LPD*%
G75*
G54D10*
X30000Y30000D03*
Y1070000D03*
X142150Y1809500D03*
X880000Y550000D03*
X1730000Y30000D03*
Y1070000D03*
G54D20*
X142150Y1738140D03*
X500000Y310000D03*
Y790000D03*
X1260000Y310000D03*
Y790000D03*
G54D11*
X16500Y30000D03*
Y1070000D03*
X39550Y20450D03*
X30000Y16500D03*
X20450Y20450D03*
X43500Y30000D03*
X20450Y39550D03*
X30000Y43500D03*
X39550Y39550D03*
X43500Y30000D03*
Y1070000D03*
X39550Y1060450D03*
X30000Y1056500D03*
X20450Y1060450D03*
Y1079550D03*
X30000Y1083500D03*
X39550Y1079550D03*
X43500Y1070000D03*
X142150Y2594570D03*
X893500Y550000D03*
X889550Y540450D03*
X880000Y536500D03*
X870450Y540450D03*
X866500Y550000D03*
X870450Y559550D03*
X880000Y563500D03*
X889550Y559550D03*
X893500Y550000D03*
X1716500Y30000D03*
Y1070000D03*
X1739550Y20450D03*
X1730000Y16500D03*
X1720450Y20450D03*
X1743500Y30000D03*
X1720450Y39550D03*
X1730000Y43500D03*
X1739550Y39550D03*
X1743500Y30000D03*
Y1070000D03*
X1739550Y1060450D03*
X1730000Y1056500D03*
X1720450Y1060450D03*
Y1079550D03*
X1730000Y1083500D03*
X1739550Y1079550D03*
X1743500Y1070000D03*
G54D30*
G01X28000Y1274230D02*
Y2838000D01*
X1736320D01*
Y1274230D01*
X28000D01*
G54D12*
X68000Y858000D03*
Y870000D03*
Y882000D03*
X142150Y2523200D03*
X203500Y143730D03*
X170000Y824000D03*
X176000Y918000D03*
X216270Y17000D03*
X267080Y215080D03*
X242000Y224000D03*
X230000D03*
X283800Y168200D03*
X333800Y196000D03*
X292000Y836000D03*
X286000Y821000D03*
X304000Y1044000D03*
X358800Y168230D03*
X396000Y215080D03*
X338000Y222000D03*
X394000Y878000D03*
X350000Y1014000D03*
Y1004000D03*
X458500Y143730D03*
X441810Y215080D03*
X454000Y772000D03*
X408000Y878000D03*
X416000Y972000D03*
Y990000D03*
X463730Y17000D03*
X492000Y62000D03*
X466000Y60000D03*
X520000Y78000D03*
X508000Y128000D03*
X510000Y174000D03*
X506000Y188000D03*
Y200000D03*
X512380Y219620D03*
X490000Y316000D03*
X510000D03*
X466000Y282000D03*
Y294000D03*
X478000Y282000D03*
Y294000D03*
X506000Y650000D03*
X490000D03*
X466000Y772000D03*
X490000Y830000D03*
Y796000D03*
X510000D03*
Y830000D03*
X568500Y40000D03*
X580000D03*
X568000Y28000D03*
X528000Y34000D03*
X548000Y66000D03*
X568000Y74000D03*
X538000Y128000D03*
X578000Y150000D03*
X568000Y96000D03*
X572000Y138000D03*
X576000Y116000D03*
X534000Y156000D03*
X554000Y219620D03*
X530000Y316000D03*
Y304000D03*
X574000Y458000D03*
X584000Y448000D03*
X564000D03*
X576000Y420000D03*
X584000Y470000D03*
X564000D03*
X586000Y736000D03*
X570000D03*
X586000Y748000D03*
X570000D03*
X530000Y750000D03*
X550000D03*
X530000Y796000D03*
Y830000D03*
X550000Y796000D03*
Y830000D03*
X615500Y40500D03*
X630000Y40000D03*
X644000D03*
X642000Y96000D03*
X632000D03*
X598000Y100000D03*
X618000Y128000D03*
X650000Y132000D03*
X598000Y112000D03*
X610500Y134000D03*
X596000Y124000D03*
X634000Y128000D03*
X610000Y316000D03*
Y304000D03*
X618000Y512000D03*
X606000D03*
X607080Y487080D03*
X630380Y489620D03*
X594000Y512000D03*
X625000Y547000D03*
X650000Y796000D03*
X636000Y846000D03*
X602000Y896000D03*
Y886000D03*
X609550Y860000D03*
X636000Y862000D03*
X628000Y904000D03*
X602000Y914000D03*
X640000Y944000D03*
X684000Y40000D03*
X694000Y76000D03*
X670500Y40500D03*
X674000Y96000D03*
Y150000D03*
X694000Y144000D03*
X666000Y112000D03*
X678000Y108000D03*
X682000Y142000D03*
X654000Y192000D03*
X666000Y182000D03*
X664000Y162000D03*
X654000Y180000D03*
X682000Y158000D03*
X670000Y172000D03*
X708000Y414000D03*
X714000Y506000D03*
X688380Y488890D03*
X686000Y512000D03*
X700000Y504000D03*
X656000Y648000D03*
X712000Y748000D03*
X690000Y750000D03*
X680000Y830000D03*
X660000D03*
X690000Y784000D03*
X694000Y838920D03*
X658000Y846000D03*
X660000Y878000D03*
X680000D03*
X654000Y894000D03*
X686000D03*
X704000Y866000D03*
X692000Y968000D03*
X680000Y910000D03*
X660000D03*
X668000Y940000D03*
X708000Y923080D03*
X730000Y26000D03*
Y50000D03*
X758000Y312000D03*
X724000Y372000D03*
X764000Y382000D03*
X742000Y356000D03*
X750000Y426000D03*
X758000Y452000D03*
X770000D03*
X722000Y500000D03*
X740000Y504000D03*
Y514000D03*
X760000Y486000D03*
X746000D03*
X776000D03*
X720000Y558000D03*
X748000Y552000D03*
X730000Y830000D03*
X750000Y794000D03*
X770000D03*
X720000Y876000D03*
X738000Y934000D03*
Y924000D03*
X758000Y920000D03*
X816000Y254000D03*
X794000Y390000D03*
X784000Y386000D03*
X810000Y388000D03*
X800000Y374000D03*
X820000Y388000D03*
X840000D03*
X830000D03*
X786000Y452000D03*
X790000Y416000D03*
X818000Y444000D03*
X778000Y442000D03*
X814000Y434000D03*
X828000Y446000D03*
X816000Y424000D03*
X836000Y422000D03*
X838000Y450000D03*
X820920Y486920D03*
X836000Y502000D03*
X826000Y498000D03*
X798000Y486000D03*
X787500Y485500D03*
X796000Y540000D03*
X802000Y552000D03*
X800000Y622000D03*
X814000D03*
X836000Y656000D03*
X824000D03*
X786000Y616000D03*
X798000Y684000D03*
Y672000D03*
X808000Y664000D03*
X840000Y746000D03*
X818000Y882000D03*
Y906000D03*
X798000Y868000D03*
X826000Y921120D03*
X802000Y930000D03*
X860000Y388000D03*
X850000D03*
X860000Y422000D03*
X848000D03*
X868000Y430000D03*
X884000D03*
X844000Y458000D03*
X876000Y422000D03*
X848000Y504000D03*
X846000Y492000D03*
X866000Y486000D03*
X876000D03*
X886000D03*
X896000D03*
X882000Y622000D03*
X870000Y596000D03*
Y606000D03*
X862000Y634000D03*
Y646000D03*
Y922000D03*
X874000Y934000D03*
X862000D03*
X902500Y954500D03*
X890920Y966190D03*
X930000Y456000D03*
X946000Y452000D03*
X956000Y456000D03*
X946000Y514000D03*
X930000Y484000D03*
X942500D03*
X957500Y485500D03*
X940000Y678000D03*
X950000Y830000D03*
X954000Y790000D03*
X942000D03*
X930000D03*
X936000Y894000D03*
X938000Y944000D03*
X928000Y914000D03*
X960220Y1021280D03*
X938000Y996000D03*
X955770Y1067000D03*
X1023080Y388920D03*
X990000Y350620D03*
X982920Y388920D03*
X978000Y420000D03*
X968000D03*
X996000Y456000D03*
X1021850Y415000D03*
X978000Y456000D03*
X967500Y450000D03*
X986000Y446000D03*
X996000Y514000D03*
X968000Y484000D03*
X990000D03*
X1028000Y566000D03*
X986000Y550000D03*
X998000Y646000D03*
Y634000D03*
X1006000Y658000D03*
Y670000D03*
X996000Y664000D03*
X984000Y904000D03*
X995080Y870000D03*
X994000Y944000D03*
X1028000Y966000D03*
X972000Y944000D03*
X1025080Y994920D03*
X974000Y1022000D03*
X1004230Y1067000D03*
X1054000Y108000D03*
X1070000Y304000D03*
X1050000Y316000D03*
X1070000D03*
X1090000D03*
Y304000D03*
X1066000Y558000D03*
X1068000Y547500D03*
X1088000Y612000D03*
X1086000Y900000D03*
X1034000Y862000D03*
X1030000Y894000D03*
X1049080Y958000D03*
X1076000Y964000D03*
X1090750Y932750D03*
X1070000Y921080D03*
X1030000Y914000D03*
X1049080Y984000D03*
X1090000Y997730D03*
Y1050000D03*
X1130000Y304000D03*
X1110000Y316000D03*
X1130000D03*
X1150000D03*
X1110000Y304000D03*
X1150000D03*
X1142000Y600000D03*
X1130000Y604000D03*
X1140000Y790000D03*
X1128000D03*
X1116000D03*
X1124000Y908000D03*
X1122000Y884000D03*
X1124000Y1022000D03*
X1106000Y997730D03*
Y1049730D03*
X1210000Y266000D03*
X1198000D03*
X1190000Y304000D03*
X1210000D03*
X1170000Y316000D03*
X1190000D03*
X1210000Y315080D03*
X1170000Y304000D03*
X1194000Y394000D03*
X1185000Y424000D03*
X1218000Y488000D03*
X1188000Y592000D03*
X1204000Y878000D03*
X1158750Y906750D03*
X1214000Y896000D03*
Y868000D03*
X1156750Y887250D03*
X1174000Y997730D03*
X1190000D03*
X1174000Y1049730D03*
X1190000D03*
X1234000Y250000D03*
X1242000Y260000D03*
X1230000Y314000D03*
X1242000Y398000D03*
X1250000Y390000D03*
X1255730Y450000D03*
X1225000Y458230D03*
X1236000Y420000D03*
X1245000Y458230D03*
X1228000Y484000D03*
X1268000Y496000D03*
X1232000Y552500D03*
X1222500Y567500D03*
X1224000Y578000D03*
Y588000D03*
X1272920Y556000D03*
X1238000Y972000D03*
X1298000Y306000D03*
X1286000D03*
X1292000Y542000D03*
X1294000Y578000D03*
X1283080Y564190D03*
X1294000Y874000D03*
X1302000Y866000D03*
X1308000Y972000D03*
X1292000D03*
X1386000Y938000D03*
X1377000Y1002770D03*
X1374500Y1052230D03*
X1434000Y934000D03*
X1484000Y918000D03*
X1488000Y982000D03*
Y994000D03*
X1480000Y1006000D03*
X1592000Y956000D03*
X1558000Y988000D03*
G54D21*
X142150Y1880880D03*
X504300Y996000D03*
X635700D03*
X724300D03*
X855700D03*
G54D31*
G01X55940Y2654000D02*
Y2685750D01*
X70900D01*
G01X65390Y2670400D02*
X55940D01*
G01X90190Y2685750D02*
X99630D01*
G01X94910D02*
Y2654000D01*
G01X90190D02*
X99630D01*
G01X128760Y2669870D02*
X136640D01*
Y2660350D01*
X134270Y2657170D01*
X131520Y2655060D01*
X127580Y2654000D01*
X123640Y2655060D01*
X120890Y2657170D01*
X118530Y2660350D01*
X116950Y2664050D01*
X116160Y2668290D01*
Y2671990D01*
X116950Y2675170D01*
X118530Y2678870D01*
X120890Y2682050D01*
X123250Y2684160D01*
X126400Y2685750D01*
X129160D01*
X132300Y2684690D01*
X134670Y2682570D01*
G01X149230Y2685750D02*
Y2663000D01*
X150800Y2658230D01*
X153950Y2655060D01*
X157890Y2654000D01*
X161830Y2655060D01*
X164980Y2658230D01*
X166550Y2663000D01*
Y2685750D01*
G01X181510Y2654000D02*
Y2685750D01*
X191350D01*
X194500Y2684160D01*
X196470Y2682050D01*
X197250Y2677810D01*
X196470Y2673580D01*
X194100Y2670930D01*
X191350Y2669350D01*
X181510D01*
G01X191350D02*
X197250Y2654000D01*
G01X228740D02*
X213000D01*
Y2685750D01*
X228740D01*
G01X222440Y2670400D02*
X213000D01*
G01X330300Y1300390D02*
X332660Y1296690D01*
X335810Y1294570D01*
X339350Y1294040D01*
X342500Y1294570D01*
X345650Y1297210D01*
X347620Y1300390D01*
X348010Y1303560D01*
X347230Y1307270D01*
X344470Y1309910D01*
X341720Y1310970D01*
X338170D01*
G01X341720D02*
X344080Y1312560D01*
X346050Y1315210D01*
X346830Y1318380D01*
X346050Y1321560D01*
X344080Y1324200D01*
X340530Y1325790D01*
X336990Y1325260D01*
X333450Y1323140D01*
G01X370450Y1292980D02*
X369660Y1293510D01*
Y1294570D01*
X370450Y1295100D01*
X371240Y1294570D01*
Y1293510D01*
X370450Y1292980D01*
G01X393280Y1298800D02*
X395640Y1296160D01*
X398400Y1294570D01*
X401940Y1294040D01*
X405480Y1295100D01*
X408240Y1297210D01*
X410210Y1300920D01*
X410600Y1305150D01*
X409810Y1309390D01*
X407840Y1312030D01*
X405090Y1314150D01*
X402330Y1314680D01*
X399580Y1314150D01*
X396040Y1312030D01*
X397220Y1325790D01*
X407840D01*
G01X424770Y1298800D02*
X427130Y1296160D01*
X429890Y1294570D01*
X433430Y1294040D01*
X436970Y1295100D01*
X439730Y1297210D01*
X441700Y1300920D01*
X442090Y1305150D01*
X441300Y1309390D01*
X439330Y1312030D01*
X436580Y1314150D01*
X433820Y1314680D01*
X431070Y1314150D01*
X427530Y1312030D01*
X428710Y1325790D01*
X439330D01*
G01X457440Y1307270D02*
X460200Y1310970D01*
X462560Y1313090D01*
X465710Y1314150D01*
X468460Y1313090D01*
X470430Y1310970D01*
X472010Y1307800D01*
X472400Y1304090D01*
X472010Y1300920D01*
X470430Y1297740D01*
X468070Y1295100D01*
X465310Y1294040D01*
X462160Y1295100D01*
X459410Y1298270D01*
X457830Y1303040D01*
X457440Y1308330D01*
X458230Y1315210D01*
X459410Y1318910D01*
X461380Y1322610D01*
X464130Y1325260D01*
X466890Y1325790D01*
X469640Y1324730D01*
X471610Y1322090D01*
G01X490510Y1315210D02*
X502310Y1294040D01*
G01Y1315210D02*
X490510Y1294040D01*
G01X527900D02*
Y1325790D01*
X523180Y1319440D01*
G01Y1294040D02*
X532620D01*
G01X559390Y1292980D02*
X558600Y1293510D01*
Y1294570D01*
X559390Y1295100D01*
X560180Y1294570D01*
Y1293510D01*
X559390Y1292980D01*
G01X590880Y1325790D02*
X587730Y1324730D01*
X585370Y1322090D01*
X583790Y1318910D01*
X582610Y1314680D01*
X582220Y1309910D01*
X582610Y1305150D01*
X583790Y1300920D01*
X585370Y1297740D01*
X587730Y1295100D01*
X590880Y1294040D01*
X594030Y1295100D01*
X596390Y1297740D01*
X597970Y1300920D01*
X599150Y1305150D01*
X599540Y1309910D01*
X599150Y1314680D01*
X597970Y1318910D01*
X596390Y1322090D01*
X594030Y1324730D01*
X590880Y1325790D01*
G01X622370Y1294040D02*
Y1325790D01*
X617650Y1319440D01*
G01Y1294040D02*
X627090D01*
G01X646380Y1307270D02*
X649140Y1310970D01*
X651500Y1313090D01*
X654650Y1314150D01*
X657400Y1313090D01*
X659370Y1310970D01*
X660950Y1307800D01*
X661340Y1304090D01*
X660950Y1300920D01*
X659370Y1297740D01*
X657010Y1295100D01*
X654250Y1294040D01*
X651100Y1295100D01*
X648350Y1298270D01*
X646770Y1303040D01*
X646380Y1308330D01*
X647170Y1315210D01*
X648350Y1318910D01*
X650320Y1322610D01*
X653070Y1325260D01*
X655830Y1325790D01*
X658580Y1324730D01*
X660550Y1322090D01*
G01X330300Y1371760D02*
X332660Y1368060D01*
X335810Y1365940D01*
X339350Y1365410D01*
X342500Y1365940D01*
X345650Y1368580D01*
X347620Y1371760D01*
X348010Y1374930D01*
X347230Y1378640D01*
X344470Y1381280D01*
X341720Y1382340D01*
X338170D01*
G01X341720D02*
X344080Y1383930D01*
X346050Y1386580D01*
X346830Y1389750D01*
X346050Y1392930D01*
X344080Y1395570D01*
X340530Y1397160D01*
X336990Y1396630D01*
X333450Y1394510D01*
G01X370450Y1364350D02*
X369660Y1364880D01*
Y1365940D01*
X370450Y1366470D01*
X371240Y1365940D01*
Y1364880D01*
X370450Y1364350D01*
G01X401940Y1397160D02*
X398790Y1396100D01*
X396430Y1393460D01*
X394850Y1390280D01*
X393670Y1386050D01*
X393280Y1381280D01*
X393670Y1376520D01*
X394850Y1372290D01*
X396430Y1369110D01*
X398790Y1366470D01*
X401940Y1365410D01*
X405090Y1366470D01*
X407450Y1369110D01*
X409030Y1372290D01*
X410210Y1376520D01*
X410600Y1381280D01*
X410210Y1386050D01*
X409030Y1390280D01*
X407450Y1393460D01*
X405090Y1396100D01*
X401940Y1397160D01*
G01X438150Y1365410D02*
Y1397160D01*
X423590Y1374410D01*
X443270D01*
G01X464920Y1365410D02*
X467680Y1365940D01*
X470820Y1367530D01*
X472790Y1370170D01*
X473580Y1373880D01*
X472790Y1377580D01*
X470430Y1380760D01*
X466890Y1382340D01*
X462950D01*
X460590Y1383400D01*
X458620Y1386050D01*
X457830Y1389750D01*
X459020Y1393460D01*
X461770Y1396100D01*
X464920Y1397160D01*
X468070Y1396100D01*
X470820Y1393460D01*
X472010Y1389750D01*
X471220Y1386050D01*
X469250Y1383400D01*
X466890Y1382340D01*
X462950D01*
X459410Y1380760D01*
X457050Y1377580D01*
X456260Y1373880D01*
X457050Y1370170D01*
X459020Y1367530D01*
X462160Y1365940D01*
X464920Y1365410D01*
G01X490510Y1386580D02*
X502310Y1365410D01*
G01Y1386580D02*
X490510Y1365410D01*
G01X527900D02*
Y1397160D01*
X523180Y1390810D01*
G01Y1365410D02*
X532620D01*
G01X559390Y1364350D02*
X558600Y1364880D01*
Y1365940D01*
X559390Y1366470D01*
X560180Y1365940D01*
Y1364880D01*
X559390Y1364350D01*
G01X590880Y1397160D02*
X587730Y1396100D01*
X585370Y1393460D01*
X583790Y1390280D01*
X582610Y1386050D01*
X582220Y1381280D01*
X582610Y1376520D01*
X583790Y1372290D01*
X585370Y1369110D01*
X587730Y1366470D01*
X590880Y1365410D01*
X594030Y1366470D01*
X596390Y1369110D01*
X597970Y1372290D01*
X599150Y1376520D01*
X599540Y1381280D01*
X599150Y1386050D01*
X597970Y1390280D01*
X596390Y1393460D01*
X594030Y1396100D01*
X590880Y1397160D01*
G01X622370Y1365410D02*
Y1397160D01*
X617650Y1390810D01*
G01Y1365410D02*
X627090D01*
G01X646380Y1378640D02*
X649140Y1382340D01*
X651500Y1384460D01*
X654650Y1385520D01*
X657400Y1384460D01*
X659370Y1382340D01*
X660950Y1379170D01*
X661340Y1375460D01*
X660950Y1372290D01*
X659370Y1369110D01*
X657010Y1366470D01*
X654250Y1365410D01*
X651100Y1366470D01*
X648350Y1369640D01*
X646770Y1374410D01*
X646380Y1379700D01*
X647170Y1386580D01*
X648350Y1390280D01*
X650320Y1393980D01*
X653070Y1396630D01*
X655830Y1397160D01*
X658580Y1396100D01*
X660550Y1393460D01*
G01X330300Y1443130D02*
X332660Y1439430D01*
X335810Y1437310D01*
X339350Y1436780D01*
X342500Y1437310D01*
X345650Y1439950D01*
X347620Y1443130D01*
X348010Y1446300D01*
X347230Y1450010D01*
X344470Y1452650D01*
X341720Y1453710D01*
X338170D01*
G01X341720D02*
X344080Y1455300D01*
X346050Y1457950D01*
X346830Y1461120D01*
X346050Y1464300D01*
X344080Y1466940D01*
X340530Y1468530D01*
X336990Y1468000D01*
X333450Y1465880D01*
G01X370450Y1435720D02*
X369660Y1436250D01*
Y1437310D01*
X370450Y1437840D01*
X371240Y1437310D01*
Y1436250D01*
X370450Y1435720D01*
G01X401940Y1468530D02*
X398790Y1467470D01*
X396430Y1464830D01*
X394850Y1461650D01*
X393670Y1457420D01*
X393280Y1452650D01*
X393670Y1447890D01*
X394850Y1443660D01*
X396430Y1440480D01*
X398790Y1437840D01*
X401940Y1436780D01*
X405090Y1437840D01*
X407450Y1440480D01*
X409030Y1443660D01*
X410210Y1447890D01*
X410600Y1452650D01*
X410210Y1457420D01*
X409030Y1461650D01*
X407450Y1464830D01*
X405090Y1467470D01*
X401940Y1468530D01*
G01X438150Y1436780D02*
Y1468530D01*
X423590Y1445780D01*
X443270D01*
G01X464920Y1436780D02*
X467680Y1437310D01*
X470820Y1438900D01*
X472790Y1441540D01*
X473580Y1445250D01*
X472790Y1448950D01*
X470430Y1452130D01*
X466890Y1453710D01*
X462950D01*
X460590Y1454770D01*
X458620Y1457420D01*
X457830Y1461120D01*
X459020Y1464830D01*
X461770Y1467470D01*
X464920Y1468530D01*
X468070Y1467470D01*
X470820Y1464830D01*
X472010Y1461120D01*
X471220Y1457420D01*
X469250Y1454770D01*
X466890Y1453710D01*
X462950D01*
X459410Y1452130D01*
X457050Y1448950D01*
X456260Y1445250D01*
X457050Y1441540D01*
X459020Y1438900D01*
X462160Y1437310D01*
X464920Y1436780D01*
G01X490510Y1457950D02*
X502310Y1436780D01*
G01Y1457950D02*
X490510Y1436780D01*
G01X527900D02*
Y1468530D01*
X523180Y1462180D01*
G01Y1436780D02*
X532620D01*
G01X559390Y1435720D02*
X558600Y1436250D01*
Y1437310D01*
X559390Y1437840D01*
X560180Y1437310D01*
Y1436250D01*
X559390Y1435720D01*
G01X590880Y1468530D02*
X587730Y1467470D01*
X585370Y1464830D01*
X583790Y1461650D01*
X582610Y1457420D01*
X582220Y1452650D01*
X582610Y1447890D01*
X583790Y1443660D01*
X585370Y1440480D01*
X587730Y1437840D01*
X590880Y1436780D01*
X594030Y1437840D01*
X596390Y1440480D01*
X597970Y1443660D01*
X599150Y1447890D01*
X599540Y1452650D01*
X599150Y1457420D01*
X597970Y1461650D01*
X596390Y1464830D01*
X594030Y1467470D01*
X590880Y1468530D01*
G01X622370Y1436780D02*
Y1468530D01*
X617650Y1462180D01*
G01Y1436780D02*
X627090D01*
G01X646380Y1450010D02*
X649140Y1453710D01*
X651500Y1455830D01*
X654650Y1456890D01*
X657400Y1455830D01*
X659370Y1453710D01*
X660950Y1450540D01*
X661340Y1446830D01*
X660950Y1443660D01*
X659370Y1440480D01*
X657010Y1437840D01*
X654250Y1436780D01*
X651100Y1437840D01*
X648350Y1441010D01*
X646770Y1445780D01*
X646380Y1451070D01*
X647170Y1457950D01*
X648350Y1461650D01*
X650320Y1465350D01*
X653070Y1468000D01*
X655830Y1468530D01*
X658580Y1467470D01*
X660550Y1464830D01*
G01X464920Y1508150D02*
Y1539900D01*
X460200Y1533550D01*
G01Y1508150D02*
X469640D01*
G01X496410Y1507090D02*
X495620Y1507620D01*
Y1508680D01*
X496410Y1509210D01*
X497200Y1508680D01*
Y1507620D01*
X496410Y1507090D01*
G01X520420Y1521380D02*
X523180Y1525080D01*
X525540Y1527200D01*
X528690Y1528260D01*
X531440Y1527200D01*
X533410Y1525080D01*
X534990Y1521910D01*
X535380Y1518200D01*
X534990Y1515030D01*
X533410Y1511850D01*
X531050Y1509210D01*
X528290Y1508150D01*
X525140Y1509210D01*
X522390Y1512380D01*
X520810Y1517150D01*
X520420Y1522440D01*
X521210Y1529320D01*
X522390Y1533020D01*
X524360Y1536720D01*
X527110Y1539370D01*
X529870Y1539900D01*
X532620Y1538840D01*
X534590Y1536200D01*
G01X464920Y1579520D02*
Y1611270D01*
X460200Y1604920D01*
G01Y1579520D02*
X469640D01*
G01X496410Y1578460D02*
X495620Y1578990D01*
Y1580050D01*
X496410Y1580580D01*
X497200Y1580050D01*
Y1578990D01*
X496410Y1578460D01*
G01X532620Y1579520D02*
Y1611270D01*
X518060Y1588520D01*
X537740D01*
G01X464920Y1682640D02*
X461770Y1681580D01*
X459410Y1678940D01*
X457830Y1675760D01*
X456650Y1671530D01*
X456260Y1666760D01*
X456650Y1662000D01*
X457830Y1657770D01*
X459410Y1654590D01*
X461770Y1651950D01*
X464920Y1650890D01*
X468070Y1651950D01*
X470430Y1654590D01*
X472010Y1657770D01*
X473190Y1662000D01*
X473580Y1666760D01*
X473190Y1671530D01*
X472010Y1675760D01*
X470430Y1678940D01*
X468070Y1681580D01*
X464920Y1682640D01*
G01X496410Y1649830D02*
X495620Y1650360D01*
Y1651420D01*
X496410Y1651950D01*
X497200Y1651420D01*
Y1650360D01*
X496410Y1649830D01*
G01X521210Y1654590D02*
X523960Y1651950D01*
X527110Y1650890D01*
X530260Y1651950D01*
X533020Y1655120D01*
X534990Y1659890D01*
X535770Y1664650D01*
Y1670470D01*
X534990Y1675230D01*
X533020Y1679460D01*
X530660Y1681580D01*
X527900Y1682640D01*
X524750Y1681580D01*
X522390Y1679460D01*
X520810Y1676290D01*
X520030Y1672060D01*
X520810Y1668350D01*
X522780Y1664650D01*
X525140Y1662530D01*
X527900Y1662000D01*
X531050Y1663060D01*
X533410Y1665710D01*
X535770Y1670470D01*
G01X464920Y1754010D02*
X461770Y1752950D01*
X459410Y1750310D01*
X457830Y1747130D01*
X456650Y1742900D01*
X456260Y1738130D01*
X456650Y1733370D01*
X457830Y1729140D01*
X459410Y1725960D01*
X461770Y1723320D01*
X464920Y1722260D01*
X468070Y1723320D01*
X470430Y1725960D01*
X472010Y1729140D01*
X473190Y1733370D01*
X473580Y1738130D01*
X473190Y1742900D01*
X472010Y1747130D01*
X470430Y1750310D01*
X468070Y1752950D01*
X464920Y1754010D01*
G01X496410Y1721200D02*
X495620Y1721730D01*
Y1722790D01*
X496410Y1723320D01*
X497200Y1722790D01*
Y1721730D01*
X496410Y1721200D01*
G01X527900Y1722260D02*
X530660Y1722790D01*
X533800Y1724380D01*
X535770Y1727020D01*
X536560Y1730730D01*
X535770Y1734430D01*
X533410Y1737610D01*
X529870Y1739190D01*
X525930D01*
X523570Y1740250D01*
X521600Y1742900D01*
X520810Y1746600D01*
X522000Y1750310D01*
X524750Y1752950D01*
X527900Y1754010D01*
X531050Y1752950D01*
X533800Y1750310D01*
X534990Y1746600D01*
X534200Y1742900D01*
X532230Y1740250D01*
X529870Y1739190D01*
X525930D01*
X522390Y1737610D01*
X520030Y1734430D01*
X519240Y1730730D01*
X520030Y1727020D01*
X522000Y1724380D01*
X525140Y1722790D01*
X527900Y1722260D01*
G01X456260Y1799980D02*
X458620Y1796280D01*
X461770Y1794160D01*
X465310Y1793630D01*
X468460Y1794160D01*
X471610Y1796800D01*
X473580Y1799980D01*
X473970Y1803150D01*
X473190Y1806860D01*
X470430Y1809500D01*
X467680Y1810560D01*
X464130D01*
G01X467680D02*
X470040Y1812150D01*
X472010Y1814800D01*
X472790Y1817970D01*
X472010Y1821150D01*
X470040Y1823790D01*
X466490Y1825380D01*
X462950Y1824850D01*
X459410Y1822730D01*
G01X496410Y1792570D02*
X495620Y1793100D01*
Y1794160D01*
X496410Y1794690D01*
X497200Y1794160D01*
Y1793100D01*
X496410Y1792570D01*
G01X527900Y1825380D02*
X524750Y1824320D01*
X522390Y1821680D01*
X520810Y1818500D01*
X519630Y1814270D01*
X519240Y1809500D01*
X519630Y1804740D01*
X520810Y1800510D01*
X522390Y1797330D01*
X524750Y1794690D01*
X527900Y1793630D01*
X531050Y1794690D01*
X533410Y1797330D01*
X534990Y1800510D01*
X536170Y1804740D01*
X536560Y1809500D01*
X536170Y1814270D01*
X534990Y1818500D01*
X533410Y1821680D01*
X531050Y1824320D01*
X527900Y1825380D01*
G01X457440Y1891460D02*
X459800Y1894630D01*
X462560Y1896220D01*
X465710Y1896750D01*
X469640Y1895690D01*
X472400Y1893050D01*
X473190Y1889870D01*
X472790Y1886700D01*
X471220Y1884050D01*
X463350Y1878760D01*
X459800Y1875050D01*
X457440Y1869760D01*
X456650Y1865000D01*
X473190D01*
G01X496410Y1863940D02*
X495620Y1864470D01*
Y1865530D01*
X496410Y1866060D01*
X497200Y1865530D01*
Y1864470D01*
X496410Y1863940D01*
G01X519240Y1871350D02*
X521600Y1867650D01*
X524750Y1865530D01*
X528290Y1865000D01*
X531440Y1865530D01*
X534590Y1868170D01*
X536560Y1871350D01*
X536950Y1874520D01*
X536170Y1878230D01*
X533410Y1880870D01*
X530660Y1881930D01*
X527110D01*
G01X530660D02*
X533020Y1883520D01*
X534990Y1886170D01*
X535770Y1889340D01*
X534990Y1892520D01*
X533020Y1895160D01*
X529470Y1896750D01*
X525930Y1896220D01*
X522390Y1894100D01*
G01X464920Y1936370D02*
Y1968120D01*
X460200Y1961770D01*
G01Y1936370D02*
X469640D01*
G01X496410Y1935310D02*
X495620Y1935840D01*
Y1936900D01*
X496410Y1937430D01*
X497200Y1936900D01*
Y1935840D01*
X496410Y1935310D01*
G01X520420Y1962830D02*
X522780Y1966000D01*
X525540Y1967590D01*
X528690Y1968120D01*
X532620Y1967060D01*
X535380Y1964420D01*
X536170Y1961240D01*
X535770Y1958070D01*
X534200Y1955420D01*
X526330Y1950130D01*
X522780Y1946420D01*
X520420Y1941130D01*
X519630Y1936370D01*
X536170D01*
G01X464920Y2007740D02*
Y2039490D01*
X460200Y2033140D01*
G01Y2007740D02*
X469640D01*
G01X496410Y2006680D02*
X495620Y2007210D01*
Y2008270D01*
X496410Y2008800D01*
X497200Y2008270D01*
Y2007210D01*
X496410Y2006680D01*
G01X520420Y2034200D02*
X522780Y2037370D01*
X525540Y2038960D01*
X528690Y2039490D01*
X532620Y2038430D01*
X535380Y2035790D01*
X536170Y2032610D01*
X535770Y2029440D01*
X534200Y2026790D01*
X526330Y2021500D01*
X522780Y2017790D01*
X520420Y2012500D01*
X519630Y2007740D01*
X536170D01*
G01X464920Y2079110D02*
Y2110860D01*
X460200Y2104510D01*
G01Y2079110D02*
X469640D01*
G01X496410Y2078050D02*
X495620Y2078580D01*
Y2079640D01*
X496410Y2080170D01*
X497200Y2079640D01*
Y2078580D01*
X496410Y2078050D01*
G01X527900Y2110860D02*
X524750Y2109800D01*
X522390Y2107160D01*
X520810Y2103980D01*
X519630Y2099750D01*
X519240Y2094980D01*
X519630Y2090220D01*
X520810Y2085990D01*
X522390Y2082810D01*
X524750Y2080170D01*
X527900Y2079110D01*
X531050Y2080170D01*
X533410Y2082810D01*
X534990Y2085990D01*
X536170Y2090220D01*
X536560Y2094980D01*
X536170Y2099750D01*
X534990Y2103980D01*
X533410Y2107160D01*
X531050Y2109800D01*
X527900Y2110860D01*
G01X464920Y2150480D02*
Y2182230D01*
X460200Y2175880D01*
G01Y2150480D02*
X469640D01*
G01X496410Y2149420D02*
X495620Y2149950D01*
Y2151010D01*
X496410Y2151540D01*
X497200Y2151010D01*
Y2149950D01*
X496410Y2149420D01*
G01X527900Y2182230D02*
X524750Y2181170D01*
X522390Y2178530D01*
X520810Y2175350D01*
X519630Y2171120D01*
X519240Y2166350D01*
X519630Y2161590D01*
X520810Y2157360D01*
X522390Y2154180D01*
X524750Y2151540D01*
X527900Y2150480D01*
X531050Y2151540D01*
X533410Y2154180D01*
X534990Y2157360D01*
X536170Y2161590D01*
X536560Y2166350D01*
X536170Y2171120D01*
X534990Y2175350D01*
X533410Y2178530D01*
X531050Y2181170D01*
X527900Y2182230D01*
G01X464920Y2221850D02*
Y2253600D01*
X460200Y2247250D01*
G01Y2221850D02*
X469640D01*
G01X496410Y2220790D02*
X495620Y2221320D01*
Y2222380D01*
X496410Y2222910D01*
X497200Y2222380D01*
Y2221320D01*
X496410Y2220790D01*
G01X527900Y2253600D02*
X524750Y2252540D01*
X522390Y2249900D01*
X520810Y2246720D01*
X519630Y2242490D01*
X519240Y2237720D01*
X519630Y2232960D01*
X520810Y2228730D01*
X522390Y2225550D01*
X524750Y2222910D01*
X527900Y2221850D01*
X531050Y2222910D01*
X533410Y2225550D01*
X534990Y2228730D01*
X536170Y2232960D01*
X536560Y2237720D01*
X536170Y2242490D01*
X534990Y2246720D01*
X533410Y2249900D01*
X531050Y2252540D01*
X527900Y2253600D01*
G01X449170Y2324970D02*
X446020Y2323910D01*
X443660Y2321270D01*
X442080Y2318090D01*
X440900Y2313860D01*
X440510Y2309090D01*
X440900Y2304330D01*
X442080Y2300100D01*
X443660Y2296920D01*
X446020Y2294280D01*
X449170Y2293220D01*
X452320Y2294280D01*
X454680Y2296920D01*
X456260Y2300100D01*
X457440Y2304330D01*
X457830Y2309090D01*
X457440Y2313860D01*
X456260Y2318090D01*
X454680Y2321270D01*
X452320Y2323910D01*
X449170Y2324970D01*
G01X480660Y2292160D02*
X479870Y2292690D01*
Y2293750D01*
X480660Y2294280D01*
X481450Y2293750D01*
Y2292690D01*
X480660Y2292160D01*
G01X505460Y2296920D02*
X508210Y2294280D01*
X511360Y2293220D01*
X514510Y2294280D01*
X517270Y2297450D01*
X519240Y2302220D01*
X520020Y2306980D01*
Y2312800D01*
X519240Y2317560D01*
X517270Y2321790D01*
X514910Y2323910D01*
X512150Y2324970D01*
X509000Y2323910D01*
X506640Y2321790D01*
X505060Y2318620D01*
X504280Y2314390D01*
X505060Y2310680D01*
X507030Y2306980D01*
X509390Y2304860D01*
X512150Y2304330D01*
X515300Y2305390D01*
X517660Y2308040D01*
X520020Y2312800D01*
G01X536160Y2319680D02*
X538520Y2322850D01*
X541280Y2324440D01*
X544430Y2324970D01*
X548360Y2323910D01*
X551120Y2321270D01*
X551910Y2318090D01*
X551510Y2314920D01*
X549940Y2312270D01*
X542070Y2306980D01*
X538520Y2303270D01*
X536160Y2297980D01*
X535370Y2293220D01*
X551910D01*
G01X464920Y2396340D02*
X461770Y2395280D01*
X459410Y2392640D01*
X457830Y2389460D01*
X456650Y2385230D01*
X456260Y2380460D01*
X456650Y2375700D01*
X457830Y2371470D01*
X459410Y2368290D01*
X461770Y2365650D01*
X464920Y2364590D01*
X468070Y2365650D01*
X470430Y2368290D01*
X472010Y2371470D01*
X473190Y2375700D01*
X473580Y2380460D01*
X473190Y2385230D01*
X472010Y2389460D01*
X470430Y2392640D01*
X468070Y2395280D01*
X464920Y2396340D01*
G01X496410Y2363530D02*
X495620Y2364060D01*
Y2365120D01*
X496410Y2365650D01*
X497200Y2365120D01*
Y2364060D01*
X496410Y2363530D01*
G01X521210Y2368290D02*
X523960Y2365650D01*
X527110Y2364590D01*
X530260Y2365650D01*
X533020Y2368820D01*
X534990Y2373590D01*
X535770Y2378350D01*
Y2384170D01*
X534990Y2388930D01*
X533020Y2393160D01*
X530660Y2395280D01*
X527900Y2396340D01*
X524750Y2395280D01*
X522390Y2393160D01*
X520810Y2389990D01*
X520030Y2385760D01*
X520810Y2382050D01*
X522780Y2378350D01*
X525140Y2376230D01*
X527900Y2375700D01*
X531050Y2376760D01*
X533410Y2379410D01*
X535770Y2384170D01*
G01X464920Y2467710D02*
X461770Y2466650D01*
X459410Y2464010D01*
X457830Y2460830D01*
X456650Y2456600D01*
X456260Y2451830D01*
X456650Y2447070D01*
X457830Y2442840D01*
X459410Y2439660D01*
X461770Y2437020D01*
X464920Y2435960D01*
X468070Y2437020D01*
X470430Y2439660D01*
X472010Y2442840D01*
X473190Y2447070D01*
X473580Y2451830D01*
X473190Y2456600D01*
X472010Y2460830D01*
X470430Y2464010D01*
X468070Y2466650D01*
X464920Y2467710D01*
G01X496410Y2434900D02*
X495620Y2435430D01*
Y2436490D01*
X496410Y2437020D01*
X497200Y2436490D01*
Y2435430D01*
X496410Y2434900D01*
G01X521210Y2439660D02*
X523960Y2437020D01*
X527110Y2435960D01*
X530260Y2437020D01*
X533020Y2440190D01*
X534990Y2444960D01*
X535770Y2449720D01*
Y2455540D01*
X534990Y2460300D01*
X533020Y2464530D01*
X530660Y2466650D01*
X527900Y2467710D01*
X524750Y2466650D01*
X522390Y2464530D01*
X520810Y2461360D01*
X520030Y2457130D01*
X520810Y2453420D01*
X522780Y2449720D01*
X525140Y2447600D01*
X527900Y2447070D01*
X531050Y2448130D01*
X533410Y2450780D01*
X535770Y2455540D01*
G01X464920Y2539080D02*
X461770Y2538020D01*
X459410Y2535380D01*
X457830Y2532200D01*
X456650Y2527970D01*
X456260Y2523200D01*
X456650Y2518440D01*
X457830Y2514210D01*
X459410Y2511030D01*
X461770Y2508390D01*
X464920Y2507330D01*
X468070Y2508390D01*
X470430Y2511030D01*
X472010Y2514210D01*
X473190Y2518440D01*
X473580Y2523200D01*
X473190Y2527970D01*
X472010Y2532200D01*
X470430Y2535380D01*
X468070Y2538020D01*
X464920Y2539080D01*
G01X496410Y2506270D02*
X495620Y2506800D01*
Y2507860D01*
X496410Y2508390D01*
X497200Y2507860D01*
Y2506800D01*
X496410Y2506270D01*
G01X532620Y2507330D02*
Y2539080D01*
X518060Y2516330D01*
X537740D01*
G01X464920Y2610450D02*
X461770Y2609390D01*
X459410Y2606750D01*
X457830Y2603570D01*
X456650Y2599340D01*
X456260Y2594570D01*
X456650Y2589810D01*
X457830Y2585580D01*
X459410Y2582400D01*
X461770Y2579760D01*
X464920Y2578700D01*
X468070Y2579760D01*
X470430Y2582400D01*
X472010Y2585580D01*
X473190Y2589810D01*
X473580Y2594570D01*
X473190Y2599340D01*
X472010Y2603570D01*
X470430Y2606750D01*
X468070Y2609390D01*
X464920Y2610450D01*
G01X496410Y2577640D02*
X495620Y2578170D01*
Y2579230D01*
X496410Y2579760D01*
X497200Y2579230D01*
Y2578170D01*
X496410Y2577640D01*
G01X519240Y2585050D02*
X521600Y2581350D01*
X524750Y2579230D01*
X528290Y2578700D01*
X531440Y2579230D01*
X534590Y2581870D01*
X536560Y2585050D01*
X536950Y2588220D01*
X536170Y2591930D01*
X533410Y2594570D01*
X530660Y2595630D01*
X527110D01*
G01X530660D02*
X533020Y2597220D01*
X534990Y2599870D01*
X535770Y2603040D01*
X534990Y2606220D01*
X533020Y2608860D01*
X529470Y2610450D01*
X525930Y2609920D01*
X522390Y2607800D01*
G01X440900Y2658230D02*
X444050Y2655590D01*
X447600Y2654000D01*
X450740D01*
X453890Y2655590D01*
X456260Y2658230D01*
X457440Y2661940D01*
X456650Y2665640D01*
X454680Y2668820D01*
X451140Y2670930D01*
X446410Y2671990D01*
X443660Y2674110D01*
X442480Y2677810D01*
X443270Y2681520D01*
X445230Y2684160D01*
X447990Y2685750D01*
X450740D01*
X453500Y2684690D01*
X455860Y2682050D01*
G01X475940Y2685750D02*
X485380D01*
G01X480660D02*
Y2654000D01*
G01X475940D02*
X485380D01*
G01X504670Y2685750D02*
X519630D01*
X504670Y2654000D01*
X519630D01*
G01X551510D02*
X535770D01*
Y2685750D01*
X551510D01*
G01X545210Y2670400D02*
X535770D01*
G01X447200Y2725380D02*
X457040Y2757130D01*
X466880Y2725380D01*
G01X463340Y2736490D02*
X450740D01*
G01X480660Y2757130D02*
Y2725380D01*
X496400D01*
G01X512150Y2757130D02*
Y2725380D01*
X527890D01*
G01X574340Y2757130D02*
Y2734380D01*
X575910Y2729610D01*
X579060Y2726440D01*
X583000Y2725380D01*
X586940Y2726440D01*
X590090Y2729610D01*
X591660Y2734380D01*
Y2757130D01*
G01X605440Y2725380D02*
Y2757130D01*
X623540Y2725380D01*
Y2757130D01*
G01X641260D02*
X650700D01*
G01X645980D02*
Y2725380D01*
G01X641260D02*
X650700D01*
G01X677470Y2757130D02*
Y2725380D01*
G01X668420Y2757130D02*
X686520D01*
G01X700690Y2729610D02*
X703840Y2726970D01*
X707390Y2725380D01*
X710530D01*
X713680Y2726970D01*
X716050Y2729610D01*
X717230Y2733320D01*
X716440Y2737020D01*
X714470Y2740200D01*
X710930Y2742310D01*
X706200Y2743370D01*
X703450Y2745490D01*
X702270Y2749190D01*
X703060Y2752900D01*
X705020Y2755540D01*
X707780Y2757130D01*
X710530D01*
X713290Y2756070D01*
X715650Y2753430D01*
G01X762100Y2725380D02*
X771940Y2757130D01*
X781780Y2725380D01*
G01X778240Y2736490D02*
X765640D01*
G01X795560Y2725380D02*
Y2757130D01*
X805400D01*
X808550Y2755540D01*
X810520Y2753430D01*
X811300Y2749190D01*
X810520Y2744960D01*
X808150Y2742310D01*
X805400Y2740730D01*
X795560D01*
G01X805400D02*
X811300Y2725380D01*
G01X842790D02*
X827050D01*
Y2757130D01*
X842790D01*
G01X836490Y2741780D02*
X827050D01*
G01X893180Y2757130D02*
X902620D01*
G01X897900D02*
Y2725380D01*
G01X893180D02*
X902620D01*
G01X920340D02*
Y2757130D01*
X938440Y2725380D01*
Y2757130D01*
G01X982130Y2725380D02*
Y2757130D01*
X992370Y2730670D01*
X1002610Y2757130D01*
Y2725380D01*
G01X1019140Y2757130D02*
X1028580D01*
G01X1023860D02*
Y2725380D01*
G01X1019140D02*
X1028580D01*
G01X1047480Y2757130D02*
Y2725380D01*
X1063220D01*
G01X1078970Y2757130D02*
Y2725380D01*
X1094710D01*
G01X1113610Y2757130D02*
X1123050D01*
G01X1118330D02*
Y2725380D01*
G01X1113610D02*
X1123050D01*
G01X1139580D02*
Y2757130D01*
X1149820Y2730670D01*
X1160060Y2757130D01*
Y2725380D01*
G01X1189180D02*
X1173440D01*
Y2757130D01*
X1189180D01*
G01X1182880Y2741780D02*
X1173440D01*
G01X1212800Y2757130D02*
Y2725380D01*
G01X1203750Y2757130D02*
X1221850D01*
G01X1252160Y2725380D02*
X1236420D01*
Y2757130D01*
X1252160D01*
G01X1245860Y2741780D02*
X1236420D01*
G01X1267910Y2725380D02*
Y2757130D01*
X1277750D01*
X1280900Y2755540D01*
X1282870Y2753430D01*
X1283650Y2749190D01*
X1282870Y2744960D01*
X1280500Y2742310D01*
X1277750Y2740730D01*
X1267910D01*
G01X1277750D02*
X1283650Y2725380D01*
G01X1299000Y2729610D02*
X1302150Y2726970D01*
X1305700Y2725380D01*
X1308840D01*
X1311990Y2726970D01*
X1314360Y2729610D01*
X1315540Y2733320D01*
X1314750Y2737020D01*
X1312780Y2740200D01*
X1309240Y2742310D01*
X1304510Y2743370D01*
X1301760Y2745490D01*
X1300580Y2749190D01*
X1301370Y2752900D01*
X1303330Y2755540D01*
X1306090Y2757130D01*
X1308840D01*
X1311600Y2756070D01*
X1313960Y2753430D01*
G01X479870Y2790380D02*
Y2822130D01*
X487740D01*
X490890Y2820540D01*
X493250Y2818430D01*
X495220Y2815250D01*
X496800Y2811550D01*
X497190Y2806250D01*
X496800Y2800960D01*
X495220Y2797260D01*
X493250Y2794080D01*
X490890Y2791970D01*
X487740Y2790380D01*
X479870D01*
G01X512150D02*
Y2822130D01*
X521990D01*
X525140Y2820540D01*
X527110Y2818430D01*
X527890Y2814190D01*
X527110Y2809960D01*
X524740Y2807310D01*
X521990Y2805730D01*
X512150D01*
G01X521990D02*
X527890Y2790380D01*
G01X546790Y2822130D02*
X556230D01*
G01X551510D02*
Y2790380D01*
G01X546790D02*
X556230D01*
G01X575130Y2822130D02*
Y2790380D01*
X590870D01*
G01X606620Y2822130D02*
Y2790380D01*
X622360D01*
G01X686130Y2819480D02*
X683770Y2821070D01*
X681010Y2822130D01*
X677860D01*
X674320Y2820540D01*
X671570Y2817900D01*
X669600Y2814720D01*
X668020Y2809430D01*
X667630Y2804670D01*
X668420Y2799900D01*
X669600Y2796730D01*
X671960Y2793550D01*
X674710Y2791440D01*
X677470Y2790380D01*
X680230D01*
X682980Y2791440D01*
X685340Y2793030D01*
X687310Y2795140D01*
G01X700690Y2790380D02*
Y2822130D01*
G01X717230D02*
Y2790380D01*
G01Y2806250D02*
X700690D01*
G01X730610Y2790380D02*
X740450Y2822130D01*
X750290Y2790380D01*
G01X746750Y2801490D02*
X734150D01*
G01X764070Y2790380D02*
Y2822130D01*
X773910D01*
X777060Y2820540D01*
X779030Y2818430D01*
X779810Y2814190D01*
X779030Y2809960D01*
X776660Y2807310D01*
X773910Y2805730D01*
X764070D01*
G01X773910D02*
X779810Y2790380D01*
G01X803430Y2822130D02*
Y2790380D01*
G01X794380Y2822130D02*
X812480D01*
G01X834920Y2789320D02*
X834130Y2789850D01*
Y2790910D01*
X834920Y2791440D01*
X835710Y2790910D01*
Y2789850D01*
X834920Y2789320D01*
G01Y2803610D02*
X834130Y2804140D01*
Y2805200D01*
X834920Y2805730D01*
X835710Y2805200D01*
Y2804140D01*
X834920Y2803610D01*
G01X897900Y2822130D02*
Y2790380D01*
G01X888850Y2822130D02*
X906950D01*
G01X929390Y2790380D02*
X926240Y2790910D01*
X923490Y2793030D01*
X921120Y2796200D01*
X919550Y2799900D01*
X918760Y2804140D01*
Y2808370D01*
X919550Y2812610D01*
X921120Y2816310D01*
X923490Y2819480D01*
X926240Y2821600D01*
X929390Y2822130D01*
X932540Y2821600D01*
X935290Y2819480D01*
X937660Y2816310D01*
X939230Y2812610D01*
X940020Y2808370D01*
Y2804140D01*
X939230Y2799900D01*
X937660Y2796200D01*
X935290Y2793030D01*
X932540Y2790910D01*
X929390Y2790380D01*
G01X953010D02*
Y2822130D01*
X962450D01*
X965600Y2820540D01*
X967970Y2816840D01*
X968750Y2812610D01*
X967970Y2808370D01*
X966000Y2805200D01*
X962450Y2803610D01*
X953010D01*
G01X1023860Y2822130D02*
Y2790380D01*
G01X1018350Y2811550D02*
X1029370D01*
G01X1055350Y2790380D02*
X1052990Y2790910D01*
X1050630Y2793030D01*
X1049050Y2796730D01*
X1048260Y2800960D01*
X1049050Y2805200D01*
X1050630Y2808900D01*
X1052990Y2811020D01*
X1055350Y2811550D01*
X1057710Y2811020D01*
X1060070Y2808900D01*
X1061650Y2805200D01*
X1062040Y2800960D01*
X1061650Y2796730D01*
X1060070Y2793030D01*
X1057710Y2790910D01*
X1055350Y2790380D01*
G01X1121480Y2807310D02*
X1123050Y2808900D01*
X1124230Y2811550D01*
X1125020Y2815250D01*
X1124230Y2818430D01*
X1122660Y2820540D01*
X1119900Y2822130D01*
X1109280D01*
Y2790380D01*
X1122270D01*
X1125020Y2792500D01*
X1126600Y2795670D01*
X1127380Y2799380D01*
X1126600Y2803080D01*
X1124230Y2806250D01*
X1121480Y2807310D01*
X1109280D01*
G01X1149820Y2790380D02*
X1146670Y2790910D01*
X1143920Y2793030D01*
X1141550Y2796200D01*
X1139980Y2799900D01*
X1139190Y2804140D01*
Y2808370D01*
X1139980Y2812610D01*
X1141550Y2816310D01*
X1143920Y2819480D01*
X1146670Y2821600D01*
X1149820Y2822130D01*
X1152970Y2821600D01*
X1155720Y2819480D01*
X1158090Y2816310D01*
X1159660Y2812610D01*
X1160450Y2808370D01*
Y2804140D01*
X1159660Y2799900D01*
X1158090Y2796200D01*
X1155720Y2793030D01*
X1152970Y2790910D01*
X1149820Y2790380D01*
G01X1181310Y2822130D02*
Y2790380D01*
G01X1172260Y2822130D02*
X1190360D01*
G01X1212800D02*
Y2790380D01*
G01X1203750Y2822130D02*
X1221850D01*
G01X1244290Y2790380D02*
X1241140Y2790910D01*
X1238390Y2793030D01*
X1236020Y2796200D01*
X1234450Y2799900D01*
X1233660Y2804140D01*
Y2808370D01*
X1234450Y2812610D01*
X1236020Y2816310D01*
X1238390Y2819480D01*
X1241140Y2821600D01*
X1244290Y2822130D01*
X1247440Y2821600D01*
X1250190Y2819480D01*
X1252560Y2816310D01*
X1254130Y2812610D01*
X1254920Y2808370D01*
Y2804140D01*
X1254130Y2799900D01*
X1252560Y2796200D01*
X1250190Y2793030D01*
X1247440Y2790910D01*
X1244290Y2790380D01*
G01X1265540D02*
Y2822130D01*
X1275780Y2795670D01*
X1286020Y2822130D01*
Y2790380D01*
G01X783360Y1304620D02*
X792810D01*
G01X787690Y1311500D02*
Y1297740D01*
G01X819180Y1325790D02*
X816030Y1324730D01*
X813670Y1322090D01*
X812090Y1318910D01*
X810910Y1314680D01*
X810520Y1309910D01*
X810910Y1305150D01*
X812090Y1300920D01*
X813670Y1297740D01*
X816030Y1295100D01*
X819180Y1294040D01*
X822330Y1295100D01*
X824690Y1297740D01*
X826270Y1300920D01*
X827450Y1305150D01*
X827840Y1309910D01*
X827450Y1314680D01*
X826270Y1318910D01*
X824690Y1322090D01*
X822330Y1324730D01*
X819180Y1325790D01*
G01X850670Y1292980D02*
X849880Y1293510D01*
Y1294570D01*
X850670Y1295100D01*
X851460Y1294570D01*
Y1293510D01*
X850670Y1292980D01*
G01X882160Y1325790D02*
X879010Y1324730D01*
X876650Y1322090D01*
X875070Y1318910D01*
X873890Y1314680D01*
X873500Y1309910D01*
X873890Y1305150D01*
X875070Y1300920D01*
X876650Y1297740D01*
X879010Y1295100D01*
X882160Y1294040D01*
X885310Y1295100D01*
X887670Y1297740D01*
X889250Y1300920D01*
X890430Y1305150D01*
X890820Y1309910D01*
X890430Y1314680D01*
X889250Y1318910D01*
X887670Y1322090D01*
X885310Y1324730D01*
X882160Y1325790D01*
G01X912860Y1294040D02*
X913650Y1300920D01*
X914830Y1306740D01*
X916410Y1312030D01*
X918370Y1317850D01*
X921520Y1325790D01*
X905780D01*
G01X937660Y1307270D02*
X940420Y1310970D01*
X942780Y1313090D01*
X945930Y1314150D01*
X948680Y1313090D01*
X950650Y1310970D01*
X952230Y1307800D01*
X952620Y1304090D01*
X952230Y1300920D01*
X950650Y1297740D01*
X948290Y1295100D01*
X945530Y1294040D01*
X942380Y1295100D01*
X939630Y1298270D01*
X938050Y1303040D01*
X937660Y1308330D01*
X938450Y1315210D01*
X939630Y1318910D01*
X941600Y1322610D01*
X944350Y1325260D01*
X947110Y1325790D01*
X949860Y1324730D01*
X951830Y1322090D01*
G01X969540Y1292980D02*
X983720Y1325790D01*
G01X1003000Y1304620D02*
X1013240D01*
G01X1039610Y1325790D02*
X1036460Y1324730D01*
X1034100Y1322090D01*
X1032520Y1318910D01*
X1031340Y1314680D01*
X1030950Y1309910D01*
X1031340Y1305150D01*
X1032520Y1300920D01*
X1034100Y1297740D01*
X1036460Y1295100D01*
X1039610Y1294040D01*
X1042760Y1295100D01*
X1045120Y1297740D01*
X1046700Y1300920D01*
X1047880Y1305150D01*
X1048270Y1309910D01*
X1047880Y1314680D01*
X1046700Y1318910D01*
X1045120Y1322090D01*
X1042760Y1324730D01*
X1039610Y1325790D01*
G01X1071100Y1292980D02*
X1070310Y1293510D01*
Y1294570D01*
X1071100Y1295100D01*
X1071890Y1294570D01*
Y1293510D01*
X1071100Y1292980D01*
G01X1102590Y1325790D02*
X1099440Y1324730D01*
X1097080Y1322090D01*
X1095500Y1318910D01*
X1094320Y1314680D01*
X1093930Y1309910D01*
X1094320Y1305150D01*
X1095500Y1300920D01*
X1097080Y1297740D01*
X1099440Y1295100D01*
X1102590Y1294040D01*
X1105740Y1295100D01*
X1108100Y1297740D01*
X1109680Y1300920D01*
X1110860Y1305150D01*
X1111250Y1309910D01*
X1110860Y1314680D01*
X1109680Y1318910D01*
X1108100Y1322090D01*
X1105740Y1324730D01*
X1102590Y1325790D01*
G01X1133290Y1294040D02*
X1134080Y1300920D01*
X1135260Y1306740D01*
X1136840Y1312030D01*
X1138800Y1317850D01*
X1141950Y1325790D01*
X1126210D01*
G01X1158090Y1307270D02*
X1160850Y1310970D01*
X1163210Y1313090D01*
X1166360Y1314150D01*
X1169110Y1313090D01*
X1171080Y1310970D01*
X1172660Y1307800D01*
X1173050Y1304090D01*
X1172660Y1300920D01*
X1171080Y1297740D01*
X1168720Y1295100D01*
X1165960Y1294040D01*
X1162810Y1295100D01*
X1160060Y1298270D01*
X1158480Y1303040D01*
X1158090Y1308330D01*
X1158880Y1315210D01*
X1160060Y1318910D01*
X1162030Y1322610D01*
X1164780Y1325260D01*
X1167540Y1325790D01*
X1170290Y1324730D01*
X1172260Y1322090D01*
G01X783360Y1375990D02*
X792810D01*
G01X787690Y1382870D02*
Y1369110D01*
G01X819180Y1397160D02*
X816030Y1396100D01*
X813670Y1393460D01*
X812090Y1390280D01*
X810910Y1386050D01*
X810520Y1381280D01*
X810910Y1376520D01*
X812090Y1372290D01*
X813670Y1369110D01*
X816030Y1366470D01*
X819180Y1365410D01*
X822330Y1366470D01*
X824690Y1369110D01*
X826270Y1372290D01*
X827450Y1376520D01*
X827840Y1381280D01*
X827450Y1386050D01*
X826270Y1390280D01*
X824690Y1393460D01*
X822330Y1396100D01*
X819180Y1397160D01*
G01X850670Y1364350D02*
X849880Y1364880D01*
Y1365940D01*
X850670Y1366470D01*
X851460Y1365940D01*
Y1364880D01*
X850670Y1364350D01*
G01X882160Y1397160D02*
X879010Y1396100D01*
X876650Y1393460D01*
X875070Y1390280D01*
X873890Y1386050D01*
X873500Y1381280D01*
X873890Y1376520D01*
X875070Y1372290D01*
X876650Y1369110D01*
X879010Y1366470D01*
X882160Y1365410D01*
X885310Y1366470D01*
X887670Y1369110D01*
X889250Y1372290D01*
X890430Y1376520D01*
X890820Y1381280D01*
X890430Y1386050D01*
X889250Y1390280D01*
X887670Y1393460D01*
X885310Y1396100D01*
X882160Y1397160D01*
G01X912860Y1365410D02*
X913650Y1372290D01*
X914830Y1378110D01*
X916410Y1383400D01*
X918370Y1389220D01*
X921520Y1397160D01*
X905780D01*
G01X937660Y1378640D02*
X940420Y1382340D01*
X942780Y1384460D01*
X945930Y1385520D01*
X948680Y1384460D01*
X950650Y1382340D01*
X952230Y1379170D01*
X952620Y1375460D01*
X952230Y1372290D01*
X950650Y1369110D01*
X948290Y1366470D01*
X945530Y1365410D01*
X942380Y1366470D01*
X939630Y1369640D01*
X938050Y1374410D01*
X937660Y1379700D01*
X938450Y1386580D01*
X939630Y1390280D01*
X941600Y1393980D01*
X944350Y1396630D01*
X947110Y1397160D01*
X949860Y1396100D01*
X951830Y1393460D01*
G01X969540Y1364350D02*
X983720Y1397160D01*
G01X1003000Y1375990D02*
X1013240D01*
G01X1039610Y1397160D02*
X1036460Y1396100D01*
X1034100Y1393460D01*
X1032520Y1390280D01*
X1031340Y1386050D01*
X1030950Y1381280D01*
X1031340Y1376520D01*
X1032520Y1372290D01*
X1034100Y1369110D01*
X1036460Y1366470D01*
X1039610Y1365410D01*
X1042760Y1366470D01*
X1045120Y1369110D01*
X1046700Y1372290D01*
X1047880Y1376520D01*
X1048270Y1381280D01*
X1047880Y1386050D01*
X1046700Y1390280D01*
X1045120Y1393460D01*
X1042760Y1396100D01*
X1039610Y1397160D01*
G01X1071100Y1364350D02*
X1070310Y1364880D01*
Y1365940D01*
X1071100Y1366470D01*
X1071890Y1365940D01*
Y1364880D01*
X1071100Y1364350D01*
G01X1102590Y1397160D02*
X1099440Y1396100D01*
X1097080Y1393460D01*
X1095500Y1390280D01*
X1094320Y1386050D01*
X1093930Y1381280D01*
X1094320Y1376520D01*
X1095500Y1372290D01*
X1097080Y1369110D01*
X1099440Y1366470D01*
X1102590Y1365410D01*
X1105740Y1366470D01*
X1108100Y1369110D01*
X1109680Y1372290D01*
X1110860Y1376520D01*
X1111250Y1381280D01*
X1110860Y1386050D01*
X1109680Y1390280D01*
X1108100Y1393460D01*
X1105740Y1396100D01*
X1102590Y1397160D01*
G01X1133290Y1365410D02*
X1134080Y1372290D01*
X1135260Y1378110D01*
X1136840Y1383400D01*
X1138800Y1389220D01*
X1141950Y1397160D01*
X1126210D01*
G01X1158090Y1378640D02*
X1160850Y1382340D01*
X1163210Y1384460D01*
X1166360Y1385520D01*
X1169110Y1384460D01*
X1171080Y1382340D01*
X1172660Y1379170D01*
X1173050Y1375460D01*
X1172660Y1372290D01*
X1171080Y1369110D01*
X1168720Y1366470D01*
X1165960Y1365410D01*
X1162810Y1366470D01*
X1160060Y1369640D01*
X1158480Y1374410D01*
X1158090Y1379700D01*
X1158880Y1386580D01*
X1160060Y1390280D01*
X1162030Y1393980D01*
X1164780Y1396630D01*
X1167540Y1397160D01*
X1170290Y1396100D01*
X1172260Y1393460D01*
G01X783360Y1447360D02*
X792810D01*
G01X787690Y1454240D02*
Y1440480D01*
G01X819180Y1468530D02*
X816030Y1467470D01*
X813670Y1464830D01*
X812090Y1461650D01*
X810910Y1457420D01*
X810520Y1452650D01*
X810910Y1447890D01*
X812090Y1443660D01*
X813670Y1440480D01*
X816030Y1437840D01*
X819180Y1436780D01*
X822330Y1437840D01*
X824690Y1440480D01*
X826270Y1443660D01*
X827450Y1447890D01*
X827840Y1452650D01*
X827450Y1457420D01*
X826270Y1461650D01*
X824690Y1464830D01*
X822330Y1467470D01*
X819180Y1468530D01*
G01X850670Y1435720D02*
X849880Y1436250D01*
Y1437310D01*
X850670Y1437840D01*
X851460Y1437310D01*
Y1436250D01*
X850670Y1435720D01*
G01X882160Y1468530D02*
X879010Y1467470D01*
X876650Y1464830D01*
X875070Y1461650D01*
X873890Y1457420D01*
X873500Y1452650D01*
X873890Y1447890D01*
X875070Y1443660D01*
X876650Y1440480D01*
X879010Y1437840D01*
X882160Y1436780D01*
X885310Y1437840D01*
X887670Y1440480D01*
X889250Y1443660D01*
X890430Y1447890D01*
X890820Y1452650D01*
X890430Y1457420D01*
X889250Y1461650D01*
X887670Y1464830D01*
X885310Y1467470D01*
X882160Y1468530D01*
G01X912860Y1436780D02*
X913650Y1443660D01*
X914830Y1449480D01*
X916410Y1454770D01*
X918370Y1460590D01*
X921520Y1468530D01*
X905780D01*
G01X937660Y1450010D02*
X940420Y1453710D01*
X942780Y1455830D01*
X945930Y1456890D01*
X948680Y1455830D01*
X950650Y1453710D01*
X952230Y1450540D01*
X952620Y1446830D01*
X952230Y1443660D01*
X950650Y1440480D01*
X948290Y1437840D01*
X945530Y1436780D01*
X942380Y1437840D01*
X939630Y1441010D01*
X938050Y1445780D01*
X937660Y1451070D01*
X938450Y1457950D01*
X939630Y1461650D01*
X941600Y1465350D01*
X944350Y1468000D01*
X947110Y1468530D01*
X949860Y1467470D01*
X951830Y1464830D01*
G01X969540Y1435720D02*
X983720Y1468530D01*
G01X1003000Y1447360D02*
X1013240D01*
G01X1039610Y1468530D02*
X1036460Y1467470D01*
X1034100Y1464830D01*
X1032520Y1461650D01*
X1031340Y1457420D01*
X1030950Y1452650D01*
X1031340Y1447890D01*
X1032520Y1443660D01*
X1034100Y1440480D01*
X1036460Y1437840D01*
X1039610Y1436780D01*
X1042760Y1437840D01*
X1045120Y1440480D01*
X1046700Y1443660D01*
X1047880Y1447890D01*
X1048270Y1452650D01*
X1047880Y1457420D01*
X1046700Y1461650D01*
X1045120Y1464830D01*
X1042760Y1467470D01*
X1039610Y1468530D01*
G01X1071100Y1435720D02*
X1070310Y1436250D01*
Y1437310D01*
X1071100Y1437840D01*
X1071890Y1437310D01*
Y1436250D01*
X1071100Y1435720D01*
G01X1102590Y1468530D02*
X1099440Y1467470D01*
X1097080Y1464830D01*
X1095500Y1461650D01*
X1094320Y1457420D01*
X1093930Y1452650D01*
X1094320Y1447890D01*
X1095500Y1443660D01*
X1097080Y1440480D01*
X1099440Y1437840D01*
X1102590Y1436780D01*
X1105740Y1437840D01*
X1108100Y1440480D01*
X1109680Y1443660D01*
X1110860Y1447890D01*
X1111250Y1452650D01*
X1110860Y1457420D01*
X1109680Y1461650D01*
X1108100Y1464830D01*
X1105740Y1467470D01*
X1102590Y1468530D01*
G01X1133290Y1436780D02*
X1134080Y1443660D01*
X1135260Y1449480D01*
X1136840Y1454770D01*
X1138800Y1460590D01*
X1141950Y1468530D01*
X1126210D01*
G01X1158090Y1450010D02*
X1160850Y1453710D01*
X1163210Y1455830D01*
X1166360Y1456890D01*
X1169110Y1455830D01*
X1171080Y1453710D01*
X1172660Y1450540D01*
X1173050Y1446830D01*
X1172660Y1443660D01*
X1171080Y1440480D01*
X1168720Y1437840D01*
X1165960Y1436780D01*
X1162810Y1437840D01*
X1160060Y1441010D01*
X1158480Y1445780D01*
X1158090Y1451070D01*
X1158880Y1457950D01*
X1160060Y1461650D01*
X1162030Y1465350D01*
X1164780Y1468000D01*
X1167540Y1468530D01*
X1170290Y1467470D01*
X1172260Y1464830D01*
G01X783360Y1518730D02*
X792810D01*
G01X787690Y1525610D02*
Y1511850D01*
G01X819180Y1539900D02*
X816030Y1538840D01*
X813670Y1536200D01*
X812090Y1533020D01*
X810910Y1528790D01*
X810520Y1524020D01*
X810910Y1519260D01*
X812090Y1515030D01*
X813670Y1511850D01*
X816030Y1509210D01*
X819180Y1508150D01*
X822330Y1509210D01*
X824690Y1511850D01*
X826270Y1515030D01*
X827450Y1519260D01*
X827840Y1524020D01*
X827450Y1528790D01*
X826270Y1533020D01*
X824690Y1536200D01*
X822330Y1538840D01*
X819180Y1539900D01*
G01X850670Y1507090D02*
X849880Y1507620D01*
Y1508680D01*
X850670Y1509210D01*
X851460Y1508680D01*
Y1507620D01*
X850670Y1507090D01*
G01X882160Y1539900D02*
X879010Y1538840D01*
X876650Y1536200D01*
X875070Y1533020D01*
X873890Y1528790D01*
X873500Y1524020D01*
X873890Y1519260D01*
X875070Y1515030D01*
X876650Y1511850D01*
X879010Y1509210D01*
X882160Y1508150D01*
X885310Y1509210D01*
X887670Y1511850D01*
X889250Y1515030D01*
X890430Y1519260D01*
X890820Y1524020D01*
X890430Y1528790D01*
X889250Y1533020D01*
X887670Y1536200D01*
X885310Y1538840D01*
X882160Y1539900D01*
G01X904990Y1512910D02*
X907350Y1510270D01*
X910110Y1508680D01*
X913650Y1508150D01*
X917190Y1509210D01*
X919950Y1511320D01*
X921920Y1515030D01*
X922310Y1519260D01*
X921520Y1523500D01*
X919550Y1526140D01*
X916800Y1528260D01*
X914040Y1528790D01*
X911290Y1528260D01*
X907750Y1526140D01*
X908930Y1539900D01*
X919550D01*
G01X945140Y1508150D02*
Y1539900D01*
X940420Y1533550D01*
G01Y1508150D02*
X949860D01*
G01X969540Y1507090D02*
X983720Y1539900D01*
G01X1003000Y1518730D02*
X1013240D01*
G01X1039610Y1539900D02*
X1036460Y1538840D01*
X1034100Y1536200D01*
X1032520Y1533020D01*
X1031340Y1528790D01*
X1030950Y1524020D01*
X1031340Y1519260D01*
X1032520Y1515030D01*
X1034100Y1511850D01*
X1036460Y1509210D01*
X1039610Y1508150D01*
X1042760Y1509210D01*
X1045120Y1511850D01*
X1046700Y1515030D01*
X1047880Y1519260D01*
X1048270Y1524020D01*
X1047880Y1528790D01*
X1046700Y1533020D01*
X1045120Y1536200D01*
X1042760Y1538840D01*
X1039610Y1539900D01*
G01X1071100Y1507090D02*
X1070310Y1507620D01*
Y1508680D01*
X1071100Y1509210D01*
X1071890Y1508680D01*
Y1507620D01*
X1071100Y1507090D01*
G01X1102590Y1539900D02*
X1099440Y1538840D01*
X1097080Y1536200D01*
X1095500Y1533020D01*
X1094320Y1528790D01*
X1093930Y1524020D01*
X1094320Y1519260D01*
X1095500Y1515030D01*
X1097080Y1511850D01*
X1099440Y1509210D01*
X1102590Y1508150D01*
X1105740Y1509210D01*
X1108100Y1511850D01*
X1109680Y1515030D01*
X1110860Y1519260D01*
X1111250Y1524020D01*
X1110860Y1528790D01*
X1109680Y1533020D01*
X1108100Y1536200D01*
X1105740Y1538840D01*
X1102590Y1539900D01*
G01X1125420Y1512910D02*
X1127780Y1510270D01*
X1130540Y1508680D01*
X1134080Y1508150D01*
X1137620Y1509210D01*
X1140380Y1511320D01*
X1142350Y1515030D01*
X1142740Y1519260D01*
X1141950Y1523500D01*
X1139980Y1526140D01*
X1137230Y1528260D01*
X1134470Y1528790D01*
X1131720Y1528260D01*
X1128180Y1526140D01*
X1129360Y1539900D01*
X1139980D01*
G01X1165570Y1508150D02*
Y1539900D01*
X1160850Y1533550D01*
G01Y1508150D02*
X1170290D01*
G01X846340Y1590100D02*
X855790D01*
G01X850670Y1596980D02*
Y1583220D01*
G01X882160Y1611270D02*
X879010Y1610210D01*
X876650Y1607570D01*
X875070Y1604390D01*
X873890Y1600160D01*
X873500Y1595390D01*
X873890Y1590630D01*
X875070Y1586400D01*
X876650Y1583220D01*
X879010Y1580580D01*
X882160Y1579520D01*
X885310Y1580580D01*
X887670Y1583220D01*
X889250Y1586400D01*
X890430Y1590630D01*
X890820Y1595390D01*
X890430Y1600160D01*
X889250Y1604390D01*
X887670Y1607570D01*
X885310Y1610210D01*
X882160Y1611270D01*
G01X913650Y1578460D02*
X912860Y1578990D01*
Y1580050D01*
X913650Y1580580D01*
X914440Y1580050D01*
Y1578990D01*
X913650Y1578460D01*
G01X945140Y1611270D02*
X941990Y1610210D01*
X939630Y1607570D01*
X938050Y1604390D01*
X936870Y1600160D01*
X936480Y1595390D01*
X936870Y1590630D01*
X938050Y1586400D01*
X939630Y1583220D01*
X941990Y1580580D01*
X945140Y1579520D01*
X948290Y1580580D01*
X950650Y1583220D01*
X952230Y1586400D01*
X953410Y1590630D01*
X953800Y1595390D01*
X953410Y1600160D01*
X952230Y1604390D01*
X950650Y1607570D01*
X948290Y1610210D01*
X945140Y1611270D01*
G01X969540Y1578460D02*
X983720Y1611270D01*
G01X1003000Y1590100D02*
X1013240D01*
G01X1039610Y1611270D02*
X1036460Y1610210D01*
X1034100Y1607570D01*
X1032520Y1604390D01*
X1031340Y1600160D01*
X1030950Y1595390D01*
X1031340Y1590630D01*
X1032520Y1586400D01*
X1034100Y1583220D01*
X1036460Y1580580D01*
X1039610Y1579520D01*
X1042760Y1580580D01*
X1045120Y1583220D01*
X1046700Y1586400D01*
X1047880Y1590630D01*
X1048270Y1595390D01*
X1047880Y1600160D01*
X1046700Y1604390D01*
X1045120Y1607570D01*
X1042760Y1610210D01*
X1039610Y1611270D01*
G01X1071100Y1578460D02*
X1070310Y1578990D01*
Y1580050D01*
X1071100Y1580580D01*
X1071890Y1580050D01*
Y1578990D01*
X1071100Y1578460D01*
G01X1102590Y1611270D02*
X1099440Y1610210D01*
X1097080Y1607570D01*
X1095500Y1604390D01*
X1094320Y1600160D01*
X1093930Y1595390D01*
X1094320Y1590630D01*
X1095500Y1586400D01*
X1097080Y1583220D01*
X1099440Y1580580D01*
X1102590Y1579520D01*
X1105740Y1580580D01*
X1108100Y1583220D01*
X1109680Y1586400D01*
X1110860Y1590630D01*
X1111250Y1595390D01*
X1110860Y1600160D01*
X1109680Y1604390D01*
X1108100Y1607570D01*
X1105740Y1610210D01*
X1102590Y1611270D01*
G01X846340Y1661470D02*
X855790D01*
G01X850670Y1668350D02*
Y1654590D01*
G01X882160Y1682640D02*
X879010Y1681580D01*
X876650Y1678940D01*
X875070Y1675760D01*
X873890Y1671530D01*
X873500Y1666760D01*
X873890Y1662000D01*
X875070Y1657770D01*
X876650Y1654590D01*
X879010Y1651950D01*
X882160Y1650890D01*
X885310Y1651950D01*
X887670Y1654590D01*
X889250Y1657770D01*
X890430Y1662000D01*
X890820Y1666760D01*
X890430Y1671530D01*
X889250Y1675760D01*
X887670Y1678940D01*
X885310Y1681580D01*
X882160Y1682640D01*
G01X913650Y1649830D02*
X912860Y1650360D01*
Y1651420D01*
X913650Y1651950D01*
X914440Y1651420D01*
Y1650360D01*
X913650Y1649830D01*
G01X945140Y1682640D02*
X941990Y1681580D01*
X939630Y1678940D01*
X938050Y1675760D01*
X936870Y1671530D01*
X936480Y1666760D01*
X936870Y1662000D01*
X938050Y1657770D01*
X939630Y1654590D01*
X941990Y1651950D01*
X945140Y1650890D01*
X948290Y1651950D01*
X950650Y1654590D01*
X952230Y1657770D01*
X953410Y1662000D01*
X953800Y1666760D01*
X953410Y1671530D01*
X952230Y1675760D01*
X950650Y1678940D01*
X948290Y1681580D01*
X945140Y1682640D01*
G01X969540Y1649830D02*
X983720Y1682640D01*
G01X1003000Y1661470D02*
X1013240D01*
G01X1039610Y1682640D02*
X1036460Y1681580D01*
X1034100Y1678940D01*
X1032520Y1675760D01*
X1031340Y1671530D01*
X1030950Y1666760D01*
X1031340Y1662000D01*
X1032520Y1657770D01*
X1034100Y1654590D01*
X1036460Y1651950D01*
X1039610Y1650890D01*
X1042760Y1651950D01*
X1045120Y1654590D01*
X1046700Y1657770D01*
X1047880Y1662000D01*
X1048270Y1666760D01*
X1047880Y1671530D01*
X1046700Y1675760D01*
X1045120Y1678940D01*
X1042760Y1681580D01*
X1039610Y1682640D01*
G01X1071100Y1649830D02*
X1070310Y1650360D01*
Y1651420D01*
X1071100Y1651950D01*
X1071890Y1651420D01*
Y1650360D01*
X1071100Y1649830D01*
G01X1102590Y1682640D02*
X1099440Y1681580D01*
X1097080Y1678940D01*
X1095500Y1675760D01*
X1094320Y1671530D01*
X1093930Y1666760D01*
X1094320Y1662000D01*
X1095500Y1657770D01*
X1097080Y1654590D01*
X1099440Y1651950D01*
X1102590Y1650890D01*
X1105740Y1651950D01*
X1108100Y1654590D01*
X1109680Y1657770D01*
X1110860Y1662000D01*
X1111250Y1666760D01*
X1110860Y1671530D01*
X1109680Y1675760D01*
X1108100Y1678940D01*
X1105740Y1681580D01*
X1102590Y1682640D01*
G01X846340Y1732840D02*
X855790D01*
G01X850670Y1739720D02*
Y1725960D01*
G01X882160Y1754010D02*
X879010Y1752950D01*
X876650Y1750310D01*
X875070Y1747130D01*
X873890Y1742900D01*
X873500Y1738130D01*
X873890Y1733370D01*
X875070Y1729140D01*
X876650Y1725960D01*
X879010Y1723320D01*
X882160Y1722260D01*
X885310Y1723320D01*
X887670Y1725960D01*
X889250Y1729140D01*
X890430Y1733370D01*
X890820Y1738130D01*
X890430Y1742900D01*
X889250Y1747130D01*
X887670Y1750310D01*
X885310Y1752950D01*
X882160Y1754010D01*
G01X913650Y1721200D02*
X912860Y1721730D01*
Y1722790D01*
X913650Y1723320D01*
X914440Y1722790D01*
Y1721730D01*
X913650Y1721200D01*
G01X945140Y1754010D02*
X941990Y1752950D01*
X939630Y1750310D01*
X938050Y1747130D01*
X936870Y1742900D01*
X936480Y1738130D01*
X936870Y1733370D01*
X938050Y1729140D01*
X939630Y1725960D01*
X941990Y1723320D01*
X945140Y1722260D01*
X948290Y1723320D01*
X950650Y1725960D01*
X952230Y1729140D01*
X953410Y1733370D01*
X953800Y1738130D01*
X953410Y1742900D01*
X952230Y1747130D01*
X950650Y1750310D01*
X948290Y1752950D01*
X945140Y1754010D01*
G01X969540Y1721200D02*
X983720Y1754010D01*
G01X1003000Y1732840D02*
X1013240D01*
G01X1039610Y1754010D02*
X1036460Y1752950D01*
X1034100Y1750310D01*
X1032520Y1747130D01*
X1031340Y1742900D01*
X1030950Y1738130D01*
X1031340Y1733370D01*
X1032520Y1729140D01*
X1034100Y1725960D01*
X1036460Y1723320D01*
X1039610Y1722260D01*
X1042760Y1723320D01*
X1045120Y1725960D01*
X1046700Y1729140D01*
X1047880Y1733370D01*
X1048270Y1738130D01*
X1047880Y1742900D01*
X1046700Y1747130D01*
X1045120Y1750310D01*
X1042760Y1752950D01*
X1039610Y1754010D01*
G01X1071100Y1721200D02*
X1070310Y1721730D01*
Y1722790D01*
X1071100Y1723320D01*
X1071890Y1722790D01*
Y1721730D01*
X1071100Y1721200D01*
G01X1102590Y1754010D02*
X1099440Y1752950D01*
X1097080Y1750310D01*
X1095500Y1747130D01*
X1094320Y1742900D01*
X1093930Y1738130D01*
X1094320Y1733370D01*
X1095500Y1729140D01*
X1097080Y1725960D01*
X1099440Y1723320D01*
X1102590Y1722260D01*
X1105740Y1723320D01*
X1108100Y1725960D01*
X1109680Y1729140D01*
X1110860Y1733370D01*
X1111250Y1738130D01*
X1110860Y1742900D01*
X1109680Y1747130D01*
X1108100Y1750310D01*
X1105740Y1752950D01*
X1102590Y1754010D01*
G01X846340Y1804210D02*
X855790D01*
G01X850670Y1811090D02*
Y1797330D01*
G01X882160Y1825380D02*
X879010Y1824320D01*
X876650Y1821680D01*
X875070Y1818500D01*
X873890Y1814270D01*
X873500Y1809500D01*
X873890Y1804740D01*
X875070Y1800510D01*
X876650Y1797330D01*
X879010Y1794690D01*
X882160Y1793630D01*
X885310Y1794690D01*
X887670Y1797330D01*
X889250Y1800510D01*
X890430Y1804740D01*
X890820Y1809500D01*
X890430Y1814270D01*
X889250Y1818500D01*
X887670Y1821680D01*
X885310Y1824320D01*
X882160Y1825380D01*
G01X913650Y1792570D02*
X912860Y1793100D01*
Y1794160D01*
X913650Y1794690D01*
X914440Y1794160D01*
Y1793100D01*
X913650Y1792570D01*
G01X945140Y1825380D02*
X941990Y1824320D01*
X939630Y1821680D01*
X938050Y1818500D01*
X936870Y1814270D01*
X936480Y1809500D01*
X936870Y1804740D01*
X938050Y1800510D01*
X939630Y1797330D01*
X941990Y1794690D01*
X945140Y1793630D01*
X948290Y1794690D01*
X950650Y1797330D01*
X952230Y1800510D01*
X953410Y1804740D01*
X953800Y1809500D01*
X953410Y1814270D01*
X952230Y1818500D01*
X950650Y1821680D01*
X948290Y1824320D01*
X945140Y1825380D01*
G01X969540Y1792570D02*
X983720Y1825380D01*
G01X1003000Y1804210D02*
X1013240D01*
G01X1039610Y1825380D02*
X1036460Y1824320D01*
X1034100Y1821680D01*
X1032520Y1818500D01*
X1031340Y1814270D01*
X1030950Y1809500D01*
X1031340Y1804740D01*
X1032520Y1800510D01*
X1034100Y1797330D01*
X1036460Y1794690D01*
X1039610Y1793630D01*
X1042760Y1794690D01*
X1045120Y1797330D01*
X1046700Y1800510D01*
X1047880Y1804740D01*
X1048270Y1809500D01*
X1047880Y1814270D01*
X1046700Y1818500D01*
X1045120Y1821680D01*
X1042760Y1824320D01*
X1039610Y1825380D01*
G01X1071100Y1792570D02*
X1070310Y1793100D01*
Y1794160D01*
X1071100Y1794690D01*
X1071890Y1794160D01*
Y1793100D01*
X1071100Y1792570D01*
G01X1102590Y1825380D02*
X1099440Y1824320D01*
X1097080Y1821680D01*
X1095500Y1818500D01*
X1094320Y1814270D01*
X1093930Y1809500D01*
X1094320Y1804740D01*
X1095500Y1800510D01*
X1097080Y1797330D01*
X1099440Y1794690D01*
X1102590Y1793630D01*
X1105740Y1794690D01*
X1108100Y1797330D01*
X1109680Y1800510D01*
X1110860Y1804740D01*
X1111250Y1809500D01*
X1110860Y1814270D01*
X1109680Y1818500D01*
X1108100Y1821680D01*
X1105740Y1824320D01*
X1102590Y1825380D01*
G01X846340Y1875580D02*
X855790D01*
G01X850670Y1882460D02*
Y1868700D01*
G01X882160Y1896750D02*
X879010Y1895690D01*
X876650Y1893050D01*
X875070Y1889870D01*
X873890Y1885640D01*
X873500Y1880870D01*
X873890Y1876110D01*
X875070Y1871880D01*
X876650Y1868700D01*
X879010Y1866060D01*
X882160Y1865000D01*
X885310Y1866060D01*
X887670Y1868700D01*
X889250Y1871880D01*
X890430Y1876110D01*
X890820Y1880870D01*
X890430Y1885640D01*
X889250Y1889870D01*
X887670Y1893050D01*
X885310Y1895690D01*
X882160Y1896750D01*
G01X913650Y1863940D02*
X912860Y1864470D01*
Y1865530D01*
X913650Y1866060D01*
X914440Y1865530D01*
Y1864470D01*
X913650Y1863940D01*
G01X945140Y1896750D02*
X941990Y1895690D01*
X939630Y1893050D01*
X938050Y1889870D01*
X936870Y1885640D01*
X936480Y1880870D01*
X936870Y1876110D01*
X938050Y1871880D01*
X939630Y1868700D01*
X941990Y1866060D01*
X945140Y1865000D01*
X948290Y1866060D01*
X950650Y1868700D01*
X952230Y1871880D01*
X953410Y1876110D01*
X953800Y1880870D01*
X953410Y1885640D01*
X952230Y1889870D01*
X950650Y1893050D01*
X948290Y1895690D01*
X945140Y1896750D01*
G01X969540Y1863940D02*
X983720Y1896750D01*
G01X1003000Y1875580D02*
X1013240D01*
G01X1039610Y1896750D02*
X1036460Y1895690D01*
X1034100Y1893050D01*
X1032520Y1889870D01*
X1031340Y1885640D01*
X1030950Y1880870D01*
X1031340Y1876110D01*
X1032520Y1871880D01*
X1034100Y1868700D01*
X1036460Y1866060D01*
X1039610Y1865000D01*
X1042760Y1866060D01*
X1045120Y1868700D01*
X1046700Y1871880D01*
X1047880Y1876110D01*
X1048270Y1880870D01*
X1047880Y1885640D01*
X1046700Y1889870D01*
X1045120Y1893050D01*
X1042760Y1895690D01*
X1039610Y1896750D01*
G01X1071100Y1863940D02*
X1070310Y1864470D01*
Y1865530D01*
X1071100Y1866060D01*
X1071890Y1865530D01*
Y1864470D01*
X1071100Y1863940D01*
G01X1102590Y1896750D02*
X1099440Y1895690D01*
X1097080Y1893050D01*
X1095500Y1889870D01*
X1094320Y1885640D01*
X1093930Y1880870D01*
X1094320Y1876110D01*
X1095500Y1871880D01*
X1097080Y1868700D01*
X1099440Y1866060D01*
X1102590Y1865000D01*
X1105740Y1866060D01*
X1108100Y1868700D01*
X1109680Y1871880D01*
X1110860Y1876110D01*
X1111250Y1880870D01*
X1110860Y1885640D01*
X1109680Y1889870D01*
X1108100Y1893050D01*
X1105740Y1895690D01*
X1102590Y1896750D01*
G01X846340Y1946950D02*
X855790D01*
G01X850670Y1953830D02*
Y1940070D01*
G01X882160Y1968120D02*
X879010Y1967060D01*
X876650Y1964420D01*
X875070Y1961240D01*
X873890Y1957010D01*
X873500Y1952240D01*
X873890Y1947480D01*
X875070Y1943250D01*
X876650Y1940070D01*
X879010Y1937430D01*
X882160Y1936370D01*
X885310Y1937430D01*
X887670Y1940070D01*
X889250Y1943250D01*
X890430Y1947480D01*
X890820Y1952240D01*
X890430Y1957010D01*
X889250Y1961240D01*
X887670Y1964420D01*
X885310Y1967060D01*
X882160Y1968120D01*
G01X913650Y1935310D02*
X912860Y1935840D01*
Y1936900D01*
X913650Y1937430D01*
X914440Y1936900D01*
Y1935840D01*
X913650Y1935310D01*
G01X945140Y1968120D02*
X941990Y1967060D01*
X939630Y1964420D01*
X938050Y1961240D01*
X936870Y1957010D01*
X936480Y1952240D01*
X936870Y1947480D01*
X938050Y1943250D01*
X939630Y1940070D01*
X941990Y1937430D01*
X945140Y1936370D01*
X948290Y1937430D01*
X950650Y1940070D01*
X952230Y1943250D01*
X953410Y1947480D01*
X953800Y1952240D01*
X953410Y1957010D01*
X952230Y1961240D01*
X950650Y1964420D01*
X948290Y1967060D01*
X945140Y1968120D01*
G01X969540Y1935310D02*
X983720Y1968120D01*
G01X1003000Y1946950D02*
X1013240D01*
G01X1039610Y1968120D02*
X1036460Y1967060D01*
X1034100Y1964420D01*
X1032520Y1961240D01*
X1031340Y1957010D01*
X1030950Y1952240D01*
X1031340Y1947480D01*
X1032520Y1943250D01*
X1034100Y1940070D01*
X1036460Y1937430D01*
X1039610Y1936370D01*
X1042760Y1937430D01*
X1045120Y1940070D01*
X1046700Y1943250D01*
X1047880Y1947480D01*
X1048270Y1952240D01*
X1047880Y1957010D01*
X1046700Y1961240D01*
X1045120Y1964420D01*
X1042760Y1967060D01*
X1039610Y1968120D01*
G01X1071100Y1935310D02*
X1070310Y1935840D01*
Y1936900D01*
X1071100Y1937430D01*
X1071890Y1936900D01*
Y1935840D01*
X1071100Y1935310D01*
G01X1102590Y1968120D02*
X1099440Y1967060D01*
X1097080Y1964420D01*
X1095500Y1961240D01*
X1094320Y1957010D01*
X1093930Y1952240D01*
X1094320Y1947480D01*
X1095500Y1943250D01*
X1097080Y1940070D01*
X1099440Y1937430D01*
X1102590Y1936370D01*
X1105740Y1937430D01*
X1108100Y1940070D01*
X1109680Y1943250D01*
X1110860Y1947480D01*
X1111250Y1952240D01*
X1110860Y1957010D01*
X1109680Y1961240D01*
X1108100Y1964420D01*
X1105740Y1967060D01*
X1102590Y1968120D01*
G01X846340Y2018320D02*
X855790D01*
G01X850670Y2025200D02*
Y2011440D01*
G01X882160Y2039490D02*
X879010Y2038430D01*
X876650Y2035790D01*
X875070Y2032610D01*
X873890Y2028380D01*
X873500Y2023610D01*
X873890Y2018850D01*
X875070Y2014620D01*
X876650Y2011440D01*
X879010Y2008800D01*
X882160Y2007740D01*
X885310Y2008800D01*
X887670Y2011440D01*
X889250Y2014620D01*
X890430Y2018850D01*
X890820Y2023610D01*
X890430Y2028380D01*
X889250Y2032610D01*
X887670Y2035790D01*
X885310Y2038430D01*
X882160Y2039490D01*
G01X913650Y2006680D02*
X912860Y2007210D01*
Y2008270D01*
X913650Y2008800D01*
X914440Y2008270D01*
Y2007210D01*
X913650Y2006680D01*
G01X945140Y2039490D02*
X941990Y2038430D01*
X939630Y2035790D01*
X938050Y2032610D01*
X936870Y2028380D01*
X936480Y2023610D01*
X936870Y2018850D01*
X938050Y2014620D01*
X939630Y2011440D01*
X941990Y2008800D01*
X945140Y2007740D01*
X948290Y2008800D01*
X950650Y2011440D01*
X952230Y2014620D01*
X953410Y2018850D01*
X953800Y2023610D01*
X953410Y2028380D01*
X952230Y2032610D01*
X950650Y2035790D01*
X948290Y2038430D01*
X945140Y2039490D01*
G01X969540Y2006680D02*
X983720Y2039490D01*
G01X1003000Y2018320D02*
X1013240D01*
G01X1039610Y2039490D02*
X1036460Y2038430D01*
X1034100Y2035790D01*
X1032520Y2032610D01*
X1031340Y2028380D01*
X1030950Y2023610D01*
X1031340Y2018850D01*
X1032520Y2014620D01*
X1034100Y2011440D01*
X1036460Y2008800D01*
X1039610Y2007740D01*
X1042760Y2008800D01*
X1045120Y2011440D01*
X1046700Y2014620D01*
X1047880Y2018850D01*
X1048270Y2023610D01*
X1047880Y2028380D01*
X1046700Y2032610D01*
X1045120Y2035790D01*
X1042760Y2038430D01*
X1039610Y2039490D01*
G01X1071100Y2006680D02*
X1070310Y2007210D01*
Y2008270D01*
X1071100Y2008800D01*
X1071890Y2008270D01*
Y2007210D01*
X1071100Y2006680D01*
G01X1102590Y2039490D02*
X1099440Y2038430D01*
X1097080Y2035790D01*
X1095500Y2032610D01*
X1094320Y2028380D01*
X1093930Y2023610D01*
X1094320Y2018850D01*
X1095500Y2014620D01*
X1097080Y2011440D01*
X1099440Y2008800D01*
X1102590Y2007740D01*
X1105740Y2008800D01*
X1108100Y2011440D01*
X1109680Y2014620D01*
X1110860Y2018850D01*
X1111250Y2023610D01*
X1110860Y2028380D01*
X1109680Y2032610D01*
X1108100Y2035790D01*
X1105740Y2038430D01*
X1102590Y2039490D01*
G01X846340Y2089690D02*
X855790D01*
G01X850670Y2096570D02*
Y2082810D01*
G01X882160Y2110860D02*
X879010Y2109800D01*
X876650Y2107160D01*
X875070Y2103980D01*
X873890Y2099750D01*
X873500Y2094980D01*
X873890Y2090220D01*
X875070Y2085990D01*
X876650Y2082810D01*
X879010Y2080170D01*
X882160Y2079110D01*
X885310Y2080170D01*
X887670Y2082810D01*
X889250Y2085990D01*
X890430Y2090220D01*
X890820Y2094980D01*
X890430Y2099750D01*
X889250Y2103980D01*
X887670Y2107160D01*
X885310Y2109800D01*
X882160Y2110860D01*
G01X913650Y2078050D02*
X912860Y2078580D01*
Y2079640D01*
X913650Y2080170D01*
X914440Y2079640D01*
Y2078580D01*
X913650Y2078050D01*
G01X945140Y2110860D02*
X941990Y2109800D01*
X939630Y2107160D01*
X938050Y2103980D01*
X936870Y2099750D01*
X936480Y2094980D01*
X936870Y2090220D01*
X938050Y2085990D01*
X939630Y2082810D01*
X941990Y2080170D01*
X945140Y2079110D01*
X948290Y2080170D01*
X950650Y2082810D01*
X952230Y2085990D01*
X953410Y2090220D01*
X953800Y2094980D01*
X953410Y2099750D01*
X952230Y2103980D01*
X950650Y2107160D01*
X948290Y2109800D01*
X945140Y2110860D01*
G01X969540Y2078050D02*
X983720Y2110860D01*
G01X1003000Y2089690D02*
X1013240D01*
G01X1039610Y2110860D02*
X1036460Y2109800D01*
X1034100Y2107160D01*
X1032520Y2103980D01*
X1031340Y2099750D01*
X1030950Y2094980D01*
X1031340Y2090220D01*
X1032520Y2085990D01*
X1034100Y2082810D01*
X1036460Y2080170D01*
X1039610Y2079110D01*
X1042760Y2080170D01*
X1045120Y2082810D01*
X1046700Y2085990D01*
X1047880Y2090220D01*
X1048270Y2094980D01*
X1047880Y2099750D01*
X1046700Y2103980D01*
X1045120Y2107160D01*
X1042760Y2109800D01*
X1039610Y2110860D01*
G01X1071100Y2078050D02*
X1070310Y2078580D01*
Y2079640D01*
X1071100Y2080170D01*
X1071890Y2079640D01*
Y2078580D01*
X1071100Y2078050D01*
G01X1102590Y2110860D02*
X1099440Y2109800D01*
X1097080Y2107160D01*
X1095500Y2103980D01*
X1094320Y2099750D01*
X1093930Y2094980D01*
X1094320Y2090220D01*
X1095500Y2085990D01*
X1097080Y2082810D01*
X1099440Y2080170D01*
X1102590Y2079110D01*
X1105740Y2080170D01*
X1108100Y2082810D01*
X1109680Y2085990D01*
X1110860Y2090220D01*
X1111250Y2094980D01*
X1110860Y2099750D01*
X1109680Y2103980D01*
X1108100Y2107160D01*
X1105740Y2109800D01*
X1102590Y2110860D01*
G01X846340Y2161060D02*
X855790D01*
G01X850670Y2167940D02*
Y2154180D01*
G01X882160Y2182230D02*
X879010Y2181170D01*
X876650Y2178530D01*
X875070Y2175350D01*
X873890Y2171120D01*
X873500Y2166350D01*
X873890Y2161590D01*
X875070Y2157360D01*
X876650Y2154180D01*
X879010Y2151540D01*
X882160Y2150480D01*
X885310Y2151540D01*
X887670Y2154180D01*
X889250Y2157360D01*
X890430Y2161590D01*
X890820Y2166350D01*
X890430Y2171120D01*
X889250Y2175350D01*
X887670Y2178530D01*
X885310Y2181170D01*
X882160Y2182230D01*
G01X913650Y2149420D02*
X912860Y2149950D01*
Y2151010D01*
X913650Y2151540D01*
X914440Y2151010D01*
Y2149950D01*
X913650Y2149420D01*
G01X945140Y2182230D02*
X941990Y2181170D01*
X939630Y2178530D01*
X938050Y2175350D01*
X936870Y2171120D01*
X936480Y2166350D01*
X936870Y2161590D01*
X938050Y2157360D01*
X939630Y2154180D01*
X941990Y2151540D01*
X945140Y2150480D01*
X948290Y2151540D01*
X950650Y2154180D01*
X952230Y2157360D01*
X953410Y2161590D01*
X953800Y2166350D01*
X953410Y2171120D01*
X952230Y2175350D01*
X950650Y2178530D01*
X948290Y2181170D01*
X945140Y2182230D01*
G01X969540Y2149420D02*
X983720Y2182230D01*
G01X1003000Y2161060D02*
X1013240D01*
G01X1039610Y2182230D02*
X1036460Y2181170D01*
X1034100Y2178530D01*
X1032520Y2175350D01*
X1031340Y2171120D01*
X1030950Y2166350D01*
X1031340Y2161590D01*
X1032520Y2157360D01*
X1034100Y2154180D01*
X1036460Y2151540D01*
X1039610Y2150480D01*
X1042760Y2151540D01*
X1045120Y2154180D01*
X1046700Y2157360D01*
X1047880Y2161590D01*
X1048270Y2166350D01*
X1047880Y2171120D01*
X1046700Y2175350D01*
X1045120Y2178530D01*
X1042760Y2181170D01*
X1039610Y2182230D01*
G01X1071100Y2149420D02*
X1070310Y2149950D01*
Y2151010D01*
X1071100Y2151540D01*
X1071890Y2151010D01*
Y2149950D01*
X1071100Y2149420D01*
G01X1102590Y2182230D02*
X1099440Y2181170D01*
X1097080Y2178530D01*
X1095500Y2175350D01*
X1094320Y2171120D01*
X1093930Y2166350D01*
X1094320Y2161590D01*
X1095500Y2157360D01*
X1097080Y2154180D01*
X1099440Y2151540D01*
X1102590Y2150480D01*
X1105740Y2151540D01*
X1108100Y2154180D01*
X1109680Y2157360D01*
X1110860Y2161590D01*
X1111250Y2166350D01*
X1110860Y2171120D01*
X1109680Y2175350D01*
X1108100Y2178530D01*
X1105740Y2181170D01*
X1102590Y2182230D01*
G01X846340Y2232430D02*
X855790D01*
G01X850670Y2239310D02*
Y2225550D01*
G01X882160Y2253600D02*
X879010Y2252540D01*
X876650Y2249900D01*
X875070Y2246720D01*
X873890Y2242490D01*
X873500Y2237720D01*
X873890Y2232960D01*
X875070Y2228730D01*
X876650Y2225550D01*
X879010Y2222910D01*
X882160Y2221850D01*
X885310Y2222910D01*
X887670Y2225550D01*
X889250Y2228730D01*
X890430Y2232960D01*
X890820Y2237720D01*
X890430Y2242490D01*
X889250Y2246720D01*
X887670Y2249900D01*
X885310Y2252540D01*
X882160Y2253600D01*
G01X913650Y2220790D02*
X912860Y2221320D01*
Y2222380D01*
X913650Y2222910D01*
X914440Y2222380D01*
Y2221320D01*
X913650Y2220790D01*
G01X945140Y2253600D02*
X941990Y2252540D01*
X939630Y2249900D01*
X938050Y2246720D01*
X936870Y2242490D01*
X936480Y2237720D01*
X936870Y2232960D01*
X938050Y2228730D01*
X939630Y2225550D01*
X941990Y2222910D01*
X945140Y2221850D01*
X948290Y2222910D01*
X950650Y2225550D01*
X952230Y2228730D01*
X953410Y2232960D01*
X953800Y2237720D01*
X953410Y2242490D01*
X952230Y2246720D01*
X950650Y2249900D01*
X948290Y2252540D01*
X945140Y2253600D01*
G01X969540Y2220790D02*
X983720Y2253600D01*
G01X1003000Y2232430D02*
X1013240D01*
G01X1039610Y2253600D02*
X1036460Y2252540D01*
X1034100Y2249900D01*
X1032520Y2246720D01*
X1031340Y2242490D01*
X1030950Y2237720D01*
X1031340Y2232960D01*
X1032520Y2228730D01*
X1034100Y2225550D01*
X1036460Y2222910D01*
X1039610Y2221850D01*
X1042760Y2222910D01*
X1045120Y2225550D01*
X1046700Y2228730D01*
X1047880Y2232960D01*
X1048270Y2237720D01*
X1047880Y2242490D01*
X1046700Y2246720D01*
X1045120Y2249900D01*
X1042760Y2252540D01*
X1039610Y2253600D01*
G01X1071100Y2220790D02*
X1070310Y2221320D01*
Y2222380D01*
X1071100Y2222910D01*
X1071890Y2222380D01*
Y2221320D01*
X1071100Y2220790D01*
G01X1102590Y2253600D02*
X1099440Y2252540D01*
X1097080Y2249900D01*
X1095500Y2246720D01*
X1094320Y2242490D01*
X1093930Y2237720D01*
X1094320Y2232960D01*
X1095500Y2228730D01*
X1097080Y2225550D01*
X1099440Y2222910D01*
X1102590Y2221850D01*
X1105740Y2222910D01*
X1108100Y2225550D01*
X1109680Y2228730D01*
X1110860Y2232960D01*
X1111250Y2237720D01*
X1110860Y2242490D01*
X1109680Y2246720D01*
X1108100Y2249900D01*
X1105740Y2252540D01*
X1102590Y2253600D01*
G01X846340Y2303800D02*
X855790D01*
G01X850670Y2310680D02*
Y2296920D01*
G01X882160Y2324970D02*
X879010Y2323910D01*
X876650Y2321270D01*
X875070Y2318090D01*
X873890Y2313860D01*
X873500Y2309090D01*
X873890Y2304330D01*
X875070Y2300100D01*
X876650Y2296920D01*
X879010Y2294280D01*
X882160Y2293220D01*
X885310Y2294280D01*
X887670Y2296920D01*
X889250Y2300100D01*
X890430Y2304330D01*
X890820Y2309090D01*
X890430Y2313860D01*
X889250Y2318090D01*
X887670Y2321270D01*
X885310Y2323910D01*
X882160Y2324970D01*
G01X913650Y2292160D02*
X912860Y2292690D01*
Y2293750D01*
X913650Y2294280D01*
X914440Y2293750D01*
Y2292690D01*
X913650Y2292160D01*
G01X945140Y2324970D02*
X941990Y2323910D01*
X939630Y2321270D01*
X938050Y2318090D01*
X936870Y2313860D01*
X936480Y2309090D01*
X936870Y2304330D01*
X938050Y2300100D01*
X939630Y2296920D01*
X941990Y2294280D01*
X945140Y2293220D01*
X948290Y2294280D01*
X950650Y2296920D01*
X952230Y2300100D01*
X953410Y2304330D01*
X953800Y2309090D01*
X953410Y2313860D01*
X952230Y2318090D01*
X950650Y2321270D01*
X948290Y2323910D01*
X945140Y2324970D01*
G01X969540Y2292160D02*
X983720Y2324970D01*
G01X1003000Y2303800D02*
X1013240D01*
G01X1039610Y2324970D02*
X1036460Y2323910D01*
X1034100Y2321270D01*
X1032520Y2318090D01*
X1031340Y2313860D01*
X1030950Y2309090D01*
X1031340Y2304330D01*
X1032520Y2300100D01*
X1034100Y2296920D01*
X1036460Y2294280D01*
X1039610Y2293220D01*
X1042760Y2294280D01*
X1045120Y2296920D01*
X1046700Y2300100D01*
X1047880Y2304330D01*
X1048270Y2309090D01*
X1047880Y2313860D01*
X1046700Y2318090D01*
X1045120Y2321270D01*
X1042760Y2323910D01*
X1039610Y2324970D01*
G01X1071100Y2292160D02*
X1070310Y2292690D01*
Y2293750D01*
X1071100Y2294280D01*
X1071890Y2293750D01*
Y2292690D01*
X1071100Y2292160D01*
G01X1102590Y2324970D02*
X1099440Y2323910D01*
X1097080Y2321270D01*
X1095500Y2318090D01*
X1094320Y2313860D01*
X1093930Y2309090D01*
X1094320Y2304330D01*
X1095500Y2300100D01*
X1097080Y2296920D01*
X1099440Y2294280D01*
X1102590Y2293220D01*
X1105740Y2294280D01*
X1108100Y2296920D01*
X1109680Y2300100D01*
X1110860Y2304330D01*
X1111250Y2309090D01*
X1110860Y2313860D01*
X1109680Y2318090D01*
X1108100Y2321270D01*
X1105740Y2323910D01*
X1102590Y2324970D01*
G01X846340Y2375170D02*
X855790D01*
G01X850670Y2382050D02*
Y2368290D01*
G01X882160Y2396340D02*
X879010Y2395280D01*
X876650Y2392640D01*
X875070Y2389460D01*
X873890Y2385230D01*
X873500Y2380460D01*
X873890Y2375700D01*
X875070Y2371470D01*
X876650Y2368290D01*
X879010Y2365650D01*
X882160Y2364590D01*
X885310Y2365650D01*
X887670Y2368290D01*
X889250Y2371470D01*
X890430Y2375700D01*
X890820Y2380460D01*
X890430Y2385230D01*
X889250Y2389460D01*
X887670Y2392640D01*
X885310Y2395280D01*
X882160Y2396340D01*
G01X913650Y2363530D02*
X912860Y2364060D01*
Y2365120D01*
X913650Y2365650D01*
X914440Y2365120D01*
Y2364060D01*
X913650Y2363530D01*
G01X945140Y2396340D02*
X941990Y2395280D01*
X939630Y2392640D01*
X938050Y2389460D01*
X936870Y2385230D01*
X936480Y2380460D01*
X936870Y2375700D01*
X938050Y2371470D01*
X939630Y2368290D01*
X941990Y2365650D01*
X945140Y2364590D01*
X948290Y2365650D01*
X950650Y2368290D01*
X952230Y2371470D01*
X953410Y2375700D01*
X953800Y2380460D01*
X953410Y2385230D01*
X952230Y2389460D01*
X950650Y2392640D01*
X948290Y2395280D01*
X945140Y2396340D01*
G01X969540Y2363530D02*
X983720Y2396340D01*
G01X1003000Y2375170D02*
X1013240D01*
G01X1039610Y2396340D02*
X1036460Y2395280D01*
X1034100Y2392640D01*
X1032520Y2389460D01*
X1031340Y2385230D01*
X1030950Y2380460D01*
X1031340Y2375700D01*
X1032520Y2371470D01*
X1034100Y2368290D01*
X1036460Y2365650D01*
X1039610Y2364590D01*
X1042760Y2365650D01*
X1045120Y2368290D01*
X1046700Y2371470D01*
X1047880Y2375700D01*
X1048270Y2380460D01*
X1047880Y2385230D01*
X1046700Y2389460D01*
X1045120Y2392640D01*
X1042760Y2395280D01*
X1039610Y2396340D01*
G01X1071100Y2363530D02*
X1070310Y2364060D01*
Y2365120D01*
X1071100Y2365650D01*
X1071890Y2365120D01*
Y2364060D01*
X1071100Y2363530D01*
G01X1102590Y2396340D02*
X1099440Y2395280D01*
X1097080Y2392640D01*
X1095500Y2389460D01*
X1094320Y2385230D01*
X1093930Y2380460D01*
X1094320Y2375700D01*
X1095500Y2371470D01*
X1097080Y2368290D01*
X1099440Y2365650D01*
X1102590Y2364590D01*
X1105740Y2365650D01*
X1108100Y2368290D01*
X1109680Y2371470D01*
X1110860Y2375700D01*
X1111250Y2380460D01*
X1110860Y2385230D01*
X1109680Y2389460D01*
X1108100Y2392640D01*
X1105740Y2395280D01*
X1102590Y2396340D01*
G01X846340Y2446540D02*
X855790D01*
G01X850670Y2453420D02*
Y2439660D01*
G01X882160Y2467710D02*
X879010Y2466650D01*
X876650Y2464010D01*
X875070Y2460830D01*
X873890Y2456600D01*
X873500Y2451830D01*
X873890Y2447070D01*
X875070Y2442840D01*
X876650Y2439660D01*
X879010Y2437020D01*
X882160Y2435960D01*
X885310Y2437020D01*
X887670Y2439660D01*
X889250Y2442840D01*
X890430Y2447070D01*
X890820Y2451830D01*
X890430Y2456600D01*
X889250Y2460830D01*
X887670Y2464010D01*
X885310Y2466650D01*
X882160Y2467710D01*
G01X913650Y2434900D02*
X912860Y2435430D01*
Y2436490D01*
X913650Y2437020D01*
X914440Y2436490D01*
Y2435430D01*
X913650Y2434900D01*
G01X945140Y2467710D02*
X941990Y2466650D01*
X939630Y2464010D01*
X938050Y2460830D01*
X936870Y2456600D01*
X936480Y2451830D01*
X936870Y2447070D01*
X938050Y2442840D01*
X939630Y2439660D01*
X941990Y2437020D01*
X945140Y2435960D01*
X948290Y2437020D01*
X950650Y2439660D01*
X952230Y2442840D01*
X953410Y2447070D01*
X953800Y2451830D01*
X953410Y2456600D01*
X952230Y2460830D01*
X950650Y2464010D01*
X948290Y2466650D01*
X945140Y2467710D01*
G01X969540Y2434900D02*
X983720Y2467710D01*
G01X1003000Y2446540D02*
X1013240D01*
G01X1039610Y2467710D02*
X1036460Y2466650D01*
X1034100Y2464010D01*
X1032520Y2460830D01*
X1031340Y2456600D01*
X1030950Y2451830D01*
X1031340Y2447070D01*
X1032520Y2442840D01*
X1034100Y2439660D01*
X1036460Y2437020D01*
X1039610Y2435960D01*
X1042760Y2437020D01*
X1045120Y2439660D01*
X1046700Y2442840D01*
X1047880Y2447070D01*
X1048270Y2451830D01*
X1047880Y2456600D01*
X1046700Y2460830D01*
X1045120Y2464010D01*
X1042760Y2466650D01*
X1039610Y2467710D01*
G01X1071100Y2434900D02*
X1070310Y2435430D01*
Y2436490D01*
X1071100Y2437020D01*
X1071890Y2436490D01*
Y2435430D01*
X1071100Y2434900D01*
G01X1102590Y2467710D02*
X1099440Y2466650D01*
X1097080Y2464010D01*
X1095500Y2460830D01*
X1094320Y2456600D01*
X1093930Y2451830D01*
X1094320Y2447070D01*
X1095500Y2442840D01*
X1097080Y2439660D01*
X1099440Y2437020D01*
X1102590Y2435960D01*
X1105740Y2437020D01*
X1108100Y2439660D01*
X1109680Y2442840D01*
X1110860Y2447070D01*
X1111250Y2451830D01*
X1110860Y2456600D01*
X1109680Y2460830D01*
X1108100Y2464010D01*
X1105740Y2466650D01*
X1102590Y2467710D01*
G01X846340Y2517910D02*
X855790D01*
G01X850670Y2524790D02*
Y2511030D01*
G01X882160Y2539080D02*
X879010Y2538020D01*
X876650Y2535380D01*
X875070Y2532200D01*
X873890Y2527970D01*
X873500Y2523200D01*
X873890Y2518440D01*
X875070Y2514210D01*
X876650Y2511030D01*
X879010Y2508390D01*
X882160Y2507330D01*
X885310Y2508390D01*
X887670Y2511030D01*
X889250Y2514210D01*
X890430Y2518440D01*
X890820Y2523200D01*
X890430Y2527970D01*
X889250Y2532200D01*
X887670Y2535380D01*
X885310Y2538020D01*
X882160Y2539080D01*
G01X913650Y2506270D02*
X912860Y2506800D01*
Y2507860D01*
X913650Y2508390D01*
X914440Y2507860D01*
Y2506800D01*
X913650Y2506270D01*
G01X945140Y2539080D02*
X941990Y2538020D01*
X939630Y2535380D01*
X938050Y2532200D01*
X936870Y2527970D01*
X936480Y2523200D01*
X936870Y2518440D01*
X938050Y2514210D01*
X939630Y2511030D01*
X941990Y2508390D01*
X945140Y2507330D01*
X948290Y2508390D01*
X950650Y2511030D01*
X952230Y2514210D01*
X953410Y2518440D01*
X953800Y2523200D01*
X953410Y2527970D01*
X952230Y2532200D01*
X950650Y2535380D01*
X948290Y2538020D01*
X945140Y2539080D01*
G01X969540Y2506270D02*
X983720Y2539080D01*
G01X1003000Y2517910D02*
X1013240D01*
G01X1039610Y2539080D02*
X1036460Y2538020D01*
X1034100Y2535380D01*
X1032520Y2532200D01*
X1031340Y2527970D01*
X1030950Y2523200D01*
X1031340Y2518440D01*
X1032520Y2514210D01*
X1034100Y2511030D01*
X1036460Y2508390D01*
X1039610Y2507330D01*
X1042760Y2508390D01*
X1045120Y2511030D01*
X1046700Y2514210D01*
X1047880Y2518440D01*
X1048270Y2523200D01*
X1047880Y2527970D01*
X1046700Y2532200D01*
X1045120Y2535380D01*
X1042760Y2538020D01*
X1039610Y2539080D01*
G01X1071100Y2506270D02*
X1070310Y2506800D01*
Y2507860D01*
X1071100Y2508390D01*
X1071890Y2507860D01*
Y2506800D01*
X1071100Y2506270D01*
G01X1102590Y2539080D02*
X1099440Y2538020D01*
X1097080Y2535380D01*
X1095500Y2532200D01*
X1094320Y2527970D01*
X1093930Y2523200D01*
X1094320Y2518440D01*
X1095500Y2514210D01*
X1097080Y2511030D01*
X1099440Y2508390D01*
X1102590Y2507330D01*
X1105740Y2508390D01*
X1108100Y2511030D01*
X1109680Y2514210D01*
X1110860Y2518440D01*
X1111250Y2523200D01*
X1110860Y2527970D01*
X1109680Y2532200D01*
X1108100Y2535380D01*
X1105740Y2538020D01*
X1102590Y2539080D01*
G01X846340Y2589280D02*
X855790D01*
G01X850670Y2596160D02*
Y2582400D01*
G01X882160Y2610450D02*
X879010Y2609390D01*
X876650Y2606750D01*
X875070Y2603570D01*
X873890Y2599340D01*
X873500Y2594570D01*
X873890Y2589810D01*
X875070Y2585580D01*
X876650Y2582400D01*
X879010Y2579760D01*
X882160Y2578700D01*
X885310Y2579760D01*
X887670Y2582400D01*
X889250Y2585580D01*
X890430Y2589810D01*
X890820Y2594570D01*
X890430Y2599340D01*
X889250Y2603570D01*
X887670Y2606750D01*
X885310Y2609390D01*
X882160Y2610450D01*
G01X913650Y2577640D02*
X912860Y2578170D01*
Y2579230D01*
X913650Y2579760D01*
X914440Y2579230D01*
Y2578170D01*
X913650Y2577640D01*
G01X945140Y2610450D02*
X941990Y2609390D01*
X939630Y2606750D01*
X938050Y2603570D01*
X936870Y2599340D01*
X936480Y2594570D01*
X936870Y2589810D01*
X938050Y2585580D01*
X939630Y2582400D01*
X941990Y2579760D01*
X945140Y2578700D01*
X948290Y2579760D01*
X950650Y2582400D01*
X952230Y2585580D01*
X953410Y2589810D01*
X953800Y2594570D01*
X953410Y2599340D01*
X952230Y2603570D01*
X950650Y2606750D01*
X948290Y2609390D01*
X945140Y2610450D01*
G01X969540Y2577640D02*
X983720Y2610450D01*
G01X1003000Y2589280D02*
X1013240D01*
G01X1039610Y2610450D02*
X1036460Y2609390D01*
X1034100Y2606750D01*
X1032520Y2603570D01*
X1031340Y2599340D01*
X1030950Y2594570D01*
X1031340Y2589810D01*
X1032520Y2585580D01*
X1034100Y2582400D01*
X1036460Y2579760D01*
X1039610Y2578700D01*
X1042760Y2579760D01*
X1045120Y2582400D01*
X1046700Y2585580D01*
X1047880Y2589810D01*
X1048270Y2594570D01*
X1047880Y2599340D01*
X1046700Y2603570D01*
X1045120Y2606750D01*
X1042760Y2609390D01*
X1039610Y2610450D01*
G01X1071100Y2577640D02*
X1070310Y2578170D01*
Y2579230D01*
X1071100Y2579760D01*
X1071890Y2579230D01*
Y2578170D01*
X1071100Y2577640D01*
G01X1102590Y2610450D02*
X1099440Y2609390D01*
X1097080Y2606750D01*
X1095500Y2603570D01*
X1094320Y2599340D01*
X1093930Y2594570D01*
X1094320Y2589810D01*
X1095500Y2585580D01*
X1097080Y2582400D01*
X1099440Y2579760D01*
X1102590Y2578700D01*
X1105740Y2579760D01*
X1108100Y2582400D01*
X1109680Y2585580D01*
X1110860Y2589810D01*
X1111250Y2594570D01*
X1110860Y2599340D01*
X1109680Y2603570D01*
X1108100Y2606750D01*
X1105740Y2609390D01*
X1102590Y2610450D01*
G01X850670Y2685750D02*
Y2654000D01*
G01X841620Y2685750D02*
X859720D01*
G01X882160Y2654000D02*
X879010Y2654530D01*
X876260Y2656650D01*
X873890Y2659820D01*
X872320Y2663520D01*
X871530Y2667760D01*
Y2671990D01*
X872320Y2676230D01*
X873890Y2679930D01*
X876260Y2683100D01*
X879010Y2685220D01*
X882160Y2685750D01*
X885310Y2685220D01*
X888060Y2683100D01*
X890430Y2679930D01*
X892000Y2676230D01*
X892790Y2671990D01*
Y2667760D01*
X892000Y2663520D01*
X890430Y2659820D01*
X888060Y2656650D01*
X885310Y2654530D01*
X882160Y2654000D01*
G01X905780Y2685750D02*
Y2654000D01*
X921520D01*
G01X953010D02*
X937270D01*
Y2685750D01*
X953010D01*
G01X946710Y2670400D02*
X937270D01*
G01X968760Y2654000D02*
Y2685750D01*
X978600D01*
X981750Y2684160D01*
X983720Y2682050D01*
X984500Y2677810D01*
X983720Y2673580D01*
X981350Y2670930D01*
X978600Y2669350D01*
X968760D01*
G01X978600D02*
X984500Y2654000D01*
G01X998280D02*
X1008120Y2685750D01*
X1017960Y2654000D01*
G01X1014420Y2665110D02*
X1001820D01*
G01X1030560Y2654000D02*
Y2685750D01*
X1048660Y2654000D01*
Y2685750D01*
G01X1079760Y2683100D02*
X1077400Y2684690D01*
X1074640Y2685750D01*
X1071490D01*
X1067950Y2684160D01*
X1065200Y2681520D01*
X1063230Y2678340D01*
X1061650Y2673050D01*
X1061260Y2668290D01*
X1062050Y2663520D01*
X1063230Y2660350D01*
X1065590Y2657170D01*
X1068340Y2655060D01*
X1071100Y2654000D01*
X1073860D01*
X1076610Y2655060D01*
X1078970Y2656650D01*
X1080940Y2658760D01*
G01X1110460Y2654000D02*
X1094720D01*
Y2685750D01*
X1110460D01*
G01X1104160Y2670400D02*
X1094720D01*
G01X1227360Y1508150D02*
Y1539900D01*
X1245460Y1508150D01*
Y1539900D01*
G01X1267900Y1508150D02*
X1264750Y1508680D01*
X1262000Y1510800D01*
X1259630Y1513970D01*
X1258060Y1517670D01*
X1257270Y1521910D01*
Y1526140D01*
X1258060Y1530380D01*
X1259630Y1534080D01*
X1262000Y1537250D01*
X1264750Y1539370D01*
X1267900Y1539900D01*
X1271050Y1539370D01*
X1273800Y1537250D01*
X1276170Y1534080D01*
X1277740Y1530380D01*
X1278530Y1526140D01*
Y1521910D01*
X1277740Y1517670D01*
X1276170Y1513970D01*
X1273800Y1510800D01*
X1271050Y1508680D01*
X1267900Y1508150D01*
G01X1290340D02*
Y1539900D01*
X1308440Y1508150D01*
Y1539900D01*
G01X1325760Y1518730D02*
X1336000D01*
G01X1354500Y1508150D02*
Y1539900D01*
X1363940D01*
X1367090Y1538310D01*
X1369460Y1534610D01*
X1370240Y1530380D01*
X1369460Y1526140D01*
X1367490Y1522970D01*
X1363940Y1521380D01*
X1354500D01*
G01X1385990Y1539900D02*
Y1508150D01*
X1401730D01*
G01X1415510D02*
X1425350Y1539900D01*
X1435190Y1508150D01*
G01X1431650Y1519260D02*
X1419050D01*
G01X1456840Y1539900D02*
Y1508150D01*
G01X1447790Y1539900D02*
X1465890D01*
G01X1496200Y1508150D02*
X1480460D01*
Y1539900D01*
X1496200D01*
G01X1489900Y1524550D02*
X1480460D01*
G01X1511160Y1508150D02*
Y1539900D01*
X1519030D01*
X1522180Y1538310D01*
X1524540Y1536200D01*
X1526510Y1533020D01*
X1528090Y1529320D01*
X1528480Y1524020D01*
X1528090Y1518730D01*
X1526510Y1515030D01*
X1524540Y1511850D01*
X1522180Y1509740D01*
X1519030Y1508150D01*
X1511160D01*
G01X1227360Y1579520D02*
Y1611270D01*
X1245460Y1579520D01*
Y1611270D01*
G01X1267900Y1579520D02*
X1264750Y1580050D01*
X1262000Y1582170D01*
X1259630Y1585340D01*
X1258060Y1589040D01*
X1257270Y1593280D01*
Y1597510D01*
X1258060Y1601750D01*
X1259630Y1605450D01*
X1262000Y1608620D01*
X1264750Y1610740D01*
X1267900Y1611270D01*
X1271050Y1610740D01*
X1273800Y1608620D01*
X1276170Y1605450D01*
X1277740Y1601750D01*
X1278530Y1597510D01*
Y1593280D01*
X1277740Y1589040D01*
X1276170Y1585340D01*
X1273800Y1582170D01*
X1271050Y1580050D01*
X1267900Y1579520D01*
G01X1290340D02*
Y1611270D01*
X1308440Y1579520D01*
Y1611270D01*
G01X1325760Y1590100D02*
X1336000D01*
G01X1354500Y1579520D02*
Y1611270D01*
X1363940D01*
X1367090Y1609680D01*
X1369460Y1605980D01*
X1370240Y1601750D01*
X1369460Y1597510D01*
X1367490Y1594340D01*
X1363940Y1592750D01*
X1354500D01*
G01X1385990Y1611270D02*
Y1579520D01*
X1401730D01*
G01X1415510D02*
X1425350Y1611270D01*
X1435190Y1579520D01*
G01X1431650Y1590630D02*
X1419050D01*
G01X1456840Y1611270D02*
Y1579520D01*
G01X1447790Y1611270D02*
X1465890D01*
G01X1496200Y1579520D02*
X1480460D01*
Y1611270D01*
X1496200D01*
G01X1489900Y1595920D02*
X1480460D01*
G01X1511160Y1579520D02*
Y1611270D01*
X1519030D01*
X1522180Y1609680D01*
X1524540Y1607570D01*
X1526510Y1604390D01*
X1528090Y1600690D01*
X1528480Y1595390D01*
X1528090Y1590100D01*
X1526510Y1586400D01*
X1524540Y1583220D01*
X1522180Y1581110D01*
X1519030Y1579520D01*
X1511160D01*
G01X1227360Y1650890D02*
Y1682640D01*
X1245460Y1650890D01*
Y1682640D01*
G01X1267900Y1650890D02*
X1264750Y1651420D01*
X1262000Y1653540D01*
X1259630Y1656710D01*
X1258060Y1660410D01*
X1257270Y1664650D01*
Y1668880D01*
X1258060Y1673120D01*
X1259630Y1676820D01*
X1262000Y1679990D01*
X1264750Y1682110D01*
X1267900Y1682640D01*
X1271050Y1682110D01*
X1273800Y1679990D01*
X1276170Y1676820D01*
X1277740Y1673120D01*
X1278530Y1668880D01*
Y1664650D01*
X1277740Y1660410D01*
X1276170Y1656710D01*
X1273800Y1653540D01*
X1271050Y1651420D01*
X1267900Y1650890D01*
G01X1290340D02*
Y1682640D01*
X1308440Y1650890D01*
Y1682640D01*
G01X1325760Y1661470D02*
X1336000D01*
G01X1354500Y1650890D02*
Y1682640D01*
X1363940D01*
X1367090Y1681050D01*
X1369460Y1677350D01*
X1370240Y1673120D01*
X1369460Y1668880D01*
X1367490Y1665710D01*
X1363940Y1664120D01*
X1354500D01*
G01X1385990Y1682640D02*
Y1650890D01*
X1401730D01*
G01X1415510D02*
X1425350Y1682640D01*
X1435190Y1650890D01*
G01X1431650Y1662000D02*
X1419050D01*
G01X1456840Y1682640D02*
Y1650890D01*
G01X1447790Y1682640D02*
X1465890D01*
G01X1496200Y1650890D02*
X1480460D01*
Y1682640D01*
X1496200D01*
G01X1489900Y1667290D02*
X1480460D01*
G01X1511160Y1650890D02*
Y1682640D01*
X1519030D01*
X1522180Y1681050D01*
X1524540Y1678940D01*
X1526510Y1675760D01*
X1528090Y1672060D01*
X1528480Y1666760D01*
X1528090Y1661470D01*
X1526510Y1657770D01*
X1524540Y1654590D01*
X1522180Y1652480D01*
X1519030Y1650890D01*
X1511160D01*
G01X1227360Y1722260D02*
Y1754010D01*
X1245460Y1722260D01*
Y1754010D01*
G01X1267900Y1722260D02*
X1264750Y1722790D01*
X1262000Y1724910D01*
X1259630Y1728080D01*
X1258060Y1731780D01*
X1257270Y1736020D01*
Y1740250D01*
X1258060Y1744490D01*
X1259630Y1748190D01*
X1262000Y1751360D01*
X1264750Y1753480D01*
X1267900Y1754010D01*
X1271050Y1753480D01*
X1273800Y1751360D01*
X1276170Y1748190D01*
X1277740Y1744490D01*
X1278530Y1740250D01*
Y1736020D01*
X1277740Y1731780D01*
X1276170Y1728080D01*
X1273800Y1724910D01*
X1271050Y1722790D01*
X1267900Y1722260D01*
G01X1290340D02*
Y1754010D01*
X1308440Y1722260D01*
Y1754010D01*
G01X1325760Y1732840D02*
X1336000D01*
G01X1354500Y1722260D02*
Y1754010D01*
X1363940D01*
X1367090Y1752420D01*
X1369460Y1748720D01*
X1370240Y1744490D01*
X1369460Y1740250D01*
X1367490Y1737080D01*
X1363940Y1735490D01*
X1354500D01*
G01X1385990Y1754010D02*
Y1722260D01*
X1401730D01*
G01X1415510D02*
X1425350Y1754010D01*
X1435190Y1722260D01*
G01X1431650Y1733370D02*
X1419050D01*
G01X1456840Y1754010D02*
Y1722260D01*
G01X1447790Y1754010D02*
X1465890D01*
G01X1496200Y1722260D02*
X1480460D01*
Y1754010D01*
X1496200D01*
G01X1489900Y1738660D02*
X1480460D01*
G01X1511160Y1722260D02*
Y1754010D01*
X1519030D01*
X1522180Y1752420D01*
X1524540Y1750310D01*
X1526510Y1747130D01*
X1528090Y1743430D01*
X1528480Y1738130D01*
X1528090Y1732840D01*
X1526510Y1729140D01*
X1524540Y1725960D01*
X1522180Y1723850D01*
X1519030Y1722260D01*
X1511160D01*
G01X1291520Y1294040D02*
Y1325790D01*
X1300960D01*
X1304110Y1324200D01*
X1306480Y1320500D01*
X1307260Y1316270D01*
X1306480Y1312030D01*
X1304510Y1308860D01*
X1300960Y1307270D01*
X1291520D01*
G01X1323010Y1325790D02*
Y1294040D01*
X1338750D01*
G01X1352530D02*
X1362370Y1325790D01*
X1372210Y1294040D01*
G01X1368670Y1305150D02*
X1356070D01*
G01X1393860Y1325790D02*
Y1294040D01*
G01X1384810Y1325790D02*
X1402910D01*
G01X1433220Y1294040D02*
X1417480D01*
Y1325790D01*
X1433220D01*
G01X1426920Y1310440D02*
X1417480D01*
G01X1448180Y1294040D02*
Y1325790D01*
X1456050D01*
X1459200Y1324200D01*
X1461560Y1322090D01*
X1463530Y1318910D01*
X1465110Y1315210D01*
X1465500Y1309910D01*
X1465110Y1304620D01*
X1463530Y1300920D01*
X1461560Y1297740D01*
X1459200Y1295630D01*
X1456050Y1294040D01*
X1448180D01*
G01X1291520Y1365410D02*
Y1397160D01*
X1300960D01*
X1304110Y1395570D01*
X1306480Y1391870D01*
X1307260Y1387640D01*
X1306480Y1383400D01*
X1304510Y1380230D01*
X1300960Y1378640D01*
X1291520D01*
G01X1323010Y1397160D02*
Y1365410D01*
X1338750D01*
G01X1352530D02*
X1362370Y1397160D01*
X1372210Y1365410D01*
G01X1368670Y1376520D02*
X1356070D01*
G01X1393860Y1397160D02*
Y1365410D01*
G01X1384810Y1397160D02*
X1402910D01*
G01X1433220Y1365410D02*
X1417480D01*
Y1397160D01*
X1433220D01*
G01X1426920Y1381810D02*
X1417480D01*
G01X1448180Y1365410D02*
Y1397160D01*
X1456050D01*
X1459200Y1395570D01*
X1461560Y1393460D01*
X1463530Y1390280D01*
X1465110Y1386580D01*
X1465500Y1381280D01*
X1465110Y1375990D01*
X1463530Y1372290D01*
X1461560Y1369110D01*
X1459200Y1367000D01*
X1456050Y1365410D01*
X1448180D01*
G01X1291520Y1436780D02*
Y1468530D01*
X1300960D01*
X1304110Y1466940D01*
X1306480Y1463240D01*
X1307260Y1459010D01*
X1306480Y1454770D01*
X1304510Y1451600D01*
X1300960Y1450010D01*
X1291520D01*
G01X1323010Y1468530D02*
Y1436780D01*
X1338750D01*
G01X1352530D02*
X1362370Y1468530D01*
X1372210Y1436780D01*
G01X1368670Y1447890D02*
X1356070D01*
G01X1393860Y1468530D02*
Y1436780D01*
G01X1384810Y1468530D02*
X1402910D01*
G01X1433220Y1436780D02*
X1417480D01*
Y1468530D01*
X1433220D01*
G01X1426920Y1453180D02*
X1417480D01*
G01X1448180Y1436780D02*
Y1468530D01*
X1456050D01*
X1459200Y1466940D01*
X1461560Y1464830D01*
X1463530Y1461650D01*
X1465110Y1457950D01*
X1465500Y1452650D01*
X1465110Y1447360D01*
X1463530Y1443660D01*
X1461560Y1440480D01*
X1459200Y1438370D01*
X1456050Y1436780D01*
X1448180D01*
G01X1291520Y1793630D02*
Y1825380D01*
X1300960D01*
X1304110Y1823790D01*
X1306480Y1820090D01*
X1307260Y1815860D01*
X1306480Y1811620D01*
X1304510Y1808450D01*
X1300960Y1806860D01*
X1291520D01*
G01X1323010Y1825380D02*
Y1793630D01*
X1338750D01*
G01X1352530D02*
X1362370Y1825380D01*
X1372210Y1793630D01*
G01X1368670Y1804740D02*
X1356070D01*
G01X1393860Y1825380D02*
Y1793630D01*
G01X1384810Y1825380D02*
X1402910D01*
G01X1433220Y1793630D02*
X1417480D01*
Y1825380D01*
X1433220D01*
G01X1426920Y1810030D02*
X1417480D01*
G01X1448180Y1793630D02*
Y1825380D01*
X1456050D01*
X1459200Y1823790D01*
X1461560Y1821680D01*
X1463530Y1818500D01*
X1465110Y1814800D01*
X1465500Y1809500D01*
X1465110Y1804210D01*
X1463530Y1800510D01*
X1461560Y1797330D01*
X1459200Y1795220D01*
X1456050Y1793630D01*
X1448180D01*
G01X1291520Y1865000D02*
Y1896750D01*
X1300960D01*
X1304110Y1895160D01*
X1306480Y1891460D01*
X1307260Y1887230D01*
X1306480Y1882990D01*
X1304510Y1879820D01*
X1300960Y1878230D01*
X1291520D01*
G01X1323010Y1896750D02*
Y1865000D01*
X1338750D01*
G01X1352530D02*
X1362370Y1896750D01*
X1372210Y1865000D01*
G01X1368670Y1876110D02*
X1356070D01*
G01X1393860Y1896750D02*
Y1865000D01*
G01X1384810Y1896750D02*
X1402910D01*
G01X1433220Y1865000D02*
X1417480D01*
Y1896750D01*
X1433220D01*
G01X1426920Y1881400D02*
X1417480D01*
G01X1448180Y1865000D02*
Y1896750D01*
X1456050D01*
X1459200Y1895160D01*
X1461560Y1893050D01*
X1463530Y1889870D01*
X1465110Y1886170D01*
X1465500Y1880870D01*
X1465110Y1875580D01*
X1463530Y1871880D01*
X1461560Y1868700D01*
X1459200Y1866590D01*
X1456050Y1865000D01*
X1448180D01*
G01X1291520Y1936370D02*
Y1968120D01*
X1300960D01*
X1304110Y1966530D01*
X1306480Y1962830D01*
X1307260Y1958600D01*
X1306480Y1954360D01*
X1304510Y1951190D01*
X1300960Y1949600D01*
X1291520D01*
G01X1323010Y1968120D02*
Y1936370D01*
X1338750D01*
G01X1352530D02*
X1362370Y1968120D01*
X1372210Y1936370D01*
G01X1368670Y1947480D02*
X1356070D01*
G01X1393860Y1968120D02*
Y1936370D01*
G01X1384810Y1968120D02*
X1402910D01*
G01X1433220Y1936370D02*
X1417480D01*
Y1968120D01*
X1433220D01*
G01X1426920Y1952770D02*
X1417480D01*
G01X1448180Y1936370D02*
Y1968120D01*
X1456050D01*
X1459200Y1966530D01*
X1461560Y1964420D01*
X1463530Y1961240D01*
X1465110Y1957540D01*
X1465500Y1952240D01*
X1465110Y1946950D01*
X1463530Y1943250D01*
X1461560Y1940070D01*
X1459200Y1937960D01*
X1456050Y1936370D01*
X1448180D01*
G01X1291520Y2007740D02*
Y2039490D01*
X1300960D01*
X1304110Y2037900D01*
X1306480Y2034200D01*
X1307260Y2029970D01*
X1306480Y2025730D01*
X1304510Y2022560D01*
X1300960Y2020970D01*
X1291520D01*
G01X1323010Y2039490D02*
Y2007740D01*
X1338750D01*
G01X1352530D02*
X1362370Y2039490D01*
X1372210Y2007740D01*
G01X1368670Y2018850D02*
X1356070D01*
G01X1393860Y2039490D02*
Y2007740D01*
G01X1384810Y2039490D02*
X1402910D01*
G01X1433220Y2007740D02*
X1417480D01*
Y2039490D01*
X1433220D01*
G01X1426920Y2024140D02*
X1417480D01*
G01X1448180Y2007740D02*
Y2039490D01*
X1456050D01*
X1459200Y2037900D01*
X1461560Y2035790D01*
X1463530Y2032610D01*
X1465110Y2028910D01*
X1465500Y2023610D01*
X1465110Y2018320D01*
X1463530Y2014620D01*
X1461560Y2011440D01*
X1459200Y2009330D01*
X1456050Y2007740D01*
X1448180D01*
G01X1291520Y2079110D02*
Y2110860D01*
X1300960D01*
X1304110Y2109270D01*
X1306480Y2105570D01*
X1307260Y2101340D01*
X1306480Y2097100D01*
X1304510Y2093930D01*
X1300960Y2092340D01*
X1291520D01*
G01X1323010Y2110860D02*
Y2079110D01*
X1338750D01*
G01X1352530D02*
X1362370Y2110860D01*
X1372210Y2079110D01*
G01X1368670Y2090220D02*
X1356070D01*
G01X1393860Y2110860D02*
Y2079110D01*
G01X1384810Y2110860D02*
X1402910D01*
G01X1433220Y2079110D02*
X1417480D01*
Y2110860D01*
X1433220D01*
G01X1426920Y2095510D02*
X1417480D01*
G01X1448180Y2079110D02*
Y2110860D01*
X1456050D01*
X1459200Y2109270D01*
X1461560Y2107160D01*
X1463530Y2103980D01*
X1465110Y2100280D01*
X1465500Y2094980D01*
X1465110Y2089690D01*
X1463530Y2085990D01*
X1461560Y2082810D01*
X1459200Y2080700D01*
X1456050Y2079110D01*
X1448180D01*
G01X1291520Y2150480D02*
Y2182230D01*
X1300960D01*
X1304110Y2180640D01*
X1306480Y2176940D01*
X1307260Y2172710D01*
X1306480Y2168470D01*
X1304510Y2165300D01*
X1300960Y2163710D01*
X1291520D01*
G01X1323010Y2182230D02*
Y2150480D01*
X1338750D01*
G01X1352530D02*
X1362370Y2182230D01*
X1372210Y2150480D01*
G01X1368670Y2161590D02*
X1356070D01*
G01X1393860Y2182230D02*
Y2150480D01*
G01X1384810Y2182230D02*
X1402910D01*
G01X1433220Y2150480D02*
X1417480D01*
Y2182230D01*
X1433220D01*
G01X1426920Y2166880D02*
X1417480D01*
G01X1448180Y2150480D02*
Y2182230D01*
X1456050D01*
X1459200Y2180640D01*
X1461560Y2178530D01*
X1463530Y2175350D01*
X1465110Y2171650D01*
X1465500Y2166350D01*
X1465110Y2161060D01*
X1463530Y2157360D01*
X1461560Y2154180D01*
X1459200Y2152070D01*
X1456050Y2150480D01*
X1448180D01*
G01X1291520Y2221850D02*
Y2253600D01*
X1300960D01*
X1304110Y2252010D01*
X1306480Y2248310D01*
X1307260Y2244080D01*
X1306480Y2239840D01*
X1304510Y2236670D01*
X1300960Y2235080D01*
X1291520D01*
G01X1323010Y2253600D02*
Y2221850D01*
X1338750D01*
G01X1352530D02*
X1362370Y2253600D01*
X1372210Y2221850D01*
G01X1368670Y2232960D02*
X1356070D01*
G01X1393860Y2253600D02*
Y2221850D01*
G01X1384810Y2253600D02*
X1402910D01*
G01X1433220Y2221850D02*
X1417480D01*
Y2253600D01*
X1433220D01*
G01X1426920Y2238250D02*
X1417480D01*
G01X1448180Y2221850D02*
Y2253600D01*
X1456050D01*
X1459200Y2252010D01*
X1461560Y2249900D01*
X1463530Y2246720D01*
X1465110Y2243020D01*
X1465500Y2237720D01*
X1465110Y2232430D01*
X1463530Y2228730D01*
X1461560Y2225550D01*
X1459200Y2223440D01*
X1456050Y2221850D01*
X1448180D01*
G01X1291520Y2293220D02*
Y2324970D01*
X1300960D01*
X1304110Y2323380D01*
X1306480Y2319680D01*
X1307260Y2315450D01*
X1306480Y2311210D01*
X1304510Y2308040D01*
X1300960Y2306450D01*
X1291520D01*
G01X1323010Y2324970D02*
Y2293220D01*
X1338750D01*
G01X1352530D02*
X1362370Y2324970D01*
X1372210Y2293220D01*
G01X1368670Y2304330D02*
X1356070D01*
G01X1393860Y2324970D02*
Y2293220D01*
G01X1384810Y2324970D02*
X1402910D01*
G01X1433220Y2293220D02*
X1417480D01*
Y2324970D01*
X1433220D01*
G01X1426920Y2309620D02*
X1417480D01*
G01X1448180Y2293220D02*
Y2324970D01*
X1456050D01*
X1459200Y2323380D01*
X1461560Y2321270D01*
X1463530Y2318090D01*
X1465110Y2314390D01*
X1465500Y2309090D01*
X1465110Y2303800D01*
X1463530Y2300100D01*
X1461560Y2296920D01*
X1459200Y2294810D01*
X1456050Y2293220D01*
X1448180D01*
G01X1291520Y2364590D02*
Y2396340D01*
X1300960D01*
X1304110Y2394750D01*
X1306480Y2391050D01*
X1307260Y2386820D01*
X1306480Y2382580D01*
X1304510Y2379410D01*
X1300960Y2377820D01*
X1291520D01*
G01X1323010Y2396340D02*
Y2364590D01*
X1338750D01*
G01X1352530D02*
X1362370Y2396340D01*
X1372210Y2364590D01*
G01X1368670Y2375700D02*
X1356070D01*
G01X1393860Y2396340D02*
Y2364590D01*
G01X1384810Y2396340D02*
X1402910D01*
G01X1433220Y2364590D02*
X1417480D01*
Y2396340D01*
X1433220D01*
G01X1426920Y2380990D02*
X1417480D01*
G01X1448180Y2364590D02*
Y2396340D01*
X1456050D01*
X1459200Y2394750D01*
X1461560Y2392640D01*
X1463530Y2389460D01*
X1465110Y2385760D01*
X1465500Y2380460D01*
X1465110Y2375170D01*
X1463530Y2371470D01*
X1461560Y2368290D01*
X1459200Y2366180D01*
X1456050Y2364590D01*
X1448180D01*
G01X1291520Y2435960D02*
Y2467710D01*
X1300960D01*
X1304110Y2466120D01*
X1306480Y2462420D01*
X1307260Y2458190D01*
X1306480Y2453950D01*
X1304510Y2450780D01*
X1300960Y2449190D01*
X1291520D01*
G01X1323010Y2467710D02*
Y2435960D01*
X1338750D01*
G01X1352530D02*
X1362370Y2467710D01*
X1372210Y2435960D01*
G01X1368670Y2447070D02*
X1356070D01*
G01X1393860Y2467710D02*
Y2435960D01*
G01X1384810Y2467710D02*
X1402910D01*
G01X1433220Y2435960D02*
X1417480D01*
Y2467710D01*
X1433220D01*
G01X1426920Y2452360D02*
X1417480D01*
G01X1448180Y2435960D02*
Y2467710D01*
X1456050D01*
X1459200Y2466120D01*
X1461560Y2464010D01*
X1463530Y2460830D01*
X1465110Y2457130D01*
X1465500Y2451830D01*
X1465110Y2446540D01*
X1463530Y2442840D01*
X1461560Y2439660D01*
X1459200Y2437550D01*
X1456050Y2435960D01*
X1448180D01*
G01X1291520Y2507330D02*
Y2539080D01*
X1300960D01*
X1304110Y2537490D01*
X1306480Y2533790D01*
X1307260Y2529560D01*
X1306480Y2525320D01*
X1304510Y2522150D01*
X1300960Y2520560D01*
X1291520D01*
G01X1323010Y2539080D02*
Y2507330D01*
X1338750D01*
G01X1352530D02*
X1362370Y2539080D01*
X1372210Y2507330D01*
G01X1368670Y2518440D02*
X1356070D01*
G01X1393860Y2539080D02*
Y2507330D01*
G01X1384810Y2539080D02*
X1402910D01*
G01X1433220Y2507330D02*
X1417480D01*
Y2539080D01*
X1433220D01*
G01X1426920Y2523730D02*
X1417480D01*
G01X1448180Y2507330D02*
Y2539080D01*
X1456050D01*
X1459200Y2537490D01*
X1461560Y2535380D01*
X1463530Y2532200D01*
X1465110Y2528500D01*
X1465500Y2523200D01*
X1465110Y2517910D01*
X1463530Y2514210D01*
X1461560Y2511030D01*
X1459200Y2508920D01*
X1456050Y2507330D01*
X1448180D01*
G01X1291520Y2578700D02*
Y2610450D01*
X1300960D01*
X1304110Y2608860D01*
X1306480Y2605160D01*
X1307260Y2600930D01*
X1306480Y2596690D01*
X1304510Y2593520D01*
X1300960Y2591930D01*
X1291520D01*
G01X1323010Y2610450D02*
Y2578700D01*
X1338750D01*
G01X1352530D02*
X1362370Y2610450D01*
X1372210Y2578700D01*
G01X1368670Y2589810D02*
X1356070D01*
G01X1393860Y2610450D02*
Y2578700D01*
G01X1384810Y2610450D02*
X1402910D01*
G01X1433220Y2578700D02*
X1417480D01*
Y2610450D01*
X1433220D01*
G01X1426920Y2595100D02*
X1417480D01*
G01X1448180Y2578700D02*
Y2610450D01*
X1456050D01*
X1459200Y2608860D01*
X1461560Y2606750D01*
X1463530Y2603570D01*
X1465110Y2599870D01*
X1465500Y2594570D01*
X1465110Y2589280D01*
X1463530Y2585580D01*
X1461560Y2582400D01*
X1459200Y2580290D01*
X1456050Y2578700D01*
X1448180D01*
G01X1291520Y2654000D02*
Y2685750D01*
X1300960D01*
X1304110Y2684160D01*
X1306480Y2680460D01*
X1307260Y2676230D01*
X1306480Y2671990D01*
X1304510Y2668820D01*
X1300960Y2667230D01*
X1291520D01*
G01X1323010Y2685750D02*
Y2654000D01*
X1338750D01*
G01X1352530D02*
X1362370Y2685750D01*
X1372210Y2654000D01*
G01X1368670Y2665110D02*
X1356070D01*
G01X1393860Y2685750D02*
Y2654000D01*
G01X1384810Y2685750D02*
X1402910D01*
G01X1433220Y2654000D02*
X1417480D01*
Y2685750D01*
X1433220D01*
G01X1426920Y2670400D02*
X1417480D01*
G01X1448180Y2654000D02*
Y2685750D01*
X1456050D01*
X1459200Y2684160D01*
X1461560Y2682050D01*
X1463530Y2678870D01*
X1465110Y2675170D01*
X1465500Y2669870D01*
X1465110Y2664580D01*
X1463530Y2660880D01*
X1461560Y2657700D01*
X1459200Y2655590D01*
X1456050Y2654000D01*
X1448180D01*
G01X1637920Y1294040D02*
Y1325790D01*
X1633200Y1319440D01*
G01Y1294040D02*
X1642640D01*
G01X1637920Y1365410D02*
Y1397160D01*
X1633200Y1390810D01*
G01Y1365410D02*
X1642640D01*
G01X1637920Y1436780D02*
Y1468530D01*
X1633200Y1462180D01*
G01Y1436780D02*
X1642640D01*
G01X1630440Y1534610D02*
X1632800Y1537780D01*
X1635560Y1539370D01*
X1638710Y1539900D01*
X1642640Y1538840D01*
X1645400Y1536200D01*
X1646190Y1533020D01*
X1645790Y1529850D01*
X1644220Y1527200D01*
X1636350Y1521910D01*
X1632800Y1518200D01*
X1630440Y1512910D01*
X1629650Y1508150D01*
X1646190D01*
G01X1642640Y1579520D02*
Y1611270D01*
X1628080Y1588520D01*
X1647760D01*
G01X1642640Y1650890D02*
Y1682640D01*
X1628080Y1659890D01*
X1647760D01*
G01X1642640Y1722260D02*
Y1754010D01*
X1628080Y1731260D01*
X1647760D01*
G01X1629260Y1798390D02*
X1631620Y1795750D01*
X1634380Y1794160D01*
X1637920Y1793630D01*
X1641460Y1794690D01*
X1644220Y1796800D01*
X1646190Y1800510D01*
X1646580Y1804740D01*
X1645790Y1808980D01*
X1643820Y1811620D01*
X1641070Y1813740D01*
X1638310Y1814270D01*
X1635560Y1813740D01*
X1632020Y1811620D01*
X1633200Y1825380D01*
X1643820D01*
G01X1642640Y1865000D02*
Y1896750D01*
X1628080Y1874000D01*
X1647760D01*
G01X1622170Y1936370D02*
Y1968120D01*
X1617450Y1961770D01*
G01Y1936370D02*
X1626890D01*
G01X1658380D02*
Y1968120D01*
X1643820Y1945370D01*
X1663500D01*
G01X1629260Y2012500D02*
X1631620Y2009860D01*
X1634380Y2008270D01*
X1637920Y2007740D01*
X1641460Y2008800D01*
X1644220Y2010910D01*
X1646190Y2014620D01*
X1646580Y2018850D01*
X1645790Y2023090D01*
X1643820Y2025730D01*
X1641070Y2027850D01*
X1638310Y2028380D01*
X1635560Y2027850D01*
X1632020Y2025730D01*
X1633200Y2039490D01*
X1643820D01*
G01X1637920Y2079110D02*
Y2110860D01*
X1633200Y2104510D01*
G01Y2079110D02*
X1642640D01*
G01X1630440Y2176940D02*
X1632800Y2180110D01*
X1635560Y2181700D01*
X1638710Y2182230D01*
X1642640Y2181170D01*
X1645400Y2178530D01*
X1646190Y2175350D01*
X1645790Y2172180D01*
X1644220Y2169530D01*
X1636350Y2164240D01*
X1632800Y2160530D01*
X1630440Y2155240D01*
X1629650Y2150480D01*
X1646190D01*
G01X1622170Y2221850D02*
Y2253600D01*
X1617450Y2247250D01*
G01Y2221850D02*
X1626890D01*
G01X1658380D02*
Y2253600D01*
X1643820Y2230850D01*
X1663500D01*
G01X1637920Y2293220D02*
X1640680Y2293750D01*
X1643820Y2295340D01*
X1645790Y2297980D01*
X1646580Y2301690D01*
X1645790Y2305390D01*
X1643430Y2308570D01*
X1639890Y2310150D01*
X1635950D01*
X1633590Y2311210D01*
X1631620Y2313860D01*
X1630830Y2317560D01*
X1632020Y2321270D01*
X1634770Y2323910D01*
X1637920Y2324970D01*
X1641070Y2323910D01*
X1643820Y2321270D01*
X1645010Y2317560D01*
X1644220Y2313860D01*
X1642250Y2311210D01*
X1639890Y2310150D01*
X1635950D01*
X1632410Y2308570D01*
X1630050Y2305390D01*
X1629260Y2301690D01*
X1630050Y2297980D01*
X1632020Y2295340D01*
X1635160Y2293750D01*
X1637920Y2293220D01*
G01X1642640Y2364590D02*
Y2396340D01*
X1628080Y2373590D01*
X1647760D01*
G01X1626890Y2435960D02*
Y2467710D01*
X1612330Y2444960D01*
X1632010D01*
G01X1653660Y2467710D02*
X1650510Y2466650D01*
X1648150Y2464010D01*
X1646570Y2460830D01*
X1645390Y2456600D01*
X1645000Y2451830D01*
X1645390Y2447070D01*
X1646570Y2442840D01*
X1648150Y2439660D01*
X1650510Y2437020D01*
X1653660Y2435960D01*
X1656810Y2437020D01*
X1659170Y2439660D01*
X1660750Y2442840D01*
X1661930Y2447070D01*
X1662320Y2451830D01*
X1661930Y2456600D01*
X1660750Y2460830D01*
X1659170Y2464010D01*
X1656810Y2466650D01*
X1653660Y2467710D01*
G01X1597770Y2513680D02*
X1600130Y2509980D01*
X1603280Y2507860D01*
X1606820Y2507330D01*
X1609970Y2507860D01*
X1613120Y2510500D01*
X1615090Y2513680D01*
X1615480Y2516850D01*
X1614700Y2520560D01*
X1611940Y2523200D01*
X1609190Y2524260D01*
X1605640D01*
G01X1609190D02*
X1611550Y2525850D01*
X1613520Y2528500D01*
X1614300Y2531670D01*
X1613520Y2534850D01*
X1611550Y2537490D01*
X1608000Y2539080D01*
X1604460Y2538550D01*
X1600920Y2536430D01*
G01X1637130Y2507330D02*
X1637920Y2514210D01*
X1639100Y2520030D01*
X1640680Y2525320D01*
X1642640Y2531140D01*
X1645790Y2539080D01*
X1630050D01*
G01X1661930Y2533790D02*
X1664290Y2536960D01*
X1667050Y2538550D01*
X1670200Y2539080D01*
X1674130Y2538020D01*
X1676890Y2535380D01*
X1677680Y2532200D01*
X1677280Y2529030D01*
X1675710Y2526380D01*
X1667840Y2521090D01*
X1664290Y2517380D01*
X1661930Y2512090D01*
X1661140Y2507330D01*
X1677680D01*
G01X1626890Y2578700D02*
Y2610450D01*
X1612330Y2587700D01*
X1632010D01*
G01X1645000Y2583460D02*
X1647360Y2580820D01*
X1650120Y2579230D01*
X1653660Y2578700D01*
X1657200Y2579760D01*
X1659960Y2581870D01*
X1661930Y2585580D01*
X1662320Y2589810D01*
X1661530Y2594050D01*
X1659560Y2596690D01*
X1656810Y2598810D01*
X1654050Y2599340D01*
X1651300Y2598810D01*
X1647760Y2596690D01*
X1648940Y2610450D01*
X1659560D01*
G01X1606430Y2654000D02*
X1603280Y2654530D01*
X1600530Y2656650D01*
X1598160Y2659820D01*
X1596590Y2663520D01*
X1595800Y2667760D01*
Y2671990D01*
X1596590Y2676230D01*
X1598160Y2679930D01*
X1600530Y2683100D01*
X1603280Y2685220D01*
X1606430Y2685750D01*
X1609580Y2685220D01*
X1612330Y2683100D01*
X1614700Y2679930D01*
X1616270Y2676230D01*
X1617060Y2671990D01*
Y2667760D01*
X1616270Y2663520D01*
X1614700Y2659820D01*
X1612330Y2656650D01*
X1609580Y2654530D01*
X1606430Y2654000D01*
G01X1609580Y2662470D02*
X1614300Y2654000D01*
G01X1637920Y2685750D02*
Y2654000D01*
G01X1628870Y2685750D02*
X1646970D01*
G01X1669410Y2654000D02*
Y2668290D01*
X1661540Y2685750D01*
G01X1677280D02*
X1669410Y2668290D01*
G54D22*
X142150Y1952240D03*
X785000Y60000D03*
X860000D03*
X915000D03*
X990000D03*
X1085000D03*
X1160000D03*
X1215000D03*
X1290000D03*
X1345000D03*
X1420000D03*
X1475000D03*
X1550000D03*
X1605000D03*
X1680000D03*
G54D13*
X73010Y989970D03*
X142150Y1452660D03*
G54D23*
Y2023620D03*
X355000Y1033000D03*
X405000D03*
X380000Y1058000D03*
X355000Y1083000D03*
X405000D03*
G54D14*
X97300Y50000D03*
X122700D03*
X142150Y2166360D03*
G54D24*
Y2094980D03*
X670000Y894000D03*
G54D15*
X120000Y960000D03*
X142150Y1309920D03*
G54D25*
Y2237720D03*
X845000Y30000D03*
X800000D03*
X930000D03*
X975000D03*
X1100000D03*
X1145000D03*
X1275000D03*
X1230000D03*
X1405000D03*
X1360000D03*
X1535000D03*
X1490000D03*
X1665000D03*
X1620000D03*
G54D16*
X120000Y1019940D03*
X142150Y1381280D03*
G54D17*
Y1524020D03*
X225000Y153000D03*
X435000D03*
G54D26*
X142150Y2309100D03*
X535000Y968900D03*
X560000D03*
X580000D03*
X605000D03*
X755000D03*
X780000D03*
X825000D03*
X800000D03*
G54D18*
X142150Y1595400D03*
X1257000Y1030000D03*
X1307000D03*
X1387000D03*
X1437000D03*
G54D27*
X142150Y2380460D03*
X230000Y1070000D03*
X255400D03*
X1534000Y1074000D03*
X1559400D03*
G54D19*
X142150Y1666760D03*
X959170Y1037950D03*
X1000830D03*
X1119170D03*
X1160830D03*
G54D28*
X142150Y2451840D03*
X1590000Y307400D03*
Y332800D03*
Y358200D03*
Y383600D03*
Y409000D03*
Y434400D03*
Y459800D03*
Y485200D03*
Y510600D03*
Y536000D03*
Y561400D03*
Y586800D03*
Y612200D03*
Y637600D03*
Y663000D03*
Y688400D03*
Y713800D03*
Y739200D03*
Y764600D03*
Y790000D03*
X1615400Y307400D03*
Y332800D03*
Y358200D03*
Y383600D03*
Y409000D03*
Y434400D03*
Y459800D03*
Y485200D03*
Y510600D03*
Y536000D03*
Y561400D03*
Y586800D03*
Y612200D03*
Y637600D03*
Y663000D03*
Y688400D03*
Y713800D03*
Y739200D03*
Y764600D03*
Y790000D03*
G54D29*
G01X28000Y1345600D02*
X1736320D01*
G01X28000Y1416970D02*
X1736320D01*
G01X28000Y1488340D02*
X1736320D01*
G01X28000Y1559710D02*
X1736320D01*
G01X28000Y1631080D02*
X1736320D01*
G01X28000Y1702450D02*
X1736320D01*
G01X28000Y1773820D02*
X1736320D01*
G01X28000Y1845190D02*
X1736320D01*
G01X28000Y1916560D02*
X1736320D01*
G01X28000Y1987930D02*
X1736320D01*
G01X28000Y2059300D02*
X1736320D01*
G01X28000Y2130670D02*
X1736320D01*
G01X28000Y2202040D02*
X1736320D01*
G01X28000Y2273410D02*
X1736320D01*
G01X28000Y2344780D02*
X1736320D01*
G01X28000Y2416150D02*
X1736320D01*
G01X28000Y2487520D02*
X1736320D01*
G01X28000Y2558890D02*
X1736320D01*
G01X28000Y2630260D02*
X1736320D01*
G01X28000Y2701630D02*
X1736320D01*
G01X28000Y2773000D02*
X1736320D01*
G01X256300Y2701630D02*
Y1274230D01*
G01X736520Y2701630D02*
Y1274230D01*
G01X1216740Y2701630D02*
Y1274230D01*
G01X1539510Y2701630D02*
Y1274230D01*
M02*
