G04 ================== begin FILE IDENTIFICATION RECORD ==================*
G04 Layout Name:  TKA13_DEV_REVB_01.brd*
G04 Film Name:    SMTOP*
G04 File Format:  Gerber RS274X*
G04 File Origin:  Cadence Allegro 16.3-p003*
G04 Origin Date:  Thu Jun 27 23:25:28 2013*
G04 *
G04 Layer:  PIN/SOLDERMASK_TOP*
G04 *
G04 Offset:    (0.000 0.000)*
G04 Mirror:    No*
G04 Mode:      Positive*
G04 Rotation:  0*
G04 FullContactRelief:  No*
G04 UndefLineWidth:     0.100*
G04 ================== end FILE IDENTIFICATION RECORD ====================*
%FSLAX34Y34*MOMM*%
%IR0*IPPOS*OFA0.00000B0.00000*MIA0B0*SFA1.00000B1.00000*%
%AMMACRO49*
4,1,40,-1.035,-.875,
1.035,-.875,
1.052365,-.873481,
1.069202,-.868969,
1.085,-.861603,
1.099279,-.851604,
1.111604,-.839279,
1.121603,-.825,
1.128969,-.809202,
1.133481,-.792365,
1.135,-.775,
1.135,.775,
1.133481,.792365,
1.128969,.809202,
1.121603,.825,
1.111604,.839279,
1.099279,.851604,
1.085,.861603,
1.069202,.868969,
1.052365,.873481,
1.035,.875,
-1.035,.875,
-1.052365,.873481,
-1.069202,.868969,
-1.085,.861603,
-1.099279,.851604,
-1.111604,.839279,
-1.121603,.825,
-1.128969,.809202,
-1.133481,.792365,
-1.135,.775,
-1.135,-.775,
-1.133481,-.792365,
-1.128969,-.809202,
-1.121603,-.825,
-1.111604,-.839279,
-1.099279,-.851604,
-1.085,-.861603,
-1.069202,-.868969,
-1.052365,-.873481,
-1.035,-.875,
0.0*
%
%ADD49MACRO49*%
%ADD51O,.5X1.2*%
%ADD47O,1.2X.5*%
%ADD23C,1.*%
%ADD38O,1.5X.8*%
%ADD37O,.8X1.5*%
%ADD66O,1.9X.6*%
%ADD10C,4.*%
%ADD43R,.402X1.402*%
%ADD41C,3.2*%
%ADD63O,2.05X.65*%
%ADD67C,1.6*%
%ADD61O,1.85X.5*%
%ADD54C,2.6*%
%ADD45C,1.7*%
%ADD32C,1.8*%
%ADD30R,.9X1.7*%
%ADD36C,1.9*%
%ADD16C,2.08*%
%ADD29C,1.524*%
%ADD68R,1.6X1.6*%
%ADD52R,4.5X4.5*%
%ADD33R,1.8X1.8*%
%ADD35R,.965X1.041*%
%ADD15R,2.08X2.08*%
%ADD13R,1.041X.965*%
%AMMACRO59*
4,1,44,.2,1.05,
-.2,1.05,
-.217365,1.048481,
-.234202,1.043969,
-.25,1.036603,
-.264279,1.026604,
-.276604,1.014279,
-.286603,1.,
-.293969,.984202,
-.298481,.967365,
-.3,.95,
-.3,.95,
-.3,-.95,
-.298481,-.967365,
-.293969,-.984202,
-.286603,-1.,
-.276604,-1.014279,
-.264279,-1.026604,
-.25,-1.036603,
-.234202,-1.043969,
-.217365,-1.048481,
-.2,-1.05,
-.2,-1.05,
.2,-1.05,
.217365,-1.048481,
.234202,-1.043969,
.25,-1.036603,
.264279,-1.026604,
.276604,-1.014279,
.286603,-1.,
.293969,-.984202,
.298481,-.967365,
.3,-.95,
.3,-.95,
.3,.95,
.298481,.967365,
.293969,.984202,
.286603,1.,
.276604,1.014279,
.264279,1.026604,
.25,1.036603,
.234202,1.043969,
.217365,1.048481,
.2,1.05,
.2,1.05,
0.0*
%
%ADD59MACRO59*%
%AMMACRO58*
4,1,40,1.2,1.15,
-1.2,1.15,
-1.217365,1.148481,
-1.234202,1.143969,
-1.25,1.136603,
-1.264279,1.126604,
-1.276604,1.114279,
-1.286603,1.1,
-1.293969,1.084202,
-1.298481,1.067365,
-1.3,1.05,
-1.3,-1.05,
-1.298481,-1.067365,
-1.293969,-1.084202,
-1.286603,-1.1,
-1.276604,-1.114279,
-1.264279,-1.126604,
-1.25,-1.136603,
-1.234202,-1.143969,
-1.217365,-1.148481,
-1.2,-1.15,
1.2,-1.15,
1.217365,-1.148481,
1.234202,-1.143969,
1.25,-1.136603,
1.264279,-1.126604,
1.276604,-1.114279,
1.286603,-1.1,
1.293969,-1.084202,
1.298481,-1.067365,
1.3,-1.05,
1.3,1.05,
1.298481,1.067365,
1.293969,1.084202,
1.286603,1.1,
1.276604,1.114279,
1.264279,1.126604,
1.25,1.136603,
1.234202,1.143969,
1.217365,1.148481,
1.2,1.15,
0.0*
%
%ADD58MACRO58*%
%AMMACRO40*
4,1,42,-1.25,.925,
-1.25,-.925,
-1.248474,-.94237,
-1.243956,-.959211,
-1.236581,-.975012,
-1.226575,-.989292,
-1.214241,-1.001618,
-1.199955,-1.011615,
-1.184149,-1.018979,
-1.167305,-1.023486,
-1.15,-1.025,
1.15,-1.025,
1.167365,-1.023481,
1.184202,-1.018969,
1.2,-1.011603,
1.214279,-1.001604,
1.226604,-.989279,
1.236603,-.975,
1.243969,-.959202,
1.248481,-.942365,
1.25,-.925,
1.25,-.925,
1.25,.925,
1.248474,.94237,
1.243956,.959211,
1.236581,.975012,
1.226575,.989292,
1.214241,1.001618,
1.199955,1.011615,
1.184149,1.018979,
1.167305,1.023486,
1.15,1.025,
-1.15,1.025,
-1.167365,1.023481,
-1.184202,1.018969,
-1.2,1.011603,
-1.214279,1.001604,
-1.226604,.989279,
-1.236603,.975,
-1.243969,.959202,
-1.248481,.942365,
-1.25,.925,
-1.25,.925,
0.0*
%
%ADD40MACRO40*%
%AMMACRO46*
4,1,40,-2.95,1.4,
-2.95,-1.4,
-2.948481,-1.417365,
-2.943969,-1.434202,
-2.936603,-1.45,
-2.926604,-1.464279,
-2.914279,-1.476604,
-2.9,-1.486603,
-2.884202,-1.493969,
-2.867365,-1.498481,
-2.85,-1.5,
2.85,-1.5,
2.867365,-1.498481,
2.884202,-1.493969,
2.9,-1.486603,
2.914279,-1.476604,
2.926604,-1.464279,
2.936603,-1.45,
2.943969,-1.434202,
2.948481,-1.417365,
2.95,-1.4,
2.95,1.4,
2.948481,1.417365,
2.943969,1.434202,
2.936603,1.45,
2.926604,1.464279,
2.914279,1.476604,
2.9,1.486603,
2.884202,1.493969,
2.867365,1.498481,
2.85,1.5,
-2.85,1.5,
-2.867365,1.498481,
-2.884202,1.493969,
-2.9,1.486603,
-2.914279,1.476604,
-2.926604,1.464279,
-2.936603,1.45,
-2.943969,1.434202,
-2.948481,1.417365,
-2.95,1.4,
0.0*
%
%ADD46MACRO46*%
%AMMACRO11*
4,1,6,-.074,.074,
-.074,-1.226,
-.926,-1.226,
-.926,1.226,
.926,1.226,
.926,.074,
-.074,.074,
0.0*
%
%ADD11MACRO11*%
%AMMACRO12*
4,1,6,-.074,1.226,
-.074,-.074,
.926,-.074,
.926,-1.226,
-.926,-1.226,
-.926,1.226,
-.074,1.226,
0.0*
%
%ADD12MACRO12*%
%AMMACRO56*
4,1,40,1.035,.875,
-1.035,.875,
-1.052365,.873481,
-1.069202,.868969,
-1.085,.861603,
-1.099279,.851604,
-1.111604,.839279,
-1.121603,.825,
-1.128969,.809202,
-1.133481,.792365,
-1.135,.775,
-1.135,-.775,
-1.133481,-.792365,
-1.128969,-.809202,
-1.121603,-.825,
-1.111604,-.839279,
-1.099279,-.851604,
-1.085,-.861603,
-1.069202,-.868969,
-1.052365,-.873481,
-1.035,-.875,
1.035,-.875,
1.052365,-.873481,
1.069202,-.868969,
1.085,-.861603,
1.099279,-.851604,
1.111604,-.839279,
1.121603,-.825,
1.128969,-.809202,
1.133481,-.792365,
1.135,-.775,
1.135,.775,
1.133481,.792365,
1.128969,.809202,
1.121603,.825,
1.111604,.839279,
1.099279,.851604,
1.085,.861603,
1.069202,.868969,
1.052365,.873481,
1.035,.875,
0.0*
%
%ADD56MACRO56*%
%AMMACRO48*
4,1,40,-.875,1.035,
-.875,-1.035,
-.873481,-1.052365,
-.868969,-1.069202,
-.861603,-1.085,
-.851604,-1.099279,
-.839279,-1.111604,
-.825,-1.121603,
-.809202,-1.128969,
-.792365,-1.133481,
-.775,-1.135,
.775,-1.135,
.792365,-1.133481,
.809202,-1.128969,
.825,-1.121603,
.839279,-1.111604,
.851604,-1.099279,
.861603,-1.085,
.868969,-1.069202,
.873481,-1.052365,
.875,-1.035,
.875,1.035,
.873481,1.052365,
.868969,1.069202,
.861603,1.085,
.851604,1.099279,
.839279,1.111604,
.825,1.121603,
.809202,1.128969,
.792365,1.133481,
.775,1.135,
-.775,1.135,
-.792365,1.133481,
-.809202,1.128969,
-.825,1.121603,
-.839279,1.111604,
-.851604,1.099279,
-.861603,1.085,
-.868969,1.069202,
-.873481,1.052365,
-.875,1.035,
0.0*
%
%ADD48MACRO48*%
%ADD31R,1.2X1.7*%
%ADD27R,1.7X3.*%
%ADD64R,3.2X1.7*%
%ADD39R,1.05X2.7*%
%ADD65R,2.7X1.7*%
%ADD60C,.3*%
%ADD42R,2.902X4.102*%
%ADD19R,1.422X1.295*%
%ADD17R,.61X.737*%
%ADD14O,1.88X3.912*%
%ADD44R,.94X.813*%
%ADD26O,3.912X1.88*%
%ADD22R,.737X.61*%
%ADD57R,1.499X1.321*%
%ADD53R,.813X.94*%
%ADD62R,1.295X1.905*%
%ADD55R,1.905X1.295*%
%ADD28R,1.499X1.118*%
%ADD18R,1.118X1.499*%
%ADD24O,4.674X1.88*%
%AMMACRO20*
4,1,6,.074,-.074,
.074,1.226,
.926,1.226,
.926,-1.226,
-.926,-1.226,
-.926,-.074,
.074,-.074,
0.0*
%
%ADD20MACRO20*%
%AMMACRO21*
4,1,6,.074,-1.226,
.074,.074,
-.926,.074,
-.926,1.226,
.926,1.226,
.926,-1.226,
.074,-1.226,
0.0*
%
%ADD21MACRO21*%
%AMMACRO34*
4,1,40,.85,-1.025,
.85,1.025,
.848481,1.042365,
.843969,1.059202,
.836603,1.075,
.826604,1.089279,
.814279,1.101604,
.8,1.111603,
.784202,1.118969,
.767365,1.123481,
.75,1.125,
-.75,1.125,
-.767365,1.123481,
-.784202,1.118969,
-.8,1.111603,
-.814279,1.101604,
-.826604,1.089279,
-.836603,1.075,
-.843969,1.059202,
-.848481,1.042365,
-.85,1.025,
-.85,-1.025,
-.848481,-1.042365,
-.843969,-1.059202,
-.836603,-1.075,
-.826604,-1.089279,
-.814279,-1.101604,
-.8,-1.111603,
-.784202,-1.118969,
-.767365,-1.123481,
-.75,-1.125,
.75,-1.125,
.767365,-1.123481,
.784202,-1.118969,
.8,-1.111603,
.814279,-1.101604,
.826604,-1.089279,
.836603,-1.075,
.843969,-1.059202,
.848481,-1.042365,
.85,-1.025,
0.0*
%
%ADD34MACRO34*%
%AMMACRO50*
4,1,40,-1.4,-2.95,
1.4,-2.95,
1.417365,-2.948481,
1.434202,-2.943969,
1.45,-2.936603,
1.464279,-2.926604,
1.476604,-2.914279,
1.486603,-2.9,
1.493969,-2.884202,
1.498481,-2.867365,
1.5,-2.85,
1.5,2.85,
1.498481,2.867365,
1.493969,2.884202,
1.486603,2.9,
1.476604,2.914279,
1.464279,2.926604,
1.45,2.936603,
1.434202,2.943969,
1.417365,2.948481,
1.4,2.95,
-1.4,2.95,
-1.417365,2.948481,
-1.434202,2.943969,
-1.45,2.936603,
-1.464279,2.926604,
-1.476604,2.914279,
-1.486603,2.9,
-1.493969,2.884202,
-1.498481,2.867365,
-1.5,2.85,
-1.5,-2.85,
-1.498481,-2.867365,
-1.493969,-2.884202,
-1.486603,-2.9,
-1.476604,-2.914279,
-1.464279,-2.926604,
-1.45,-2.936603,
-1.434202,-2.943969,
-1.417365,-2.948481,
-1.4,-2.95,
0.0*
%
%ADD50MACRO50*%
%AMMACRO25*
4,1,40,.45,-.325,
.45,.325,
.448481,.342365,
.443969,.359202,
.436603,.375,
.426604,.389279,
.414279,.401604,
.4,.411603,
.384202,.418969,
.367365,.423481,
.35,.425,
-.35,.425,
-.367365,.423481,
-.384202,.418969,
-.4,.411603,
-.414279,.401604,
-.426604,.389279,
-.436603,.375,
-.443969,.359202,
-.448481,.342365,
-.45,.325,
-.45,-.325,
-.448481,-.342365,
-.443969,-.359202,
-.436603,-.375,
-.426604,-.389279,
-.414279,-.401604,
-.4,-.411603,
-.384202,-.418969,
-.367365,-.423481,
-.35,-.425,
.35,-.425,
.367365,-.423481,
.384202,-.418969,
.4,-.411603,
.414279,-.401604,
.426604,-.389279,
.436603,-.375,
.443969,-.359202,
.448481,-.342365,
.45,-.325,
0.0*
%
%ADD25MACRO25*%
%LPD*%
G75*
G54D10*
X30000Y30000D03*
Y1070000D03*
X880000Y550000D03*
X1730000Y30000D03*
Y1070000D03*
G54D20*
X113000Y914000D03*
G54D11*
X83000Y882000D03*
G54D21*
X113000D03*
G54D12*
X83000Y914000D03*
G54D30*
X217500Y181000D03*
X229500D03*
G54D22*
X145080Y900000D03*
X134920D03*
X300920Y836000D03*
X311080D03*
X357920Y1004000D03*
X368080D03*
X357920Y1014000D03*
X368080D03*
X607080Y480000D03*
X596920D03*
X610920Y886000D03*
X621080D03*
X610920Y896000D03*
X621080D03*
X648920Y944000D03*
X610920Y914000D03*
X621080D03*
X706920Y854000D03*
X659080Y944000D03*
X683080Y968000D03*
X672920D03*
X748920Y514000D03*
X759080D03*
X748920Y504000D03*
X759080D03*
X730920Y572000D03*
X741080D03*
Y552000D03*
X730920D03*
Y562000D03*
X741080D03*
X771080Y572000D03*
X760920D03*
X771080Y644000D03*
X760920D03*
X714920Y866000D03*
X725080D03*
X717080Y854000D03*
X772920Y868000D03*
X729080Y934000D03*
X718920D03*
X729080Y924000D03*
X718920D03*
X770920Y920000D03*
X801080Y498000D03*
X790920D03*
X835080Y582000D03*
X824920D03*
X836920Y636000D03*
Y648000D03*
X783080Y868000D03*
X781080Y920000D03*
X883080Y614000D03*
X872920D03*
X847080Y636000D03*
Y648000D03*
X901080Y974000D03*
X890920D03*
X944920Y894000D03*
X955080D03*
X1004920Y456000D03*
X1015080D03*
X1021080Y894000D03*
X1010920D03*
X984920Y878000D03*
X995080D03*
X1021080Y914000D03*
X1010920D03*
X1025080Y976000D03*
X1014920D03*
X1025080Y986000D03*
X1014920D03*
X1073080Y96000D03*
X1062920D03*
X1088920D03*
X1062920Y108000D03*
X1073080D03*
X1049080Y966000D03*
X1038920D03*
X1063080Y928000D03*
X1052920D03*
X1049080Y976000D03*
X1038920D03*
X1099080Y96000D03*
X1205080Y886000D03*
X1194920D03*
Y868000D03*
X1205080D03*
X1194920Y896000D03*
X1205080D03*
X1194920Y906000D03*
X1205080D03*
X1229080Y96000D03*
X1218920D03*
X1272920Y548000D03*
Y582000D03*
Y572000D03*
Y532000D03*
X1283080Y548000D03*
Y582000D03*
Y572000D03*
Y532000D03*
X1361080Y96000D03*
X1350920D03*
X1491080D03*
X1480920D03*
X1531080Y940000D03*
X1520920D03*
X1531080Y958000D03*
X1520920D03*
X1507080Y1006000D03*
X1496920D03*
Y994000D03*
X1507080D03*
X1496920Y982000D03*
X1507080D03*
X1561080Y940000D03*
X1550920D03*
X1621080Y96000D03*
X1610920D03*
X1647080D03*
X1636920D03*
G54D31*
X242500Y181000D03*
X258800D03*
X283800D03*
X308800D03*
X333800D03*
X358800D03*
X383800D03*
X433800D03*
X408800D03*
G54D40*
X498000Y666750D03*
Y717250D03*
G54D13*
X80380Y856000D03*
X95620D03*
X296380Y821000D03*
X311620D03*
X504380Y62000D03*
X519620D03*
X502380Y140000D03*
X517620D03*
X630380Y480000D03*
X645620D03*
X604380Y870000D03*
X619620D03*
X702380Y404000D03*
X706380Y840000D03*
X717620Y404000D03*
X734380Y372000D03*
X749620D03*
X721620Y840000D03*
X735620Y910000D03*
X720380D03*
X938380Y914000D03*
X953620D03*
X1000380Y470000D03*
X1015620D03*
X1386380Y928000D03*
X1401620D03*
X1503620Y940000D03*
X1488380D03*
X1503620Y958000D03*
X1488380D03*
X1563620Y954000D03*
X1548380D03*
G54D50*
X685400Y646000D03*
X730600D03*
G54D14*
X73010Y989970D03*
G54D32*
X230000Y1070000D03*
X1534000Y1074000D03*
G54D41*
X504300Y996000D03*
X635700D03*
X724300D03*
X855700D03*
G54D23*
X116000Y860000D03*
X752000Y388000D03*
G54D24*
X120000Y960000D03*
G54D42*
X548000Y34000D03*
X708000D03*
G54D60*
X959170Y1037950D03*
X1000830D03*
X1119170D03*
X1160830D03*
G54D15*
X97300Y50000D03*
G54D33*
X255400Y1070000D03*
X1559400Y1074000D03*
G54D51*
X650000Y865000D03*
X655000D03*
X660000D03*
X665000D03*
X670000D03*
X675000D03*
X680000D03*
X685000D03*
X690000D03*
Y923000D03*
X685000D03*
X680000D03*
X675000D03*
X670000D03*
X665000D03*
X660000D03*
X655000D03*
X650000D03*
G54D25*
X133750Y918000D03*
X166250D03*
G54D34*
X340000Y857500D03*
X311000D03*
X401000D03*
X373000D03*
X380000Y980500D03*
X401000D03*
G54D52*
X670000Y894000D03*
G54D16*
X122700Y50000D03*
G54D61*
X1050250Y492500D03*
Y497500D03*
Y502500D03*
Y507500D03*
Y512500D03*
Y517500D03*
Y522500D03*
Y527500D03*
Y532500D03*
Y537500D03*
Y542500D03*
Y547500D03*
Y552500D03*
Y557500D03*
Y562500D03*
Y567500D03*
Y572500D03*
Y577500D03*
Y582500D03*
Y587500D03*
Y592500D03*
Y597500D03*
Y602500D03*
Y607500D03*
X1245750Y527500D03*
Y522500D03*
Y517500D03*
Y512500D03*
Y507500D03*
Y502500D03*
Y497500D03*
Y492500D03*
Y587500D03*
Y582500D03*
Y577500D03*
Y572500D03*
Y567500D03*
Y562500D03*
Y557500D03*
Y552500D03*
Y547500D03*
Y542500D03*
Y537500D03*
Y532500D03*
Y607500D03*
Y602500D03*
Y597500D03*
Y592500D03*
G54D43*
X585500Y54000D03*
X580500D03*
X575500D03*
X570500D03*
X645500D03*
X640500D03*
X635500D03*
X630500D03*
X625500D03*
X620500D03*
X615500D03*
X610500D03*
X605500D03*
X600500D03*
X595500D03*
X590500D03*
X685500D03*
X680500D03*
X675500D03*
X670500D03*
X665500D03*
X660500D03*
X655500D03*
X650500D03*
G54D62*
X1070000Y908000D03*
X1046000Y868000D03*
X1070000D03*
X1046000Y908000D03*
G54D53*
X684500Y982000D03*
X671500D03*
G54D26*
X120000Y1019940D03*
G54D44*
X538000Y86500D03*
Y73500D03*
X842000Y927500D03*
Y940500D03*
X1156000Y973500D03*
Y986500D03*
G54D17*
X98000Y108920D03*
Y119080D03*
X136000Y881080D03*
Y870920D03*
X170000Y832920D03*
Y843080D03*
X230000Y204920D03*
Y215080D03*
X242000Y204920D03*
Y215080D03*
X260000Y204920D03*
Y215080D03*
X334000D03*
Y204920D03*
X384000D03*
Y215080D03*
X380000Y1014080D03*
Y1003920D03*
X408000Y204920D03*
Y215080D03*
X434000Y204920D03*
Y215080D03*
X632000Y87080D03*
Y76920D03*
X642000Y87080D03*
Y76920D03*
X638000Y520920D03*
X650000D03*
X606000D03*
X618000D03*
X594000D03*
X638000Y531080D03*
X650000D03*
X606000D03*
X618000D03*
X594000D03*
X650000Y838920D03*
Y849080D03*
X674000Y87080D03*
Y76920D03*
X694000Y129080D03*
Y118920D03*
X684000Y129080D03*
Y118920D03*
X686000Y520920D03*
Y531080D03*
X666000Y838920D03*
X686000D03*
X676000D03*
X666000Y849080D03*
X686000D03*
X676000D03*
X732000Y402920D03*
X742000D03*
X752000D03*
X732000Y437080D03*
Y426920D03*
X742000D03*
Y437080D03*
X732000Y413080D03*
X742000D03*
X762000Y412920D03*
Y423080D03*
X752000Y413080D03*
X774000Y526920D03*
X714000Y514920D03*
Y525080D03*
X774000Y537080D03*
X800000Y94920D03*
Y105080D03*
X788000Y464920D03*
Y475080D03*
X812000Y486920D03*
Y497080D03*
X784000Y526920D03*
Y537080D03*
X786000Y607080D03*
Y596920D03*
X824000Y647080D03*
Y636920D03*
X826000Y928920D03*
Y939080D03*
X876000Y494920D03*
Y505080D03*
X886000Y494920D03*
Y505080D03*
X896000Y494920D03*
Y505080D03*
X856000Y494920D03*
Y505080D03*
X866000Y494920D03*
Y505080D03*
X956000D03*
Y494920D03*
X926000D03*
Y505080D03*
X916000D03*
Y494920D03*
X936000D03*
Y505080D03*
X946000D03*
Y494920D03*
X906000D03*
Y505080D03*
X1002000Y388920D03*
Y399080D03*
X1014000Y388920D03*
Y399080D03*
X990000D03*
Y388920D03*
X968000Y428920D03*
Y439080D03*
X978000Y428920D03*
Y439080D03*
X966000Y505080D03*
Y494920D03*
X1006000D03*
Y505080D03*
X996000D03*
Y494920D03*
X976000D03*
Y505080D03*
X986000D03*
Y494920D03*
X1028000Y557080D03*
Y546920D03*
X1034000Y399080D03*
Y388920D03*
X1046000Y399080D03*
Y388920D03*
X1030000Y870920D03*
Y881080D03*
X1076000Y953080D03*
Y942920D03*
X1086000Y953080D03*
Y942920D03*
Y908920D03*
Y919080D03*
X1268000Y487080D03*
Y476920D03*
X1278000Y487080D03*
Y476920D03*
X1248000Y952920D03*
Y963080D03*
X1238000D03*
Y952920D03*
X1282000D03*
Y963080D03*
X1318000Y952920D03*
Y963080D03*
X1292000D03*
Y952920D03*
X1308000Y963080D03*
Y952920D03*
X1400000D03*
Y963080D03*
X1420000D03*
Y952920D03*
X1410000Y963080D03*
Y952920D03*
G54D35*
X304000Y1054380D03*
Y1069620D03*
X522000Y204380D03*
Y219620D03*
X538000Y117620D03*
Y102380D03*
X544000Y204380D03*
Y219620D03*
X700000Y514380D03*
Y529620D03*
X656000Y637620D03*
Y622380D03*
X990000Y358380D03*
Y373620D03*
X1386000Y946380D03*
Y961620D03*
X1434000Y946380D03*
Y961620D03*
X1592000Y966380D03*
Y981620D03*
G54D18*
X136500Y841000D03*
X146000Y819000D03*
X155500Y841000D03*
X638500Y547000D03*
X648000Y569000D03*
X615500Y547000D03*
X596500D03*
X606000Y569000D03*
X657500Y547000D03*
X1011500Y415000D03*
X992500D03*
X1002000Y437000D03*
X1053500Y415000D03*
X1034500D03*
X1044000Y437000D03*
G54D27*
X203500Y17000D03*
Y163000D03*
X458500D03*
X476500Y17000D03*
G54D36*
X355000Y1033000D03*
X405000D03*
X380000Y1058000D03*
X355000Y1083000D03*
X405000D03*
X845000Y30000D03*
X800000D03*
X930000D03*
X975000D03*
X1100000D03*
X1145000D03*
X1275000D03*
X1230000D03*
X1405000D03*
X1360000D03*
X1535000D03*
X1490000D03*
X1665000D03*
X1620000D03*
G54D45*
X535000Y968900D03*
X560000D03*
X580000D03*
X605000D03*
X755000D03*
X780000D03*
X825000D03*
X800000D03*
G54D54*
X785000Y60000D03*
X860000D03*
X915000D03*
X990000D03*
X1085000D03*
X1160000D03*
X1215000D03*
X1290000D03*
X1345000D03*
X1420000D03*
X1475000D03*
X1550000D03*
X1605000D03*
X1680000D03*
G54D63*
X1105750Y867750D03*
Y874250D03*
Y880750D03*
Y887250D03*
Y893750D03*
Y900250D03*
Y906750D03*
Y913250D03*
Y919750D03*
Y926250D03*
Y932750D03*
Y939250D03*
Y945750D03*
Y952250D03*
X1174250Y906750D03*
Y900250D03*
Y893750D03*
Y887250D03*
Y880750D03*
Y874250D03*
Y867750D03*
Y952250D03*
Y945750D03*
Y939250D03*
Y932750D03*
Y926250D03*
Y919750D03*
Y913250D03*
G54D28*
X155000Y866500D03*
Y885500D03*
X177000Y876000D03*
X809000Y581500D03*
Y562500D03*
X787000Y572000D03*
X809000Y653500D03*
Y634500D03*
X787000Y644000D03*
X939000Y973500D03*
X917000D03*
Y954500D03*
X995000Y973500D03*
X973000D03*
Y954500D03*
G54D55*
X758000Y906000D03*
Y882000D03*
X798000D03*
Y906000D03*
G54D19*
X116000Y823110D03*
Y840890D03*
X700000Y488890D03*
Y471110D03*
X722000Y488890D03*
Y471110D03*
X1612000Y963110D03*
Y980890D03*
G54D64*
X1247000Y990000D03*
X1317000D03*
X1377000D03*
X1447000D03*
G54D46*
X622000Y405400D03*
Y450600D03*
G54D37*
X519500Y92750D03*
X500500D03*
Y115250D03*
X510000D03*
X519500D03*
X698500Y449250D03*
X708000D03*
Y426750D03*
X698500D03*
X717500Y449250D03*
Y426750D03*
G54D65*
X1244500Y1065000D03*
X1319500D03*
X1374500D03*
X1449500D03*
G54D56*
X807900Y608000D03*
X852100D03*
G54D29*
X225000Y153000D03*
X435000D03*
G54D38*
X522750Y164500D03*
Y174000D03*
Y183500D03*
X545250D03*
Y164500D03*
X686750Y548500D03*
Y558000D03*
Y567500D03*
X709250D03*
Y558000D03*
Y548500D03*
X995250Y894500D03*
X972750D03*
Y904000D03*
X995250Y913500D03*
X972750D03*
G54D47*
X641000Y904000D03*
Y899000D03*
Y894000D03*
Y889000D03*
Y884000D03*
Y879000D03*
Y874000D03*
Y914000D03*
Y909000D03*
X699000Y874000D03*
Y879000D03*
Y884000D03*
Y889000D03*
Y894000D03*
Y899000D03*
Y904000D03*
Y909000D03*
Y914000D03*
G54D57*
X939000Y956500D03*
X995000D03*
G54D39*
X510000Y287150D03*
X490000D03*
X510000Y332850D03*
X490000D03*
X510000Y767150D03*
X490000D03*
X510000Y812850D03*
X490000D03*
X570000Y287150D03*
X550000D03*
X530000D03*
X570000Y332850D03*
X550000D03*
X530000D03*
X570000Y767150D03*
X550000D03*
X530000D03*
X570000Y812850D03*
X550000D03*
X530000D03*
X650000Y287150D03*
X630000D03*
X610000D03*
X590000D03*
X650000Y332850D03*
X630000D03*
X610000D03*
X590000D03*
X650000Y767150D03*
X630000D03*
X610000D03*
X590000D03*
X650000Y812850D03*
X630000D03*
X610000D03*
X590000D03*
X710000Y287150D03*
X690000D03*
X670000D03*
X710000Y332850D03*
X690000D03*
X670000D03*
X710000Y767150D03*
X690000D03*
X670000D03*
X710000Y812850D03*
X690000D03*
X670000D03*
X770000Y287150D03*
X750000D03*
X730000D03*
X770000Y332850D03*
X750000D03*
X730000D03*
X770000Y767150D03*
X750000D03*
X730000D03*
X770000Y812850D03*
X750000D03*
X730000D03*
X830000Y287150D03*
X810000D03*
X790000D03*
X830000Y332850D03*
X810000D03*
X790000D03*
X830000Y767150D03*
X810000D03*
X790000D03*
X830000Y812850D03*
X810000D03*
X790000D03*
X890000Y287150D03*
X870000D03*
X850000D03*
X890000Y332850D03*
X870000D03*
X850000D03*
X890000Y767150D03*
X870000D03*
X850000D03*
X890000Y812850D03*
X870000D03*
X850000D03*
X950000Y287150D03*
X930000D03*
X910000D03*
X950000Y332850D03*
X930000D03*
X910000D03*
X950000Y767150D03*
X930000D03*
X910000D03*
X950000Y812850D03*
X930000D03*
X910000D03*
X1030000Y287150D03*
X1010000D03*
X990000D03*
X970000D03*
X1030000Y332850D03*
X1010000D03*
X990000D03*
X970000D03*
X1030000Y767150D03*
X1010000D03*
X990000D03*
X970000D03*
X1030000Y812850D03*
X1010000D03*
X990000D03*
X970000D03*
X1090000Y287150D03*
X1070000D03*
X1050000D03*
X1090000Y332850D03*
X1070000D03*
X1050000D03*
X1090000Y767150D03*
X1070000D03*
X1050000D03*
X1090000Y812850D03*
X1070000D03*
X1050000D03*
X1150000Y287150D03*
X1130000D03*
X1110000D03*
X1150000Y332850D03*
X1130000D03*
X1110000D03*
X1150000Y767150D03*
X1130000D03*
X1110000D03*
X1150000Y812850D03*
X1130000D03*
X1110000D03*
X1210000Y287150D03*
X1190000D03*
X1170000D03*
X1210000Y332850D03*
X1190000D03*
X1170000D03*
X1210000Y767150D03*
X1190000D03*
X1170000D03*
X1210000Y812850D03*
X1190000D03*
X1170000D03*
X1270000Y287150D03*
X1250000D03*
X1230000D03*
X1270000Y332850D03*
X1250000D03*
X1230000D03*
X1270000Y767150D03*
X1250000D03*
X1230000D03*
X1270000Y812850D03*
X1250000D03*
X1230000D03*
G54D48*
X672000Y427900D03*
Y472100D03*
G54D66*
X1529500Y974250D03*
Y980750D03*
Y987250D03*
Y993750D03*
X1570500D03*
Y987250D03*
Y980750D03*
Y974250D03*
G54D58*
X938000Y1014000D03*
Y1067000D03*
X1022000Y1014000D03*
Y1067000D03*
X1098000Y1014000D03*
Y1067000D03*
X1182000Y1014000D03*
Y1067000D03*
G54D67*
X1590000Y307400D03*
Y332800D03*
Y358200D03*
Y383600D03*
Y409000D03*
Y434400D03*
Y459800D03*
Y485200D03*
Y510600D03*
Y536000D03*
Y561400D03*
Y586800D03*
Y612200D03*
Y637600D03*
Y663000D03*
Y688400D03*
Y713800D03*
Y739200D03*
Y764600D03*
X1615400Y307400D03*
Y332800D03*
Y358200D03*
Y383600D03*
Y409000D03*
Y434400D03*
Y459800D03*
Y485200D03*
Y510600D03*
Y536000D03*
Y561400D03*
Y586800D03*
Y612200D03*
Y637600D03*
Y663000D03*
Y688400D03*
Y713800D03*
Y739200D03*
Y764600D03*
Y790000D03*
G54D49*
X689900Y596000D03*
X734100D03*
X813900Y678000D03*
X858100D03*
G54D59*
X964000Y1005290D03*
X972000D03*
X980000D03*
X988000D03*
X996000D03*
X1124000D03*
X1132000D03*
X1140000D03*
X1148000D03*
X1156000D03*
G54D68*
X1590000Y790000D03*
M02*
