M48
METRIC,TZ
T01C.3
T02C.4
T03C.9
T04C.92
T05C1.
T06C1.2
T07C2.3
T08C3.
T09C.8
T10C.9
T11C1.4
T12C1.6
;LEADER: 12 
;HEADER: 
;CODE  : ASCII 
;FILE  : TKA13_DEV_REVB_01-1-2.drl for board TKA13_DEV_REVB_01.brd ... layers TOP and BOTTOM
;T01 Holesize 1. = 0.300000 Tolerance = +0.000000/-0.000000 PLATED MM Quantity = 45
;T02 Holesize 2. = 0.400000 Tolerance = +0.000000/-0.000000 PLATED MM Quantity = 372
;T03 Holesize 3. = 0.900000 Tolerance = +0.000000/-0.000000 PLATED MM Quantity = 44
;T04 Holesize 4. = 0.920000 Tolerance = +0.000000/-0.000000 PLATED MM Quantity = 8
;T05 Holesize 5. = 1.000000 Tolerance = +0.000000/-0.000000 PLATED MM Quantity = 17
;T06 Holesize 6. = 1.200000 Tolerance = +0.000000/-0.000000 PLATED MM Quantity = 19
;T07 Holesize 7. = 2.300000 Tolerance = +0.000000/-0.000000 PLATED MM Quantity = 4
;T08 Holesize 8. = 3.000000 Tolerance = +0.000000/-0.000000 PLATED MM Quantity = 5
;T09 Holesize 9. = 0.800000 Tolerance = +0.000000/-0.000000 NON_PLATED MM Quantity = 4
;T10 Holesize 10. = 0.900000 Tolerance = +0.000000/-0.000000 NON_PLATED MM Quantity = 4
;T11 Holesize 11. = 1.400000 Tolerance = +0.000000/-0.000000 NON_PLATED MM Quantity = 4
;T12 Holesize 12. = 1.600000 Tolerance = +0.051000/-0.051000 NON_PLATED MM Quantity = 2
%
G90
T01
X43500Y30000
X39550Y39550
X30000Y43500
X20450Y39550
X16500Y30000
X20450Y20450
X30000Y16500
X39550Y20450
X43500Y30000
X1743500Y30000
X1739550Y39550
X1730000Y43500
X1720450Y39550
X1716500Y30000
X1720450Y20450
X1730000Y16500
X1739550Y20450
X1743500Y30000
X1743500Y1070000
X1739550Y1079550
X1730000Y1083500
X1720450Y1079550
X1716500Y1070000
X1720450Y1060450
X1730000Y1056500
X1739550Y1060450
X1743500Y1070000
X43500Y1070000
X39550Y1079550
X30000Y1083500
X20450Y1079550
X16500Y1070000
X20450Y1060450
X30000Y1056500
X39550Y1060450
X43500Y1070000
X893500Y550000
X889550Y559550
X880000Y563500
X870450Y559550
X866500Y550000
X870450Y540450
X880000Y536500
X889550Y540450
X893500Y550000
T02
X776000Y486000
X986000Y446000
X986000Y550000
X568000Y74000
X644000Y40000
X787500Y485500
X798000Y486000
X990000Y484000
X956000Y456000
X946000Y452000
X770000Y452000
X758000Y452000
X746000Y486000
X760000Y486000
X930000Y456000
X896000Y486000
X886000Y486000
X548000Y66000
X670500Y40500
X876000Y486000
X866000Y486000
X846000Y492000
X694000Y76000
X520000Y78000
X630000Y40000
X968000Y484000
X862000Y646000
X862000Y634000
X628000Y904000
X636000Y862000
X658000Y846000
X636000Y846000
X694000Y838920
X720000Y876000
X708000Y923080
X668000Y940000
X890920Y966190
X930000Y790000
X1156750Y887250
X1116000Y790000
R02X12000
X942000Y790000
X954000Y790000
X1268000Y496000
X1068000Y547500
X1272920Y556000
X1283080Y564190
X478000Y294000
X441810Y215080
X396000Y215080
X267080Y215080
X230000Y224000
X242000Y224000
X333800Y196000
X506000Y200000
X506000Y188000
X478000Y282000
X466000Y294000
X466000Y282000
X957500Y485500
X870000Y606000
X870000Y596000
X972000Y944000
X902500Y954500
X826000Y498000
X967500Y450000
X836000Y502000
X802000Y552000
X796000Y540000
X978000Y456000
X998000Y634000
X1214000Y868000
X1302000Y866000
X530000Y304000
X838000Y450000
X670000Y172000
X576000Y116000
X1188000Y592000
X594000Y512000
X576000Y420000
X742000Y356000
X982920Y388920
X836000Y422000
X850000Y388000
X816000Y424000
X634000Y128000
X682000Y142000
X1224000Y588000
X996000Y664000
X974000Y1022000
X1228000Y484000
X1250000Y390000
X1170000Y304000
X610000Y304000
X596000Y124000
X678000Y108000
X1218000Y488000
X690000Y784000
X862000Y934000
X874000Y934000
X862000Y922000
X690000Y750000
X1150000Y304000
X995080Y870000
X1006000Y670000
X1090000Y304000
X940000Y678000
X1198000Y266000
X1242000Y260000
X840000Y746000
X550000Y750000
X530000Y750000
X454000Y772000
X466000Y772000
X682000Y158000
X610500Y134000
X654000Y180000
X572000Y138000
X876000Y422000
X564000Y470000
X584000Y470000
X564000Y448000
X584000Y448000
X574000Y458000
X466000Y60000
X570000Y748000
X586000Y748000
X570000Y736000
X586000Y736000
X830000Y388000
X1110000Y304000
X1245000Y458230
X1130000Y604000
X1142000Y600000
X666000Y112000
X598000Y112000
X610000Y316000
X1210000Y315080
X1242000Y398000
X1230000Y314000
X694000Y144000
X650000Y132000
X1190000Y316000
X1236000Y420000
X1194000Y394000
X1170000Y316000
R06X-20000
X1006000Y658000
X1028000Y966000
X998000Y646000
X1214000Y896000
X1294000Y874000
X844000Y458000
X828000Y446000
X814000Y434000
X884000Y430000
X868000Y430000
X848000Y422000
X860000Y388000
R02X-20000
X800000Y374000
X764000Y382000
X778000Y442000
X674000Y150000
X618000Y128000
X664000Y162000
X598000Y100000
X666000Y182000
X568000Y96000
X654000Y192000
X578000Y150000
X530000Y316000
X534000Y156000
X510000Y316000
X1210000Y304000
X1224000Y578000
X1088000Y612000
X1190000Y304000
X818000Y444000
X790000Y416000
X1225000Y458230
X1130000Y304000
X758000Y312000
X816000Y254000
X1234000Y250000
X1210000Y266000
X712000Y748000
X650000Y796000
X1484000Y918000
X1480000Y1006000
X1070000Y304000
X810000Y388000
X1222500Y567500
X860000Y422000
X784000Y386000
X216270Y17000
X463730Y17000
X490000Y650000
X506000Y650000
X170000Y824000
X510000Y830000
X510000Y796000
X490000Y796000
X490000Y830000
X550000Y830000
X550000Y796000
X530000Y830000
X530000Y796000
X176000Y918000
X416000Y972000
X416000Y990000
X350000Y1004000
X350000Y1014000
X304000Y1044000
X528000Y34000
X568000Y28000
X730000Y26000
X730000Y50000
X492000Y62000
X580000Y40000
X568500Y40000
X615500Y40500
X684000Y40000
X203500Y143730
X458500Y143730
X508000Y128000
X538000Y128000
X1054000Y108000
X283800Y168200
X338000Y222000
X358800Y168230
X510000Y174000
X512380Y219620
X554000Y219620
X708000Y414000
X724000Y372000
X630380Y489620
X607080Y487080
X606000Y512000
X618000Y512000
X625000Y547000
X656000Y648000
X786000Y616000
X824000Y656000
X836000Y656000
X808000Y664000
X814000Y622000
X800000Y622000
X882000Y622000
X798000Y672000
X798000Y684000
X1294000Y578000
X950000Y830000
X1592000Y956000
X632000Y96000
X642000Y96000
X674000Y96000
X490000Y316000
X1286000Y306000
X1298000Y306000
X1292000Y542000
X990000Y350620
X1185000Y424000
X1028000Y566000
X1023080Y388920
X1021850Y415000
X750000Y426000
X786000Y452000
X996000Y456000
X968000Y420000
X978000Y420000
X1255730Y450000
X700000Y504000
X686000Y512000
X688380Y488890
X714000Y506000
X740000Y514000
X740000Y504000
X722000Y500000
X820920Y486920
X848000Y504000
X942500Y484000
X930000Y484000
X946000Y514000
X996000Y514000
X748000Y552000
X720000Y558000
X1066000Y558000
X1232000Y552500
X286000Y821000
X292000Y836000
X660000Y830000
X680000Y830000
X408000Y878000
X394000Y878000
X609550Y860000
X1122000Y884000
X1124000Y908000
X1158750Y906750
X1204000Y878000
X640000Y944000
X602000Y914000
X1434000Y934000
X1106000Y997730
X1090000Y997730
X1124000Y1022000
X1190000Y997730
X1174000Y997730
X1377000Y1002770
X1488000Y994000
X1488000Y982000
X955770Y1067000
X1004230Y1067000
X1106000Y1049730
X1090000Y1050000
X1190000Y1049730
X1174000Y1049730
X1374500Y1052230
X770000Y794000
X936000Y894000
X984000Y904000
X1030000Y894000
X1034000Y862000
X928000Y914000
X1030000Y914000
X750000Y794000
X758000Y920000
X798000Y868000
X818000Y906000
X818000Y882000
X802000Y930000
X738000Y924000
X738000Y934000
X826000Y921120
X938000Y944000
X602000Y886000
X602000Y896000
X704000Y866000
X686000Y894000
X654000Y894000
X680000Y878000
X660000Y878000
X660000Y910000
X680000Y910000
X1070000Y921080
X1086000Y900000
X1090750Y932750
X692000Y968000
X994000Y944000
X1076000Y964000
X1049080Y958000
X1025080Y994920
X1049080Y984000
X1238000Y972000
X1292000Y972000
X1308000Y972000
X1386000Y938000
X938000Y996000
X960220Y1021280
X1558000Y988000
X730000Y830000
X68000Y882000
R02Y-12000
X794000Y390000
T03
X1559400Y1074000
X1534000Y1074000
X1590000Y790000
X1615400Y790000
X1590000Y764600
X1615400Y764600
X1590000Y739200
X1615400Y739200
X1590000Y713800
X1615400Y713800
X1590000Y688400
X1615400Y688400
X1590000Y663000
X1615400Y663000
X1590000Y637600
X1615400Y637600
X1590000Y612200
X1615400Y612200
X1590000Y586800
X1615400Y586800
X1590000Y561400
X1615400Y561400
X1590000Y536000
X1615400Y536000
X1590000Y510600
X1615400Y510600
X1590000Y485200
X1615400Y485200
X1590000Y459800
X1615400Y459800
X1590000Y434400
X1615400Y434400
X1590000Y409000
X1615400Y409000
X1590000Y383600
X1615400Y383600
X1590000Y358200
X1615400Y358200
X1590000Y332800
X1615400Y332800
X1590000Y307400
X1615400Y307400
X255400Y1070000
X230000Y1070000
T04
X825000Y968900
X800000Y968900
X780000Y968900
X755000Y968900
X605000Y968900
X580000Y968900
X560000Y968900
X535000Y968900
T05
X670000Y894000
X122700Y50000
X97300Y50000
X800000Y30000
X845000Y30000
X930000Y30000
X975000Y30000
X1100000Y30000
X1145000Y30000
X1230000Y30000
X1275000Y30000
X1360000Y30000
X1405000Y30000
X1490000Y30000
X1535000Y30000
X1620000Y30000
X1665000Y30000
T06
X405000Y1033000
X405000Y1083000
X355000Y1083000
X355000Y1033000
X380000Y1058000
X860000Y60000
X785000Y60000
X990000Y60000
X915000Y60000
X1160000Y60000
X1085000Y60000
X1290000Y60000
X1215000Y60000
X1420000Y60000
X1345000Y60000
X1550000Y60000
X1475000Y60000
X1680000Y60000
X1605000Y60000
T07
X855700Y996000
X724300Y996000
X635700Y996000
X504300Y996000
T08
X30000Y30000
X1730000Y30000
X1730000Y1070000
X30000Y1070000
X880000Y550000
T09
X500000Y310000
X1260000Y310000
X500000Y790000
X1260000Y790000
T10
X1119170Y1037950
X1160830Y1037950
X959170Y1037950
X1000830Y1037950
T11
X1307000Y1030000
X1257000Y1030000
X1437000Y1030000
X1387000Y1030000
T12
X225000Y153000
X435000Y153000
M30
