G04 ================== begin FILE IDENTIFICATION RECORD ==================*
G04 Layout Name:  TKA13_DEV_REVB_01.brd*
G04 Film Name:    TOP*
G04 File Format:  Gerber RS274X*
G04 File Origin:  Cadence Allegro 16.3-p003*
G04 Origin Date:  Thu Jun 27 23:25:28 2013*
G04 *
G04 Layer:  ETCH/TOP*
G04 Layer:  PIN/TOP*
G04 Layer:  VIA CLASS/TOP*
G04 *
G04 Offset:    (0.000 0.000)*
G04 Mirror:    No*
G04 Mode:      Positive*
G04 Rotation:  0*
G04 FullContactRelief:  No*
G04 UndefLineWidth:     0.100*
G04 ================== end FILE IDENTIFICATION RECORD ====================*
%FSLAX34Y34*MOMM*%
%IR0*IPPOS*OFA0.00000B0.00000*MIA0B0*SFA1.00000B1.00000*%
%AMMACRO49*
4,1,40,-.985,-.825,
.985,-.825,
1.002365,-.823481,
1.019202,-.818969,
1.035,-.811603,
1.049279,-.801604,
1.061604,-.789279,
1.071603,-.775,
1.078969,-.759202,
1.083481,-.742365,
1.085,-.725,
1.085,.725,
1.083481,.742365,
1.078969,.759202,
1.071603,.775,
1.061604,.789279,
1.049279,.801604,
1.035,.811603,
1.019202,.818969,
1.002365,.823481,
.985,.825,
-.985,.825,
-1.002365,.823481,
-1.019202,.818969,
-1.035,.811603,
-1.049279,.801604,
-1.061604,.789279,
-1.071603,.775,
-1.078969,.759202,
-1.083481,.742365,
-1.085,.725,
-1.085,-.725,
-1.083481,-.742365,
-1.078969,-.759202,
-1.071603,-.775,
-1.061604,-.789279,
-1.049279,-.801604,
-1.035,-.811603,
-1.019202,-.818969,
-1.002365,-.823481,
-.985,-.825,
0.0*
%
%ADD49MACRO49*%
%AMMACRO50*
4,1,44,-1.35,-2.9,
1.35,-2.9,
1.367365,-2.898481,
1.384202,-2.893969,
1.4,-2.886603,
1.414279,-2.876604,
1.426604,-2.864279,
1.436603,-2.85,
1.443969,-2.834202,
1.448481,-2.817365,
1.45,-2.8,
1.45,-2.8,
1.45,2.8,
1.448481,2.817365,
1.443969,2.834202,
1.436603,2.85,
1.426604,2.864279,
1.414279,2.876604,
1.4,2.886603,
1.384202,2.893969,
1.367365,2.898481,
1.35,2.9,
1.35,2.9,
-1.35,2.9,
-1.367365,2.898481,
-1.384202,2.893969,
-1.4,2.886603,
-1.414279,2.876604,
-1.426604,2.864279,
-1.436603,2.85,
-1.443969,2.834202,
-1.448481,2.817365,
-1.45,2.8,
-1.45,2.8,
-1.45,-2.8,
-1.448481,-2.817365,
-1.443969,-2.834202,
-1.436603,-2.85,
-1.426604,-2.864279,
-1.414279,-2.876604,
-1.4,-2.886603,
-1.384202,-2.893969,
-1.367365,-2.898481,
-1.35,-2.9,
-1.35,-2.9,
0.0*
%
%ADD50MACRO50*%
%ADD51O,.3X1.*%
%ADD47O,1.X.3*%
%AMMACRO22*
4,1,6,.15,1.15,
.85,1.15,
.85,-1.15,
-.85,-1.15,
-.85,-.15,
.15,-.15,
.15,1.15,
0.0*
%
%ADD22MACRO22*%
%ADD38O,1.3X.6*%
%AMMACRO23*
4,1,6,.85,-1.15,
.15,-1.15,
.15,.15,
-.85,.15,
-.85,1.15,
.85,1.15,
.85,-1.15,
0.0*
%
%ADD23MACRO23*%
%ADD43R,.3X1.3*%
%ADD37O,.6X1.3*%
%ADD68O,1.7X.4*%
%ADD53C,2.*%
%ADD63O,1.65X.3*%
%ADD41C,3.1*%
%ADD10C,4.*%
%ADD31R,.7X1.5*%
%ADD69C,1.5*%
%ADD55C,2.5*%
%ADD45C,1.6*%
%ADD33C,1.7*%
%ADD57C,1.8*%
%ADD65O,1.85X.45*%
%ADD39R,.85X2.5*%
%ADD70R,1.5X1.5*%
%ADD52R,4.3X4.3*%
%ADD34R,1.7X1.7*%
%ADD18C,1.98*%
%AMMACRO61*
4,1,44,.15,1.,
-.15,1.,
-.167365,.998481,
-.184202,.993969,
-.2,.986603,
-.214279,.976604,
-.226604,.964279,
-.236603,.95,
-.243969,.934202,
-.248481,.917365,
-.25,.9,
-.25,.9,
-.25,-.9,
-.248481,-.917365,
-.243969,-.934202,
-.236603,-.95,
-.226604,-.964279,
-.214279,-.976604,
-.2,-.986603,
-.184202,-.993969,
-.167365,-.998481,
-.15,-1.,
-.15,-1.,
.15,-1.,
.167365,-.998481,
.184202,-.993969,
.2,-.986603,
.214279,-.976604,
.226604,-.964279,
.236603,-.95,
.243969,-.934202,
.248481,-.917365,
.25,-.9,
.25,-.9,
.25,.9,
.248481,.917365,
.243969,.934202,
.236603,.95,
.226604,.964279,
.214279,.976604,
.2,.986603,
.184202,.993969,
.167365,.998481,
.15,1.,
.15,1.,
0.0*
%
%ADD61MACRO61*%
%AMMACRO60*
4,1,44,1.15,1.1,
-1.15,1.1,
-1.167365,1.098481,
-1.184202,1.093969,
-1.2,1.086603,
-1.214279,1.076604,
-1.226604,1.064279,
-1.236603,1.05,
-1.243969,1.034202,
-1.248481,1.017365,
-1.25,1.,
-1.25,1.,
-1.25,-1.,
-1.248481,-1.017365,
-1.243969,-1.034202,
-1.236603,-1.05,
-1.226604,-1.064279,
-1.214279,-1.076604,
-1.2,-1.086603,
-1.184202,-1.093969,
-1.167365,-1.098481,
-1.15,-1.1,
-1.15,-1.1,
1.15,-1.1,
1.167365,-1.098481,
1.184202,-1.093969,
1.2,-1.086603,
1.214279,-1.076604,
1.226604,-1.064279,
1.236603,-1.05,
1.243969,-1.034202,
1.248481,-1.017365,
1.25,-1.,
1.25,-1.,
1.25,1.,
1.248481,1.017365,
1.243969,1.034202,
1.236603,1.05,
1.226604,1.064279,
1.214279,1.076604,
1.2,1.086603,
1.184202,1.093969,
1.167365,1.098481,
1.15,1.1,
1.15,1.1,
0.0*
%
%ADD60MACRO60*%
%ADD17R,1.98X1.98*%
%AMMACRO40*
4,1,40,-1.2,.875,
-1.2,-.875,
-1.198481,-.892365,
-1.193969,-.909202,
-1.186603,-.925,
-1.176604,-.939279,
-1.164279,-.951604,
-1.15,-.961603,
-1.134202,-.968969,
-1.117365,-.973481,
-1.1,-.975,
1.1,-.975,
1.117365,-.973481,
1.134202,-.968969,
1.15,-.961603,
1.164279,-.951604,
1.176604,-.939279,
1.186603,-.925,
1.193969,-.909202,
1.198481,-.892365,
1.2,-.875,
1.2,.875,
1.198481,.892365,
1.193969,.909202,
1.186603,.925,
1.176604,.939279,
1.164279,.951604,
1.15,.961603,
1.134202,.968969,
1.117365,.973481,
1.1,.975,
-1.1,.975,
-1.117365,.973481,
-1.134202,.968969,
-1.15,.961603,
-1.164279,.951604,
-1.176604,.939279,
-1.186603,.925,
-1.193969,.909202,
-1.198481,.892365,
-1.2,.875,
0.0*
%
%ADD40MACRO40*%
%AMMACRO58*
4,1,40,.985,.825,
-.985,.825,
-1.002365,.823481,
-1.019202,.818969,
-1.035,.811603,
-1.049279,.801604,
-1.061604,.789279,
-1.071603,.775,
-1.078969,.759202,
-1.083481,.742365,
-1.085,.725,
-1.085,-.725,
-1.083481,-.742365,
-1.078969,-.759202,
-1.071603,-.775,
-1.061604,-.789279,
-1.049279,-.801604,
-1.035,-.811603,
-1.019202,-.818969,
-1.002365,-.823481,
-.985,-.825,
.985,-.825,
1.002365,-.823481,
1.019202,-.818969,
1.035,-.811603,
1.049279,-.801604,
1.061604,-.789279,
1.071603,-.775,
1.078969,-.759202,
1.083481,-.742365,
1.085,-.725,
1.085,.725,
1.083481,.742365,
1.078969,.759202,
1.071603,.775,
1.061604,.789279,
1.049279,.801604,
1.035,.811603,
1.019202,.818969,
1.002365,.823481,
.985,.825,
0.0*
%
%ADD58MACRO58*%
%AMMACRO48*
4,1,40,-.825,.985,
-.825,-.985,
-.823481,-1.002365,
-.818969,-1.019202,
-.811603,-1.035,
-.801604,-1.049279,
-.789279,-1.061604,
-.775,-1.071603,
-.759202,-1.078969,
-.742365,-1.083481,
-.725,-1.085,
.725,-1.085,
.742365,-1.083481,
.759202,-1.078969,
.775,-1.071603,
.789279,-1.061604,
.801604,-1.049279,
.811603,-1.035,
.818969,-1.019202,
.823481,-1.002365,
.825,-.985,
.825,.985,
.823481,1.002365,
.818969,1.019202,
.811603,1.035,
.801604,1.049279,
.789279,1.061604,
.775,1.071603,
.759202,1.078969,
.742365,1.083481,
.725,1.085,
-.725,1.085,
-.742365,1.083481,
-.759202,1.078969,
-.775,1.071603,
-.789279,1.061604,
-.801604,1.049279,
-.811603,1.035,
-.818969,1.019202,
-.823481,1.002365,
-.825,.985,
0.0*
%
%ADD48MACRO48*%
%AMMACRO46*
4,1,44,-2.9,1.35,
-2.9,-1.35,
-2.898481,-1.367365,
-2.893969,-1.384202,
-2.886603,-1.4,
-2.876604,-1.414279,
-2.864279,-1.426604,
-2.85,-1.436603,
-2.834202,-1.443969,
-2.817365,-1.448481,
-2.8,-1.45,
-2.8,-1.45,
2.8,-1.45,
2.817365,-1.448481,
2.834202,-1.443969,
2.85,-1.436603,
2.864279,-1.426604,
2.876604,-1.414279,
2.886603,-1.4,
2.893969,-1.384202,
2.898481,-1.367365,
2.9,-1.35,
2.9,-1.35,
2.9,1.35,
2.898481,1.367365,
2.893969,1.384202,
2.886603,1.4,
2.876604,1.414279,
2.864279,1.426604,
2.85,1.436603,
2.834202,1.443969,
2.817365,1.448481,
2.8,1.45,
2.8,1.45,
-2.8,1.45,
-2.817365,1.448481,
-2.834202,1.443969,
-2.85,1.436603,
-2.864279,1.426604,
-2.876604,1.414279,
-2.886603,1.4,
-2.893969,1.384202,
-2.898481,1.367365,
-2.9,1.35,
-2.9,1.35,
0.0*
%
%ADD46MACRO46*%
%ADD32R,1.X1.5*%
%ADD66R,3.X1.5*%
%AMMACRO12*
4,1,6,-.15,-1.15,
-.85,-1.15,
-.85,1.15,
.85,1.15,
.85,.15,
-.15,.15,
-.15,-1.15,
0.0*
%
%ADD12MACRO12*%
%AMMACRO13*
4,1,6,-.85,1.15,
-.15,1.15,
-.15,-.15,
.85,-.15,
.85,-1.15,
-.85,-1.15,
-.85,1.15,
0.0*
%
%ADD13MACRO13*%
%ADD67R,2.5X1.5*%
%ADD42R,2.8X4.*%
%ADD11C,.1*%
%ADD62C,.2*%
%ADD28R,1.5X2.8*%
%ADD21R,1.27X1.143*%
%ADD15C,.8*%
%ADD30C,.254*%
%ADD64R,1.194X1.803*%
%ADD56R,1.803X1.194*%
%ADD29R,1.397X1.016*%
%ADD20R,1.016X1.397*%
%ADD19R,.508X.635*%
%ADD16O,1.778X3.81*%
%ADD44R,.838X.711*%
%ADD27O,3.81X1.778*%
%ADD24R,.635X.508*%
%ADD59R,1.397X1.219*%
%ADD54R,.711X.838*%
%ADD25O,4.572X1.778*%
%ADD36R,.813X.889*%
%AMMACRO35*
4,1,40,.8,-.975,
.8,.975,
.798481,.992365,
.793969,1.009202,
.786603,1.025,
.776604,1.039279,
.764279,1.051604,
.75,1.061603,
.734202,1.068969,
.717365,1.073481,
.7,1.075,
-.7,1.075,
-.717365,1.073481,
-.734202,1.068969,
-.75,1.061603,
-.764279,1.051604,
-.776604,1.039279,
-.786603,1.025,
-.793969,1.009202,
-.798481,.992365,
-.8,.975,
-.8,-.975,
-.798481,-.992365,
-.793969,-1.009202,
-.786603,-1.025,
-.776604,-1.039279,
-.764279,-1.051604,
-.75,-1.061603,
-.734202,-1.068969,
-.717365,-1.073481,
-.7,-1.075,
.7,-1.075,
.717365,-1.073481,
.734202,-1.068969,
.75,-1.061603,
.764279,-1.051604,
.776604,-1.039279,
.786603,-1.025,
.793969,-1.009202,
.798481,-.992365,
.8,-.975,
0.0*
%
%ADD35MACRO35*%
%ADD14R,.889X.813*%
%AMMACRO26*
4,1,40,.4,-.275,
.4,.275,
.398481,.292365,
.393969,.309202,
.386603,.325,
.376604,.339279,
.364279,.351604,
.35,.361603,
.334202,.368969,
.317365,.373481,
.3,.375,
-.3,.375,
-.317365,.373481,
-.334202,.368969,
-.35,.361603,
-.364279,.351604,
-.376604,.339279,
-.386603,.325,
-.393969,.309202,
-.398481,.292365,
-.4,.275,
-.4,-.275,
-.398481,-.292365,
-.393969,-.309202,
-.386603,-.325,
-.376604,-.339279,
-.364279,-.351604,
-.35,-.361603,
-.334202,-.368969,
-.317365,-.373481,
-.3,-.375,
.3,-.375,
.317365,-.373481,
.334202,-.368969,
.35,-.361603,
.364279,-.351604,
.376604,-.339279,
.386603,-.325,
.393969,-.309202,
.398481,-.292365,
.4,-.275,
0.0*
%
%ADD26MACRO26*%
%ADD71C,.3*%
%ADD72C,.4*%
%ADD73C,.5*%
%ADD74C,.6*%
%ADD81C,2.004*%
%ADD88C,2.104*%
%ADD79C,3.104*%
%ADD78C,2.204*%
%ADD87C,1.404*%
%ADD80C,1.504*%
%ADD85C,3.704*%
%ADD77O,1.004X1.704*%
%ADD84R,1.8X1.42*%
%ADD75C,.902*%
%ADD83R,3.404X1.904*%
%ADD76C,.904*%
%ADD86R,1.254X2.904*%
%ADD82R,2.904X1.904*%
G75*
%LPD*%
G75*
G36*
G01X555200Y745290D02*
X555440Y745550D01*
X556980Y744950D01*
Y734750D01*
X564750Y726980D01*
X589250D01*
X594350Y732080D01*
X594980Y731820D01*
Y630080D01*
X335920Y371020D01*
X171920D01*
X66980Y266080D01*
Y35920D01*
X83920Y18980D01*
X140080D01*
X162080Y40980D01*
X477920D01*
X514270Y4630D01*
X514010Y4000D01*
X4000D01*
Y1096000D01*
X906010D01*
X906270Y1095370D01*
X873920Y1063020D01*
X691920D01*
X665920Y1037020D01*
X489920D01*
X450980Y998080D01*
Y942080D01*
X425920Y917020D01*
X303920D01*
X266980Y880080D01*
Y811920D01*
X285920Y792980D01*
X414080D01*
X470080Y848980D01*
X549920D01*
X554980Y843920D01*
Y789920D01*
X561250Y783650D01*
X560990Y783020D01*
X560750D01*
X556900Y779170D01*
X556270Y779430D01*
Y781670D01*
X543730D01*
Y753160D01*
G03X555200Y745290I6270J-3156D01*
G37*
G36*
G01X520080Y13020D02*
X482080Y51020D01*
X157920D01*
X135920Y29020D01*
X88080D01*
X77020Y40080D01*
Y261920D01*
X176080Y360980D01*
X340080D01*
X605020Y625920D01*
Y752630D01*
X616980D01*
Y748750D01*
X624750Y740980D01*
X636750D01*
X662750Y714980D01*
X800750D01*
X820750Y694980D01*
X904750D01*
X916750Y682980D01*
X933300D01*
X934030Y681710D01*
X933890Y681460D01*
G03X946340Y674980I6110J-3460D01*
G01X999310D01*
X1000050Y673710D01*
X999900Y673460D01*
G03X999160Y671520I6107J-3441D01*
G01X999110Y671310D01*
X998100Y670700D01*
X997890Y670760D01*
G03X992980Y657660I-1894J-6760D01*
G01Y656750D01*
X995800Y653930D01*
X995530Y652570D01*
X995280Y652460D01*
G03X990990Y646000I2719J-6460D01*
G01Y634000D01*
G03X997970Y626990I7010J0D01*
G01X998180D01*
X998980Y626180D01*
Y535020D01*
X928750D01*
X916750Y523020D01*
X812180D01*
X811920Y523650D01*
X865250Y576980D01*
X944750D01*
X980750Y540980D01*
X991250D01*
X997020Y546750D01*
Y553250D01*
X959250Y591020D01*
X879020D01*
Y610920D01*
X879050D01*
Y617080D01*
X879020D01*
Y621020D01*
X838750D01*
X828980Y611250D01*
Y590180D01*
X828350Y589920D01*
X827250Y591020D01*
X801250D01*
X790560Y601710D01*
Y602120D01*
X790160D01*
X789250Y603020D01*
X788570D01*
Y603050D01*
X782920D01*
Y603020D01*
X780980D01*
Y592750D01*
X781440Y592290D01*
Y591720D01*
X782000D01*
X794000Y579730D01*
X793740Y579100D01*
X778000D01*
Y577020D01*
X771080D01*
G03X769050Y576590I0J-5007D01*
G01X768960Y576550D01*
X767020D01*
Y639450D01*
X768960D01*
X769050Y639410D01*
G03X771080Y638980I2030J4577D01*
G01X778000D01*
Y636900D01*
X796000D01*
Y651100D01*
X778000D01*
Y649020D01*
X771080D01*
G03X769050Y648590I0J-5007D01*
G01X768960Y648550D01*
X767020D01*
Y651020D01*
X757250D01*
X755020Y653250D01*
Y673250D01*
X749250Y679020D01*
X712980D01*
Y592750D01*
X718080Y587650D01*
X717820Y587020D01*
X707250D01*
X705020Y589250D01*
Y605250D01*
X701250Y609020D01*
X678750D01*
X674980Y605250D01*
Y578180D01*
X674350Y577920D01*
X669020Y583250D01*
Y606750D01*
X673250Y610980D01*
X699250D01*
X703020Y614750D01*
Y679020D01*
X662980D01*
Y633250D01*
X661740Y632010D01*
X661110Y632270D01*
Y632570D01*
X650890D01*
Y631020D01*
X644980D01*
Y578000D01*
X640900D01*
Y564260D01*
X640270Y564000D01*
X623250Y581020D01*
X598750D01*
X594980Y577250D01*
Y560750D01*
X598080Y557650D01*
X597820Y557020D01*
X588980D01*
Y524980D01*
X589450D01*
Y517350D01*
G03X598550I4550J-5350D01*
G01Y524980D01*
X602920D01*
Y524950D01*
X609080D01*
Y524980D01*
X614920D01*
Y524950D01*
X621080D01*
Y524980D01*
X623020D01*
Y535250D01*
X622550Y535720D01*
Y536270D01*
X622000D01*
X619250Y539020D01*
X605250D01*
X605020Y539250D01*
Y556980D01*
X622750D01*
X628980Y550750D01*
Y528750D01*
X630980Y526750D01*
Y512980D01*
X638980D01*
Y485110D01*
X635430D01*
Y475020D01*
X603250D01*
X603020Y475250D01*
Y476920D01*
X603050D01*
Y483080D01*
X603020D01*
Y487020D01*
X564750D01*
X552980Y475250D01*
Y453020D01*
X465920D01*
X357920Y345020D01*
X183920D01*
X92980Y254080D01*
Y145320D01*
G03Y138680I5020J-3320D01*
G01Y119080D01*
G03X93410Y117050I5007J0D01*
G01X93450Y116960D01*
Y103730D01*
X93980D01*
Y62920D01*
X84380D01*
Y37080D01*
X110220D01*
Y62920D01*
X102020D01*
Y103730D01*
X102550D01*
Y116960D01*
X102590Y117050D01*
G03X103020Y119080I-4577J2030D01*
G01Y127580D01*
X103650Y127840D01*
X177510Y53980D01*
X462390D01*
G03Y66020I3610J6020D01*
G01X182490D01*
X103020Y145490D01*
Y249920D01*
X188080Y334980D01*
X362080D01*
X470080Y442980D01*
X554750D01*
X564750Y432980D01*
X653250D01*
X660350Y440080D01*
X660980Y439820D01*
Y435250D01*
X648750Y423020D01*
X588980D01*
Y386980D01*
X671250D01*
X705020Y420750D01*
Y433250D01*
X701250Y437020D01*
X693250D01*
X690160Y440110D01*
X690420Y440740D01*
X690990D01*
X692750Y438980D01*
X701250D01*
X703000Y440730D01*
X704750Y438980D01*
X711250D01*
X713010Y440740D01*
X726980D01*
Y433020D01*
X725250D01*
X721250Y437020D01*
X714750D01*
X710980Y433250D01*
Y420750D01*
X714750Y416980D01*
X716750D01*
X723010Y410710D01*
X722750Y410080D01*
X711160D01*
Y409110D01*
X707430D01*
Y398890D01*
X711160D01*
Y397920D01*
X724080D01*
Y400050D01*
X724710Y400310D01*
X725620Y399400D01*
X727450D01*
Y397730D01*
X748980D01*
Y393210D01*
G03X753180Y382100I3020J-5207D01*
G01X753560Y382170D01*
X754370Y380640D01*
X751810Y378080D01*
X743160D01*
Y377110D01*
X739430D01*
Y366890D01*
X743160D01*
Y365920D01*
X746980D01*
Y362700D01*
X745710Y361970D01*
X745460Y362110D01*
G03X739940Y362710I-3457J-6110D01*
G01X739650Y362620D01*
X737250Y365020D01*
X601250D01*
X579020Y387250D01*
Y413660D01*
G03X572980I-3020J6340D01*
G01Y384750D01*
X596080Y361650D01*
X595820Y361020D01*
X468750D01*
X442980Y335250D01*
Y283250D01*
X420750Y261020D01*
X338750D01*
X316750Y239020D01*
X224750D01*
X216980Y231250D01*
Y206750D01*
X221830Y201900D01*
X225450D01*
Y199730D01*
X226480D01*
Y190510D01*
X211990D01*
Y171490D01*
X235480D01*
Y171480D01*
X249520D01*
Y190520D01*
X245520D01*
Y191250D01*
X253020Y198750D01*
Y216750D01*
X254820Y218550D01*
X255450Y218290D01*
Y199730D01*
X255780D01*
Y190520D01*
X251780D01*
Y171480D01*
X265820D01*
Y190520D01*
X261820D01*
Y191550D01*
X268450Y198180D01*
X296450D01*
X345250Y246980D01*
X355820D01*
X356080Y246350D01*
X352980Y243250D01*
Y232750D01*
X358750Y226980D01*
X366750D01*
X366980Y226750D01*
Y225250D01*
X366750Y225020D01*
X360750D01*
X356980Y221250D01*
Y215250D01*
X356750Y215020D01*
X355250D01*
X355020Y215250D01*
Y227250D01*
X349250Y233020D01*
X332750D01*
X305780Y206050D01*
Y190520D01*
X301780D01*
Y171480D01*
X315820D01*
Y190520D01*
X311820D01*
Y203550D01*
X335250Y226980D01*
X346750D01*
X348980Y224750D01*
Y212750D01*
X352080Y209650D01*
X351820Y209020D01*
X348750D01*
X344980Y205250D01*
Y198750D01*
X348750Y194980D01*
X376750D01*
X380580Y191150D01*
X380320Y190520D01*
X376780D01*
Y171480D01*
X390820D01*
Y190520D01*
X387020D01*
Y199730D01*
X388550D01*
Y212060D01*
X389660D01*
X389800Y211790D01*
G03X402200I6200J3290D01*
G01X402340Y212060D01*
X403450D01*
Y199730D01*
X405780D01*
Y190520D01*
X401780D01*
Y171480D01*
X415820D01*
Y190520D01*
X411820D01*
Y191550D01*
X421020Y200750D01*
Y230750D01*
X421250Y230980D01*
X430750D01*
X430980Y230750D01*
Y224750D01*
X434830Y220900D01*
X434570Y220270D01*
X429450D01*
Y199730D01*
X430980D01*
Y190520D01*
X426780D01*
Y171480D01*
X440820D01*
Y190520D01*
X437020D01*
Y192750D01*
X443250Y198980D01*
X448750D01*
X448980Y198750D01*
Y184750D01*
X452750Y180980D01*
X459250D01*
X463000Y184730D01*
X466750Y180980D01*
X474750D01*
X474980Y180750D01*
Y166750D01*
X478750Y162980D01*
X485250D01*
X489020Y166750D01*
Y194750D01*
X499020Y204750D01*
Y210750D01*
X499250Y210980D01*
X503250D01*
X507020Y214750D01*
Y221250D01*
X503250Y225020D01*
X499250D01*
X499020Y225250D01*
Y226750D01*
X499250Y226980D01*
X549250D01*
X593020Y270750D01*
Y272630D01*
X596980D01*
Y153250D01*
X587000Y143270D01*
X583970Y146300D01*
G03X581020Y156340I-5968J3700D01*
G01Y187250D01*
X557250Y211020D01*
X549110D01*
Y214570D01*
X538890D01*
Y211020D01*
X536980D01*
Y185070D01*
X536960Y184990D01*
G03Y182010I4790J-1490D01*
G01X536980Y181930D01*
Y180750D01*
X540750Y176980D01*
X546750D01*
X546980Y176750D01*
Y169520D01*
X541750D01*
G03X536760Y163960I0J-5019D01*
G01X536790Y163700D01*
X535780Y162800D01*
X535520Y162850D01*
G03X531940Y162710I-1525J-6851D01*
G01X531650Y162620D01*
X531100Y163170D01*
X531160Y163440D01*
G03X526250Y169520I-4910J1057D01*
G01X519250D01*
G03X514230Y164500I0J-5020D01*
G01Y164160D01*
X512730Y163540D01*
X507020Y169250D01*
Y174750D01*
X509250Y176980D01*
X527250D01*
X531020Y180750D01*
Y181930D01*
X531040Y182010D01*
G03Y184990I-4790J1490D01*
G01X531020Y185070D01*
Y211020D01*
X527110D01*
Y214570D01*
X516890D01*
Y211020D01*
X506750D01*
X490980Y195250D01*
Y162750D01*
X507990Y145740D01*
X507730Y145110D01*
X507430D01*
Y134890D01*
X511160D01*
Y133920D01*
X512980D01*
Y107020D01*
X507250D01*
X504920Y109350D01*
X505070Y109670D01*
G03X505520Y111750I-4582J2080D01*
G01Y118750D01*
G03X495480I-5020J0D01*
G01Y111750D01*
G03X498550Y107120I5026J0D01*
G01X498640Y107080D01*
X504750Y100980D01*
X513820D01*
X514080Y100350D01*
X512980Y99250D01*
Y74750D01*
X516750Y70980D01*
X521820D01*
X522080Y70350D01*
X520750Y69020D01*
X512980D01*
Y67110D01*
X509430D01*
Y56890D01*
X512980D01*
Y54980D01*
X527250D01*
X529250Y56980D01*
X549250D01*
X555020Y62750D01*
Y71250D01*
X547250Y79020D01*
X545020D01*
Y109020D01*
X543110D01*
Y112570D01*
X532890D01*
Y109020D01*
X531020D01*
Y126750D01*
X537020Y132750D01*
Y149660D01*
G03X540680Y158150I-3022J6336D01*
G01X540600Y158400D01*
X541410Y159480D01*
X541670D01*
X546980D01*
Y80750D01*
X562750Y64980D01*
X575250D01*
X576850Y66580D01*
X577480Y66320D01*
Y62510D01*
X576990D01*
Y45490D01*
X623640D01*
X624350Y44160D01*
X624180Y43900D01*
G03X630000Y32990I5820J-3903D01*
G01X644000D01*
G03X649820Y43900I0J7007D01*
G01X649650Y44160D01*
X650360Y45490D01*
X663800D01*
X664540Y44220D01*
X664400Y43970D01*
G03X676600I6100J-3470D01*
G01X676460Y44220D01*
X677200Y45490D01*
X689010D01*
Y62510D01*
X678520D01*
Y64250D01*
X685020Y70750D01*
Y105250D01*
X684620Y105650D01*
X684710Y105940D01*
G03X683690Y112110I-6710J2060D01*
G01X683510Y112370D01*
X684200Y113730D01*
X688980D01*
Y80910D01*
G03X699020I5020J-4910D01*
G01Y99820D01*
X699650Y100080D01*
X784750Y14980D01*
X964250D01*
X968900Y19630D01*
X969240Y19450D01*
G03X964450Y24240I5760J10550D01*
G01X964630Y23900D01*
X961750Y21020D01*
X940010D01*
X939330Y22410D01*
X939520Y22660D01*
G03X920480I-9520J7340D01*
G01X920670Y22410D01*
X919990Y21020D01*
X810010D01*
X809330Y22410D01*
X809520Y22660D01*
G03X803390Y41530I-9520J7338D01*
G01X803020Y41640D01*
Y46750D01*
X809020Y52750D01*
Y73250D01*
X803020Y79250D01*
Y89730D01*
X804550D01*
Y110270D01*
X803020D01*
Y122750D01*
X817250Y136980D01*
X1331250D01*
X1347020Y152750D01*
Y207250D01*
X1301250Y253020D01*
X1247050D01*
X1246450Y254560D01*
X1246710Y254800D01*
G03X1248340Y256980I-4700J5214D01*
G01X1304750D01*
X1350980Y210750D01*
Y149250D01*
X1334750Y133020D01*
X1082750D01*
X1070060Y120330D01*
Y112550D01*
X1067890D01*
Y111080D01*
X1066950D01*
Y104920D01*
X1067890D01*
Y100550D01*
X1065040D01*
X1064950Y100590D01*
G03X1060890I-2030J-4590D01*
G01X1060800Y100550D01*
X1057730D01*
Y91450D01*
X1057900D01*
Y85000D01*
X985920Y13020D01*
X520080D01*
G37*
G36*
G01X264550Y203710D02*
Y207420D01*
X265530Y208230D01*
X265760Y208180D01*
G03X272100Y210170I1317J6898D01*
G01X272250Y210320D01*
X273400Y210330D01*
X278880Y204850D01*
X278620Y204220D01*
X265950D01*
X265180Y203450D01*
X264550Y203710D01*
G37*
G36*
G01X232520Y190510D02*
Y199730D01*
X239480D01*
Y190520D01*
X235480D01*
Y190510D01*
X232520D01*
G37*
G36*
G01X281250Y211020D02*
X279020Y213250D01*
Y221250D01*
X273250Y227020D01*
X254750D01*
X250500Y222770D01*
X249000Y223430D01*
X249010Y223770D01*
G03X242000Y231010I-7010J226D01*
G01X230000D01*
G03X223970Y227570I0J-7005D01*
G01X223820Y227320D01*
X223020D01*
Y228750D01*
X227250Y232980D01*
X315820D01*
X316080Y232350D01*
X310750Y227020D01*
X290750D01*
X286980Y223250D01*
Y213250D01*
X284750Y211020D01*
X281250D01*
G37*
G36*
G01X287120Y204850D02*
X293020Y210750D01*
Y220750D01*
X293250Y220980D01*
X309820D01*
X310080Y220350D01*
X293950Y204220D01*
X287380D01*
X287120Y204850D01*
G37*
G36*
G01X665250Y721020D02*
X639250Y747020D01*
X627250D01*
X623020Y751250D01*
Y752630D01*
X636270D01*
Y781670D01*
X635020D01*
Y788080D01*
X625400Y797700D01*
X625660Y798330D01*
X636270D01*
Y827370D01*
X625020D01*
Y832080D01*
X586080Y871020D01*
X457920D01*
X412920Y826020D01*
X338250D01*
X325020Y839250D01*
Y867250D01*
X321250Y871020D01*
X298980D01*
Y844750D01*
X304950Y838780D01*
Y832920D01*
X304980D01*
Y826110D01*
X301430D01*
Y815890D01*
X305160D01*
Y814920D01*
X318080D01*
Y814980D01*
X339020D01*
Y815980D01*
X417080D01*
X462080Y860980D01*
X581920D01*
X614900Y828000D01*
X614640Y827370D01*
X603730D01*
Y798330D01*
X606980D01*
Y790750D01*
X615430Y782300D01*
X615170Y781670D01*
X605020D01*
Y786080D01*
X595020Y796080D01*
Y798330D01*
X596270D01*
Y827370D01*
X583730D01*
Y799020D01*
X576270D01*
Y827370D01*
X565020D01*
Y848080D01*
X554080Y859020D01*
X465920D01*
X409920Y803020D01*
X290080D01*
X277020Y816080D01*
Y875920D01*
X308080Y906980D01*
X430080D01*
X461020Y937920D01*
Y993920D01*
X494080Y1026980D01*
X670080D01*
X696080Y1052980D01*
X878080D01*
X910080Y1084980D01*
X1525820D01*
X1526080Y1084350D01*
X1520980Y1079250D01*
Y1016750D01*
X1532840Y1004890D01*
X1532580Y1004260D01*
X1520010D01*
X1513250Y1011020D01*
X1500980D01*
Y1010550D01*
X1491730D01*
Y1009020D01*
X1486340D01*
G03Y1002980I-6340J-3020D01*
G01X1491730D01*
Y1001450D01*
X1500980D01*
Y997080D01*
X1500950D01*
Y990920D01*
X1500980D01*
Y985080D01*
X1500950D01*
Y978920D01*
X1500980D01*
Y976980D01*
X1518980D01*
Y966750D01*
X1518990Y966740D01*
Y963740D01*
X1521990D01*
X1522550Y963180D01*
X1522290Y962550D01*
X1515730D01*
Y961020D01*
X1510080D01*
Y964080D01*
X1497160D01*
Y963110D01*
X1494840D01*
Y964080D01*
X1481920D01*
Y961020D01*
X1468750D01*
X1418750Y911020D01*
X1414800D01*
X1414540Y911650D01*
X1423020Y920130D01*
Y947730D01*
X1424550D01*
Y960060D01*
X1427920D01*
Y955160D01*
X1428890D01*
Y951430D01*
X1439110D01*
Y955160D01*
X1440080D01*
Y968080D01*
X1427920D01*
Y966100D01*
X1424550D01*
Y968270D01*
X1413020D01*
Y1050750D01*
X1424250Y1061980D01*
X1434980D01*
Y1055480D01*
X1464020D01*
Y1074520D01*
X1434980D01*
Y1068020D01*
X1421750D01*
X1406980Y1053250D01*
Y968270D01*
X1395450D01*
Y966100D01*
X1392080D01*
Y968080D01*
X1379920D01*
Y965020D01*
X1371250D01*
X1357020Y979250D01*
Y1069250D01*
X1343250Y1083020D01*
X1288750D01*
X1258750Y1053020D01*
X1238750D01*
X1216980Y1031250D01*
Y906750D01*
X1224980Y898750D01*
Y865250D01*
X1216750Y857020D01*
X1185510D01*
Y864730D01*
X1189730D01*
Y863450D01*
X1208650D01*
G03Y872550I5350J4550D01*
G01X1189730D01*
Y870770D01*
X1185510D01*
Y883230D01*
X1189730D01*
Y881450D01*
X1200110D01*
Y882920D01*
X1201050D01*
Y889080D01*
X1200110D01*
Y891450D01*
X1202960D01*
X1203050Y891410D01*
G03X1205080Y890980I2030J4577D01*
G01X1209090D01*
G03X1211630Y902610I4909J5020D01*
G01X1211380Y902520D01*
X1210270Y903300D01*
Y910550D01*
X1199890D01*
Y909080D01*
X1198950D01*
Y902920D01*
X1199890D01*
Y900550D01*
X1189730D01*
Y900020D01*
X1186330D01*
X1186140Y899820D01*
X1185510Y900090D01*
Y963510D01*
X1162990D01*
Y893040D01*
X1161560Y892380D01*
X1161310Y892590D01*
G03Y881910I-4560J-5340D01*
G01X1161560Y882120D01*
X1162990Y881460D01*
Y857020D01*
X1117010D01*
Y915730D01*
X1125680D01*
X1125790Y915680D01*
G03X1130950Y916550I1967J4071D01*
G01X1160520Y946130D01*
Y967930D01*
X1162200D01*
Y992070D01*
X1159020D01*
Y993280D01*
X1160510D01*
Y1017300D01*
X1127490D01*
Y993280D01*
X1136980D01*
Y990750D01*
X1138980Y988750D01*
Y955250D01*
X1136750Y953020D01*
X1121250D01*
X1119000Y955270D01*
X1117010D01*
Y963510D01*
X1094490D01*
Y955270D01*
X1090550D01*
Y958270D01*
X1081450D01*
Y948110D01*
X1079080D01*
Y949050D01*
X1074210D01*
X1073950Y949680D01*
X1079020Y954750D01*
Y1025250D01*
X1049250Y1055020D01*
X890750D01*
X880750Y1045020D01*
X704750D01*
X676980Y1017250D01*
Y991020D01*
X660750D01*
X644750Y975020D01*
X621250D01*
X615250Y981020D01*
X598750D01*
X592980Y975250D01*
Y964750D01*
X598080Y959650D01*
X597820Y959020D01*
X587800D01*
X587210Y960550D01*
X587460Y960790D01*
G03X570850Y975040I-7459J8112D01*
G01X570700Y974810D01*
X569300D01*
X569150Y975040D01*
G03X565030Y959100I-9151J-6137D01*
G01X565360Y959270D01*
X566980Y957650D01*
Y954750D01*
X572750Y948980D01*
X653880D01*
Y947080D01*
X652950D01*
Y940920D01*
X653880D01*
Y939020D01*
X474750D01*
X430750Y895020D01*
X367470D01*
X352980Y880530D01*
Y863250D01*
X350650Y860920D01*
X350020Y861180D01*
Y867250D01*
G03X347000Y870270I-3020J0D01*
G01X333000D01*
G03X329980Y867250I0J-3020D01*
G01Y847750D01*
G03X333000Y844730I3020J0D01*
G01X347000D01*
G03X350020Y847750I0J3020D01*
G01Y849600D01*
X351550Y850200D01*
X351790Y849940D01*
G03X351860Y849860I2308J1948D01*
G01X353860Y847860D01*
G03X356000Y846980I2140J2162D01*
G01X361250D01*
X361650Y847380D01*
X363050Y847050D01*
X363140Y846780D01*
G03X366000Y844730I2860J970D01*
G01X380000D01*
G03X383020Y847750I0J3020D01*
G01Y867250D01*
G03X380000Y870270I-3020J0D01*
G01X366000D01*
G03X364530Y869890I0J-3033D01*
G01X364280Y869750D01*
X363020Y870490D01*
Y874750D01*
X373250Y884980D01*
X435330D01*
X479330Y928980D01*
X642990D01*
Y921010D01*
X633990D01*
Y917520D01*
X626280D01*
Y918560D01*
X615880D01*
Y917080D01*
X614950D01*
Y910020D01*
X598330D01*
X587980Y899670D01*
Y882330D01*
X596330Y873980D01*
X609430D01*
Y864890D01*
X613160D01*
Y863920D01*
X614600D01*
Y860300D01*
X628980Y845920D01*
X628990Y845720D01*
G03X635720Y838990I7010J280D01*
G01X635920Y838980D01*
X641000Y833900D01*
X645450D01*
Y833730D01*
X654550D01*
Y834900D01*
X658590D01*
X662020Y838330D01*
Y840250D01*
G03X664320Y842950I-4019J5753D01*
G01X669080D01*
Y843890D01*
X672920D01*
Y842950D01*
X679080D01*
Y843890D01*
X681450D01*
Y841040D01*
X681410Y840950D01*
G03Y836890I4590J-2030D01*
G01X681450Y836800D01*
Y833730D01*
X689270D01*
G03X699920Y835140I4731J5189D01*
G01Y833920D01*
X712840D01*
Y834890D01*
X716570D01*
Y845110D01*
X712840D01*
Y846080D01*
X704190D01*
X701450Y848820D01*
X701710Y849450D01*
X722270D01*
Y852580D01*
X729100Y859410D01*
Y861440D01*
X730280D01*
Y870560D01*
X729100D01*
Y872590D01*
X726920Y874770D01*
X726950Y875020D01*
G03X727000Y875530I-6954J939D01*
G01X727020Y875720D01*
X727510Y876220D01*
X734530Y869200D01*
Y797020D01*
X732750D01*
X729650Y793920D01*
X729020Y794180D01*
Y795250D01*
X725250Y799020D01*
X716270D01*
Y827370D01*
X703730D01*
Y798330D01*
X705170D01*
X705430Y797700D01*
X696400Y788670D01*
X695240Y788680D01*
X695090Y788840D01*
G03X689780Y791020I-5089J-4839D01*
G01X689430Y791010D01*
X688780Y792510D01*
X693020Y796750D01*
Y798330D01*
X696270D01*
Y827370D01*
X683730D01*
Y798330D01*
X685170D01*
X685430Y797700D01*
X676980Y789250D01*
Y781670D01*
X663020D01*
Y782750D01*
X673020Y792750D01*
Y798330D01*
X676270D01*
Y827370D01*
X663730D01*
Y798330D01*
X666980D01*
Y795250D01*
X656980Y785250D01*
Y781670D01*
X643730D01*
Y752630D01*
X646980D01*
Y741830D01*
X667160Y721650D01*
X666900Y721020D01*
X665250D01*
G37*
G36*
G01X308000Y840000D02*
X302000Y846000D01*
Y868000D01*
X320000D01*
X322000Y866000D01*
Y838000D01*
X336000Y824000D01*
Y818000D01*
X310000D01*
X308000Y820000D01*
Y840000D01*
G37*
G36*
G01X351250Y201020D02*
X351020Y201250D01*
Y202750D01*
X351250Y202980D01*
X363250D01*
X378820Y218550D01*
X379450Y218290D01*
Y201020D01*
X351250D01*
G37*
G36*
G01X373000Y229270D02*
X369920Y232350D01*
X370180Y232980D01*
X373250D01*
X377020Y236750D01*
Y240750D01*
X377250Y240980D01*
X380750D01*
X380980Y240750D01*
Y236750D01*
X384080Y233650D01*
X383820Y233020D01*
X376750D01*
X373000Y229270D01*
G37*
G36*
G01X389250Y227020D02*
X389020Y227250D01*
Y229250D01*
X385920Y232350D01*
X386180Y232980D01*
X391250D01*
X395020Y236750D01*
Y240750D01*
X395250Y240980D01*
X411820D01*
X412080Y240350D01*
X408980Y237250D01*
Y227250D01*
X408750Y227020D01*
X407250D01*
X407020Y227250D01*
Y233250D01*
X403250Y237020D01*
X396750D01*
X392980Y233250D01*
Y227250D01*
X392750Y227020D01*
X389250D01*
G37*
G36*
G01X412550Y201710D02*
Y220270D01*
X411430D01*
X411170Y220900D01*
X414350Y224080D01*
X414980Y223820D01*
Y203250D01*
X413180Y201450D01*
X412550Y201710D01*
G37*
G36*
G01X453310Y211160D02*
X453160Y211310D01*
Y233310D01*
X451980Y234490D01*
X452180Y234980D01*
X455820D01*
X456020Y234490D01*
X454840Y233310D01*
Y211310D01*
X454690Y211160D01*
X453310D01*
G37*
G36*
G01X455250Y187020D02*
X455020Y187250D01*
Y201250D01*
X451920Y204350D01*
X452180Y204980D01*
X457250D01*
X461020Y208750D01*
Y230750D01*
X461250Y230980D01*
X462750D01*
X462980Y230750D01*
Y208750D01*
X466750Y204980D01*
X473250D01*
X477020Y208750D01*
Y230750D01*
X477250Y230980D01*
X478750D01*
X478980Y230750D01*
Y208750D01*
X482750Y204980D01*
X489250D01*
X492350Y208080D01*
X492980Y207820D01*
Y207250D01*
X483650Y197920D01*
X483020Y198180D01*
Y199250D01*
X479250Y203020D01*
X460750D01*
X456980Y199250D01*
Y187250D01*
X456750Y187020D01*
X455250D01*
G37*
G36*
G01X425920Y257650D02*
X449020Y280750D01*
Y332750D01*
X471250Y354980D01*
X521820D01*
X522080Y354350D01*
X516980Y349250D01*
Y347370D01*
X503730D01*
Y319160D01*
G03X503150Y317520I6276J-3142D01*
G01X503100Y317310D01*
X502090Y316710D01*
X501880Y316760D01*
G03X495290Y304800I-1875J-6762D01*
G01X495550Y304560D01*
X494950Y303020D01*
X462750D01*
X456980Y297250D01*
Y278750D01*
X464750Y270980D01*
X497020D01*
Y302450D01*
X498050Y303250D01*
X498290Y303190D01*
G03X506850Y308480I1707J6809D01*
G01X506900Y308690D01*
X507910Y309290D01*
X508120Y309240D01*
G03X508610Y309120I1913J6752D01*
G01X508910Y309060D01*
X509340Y307610D01*
X506980Y305250D01*
Y301670D01*
X503730D01*
Y272630D01*
X516270D01*
Y301670D01*
X513020D01*
Y302750D01*
X522360Y312090D01*
X522990Y311830D01*
Y304000D01*
G03X523730Y300870I6990J0D01*
G01Y272630D01*
X536980D01*
Y261250D01*
X532750Y257020D01*
X426180D01*
X425920Y257650D01*
G37*
G36*
G01X542000Y106000D02*
Y82000D01*
X530000D01*
X522000Y74000D01*
X518000D01*
X516000Y76000D01*
Y98000D01*
X518000Y100000D01*
X524000D01*
X530000Y106000D01*
X542000D01*
G37*
G36*
G01X526000Y58000D02*
X516000D01*
Y66000D01*
X522000D01*
X532000Y76000D01*
X546000D01*
X552000Y70000D01*
Y64000D01*
X548000Y60000D01*
X528000D01*
X526000Y58000D01*
G37*
G36*
G01X504000Y170350D02*
Y168000D01*
X526000Y146000D01*
Y132000D01*
X522000Y128000D01*
Y110000D01*
X516000D01*
Y142000D01*
X494000Y164000D01*
Y194000D01*
X508000Y208000D01*
X528000D01*
Y182000D01*
X526000Y180000D01*
X513640D01*
G03X503930Y170470I-3641J-6002D01*
G01X504000Y170350D01*
G37*
G36*
G01X529020Y134180D02*
Y147250D01*
X517120Y159150D01*
X517690Y159720D01*
X517970Y159650D01*
G03X519250Y159480I1280J4734D01*
G01X526250D01*
X527380Y158350D01*
X527290Y158060D01*
G03X530980Y149660I6711J-2063D01*
G01Y135250D01*
X529650Y133920D01*
X529020Y134180D01*
G37*
G36*
G01X485310Y211160D02*
X485160Y211310D01*
Y233310D01*
X483980Y234490D01*
X484180Y234980D01*
X487820D01*
X488020Y234490D01*
X486840Y233310D01*
Y211310D01*
X486690Y211160D01*
X485310D01*
G37*
G36*
G01X469310D02*
X469160Y211310D01*
Y233310D01*
X467980Y234490D01*
X468180Y234980D01*
X471820D01*
X472020Y234490D01*
X470840Y233310D01*
Y211310D01*
X470690Y211160D01*
X469310D01*
G37*
G36*
G01X481250Y169020D02*
X481020Y169250D01*
Y183250D01*
X477250Y187020D01*
X469250D01*
X469020Y187250D01*
Y188750D01*
X469250Y188980D01*
X479250D01*
X482350Y192080D01*
X482980Y191820D01*
Y169250D01*
X482750Y169020D01*
X481250D01*
G37*
G36*
G01X494000Y274000D02*
X466000D01*
X460000Y280000D01*
Y296000D01*
X464000Y300000D01*
X494000D01*
Y274000D01*
G37*
G36*
G01X550000Y169380D02*
Y178000D01*
X548000Y180000D01*
X542000D01*
X540000Y182000D01*
Y208000D01*
X556000D01*
X578000Y186000D01*
Y157020D01*
G03X571350Y147750I0J-7020D01*
G01X571450Y147450D01*
X564000Y140000D01*
Y101770D01*
G03X563800Y90380I4001J-5767D01*
G01X564000Y90230D01*
Y90000D01*
X576000Y78000D01*
Y70000D01*
X574000Y68000D01*
X564000D01*
X550000Y82000D01*
Y159620D01*
X550350Y159740D01*
G03Y169260I-1600J4760D01*
G01X550000Y169380D01*
G37*
G36*
G01X571020Y122700D02*
Y130170D01*
X571820Y130980D01*
X572030D01*
G03X577650Y142170I-29J7021D01*
G01X578060Y142980D01*
G03X578480Y143000I-124J7017D01*
G01X578720Y143010D01*
X580980Y140750D01*
Y122700D01*
X579710Y121970D01*
X579460Y122110D01*
G03X572540I-3460J-6110D01*
G01X572290Y121970D01*
X571020Y122700D01*
G37*
G36*
G01X537920Y247650D02*
X553020Y262750D01*
Y272630D01*
X556980D01*
Y265250D01*
X538750Y247020D01*
X538180D01*
X537920Y247650D01*
G37*
G36*
G01X541920Y241650D02*
X563020Y262750D01*
Y272630D01*
X566980D01*
Y265250D01*
X542750Y241020D01*
X542180D01*
X541920Y241650D01*
G37*
G36*
G01X656340Y198610D02*
X656050Y198700D01*
G03X654030Y199010I-2062J-6699D01*
G01X653820D01*
X653020Y199820D01*
Y272630D01*
X656270D01*
Y301670D01*
X643020D01*
Y302750D01*
X653020Y312750D01*
Y318330D01*
X656270D01*
Y347370D01*
X643730D01*
Y318330D01*
X646980D01*
Y315250D01*
X636980Y305250D01*
Y301670D01*
X623020D01*
Y304750D01*
X633020Y314750D01*
Y318330D01*
X636270D01*
Y347370D01*
X623730D01*
Y318330D01*
X626980D01*
Y317250D01*
X617640Y307910D01*
X617010Y308170D01*
Y316000D01*
G03X616270Y319130I-6990J0D01*
G01Y347370D01*
X603730D01*
Y319130D01*
G03X602990Y316000I6250J-3130D01*
G01Y313260D01*
X596980Y307250D01*
Y301670D01*
X583020D01*
Y302750D01*
X593020Y312750D01*
Y318330D01*
X596270D01*
Y347370D01*
X583730D01*
Y318330D01*
X586980D01*
Y315250D01*
X576980Y305250D01*
Y301670D01*
X564830D01*
X564570Y302300D01*
X573020Y310750D01*
Y318330D01*
X576270D01*
Y347370D01*
X563730D01*
Y318330D01*
X566980D01*
Y313250D01*
X556980Y303250D01*
Y301670D01*
X544830D01*
X544570Y302300D01*
X553020Y310750D01*
Y318330D01*
X556270D01*
Y347370D01*
X543730D01*
Y318330D01*
X546980D01*
Y313250D01*
X537640Y303910D01*
X537010Y304170D01*
Y316000D01*
G03X536270Y319130I-6990J0D01*
G01Y347370D01*
X524530D01*
X524270Y348000D01*
X527250Y350980D01*
X710750D01*
X713730Y348000D01*
X713470Y347370D01*
X703730D01*
Y318330D01*
X706980D01*
Y317250D01*
X694980Y305250D01*
Y301670D01*
X683020D01*
Y302750D01*
X693020Y312750D01*
Y318330D01*
X696270D01*
Y347370D01*
X683730D01*
Y318330D01*
X686980D01*
Y315250D01*
X676980Y305250D01*
Y301670D01*
X665020D01*
Y304750D01*
X673020Y312750D01*
Y318330D01*
X676270D01*
Y347370D01*
X663730D01*
Y318330D01*
X666980D01*
Y315250D01*
X658980Y307250D01*
Y201250D01*
X656340Y198610D01*
G37*
G36*
G01X656000Y540000D02*
X652000D01*
Y554000D01*
X664000D01*
Y506000D01*
X654000Y496000D01*
Y464000D01*
X662000Y456000D01*
X700000D01*
X702000Y454000D01*
Y444000D01*
X700000Y442000D01*
X694000D01*
X692000Y444000D01*
X660000D01*
X652000Y436000D01*
X566000D01*
X556000Y446000D01*
Y474000D01*
X566000Y484000D01*
X600000D01*
Y474000D01*
X602000Y472000D01*
X638000D01*
X642000Y476000D01*
Y516000D01*
X634000D01*
Y524000D01*
X656000D01*
Y540000D01*
G37*
G36*
G01X560000Y778000D02*
X562000Y780000D01*
X592000D01*
Y734000D01*
X588000Y730000D01*
X566000D01*
X560000Y736000D01*
Y778000D01*
G37*
G36*
G01X587920Y788980D02*
X593250Y783650D01*
X592990Y783020D01*
X575020D01*
Y784080D01*
X570750Y788350D01*
X571010Y788980D01*
X587920D01*
G37*
G36*
G01X641160Y124320D02*
X644730Y120750D01*
Y99000D01*
X646980Y96750D01*
Y82110D01*
X645080D01*
Y83050D01*
X638920D01*
Y82110D01*
X635080D01*
Y83050D01*
X628920D01*
Y82110D01*
X627020D01*
Y112750D01*
X635390Y121120D01*
X635530Y121150D01*
G03X639770Y124010I-1535J6848D01*
G01X639910Y124200D01*
X641160Y124320D01*
G37*
G36*
G01X622980Y133250D02*
Y132950D01*
G03X617450Y135000I-4980J-4949D01*
G03X611520Y140950I-6951J-997D01*
G01X611210Y140990D01*
X610720Y142450D01*
X623020Y154750D01*
Y272630D01*
X626980D01*
Y137250D01*
X622980Y133250D01*
G37*
G36*
G01X635950Y134750D02*
X635710Y134810D01*
G03X634030Y135020I-1704J-6810D01*
G01X633820D01*
X633020Y135830D01*
Y272630D01*
X636980D01*
Y135550D01*
X635950Y134750D01*
G37*
G36*
G01X591020Y130700D02*
Y138750D01*
X603020Y150750D01*
Y272630D01*
X606980D01*
Y153250D01*
X592980Y139250D01*
Y130340D01*
G03X592540Y130110I3031J-6334D01*
G01X592290Y129970D01*
X591020Y130700D01*
G37*
G36*
G01X590360Y101910D02*
X587020Y105250D01*
Y117820D01*
X587650Y118080D01*
X591390Y114340D01*
X591300Y114050D01*
G03X590990Y112000I6623J-2050D01*
G01Y102170D01*
X590360Y101910D01*
G37*
G36*
G01X643020Y198180D02*
Y272630D01*
X646980D01*
Y201250D01*
X643650Y197920D01*
X643020Y198180D01*
G37*
G36*
G01X613020Y154180D02*
Y272630D01*
X616980D01*
Y157250D01*
X613650Y153920D01*
X613020Y154180D01*
G37*
G36*
G01X670000Y390000D02*
X592000D01*
Y420000D01*
X650000D01*
X664000Y434000D01*
Y440000D01*
X686000D01*
X692000Y434000D01*
X700000D01*
X702000Y432000D01*
Y422000D01*
X670000Y390000D01*
G37*
G36*
G01X620000Y528000D02*
X592000D01*
Y554000D01*
X602000D01*
Y538000D01*
X604000Y536000D01*
X618000D01*
X620000Y534000D01*
Y528000D01*
G37*
G36*
G01X632000Y552000D02*
X624000Y560000D01*
X600000D01*
X598000Y562000D01*
Y576000D01*
X600000Y578000D01*
X622000D01*
X646000Y554000D01*
Y538000D01*
X648000Y536000D01*
X652000D01*
Y528000D01*
X634000D01*
X632000Y530000D01*
Y546490D01*
G03Y547510I-7000J510D01*
G01Y552000D01*
G37*
G36*
G01X599670Y882020D02*
X596020Y885670D01*
Y896330D01*
X601670Y901980D01*
X619670D01*
X619900Y902220D01*
X621290Y901910D01*
X621390Y901640D01*
G03X621540Y901260I6600J2386D01*
G01X621070Y900550D01*
X615890D01*
Y899080D01*
X614950D01*
Y892920D01*
X615890D01*
Y889080D01*
X614950D01*
Y882020D01*
X599670D01*
G37*
G36*
G01X628980Y864750D02*
X629380Y864350D01*
X629290Y864060D01*
G03X629000Y862490I6712J-2052D01*
G01X628970Y862160D01*
X627490Y861610D01*
X625810Y863290D01*
X626070Y863920D01*
X626080D01*
Y876080D01*
X626070D01*
X625810Y876710D01*
X626100Y877000D01*
Y881450D01*
X626270D01*
Y882480D01*
X631460D01*
X633360Y884380D01*
X633990Y884120D01*
Y882260D01*
X628980Y877250D01*
Y864750D01*
G37*
G36*
G01X674000Y962000D02*
X600000D01*
X596000Y966000D01*
Y974000D01*
X600000Y978000D01*
X614000D01*
X620000Y972000D01*
X646000D01*
X662000Y988000D01*
X676000D01*
Y964000D01*
X674000Y962000D01*
G37*
G36*
G01X669020Y82120D02*
Y105660D01*
G03X669870Y106140I-3019J6339D01*
G01X670080Y106280D01*
X671310Y105870D01*
X671390Y105630D01*
G03X677970Y100980I6608J2371D01*
G01X678180D01*
X678980Y100170D01*
Y82120D01*
X677080D01*
Y83050D01*
X670920D01*
Y82120D01*
X669020D01*
G37*
G36*
G01X672170Y132100D02*
X665020Y139250D01*
Y146750D01*
X666060Y147790D01*
X667430Y147520D01*
X667530Y147270D01*
G03X673970Y142980I6468J2731D01*
G01X674180D01*
X674980Y142180D01*
Y141970D01*
G03X680010Y135270I7019J32D01*
G01X680370Y135160D01*
Y134270D01*
X679450D01*
Y132100D01*
X672170D01*
G37*
G36*
G01X800510Y59190D02*
G03X778720Y74210I-15500J830D01*
G03X795540Y48600I6279J-14205D01*
G01X796980Y47940D01*
Y41640D01*
X796610Y41530D01*
G03X790480Y22660I3390J-11532D01*
G01X790670Y22410D01*
X789990Y21020D01*
X787250D01*
X705020Y103250D01*
Y174090D01*
X705650Y174350D01*
X714000Y166000D01*
X1296000D01*
X1304000Y174000D01*
Y196000D01*
X1296000Y204000D01*
X714000D01*
X705650Y195650D01*
X705020Y195910D01*
Y204750D01*
X743250Y242980D01*
X1215250D01*
X1233490Y261220D01*
X1234990Y260570D01*
X1234980Y260220D01*
G03X1235190Y258290I7018J-213D01*
G01X1235250Y258040D01*
X1234430Y257010D01*
X1234180Y257020D01*
G03X1240340Y246980I-179J-7019D01*
G01X1298750D01*
X1340980Y204750D01*
Y155250D01*
X1328750Y143020D01*
X814750D01*
X796980Y125250D01*
Y110270D01*
X795450D01*
Y89730D01*
X796980D01*
Y76750D01*
X802980Y70750D01*
Y55250D01*
X800920Y53190D01*
X799400Y54180D01*
G03X800510Y59190I-14400J5818D01*
G37*
G36*
G01X658350Y139920D02*
X649020Y149250D01*
Y173310D01*
X650290Y174050D01*
X650540Y173900D01*
G03X659990Y176350I3461J6099D01*
G01X660110Y176550D01*
X661330Y176750D01*
X661510Y176600D01*
G03X662910Y175700I4469J5413D01*
G01X663080Y175610D01*
X663480Y174610D01*
X663410Y174430D01*
G03X663240Y170120I6590J-2418D01*
G01X663290Y169910D01*
X662690Y168900D01*
X662480Y168850D01*
G03X662610Y155120I1524J-6851D01*
G01X662910Y155060D01*
X663340Y153610D01*
X658980Y149250D01*
Y140180D01*
X658350Y139920D01*
G37*
G36*
G01X672690Y114130D02*
X672610Y114370D01*
G03X663420Y118530I-6609J-2370D01*
G01X663160Y118430D01*
X662020Y119210D01*
Y122750D01*
X665020Y125750D01*
Y129820D01*
X665650Y130080D01*
X669670Y126060D01*
X679450D01*
Y121040D01*
X679410Y120950D01*
G03Y116890I4590J-2030D01*
G01X679450Y116800D01*
Y115810D01*
X678590Y115000D01*
X678380Y115010D01*
G03X674130Y113860I-384J-7010D01*
G01X673920Y113720D01*
X672690Y114130D01*
G37*
G36*
G01X683020Y234180D02*
Y272630D01*
X686980D01*
Y237250D01*
X683650Y233920D01*
X683020Y234180D01*
G37*
G36*
G01X673020Y230180D02*
Y272630D01*
X676980D01*
Y233250D01*
X673650Y229920D01*
X673020Y230180D01*
G37*
G36*
G01X705020Y238180D02*
Y272630D01*
X706980D01*
Y239250D01*
X705650Y237920D01*
X705020Y238180D01*
G37*
G36*
G01X693020D02*
Y272630D01*
X694980D01*
Y239250D01*
X693650Y237920D01*
X693020Y238180D01*
G37*
G36*
G01X665020Y228180D02*
Y272630D01*
X666980D01*
Y229250D01*
X665650Y227920D01*
X665020Y228180D01*
G37*
G36*
G01X706570Y302300D02*
X721020Y316750D01*
Y349250D01*
X715920Y354350D01*
X716180Y354980D01*
X726750D01*
X733730Y348000D01*
X733470Y347370D01*
X723730D01*
Y318330D01*
X726980D01*
Y317250D01*
X716980Y307250D01*
Y301670D01*
X706830D01*
X706570Y302300D01*
G37*
G36*
G01X710000Y442000D02*
X706000D01*
X705020Y442980D01*
Y455250D01*
X701250Y459020D01*
X700980D01*
X700000Y460000D01*
X664000D01*
X662000Y462000D01*
Y482000D01*
X664000Y484000D01*
X682000D01*
X690000Y476000D01*
X728000D01*
X729430Y477430D01*
X729650D01*
Y477650D01*
X744000Y492000D01*
X762000D01*
X766000Y488000D01*
Y484000D01*
X744000Y462000D01*
X718000D01*
X712000Y456000D01*
Y444000D01*
X710000Y442000D01*
G37*
G36*
G01X691250Y479020D02*
X683250Y487020D01*
X662750D01*
X658980Y483250D01*
Y464180D01*
X658350Y463920D01*
X657020Y465250D01*
Y494750D01*
X667020Y504750D01*
Y529820D01*
X667650Y530080D01*
X672750Y524980D01*
X682920D01*
Y524950D01*
X689080D01*
Y524980D01*
X692980D01*
Y520980D01*
X694890D01*
Y519430D01*
X705110D01*
Y520980D01*
X709440D01*
Y519880D01*
X710920D01*
Y518950D01*
X717080D01*
Y519880D01*
X718560D01*
Y520980D01*
X753820D01*
X754080Y520350D01*
X752980Y519250D01*
Y517080D01*
X752950D01*
Y510920D01*
X752980D01*
Y507080D01*
X752950D01*
Y500920D01*
X752980D01*
Y498750D01*
X756080Y495650D01*
X755820Y495020D01*
X742750D01*
X730300Y482570D01*
X714350D01*
Y479020D01*
X707650D01*
Y482570D01*
X692350D01*
Y479020D01*
X691250D01*
G37*
G36*
G01X760000Y524000D02*
X705110D01*
Y524570D01*
X696000D01*
Y552000D01*
X692000Y556000D01*
X682000D01*
Y560000D01*
X692000D01*
X696000Y564000D01*
Y570000D01*
X692000Y574000D01*
X682000D01*
X678000Y578000D01*
Y604000D01*
X680000Y606000D01*
X700000D01*
X702000Y604000D01*
Y588000D01*
X706000Y584000D01*
X740000D01*
X744000Y580000D01*
Y560000D01*
X738000D01*
Y576000D01*
X736000Y578000D01*
X724000D01*
X722000Y576000D01*
X706000D01*
X700000Y570000D01*
Y544000D01*
X712000Y532000D01*
X758000D01*
X768000Y542000D01*
X776000D01*
X802000Y568000D01*
X816000D01*
Y552000D01*
X798000Y534000D01*
X770000D01*
X760000Y524000D01*
G37*
G36*
G01X722350Y547920D02*
X715250Y555020D01*
X703020D01*
Y561960D01*
X704080Y562760D01*
X704330Y562690D01*
G03X705060Y562530I1436J4806D01*
G01X705220Y562500D01*
X706750Y560980D01*
X720750D01*
X722980Y558750D01*
Y548180D01*
X722350Y547920D01*
G37*
G36*
G01X754000Y576000D02*
X742000Y588000D01*
X722000D01*
X716000Y594000D01*
Y676000D01*
X748000D01*
X752000Y672000D01*
Y652000D01*
X756000Y648000D01*
X764000D01*
Y546000D01*
X754000Y536000D01*
X714000D01*
X704000Y546000D01*
Y552000D01*
X714000D01*
X722000Y544000D01*
X750000D01*
X754000Y548000D01*
Y548350D01*
X754070Y548470D01*
G03X754000Y555640I-6070J3526D01*
G01Y576000D01*
G37*
G36*
G01X690000Y528000D02*
X674000D01*
X670000Y532000D01*
Y554000D01*
X664000Y560000D01*
X648000D01*
Y628000D01*
X650890D01*
Y627430D01*
X661110D01*
Y628000D01*
X662000D01*
X666000Y632000D01*
Y676000D01*
X700000D01*
Y616000D01*
X698000Y614000D01*
X672000D01*
X666000Y608000D01*
Y582000D01*
X678000Y570000D01*
X690000D01*
Y564000D01*
X678000D01*
X676000Y562000D01*
Y556000D01*
X680000Y552000D01*
X690000D01*
Y528000D01*
G37*
G36*
G01X708000Y564000D02*
X706000Y566000D01*
Y570000D01*
X708000Y572000D01*
X724000D01*
X726000Y574000D01*
X734000D01*
Y550000D01*
X726000D01*
Y554360D01*
G03X716360Y564000I-6000J3640D01*
G01X708000D01*
G37*
G36*
G01X685250Y733020D02*
X673020Y745250D01*
Y752630D01*
X676980D01*
Y744750D01*
X688080Y733650D01*
X687820Y733020D01*
X685250D01*
G37*
G36*
G01X679250Y729020D02*
X663020Y745250D01*
Y752630D01*
X666980D01*
Y742750D01*
X680080Y729650D01*
X679820Y729020D01*
X679250D01*
G37*
G36*
G01X672330Y725020D02*
X653020Y744330D01*
Y752630D01*
X656980D01*
Y742750D01*
X674080Y725650D01*
X673820Y725020D01*
X672330D01*
G37*
G36*
G01X703610Y748660D02*
X701020Y751250D01*
Y784750D01*
X713020Y796750D01*
Y798330D01*
X715170D01*
X715430Y797700D01*
X712980Y795250D01*
Y782750D01*
X713430Y782300D01*
X713170Y781670D01*
X703730D01*
Y752630D01*
X705100D01*
X705860Y751410D01*
X705730Y751150D01*
G03X705120Y749390I6268J-3158D01*
G01X705060Y749090D01*
X703610Y748660D01*
G37*
G36*
G01X693250Y737020D02*
X688780Y741490D01*
X689430Y742990D01*
X689780Y742980D01*
G03X695860Y746140I214J7017D01*
G01X695990Y746340D01*
X697260Y746470D01*
X706080Y737650D01*
X705820Y737020D01*
X693250D01*
G37*
G36*
G01X697010Y857020D02*
Y871990D01*
X706010D01*
Y875480D01*
X712990D01*
X713050Y875040D01*
G03X718550Y869130I6954J957D01*
G01X718950Y869050D01*
Y862920D01*
X719880D01*
Y861570D01*
X716860Y858550D01*
X701730D01*
Y857020D01*
X697010D01*
G37*
G36*
G01X648010Y872010D02*
Y915990D01*
X691990D01*
Y872010D01*
X648010D01*
G37*
G36*
G01X660370Y852610D02*
X660120Y852690D01*
G03X655880I-2120J-6690D01*
G01X655630Y852610D01*
X654550Y853410D01*
Y854270D01*
X653520D01*
Y857990D01*
X664120D01*
X664380Y857360D01*
X662480Y855460D01*
Y854270D01*
X661450D01*
Y853410D01*
X660370Y852610D01*
G37*
G36*
G01X683020Y940180D02*
Y947250D01*
X671920Y958350D01*
X672180Y958980D01*
X675250D01*
X679020Y962750D01*
Y964920D01*
X679050D01*
Y971080D01*
X679020D01*
Y974980D01*
X690750D01*
X698750Y966980D01*
X739250D01*
X767250Y994980D01*
X814750D01*
X828080Y981650D01*
X827820Y981020D01*
X818750D01*
X811240Y973510D01*
X809910Y973720D01*
X809800Y973950D01*
G03X790850Y975040I-9797J-5049D01*
G01X790700Y974810D01*
X789300D01*
X789150Y975040D01*
G03X783620Y958490I-9150J-6141D01*
G01X783870Y958580D01*
X784980Y957790D01*
Y957250D01*
X779950Y952220D01*
X695950D01*
X683650Y939920D01*
X683020Y940180D01*
G37*
G36*
G01X719250Y745020D02*
X718620Y745650D01*
X718710Y745940D01*
G03X719020Y748220I-6708J2073D01*
G01X719010Y748570D01*
X720510Y749220D01*
X722750Y746980D01*
X735250D01*
X741020Y752750D01*
Y786750D01*
X744570Y790300D01*
Y873700D01*
X727920Y890350D01*
X728180Y890980D01*
X730750D01*
X742750Y878980D01*
X746960D01*
Y874010D01*
X754980D01*
Y870750D01*
X760750Y864980D01*
X767720D01*
Y863440D01*
X778120D01*
Y864920D01*
X779050D01*
Y871080D01*
X778120D01*
Y872560D01*
X767720D01*
Y871020D01*
X763250D01*
X761020Y873250D01*
Y874010D01*
X769040D01*
Y890980D01*
X775250D01*
X786340Y902060D01*
X786960Y901800D01*
Y898010D01*
X809040D01*
Y913990D01*
X801020D01*
Y917250D01*
X795250Y923020D01*
X786280D01*
Y924560D01*
X775880D01*
Y923080D01*
X774950D01*
Y916920D01*
X775880D01*
Y915440D01*
X786280D01*
Y916980D01*
X792750D01*
X794980Y914750D01*
Y913990D01*
X786960D01*
Y909020D01*
X784750D01*
X772750Y897020D01*
X740250D01*
X735250Y902020D01*
X717560D01*
X717300Y902650D01*
X718570Y903920D01*
X726840D01*
Y904890D01*
X730570D01*
Y915110D01*
X726840D01*
Y916080D01*
X716100D01*
Y916910D01*
X718640Y919450D01*
X724110D01*
Y920920D01*
X725050D01*
Y927080D01*
X724110D01*
Y930920D01*
X725050D01*
Y937080D01*
X724110D01*
Y938550D01*
X721040D01*
X720950Y938590D01*
G03X718920Y939020I-2030J-4577D01*
G01X711920D01*
X702980Y930080D01*
Y927990D01*
G03X701040Y922160I5020J-4908D01*
G01X701070Y921930D01*
X700260Y921010D01*
X697010D01*
Y930010D01*
X693020D01*
Y934750D01*
X700450Y942180D01*
X784110D01*
X795020Y953090D01*
Y957790D01*
X796130Y958580D01*
X796380Y958490D01*
G03X809120Y962710I3621J10409D01*
G01X809330Y963020D01*
X810980Y962510D01*
Y942750D01*
X820750Y932980D01*
X822920D01*
Y932950D01*
X829080D01*
Y932980D01*
X833820D01*
X834080Y932350D01*
X832980Y931250D01*
Y916750D01*
X836750Y912980D01*
X867250D01*
X885020Y930750D01*
Y960120D01*
X886410Y960800D01*
X886660Y960610D01*
G03X897460Y968750I4263J5579D01*
G01X897930Y969450D01*
X898530D01*
X899500Y968480D01*
X908000D01*
Y966400D01*
X926000D01*
Y980600D01*
X920020D01*
Y981750D01*
X921250Y982980D01*
X969250D01*
X975020Y988750D01*
Y993280D01*
X976980D01*
Y989250D01*
X969980Y982250D01*
Y980600D01*
X964000D01*
Y977020D01*
X956750D01*
X952980Y973250D01*
Y947250D01*
X944750Y939020D01*
X899190D01*
X817190Y857020D01*
X764750D01*
X754980Y847250D01*
Y791250D01*
X746980Y783250D01*
Y781670D01*
X743730D01*
Y752630D01*
X756270D01*
Y781670D01*
X754830D01*
X754570Y782300D01*
X760000Y787730D01*
X765430Y782300D01*
X765170Y781670D01*
X763730D01*
Y752630D01*
X775470D01*
X775730Y752000D01*
X768750Y745020D01*
X719250D01*
G37*
G36*
G01X1056000Y959180D02*
Y982820D01*
X1056010Y982860D01*
G03Y985140I-6930J1140D01*
G01X1056000Y985180D01*
Y1014000D01*
X1042000Y1028000D01*
X977640D01*
G03X970360I-3640J-6000D01*
G01X962250D01*
X962180Y1028020D01*
G03X958260I-1960J-6740D01*
G01X958190Y1028000D01*
X918000D01*
X910000Y1020000D01*
Y1004000D01*
X882000Y976000D01*
Y932000D01*
X866000Y916000D01*
X838000D01*
X836000Y918000D01*
Y930000D01*
X838000Y932000D01*
X850000D01*
X854000Y936000D01*
Y960000D01*
X816000Y998000D01*
X766000D01*
X738000Y970000D01*
X700000D01*
X692000Y978000D01*
X680000D01*
Y1016000D01*
X706000Y1042000D01*
X882000D01*
X892000Y1052000D01*
X1048000D01*
X1076000Y1024000D01*
Y971020D01*
G03X1071440Y958660I0J-7021D01*
G01Y951440D01*
X1056000Y936000D01*
X1032000D01*
X1014000Y918000D01*
Y912000D01*
X1012000Y910000D01*
X990000D01*
Y916000D01*
X1000000D01*
X1034000Y950000D01*
X1052000D01*
X1056000Y954000D01*
Y956820D01*
X1056010Y956860D01*
G03Y959140I-6930J1140D01*
G01X1056000Y959180D01*
G37*
G36*
G01X1049920Y265650D02*
X1053020Y268750D01*
Y272630D01*
X1056270D01*
Y301670D01*
X1043730D01*
Y272630D01*
X1046980D01*
Y271250D01*
X1044750Y269020D01*
X747250D01*
X744270Y272000D01*
X744530Y272630D01*
X756270D01*
Y301670D01*
X753020D01*
Y305300D01*
X754290Y306030D01*
X754540Y305890D01*
G03X764470Y309270I3461J6109D01*
G01X764570Y309520D01*
X765940Y309790D01*
X766980Y308750D01*
Y301670D01*
X763730D01*
Y272630D01*
X776270D01*
Y301670D01*
X773020D01*
Y311250D01*
X766570Y317700D01*
X766830Y318330D01*
X776980D01*
Y314750D01*
X786980Y304750D01*
Y301670D01*
X783730D01*
Y272630D01*
X796270D01*
Y301670D01*
X793020D01*
Y307250D01*
X783020Y317250D01*
Y318330D01*
X796980D01*
Y314750D01*
X806980Y304750D01*
Y301670D01*
X803730D01*
Y272630D01*
X816270D01*
Y301670D01*
X813020D01*
Y307250D01*
X803020Y317250D01*
Y318330D01*
X816980D01*
Y314750D01*
X826980Y304750D01*
Y301670D01*
X823730D01*
Y272630D01*
X836270D01*
Y301670D01*
X833020D01*
Y307250D01*
X823020Y317250D01*
Y318330D01*
X836980D01*
Y314750D01*
X846980Y304750D01*
Y301670D01*
X843730D01*
Y272630D01*
X856270D01*
Y301670D01*
X853020D01*
Y307250D01*
X843020Y317250D01*
Y318330D01*
X856980D01*
Y314750D01*
X866980Y304750D01*
Y301670D01*
X863730D01*
Y272630D01*
X876270D01*
Y301670D01*
X873020D01*
Y307250D01*
X863020Y317250D01*
Y318330D01*
X876980D01*
Y314750D01*
X886980Y304750D01*
Y301670D01*
X883730D01*
Y272630D01*
X896270D01*
Y301670D01*
X893020D01*
Y307250D01*
X883020Y317250D01*
Y318330D01*
X896980D01*
Y316750D01*
X906980Y306750D01*
Y301670D01*
X903730D01*
Y272630D01*
X916270D01*
Y301670D01*
X913020D01*
Y309250D01*
X904570Y317700D01*
X904830Y318330D01*
X916980D01*
Y314750D01*
X926980Y304750D01*
Y301670D01*
X923730D01*
Y272630D01*
X936270D01*
Y301670D01*
X933020D01*
Y307250D01*
X923020Y317250D01*
Y318330D01*
X936980D01*
Y316750D01*
X946980Y306750D01*
Y301670D01*
X943730D01*
Y272630D01*
X956270D01*
Y301670D01*
X953020D01*
Y309250D01*
X944570Y317700D01*
X944830Y318330D01*
X956980D01*
Y314750D01*
X966980Y304750D01*
Y301670D01*
X963730D01*
Y272630D01*
X976270D01*
Y301670D01*
X973020D01*
Y307250D01*
X963020Y317250D01*
Y318330D01*
X974980D01*
Y311920D01*
X984600Y302300D01*
X984340Y301670D01*
X983730D01*
Y272630D01*
X996270D01*
Y301670D01*
X995020D01*
Y306080D01*
X985020Y316080D01*
Y363430D01*
X995110D01*
Y366980D01*
X1035820D01*
X1036080Y366350D01*
X1034750Y365020D01*
X1010750D01*
X996980Y351250D01*
Y316750D01*
X1006980Y306750D01*
Y301670D01*
X1003730D01*
Y272630D01*
X1016270D01*
Y301670D01*
X1013020D01*
Y309250D01*
X1004570Y317700D01*
X1004830Y318330D01*
X1016980D01*
Y316750D01*
X1026980Y306750D01*
Y301670D01*
X1023730D01*
Y272630D01*
X1036270D01*
Y301670D01*
X1033020D01*
Y309250D01*
X1024570Y317700D01*
X1024830Y318330D01*
X1036270D01*
Y346980D01*
X1043730D01*
Y319160D01*
G03X1056270I6270J-3160D01*
G01Y347370D01*
X1044530D01*
X1044270Y348000D01*
X1076350Y380080D01*
X1076980Y379820D01*
Y347370D01*
X1063730D01*
Y319130D01*
G03X1062990Y316000I6250J-3130D01*
G01Y304000D01*
G03X1063730Y300870I6990J0D01*
G01Y272630D01*
X1076270D01*
Y300870D01*
G03X1077010Y304000I-6250J3130D01*
G01Y311830D01*
X1077640Y312090D01*
X1082990Y306740D01*
Y304000D01*
G03X1083730Y300870I6990J0D01*
G01Y272630D01*
X1096270D01*
Y300870D01*
G03X1097010Y304000I-6250J3130D01*
G01Y311830D01*
X1097640Y312090D01*
X1102990Y306740D01*
Y304000D01*
G03X1103730Y300870I6990J0D01*
G01Y272630D01*
X1116270D01*
Y300870D01*
G03X1117010Y304000I-6250J3130D01*
G01Y311830D01*
X1117640Y312090D01*
X1122990Y306740D01*
Y304000D01*
G03X1123730Y300870I6990J0D01*
G01Y272630D01*
X1136270D01*
Y300870D01*
G03X1137010Y304000I-6250J3130D01*
G01Y311830D01*
X1137640Y312090D01*
X1142990Y306740D01*
Y304000D01*
G03X1143730Y300870I6990J0D01*
G01Y272630D01*
X1156270D01*
Y300870D01*
G03X1157010Y304000I-6250J3130D01*
G01Y311830D01*
X1157640Y312090D01*
X1162990Y306740D01*
Y304000D01*
G03X1163730Y300870I6990J0D01*
G01Y272630D01*
X1176270D01*
Y300870D01*
G03X1177010Y304000I-6250J3130D01*
G01Y316000D01*
G03X1176270Y319130I-6990J0D01*
G01Y347370D01*
X1173020D01*
Y483250D01*
X1065750Y590520D01*
X1060510D01*
Y617760D01*
X1039990D01*
Y551020D01*
X1032560D01*
Y552120D01*
X1031080D01*
Y553050D01*
X1024920D01*
Y552120D01*
X1023440D01*
Y543720D01*
X1022810Y543460D01*
X1021020Y545250D01*
Y659250D01*
X1013010Y667260D01*
Y669830D01*
X1013640Y670090D01*
X1182980Y500750D01*
Y454750D01*
X1202980Y434750D01*
Y379250D01*
X1194980Y371250D01*
Y347370D01*
X1193020D01*
Y386170D01*
X1193820Y386980D01*
X1194030D01*
G03X1187290Y391940I-29J7020D01*
G01X1187380Y391650D01*
X1186980Y391250D01*
Y347370D01*
X1183730D01*
Y319130D01*
G03X1182990Y316000I6250J-3130D01*
G01Y304000D01*
G03X1183730Y300870I6990J0D01*
G01Y272630D01*
X1192590D01*
X1193220Y271140D01*
X1192980Y270900D01*
G03X1190990Y266030I5022J-4894D01*
G01Y265820D01*
X1190180Y265020D01*
X1050180D01*
X1049920Y265650D01*
G37*
G36*
G01X743100Y273170D02*
X741020Y275250D01*
Y311820D01*
X741650Y312080D01*
X746980Y306750D01*
Y301670D01*
X743730D01*
Y273430D01*
X743100Y273170D01*
G37*
G36*
G01X723020Y244180D02*
Y272630D01*
X726980D01*
Y247250D01*
X723650Y243920D01*
X723020Y244180D01*
G37*
G36*
G01X713020Y240180D02*
Y272630D01*
X716980D01*
Y243250D01*
X713650Y239920D01*
X713020Y240180D01*
G37*
G36*
G01X733020Y248180D02*
Y272630D01*
X735100D01*
X744750Y262980D01*
X747820D01*
X748080Y262350D01*
X733650Y247920D01*
X733020Y248180D01*
G37*
G36*
G01X743920Y249650D02*
X753250Y258980D01*
X809300D01*
X810030Y257710D01*
X809890Y257460D01*
G03Y250540I6110J-3460D01*
G01X810030Y250290D01*
X809300Y249020D01*
X744180D01*
X743920Y249650D01*
G37*
G36*
G01X723020Y301670D02*
Y304750D01*
X733020Y314750D01*
Y318330D01*
X734980D01*
Y301670D01*
X723020D01*
G37*
G36*
G01X769440Y386450D02*
X769200Y386710D01*
G03X759660Y387520I-5204J-4710D01*
G01X759420Y387330D01*
X758030Y387960D01*
X758010Y388270D01*
G03X755020Y393210I-6014J-265D01*
G01Y397730D01*
X756550D01*
Y399900D01*
X763830D01*
X770980Y392750D01*
Y387050D01*
X769440Y386450D01*
G37*
G36*
G01X773020Y347370D02*
Y358850D01*
X776350Y362180D01*
X776980Y361920D01*
Y347370D01*
X773020D01*
G37*
G36*
G01X777020Y391050D02*
Y395250D01*
X766330Y405940D01*
X756550D01*
Y407730D01*
X766550D01*
Y416980D01*
X781250D01*
X781490Y417220D01*
X782990Y416570D01*
X782980Y416220D01*
G03X791310Y409100I7019J-221D01*
G01X791580Y409150D01*
X798980Y401750D01*
Y396700D01*
X797710Y395970D01*
X797460Y396110D01*
G03X787700Y393090I-3457J-6109D01*
G01X787610Y392920D01*
X786610Y392520D01*
X786430Y392590D01*
G03X778800Y390710I-2423J-6588D01*
G01X778560Y390450D01*
X777020Y391050D01*
G37*
G36*
G01X737020Y418270D02*
Y430980D01*
X738920D01*
Y430950D01*
X745080D01*
Y430980D01*
X747020D01*
Y440750D01*
X747250Y440980D01*
X771040D01*
X771130Y440570D01*
G03X771890Y438540I6875J1417D01*
G01X772030Y438290D01*
X771300Y437020D01*
X764750D01*
X756980Y429250D01*
Y418270D01*
X737020D01*
G37*
G36*
G01X726010Y445170D02*
Y454980D01*
X735820D01*
X736080Y454350D01*
X726640Y444910D01*
X726010Y445170D01*
G37*
G36*
G01X718000Y420000D02*
X716000D01*
X714000Y422000D01*
Y432000D01*
X716000Y434000D01*
X720000D01*
X724000Y430000D01*
X734000D01*
Y410000D01*
X728000D01*
X718000Y420000D01*
G37*
G36*
G01X730000Y434000D02*
Y444000D01*
X738000Y452000D01*
X750000D01*
X756000Y458000D01*
X770000D01*
X774000Y454000D01*
Y448000D01*
X770000Y444000D01*
X746000D01*
X744000Y442000D01*
Y434000D01*
X730000D01*
G37*
G36*
G01X988960Y514000D02*
X980000D01*
Y502000D01*
X972000D01*
Y514000D01*
X953040D01*
X953000Y514480D01*
G03X939000I-7000J-480D01*
G01X938960Y514000D01*
X938000D01*
Y502000D01*
X924000D01*
Y510000D01*
X922000Y512000D01*
X828000D01*
X822000Y506000D01*
X796000D01*
X794000Y504000D01*
Y492000D01*
X792000Y490000D01*
X792130Y489870D01*
X791930Y489530D01*
G03X801530Y479930I6070J-3530D01*
G01X801870Y480130D01*
X806000Y476000D01*
Y446000D01*
X780000Y420000D01*
X760000D01*
Y428000D01*
X766000Y434000D01*
X780000D01*
X798000Y452000D01*
Y468000D01*
X794000Y472000D01*
X786000D01*
X784000Y474000D01*
Y508000D01*
X788000Y512000D01*
X804000D01*
X812000Y520000D01*
X918000D01*
X930000Y532000D01*
X1000000D01*
X1018980Y513020D01*
Y480750D01*
X1020000Y479730D01*
Y472000D01*
X1048000Y444000D01*
Y430000D01*
X1034000D01*
X1012000Y452000D01*
Y502000D01*
X1004000D01*
Y514000D01*
X1003040D01*
X1003000Y514480D01*
G03X989000I-7000J-480D01*
G01X988960Y514000D01*
G37*
G36*
G01X794980Y453250D02*
X785940Y444210D01*
X784570Y444480D01*
X784470Y444730D01*
G03X781020Y448340I-6470J-2729D01*
G01Y459250D01*
X773250Y467020D01*
X754180D01*
X753920Y467650D01*
X768000Y481730D01*
X770750Y478980D01*
X779250D01*
X780350Y480080D01*
X780980Y479820D01*
Y472750D01*
X783440Y470290D01*
Y469880D01*
X783840D01*
X784750Y468980D01*
X785430D01*
Y468950D01*
X791080D01*
Y468980D01*
X792750D01*
X794980Y466750D01*
Y453250D01*
G37*
G36*
G01X770270Y530000D02*
X800000D01*
X858000Y588000D01*
X958000D01*
X994000Y552000D01*
Y548000D01*
X990000Y544000D01*
X982000D01*
X946000Y580000D01*
X864000D01*
X800000Y516000D01*
X786000D01*
X780000Y510000D01*
Y484000D01*
X778000Y482000D01*
X772000D01*
X770000Y484000D01*
Y492000D01*
X764000Y498000D01*
X758000D01*
X756000Y500000D01*
Y518000D01*
X758000Y520000D01*
X766000D01*
X770000Y524000D01*
Y529730D01*
X770270Y530000D01*
G37*
G36*
G01X737020Y547020D02*
Y548920D01*
X737050D01*
Y555080D01*
X737020D01*
Y556980D01*
X747020D01*
Y577820D01*
X747650Y578080D01*
X750980Y574750D01*
Y549250D01*
X748750Y547020D01*
X737020D01*
G37*
G36*
G01X767020Y545020D02*
Y567450D01*
X768960D01*
X769050Y567410D01*
G03X771080Y566980I2030J4577D01*
G01X778000D01*
Y564900D01*
X793740D01*
X794000Y564270D01*
X774750Y545020D01*
X767020D01*
G37*
G36*
G01X773020Y781670D02*
Y783250D01*
X765020Y791250D01*
Y842750D01*
X769250Y846980D01*
X821690D01*
X903690Y928980D01*
X949250D01*
X962350Y942080D01*
X962980Y941820D01*
Y937250D01*
X946980Y921250D01*
Y919110D01*
X943430D01*
Y908890D01*
X946980D01*
Y906980D01*
X979250D01*
X983020Y910750D01*
Y918750D01*
X985250Y920980D01*
X999820D01*
X1000080Y920350D01*
X998750Y919020D01*
X986980D01*
Y915070D01*
X986960Y914990D01*
G03Y912010I4790J-1490D01*
G01X986980Y911930D01*
Y906980D01*
X1013250D01*
X1015710Y909440D01*
X1016120D01*
Y909840D01*
X1017020Y910750D01*
Y911430D01*
X1017050D01*
Y916780D01*
X1033250Y932980D01*
X1047720D01*
Y929200D01*
X1041480Y922950D01*
Y919040D01*
X1038010D01*
Y896960D01*
X1042980D01*
Y896750D01*
X1048750Y890980D01*
X1068750D01*
X1088330Y871400D01*
X1088070Y870770D01*
X1077990D01*
Y879040D01*
X1067240D01*
X1057250Y889020D01*
X1033670D01*
X1030920Y886280D01*
X1025440D01*
Y875880D01*
X1026920D01*
Y874950D01*
X1033080D01*
Y875880D01*
X1034560D01*
Y881370D01*
X1036170Y882980D01*
X1054750D01*
X1062010Y875720D01*
Y857020D01*
X999250D01*
X994780Y861500D01*
X995320Y862980D01*
X995640Y863000D01*
G03X1000270Y874730I-559J6999D01*
G01Y882550D01*
X999270D01*
Y889490D01*
X999680Y889570D01*
G03X1000840Y889930I-897J4940D01*
G01X1000940Y889980D01*
X1005720D01*
Y889440D01*
X1016120D01*
Y890920D01*
X1017050D01*
Y897080D01*
X1016120D01*
Y898560D01*
X1012750D01*
X1012290Y899020D01*
X1000940D01*
X1000840Y899070D01*
G03X998750Y899520I-2090J-4628D01*
G01X991750D01*
G03X990820Y889570I0J-5018D01*
G01X991230Y889490D01*
Y882550D01*
X979730D01*
Y881020D01*
X862750D01*
X824750Y843020D01*
X784750D01*
X776980Y835250D01*
Y781670D01*
X773020D01*
G37*
G36*
G01X723100Y781170D02*
X719020Y785250D01*
Y792750D01*
X719250Y792980D01*
X722750D01*
X722980Y792750D01*
Y786000D01*
G03X723860Y783860I3042J0D01*
G01X725430Y782300D01*
X725170Y781670D01*
X723730D01*
Y781430D01*
X723100Y781170D01*
G37*
G36*
G01X822340Y257020D02*
G03X822110Y257460I-6334J-3031D01*
G01X821970Y257710D01*
X822700Y258980D01*
X1188750D01*
X1190080Y257650D01*
X1189820Y257020D01*
X822340D01*
G37*
G36*
G01X821970Y250290D02*
X822110Y250540D01*
G03X822340Y250980I-6104J3471D01*
G01X1213820D01*
X1214080Y250350D01*
X1212750Y249020D01*
X822700D01*
X821970Y250290D01*
G37*
G36*
G01X806290Y393950D02*
X805020Y394690D01*
Y404250D01*
X796320Y412950D01*
G03X789780Y423020I-6322J3053D01*
G01X789430Y423010D01*
X788780Y424510D01*
X809020Y444750D01*
Y477250D01*
X803980Y482300D01*
X804160Y482630D01*
G03X804630Y488310I-6160J3369D01*
G01X804600Y488390D01*
Y493450D01*
X806270D01*
Y494480D01*
X807440D01*
Y491880D01*
X808920D01*
Y490950D01*
X815080D01*
Y491880D01*
X816980D01*
Y484750D01*
X838890Y462840D01*
X838600Y462480D01*
G03X837060Y456960I5401J-4482D01*
G03X831700Y453090I945J-6956D01*
G01X831610Y452920D01*
X830610Y452520D01*
X830430Y452590D01*
G03X822330Y450130I-2423J-6588D01*
G01X821650Y450000D01*
G03X811410Y441570I-3652J-5998D01*
G01X811480Y441390D01*
X811080Y440390D01*
X810910Y440300D01*
G03X809870Y428330I3093J-6299D01*
G01X810000Y427650D01*
G03X822710Y426060I5998J-3649D01*
G01X822620Y426350D01*
X823250Y426980D01*
X829310D01*
X830050Y425710D01*
X829900Y425460D01*
G03X836000Y414990I6100J-3458D01*
G01X838740D01*
X858090Y395640D01*
X857830Y395010D01*
X810000D01*
G03X806540Y394100I0J-7033D01*
G01X806290Y393950D01*
G37*
G36*
G01X793020Y347370D02*
Y362750D01*
X797650Y367380D01*
X797940Y367290D01*
G03X798610Y367120I2059J6711D01*
G01X798910Y367060D01*
X799340Y365610D01*
X796980Y363250D01*
Y347370D01*
X793020D01*
G37*
G36*
G01X783020D02*
Y362750D01*
X792800Y372530D01*
X793250Y372080D01*
X793280Y371950D01*
X793290Y371940D01*
X793380Y371650D01*
X786980Y365250D01*
Y347370D01*
X783020D01*
G37*
G36*
G01X833020D02*
Y360750D01*
X843020Y370750D01*
Y380990D01*
X846980D01*
Y373250D01*
X836980Y363250D01*
Y347370D01*
X833020D01*
G37*
G36*
G01X823020D02*
Y360750D01*
X833020Y370750D01*
Y380990D01*
X836980D01*
Y373250D01*
X826980Y363250D01*
Y347370D01*
X823020D01*
G37*
G36*
G01X813020D02*
Y360750D01*
X823020Y370750D01*
Y380990D01*
X826980D01*
Y373250D01*
X816980Y363250D01*
Y347370D01*
X813020D01*
G37*
G36*
G01X803020D02*
Y360750D01*
X813020Y370750D01*
Y380990D01*
X816980D01*
Y373250D01*
X806980Y363250D01*
Y347370D01*
X803020D01*
G37*
G36*
G01X936740Y454000D02*
X938250D01*
X939060Y453080D01*
X939030Y452860D01*
G03X952300Y448910I6967J-859D01*
G01X952390Y449080D01*
X953390Y449480D01*
X953570Y449410D01*
G03X962620Y453660I2429J6588D01*
G01X962740Y454000D01*
X970000D01*
X972000Y452000D01*
Y438000D01*
X970000Y436000D01*
X924270D01*
X899250Y461020D01*
X898980D01*
X896000Y464000D01*
X847640D01*
G03X841750Y464650I-3643J-6000D01*
G01X841450Y464550D01*
X825530Y480470D01*
X825550Y481640D01*
X825710Y481790D01*
G03X821010Y493940I-4791J5131D01*
G01X820800D01*
X820000Y494750D01*
Y498000D01*
X828000Y506000D01*
X840000D01*
X841040Y504960D01*
X841020Y504720D01*
G03X841930Y500470I6982J-727D01*
G01X842000Y500350D01*
Y497770D01*
G03X848250Y485350I3999J-5770D01*
G01X848550Y485450D01*
X854000Y480000D01*
X862380D01*
G03X866000Y478990I3620J5982D01*
G01X896000D01*
G03X899510Y479930I0J7023D01*
G01X899630Y480000D01*
X902000D01*
X902980Y479020D01*
Y478750D01*
X923380Y458350D01*
X923290Y458060D01*
G03X936620Y453660I6710J-2064D01*
G01X936740Y454000D01*
G37*
G36*
G01X841250Y576980D02*
X853250Y588980D01*
X853820D01*
X854080Y588350D01*
X819650Y553920D01*
X819020Y554180D01*
Y571020D01*
X800750D01*
X796630Y566910D01*
X796000Y567170D01*
Y576830D01*
X796630Y577090D01*
X800750Y572980D01*
X827250D01*
X831250Y576980D01*
X841250D01*
G37*
G36*
G01X802000Y576000D02*
X784000Y594000D01*
Y600000D01*
X788000D01*
X800000Y588000D01*
X826000D01*
X828000Y586000D01*
Y578000D01*
X826000Y576000D01*
X802000D01*
G37*
G36*
G01X832000Y610000D02*
X840000Y618000D01*
X876000D01*
Y592000D01*
X852000D01*
X840000Y580000D01*
X832000D01*
Y610000D01*
G37*
G36*
G01X800000Y766270D02*
X796270Y770000D01*
Y781670D01*
X783020D01*
Y798330D01*
X794980D01*
Y793090D01*
X805090Y782980D01*
X814980D01*
Y781670D01*
X803730D01*
Y770000D01*
X800000Y766270D01*
G37*
G36*
G01X773920Y741650D02*
X783020Y750750D01*
Y752630D01*
X794980D01*
Y750750D01*
X804080Y741650D01*
X803820Y741020D01*
X774180D01*
X773920Y741650D01*
G37*
G36*
G01X836270Y753300D02*
Y781670D01*
X825020D01*
Y787250D01*
X819250Y793020D01*
X809250D01*
X805020Y797250D01*
Y798330D01*
X816270D01*
Y827370D01*
X803730D01*
Y816000D01*
X800000Y812270D01*
X796400Y815870D01*
X796270D01*
Y827370D01*
X783020D01*
Y832750D01*
X787250Y836980D01*
X826980D01*
Y827370D01*
X823730D01*
Y798330D01*
X834980D01*
Y794750D01*
X846980Y782750D01*
Y781670D01*
X843730D01*
Y753300D01*
X842620Y752520D01*
X842370Y752610D01*
G03X837630I-2370J-6610D01*
G01X837380Y752520D01*
X836270Y753300D01*
G37*
G36*
G01X846000Y936000D02*
X822000D01*
X814000Y944000D01*
Y972000D01*
X820000Y978000D01*
X830000D01*
X846000Y962000D01*
Y936000D01*
G37*
G36*
G01X893020Y347370D02*
Y399250D01*
X877470Y414800D01*
X877920Y415250D01*
X878050Y415280D01*
X878060Y415290D01*
X878350Y415380D01*
X896980Y396750D01*
Y347370D01*
X893020D01*
G37*
G36*
G01X883020D02*
Y360750D01*
X886350Y364080D01*
X886980Y363820D01*
Y347370D01*
X883020D01*
G37*
G36*
G01X873020D02*
Y360750D01*
X880350Y368080D01*
X880980Y367820D01*
Y367250D01*
X876980Y363250D01*
Y347370D01*
X873020D01*
G37*
G36*
G01X863020D02*
Y360750D01*
X873020Y370750D01*
Y389250D01*
X847910Y414360D01*
X848170Y414990D01*
X850740D01*
X874980Y390750D01*
Y371250D01*
X866980Y363250D01*
Y347370D01*
X863020D01*
G37*
G36*
G01X853020D02*
Y360750D01*
X863020Y370750D01*
Y381670D01*
G03X865200Y383300I-3028J6323D01*
G01X865440Y383560D01*
X866980Y382970D01*
Y373250D01*
X856980Y363250D01*
Y347370D01*
X853020D01*
G37*
G36*
G01X843020D02*
Y360750D01*
X853020Y370750D01*
Y380990D01*
X856980D01*
Y373250D01*
X846980Y363250D01*
Y347370D01*
X843020D01*
G37*
G36*
G01X913020D02*
Y405250D01*
X890620Y427650D01*
X890710Y427940D01*
G03X890880Y428610I-6711J2059D01*
G01X890940Y428910D01*
X892390Y429340D01*
X916980Y404750D01*
Y347370D01*
X913020D01*
G37*
G36*
G01X886350Y423380D02*
X906980Y402750D01*
Y347370D01*
X903020D01*
Y399250D01*
X882620Y419650D01*
X882710Y419940D01*
G03X883020Y421970I-6710J2063D01*
G01Y422180D01*
X883820Y422980D01*
X884030D01*
G03X886060Y423290I-33J7020D01*
G01X886350Y423380D01*
G37*
G36*
G01X849740Y497940D02*
X849620Y498010D01*
G03X846030Y499020I-3628J-6009D01*
G01X845820D01*
X845020Y499830D01*
Y505250D01*
X841920Y508350D01*
X842180Y508980D01*
X920750D01*
X920980Y508750D01*
Y500110D01*
X919080D01*
Y501050D01*
X912920D01*
Y500110D01*
X909080D01*
Y501050D01*
X902920D01*
Y500110D01*
X899080D01*
Y501050D01*
X892920D01*
Y500110D01*
X889080D01*
Y501050D01*
X882920D01*
Y500110D01*
X879080D01*
Y501050D01*
X872920D01*
Y500110D01*
X869080D01*
Y501050D01*
X862920D01*
Y500110D01*
X859080D01*
Y501050D01*
X852920D01*
Y500110D01*
X851450D01*
Y497940D01*
X849740D01*
G37*
G36*
G01X846000Y500000D02*
X845020Y500980D01*
Y505250D01*
X844140Y506140D01*
X846000Y508000D01*
X918000D01*
Y502000D01*
X852000D01*
X850000Y500000D01*
X846000D01*
G37*
G36*
G01X855250Y483020D02*
X851110Y487160D01*
X851400Y487520D01*
G03X852640Y489730I-5400J4483D01*
G01X858710D01*
X859490Y488620D01*
X859400Y488370D01*
G03X859200Y484290I6599J-2368D01*
G01X859260Y484050D01*
X858460Y483020D01*
X855250D01*
G37*
G36*
G01X991990Y4000D02*
X991730Y4630D01*
X1067940Y80840D01*
Y91450D01*
X1078270D01*
Y92980D01*
X1083730D01*
Y91450D01*
X1096060D01*
Y72830D01*
X1094670Y72140D01*
X1094420Y72330D01*
G03X1099040Y53380I-9419J-12335D01*
G01X1099210Y53750D01*
X1100980Y53350D01*
Y51250D01*
X1096980Y47250D01*
Y41640D01*
X1096610Y41530D01*
G03X1103390I3390J-11530D01*
G01X1103020Y41640D01*
Y44750D01*
X1107020Y48750D01*
Y69250D01*
X1102100Y74170D01*
Y91450D01*
X1104270D01*
Y92980D01*
X1213730D01*
Y91450D01*
X1226060D01*
Y72830D01*
X1224670Y72140D01*
X1224420Y72330D01*
G03X1225280Y48380I-9422J-12329D01*
G01X1225530Y48600D01*
X1226980Y47940D01*
Y41640D01*
X1226610Y41530D01*
G03X1233390I3390J-11530D01*
G01X1233020Y41640D01*
Y46750D01*
X1237020Y50750D01*
Y69250D01*
X1232100Y74170D01*
Y91450D01*
X1234270D01*
Y92980D01*
X1345730D01*
Y91450D01*
X1358060D01*
Y70990D01*
X1356540Y70390D01*
X1356300Y70640D01*
G03X1355280Y48380I-11301J-10636D01*
G01X1355530Y48600D01*
X1356980Y47940D01*
Y41640D01*
X1356610Y41530D01*
G03X1363390I3390J-11530D01*
G01X1363020Y41640D01*
Y46750D01*
X1369020Y52750D01*
Y67250D01*
X1364100Y72170D01*
Y91450D01*
X1366270D01*
Y92980D01*
X1475730D01*
Y91450D01*
X1488060D01*
Y71670D01*
X1492980Y66750D01*
Y53250D01*
X1486980Y47250D01*
Y41640D01*
X1486610Y41530D01*
G03X1493390I3390J-11530D01*
G01X1493020Y41640D01*
Y44750D01*
X1499020Y50750D01*
Y69250D01*
X1494100Y74170D01*
Y91450D01*
X1496270D01*
Y92980D01*
X1605730D01*
Y91450D01*
X1618060D01*
Y71670D01*
X1624980Y64750D01*
Y55250D01*
X1616980Y47250D01*
Y41640D01*
X1616610Y41530D01*
G03X1623390I3390J-11530D01*
G01X1623020Y41640D01*
Y44750D01*
X1631020Y52750D01*
Y67250D01*
X1624100Y74170D01*
Y91450D01*
X1626270D01*
Y92980D01*
X1631730D01*
Y91450D01*
X1652270D01*
Y100550D01*
X1650100D01*
Y129250D01*
X1638330Y141020D01*
X1371250D01*
X1365020Y147250D01*
Y219250D01*
X1313920Y270350D01*
X1314180Y270980D01*
X1332750D01*
X1346750Y256980D01*
X1607250D01*
X1633020Y282750D01*
Y317250D01*
X1627250Y323020D01*
X1622560D01*
X1621980Y324580D01*
X1622250Y324810D01*
G03X1608550I-6850J7990D01*
G01X1608820Y324580D01*
X1608240Y323020D01*
X1606750D01*
X1600980Y317250D01*
Y297250D01*
X1588750Y285020D01*
X1365250D01*
X1335020Y315250D01*
Y533250D01*
X1291250Y577020D01*
X1278110D01*
Y578920D01*
X1279050D01*
Y585080D01*
X1278110D01*
Y586550D01*
X1267730D01*
Y585520D01*
X1256010D01*
Y617760D01*
X1235490D01*
Y581670D01*
X1234860Y581410D01*
X1231010Y585260D01*
Y588000D01*
G03X1217670Y591020I-7012J0D01*
G01X1215250D01*
X1065250Y741020D01*
X945250D01*
X935920Y750350D01*
X936180Y750980D01*
X977020D01*
Y780980D01*
X983730D01*
Y752630D01*
X996270D01*
Y780980D01*
X1003730D01*
Y752630D01*
X1016270D01*
Y780980D01*
X1023730D01*
Y752630D01*
X1036270D01*
Y780980D01*
X1043730D01*
Y752630D01*
X1056270D01*
Y780980D01*
X1063730D01*
Y752630D01*
X1076270D01*
Y780980D01*
X1083730D01*
Y752630D01*
X1096270D01*
Y780980D01*
X1103730D01*
Y752630D01*
X1116270D01*
Y780980D01*
X1123730D01*
Y752630D01*
X1136270D01*
Y780980D01*
X1143730D01*
Y752630D01*
X1156270D01*
Y781670D01*
X1146830D01*
X1146570Y782300D01*
X1149020Y784750D01*
Y795250D01*
X1146570Y797700D01*
X1146830Y798330D01*
X1156270D01*
Y827370D01*
X1143730D01*
Y799020D01*
X1136270D01*
Y827370D01*
X1123730D01*
Y799020D01*
X1116270D01*
Y827370D01*
X1103730D01*
Y799020D01*
X1096270D01*
Y827370D01*
X1083730D01*
Y799020D01*
X1076270D01*
Y827370D01*
X1063730D01*
Y799020D01*
X1056270D01*
Y827370D01*
X1043730D01*
Y799020D01*
X1036270D01*
Y827370D01*
X1023730D01*
Y799020D01*
X1016270D01*
Y827370D01*
X1003730D01*
Y799020D01*
X996270D01*
Y827370D01*
X983730D01*
Y799020D01*
X922980D01*
Y784180D01*
X922350Y783920D01*
X913020Y793250D01*
Y798330D01*
X916270D01*
Y827370D01*
X903730D01*
Y798330D01*
X906980D01*
Y790750D01*
X915430Y782300D01*
X915170Y781670D01*
X903020D01*
Y783250D01*
X893020Y793250D01*
Y798330D01*
X896270D01*
Y827370D01*
X883730D01*
Y798330D01*
X886980D01*
Y790750D01*
X895430Y782300D01*
X895170Y781670D01*
X883730D01*
Y752630D01*
X886980D01*
Y748750D01*
X898080Y737650D01*
X897820Y737020D01*
X841250D01*
X840660Y737610D01*
X841090Y739060D01*
X841390Y739120D01*
G03X845030Y750900I-1389J6882D01*
G01X844790Y751140D01*
X845420Y752630D01*
X856270D01*
Y781670D01*
X853020D01*
Y785250D01*
X851920Y786350D01*
X852180Y786980D01*
X864750D01*
X866980Y784750D01*
Y781670D01*
X863730D01*
Y752630D01*
X876270D01*
Y781670D01*
X873020D01*
Y787250D01*
X867250Y793020D01*
X851250D01*
X846570Y797700D01*
X846830Y798330D01*
X856270D01*
Y827370D01*
X853020D01*
Y830750D01*
X871250Y848980D01*
X875820D01*
X876080Y848350D01*
X866980Y839250D01*
Y827370D01*
X863730D01*
Y798330D01*
X876270D01*
Y827370D01*
X873020D01*
Y836750D01*
X881250Y844980D01*
X966750D01*
X982750Y828980D01*
X1225250D01*
X1295250Y898980D01*
X1423250D01*
X1461250Y936980D01*
X1481920D01*
Y933920D01*
X1494840D01*
Y934890D01*
X1497160D01*
Y933920D01*
X1510080D01*
Y936980D01*
X1515730D01*
Y935450D01*
X1526980D01*
Y934980D01*
X1569250D01*
X1573020Y938750D01*
Y956750D01*
X1580010Y963740D01*
X1581010D01*
Y964740D01*
X1581020Y964750D01*
Y976730D01*
X1585920D01*
Y975160D01*
X1586890D01*
Y971430D01*
X1597110D01*
Y975160D01*
X1598080D01*
Y976600D01*
X1603630D01*
Y973160D01*
X1604350D01*
Y970840D01*
X1603630D01*
Y955380D01*
X1620370D01*
Y958090D01*
X1629190D01*
X1637020Y965920D01*
Y1050080D01*
X1591730Y1095370D01*
X1591990Y1096000D01*
X1756000D01*
Y4000D01*
X991990D01*
G37*
G36*
G01X841020Y834180D02*
Y834750D01*
X867250Y860980D01*
X974750D01*
X992080Y843650D01*
X991820Y843020D01*
X989250D01*
X973250Y859020D01*
X866750D01*
X841650Y833920D01*
X841020Y834180D01*
G37*
G36*
G01X995250Y849020D02*
X977250Y867020D01*
X866180D01*
X865920Y867650D01*
X867250Y868980D01*
X978750D01*
X996750Y850980D01*
X1217820D01*
X1218080Y850350D01*
X1216750Y849020D01*
X995250D01*
G37*
G36*
G01X849020Y936180D02*
Y959820D01*
X849650Y960080D01*
X850980Y958750D01*
Y937250D01*
X849650Y935920D01*
X849020Y936180D01*
G37*
G36*
G01X906270Y978520D02*
Y978550D01*
X903200D01*
X903110Y978590D01*
G03X899050I-2030J-4590D01*
G01X898960Y978550D01*
X893040D01*
X892950Y978590D01*
G03X891570Y978980I-2041J-4587D01*
G01X891260Y979020D01*
X890760Y980490D01*
X913020Y1002750D01*
Y1018750D01*
X919250Y1024980D01*
X966450D01*
X967250Y1023950D01*
X967190Y1023710D01*
G03X968170Y1018090I6809J-1708D01*
G01X968250Y1017960D01*
Y1017300D01*
X967490D01*
Y993280D01*
X968980D01*
Y991250D01*
X966750Y989020D01*
X918750D01*
X913980Y984250D01*
Y980600D01*
X908000D01*
Y978520D01*
X906270D01*
G37*
G36*
G01X973020Y347370D02*
Y387250D01*
X927920Y432350D01*
X928180Y432980D01*
X964920D01*
Y432950D01*
X971220D01*
X972160Y433890D01*
X974920D01*
Y432950D01*
X981080D01*
Y433890D01*
X982550D01*
Y438590D01*
X983630Y439390D01*
X983880Y439310D01*
G03X985820Y453020I2120J6692D01*
G01X985570Y453010D01*
X984750Y454040D01*
X984810Y454290D01*
G03X979430Y462870I-6809J1707D01*
G01X979020Y462960D01*
Y489730D01*
X983800D01*
X984490Y488370D01*
X984310Y488110D01*
G03X996710Y486060I5690J-4111D01*
G01X996620Y486350D01*
X999020Y488750D01*
Y489730D01*
X1008980D01*
Y475110D01*
X1005430D01*
Y464890D01*
X1008980D01*
Y459080D01*
X1008950D01*
Y452920D01*
X1008980D01*
Y450750D01*
X1032750Y426980D01*
X1051020D01*
Y428000D01*
X1051100D01*
Y435740D01*
X1051730Y436000D01*
X1066980Y420750D01*
Y397250D01*
X1065650Y395920D01*
X1065020Y396180D01*
Y421250D01*
X1061250Y425020D01*
X1048980D01*
Y424000D01*
X1046400D01*
Y406000D01*
X1048980D01*
Y404270D01*
X1039020D01*
Y406000D01*
X1041600D01*
Y424000D01*
X1031180D01*
X1014170Y441020D01*
X1009100D01*
Y446000D01*
X994900D01*
Y427020D01*
X986750D01*
X982980Y423250D01*
Y395940D01*
G03Y381900I-60J-7020D01*
G01Y378640D01*
X981540D01*
X974980Y372080D01*
Y347370D01*
X973020D01*
G37*
G36*
G01X923020D02*
Y403820D01*
X923650Y404080D01*
X926980Y400750D01*
Y347370D01*
X923020D01*
G37*
G36*
G01X933020D02*
Y399820D01*
X933650Y400080D01*
X936980Y396750D01*
Y347370D01*
X933020D01*
G37*
G36*
G01X953020D02*
Y391820D01*
X953650Y392080D01*
X956980Y388750D01*
Y347370D01*
X953020D01*
G37*
G36*
G01X943020D02*
Y395820D01*
X943650Y396080D01*
X946980Y392750D01*
Y347370D01*
X943020D01*
G37*
G36*
G01X946980Y460750D02*
X947220Y460510D01*
X946570Y459010D01*
X946220Y459020D01*
G03X943940Y458710I-207J-7018D01*
G01X943650Y458620D01*
X919020Y483250D01*
Y489730D01*
X942980D01*
Y489150D01*
X946980Y485150D01*
Y460750D01*
G37*
G36*
G01X912980Y480750D02*
X929340Y464390D01*
X928910Y462940D01*
X928610Y462880D01*
G03X927940Y462710I1389J-6881D01*
G01X927650Y462620D01*
X909020Y481250D01*
Y489730D01*
X912980D01*
Y480750D01*
G37*
G36*
G01X962960Y457020D02*
X962870Y457430D01*
G03X953940Y462710I-6872J-1430D01*
G01X953650Y462620D01*
X953020Y463250D01*
Y478520D01*
X954220Y479280D01*
X954480Y479160D01*
G03X961690Y479870I3016J6339D01*
G01X962400Y479770D01*
G03X971460Y477890I5603J4230D01*
G01X971710Y478030D01*
X972980Y477300D01*
Y460910D01*
G03X971130Y457430I5024J-4903D01*
G01X971040Y457020D01*
X962960D01*
G37*
G36*
G01X941020Y500110D02*
Y510980D01*
X968980D01*
Y501050D01*
X962920D01*
Y500110D01*
X959080D01*
Y501050D01*
X952920D01*
Y500110D01*
X949080D01*
Y501050D01*
X942920D01*
Y500110D01*
X941020D01*
G37*
G36*
G01X1079610Y612660D02*
X1011250Y681020D01*
X946340D01*
G03X946110Y681460I-6334J-3031D01*
G01X945970Y681710D01*
X946700Y682980D01*
X1016750D01*
X1082890Y616840D01*
X1082600Y616480D01*
G03X1081120Y613390I5398J-4485D01*
G01X1081060Y613090D01*
X1079610Y612660D01*
G37*
G36*
G01X926000Y754000D02*
Y796000D01*
X1144000D01*
X1146000Y794000D01*
Y786000D01*
X1144000Y784000D01*
X974000D01*
Y754000D01*
X926000D01*
G37*
G36*
G01X1000810Y942300D02*
X1001020Y942510D01*
Y946000D01*
X1004000D01*
X1008000Y950000D01*
Y988000D01*
X1018000D01*
Y942000D01*
X1000000Y924000D01*
X984000D01*
X980000Y920000D01*
Y912000D01*
X978000Y910000D01*
X950000D01*
Y920000D01*
X966000Y936000D01*
Y960000D01*
X980000D01*
Y952000D01*
X986000Y946000D01*
X986250D01*
X987060Y945080D01*
X987030Y944860D01*
G03X1000780Y942170I6967J-873D01*
G01X1000810Y942300D01*
G37*
G36*
G01X986220Y382710D02*
X986550Y382910D01*
G03X987650Y383730I-3626J6012D01*
G01X994550D01*
Y386800D01*
X994590Y386890D01*
G03Y390950I-4590J2030D01*
G01X994550Y391040D01*
Y392980D01*
X998920D01*
Y392950D01*
X1005080D01*
Y392980D01*
X1010920D01*
Y392950D01*
X1017080D01*
Y392980D01*
X1019020D01*
Y403250D01*
X1018550Y403720D01*
Y404270D01*
X1018000D01*
X1015250Y407020D01*
X1003250D01*
X1003020Y407250D01*
Y423250D01*
X998910Y427370D01*
X999170Y428000D01*
X1009100D01*
Y432980D01*
X1010830D01*
X1027400Y416410D01*
Y406000D01*
X1028980D01*
Y399080D01*
G03X1029410Y397050I5007J0D01*
G01X1029450Y396960D01*
Y395020D01*
X1026980D01*
Y385250D01*
X1022750Y381020D01*
X986690D01*
X986220Y382710D01*
G37*
G36*
G01X963020Y347370D02*
Y387820D01*
X963650Y388080D01*
X966980Y384750D01*
Y347370D01*
X963020D01*
G37*
G36*
G01X1003020Y348750D02*
X1013250Y358980D01*
X1015820D01*
X1016080Y358350D01*
X1006980Y349250D01*
Y347370D01*
X1003020D01*
Y348750D01*
G37*
G36*
G01X1030000Y390100D02*
Y392000D01*
X1050000D01*
X1052000Y394000D01*
Y422000D01*
X1060000D01*
X1062000Y420000D01*
Y394000D01*
X1038000Y370000D01*
X986000D01*
Y378000D01*
X1024000D01*
X1030000Y384000D01*
Y387740D01*
X1030010Y387780D01*
G03Y390060I-6930J1140D01*
G01X1030000Y390100D01*
G37*
G36*
G01X986000Y398000D02*
Y422000D01*
X988000Y424000D01*
X998000D01*
X1000000Y422000D01*
Y406000D01*
X1002000Y404000D01*
X1014000D01*
X1016000Y402000D01*
Y396000D01*
X988000D01*
X986000Y398000D01*
G37*
G36*
G01X989080Y500110D02*
Y501050D01*
X983020D01*
Y510980D01*
X1000980D01*
Y500110D01*
X999080D01*
Y501050D01*
X992920D01*
Y500110D01*
X989080D01*
G37*
G36*
G01X1048350Y447920D02*
X1023020Y473250D01*
Y475820D01*
X1023650Y476080D01*
X1048980Y450750D01*
Y448180D01*
X1048350Y447920D01*
G37*
G36*
G01X1021020Y942180D02*
Y960950D01*
X1022560Y961550D01*
X1022800Y961290D01*
G03X1033730Y961940I5204J4711D01*
G01Y961450D01*
X1044110D01*
Y962920D01*
X1045050D01*
Y969080D01*
X1044110D01*
Y972920D01*
X1045050D01*
Y979080D01*
X1044110D01*
Y980550D01*
X1021020D01*
Y982920D01*
X1021050D01*
Y989080D01*
X1021020D01*
Y991020D01*
X1004980D01*
Y990520D01*
X1003870D01*
X1000520Y993870D01*
Y1005290D01*
G03X1000510Y1005570I-3925J0D01*
G01Y1017300D01*
X980860D01*
X980110Y1018530D01*
X980240Y1018790D01*
G03X980810Y1023710I-6240J3216D01*
G01X980750Y1023950D01*
X981550Y1024980D01*
X1040750D01*
X1052980Y1012750D01*
Y955250D01*
X1050750Y953020D01*
X1032750D01*
X1021650Y941920D01*
X1021020Y942180D01*
G37*
G36*
G01X987250Y949020D02*
X983020Y953250D01*
Y960750D01*
X988670Y966400D01*
X1004980D01*
Y951250D01*
X1002750Y949020D01*
X987250D01*
G37*
G36*
G01X982000Y969170D02*
Y980600D01*
X977760D01*
X977500Y981230D01*
X983020Y986750D01*
Y993280D01*
X984980D01*
Y986750D01*
X990500Y981230D01*
X990240Y980600D01*
X986000D01*
Y972270D01*
X982630Y968910D01*
X982000Y969170D01*
G37*
G36*
G01X1635830Y134980D02*
X1644060Y126750D01*
Y100550D01*
X1631730D01*
Y99020D01*
X1626270D01*
Y100550D01*
X1605730D01*
Y99020D01*
X1496270D01*
Y100550D01*
X1475730D01*
Y99020D01*
X1366270D01*
Y100550D01*
X1345730D01*
Y99020D01*
X1234270D01*
Y100550D01*
X1213730D01*
Y99020D01*
X1104270D01*
Y100550D01*
X1083730D01*
Y99020D01*
X1078270D01*
Y112550D01*
X1076100D01*
Y117830D01*
X1085250Y126980D01*
X1337250D01*
X1357020Y146750D01*
Y213250D01*
X1307250Y263020D01*
X1248340D01*
G03X1248110Y263460I-6334J-3031D01*
G01X1247970Y263710D01*
X1248700Y264980D01*
X1310750D01*
X1358980Y216750D01*
Y144750D01*
X1368750Y134980D01*
X1635830D01*
G37*
G36*
G01X1083020Y347370D02*
Y380750D01*
X1089020Y386750D01*
Y398180D01*
X1089650Y398440D01*
X1092750Y395340D01*
X1096750D01*
X1096980Y395110D01*
Y347370D01*
X1083020D01*
G37*
G36*
G01X1113020D02*
Y453250D01*
X1107250Y459020D01*
X1081250D01*
X1081020Y459250D01*
Y460750D01*
X1081250Y460980D01*
X1111250D01*
X1115020Y464750D01*
Y471250D01*
X1111250Y475020D01*
X1081250D01*
X1081020Y475250D01*
Y480070D01*
X1081650Y480330D01*
X1085000Y476980D01*
X1110750D01*
X1116980Y470750D01*
Y347370D01*
X1113020D01*
G37*
G36*
G01X1088350Y431920D02*
X1075920Y444350D01*
X1076180Y444980D01*
X1096750D01*
X1096980Y444750D01*
Y441610D01*
X1096750Y441380D01*
X1092750D01*
X1088980Y437610D01*
Y432180D01*
X1088350Y431920D01*
G37*
G36*
G01X1075650Y456080D02*
X1078750Y452980D01*
X1104750D01*
X1106980Y450750D01*
Y347370D01*
X1103020D01*
Y397610D01*
X1099250Y401380D01*
X1095250D01*
X1095020Y401610D01*
Y403110D01*
X1095250Y403340D01*
X1099250D01*
X1103020Y407110D01*
Y413610D01*
X1099250Y417380D01*
X1095250D01*
X1095020Y417610D01*
Y419110D01*
X1095250Y419340D01*
X1099250D01*
X1103020Y423110D01*
Y429610D01*
X1099250Y433380D01*
X1095250D01*
X1095020Y433610D01*
Y435110D01*
X1095250Y435340D01*
X1099250D01*
X1103020Y439110D01*
Y447250D01*
X1099250Y451020D01*
X1077250D01*
X1075020Y453250D01*
Y455820D01*
X1075650Y456080D01*
G37*
G36*
G01X1142350Y469620D02*
X1139250Y472720D01*
X1131250D01*
X1131020Y472950D01*
Y474450D01*
X1131250Y474680D01*
X1134950D01*
X1139020Y478750D01*
Y485250D01*
X1103250Y521020D01*
X1087250D01*
X1077750Y530520D01*
X1060510D01*
Y543980D01*
X1061920D01*
X1062070Y543740D01*
G03Y551260I5930J3760D01*
G01X1061920Y551020D01*
X1060510D01*
Y568330D01*
X1061140Y568590D01*
X1142980Y486750D01*
Y469880D01*
X1142350Y469620D01*
G37*
G36*
G01X1123020Y443880D02*
Y473250D01*
X1113250Y483020D01*
X1087500D01*
X1087270Y483250D01*
Y484980D01*
X1093250D01*
X1097020Y488750D01*
Y495250D01*
X1093250Y499020D01*
X1087250D01*
X1087020Y499250D01*
Y500750D01*
X1087250Y500980D01*
X1091250D01*
X1095020Y504750D01*
Y511250D01*
X1091920Y514350D01*
X1092180Y514980D01*
X1100750D01*
X1132980Y482750D01*
Y481250D01*
X1132450Y480720D01*
X1128750D01*
X1124980Y476950D01*
Y470450D01*
X1128750Y466680D01*
X1136750D01*
X1136980Y466450D01*
Y464950D01*
X1136750Y464720D01*
X1128750D01*
X1124980Y460950D01*
Y454450D01*
X1128750Y450680D01*
X1136750D01*
X1136980Y450450D01*
Y448950D01*
X1136750Y448720D01*
X1128750D01*
X1123650Y443620D01*
X1123020Y443880D01*
G37*
G36*
G01X1068350Y463920D02*
X1050660Y481610D01*
X1050920Y482240D01*
X1060510D01*
Y509480D01*
X1066250D01*
X1068980Y506750D01*
Y464180D01*
X1068350Y463920D01*
G37*
G36*
G01X1075020Y464180D02*
Y471820D01*
X1075650Y472080D01*
X1078750Y468980D01*
X1108750D01*
X1108980Y468750D01*
Y467250D01*
X1108750Y467020D01*
X1078750D01*
X1075650Y463920D01*
X1075020Y464180D01*
G37*
G36*
G01X1039360Y526910D02*
X1025180Y541100D01*
X1025440Y541720D01*
X1032560D01*
Y543980D01*
X1039990D01*
Y527170D01*
X1039360Y526910D01*
G37*
G36*
G01X1121610Y604660D02*
X1027920Y698350D01*
X1028180Y698980D01*
X1036750D01*
X1125330Y610400D01*
X1125320Y609240D01*
X1125160Y609090D01*
G03X1123120Y605390I4843J-5083D01*
G01X1123060Y605090D01*
X1121610Y604660D01*
G37*
G36*
G01X1180060Y594210D02*
X1051920Y722350D01*
X1052180Y722980D01*
X1056750D01*
X1182890Y596840D01*
X1182600Y596480D01*
G03X1181530Y594730I5389J-4497D01*
G01X1181430Y594480D01*
X1180060Y594210D01*
G37*
G36*
G01X1091000Y877270D02*
X1071250Y897020D01*
X1053990D01*
Y919040D01*
X1051240D01*
X1050980Y919660D01*
X1054750Y923440D01*
X1058120D01*
Y924920D01*
X1059050D01*
Y931080D01*
X1058120D01*
Y932560D01*
X1057720D01*
X1057460Y933190D01*
X1070820Y946550D01*
X1071450Y946290D01*
Y937730D01*
X1090550D01*
Y937790D01*
X1091180Y938060D01*
X1094000Y935230D01*
X1094490D01*
Y923270D01*
X1090560D01*
Y924280D01*
X1081440D01*
Y913880D01*
X1082920D01*
Y912950D01*
X1089080D01*
Y913880D01*
X1090560D01*
Y916230D01*
X1094490D01*
Y877270D01*
X1091000D01*
G37*
G36*
G01X1077990Y857020D02*
Y864730D01*
X1094490D01*
Y857020D01*
X1077990D01*
G37*
G36*
G01X1143020Y347370D02*
Y432750D01*
X1149020Y438750D01*
Y485820D01*
X1149650Y486080D01*
X1150980Y484750D01*
Y437250D01*
X1146980Y433250D01*
Y347370D01*
X1143020D01*
G37*
G36*
G01X1139250Y442680D02*
X1142350Y445780D01*
X1142980Y445520D01*
Y441250D01*
X1136980Y435250D01*
Y347370D01*
X1133020D01*
Y357250D01*
X1129170Y361100D01*
Y440600D01*
X1131250Y442680D01*
X1139250D01*
G37*
G36*
G01X1202170Y524100D02*
X1130660Y595610D01*
X1131090Y597060D01*
X1131390Y597120D01*
G03X1133870Y598140I-1381J6883D01*
G01X1134080Y598280D01*
X1135310Y597870D01*
X1135390Y597630D01*
G03X1148470Y597270I6610J2368D01*
G01X1148570Y597520D01*
X1149940Y597790D01*
X1202800Y544930D01*
Y524360D01*
X1202170Y524100D01*
G37*
G36*
G01X1206350Y439920D02*
X1189020Y457250D01*
Y503250D01*
X1088660Y603610D01*
X1089090Y605060D01*
X1089390Y605120D01*
G03X1094470Y609270I-1387J6882D01*
G01X1094570Y609520D01*
X1095940Y609790D01*
X1190980Y514750D01*
Y456750D01*
X1206980Y440750D01*
Y440180D01*
X1206350Y439920D01*
G37*
G36*
G01X1117010Y923770D02*
Y942730D01*
X1141000D01*
X1149020Y950750D01*
Y967930D01*
X1151480D01*
Y949870D01*
X1125380Y923770D01*
X1117010D01*
G37*
G36*
G01X1163020Y347370D02*
Y483820D01*
X1163650Y484080D01*
X1166980Y480750D01*
Y347370D01*
X1163020D01*
G37*
G36*
G01X1156980D02*
X1153020D01*
Y430750D01*
X1156350Y434080D01*
X1156980Y433820D01*
Y347370D01*
G37*
G36*
G01X1217010Y306170D02*
Y315080D01*
G03X1216210Y318330I-7002J0D01*
G01X1216270D01*
Y347370D01*
X1205020D01*
Y366750D01*
X1213020Y374750D01*
Y439820D01*
X1213650Y440080D01*
X1214980Y438750D01*
Y368750D01*
X1234980Y348750D01*
Y347370D01*
X1223730D01*
Y317160D01*
G03X1223290Y311940I6270J-3157D01*
G01X1223380Y311650D01*
X1217640Y305910D01*
X1217010Y306170D01*
G37*
G36*
G01X1238350Y359920D02*
X1225020Y373250D01*
Y442910D01*
X1205020Y462910D01*
Y479640D01*
X1205650Y479900D01*
X1220650Y464900D01*
X1220600Y463710D01*
X1220430Y463560D01*
G03X1231970Y457420I4568J-5330D01*
G01X1232010Y457740D01*
X1233480Y458250D01*
X1236520Y455210D01*
X1238660D01*
G03X1239420Y462490I6339J3018D01*
G01X1239280Y462300D01*
X1238050Y462220D01*
X1220210Y480060D01*
X1220480Y481430D01*
X1220730Y481530D01*
G03X1220840Y481580I-2850J6416D01*
G01X1221520Y481310D01*
G03X1234690Y481880I6481J2693D01*
G01X1234810Y482240D01*
X1237490D01*
X1245830Y473900D01*
X1263450D01*
Y471730D01*
X1282550D01*
Y473900D01*
X1283830D01*
X1284980Y472750D01*
Y467250D01*
X1242400Y424670D01*
X1241240Y424680D01*
X1241090Y424840D01*
G03X1237710Y413190I-5088J-4839D01*
G01X1237950Y413250D01*
X1238980Y412450D01*
Y404340D01*
G03Y391660I3020J-6340D01*
G01Y360180D01*
X1238350Y359920D01*
G37*
G36*
G01X1212840Y494590D02*
Y546000D01*
X1213470Y546260D01*
X1214980Y544750D01*
Y494340D01*
G03X1214380Y494020I3001J-6350D01*
G01X1214130Y493860D01*
X1212840Y494590D01*
G37*
G36*
G01X1195940Y589790D02*
X1215880Y569850D01*
X1215790Y569560D01*
G03X1228840Y564480I6710J-2064D01*
G01X1235490D01*
Y535520D01*
X1231250D01*
X1225650Y529920D01*
X1225020Y530180D01*
Y549250D01*
X1190210Y584060D01*
X1190480Y585430D01*
X1190730Y585530D01*
G03X1194470Y589270I-2730J6470D01*
G01X1194570Y589520D01*
X1195940Y589790D01*
G37*
G36*
G01X1288750Y552980D02*
X1304980Y536750D01*
Y305250D01*
X1296750Y297020D01*
X1276270D01*
Y301670D01*
X1263730D01*
Y297020D01*
X1262980D01*
Y271020D01*
X1247250D01*
X1246270Y272000D01*
X1246530Y272630D01*
X1256270D01*
Y301670D01*
X1253020D01*
Y304950D01*
X1254560Y305550D01*
X1254800Y305290D01*
G03X1261390Y316880I5203J4710D01*
G01X1261090Y316940D01*
X1260660Y318390D01*
X1263020Y320750D01*
Y353250D01*
X1253020Y363250D01*
Y383660D01*
G03Y396340I-3020J6340D01*
G01Y414750D01*
X1299020Y460750D01*
Y501250D01*
X1286100Y514170D01*
Y527450D01*
X1288270D01*
Y536550D01*
X1267730D01*
Y535520D01*
X1256010D01*
Y543980D01*
X1265750D01*
X1266750Y542980D01*
X1279020D01*
Y544920D01*
X1279050D01*
Y550780D01*
X1281250Y552980D01*
X1288750D01*
G37*
G36*
G01X1292940Y571060D02*
X1332000Y532000D01*
Y314000D01*
X1364000Y282000D01*
X1590000D01*
X1604000Y296000D01*
Y316000D01*
X1608000Y320000D01*
X1626000D01*
X1630000Y316000D01*
Y284000D01*
X1606000Y260000D01*
X1348000D01*
X1334000Y274000D01*
X1266000D01*
Y294000D01*
X1298000D01*
X1308000Y304000D01*
Y538000D01*
X1290000Y556000D01*
X1280000D01*
X1276000Y552000D01*
Y546000D01*
X1268000D01*
X1266000Y548000D01*
Y558000D01*
X1274000Y566000D01*
X1278000D01*
X1280000Y568000D01*
Y574000D01*
X1288230D01*
G03X1292780Y571090I5766J4003D01*
G01X1292940Y571060D01*
G37*
G36*
G01X1223020Y301670D02*
Y302750D01*
X1227650Y307380D01*
X1227940Y307290D01*
G03X1233460Y307890I2063J6710D01*
G01X1233710Y308030D01*
X1234980Y307300D01*
Y301670D01*
X1223020D01*
G37*
G36*
G01X1245020D02*
Y318330D01*
X1251170D01*
X1251430Y317700D01*
X1246980Y313250D01*
Y301670D01*
X1245020D01*
G37*
G36*
G01X1256980Y347370D02*
X1253020D01*
Y353250D01*
X1245020Y361250D01*
Y383300D01*
X1246290Y384030D01*
X1246540Y383890D01*
G03X1246980Y383660I3471J6104D01*
G01Y360750D01*
X1256980Y350750D01*
Y347370D01*
G37*
G36*
G01X1279430Y514840D02*
X1267450Y526820D01*
X1267710Y527450D01*
X1280060D01*
Y515100D01*
X1279430Y514840D01*
G37*
G36*
G01X1231020Y526750D02*
X1233750Y529480D01*
X1235490D01*
Y493670D01*
X1234860Y493410D01*
X1231020Y497250D01*
Y526750D01*
G37*
G36*
G01X1260250Y519480D02*
X1284980Y494750D01*
Y479940D01*
X1282550D01*
Y492270D01*
X1275300D01*
X1274520Y493380D01*
X1274610Y493630D01*
G03X1263450Y490650I-6610J2368D01*
G01Y479940D01*
X1248330D01*
X1246660Y481610D01*
X1246920Y482240D01*
X1256010D01*
Y519480D01*
X1260250D01*
G37*
G36*
G01X1256010Y551020D02*
Y579480D01*
X1267730D01*
Y567450D01*
X1270290D01*
X1270550Y566820D01*
X1262980Y559250D01*
Y551020D01*
X1256010D01*
G37*
G36*
G01X1335020Y959250D02*
X1328170Y966100D01*
X1323020D01*
Y980480D01*
X1334020D01*
Y999520D01*
X1299980D01*
Y980480D01*
X1312980D01*
Y963080D01*
G03X1313410Y961050I5007J0D01*
G01X1313450Y960960D01*
Y958110D01*
X1311080D01*
Y959050D01*
X1304920D01*
Y958110D01*
X1303450D01*
Y955040D01*
X1303410Y954950D01*
G03Y950890I4590J-2030D01*
G01X1303450Y950800D01*
Y947730D01*
X1322550D01*
Y950800D01*
X1322590Y950890D01*
G03Y954950I-4590J2030D01*
G01X1322550Y955040D01*
Y960060D01*
X1325670D01*
X1328980Y956750D01*
Y913250D01*
X1320750Y905020D01*
X1292750D01*
X1271650Y883920D01*
X1271020Y884180D01*
Y954750D01*
X1276330Y960060D01*
X1277450D01*
Y955040D01*
X1277410Y954950D01*
G03Y950890I4590J-2030D01*
G01X1277450Y950800D01*
Y947730D01*
X1296550D01*
Y950800D01*
X1296590Y950890D01*
G03Y954950I-4590J2030D01*
G01X1296550Y955040D01*
Y958110D01*
X1295080D01*
Y959050D01*
X1288920D01*
Y958110D01*
X1286550D01*
Y968270D01*
X1285020D01*
Y1052750D01*
X1294250Y1061980D01*
X1304980D01*
Y1055480D01*
X1334020D01*
Y1061980D01*
X1337750D01*
X1338980Y1060750D01*
Y972750D01*
X1360980Y950750D01*
Y918750D01*
X1374080Y905650D01*
X1373820Y905020D01*
X1330180D01*
X1329920Y905650D01*
X1335020Y910750D01*
Y959250D01*
G37*
G36*
G01X1237020Y862180D02*
Y903250D01*
X1229020Y911250D01*
Y980480D01*
X1242980D01*
Y963080D01*
G03X1243410Y961050I5007J0D01*
G01X1243450Y960960D01*
Y958110D01*
X1241080D01*
Y959050D01*
X1234920D01*
Y958110D01*
X1233450D01*
Y955040D01*
X1233410Y954950D01*
G03Y950890I4590J-2030D01*
G01X1233450Y950800D01*
Y947730D01*
X1252550D01*
Y950800D01*
X1252590Y950890D01*
G03Y954950I-4590J2030D01*
G01X1252550Y955040D01*
Y960060D01*
X1253670D01*
X1260980Y952750D01*
Y885250D01*
X1237650Y861920D01*
X1237020Y862180D01*
G37*
G36*
G01X1265000Y957270D02*
X1256170Y966100D01*
X1253020D01*
Y980480D01*
X1264020D01*
Y999520D01*
X1229020D01*
Y1026750D01*
X1243250Y1040980D01*
X1252650D01*
X1253050Y1039220D01*
X1252680Y1039040D01*
G03X1258070Y1039960I4317J-9041D01*
G01X1257610Y1040010D01*
Y1040980D01*
X1261250D01*
X1293250Y1072980D01*
X1304980D01*
Y1068020D01*
X1291750D01*
X1278980Y1055250D01*
Y968270D01*
X1277450D01*
Y966100D01*
X1273830D01*
X1265000Y957270D01*
G37*
G36*
G01X1381250Y917020D02*
X1373020Y925250D01*
Y955250D01*
X1369920Y958350D01*
X1370180Y958980D01*
X1379920D01*
Y955160D01*
X1380890D01*
Y951430D01*
X1391110D01*
Y955160D01*
X1392080D01*
Y960060D01*
X1395450D01*
Y947730D01*
X1396980D01*
Y934080D01*
X1395160D01*
Y933110D01*
X1391430D01*
Y922890D01*
X1395160D01*
Y921920D01*
X1408080D01*
Y934080D01*
X1403020D01*
Y947730D01*
X1416980D01*
Y922630D01*
X1411370Y917020D01*
X1381250D01*
G37*
G36*
G01X1459920Y943650D02*
X1471250Y954980D01*
X1481920D01*
Y951920D01*
X1494840D01*
Y952890D01*
X1497160D01*
Y951920D01*
X1510080D01*
Y954980D01*
X1515730D01*
Y953450D01*
X1526980D01*
Y944550D01*
X1515730D01*
Y943020D01*
X1510080D01*
Y946080D01*
X1497160D01*
Y945110D01*
X1494840D01*
Y946080D01*
X1481920D01*
Y943020D01*
X1460180D01*
X1459920Y943650D01*
G37*
G36*
G01X1530000Y960000D02*
X1522000Y968000D01*
Y976000D01*
X1538000D01*
X1552000Y962000D01*
Y938000D01*
X1530000D01*
Y960000D01*
G37*
G36*
G01X1538000Y980000D02*
X1504000D01*
Y986000D01*
X1512000D01*
X1514000Y988000D01*
X1538000D01*
Y980000D01*
G37*
G36*
G01X1504000Y992000D02*
Y1008000D01*
X1512000D01*
X1524000Y996000D01*
X1538000D01*
Y992000D01*
X1504000D01*
G37*
G36*
G01X1556780Y981090D02*
X1556940Y981060D01*
X1562000Y976000D01*
X1578000D01*
Y966000D01*
X1570000Y958000D01*
Y940000D01*
X1568000Y938000D01*
X1558000D01*
Y948890D01*
X1558570D01*
Y959110D01*
X1558000D01*
Y964000D01*
X1542000Y980000D01*
Y1000000D01*
X1524000Y1018000D01*
Y1078000D01*
X1528000Y1082000D01*
X1540000D01*
X1544000Y1078000D01*
Y1016000D01*
X1552000Y1008000D01*
Y991640D01*
G03X1556780Y981090I6001J-3639D01*
G37*
G36*
G01X1620370Y968130D02*
Y970840D01*
X1619650D01*
Y973160D01*
X1620370D01*
Y988620D01*
X1603630D01*
Y986640D01*
X1598080D01*
Y988080D01*
X1585920D01*
Y984770D01*
X1581010D01*
Y988980D01*
X1581020D01*
Y997250D01*
X1581010Y997260D01*
Y1004260D01*
X1571020D01*
Y1084980D01*
X1587920D01*
X1626980Y1045920D01*
Y970080D01*
X1625030Y968130D01*
X1620370D01*
G37*
G36*
G01X1559060Y994940D02*
X1558000Y996000D01*
Y1010000D01*
X1550000Y1018000D01*
Y1082000D01*
X1568000D01*
Y1002000D01*
X1572000Y998000D01*
X1576000D01*
X1578000Y996000D01*
Y992000D01*
X1563770D01*
G03X1559220Y994910I-5766J-4003D01*
G01X1559060Y994940D01*
G37*
%LPC*%
G75*
G36*
G01X504710Y784800D02*
X504450Y784560D01*
X505050Y783020D01*
X521020D01*
Y712750D01*
X511250Y702980D01*
X214750D01*
X106980Y810750D01*
Y831020D01*
X108350D01*
Y833160D01*
X107630D01*
Y834100D01*
X106980Y834750D01*
Y844750D01*
X102750Y848980D01*
X88980D01*
Y850890D01*
X85430D01*
Y861110D01*
X88840D01*
X89160Y861430D01*
Y862080D01*
X89810D01*
X100980Y873250D01*
Y897020D01*
X123250D01*
X127020Y893250D01*
Y877250D01*
X129250Y875020D01*
X131450D01*
Y886270D01*
X131980D01*
Y895450D01*
X129730D01*
Y904550D01*
X130900D01*
Y912200D01*
X130440Y912250D01*
G02X127730Y915250I306J3000D01*
G01Y920750D01*
G02X130750Y923770I3020J0D01*
G01X136750D01*
G02X139770Y920750I0J-3020D01*
G01Y915250D01*
G02X138940Y913170I-3021J0D01*
G01Y904550D01*
X150270D01*
Y904080D01*
X153690D01*
X159080Y898690D01*
Y892600D01*
X164000D01*
Y878400D01*
X146000D01*
Y892600D01*
X150920D01*
Y895310D01*
X150780Y895450D01*
X140020D01*
Y886270D01*
X140550D01*
Y875020D01*
X165020D01*
Y860750D01*
X164000Y859730D01*
Y859400D01*
X163670D01*
X155920Y851650D01*
X156180Y851020D01*
X160750D01*
X166980Y857250D01*
Y885020D01*
X187020D01*
Y848750D01*
X175250Y836980D01*
X173080D01*
Y836950D01*
X167220D01*
X162600Y832330D01*
Y832000D01*
X162270D01*
X161250Y830980D01*
X146980D01*
Y847820D01*
X146350Y848080D01*
X145020Y846750D01*
Y830980D01*
X142180D01*
X141920Y830350D01*
X143250Y829020D01*
X153250D01*
X241250Y741020D01*
X466750D01*
X478980Y753250D01*
Y783020D01*
X494950D01*
X495550Y784560D01*
X495290Y784800D01*
G02X504710I4710J5200D01*
G37*
G36*
G01X387000Y967730D02*
X373000D01*
G02X369980Y970750I0J3020D01*
G01Y990250D01*
G02X373000Y993270I3020J0D01*
G01X373980D01*
Y998980D01*
X368080D01*
G02X366050Y999410I0J5007D01*
G01X365960Y999450D01*
X362890D01*
Y1000920D01*
X361950D01*
Y1007080D01*
X362890D01*
Y1010920D01*
X361950D01*
Y1017080D01*
X362890D01*
Y1018550D01*
X365960D01*
X366050Y1018590D01*
G02X368080Y1019020I2030J-4577D01*
G01X373980D01*
Y1048180D01*
G02X386020I6020J9820D01*
G01Y1014080D01*
G02X384550Y1010140I-6015J0D01*
G01Y1007860D01*
G02X386020Y1003920I-4545J-3940D01*
G01Y993270D01*
X387000D01*
G02X390020Y990250I0J-3020D01*
G01Y970750D01*
G02X387000Y967730I-3020J0D01*
G37*
G36*
G01X80750Y1041020D02*
X137250D01*
X151020Y1027250D01*
Y1010750D01*
X133250Y992980D01*
X107250D01*
X89020Y974750D01*
Y972180D01*
X89650Y971920D01*
X100750Y983020D01*
X143250D01*
X153020Y973250D01*
Y950750D01*
X125020Y922750D01*
Y898980D01*
X100980D01*
Y934750D01*
X89650Y946080D01*
X89020Y945820D01*
Y943250D01*
X95020Y937250D01*
Y898980D01*
X68750D01*
X44980Y922750D01*
Y1005250D01*
X80750Y1041020D01*
G37*
G36*
G01X309110Y1059430D02*
X298890D01*
Y1062980D01*
X283250D01*
X243020Y1022750D01*
Y817250D01*
X277250Y783020D01*
X477020D01*
Y760980D01*
X264750D01*
X218980Y806750D01*
Y1029250D01*
X242980Y1053250D01*
Y1081250D01*
X246750Y1085020D01*
X303250D01*
X313020Y1075250D01*
Y1062980D01*
X309110D01*
Y1059430D01*
G37*
G36*
G01X523730Y753160D02*
Y781670D01*
X536270D01*
Y753160D01*
G02X523730I-6270J-3160D01*
G37*
G36*
G01X873020Y687250D02*
Y626980D01*
X798980D01*
Y643020D01*
X820920D01*
Y643050D01*
X827080D01*
Y643020D01*
X831250D01*
X833250Y641020D01*
X840980D01*
Y644920D01*
X840950D01*
Y651080D01*
X840980D01*
Y685250D01*
X846750Y691020D01*
X869250D01*
X873020Y687250D01*
G37*
G36*
G01X340820Y190520D02*
Y171480D01*
X326780D01*
Y190520D01*
X327420D01*
X328130Y191850D01*
X327960Y192110D01*
G02X329440Y201500I5841J3891D01*
G01Y210120D01*
X330920D01*
Y211050D01*
X337080D01*
Y210120D01*
X338560D01*
Y201160D01*
G02X339640Y192110I-4761J-5158D01*
G01X339470Y191850D01*
X340180Y190520D01*
X340820D01*
G37*
G36*
G01X656270Y827370D02*
Y799160D01*
G02X643730I-6270J-3160D01*
G01Y827370D01*
X656270D01*
G37*
G36*
G01X926000Y961600D02*
Y947400D01*
X908000D01*
Y948480D01*
X906110D01*
X906000Y948410D01*
G02Y960590I-3500J6090D01*
G01X906110Y960520D01*
X908000D01*
Y961600D01*
X926000D01*
G37*
G36*
G01X960280Y889480D02*
Y889440D01*
X949880D01*
Y890920D01*
X948950D01*
Y897080D01*
X949880D01*
Y898560D01*
X960280D01*
Y898520D01*
X966240D01*
G02X969250Y899520I3010J-4030D01*
G01X976250D01*
G02Y889480I0J-5020D01*
G01X960280D01*
G37*
G36*
G01X1610730Y596230D02*
G02X1605970Y591470I4670J-9430D01*
G01X1606130Y591790D01*
X1598980Y598950D01*
Y604180D01*
X1597500Y604820D01*
X1597260Y604580D01*
G02Y619820I-7260J7620D01*
G01X1597500Y619580D01*
X1598980Y620220D01*
Y629580D01*
X1597500Y630220D01*
X1597260Y629980D01*
G02Y645220I-7260J7620D01*
G01X1597500Y644980D01*
X1598980Y645620D01*
Y654980D01*
X1597500Y655620D01*
X1597260Y655380D01*
G02Y670620I-7260J7620D01*
G01X1597500Y670380D01*
X1598980Y671020D01*
Y680380D01*
X1597500Y681020D01*
X1597260Y680780D01*
G02Y696020I-7260J7620D01*
G01X1597500Y695780D01*
X1598980Y696420D01*
Y705780D01*
X1597500Y706420D01*
X1597260Y706180D01*
G02X1580740Y718790I-7260J7615D01*
G01X1574980Y724550D01*
Y738750D01*
X1450750Y862980D01*
X1308340D01*
G02X1294980Y865970I-6339J3018D01*
G01Y866180D01*
X1294180Y866980D01*
X1293970D01*
G02X1300340Y877020I31J7021D01*
G01X1453250D01*
X1583110Y747160D01*
X1583470Y747440D01*
G02X1597260Y746820I6538J-8241D01*
G01X1597500Y746580D01*
X1598980Y747220D01*
Y798750D01*
X1486350Y911380D01*
X1486060Y911290D01*
G02X1490710Y915940I-2060J6710D01*
G01X1490620Y915650D01*
X1605020Y801250D01*
Y796380D01*
X1606650Y795850D01*
X1606870Y796150D01*
G02Y783850I8530J-6150D01*
G01X1606650Y784150D01*
X1605020Y783620D01*
Y770980D01*
X1606650Y770450D01*
X1606870Y770750D01*
G02Y758450I8530J-6150D01*
G01X1606650Y758750D01*
X1605020Y758220D01*
Y745580D01*
X1606650Y745050D01*
X1606870Y745350D01*
G02Y733050I8530J-6150D01*
G01X1606650Y733350D01*
X1605020Y732820D01*
Y720180D01*
X1606650Y719650D01*
X1606870Y719950D01*
G02Y707650I8530J-6150D01*
G01X1606650Y707950D01*
X1605020Y707420D01*
Y694780D01*
X1606650Y694250D01*
X1606870Y694550D01*
G02Y682250I8530J-6150D01*
G01X1606650Y682550D01*
X1605020Y682020D01*
Y669380D01*
X1606650Y668850D01*
X1606870Y669150D01*
G02Y656850I8530J-6150D01*
G01X1606650Y657150D01*
X1605020Y656620D01*
Y643980D01*
X1606650Y643450D01*
X1606870Y643750D01*
G02Y631450I8530J-6150D01*
G01X1606650Y631750D01*
X1605020Y631220D01*
Y618580D01*
X1606650Y618050D01*
X1606870Y618350D01*
G02Y606050I8530J-6150D01*
G01X1606650Y606350D01*
X1605020Y605820D01*
Y601450D01*
X1610410Y596070D01*
X1610730Y596230D01*
G37*
G54D81*
X1387000Y1030000D03*
X1437000D03*
X1307000D03*
G54D88*
X1590000Y332800D03*
Y358200D03*
Y383600D03*
Y409000D03*
Y434400D03*
Y459800D03*
Y485200D03*
Y510600D03*
Y536000D03*
Y561400D03*
Y586800D03*
X1615400Y358200D03*
Y383600D03*
Y409000D03*
Y434400D03*
Y459800D03*
Y485200D03*
Y510600D03*
Y536000D03*
Y561400D03*
G54D79*
X860000Y60000D03*
X915000D03*
X990000D03*
X1160000D03*
X1290000D03*
X1420000D03*
X1475000D03*
X1550000D03*
X1605000D03*
X1680000D03*
G54D78*
X225000Y153000D03*
X435000D03*
G54D87*
X1260000Y790000D03*
G54D80*
X1119170Y1037950D03*
X1160830D03*
X1000830D03*
X959170D03*
G54D85*
X855700Y996000D03*
X724300D03*
G54D77*
X500500Y92750D03*
G54D84*
X939000Y973500D03*
G54D75*
X43500Y30000D03*
Y1070000D03*
X893500Y550000D03*
X1743500Y30000D03*
Y1070000D03*
G54D83*
X1447000Y990000D03*
G54D76*
X16500Y30000D03*
Y1070000D03*
X20450Y20450D03*
Y39550D03*
Y1060450D03*
Y1079550D03*
X30000Y16500D03*
Y43500D03*
Y1056500D03*
Y1083500D03*
X39550Y20450D03*
Y39550D03*
Y1060450D03*
Y1079550D03*
X866500Y550000D03*
X870450Y540450D03*
Y559550D03*
X880000Y536500D03*
Y563500D03*
X889550Y540450D03*
Y559550D03*
X1716500Y30000D03*
Y1070000D03*
X1720450Y20450D03*
Y39550D03*
Y1060450D03*
Y1079550D03*
X1730000Y16500D03*
Y43500D03*
Y1056500D03*
Y1083500D03*
X1739550Y20450D03*
Y39550D03*
Y1060450D03*
Y1079550D03*
G54D86*
X1170000Y767150D03*
Y812850D03*
X1190000Y767150D03*
Y812850D03*
X1210000Y767150D03*
Y812850D03*
X1230000Y767150D03*
Y812850D03*
X1250000Y767150D03*
Y812850D03*
X1270000Y767150D03*
Y812850D03*
G54D82*
X1244500Y1065000D03*
%LPD*%
G75*
G36*
G01X70000Y902000D02*
X48000Y924000D01*
Y1004000D01*
X82000Y1038000D01*
X136000D01*
X148000Y1026000D01*
Y1012000D01*
X132000Y996000D01*
X106000D01*
X86000Y976000D01*
Y942000D01*
X92000Y936000D01*
Y902000D01*
X70000D01*
G37*
G36*
G01X510000Y706000D02*
X216000D01*
X110000Y812000D01*
Y828000D01*
X140000D01*
X142000Y826000D01*
X152000D01*
X240000Y738000D01*
X468000D01*
X482000Y752000D01*
Y780000D01*
X518000D01*
Y714000D01*
X510000Y706000D01*
G37*
G36*
G01X142000Y834000D02*
X123650D01*
Y834570D01*
X111430D01*
X110000Y836000D01*
Y846000D01*
X104000Y852000D01*
X92000D01*
Y860000D01*
X104000Y872000D01*
Y894000D01*
X122000D01*
X124000Y892000D01*
Y876000D01*
X128000Y872000D01*
X162000D01*
Y862000D01*
X154000Y854000D01*
X148000D01*
X142000Y848000D01*
Y834000D01*
G37*
G36*
G01X104000Y902000D02*
Y936000D01*
X92000Y948000D01*
Y970000D01*
X102000Y980000D01*
X142000D01*
X150000Y972000D01*
Y952000D01*
X122000Y924000D01*
Y902000D01*
X104000D01*
G37*
G36*
G01X160000Y834000D02*
X150000D01*
Y848000D01*
X162000D01*
X170000Y856000D01*
Y882000D01*
X184000D01*
Y850000D01*
X174000Y840000D01*
X166000D01*
X160000Y834000D01*
G37*
G36*
G01X474000Y780000D02*
Y764000D01*
X266000D01*
X222000Y808000D01*
Y1028000D01*
X246000Y1052000D01*
Y1080000D01*
X248000Y1082000D01*
X300010D01*
X310000Y1072010D01*
Y1066000D01*
X282000D01*
X240000Y1024000D01*
Y816000D01*
X276000Y780000D01*
X474000D01*
G37*
G36*
G01X840000Y630000D02*
X802000D01*
Y640000D01*
X830000D01*
X832000Y638000D01*
X840000D01*
Y630000D01*
G37*
G36*
G01X844000D02*
Y684000D01*
X848000Y688000D01*
X868000D01*
X870000Y686000D01*
Y630000D01*
X844000D01*
G37*
G36*
G01X1308340Y869020D02*
G03X1308110Y869460I-6334J-3031D01*
G01X1307970Y869710D01*
X1308700Y870980D01*
X1450750D01*
X1452080Y869650D01*
X1451820Y869020D01*
X1308340D01*
G37*
G36*
G01X1585010Y723070D02*
X1581020Y727050D01*
Y731180D01*
X1582500Y731820D01*
X1582740Y731580D01*
G03X1597260I7260J7620D01*
G01X1597500Y731820D01*
X1598980Y731180D01*
Y721820D01*
X1597500Y721180D01*
X1597260Y721420D01*
G03X1585330Y723230I-7258J-7619D01*
G01X1585010Y723070D01*
G37*
G54D10*
X30000Y30000D03*
Y1070000D03*
X880000Y550000D03*
X1730000Y30000D03*
Y1070000D03*
G54D20*
X136500Y841000D03*
X146000Y819000D03*
X155500Y841000D03*
X638500Y547000D03*
X648000Y569000D03*
X615500Y547000D03*
X596500D03*
X606000Y569000D03*
X657500Y547000D03*
X1011500Y415000D03*
X992500D03*
X1002000Y437000D03*
X1053500Y415000D03*
X1034500D03*
X1044000Y437000D03*
G54D11*
X16500Y30000D03*
Y1070000D03*
X39550Y20450D03*
X30000Y16500D03*
X20450Y20450D03*
X43500Y30000D03*
X20450Y39550D03*
X30000Y43500D03*
X39550Y39550D03*
X43500Y30000D03*
Y1070000D03*
X39550Y1060450D03*
X30000Y1056500D03*
X20450Y1060450D03*
Y1079550D03*
X30000Y1083500D03*
X39550Y1079550D03*
X43500Y1070000D03*
X893500Y550000D03*
X889550Y540450D03*
X880000Y536500D03*
X870450Y540450D03*
X866500Y550000D03*
X870450Y559550D03*
X880000Y563500D03*
X889550Y559550D03*
X893500Y550000D03*
X1716500Y30000D03*
Y1070000D03*
X1739550Y20450D03*
X1730000Y16500D03*
X1720450Y20450D03*
X1743500Y30000D03*
X1720450Y39550D03*
X1730000Y43500D03*
X1739550Y39550D03*
X1743500Y30000D03*
Y1070000D03*
X1739550Y1060450D03*
X1730000Y1056500D03*
X1720450Y1060450D03*
Y1079550D03*
X1730000Y1083500D03*
X1739550Y1079550D03*
X1743500Y1070000D03*
G54D30*
X225000Y153000D03*
X435000D03*
G54D21*
X116000Y823110D03*
Y840890D03*
X700000Y488890D03*
Y471110D03*
X722000Y488890D03*
Y471110D03*
X1612000Y963110D03*
Y980890D03*
G54D12*
X83000Y882000D03*
G54D13*
Y914000D03*
G54D40*
X498000Y666750D03*
Y717250D03*
G54D31*
X217500Y181000D03*
X229500D03*
G54D22*
X113000Y914000D03*
G54D14*
X80380Y856000D03*
X95620D03*
X296380Y821000D03*
X311620D03*
X504380Y62000D03*
X519620D03*
X502380Y140000D03*
X517620D03*
X630380Y480000D03*
X645620D03*
X604380Y870000D03*
X619620D03*
X702380Y404000D03*
X706380Y840000D03*
X717620Y404000D03*
X734380Y372000D03*
X749620D03*
X721620Y840000D03*
X735620Y910000D03*
X720380D03*
X938380Y914000D03*
X953620D03*
X1000380Y470000D03*
X1015620D03*
X1386380Y928000D03*
X1401620D03*
X1503620Y940000D03*
X1488380D03*
X1503620Y958000D03*
X1488380D03*
X1563620Y954000D03*
X1548380D03*
G54D32*
X242500Y181000D03*
X258800D03*
X283800D03*
X308800D03*
X333800D03*
X358800D03*
X383800D03*
X433800D03*
X408800D03*
G54D41*
X504300Y996000D03*
X635700D03*
X724300D03*
X855700D03*
G54D23*
X113000Y882000D03*
G54D50*
X685400Y646000D03*
X730600D03*
G54D24*
X145080Y900000D03*
X134920D03*
X300920Y836000D03*
X311080D03*
X357920Y1004000D03*
X368080D03*
X357920Y1014000D03*
X368080D03*
X607080Y480000D03*
X596920D03*
X610920Y886000D03*
X621080D03*
X610920Y896000D03*
X621080D03*
X648920Y944000D03*
X610920Y914000D03*
X621080D03*
X706920Y854000D03*
X659080Y944000D03*
X683080Y968000D03*
X672920D03*
X748920Y514000D03*
X759080D03*
X748920Y504000D03*
X759080D03*
X730920Y572000D03*
X741080D03*
Y552000D03*
X730920D03*
Y562000D03*
X741080D03*
X771080Y572000D03*
X760920D03*
X771080Y644000D03*
X760920D03*
X714920Y866000D03*
X725080D03*
X717080Y854000D03*
X772920Y868000D03*
X729080Y934000D03*
X718920D03*
X729080Y924000D03*
X718920D03*
X770920Y920000D03*
X801080Y498000D03*
X790920D03*
X835080Y582000D03*
X824920D03*
X836920Y636000D03*
Y648000D03*
X783080Y868000D03*
X781080Y920000D03*
X883080Y614000D03*
X872920D03*
X847080Y636000D03*
Y648000D03*
X901080Y974000D03*
X890920D03*
X944920Y894000D03*
X955080D03*
X1004920Y456000D03*
X1015080D03*
X1021080Y894000D03*
X1010920D03*
X984920Y878000D03*
X995080D03*
X1021080Y914000D03*
X1010920D03*
X1025080Y976000D03*
X1014920D03*
X1025080Y986000D03*
X1014920D03*
X1073080Y96000D03*
X1062920D03*
X1088920D03*
X1062920Y108000D03*
X1073080D03*
X1049080Y966000D03*
X1038920D03*
X1063080Y928000D03*
X1052920D03*
X1049080Y976000D03*
X1038920D03*
X1099080Y96000D03*
X1205080Y886000D03*
X1194920D03*
Y868000D03*
X1205080D03*
X1194920Y896000D03*
X1205080D03*
X1194920Y906000D03*
X1205080D03*
X1229080Y96000D03*
X1218920D03*
X1272920Y548000D03*
Y582000D03*
Y572000D03*
Y532000D03*
X1283080Y548000D03*
Y582000D03*
Y572000D03*
Y532000D03*
X1361080Y96000D03*
X1350920D03*
X1491080D03*
X1480920D03*
X1531080Y940000D03*
X1520920D03*
X1531080Y958000D03*
X1520920D03*
X1507080Y1006000D03*
X1496920D03*
Y994000D03*
X1507080D03*
X1496920Y982000D03*
X1507080D03*
X1561080Y940000D03*
X1550920D03*
X1621080Y96000D03*
X1610920D03*
X1647080D03*
X1636920D03*
G54D15*
G01X466000Y60000D02*
X180000D01*
X98000Y142000D01*
G01X203500Y17000D02*
X216270D01*
G01X203500Y163000D02*
Y143730D01*
G01X166250Y918000D02*
X176000D01*
G01X283800Y181000D02*
Y168200D01*
G01X296380Y821000D02*
X286000D01*
G01X358800Y168230D02*
Y181000D01*
G01X408000Y878000D02*
Y864500D01*
X401000Y857500D01*
G01X394000Y878000D02*
Y864500D01*
X401000Y857500D01*
G01X416000Y972000D02*
X409500D01*
X401000Y980500D01*
G01X416000Y990000D02*
X410500D01*
X401000Y980500D01*
G01X380000Y1003920D02*
Y980500D01*
G01Y1014080D02*
Y1058000D01*
G01X458500Y163000D02*
Y143730D01*
G01X476500Y17000D02*
X463730D01*
G01X522000Y219620D02*
X512380D01*
G01X548000Y34000D02*
X554000Y28000D01*
X568000D01*
G01X548000Y34000D02*
X528000D01*
G01X538000Y117620D02*
Y128000D01*
G01X544000Y219620D02*
X554000D01*
G01X530000Y767150D02*
Y750000D01*
G01X550000Y767150D02*
Y750000D01*
G01X730000Y26000D02*
X710000D01*
X708000Y28000D01*
Y34000D01*
G01X730000Y50000D02*
X714000D01*
X708000Y44000D01*
Y34000D01*
G01X700000Y488890D02*
X688380D01*
G01X700000Y514380D02*
Y504000D01*
G01X690000Y784000D02*
Y767150D01*
G01D02*
Y750000D01*
G01X722000Y488890D02*
Y500000D01*
G01X758000Y918000D02*
Y906000D01*
G01X735620Y910000D02*
Y921620D01*
X738000Y924000D01*
G01X802000Y930000D02*
X766000D01*
X758000Y922000D01*
Y920000D01*
G01X814000Y622000D02*
Y614100D01*
X807900Y608000D01*
G01X800000Y622000D02*
Y615900D01*
X807900Y608000D01*
G01X809000Y653500D02*
Y663000D01*
X808000Y664000D01*
G01X798000Y672000D02*
X807900D01*
X813900Y678000D01*
G01X798000Y684000D02*
X807900D01*
X813900Y678000D01*
G01X818000Y906000D02*
Y914000D01*
X802000Y930000D01*
G01X798000Y882000D02*
Y868000D01*
G01X818000Y906000D02*
Y882000D01*
G01D02*
Y876000D01*
X810000Y868000D01*
X798000D01*
G01X917000Y954500D02*
X902500D01*
G01X939000Y956500D02*
Y945000D01*
X938000Y944000D01*
G01X938380Y914000D02*
X928000D01*
G01X938000Y1014000D02*
Y996000D01*
G01Y1067000D02*
X955770D01*
G01X1000380Y470000D02*
Y460380D01*
X996000Y456000D01*
G01X1021850Y415000D02*
X1011500D01*
G01X995000Y956500D02*
Y945000D01*
X994000Y944000D01*
G01X1025080Y994920D02*
Y1010920D01*
X1022000Y1014000D01*
G01Y1067000D02*
X1004230D01*
G01X1070000Y908000D02*
Y921080D01*
G01X1046000Y868000D02*
X1040000D01*
X1034000Y862000D01*
G01X1090000Y997730D02*
Y1006000D01*
X1098000Y1014000D01*
G01X1090000Y1050000D02*
Y1059000D01*
X1098000Y1067000D01*
G01X1106000Y997730D02*
Y1006000D01*
X1098000Y1014000D01*
G01X1106000Y1049730D02*
Y1059000D01*
X1098000Y1067000D01*
G01X1190000Y997730D02*
Y1006000D01*
X1182000Y1014000D01*
G01X1174000Y997730D02*
Y1006000D01*
X1182000Y1014000D01*
G01X1190000Y1049730D02*
Y1059000D01*
X1182000Y1067000D01*
G01X1174000Y1049730D02*
Y1059000D01*
X1182000Y1067000D01*
G01X1377000Y990000D02*
Y1002770D01*
G01X1374500Y1065000D02*
Y1052230D01*
G01X1434000Y946380D02*
Y934000D01*
G01X1592000Y966380D02*
Y956000D01*
X68000Y858000D03*
Y870000D03*
Y882000D03*
X116000Y860000D03*
X203500Y143730D03*
X170000Y824000D03*
X176000Y918000D03*
X216270Y17000D03*
X267080Y215080D03*
X242000Y224000D03*
X230000D03*
X283800Y168200D03*
X333800Y196000D03*
X292000Y836000D03*
X286000Y821000D03*
X304000Y1044000D03*
X358800Y168230D03*
X396000Y215080D03*
X338000Y222000D03*
X394000Y878000D03*
X350000Y1014000D03*
Y1004000D03*
X458500Y143730D03*
X441810Y215080D03*
X454000Y772000D03*
X408000Y878000D03*
X416000Y972000D03*
Y990000D03*
X463730Y17000D03*
X492000Y62000D03*
X466000Y60000D03*
X520000Y78000D03*
X508000Y128000D03*
X510000Y174000D03*
X506000Y188000D03*
Y200000D03*
X512380Y219620D03*
X490000Y316000D03*
X510000D03*
X466000Y282000D03*
Y294000D03*
X478000Y282000D03*
Y294000D03*
X506000Y650000D03*
X490000D03*
X466000Y772000D03*
X490000Y830000D03*
Y796000D03*
X510000D03*
Y830000D03*
X568500Y40000D03*
X580000D03*
X568000Y28000D03*
X528000Y34000D03*
X548000Y66000D03*
X568000Y74000D03*
X538000Y128000D03*
X578000Y150000D03*
X568000Y96000D03*
X572000Y138000D03*
X576000Y116000D03*
X534000Y156000D03*
X554000Y219620D03*
X530000Y316000D03*
Y304000D03*
X574000Y458000D03*
X584000Y448000D03*
X564000D03*
X576000Y420000D03*
X584000Y470000D03*
X564000D03*
X586000Y736000D03*
X570000D03*
X586000Y748000D03*
X570000D03*
X530000Y750000D03*
X550000D03*
X530000Y796000D03*
Y830000D03*
X550000Y796000D03*
Y830000D03*
X615500Y40500D03*
X630000Y40000D03*
X644000D03*
X642000Y96000D03*
X632000D03*
X598000Y100000D03*
X618000Y128000D03*
X650000Y132000D03*
X598000Y112000D03*
X610500Y134000D03*
X596000Y124000D03*
X634000Y128000D03*
X610000Y316000D03*
Y304000D03*
X618000Y512000D03*
X606000D03*
X607080Y487080D03*
X630380Y489620D03*
X594000Y512000D03*
X625000Y547000D03*
X650000Y796000D03*
X636000Y846000D03*
X602000Y896000D03*
Y886000D03*
X609550Y860000D03*
X636000Y862000D03*
X628000Y904000D03*
X602000Y914000D03*
X640000Y944000D03*
X684000Y40000D03*
X694000Y76000D03*
X670500Y40500D03*
X674000Y96000D03*
Y150000D03*
X694000Y144000D03*
X666000Y112000D03*
X678000Y108000D03*
X682000Y142000D03*
X654000Y192000D03*
X666000Y182000D03*
X664000Y162000D03*
X654000Y180000D03*
X682000Y158000D03*
X670000Y172000D03*
X708000Y414000D03*
X714000Y506000D03*
X688380Y488890D03*
X686000Y512000D03*
X700000Y504000D03*
X656000Y648000D03*
X712000Y748000D03*
X690000Y750000D03*
X680000Y830000D03*
X660000D03*
X690000Y784000D03*
X694000Y838920D03*
X658000Y846000D03*
X660000Y878000D03*
X680000D03*
X654000Y894000D03*
X686000D03*
X704000Y866000D03*
X692000Y968000D03*
X680000Y910000D03*
X660000D03*
X668000Y940000D03*
X708000Y923080D03*
X730000Y26000D03*
Y50000D03*
X758000Y312000D03*
X752000Y388000D03*
X724000Y372000D03*
X764000Y382000D03*
X742000Y356000D03*
X750000Y426000D03*
X758000Y452000D03*
X770000D03*
X722000Y500000D03*
X740000Y504000D03*
Y514000D03*
X760000Y486000D03*
X746000D03*
X776000D03*
X720000Y558000D03*
X748000Y552000D03*
X730000Y830000D03*
X750000Y794000D03*
X770000D03*
X720000Y876000D03*
X738000Y934000D03*
Y924000D03*
X758000Y920000D03*
X816000Y254000D03*
X794000Y390000D03*
X784000Y386000D03*
X810000Y388000D03*
X800000Y374000D03*
X820000Y388000D03*
X840000D03*
X830000D03*
X786000Y452000D03*
X790000Y416000D03*
X818000Y444000D03*
X778000Y442000D03*
X814000Y434000D03*
X828000Y446000D03*
X816000Y424000D03*
X836000Y422000D03*
X838000Y450000D03*
X820920Y486920D03*
X836000Y502000D03*
X826000Y498000D03*
X798000Y486000D03*
X787500Y485500D03*
X796000Y540000D03*
X802000Y552000D03*
X800000Y622000D03*
X814000D03*
X836000Y656000D03*
X824000D03*
X786000Y616000D03*
X798000Y684000D03*
Y672000D03*
X808000Y664000D03*
X840000Y746000D03*
X818000Y882000D03*
Y906000D03*
X798000Y868000D03*
X826000Y921120D03*
X802000Y930000D03*
X860000Y388000D03*
X850000D03*
X860000Y422000D03*
X848000D03*
X868000Y430000D03*
X884000D03*
X844000Y458000D03*
X876000Y422000D03*
X848000Y504000D03*
X846000Y492000D03*
X866000Y486000D03*
X876000D03*
X886000D03*
X896000D03*
X882000Y622000D03*
X870000Y596000D03*
Y606000D03*
X862000Y634000D03*
Y646000D03*
Y922000D03*
X874000Y934000D03*
X862000D03*
X902500Y954500D03*
X890920Y966190D03*
X930000Y456000D03*
X946000Y452000D03*
X956000Y456000D03*
X946000Y514000D03*
X930000Y484000D03*
X942500D03*
X957500Y485500D03*
X940000Y678000D03*
X950000Y830000D03*
X954000Y790000D03*
X942000D03*
X930000D03*
X936000Y894000D03*
X938000Y944000D03*
X928000Y914000D03*
X960220Y1021280D03*
X938000Y996000D03*
X955770Y1067000D03*
X1023080Y388920D03*
X990000Y350620D03*
X982920Y388920D03*
X978000Y420000D03*
X968000D03*
X996000Y456000D03*
X1021850Y415000D03*
X978000Y456000D03*
X967500Y450000D03*
X986000Y446000D03*
X996000Y514000D03*
X968000Y484000D03*
X990000D03*
X1028000Y566000D03*
X986000Y550000D03*
X998000Y646000D03*
Y634000D03*
X1006000Y658000D03*
Y670000D03*
X996000Y664000D03*
X984000Y904000D03*
X995080Y870000D03*
X994000Y944000D03*
X1028000Y966000D03*
X972000Y944000D03*
X1025080Y994920D03*
X974000Y1022000D03*
X1004230Y1067000D03*
X1054000Y108000D03*
X1070000Y304000D03*
X1050000Y316000D03*
X1070000D03*
X1090000D03*
Y304000D03*
X1066000Y558000D03*
X1068000Y547500D03*
X1088000Y612000D03*
X1086000Y900000D03*
X1034000Y862000D03*
X1030000Y894000D03*
X1049080Y958000D03*
X1076000Y964000D03*
X1090750Y932750D03*
X1070000Y921080D03*
X1030000Y914000D03*
X1049080Y984000D03*
X1090000Y997730D03*
Y1050000D03*
X1130000Y304000D03*
X1110000Y316000D03*
X1130000D03*
X1150000D03*
X1110000Y304000D03*
X1150000D03*
X1142000Y600000D03*
X1130000Y604000D03*
X1140000Y790000D03*
X1128000D03*
X1116000D03*
X1124000Y908000D03*
X1122000Y884000D03*
X1124000Y1022000D03*
X1106000Y997730D03*
Y1049730D03*
X1210000Y266000D03*
X1198000D03*
X1190000Y304000D03*
X1210000D03*
X1170000Y316000D03*
X1190000D03*
X1210000Y315080D03*
X1170000Y304000D03*
X1194000Y394000D03*
X1185000Y424000D03*
X1218000Y488000D03*
X1188000Y592000D03*
X1204000Y878000D03*
X1158750Y906750D03*
X1214000Y896000D03*
Y868000D03*
X1156750Y887250D03*
X1174000Y997730D03*
X1190000D03*
X1174000Y1049730D03*
X1190000D03*
X1234000Y250000D03*
X1242000Y260000D03*
X1230000Y314000D03*
X1242000Y398000D03*
X1250000Y390000D03*
X1255730Y450000D03*
X1225000Y458230D03*
X1236000Y420000D03*
X1245000Y458230D03*
X1228000Y484000D03*
X1268000Y496000D03*
X1232000Y552500D03*
X1222500Y567500D03*
X1224000Y578000D03*
Y588000D03*
X1272920Y556000D03*
X1238000Y972000D03*
X1298000Y306000D03*
X1286000D03*
X1292000Y542000D03*
X1294000Y578000D03*
X1283080Y564190D03*
X1294000Y874000D03*
X1302000Y866000D03*
X1308000Y972000D03*
X1292000D03*
X1386000Y938000D03*
X1377000Y1002770D03*
X1374500Y1052230D03*
X1434000Y934000D03*
X1484000Y918000D03*
X1488000Y982000D03*
Y994000D03*
X1480000Y1006000D03*
X1592000Y956000D03*
X1558000Y988000D03*
G54D42*
X548000Y34000D03*
X708000D03*
G54D60*
X938000Y1014000D03*
Y1067000D03*
X1022000Y1014000D03*
Y1067000D03*
X1098000Y1014000D03*
Y1067000D03*
X1182000Y1014000D03*
Y1067000D03*
G54D33*
X230000Y1070000D03*
X355000Y1033000D03*
X405000D03*
X380000Y1058000D03*
X355000Y1083000D03*
X405000D03*
X1534000Y1074000D03*
G54D51*
X650000Y865000D03*
X655000D03*
X660000D03*
X665000D03*
X670000D03*
X675000D03*
X680000D03*
X685000D03*
X690000D03*
Y923000D03*
X685000D03*
X680000D03*
X675000D03*
X670000D03*
X665000D03*
X660000D03*
X655000D03*
X650000D03*
G54D25*
X120000Y960000D03*
G54D16*
X73010Y989970D03*
G54D61*
X964000Y1005290D03*
X972000D03*
X980000D03*
X988000D03*
X996000D03*
X1124000D03*
X1132000D03*
X1140000D03*
X1148000D03*
X1156000D03*
G54D34*
X255400Y1070000D03*
X1559400Y1074000D03*
G54D52*
X670000Y894000D03*
G54D70*
X1590000Y790000D03*
G54D43*
X585500Y54000D03*
X580500D03*
X575500D03*
X570500D03*
X645500D03*
X640500D03*
X635500D03*
X630500D03*
X625500D03*
X620500D03*
X615500D03*
X610500D03*
X605500D03*
X600500D03*
X595500D03*
X590500D03*
X685500D03*
X680500D03*
X675500D03*
X670500D03*
X665500D03*
X660500D03*
X655500D03*
X650500D03*
G54D71*
G01X570500D02*
Y42000D01*
X568500Y40000D01*
G01X575500Y54000D02*
Y44500D01*
X580000Y40000D01*
G01X615500Y54000D02*
Y40500D01*
G01X635500Y54000D02*
Y45500D01*
X630000Y40000D01*
G01X640500Y54000D02*
Y43500D01*
X644000Y40000D01*
G01X621080Y886000D02*
X630000D01*
X633000Y889000D01*
X641000D01*
G01X659000Y909000D02*
X641000D01*
G01Y914000D02*
X621080D01*
G01X684000Y40000D02*
X680500Y43500D01*
G01D02*
Y54000D01*
G01X674000Y76920D02*
Y72000D01*
X670500Y68500D01*
Y54000D01*
G01D02*
Y40500D01*
G01X699000Y874000D02*
X690000D01*
G01X680000Y878000D02*
X675000Y873000D01*
G01X660000Y878000D02*
X665000Y873000D01*
G01X690000Y874000D02*
X686000Y878000D01*
X680000D01*
G01X675000Y873000D02*
Y865000D01*
G01X665000Y873000D02*
Y865000D01*
G01X720000Y876000D02*
X717000Y879000D01*
X699000D01*
G01X666000Y849080D02*
Y854000D01*
X670000Y858000D01*
Y865000D01*
G01X650000Y849080D02*
Y858000D01*
G01Y865000D02*
Y858000D01*
G01X660000Y910000D02*
X659000Y909000D01*
G01X670000Y923000D02*
Y938000D01*
X668000Y940000D01*
G01X708000Y923080D02*
Y918000D01*
X704000Y914000D01*
X699000D01*
G01X717620Y404000D02*
X726000D01*
X727080Y402920D01*
X732000D01*
G01X742000D02*
X732000D01*
G01X801080Y498000D02*
X811080D01*
X812000Y497080D01*
G01X801080Y498000D02*
Y489080D01*
X798000Y486000D01*
G01X956000Y494920D02*
Y487000D01*
X957500Y485500D01*
G01X986000Y446000D02*
X980000D01*
X978000Y444000D01*
Y439080D01*
G01X966000Y494920D02*
Y486000D01*
X968000Y484000D01*
G01X974000Y1022000D02*
X972000Y1020000D01*
Y1005290D01*
G01X1050250Y552500D02*
X1060500D01*
X1066000Y558000D01*
G01X1050250Y547500D02*
X1028580D01*
X1028000Y546920D01*
G01X1050250Y547500D02*
X1068000D01*
G01X1105750Y919750D02*
X1086670D01*
X1086000Y919080D01*
G01X1245750Y552500D02*
X1232000D01*
G01X1245750Y547500D02*
X1272420D01*
G01D02*
X1272920Y548000D01*
G54D26*
X133750Y918000D03*
X166250D03*
G54D35*
X340000Y857500D03*
X311000D03*
X401000D03*
X373000D03*
X380000Y980500D03*
X401000D03*
G54D44*
X538000Y86500D03*
Y73500D03*
X842000Y927500D03*
Y940500D03*
X1156000Y973500D03*
Y986500D03*
G54D62*
G01X550000Y332850D02*
Y312000D01*
X540000Y302000D01*
Y260000D01*
X534000Y254000D01*
X342000D01*
X312000Y224000D01*
X292000D01*
X290000Y222000D01*
Y212000D01*
X286000Y208000D01*
X280000D01*
X276000Y212000D01*
Y220000D01*
X272000Y224000D01*
X256000D01*
X250000Y218000D01*
Y200000D01*
X242500Y192500D01*
G01D02*
Y204420D01*
X242000Y204920D01*
G01X242500Y192500D02*
Y181000D01*
G01X550000Y287150D02*
Y264000D01*
X536000Y250000D01*
X344000D01*
X295200Y201200D01*
X267200D01*
X258800Y192800D01*
G01D02*
Y203720D01*
X260000Y204920D01*
G01X258800Y181000D02*
Y192800D01*
G01X1050000Y287150D02*
Y270000D01*
X1046000Y266000D01*
X746000D01*
X738000Y274000D01*
Y348000D01*
X728000Y358000D01*
X470000D01*
X446000Y334000D01*
Y282000D01*
X422000Y258000D01*
X340000D01*
X318000Y236000D01*
X226000D01*
X220000Y230000D01*
Y208000D01*
X223080Y204920D01*
X230000D01*
G01D02*
X229500Y204420D01*
Y181000D01*
G01X242000Y215080D02*
Y224000D01*
G01X230000Y215080D02*
Y224000D01*
G01X260000Y215080D02*
X267080D01*
G01X570000Y332850D02*
Y312000D01*
X560000Y302000D01*
Y264000D01*
X540000Y244000D01*
X394000D01*
X392000Y242000D01*
Y238000D01*
X390000Y236000D01*
X386000D01*
X384000Y238000D01*
Y242000D01*
X382000Y244000D01*
X376000D01*
X374000Y242000D01*
Y238000D01*
X372000Y236000D01*
X368000D01*
X366000Y238000D01*
Y242000D01*
X364000Y244000D01*
X358000D01*
X356000Y242000D01*
Y234000D01*
X360000Y230000D01*
X368000D01*
X370000Y228000D01*
Y224000D01*
X368000Y222000D01*
X362000D01*
X360000Y220000D01*
Y214000D01*
X358000Y212000D01*
X354000D01*
X352000Y214000D01*
Y226000D01*
X348000Y230000D01*
X334000D01*
X308800Y204800D01*
Y181000D01*
G01X570000Y287150D02*
Y264000D01*
X544000Y238000D01*
X414000D01*
X412000Y236000D01*
Y226000D01*
X410000Y224000D01*
X406000D01*
X404000Y226000D01*
Y232000D01*
X402000Y234000D01*
X398000D01*
X396000Y232000D01*
Y226000D01*
X394000Y224000D01*
X388000D01*
X386000Y226000D01*
Y228000D01*
X384000Y230000D01*
X378000D01*
X376000Y228000D01*
Y220000D01*
X362000Y206000D01*
X350000D01*
X348000Y204000D01*
Y200000D01*
X350000Y198000D01*
X378000D01*
X384000Y192000D01*
G01D02*
Y204920D01*
G01X383800Y181000D02*
X384000Y181200D01*
Y192000D01*
G01Y215080D02*
X396000D01*
G01X408000D02*
X396000D01*
G01X373000Y857500D02*
X369500Y854000D01*
X364000D01*
X360000Y850000D01*
X356000D01*
X354000Y852000D01*
Y854000D01*
X360000Y860000D01*
Y876000D01*
X372000Y888000D01*
X434080D01*
X478080Y932000D01*
X658000D01*
X660000Y930000D01*
Y923000D01*
G01X340000Y857500D02*
X351500D01*
X356000Y862000D01*
Y879280D01*
X368720Y892000D01*
X432000D01*
X476000Y936000D01*
X660000D01*
X665000Y931000D01*
Y923000D01*
G01X408800Y192800D02*
Y204120D01*
X408000Y204920D01*
G01X408800Y192800D02*
Y181000D01*
G01X590000Y332850D02*
Y314000D01*
X580000Y304000D01*
Y268000D01*
X546000Y234000D01*
X492000D01*
X490000Y232000D01*
Y210000D01*
X488000Y208000D01*
X484000D01*
X482000Y210000D01*
Y232000D01*
X480000Y234000D01*
X476000D01*
X474000Y232000D01*
Y210000D01*
X472000Y208000D01*
X468000D01*
X466000Y210000D01*
Y232000D01*
X464000Y234000D01*
X460000D01*
X458000Y232000D01*
Y210000D01*
X456000Y208000D01*
X452000D01*
X450000Y210000D01*
Y232000D01*
X448000Y234000D01*
X444000D01*
X442000Y232000D01*
Y226000D01*
X440000Y224000D01*
X436000D01*
X434000Y226000D01*
Y232000D01*
X432000Y234000D01*
X420000D01*
X418000Y232000D01*
Y202000D01*
X408800Y192800D01*
G01X590000Y287150D02*
Y272000D01*
X548000Y230000D01*
X498000D01*
X496000Y228000D01*
Y224000D01*
X498000Y222000D01*
X502000D01*
X504000Y220000D01*
Y216000D01*
X502000Y214000D01*
X498000D01*
X496000Y212000D01*
Y206000D01*
X486000Y196000D01*
Y168000D01*
X484000Y166000D01*
X480000D01*
X478000Y168000D01*
Y182000D01*
X476000Y184000D01*
X468000D01*
X466000Y186000D01*
Y190000D01*
X468000Y192000D01*
X478000D01*
X480000Y194000D01*
Y198000D01*
X478000Y200000D01*
X462000D01*
X460000Y198000D01*
Y186000D01*
X458000Y184000D01*
X454000D01*
X452000Y186000D01*
Y200000D01*
X450000Y202000D01*
X442000D01*
X434000Y194000D01*
G01D02*
Y204920D01*
G01X433800Y181000D02*
X434000Y181200D01*
Y194000D01*
G01Y215080D02*
X441810D01*
G01X534000Y156000D02*
Y134000D01*
X528000Y128000D01*
Y110000D01*
X522000Y104000D01*
X506000D01*
X500500Y109500D01*
Y115250D01*
G01X490000Y332850D02*
Y316000D01*
G01X510000Y332850D02*
Y316000D01*
G01Y287150D02*
Y304000D01*
X520000Y314000D01*
Y348000D01*
X526000Y354000D01*
X712000D01*
X718000Y348000D01*
Y318000D01*
X702000Y302000D01*
Y236000D01*
X682000Y216000D01*
Y168000D01*
X662000Y148000D01*
Y138000D01*
G01X490000Y650000D02*
Y658750D01*
X498000Y666750D01*
G01X506000Y650000D02*
Y658750D01*
X498000Y666750D01*
G01X490000Y812850D02*
Y830000D01*
G01Y812850D02*
Y796000D01*
G01X510000Y812850D02*
Y796000D01*
G01Y812850D02*
Y830000D01*
G01X568000Y96000D02*
X580500Y83500D01*
Y54000D01*
G01X595500D02*
Y92500D01*
X584000Y104000D01*
Y142000D01*
X578000Y148000D01*
Y150000D01*
G01X572000Y138000D02*
X568000Y134000D01*
Y108000D01*
X585500Y90500D01*
Y54000D01*
G01X576000Y116000D02*
Y106000D01*
X590500Y91500D01*
Y54000D01*
G01X522750Y164500D02*
X525500D01*
X534000Y156000D01*
G01X530000Y316000D02*
Y332850D01*
G01Y287150D02*
Y304000D01*
G01X742000Y356000D02*
X736000Y362000D01*
X600000D01*
X576000Y386000D01*
Y420000D01*
G01X530000Y812850D02*
Y796000D01*
G01Y812850D02*
Y830000D01*
G01X550000Y812850D02*
Y796000D01*
G01Y812850D02*
Y830000D01*
G01X560000Y968900D02*
X570000Y958900D01*
Y956000D01*
X574000Y952000D01*
X668000D01*
X675000Y945000D01*
Y923000D01*
G01X580000Y968900D02*
X574000Y962900D01*
Y958000D01*
X576000Y956000D01*
X670000D01*
X680000Y946000D01*
Y923000D01*
G01X630000Y332850D02*
Y316000D01*
X620000Y306000D01*
Y156000D01*
X602000Y138000D01*
Y129500D01*
X605500Y126000D01*
Y54000D01*
G01X650000Y332850D02*
Y314000D01*
X640000Y304000D01*
Y134000D01*
X642000Y132000D01*
Y127750D01*
X647750Y122000D01*
Y100250D01*
X650000Y98000D01*
Y74000D01*
X645500Y69500D01*
Y54000D01*
G01X598000Y100000D02*
X600500Y97500D01*
Y54000D01*
G01X618000Y128000D02*
X616000Y126000D01*
Y70000D01*
X620500Y65500D01*
Y54000D01*
G01X610500Y134000D02*
Y54000D01*
G01X634000Y128000D02*
Y124000D01*
X624000Y114000D01*
Y74000D01*
X630500Y67500D01*
Y54000D01*
G01X630000Y287150D02*
Y136000D01*
X626000Y132000D01*
Y122000D01*
X620000Y116000D01*
Y72000D01*
X625500Y66500D01*
Y54000D01*
G01X632000Y76920D02*
Y72000D01*
X635500Y68500D01*
Y54000D01*
G01X642000Y76920D02*
Y71500D01*
X640500Y70000D01*
Y54000D01*
G01X610000Y316000D02*
X600000Y306000D01*
Y152000D01*
X588000Y140000D01*
Y122000D01*
X598000Y112000D01*
G01X596000Y124000D02*
Y138000D01*
X610000Y152000D01*
Y287150D01*
G01X650000D02*
Y200000D01*
X646000Y196000D01*
Y148000D01*
X658000Y136000D01*
Y128750D01*
X655250Y126000D01*
Y106000D01*
X658000Y103250D01*
Y70000D01*
X655500Y67500D01*
Y54000D01*
G01X610000Y332850D02*
Y316000D01*
G01Y287150D02*
Y304000D01*
G01X607080Y480000D02*
Y487080D01*
G01X630380Y480000D02*
Y489620D01*
G01X610000Y812850D02*
Y792000D01*
X620000Y782000D01*
Y750000D01*
X626000Y744000D01*
X638000D01*
X664000Y718000D01*
X802000D01*
X822000Y698000D01*
X906000D01*
X918000Y686000D01*
X1018000D01*
X1088000Y616000D01*
Y612000D01*
G01X636000Y862000D02*
X642000Y856000D01*
X648000D01*
X650000Y858000D01*
G01X641000Y879000D02*
X635000D01*
X632000Y876000D01*
Y866000D01*
X636000Y862000D01*
G01X628000Y904000D02*
X633000Y899000D01*
X641000D01*
G01X621080Y896000D02*
X628000D01*
X630000Y894000D01*
X641000D01*
G01X650500Y54000D02*
Y68500D01*
X654000Y72000D01*
Y100000D01*
X651500Y102500D01*
Y123560D01*
X650000Y125060D01*
Y132000D01*
G01X666000Y112000D02*
Y66190D01*
X665500Y65690D01*
Y54000D01*
G01X678000Y108000D02*
X682000Y104000D01*
Y72000D01*
X675500Y65500D01*
Y54000D01*
G01X660500D02*
Y66000D01*
X662000Y67500D01*
Y105000D01*
X659000Y108000D01*
Y124000D01*
X662000Y127000D01*
Y138000D01*
G01X730000Y332850D02*
Y316000D01*
X720000Y306000D01*
Y242000D01*
X690000Y212000D01*
Y156000D01*
X684000Y150000D01*
X674000D01*
G01X694000Y144000D02*
X698000Y148000D01*
Y208000D01*
X752000Y262000D01*
X1190000D01*
X1194000Y258000D01*
X1214000D01*
X1220000Y264000D01*
Y304000D01*
X1230000Y314000D01*
G01X694000Y129080D02*
Y144000D01*
G01X730000Y287150D02*
Y246000D01*
X694000Y210000D01*
Y154000D01*
X682000Y142000D01*
G01X670000Y812850D02*
Y794000D01*
X660000Y784000D01*
Y744000D01*
X678000Y726000D01*
X806000D01*
X826000Y706000D01*
X910000D01*
X922000Y694000D01*
X1022000D01*
X1198000Y518000D01*
Y460000D01*
X1218000Y440000D01*
Y370000D01*
X1238000Y350000D01*
Y270000D01*
X1214000Y246000D01*
X742000D01*
X702000Y206000D01*
Y102000D01*
X786000Y18000D01*
X963000D01*
X975000Y30000D01*
G01X684000Y129080D02*
X670920D01*
X662000Y138000D01*
G01X670000Y332850D02*
Y314000D01*
X662000Y306000D01*
Y200000D01*
X654000Y192000D01*
G01X690000Y332850D02*
Y314000D01*
X680000Y304000D01*
Y232000D01*
X670000Y222000D01*
Y186000D01*
X666000Y182000D01*
G01X710000Y332850D02*
Y316000D01*
X698000Y304000D01*
Y238000D01*
X678000Y218000D01*
Y170000D01*
X672000Y164000D01*
X666150D01*
X664150Y162000D01*
X664000D01*
G01X670000Y287150D02*
Y228000D01*
X666000Y224000D01*
Y192000D01*
X654000Y180000D01*
G01X710000Y287150D02*
Y238000D01*
X686000Y214000D01*
Y162000D01*
X682000Y158000D01*
G01X690000Y287150D02*
Y236000D01*
X674000Y220000D01*
Y176000D01*
X670000Y172000D01*
G01X650000Y767150D02*
Y743080D01*
X671080Y722000D01*
X804000D01*
X824000Y702000D01*
X908000D01*
X920000Y690000D01*
X1020000D01*
X1194000Y516000D01*
Y458000D01*
X1210000Y442000D01*
Y376000D01*
X1202000Y368000D01*
Y274000D01*
X1210000Y266000D01*
G01X710000Y767150D02*
X716850D01*
X722000Y762000D01*
Y752000D01*
X724000Y750000D01*
X734000D01*
X738000Y754000D01*
Y788000D01*
X741550Y791550D01*
Y872450D01*
X725000Y889000D01*
X699000D01*
G01X670000Y767150D02*
Y744000D01*
X684000Y730000D01*
X808000D01*
X828000Y710000D01*
X912000D01*
X924000Y698000D01*
X1024000D01*
X1202000Y520000D01*
Y461660D01*
X1222000Y441660D01*
Y372000D01*
X1242000Y352000D01*
Y272000D01*
X1246000Y268000D01*
X1312000D01*
X1362000Y218000D01*
Y146000D01*
X1370000Y138000D01*
X1637080D01*
X1647080Y128000D01*
Y96000D01*
G01X710000Y812850D02*
Y798000D01*
X698000Y786000D01*
Y750000D01*
X710000Y738000D01*
X812000D01*
X832000Y718000D01*
X916000D01*
X928000Y706000D01*
X1040000D01*
X1142000Y604000D01*
Y600000D01*
G01X690000Y812850D02*
Y798000D01*
X680000Y788000D01*
Y746000D01*
X692000Y734000D01*
X810000D01*
X830000Y714000D01*
X914000D01*
X926000Y702000D01*
X1038000D01*
X1130000Y610000D01*
Y604000D01*
G01X686000Y849080D02*
X696920D01*
X706000Y840000D01*
X706380D01*
G01X730000Y767150D02*
X728850Y766000D01*
X724000D01*
X720000Y770000D01*
Y780000D01*
X716000Y784000D01*
Y794000D01*
X718000Y796000D01*
X724000D01*
X726000Y794000D01*
Y786000D01*
X728000Y784000D01*
X730000D01*
X732000Y786000D01*
Y792000D01*
X734000Y794000D01*
X736000D01*
X737550Y795550D01*
Y870450D01*
X724000Y884000D01*
X699000D01*
G01X686000Y849080D02*
Y855000D01*
X685000Y856000D01*
Y865000D01*
G01X798000Y906000D02*
X786000D01*
X774000Y894000D01*
X739000D01*
X734000Y899000D01*
X699000D01*
G01X758000Y882000D02*
X744000D01*
X732000Y894000D01*
X699000D01*
G01X706920Y854000D02*
X694000D01*
X690000Y858000D01*
Y865000D01*
G01X699000Y904000D02*
X714380D01*
X720380Y910000D01*
G01X676000Y849080D02*
Y854000D01*
X680000Y858000D01*
Y865000D01*
G01X685000Y923000D02*
Y937000D01*
X697200Y949200D01*
X781200D01*
X788000Y956000D01*
Y960000D01*
X780000Y968000D01*
Y968900D01*
G01X690000Y923000D02*
Y936000D01*
X699200Y945200D01*
X782860D01*
X792000Y954340D01*
Y960000D01*
X800000Y968000D01*
Y968900D01*
G01X718920Y924000D02*
X713080Y918160D01*
Y915080D01*
X707000Y909000D01*
X699000D01*
G01X770000Y332850D02*
Y360100D01*
X794000Y384100D01*
Y390000D01*
G01X770000Y287150D02*
Y310000D01*
X762000Y318000D01*
Y362000D01*
X784000Y384000D01*
Y386000D01*
G01X758000Y312000D02*
Y364000D01*
X774000Y380000D01*
Y394000D01*
X765080Y402920D01*
X752000D01*
G01X750000Y332850D02*
Y371620D01*
X749620Y372000D01*
G01X750000Y287150D02*
Y308000D01*
X742000Y316000D01*
Y356000D01*
G01X752000Y402920D02*
Y388000D01*
G01X764000Y382000D02*
X760000D01*
X750000Y372000D01*
X749620D01*
G01X778000Y442000D02*
Y458000D01*
X772000Y464000D01*
X752000D01*
X746000Y458000D01*
X722000D01*
X717500Y453500D01*
Y449250D01*
G01X742000Y413080D02*
X752000D01*
G01X762000Y412920D02*
X752160D01*
X752000Y413080D01*
G01X712000Y748000D02*
X718000Y742000D01*
X770000D01*
X780000Y752000D01*
Y834000D01*
X786000Y840000D01*
X826000D01*
X864000Y878000D01*
X984920D01*
G01X770000Y767150D02*
Y782000D01*
X762000Y790000D01*
Y844000D01*
X768000Y850000D01*
X820440D01*
X902440Y932000D01*
X948000D01*
X960000Y944000D01*
Y960000D01*
X964000Y964000D01*
X982000D01*
X991500Y973500D01*
X995000D01*
G01X750000Y767150D02*
Y782000D01*
X758000Y790000D01*
Y846000D01*
X766000Y854000D01*
X818440D01*
X900440Y936000D01*
X946000D01*
X956000Y946000D01*
Y972000D01*
X958000Y974000D01*
X972500D01*
X973000Y973500D01*
G01X730000Y812850D02*
Y830000D01*
G01X721620Y840000D02*
X728000D01*
X730000Y838000D01*
Y830000D01*
G01X750000Y812850D02*
Y794000D01*
G01X770000Y812850D02*
Y794000D01*
G01X758000Y882000D02*
Y872000D01*
X762000Y868000D01*
X772920D01*
G01X800000Y94920D02*
Y78000D01*
X806000Y72000D01*
Y54000D01*
X800000Y48000D01*
Y30000D01*
G01X1234000Y250000D02*
X1300000D01*
X1344000Y206000D01*
Y154000D01*
X1330000Y140000D01*
X816000D01*
X800000Y124000D01*
Y105080D01*
G01X1230000Y287150D02*
Y268000D01*
X1216000Y254000D01*
X816000D01*
G01X810000Y287150D02*
Y306000D01*
X800000Y316000D01*
Y362000D01*
X810000Y372000D01*
Y388000D01*
G01X790000Y287150D02*
Y306000D01*
X780000Y316000D01*
Y364000D01*
X802000Y386000D01*
Y403000D01*
X790000Y415000D01*
Y416000D01*
G01Y332850D02*
Y364000D01*
X800000Y374000D01*
G01X810000Y332850D02*
Y362000D01*
X820000Y372000D01*
Y388000D01*
G01X830000Y332850D02*
Y362000D01*
X840000Y372000D01*
Y388000D01*
G01X830000Y287150D02*
Y306000D01*
X820000Y316000D01*
Y362000D01*
X830000Y372000D01*
Y388000D01*
G01X950000Y287150D02*
Y308000D01*
X940000Y318000D01*
Y398000D01*
X892000Y446000D01*
X862000D01*
X854000Y438000D01*
X824000D01*
X818000Y444000D01*
G01X930000Y332850D02*
Y402000D01*
X890000Y442000D01*
X864000D01*
X856000Y434000D01*
X814000D01*
G01X950000Y332850D02*
Y394000D01*
X894000Y450000D01*
X860000D01*
X852000Y442000D01*
X832000D01*
X828000Y446000D01*
G01X930000Y287150D02*
Y306000D01*
X920000Y316000D01*
Y406000D01*
X888000Y438000D01*
X866000D01*
X858000Y430000D01*
X822000D01*
X816000Y424000D01*
G01X870000Y287150D02*
Y306000D01*
X860000Y316000D01*
Y362000D01*
X870000Y372000D01*
Y388000D01*
X836000Y422000D01*
G01X788000Y485000D02*
X787500Y485500D01*
G01X790000Y767150D02*
X794850D01*
X798000Y764000D01*
Y752000D01*
X806000Y744000D01*
X812000D01*
X834000Y722000D01*
X918000D01*
X930000Y710000D01*
X1042000D01*
X1205820Y546180D01*
Y484000D01*
X1225000Y464820D01*
Y458230D01*
G01X810000Y767150D02*
X805150D01*
X802000Y764000D01*
Y754000D01*
X808000Y748000D01*
X814000D01*
X836000Y726000D01*
X920000D01*
X932000Y714000D01*
X1044000D01*
X1209820Y548180D01*
Y486180D01*
X1237770Y458230D01*
X1245000D01*
G01X830000Y767150D02*
Y752000D01*
X836000Y746000D01*
X840000D01*
G01X790000Y812850D02*
X795150D01*
X798000Y810000D01*
Y794340D01*
X806340Y786000D01*
X816340D01*
X818000Y784340D01*
Y750000D01*
X838000Y730000D01*
X922000D01*
X934000Y718000D01*
X1046000D01*
X1218000Y546000D01*
Y488000D01*
G01X810000Y812850D02*
X804850D01*
X802000Y810000D01*
Y796000D01*
X808000Y790000D01*
X818000D01*
X822000Y786000D01*
Y752000D01*
X840000Y734000D01*
X924000D01*
X936000Y722000D01*
X1048000D01*
X1222000Y548000D01*
Y494000D01*
X1228000Y488000D01*
Y484000D01*
G01X830000Y812850D02*
Y836000D01*
X866000Y872000D01*
X980000D01*
X998000Y854000D01*
X1218000D01*
X1228000Y864000D01*
Y900000D01*
X1220000Y908000D01*
Y1030000D01*
X1240000Y1050000D01*
X1260000D01*
X1290000Y1080000D01*
X1342000D01*
X1354000Y1068000D01*
Y978000D01*
X1370000Y962000D01*
X1385620D01*
X1386000Y961620D01*
G01X798000Y906000D02*
Y916000D01*
X794000Y920000D01*
X781080D01*
G01X890000Y287150D02*
Y306000D01*
X880000Y316000D01*
Y362000D01*
X884000Y366000D01*
Y396000D01*
X860000Y420000D01*
Y422000D01*
G01X850000Y332850D02*
Y362000D01*
X860000Y372000D01*
Y388000D01*
G01X870000Y332850D02*
Y362000D01*
X878000Y370000D01*
Y392000D01*
X848000Y422000D01*
G01X890000Y332850D02*
Y398000D01*
X868000Y420000D01*
Y430000D01*
G01X910000Y287150D02*
Y308000D01*
X900000Y318000D01*
Y398000D01*
X876000Y422000D01*
G01X850000Y287150D02*
Y306000D01*
X840000Y316000D01*
Y362000D01*
X850000Y372000D01*
Y388000D01*
G01X910000Y332850D02*
Y404000D01*
X884000Y430000D01*
G01X970000Y332850D02*
Y386000D01*
X898000Y458000D01*
X844000D01*
G01X970000Y287150D02*
Y306000D01*
X960000Y316000D01*
Y390000D01*
X896000Y454000D01*
X858000D01*
X854000Y450000D01*
X838000D01*
G01X846000Y492000D02*
X848920Y494920D01*
X856000D01*
G01X866000Y486000D02*
Y494920D01*
G01X876000D02*
Y486000D01*
G01X886000Y494920D02*
Y486000D01*
G01X896000D02*
Y494920D01*
G01X890000Y812850D02*
Y792000D01*
X900000Y782000D01*
Y750000D01*
X908000Y742000D01*
X928000D01*
X940000Y730000D01*
X1060000D01*
X1222500Y567500D01*
G01X870000Y767150D02*
Y786000D01*
X866000Y790000D01*
X850000D01*
X842000Y798000D01*
Y830000D01*
X868000Y856000D01*
X972000D01*
X988000Y840000D01*
X1220000D01*
X1264000Y884000D01*
Y954000D01*
X1254920Y963080D01*
X1248000D01*
G01X850000Y767150D02*
Y784000D01*
X838000Y796000D01*
Y836000D01*
X866000Y864000D01*
X976000D01*
X994000Y846000D01*
X1218000D01*
X1234000Y862000D01*
Y902000D01*
X1226000Y910000D01*
Y1028000D01*
X1242000Y1044000D01*
X1260000D01*
X1292000Y1076000D01*
X1338000D01*
X1348000Y1066000D01*
Y976000D01*
X1370000Y954000D01*
Y924000D01*
X1380000Y914000D01*
X1412620D01*
X1420000Y921380D01*
Y952920D01*
G01X890000Y767150D02*
Y750000D01*
X902000Y738000D01*
X926000D01*
X938000Y726000D01*
X1058000D01*
X1188000Y596000D01*
Y592000D01*
G01X850000Y812850D02*
Y832000D01*
X870000Y852000D01*
X970000D01*
X986000Y836000D01*
X1222000D01*
X1268000Y882000D01*
Y956000D01*
X1275080Y963080D01*
X1282000D01*
G01X870000Y812850D02*
Y838000D01*
X880000Y848000D01*
X968000D01*
X984000Y832000D01*
X1224000D01*
X1294000Y902000D01*
X1322000D01*
G01X930000Y456000D02*
X906000Y480000D01*
Y494920D01*
G01X946000Y452000D02*
X916000Y482000D01*
Y494920D01*
G01X956000Y456000D02*
X950000Y462000D01*
Y486400D01*
X946000Y490400D01*
Y494920D01*
G01X916000D02*
X926000D01*
G01X936000D02*
X946000D01*
G01X1198000Y266000D02*
Y370000D01*
X1206000Y378000D01*
Y436000D01*
X1186000Y456000D01*
Y502000D01*
X1010000Y678000D01*
X940000D01*
G01X910000Y767150D02*
Y750000D01*
X914000Y746000D01*
X930000D01*
X942000Y734000D01*
X1062000D01*
X1218000Y578000D01*
X1224000D01*
G01X910000Y812850D02*
Y792000D01*
X920000Y782000D01*
Y754000D01*
X924000Y750000D01*
X932000D01*
X944000Y738000D01*
X1064000D01*
X1214000Y588000D01*
X1224000D01*
G01X950000Y812850D02*
Y830000D01*
G01X917000Y973500D02*
Y983000D01*
X920000Y986000D01*
X968000D01*
X972000Y990000D01*
Y1005290D01*
G01X1010000Y332850D02*
Y348000D01*
X1020000Y358000D01*
X1038000D01*
X1074000Y394000D01*
Y424000D01*
X1056000Y442000D01*
Y454000D01*
X1026000Y484000D01*
Y518000D01*
X1006000Y538000D01*
Y638000D01*
X998000Y646000D01*
G01X1030000Y287150D02*
Y308000D01*
X1020000Y318000D01*
Y348000D01*
X1026000Y354000D01*
X1040000D01*
X1078000Y392000D01*
Y426000D01*
X1060000Y444000D01*
Y456000D01*
X1030000Y486000D01*
Y520000D01*
X1010000Y540000D01*
Y644000D01*
X996000Y658000D01*
Y664000D01*
G01X1010000Y287150D02*
Y308000D01*
X1000000Y318000D01*
Y350000D01*
X1012000Y362000D01*
X1036000D01*
X1070000Y396000D01*
Y422000D01*
X1052000Y440000D01*
Y452000D01*
X1022000Y482000D01*
Y516000D01*
X1002000Y536000D01*
Y630000D01*
X998000Y634000D01*
G01X976000Y494920D02*
Y458000D01*
X978000Y456000D01*
G01X986000Y494920D02*
X976000D01*
G01X996000D02*
Y490000D01*
X990000Y484000D01*
G01X1006000Y494920D02*
X996000D01*
G01X1030000Y332850D02*
Y348000D01*
X1032000Y350000D01*
X1042000D01*
X1082000Y390000D01*
Y428000D01*
X1064000Y446000D01*
Y458000D01*
X1034000Y488000D01*
Y522000D01*
X1014000Y542000D01*
Y650000D01*
X1006000Y658000D01*
G01Y670000D02*
X1018000Y658000D01*
Y544000D01*
X1038000Y524000D01*
Y490000D01*
X1068000Y460000D01*
Y448000D01*
X1086000Y430000D01*
Y388000D01*
X1080000Y382000D01*
Y314000D01*
X1090000Y304000D01*
G01X1025080Y976000D02*
Y968920D01*
X1028000Y966000D01*
G01X988000Y1005290D02*
Y988000D01*
X995000Y981000D01*
Y973500D01*
G01X980000Y1005290D02*
Y988000D01*
X973000Y981000D01*
Y973500D01*
G01X1073080Y108000D02*
Y96000D01*
G01D02*
X1088920D01*
G01X1242000Y260000D02*
X1306000D01*
X1354000Y212000D01*
Y148000D01*
X1336000Y130000D01*
X1084000D01*
X1073080Y119080D01*
Y108000D01*
G01X1070000Y287150D02*
Y304000D01*
G01X1050000Y316000D02*
Y332850D01*
G01X1070000D02*
Y316000D01*
G01X1050250Y517500D02*
X1070500D01*
X1078000Y510000D01*
Y474000D01*
X1080000Y472000D01*
X1110000D01*
X1112000Y470000D01*
Y466000D01*
X1110000Y464000D01*
X1080000D01*
X1078000Y462000D01*
Y458000D01*
X1080000Y456000D01*
X1106000D01*
X1110000Y452000D01*
Y332850D01*
G01Y304000D02*
X1100000Y314000D01*
Y396360D01*
X1098000Y398360D01*
X1094000D01*
X1092000Y400360D01*
Y404360D01*
X1094000Y406360D01*
X1098000D01*
X1100000Y408360D01*
Y412360D01*
X1098000Y414360D01*
X1094000D01*
X1092000Y416360D01*
Y420360D01*
X1094000Y422360D01*
X1098000D01*
X1100000Y424360D01*
Y428360D01*
X1098000Y430360D01*
X1094000D01*
X1092000Y432360D01*
Y436360D01*
X1094000Y438360D01*
X1098000D01*
X1100000Y440360D01*
Y446000D01*
X1098000Y448000D01*
X1076000D01*
X1072000Y452000D01*
Y508000D01*
X1067500Y512500D01*
X1050250D01*
G01Y522500D02*
X1073500D01*
X1084000Y512000D01*
X1090000D01*
X1092000Y510000D01*
Y506000D01*
X1090000Y504000D01*
X1086000D01*
X1084000Y502000D01*
Y498000D01*
X1086000Y496000D01*
X1092000D01*
X1094000Y494000D01*
Y490000D01*
X1092000Y488000D01*
X1086000D01*
X1084250Y486250D01*
Y482000D01*
X1086250Y480000D01*
X1112000D01*
X1120000Y472000D01*
Y314000D01*
X1130000Y304000D01*
G01X1050250Y527500D02*
X1076500D01*
X1086000Y518000D01*
X1102000D01*
X1136000Y484000D01*
Y480000D01*
X1133700Y477700D01*
X1130000D01*
X1128000Y475700D01*
Y471700D01*
X1130000Y469700D01*
X1138000D01*
X1140000Y467700D01*
Y463700D01*
X1138000Y461700D01*
X1130000D01*
X1128000Y459700D01*
Y455700D01*
X1130000Y453700D01*
X1138000D01*
X1140000Y451700D01*
Y447700D01*
X1138000Y445700D01*
X1130000D01*
X1126150Y441850D01*
Y359850D01*
X1130000Y356000D01*
Y332850D01*
G01X1050250Y577500D02*
X1062500D01*
X1154000Y486000D01*
Y436000D01*
X1150000Y432000D01*
Y332850D01*
G01X1050250Y587500D02*
X1064500D01*
X1170000Y482000D01*
Y332850D01*
G01X1150000Y304000D02*
X1140000Y314000D01*
Y434000D01*
X1146000Y440000D01*
Y488000D01*
X1061500Y572500D01*
X1050250D01*
G01X1170000Y304000D02*
X1160000Y314000D01*
Y486000D01*
X1063500Y582500D01*
X1050250D01*
G01X1105750Y874250D02*
X1089750D01*
X1070000Y894000D01*
X1050000D01*
X1046000Y898000D01*
Y908000D01*
G01X1030000Y881080D02*
X1034920Y886000D01*
X1056000D01*
X1070000Y872000D01*
Y868000D01*
G01X1105750Y867750D02*
X1070250D01*
X1070000Y868000D01*
G01X1105750Y952250D02*
X1086830D01*
X1086000Y953080D01*
G01X1099080Y96000D02*
Y72920D01*
X1104000Y68000D01*
Y50000D01*
X1100000Y46000D01*
Y30000D01*
G01X1099080Y96000D02*
X1218920D01*
G01X1130000Y304000D02*
Y287150D01*
G01X1090000Y332850D02*
Y316000D01*
G01X1110000Y332850D02*
Y316000D01*
G01X1130000Y332850D02*
Y316000D01*
G01X1150000Y332850D02*
Y316000D01*
G01X1110000Y287150D02*
Y304000D01*
G01X1090000Y287150D02*
Y304000D01*
G01X1150000Y287150D02*
Y304000D01*
G01X1105750Y945750D02*
X1139750D01*
X1146000Y952000D01*
Y990000D01*
X1148000Y992000D01*
Y1005290D01*
G01X1105750Y952250D02*
X1117750D01*
X1120000Y950000D01*
X1138000D01*
X1142000Y954000D01*
Y990000D01*
X1140000Y992000D01*
Y1005290D01*
G01X1190000Y287150D02*
Y304000D01*
G01X1210000Y287150D02*
Y304000D01*
G01X1170000Y332850D02*
Y316000D01*
G01X1190000D02*
Y332850D01*
G01D02*
Y390000D01*
X1194000Y394000D01*
G01X1210000Y332850D02*
Y315080D01*
G01X1170000Y287150D02*
Y304000D01*
G01X1205080Y868000D02*
X1214000D01*
G01X1174250Y867750D02*
X1194670D01*
X1194920Y868000D01*
G01X1156000Y1005290D02*
Y986500D01*
G01X1230000Y30000D02*
Y48000D01*
X1234000Y52000D01*
Y68000D01*
X1229080Y72920D01*
Y96000D01*
G01D02*
X1350920D01*
G01X1270000Y332850D02*
Y322000D01*
X1286000Y306000D01*
G01X1230000Y332850D02*
Y314000D01*
G01X1250000Y332850D02*
Y352000D01*
X1242000Y360000D01*
Y398000D01*
G01X1250000Y287150D02*
Y312000D01*
X1260000Y322000D01*
Y352000D01*
X1250000Y362000D01*
Y390000D01*
G01X1245750Y527500D02*
X1262500D01*
X1292000Y498000D01*
Y464000D01*
X1242000Y414000D01*
Y398000D01*
G01X1283080Y532000D02*
Y512920D01*
X1296000Y500000D01*
Y462000D01*
X1250000Y416000D01*
Y390000D01*
G01X1236000Y420000D02*
X1242000D01*
X1288000Y466000D01*
Y474000D01*
G01X1278000Y476920D02*
X1285080D01*
X1288000Y474000D01*
G01D02*
Y496000D01*
X1261500Y522500D01*
X1245750D01*
G01X1268000Y476920D02*
X1247080D01*
X1228000Y496000D01*
Y528000D01*
X1232500Y532500D01*
X1245750D01*
G01X1222500Y567500D02*
X1245750D01*
G01Y572500D02*
X1229500D01*
X1224000Y578000D01*
G01Y588000D02*
X1234500Y577500D01*
X1245750D01*
G01Y582500D02*
X1272420D01*
X1272920Y582000D01*
G01Y572000D02*
Y582000D01*
G01X1245750Y532500D02*
X1272420D01*
X1272920Y532000D01*
G01X1286000Y306000D02*
X1298000D01*
G01X1294000Y874000D02*
X1452000D01*
X1586800Y739200D01*
X1590000D01*
G01X1318000Y963080D02*
X1326920D01*
X1332000Y958000D01*
Y912000D01*
X1322000Y902000D01*
G01D02*
X1422000D01*
X1460000Y940000D01*
X1488380D01*
G01X1302000Y866000D02*
X1452000D01*
X1578000Y740000D01*
Y725800D01*
X1590000Y713800D01*
G01X1319500Y1065000D02*
X1293000D01*
X1282000Y1054000D01*
Y963080D01*
G01X1319500Y1065000D02*
X1339000D01*
X1342000Y1062000D01*
Y974000D01*
X1364000Y952000D01*
Y920000D01*
X1376000Y908000D01*
X1420000D01*
X1470000Y958000D01*
X1488380D01*
G01X1361080Y96000D02*
Y70920D01*
X1366000Y66000D01*
Y54000D01*
X1360000Y48000D01*
Y30000D01*
G01X1361080Y96000D02*
X1480920D01*
G01X1400000Y963080D02*
X1387460D01*
X1386000Y961620D01*
G01X1400000Y952920D02*
Y929620D01*
X1401620Y928000D01*
G01X1400000Y952920D02*
X1410000D01*
G01X1420000Y963080D02*
X1432540D01*
X1434000Y961620D01*
G01X1449500Y1065000D02*
X1423000D01*
X1410000Y1052000D01*
Y963080D01*
G01X1420000D02*
X1410000D01*
G01X1491080Y96000D02*
Y72920D01*
X1496000Y68000D01*
Y52000D01*
X1490000Y46000D01*
Y30000D01*
G01X1491080Y96000D02*
X1610920D01*
G01X1484000Y918000D02*
X1602000Y800000D01*
Y600200D01*
X1615400Y586800D01*
G01X1520920Y940000D02*
X1503620D01*
G01X1520920Y958000D02*
X1503620D01*
G01X1480000Y1006000D02*
X1496920D01*
G01X1620000Y30000D02*
Y46000D01*
X1628000Y54000D01*
Y66000D01*
X1621080Y72920D01*
Y96000D01*
G01D02*
X1636920D01*
X959170Y1037950D03*
X1000830D03*
X1119170D03*
X1160830D03*
G54D17*
X97300Y50000D03*
G54D53*
X670000Y894000D03*
G54D72*
G01X98000Y108920D02*
Y50700D01*
X97300Y50000D01*
G01X145080Y900000D02*
X152000D01*
X155000Y897000D01*
Y885500D01*
G01X136000Y881080D02*
Y898920D01*
X134920Y900000D01*
G01D02*
Y916830D01*
X133750Y918000D01*
G01X333800Y196000D02*
Y204720D01*
X334000Y204920D01*
G01X618000Y520920D02*
Y512000D01*
G01X606000Y520920D02*
Y512000D01*
G01X594000Y520920D02*
Y512000D01*
G01X621080Y914000D02*
Y909080D01*
X618000Y906000D01*
X600000D01*
X592000Y898000D01*
Y884000D01*
X598000Y878000D01*
X619240D01*
X619620Y877620D01*
G01X658000Y846000D02*
Y840000D01*
X656920Y838920D01*
X650000D01*
G01X666000Y849080D02*
X664920Y848000D01*
X660000D01*
X658000Y846000D01*
G01X725080Y866000D02*
Y870920D01*
X720000Y876000D01*
G01X717080Y854000D02*
X718000D01*
X725080Y861080D01*
Y866000D01*
G01X786000Y452000D02*
Y460000D01*
X788000Y462000D01*
Y464920D01*
G01Y475080D02*
Y485000D01*
G01X1002000Y437000D02*
X1012500D01*
X1034500Y415000D01*
G01X995250Y894500D02*
Y878170D01*
X995080Y878000D01*
G01D02*
Y870000D01*
G01X1076000Y942920D02*
X1086000D01*
G01D02*
X1092000D01*
X1095670Y939250D01*
X1105750D01*
G01X1122000Y884000D02*
X1118750Y880750D01*
G01X1122000Y884000D02*
X1118750Y887250D01*
G01Y880750D02*
X1105750D01*
G01X1118750Y887250D02*
X1105750D01*
G01Y932750D02*
X1090750D01*
G01X1124000Y908000D02*
X1118750Y913250D01*
G01D02*
X1105750D01*
G01Y919750D02*
X1127750D01*
G01X1174250Y906750D02*
X1158750D01*
G01X1194920Y906000D02*
X1194170Y906750D01*
G01D02*
X1174250D01*
G01X1205080Y896000D02*
Y906000D01*
G01X1194920Y896000D02*
X1188000D01*
X1185750Y893750D01*
X1174250D01*
G01Y887250D02*
X1193670D01*
X1194920Y886000D01*
G01X1174250Y887250D02*
X1156750D01*
G01X1278000Y487080D02*
X1268000D01*
G01D02*
Y496000D01*
G01X1272920Y548000D02*
Y556000D01*
G01X1283080Y572000D02*
Y564190D01*
G01X1570500Y987250D02*
X1558750D01*
X1558000Y988000D01*
G01X1570500Y980750D02*
X1591130D01*
X1592000Y981620D01*
G54D36*
X304000Y1054380D03*
Y1069620D03*
X522000Y204380D03*
Y219620D03*
X538000Y117620D03*
Y102380D03*
X544000Y204380D03*
Y219620D03*
X700000Y514380D03*
Y529620D03*
X656000Y637620D03*
Y622380D03*
X990000Y358380D03*
Y373620D03*
X1386000Y946380D03*
Y961620D03*
X1434000Y946380D03*
Y961620D03*
X1592000Y966380D03*
Y981620D03*
G54D54*
X684500Y982000D03*
X671500D03*
G54D27*
X120000Y1019940D03*
G54D18*
X122700Y50000D03*
G54D45*
X535000Y968900D03*
X560000D03*
X580000D03*
X605000D03*
X755000D03*
X780000D03*
X825000D03*
X800000D03*
G54D63*
X1050250Y492500D03*
Y497500D03*
Y502500D03*
Y507500D03*
Y512500D03*
Y517500D03*
Y522500D03*
Y527500D03*
Y532500D03*
Y537500D03*
Y542500D03*
Y547500D03*
Y552500D03*
Y557500D03*
Y562500D03*
Y567500D03*
Y572500D03*
Y577500D03*
Y582500D03*
Y587500D03*
Y592500D03*
Y597500D03*
Y602500D03*
Y607500D03*
X1245750Y527500D03*
Y522500D03*
Y517500D03*
Y512500D03*
Y507500D03*
Y502500D03*
Y497500D03*
Y492500D03*
Y587500D03*
Y582500D03*
Y577500D03*
Y572500D03*
Y567500D03*
Y562500D03*
Y557500D03*
Y552500D03*
Y547500D03*
Y542500D03*
Y537500D03*
Y532500D03*
Y607500D03*
Y602500D03*
Y597500D03*
Y592500D03*
G54D73*
G01X758000Y920000D02*
Y918000D01*
G01X955080Y894000D02*
X972250D01*
X972750Y894500D01*
G01X995250D02*
X1010420D01*
X1010920Y894000D01*
G01X1025080Y976000D02*
X1038920D01*
G01X1014920Y986000D02*
Y976000D01*
G01Y986000D02*
X1002000D01*
X996000Y992000D01*
Y1005290D01*
G01X1076000Y953080D02*
Y964000D01*
G01X1070000Y921080D02*
X1063080Y928000D01*
G01X1038920Y976000D02*
Y966000D01*
G01X1052920Y928000D02*
X1046000Y921080D01*
Y908000D01*
G01X1127750Y919750D02*
X1156000Y948000D01*
Y973500D01*
G01X1124000Y1005290D02*
Y1022000D01*
G54D19*
X98000Y108920D03*
Y119080D03*
X136000Y881080D03*
Y870920D03*
X170000Y832920D03*
Y843080D03*
X230000Y204920D03*
Y215080D03*
X242000Y204920D03*
Y215080D03*
X260000Y204920D03*
Y215080D03*
X334000D03*
Y204920D03*
X384000D03*
Y215080D03*
X380000Y1014080D03*
Y1003920D03*
X408000Y204920D03*
Y215080D03*
X434000Y204920D03*
Y215080D03*
X632000Y87080D03*
Y76920D03*
X642000Y87080D03*
Y76920D03*
X638000Y520920D03*
X650000D03*
X606000D03*
X618000D03*
X594000D03*
X638000Y531080D03*
X650000D03*
X606000D03*
X618000D03*
X594000D03*
X650000Y838920D03*
Y849080D03*
X674000Y87080D03*
Y76920D03*
X694000Y129080D03*
Y118920D03*
X684000Y129080D03*
Y118920D03*
X686000Y520920D03*
Y531080D03*
X666000Y838920D03*
X686000D03*
X676000D03*
X666000Y849080D03*
X686000D03*
X676000D03*
X732000Y402920D03*
X742000D03*
X752000D03*
X732000Y437080D03*
Y426920D03*
X742000D03*
Y437080D03*
X732000Y413080D03*
X742000D03*
X762000Y412920D03*
Y423080D03*
X752000Y413080D03*
X774000Y526920D03*
X714000Y514920D03*
Y525080D03*
X774000Y537080D03*
X800000Y94920D03*
Y105080D03*
X788000Y464920D03*
Y475080D03*
X812000Y486920D03*
Y497080D03*
X784000Y526920D03*
Y537080D03*
X786000Y607080D03*
Y596920D03*
X824000Y647080D03*
Y636920D03*
X826000Y928920D03*
Y939080D03*
X876000Y494920D03*
Y505080D03*
X886000Y494920D03*
Y505080D03*
X896000Y494920D03*
Y505080D03*
X856000Y494920D03*
Y505080D03*
X866000Y494920D03*
Y505080D03*
X956000D03*
Y494920D03*
X926000D03*
Y505080D03*
X916000D03*
Y494920D03*
X936000D03*
Y505080D03*
X946000D03*
Y494920D03*
X906000D03*
Y505080D03*
X1002000Y388920D03*
Y399080D03*
X1014000Y388920D03*
Y399080D03*
X990000D03*
Y388920D03*
X968000Y428920D03*
Y439080D03*
X978000Y428920D03*
Y439080D03*
X966000Y505080D03*
Y494920D03*
X1006000D03*
Y505080D03*
X996000D03*
Y494920D03*
X976000D03*
Y505080D03*
X986000D03*
Y494920D03*
X1028000Y557080D03*
Y546920D03*
X1034000Y399080D03*
Y388920D03*
X1046000Y399080D03*
Y388920D03*
X1030000Y870920D03*
Y881080D03*
X1076000Y953080D03*
Y942920D03*
X1086000Y953080D03*
Y942920D03*
Y908920D03*
Y919080D03*
X1268000Y487080D03*
Y476920D03*
X1278000Y487080D03*
Y476920D03*
X1248000Y952920D03*
Y963080D03*
X1238000D03*
Y952920D03*
X1282000D03*
Y963080D03*
X1318000Y952920D03*
Y963080D03*
X1292000D03*
Y952920D03*
X1308000Y963080D03*
Y952920D03*
X1400000D03*
Y963080D03*
X1420000D03*
Y952920D03*
X1410000Y963080D03*
Y952920D03*
G54D64*
X1070000Y908000D03*
X1046000Y868000D03*
X1070000D03*
X1046000Y908000D03*
G54D28*
X203500Y17000D03*
Y163000D03*
X458500D03*
X476500Y17000D03*
G54D46*
X622000Y405400D03*
Y450600D03*
G54D55*
X785000Y60000D03*
X860000D03*
X915000D03*
X990000D03*
X1085000D03*
X1160000D03*
X1215000D03*
X1290000D03*
X1345000D03*
X1420000D03*
X1475000D03*
X1550000D03*
X1605000D03*
X1680000D03*
G54D37*
X519500Y92750D03*
X500500D03*
Y115250D03*
X510000D03*
X519500D03*
X698500Y449250D03*
X708000D03*
Y426750D03*
X698500D03*
X717500Y449250D03*
Y426750D03*
G54D74*
G01X590000Y794000D02*
X600000Y784000D01*
Y628000D01*
X338000Y366000D01*
X174000D01*
X72000Y264000D01*
Y38000D01*
X86000Y24000D01*
X138000D01*
X160000Y46000D01*
X480000D01*
X518000Y8000D01*
X988000D01*
X1062920Y82920D01*
Y96000D01*
G01X98000Y142000D02*
Y119080D01*
G01X564000Y448000D02*
X468000D01*
X360000Y340000D01*
X186000D01*
X98000Y252000D01*
Y142000D01*
G01X170000Y832920D02*
Y824000D01*
G01X570000Y767150D02*
Y782000D01*
X560000Y792000D01*
Y846000D01*
X552000Y854000D01*
X468000D01*
X412000Y798000D01*
X288000D01*
X272000Y814000D01*
Y878000D01*
X306000Y912000D01*
X428000D01*
X456000Y940000D01*
Y996000D01*
X492000Y1032000D01*
X668000D01*
X694000Y1058000D01*
X876000D01*
X908000Y1090000D01*
X1590000D01*
X1632000Y1048000D01*
Y968000D01*
X1627110Y963110D01*
X1612000D01*
G01X333800Y181000D02*
Y196000D01*
G01X334000Y215080D02*
Y218000D01*
X338000Y222000D01*
G01X300920Y836000D02*
X292000D01*
G01X630000Y767150D02*
Y786000D01*
X620000Y796000D01*
Y830000D01*
X584000Y866000D01*
X460000D01*
X415000Y821000D01*
X311620D01*
G01X304000Y1054380D02*
Y1044000D01*
G01X357920Y1014000D02*
X350000D01*
G01X357920Y1004000D02*
X350000D01*
G01X368080D02*
X379920D01*
X380000Y1003920D01*
G01X368080Y1014000D02*
X379920D01*
X380000Y1014080D01*
G01X504380Y62000D02*
X492000D01*
G01X502380Y140000D02*
Y133620D01*
X508000Y128000D01*
G01X510000Y115250D02*
Y126000D01*
X508000Y128000D01*
G01X522750Y174000D02*
X510000D01*
G01X570000Y812850D02*
Y796000D01*
X572000Y794000D01*
X590000D01*
G01X642000Y87080D02*
Y96000D01*
G01X632000Y87080D02*
Y96000D01*
G01X615500Y547000D02*
X625000D01*
G01X650000Y796000D02*
Y812850D01*
G01X590000Y794000D02*
Y812850D01*
G01X636000Y846000D02*
X643080Y838920D01*
X650000D01*
G01X619620Y870000D02*
Y862380D01*
X636000Y846000D01*
G01X610920Y896000D02*
X602000D01*
G01X610920Y886000D02*
X602000D01*
G01X609550Y860000D02*
X604380Y865170D01*
Y870000D01*
G01X619620D02*
Y877620D01*
G01D02*
X621080Y879080D01*
Y886000D01*
G01X610920Y914000D02*
X602000D01*
G01X648920Y944000D02*
X640000D01*
G01X674000Y87080D02*
Y96000D01*
G01X694000Y118920D02*
Y76000D01*
G01X684000Y118920D02*
X694000D01*
G01X702380Y404000D02*
Y408380D01*
X708000Y414000D01*
G01Y426750D02*
Y414000D01*
G01X686000Y520920D02*
Y512000D01*
G01X709250Y558000D02*
X720000D01*
G01X656000Y637620D02*
Y648000D01*
G01X676000Y838920D02*
Y834000D01*
X680000Y830000D01*
G01X666000Y838920D02*
Y836000D01*
X660000Y830000D01*
G01X666000Y838920D02*
X676000D01*
G01X686000D02*
X694000D01*
G01X714920Y866000D02*
X704000D01*
G01X683080Y968000D02*
X692000D01*
G01X659080Y944000D02*
X664000D01*
X668000Y940000D01*
G01X718920Y934000D02*
X714000D01*
X708000Y928000D01*
Y923080D01*
G01X734380Y372000D02*
X724000D01*
G01X742000Y426920D02*
X749080D01*
X750000Y426000D01*
G01X748920Y504000D02*
X740000D01*
G01X748920Y514000D02*
X740000D01*
G01X714000Y514920D02*
Y506000D01*
G01X741080Y552000D02*
X748000D01*
G01X787000Y572000D02*
X771080D01*
G01X787000Y644000D02*
X771080D01*
G01X729080Y934000D02*
X738000D01*
G01X729080Y924000D02*
X738000D01*
G01X758000Y918000D02*
X760000Y920000D01*
X770920D01*
G01X820920Y486920D02*
X812000D01*
G01X836920Y648000D02*
Y655080D01*
X836000Y656000D01*
G01X824000Y647080D02*
Y656000D01*
G01X786000Y607080D02*
Y616000D01*
G01X798000Y868000D02*
X783080D01*
G01X826000Y928920D02*
Y921120D01*
G01X883080Y614000D02*
Y620920D01*
X882000Y622000D01*
G01X890920Y974000D02*
Y966190D01*
G01X917000Y973500D02*
X901580D01*
X901080Y974000D01*
G01X946000Y505080D02*
Y514000D01*
G01X966000Y505080D02*
X956000D01*
G01X946000D02*
X956000D01*
G01X944920Y894000D02*
X936000D01*
G01X964000Y1005290D02*
Y1018000D01*
X960720Y1021280D01*
X960220D01*
G01X990000Y332850D02*
Y350620D01*
G01Y287150D02*
Y304000D01*
X980000Y314000D01*
Y370000D01*
X983620Y373620D01*
X990000D01*
G01X1014000Y388920D02*
X1023080D01*
G01X1014000D02*
X1002000D01*
G01X990000Y358380D02*
Y350620D01*
G01Y388920D02*
X982920D01*
G01X978000Y428920D02*
Y420000D01*
G01X968000Y428920D02*
Y420000D01*
G01X1004920Y456000D02*
X996000D01*
G01Y505080D02*
Y514000D01*
G01X986000Y505080D02*
X996000D01*
G01X1028000Y557080D02*
Y566000D01*
G01X1021080Y894000D02*
X1030000D01*
G01X972750Y904000D02*
X984000D01*
G01X1021080Y914000D02*
X1030000D01*
G01X1025080Y986000D02*
Y994920D01*
G01X1062920Y108000D02*
X1054000D01*
G01X1034000Y399080D02*
Y414500D01*
X1034500Y415000D01*
G01X1046000Y399080D02*
X1034000D01*
G01X1086000Y908920D02*
Y900000D01*
G01X1030000Y870920D02*
Y866000D01*
X1034000Y862000D01*
G01X1049080Y966000D02*
Y958000D01*
G01Y976000D02*
Y984000D01*
G01X1205080Y886000D02*
Y879080D01*
X1204000Y878000D01*
G01X1205080Y896000D02*
X1214000D01*
G01X1238000Y963080D02*
Y972000D01*
G01X1248000Y963080D02*
Y989000D01*
X1247000Y990000D01*
G01X1238000Y952920D02*
X1248000D01*
G01X1292000Y542000D02*
X1286000Y548000D01*
X1283080D01*
G01Y582000D02*
X1290000D01*
X1294000Y578000D01*
G01X1308000Y963080D02*
Y972000D01*
G01X1292000Y963080D02*
Y972000D01*
G01X1318000Y963080D02*
Y989000D01*
X1317000Y990000D01*
G01X1292000Y952920D02*
X1282000D01*
G01X1318000D02*
X1308000D01*
G01X1386000Y946380D02*
Y938000D01*
G01D02*
Y928380D01*
X1386380Y928000D01*
G01X1496920Y982000D02*
X1488000D01*
G01X1496920Y994000D02*
X1488000D01*
G01X1592000Y981620D02*
X1611270D01*
X1612000Y980890D01*
G54D29*
X155000Y866500D03*
Y885500D03*
X177000Y876000D03*
X809000Y581500D03*
Y562500D03*
X787000Y572000D03*
X809000Y653500D03*
Y634500D03*
X787000Y644000D03*
X939000Y973500D03*
X917000D03*
Y954500D03*
X995000Y973500D03*
X973000D03*
Y954500D03*
G54D56*
X758000Y906000D03*
Y882000D03*
X798000D03*
Y906000D03*
G54D65*
X1105750Y867750D03*
Y874250D03*
Y880750D03*
Y887250D03*
Y893750D03*
Y900250D03*
Y906750D03*
Y913250D03*
Y919750D03*
Y926250D03*
Y932750D03*
Y939250D03*
Y945750D03*
Y952250D03*
X1174250Y906750D03*
Y900250D03*
Y893750D03*
Y887250D03*
Y880750D03*
Y874250D03*
Y867750D03*
Y952250D03*
Y945750D03*
Y939250D03*
Y932750D03*
Y926250D03*
Y919750D03*
Y913250D03*
G54D38*
X522750Y164500D03*
Y174000D03*
Y183500D03*
X545250D03*
Y164500D03*
X686750Y548500D03*
Y558000D03*
Y567500D03*
X709250D03*
Y558000D03*
Y548500D03*
X995250Y894500D03*
X972750D03*
Y904000D03*
X995250Y913500D03*
X972750D03*
G54D47*
X641000Y904000D03*
Y899000D03*
Y894000D03*
Y889000D03*
Y884000D03*
Y879000D03*
Y874000D03*
Y914000D03*
Y909000D03*
X699000Y874000D03*
Y879000D03*
Y884000D03*
Y889000D03*
Y894000D03*
Y899000D03*
Y904000D03*
Y909000D03*
Y914000D03*
G54D66*
X1247000Y990000D03*
X1317000D03*
X1377000D03*
X1447000D03*
G54D48*
X672000Y427900D03*
Y472100D03*
G54D39*
X510000Y287150D03*
X490000D03*
X510000Y332850D03*
X490000D03*
X510000Y767150D03*
X490000D03*
X510000Y812850D03*
X490000D03*
X570000Y287150D03*
X550000D03*
X530000D03*
X570000Y332850D03*
X550000D03*
X530000D03*
X570000Y767150D03*
X550000D03*
X530000D03*
X570000Y812850D03*
X550000D03*
X530000D03*
X650000Y287150D03*
X630000D03*
X610000D03*
X590000D03*
X650000Y332850D03*
X630000D03*
X610000D03*
X590000D03*
X650000Y767150D03*
X630000D03*
X610000D03*
X590000D03*
X650000Y812850D03*
X630000D03*
X610000D03*
X590000D03*
X710000Y287150D03*
X690000D03*
X670000D03*
X710000Y332850D03*
X690000D03*
X670000D03*
X710000Y767150D03*
X690000D03*
X670000D03*
X710000Y812850D03*
X690000D03*
X670000D03*
X770000Y287150D03*
X750000D03*
X730000D03*
X770000Y332850D03*
X750000D03*
X730000D03*
X770000Y767150D03*
X750000D03*
X730000D03*
X770000Y812850D03*
X750000D03*
X730000D03*
X830000Y287150D03*
X810000D03*
X790000D03*
X830000Y332850D03*
X810000D03*
X790000D03*
X830000Y767150D03*
X810000D03*
X790000D03*
X830000Y812850D03*
X810000D03*
X790000D03*
X890000Y287150D03*
X870000D03*
X850000D03*
X890000Y332850D03*
X870000D03*
X850000D03*
X890000Y767150D03*
X870000D03*
X850000D03*
X890000Y812850D03*
X870000D03*
X850000D03*
X950000Y287150D03*
X930000D03*
X910000D03*
X950000Y332850D03*
X930000D03*
X910000D03*
X950000Y767150D03*
X930000D03*
X910000D03*
X950000Y812850D03*
X930000D03*
X910000D03*
X1030000Y287150D03*
X1010000D03*
X990000D03*
X970000D03*
X1030000Y332850D03*
X1010000D03*
X990000D03*
X970000D03*
X1030000Y767150D03*
X1010000D03*
X990000D03*
X970000D03*
X1030000Y812850D03*
X1010000D03*
X990000D03*
X970000D03*
X1090000Y287150D03*
X1070000D03*
X1050000D03*
X1090000Y332850D03*
X1070000D03*
X1050000D03*
X1090000Y767150D03*
X1070000D03*
X1050000D03*
X1090000Y812850D03*
X1070000D03*
X1050000D03*
X1150000Y287150D03*
X1130000D03*
X1110000D03*
X1150000Y332850D03*
X1130000D03*
X1110000D03*
X1150000Y767150D03*
X1130000D03*
X1110000D03*
X1150000Y812850D03*
X1130000D03*
X1110000D03*
X1210000Y287150D03*
X1190000D03*
X1170000D03*
X1210000Y332850D03*
X1190000D03*
X1170000D03*
X1210000Y767150D03*
X1190000D03*
X1170000D03*
X1210000Y812850D03*
X1190000D03*
X1170000D03*
X1270000Y287150D03*
X1250000D03*
X1230000D03*
X1270000Y332850D03*
X1250000D03*
X1230000D03*
X1270000Y767150D03*
X1250000D03*
X1230000D03*
X1270000Y812850D03*
X1250000D03*
X1230000D03*
G54D57*
X845000Y30000D03*
X800000D03*
X930000D03*
X975000D03*
X1100000D03*
X1145000D03*
X1275000D03*
X1230000D03*
X1405000D03*
X1360000D03*
X1535000D03*
X1490000D03*
X1665000D03*
X1620000D03*
G54D67*
X1244500Y1065000D03*
X1319500D03*
X1374500D03*
X1449500D03*
G54D58*
X807900Y608000D03*
X852100D03*
G54D49*
X689900Y596000D03*
X734100D03*
X813900Y678000D03*
X858100D03*
G54D59*
X939000Y956500D03*
X995000D03*
G54D68*
X1529500Y974250D03*
Y980750D03*
Y987250D03*
Y993750D03*
X1570500D03*
Y987250D03*
Y980750D03*
Y974250D03*
G54D69*
X1590000Y307400D03*
Y332800D03*
Y358200D03*
Y383600D03*
Y409000D03*
Y434400D03*
Y459800D03*
Y485200D03*
Y510600D03*
Y536000D03*
Y561400D03*
Y586800D03*
Y612200D03*
Y637600D03*
Y663000D03*
Y688400D03*
Y713800D03*
Y739200D03*
Y764600D03*
X1615400Y307400D03*
Y332800D03*
Y358200D03*
Y383600D03*
Y409000D03*
Y434400D03*
Y459800D03*
Y485200D03*
Y510600D03*
Y536000D03*
Y561400D03*
Y586800D03*
Y612200D03*
Y637600D03*
Y663000D03*
Y688400D03*
Y713800D03*
Y739200D03*
Y764600D03*
Y790000D03*
M02*
