G04 ================== begin FILE IDENTIFICATION RECORD ==================*
G04 Layout Name:  E:/HARDWARE/PCB/Allegro/PROJECT/A13_SODIMM/PCB/A13_SODIMM_03.brd*
G04 Film Name:    ASM_PASTEMASK_TOP*
G04 File Format:  Gerber RS274X*
G04 File Origin:  Cadence Allegro 16.3-p003*
G04 Origin Date:  Tue Jan 29 13:24:02 2013*
G04 *
G04 Layer:  VIA CLASS/PASTEMASK_TOP*
G04 Layer:  PIN/PASTEMASK_TOP*
G04 Layer:  PACKAGE GEOMETRY/PASTEMASK_TOP*
G04 *
G04 Offset:    (0.000 0.000)*
G04 Mirror:    No*
G04 Mode:      Positive*
G04 Rotation:  0*
G04 FullContactRelief:  No*
G04 UndefLineWidth:     0.200*
G04 ================== end FILE IDENTIFICATION RECORD ====================*
%FSLAX34Y34*MOMM*%
%IR0*IPPOS*OFA0.00000B0.00000*MIA0B0*SFA1.00000B1.00000*%
%ADD25O,1.3X.6*%
%ADD21O,.6X1.3*%
%ADD30O,.2X1.65*%
%ADD29O,1.65X.2*%
%ADD11O,2.17X.608*%
%ADD18R,4.15X4.15*%
%AMMACRO20*
4,1,38,-.4,0.0,
-.398481,-.017365,
-.393969,-.034202,
-.386603,-.05,
-.376604,-.064279,
-.364279,-.076604,
-.35,-.086603,
-.334202,-.093969,
-.317365,-.098481,
-.3,-.1,
.3,-.1,
.317365,-.098481,
.334202,-.093969,
.35,-.086603,
.364279,-.076604,
.376604,-.064279,
.386603,-.05,
.393969,-.034202,
.398481,-.017365,
.4,0.0,
.398481,.017365,
.393969,.034202,
.386603,.05,
.376604,.064279,
.364279,.076604,
.35,.086603,
.334202,.093969,
.317365,.098481,
.3,.1,
-.3,.1,
-.317365,.098481,
-.334202,.093969,
-.35,.086603,
-.364279,.076604,
-.376604,.064279,
-.386603,.05,
-.393969,.034202,
-.398481,.017365,
-.4,0.0,
0.0*
%
%ADD20MACRO20*%
%AMMACRO19*
4,1,38,0.0,.4,
-.017365,.398481,
-.034202,.393969,
-.05,.386603,
-.064279,.376604,
-.076604,.364279,
-.086603,.35,
-.093969,.334202,
-.098481,.317365,
-.1,.3,
-.1,-.3,
-.098481,-.317365,
-.093969,-.334202,
-.086603,-.35,
-.076604,-.364279,
-.064279,-.376604,
-.05,-.386603,
-.034202,-.393969,
-.017365,-.398481,
0.0,-.4,
.017365,-.398481,
.034202,-.393969,
.05,-.386603,
.064279,-.376604,
.076604,-.364279,
.086603,-.35,
.093969,-.334202,
.098481,-.317365,
.1,-.3,
.1,.3,
.098481,.317365,
.093969,.334202,
.086603,.35,
.076604,.364279,
.064279,.376604,
.05,.386603,
.034202,.393969,
.017365,.398481,
0.0,.4,
0.0*
%
%ADD19MACRO19*%
%AMMACRO26*
4,1,40,-.15,.26,
-.15,-.26,
-.148481,-.277365,
-.143969,-.294202,
-.136603,-.31,
-.126604,-.324279,
-.114279,-.336604,
-.1,-.346603,
-.084202,-.353969,
-.067365,-.358481,
-.05,-.36,
.05,-.36,
.067365,-.358481,
.084202,-.353969,
.1,-.346603,
.114279,-.336604,
.126604,-.324279,
.136603,-.31,
.143969,-.294202,
.148481,-.277365,
.15,-.26,
.15,.26,
.148481,.277365,
.143969,.294202,
.136603,.31,
.126604,.324279,
.114279,.336604,
.1,.346603,
.084202,.353969,
.067365,.358481,
.05,.36,
-.05,.36,
-.067365,.358481,
-.084202,.353969,
-.1,.346603,
-.114279,.336604,
-.126604,.324279,
-.136603,.31,
-.143969,.294202,
-.148481,.277365,
-.15,.26,
0.0*
%
%ADD26MACRO26*%
%AMMACRO12*
4,1,40,-.9,.6,
-.9,-.6,
-.898481,-.617365,
-.893969,-.634202,
-.886603,-.65,
-.876604,-.664279,
-.864279,-.676604,
-.85,-.686603,
-.834202,-.693969,
-.817365,-.698481,
-.8,-.7,
.8,-.7,
.817365,-.698481,
.834202,-.693969,
.85,-.686603,
.864279,-.676604,
.876604,-.664279,
.886603,-.65,
.893969,-.634202,
.898481,-.617365,
.9,-.6,
.9,.6,
.898481,.617365,
.893969,.634202,
.886603,.65,
.876604,.664279,
.864279,.676604,
.85,.686603,
.834202,.693969,
.817365,.698481,
.8,.7,
-.8,.7,
-.817365,.698481,
-.834202,.693969,
-.85,.686603,
-.864279,.676604,
-.876604,.664279,
-.886603,.65,
-.893969,.634202,
-.898481,.617365,
-.9,.6,
0.0*
%
%ADD12MACRO12*%
%AMMACRO33*
4,1,40,-2.4,.8,
-2.4,-.8,
-2.398481,-.817365,
-2.393969,-.834202,
-2.386603,-.85,
-2.376604,-.864279,
-2.364279,-.876604,
-2.35,-.886603,
-2.334202,-.893969,
-2.317365,-.898481,
-2.3,-.9,
2.3,-.9,
2.317365,-.898481,
2.334202,-.893969,
2.35,-.886603,
2.364279,-.876604,
2.376604,-.864279,
2.386603,-.85,
2.393969,-.834202,
2.398481,-.817365,
2.4,-.8,
2.4,.8,
2.398481,.817365,
2.393969,.834202,
2.386603,.85,
2.376604,.864279,
2.364279,.876604,
2.35,.886603,
2.334202,.893969,
2.317365,.898481,
2.3,.9,
-2.3,.9,
-2.317365,.898481,
-2.334202,.893969,
-2.35,.886603,
-2.364279,.876604,
-2.376604,.864279,
-2.386603,.85,
-2.393969,.834202,
-2.398481,.817365,
-2.4,.8,
0.0*
%
%ADD33MACRO33*%
%AMMACRO17*
4,1,40,.8,2.4,
-.8,2.4,
-.817365,2.398481,
-.834202,2.393969,
-.85,2.386603,
-.864279,2.376604,
-.876604,2.364279,
-.886603,2.35,
-.893969,2.334202,
-.898481,2.317365,
-.9,2.3,
-.9,-2.3,
-.898481,-2.317365,
-.893969,-2.334202,
-.886603,-2.35,
-.876604,-2.364279,
-.864279,-2.376604,
-.85,-2.386603,
-.834202,-2.393969,
-.817365,-2.398481,
-.8,-2.4,
.8,-2.4,
.817365,-2.398481,
.834202,-2.393969,
.85,-2.386603,
.864279,-2.376604,
.876604,-2.364279,
.886603,-2.35,
.893969,-2.334202,
.898481,-2.317365,
.9,-2.3,
.9,2.3,
.898481,2.317365,
.893969,2.334202,
.886603,2.35,
.876604,2.364279,
.864279,2.376604,
.85,2.386603,
.834202,2.393969,
.817365,2.398481,
.8,2.4,
0.0*
%
%ADD17MACRO17*%
%AMMACRO28*
4,1,40,-.825,.985,
-.825,-.985,
-.823481,-1.002365,
-.818969,-1.019202,
-.811603,-1.035,
-.801604,-1.049279,
-.789279,-1.061604,
-.775,-1.071603,
-.759202,-1.078969,
-.742365,-1.083481,
-.725,-1.085,
.725,-1.085,
.742365,-1.083481,
.759202,-1.078969,
.775,-1.071603,
.789279,-1.061604,
.801604,-1.049279,
.811603,-1.035,
.818969,-1.019202,
.823481,-1.002365,
.825,-.985,
.825,.985,
.823481,1.002365,
.818969,1.019202,
.811603,1.035,
.801604,1.049279,
.789279,1.061604,
.775,1.071603,
.759202,1.078969,
.742365,1.083481,
.725,1.085,
-.725,1.085,
-.742365,1.083481,
-.759202,1.078969,
-.775,1.071603,
-.789279,1.061604,
-.801604,1.049279,
-.811603,1.035,
-.818969,1.019202,
-.823481,1.002365,
-.825,.985,
0.0*
%
%ADD28MACRO28*%
%AMMACRO23*
4,1,40,.985,.825,
-.985,.825,
-1.002365,.823481,
-1.019202,.818969,
-1.035,.811603,
-1.049279,.801604,
-1.061604,.789279,
-1.071603,.775,
-1.078969,.759202,
-1.083481,.742365,
-1.085,.725,
-1.085,-.725,
-1.083481,-.742365,
-1.078969,-.759202,
-1.071603,-.775,
-1.061604,-.789279,
-1.049279,-.801604,
-1.035,-.811603,
-1.019202,-.818969,
-1.002365,-.823481,
-.985,-.825,
.985,-.825,
1.002365,-.823481,
1.019202,-.818969,
1.035,-.811603,
1.049279,-.801604,
1.061604,-.789279,
1.071603,-.775,
1.078969,-.759202,
1.083481,-.742365,
1.085,-.725,
1.085,.725,
1.083481,.742365,
1.078969,.759202,
1.071603,.775,
1.061604,.789279,
1.049279,.801604,
1.035,.811603,
1.019202,.818969,
1.002365,.823481,
.985,.825,
0.0*
%
%ADD23MACRO23*%
%ADD32R,6.X6.*%
%ADD35C,.413*%
%ADD27R,1.194X1.803*%
%AMMACRO34*
21,1,.635,.508,0.0,0.0,45.*%
%ADD34MACRO34*%
%ADD13R,.508X.635*%
%ADD10R,.635X.508*%
%AMMACRO31*
4,1,40,-.26,-.15,
.26,-.15,
.277365,-.148481,
.294202,-.143969,
.31,-.136603,
.324279,-.126604,
.336604,-.114279,
.346603,-.1,
.353969,-.084202,
.358481,-.067365,
.36,-.05,
.36,.05,
.358481,.067365,
.353969,.084202,
.346603,.1,
.336604,.114279,
.324279,.126604,
.31,.136603,
.294202,.143969,
.277365,.148481,
.26,.15,
-.26,.15,
-.277365,.148481,
-.294202,.143969,
-.31,.136603,
-.324279,.126604,
-.336604,.114279,
-.346603,.1,
-.353969,.084202,
-.358481,.067365,
-.36,.05,
-.36,-.05,
-.358481,-.067365,
-.353969,-.084202,
-.346603,-.1,
-.336604,-.114279,
-.324279,-.126604,
-.31,-.136603,
-.294202,-.143969,
-.277365,-.148481,
-.26,-.15,
0.0*
%
%ADD31MACRO31*%
%ADD14R,.813X.889*%
%ADD16R,.889X.813*%
%AMMACRO24*
4,1,40,2.4,-.8,
2.4,.8,
2.398481,.817365,
2.393969,.834202,
2.386603,.85,
2.376604,.864279,
2.364279,.876604,
2.35,.886603,
2.334202,.893969,
2.317365,.898481,
2.3,.9,
-2.3,.9,
-2.317365,.898481,
-2.334202,.893969,
-2.35,.886603,
-2.364279,.876604,
-2.376604,.864279,
-2.386603,.85,
-2.393969,.834202,
-2.398481,.817365,
-2.4,.8,
-2.4,-.8,
-2.398481,-.817365,
-2.393969,-.834202,
-2.386603,-.85,
-2.376604,-.864279,
-2.364279,-.876604,
-2.35,-.886603,
-2.334202,-.893969,
-2.317365,-.898481,
-2.3,-.9,
2.3,-.9,
2.317365,-.898481,
2.334202,-.893969,
2.35,-.886603,
2.364279,-.876604,
2.376604,-.864279,
2.386603,-.85,
2.393969,-.834202,
2.398481,-.817365,
2.4,-.8,
0.0*
%
%ADD24MACRO24*%
%AMMACRO22*
4,1,40,-.8,-2.4,
.8,-2.4,
.817365,-2.398481,
.834202,-2.393969,
.85,-2.386603,
.864279,-2.376604,
.876604,-2.364279,
.886603,-2.35,
.893969,-2.334202,
.898481,-2.317365,
.9,-2.3,
.9,2.3,
.898481,2.317365,
.893969,2.334202,
.886603,2.35,
.876604,2.364279,
.864279,2.376604,
.85,2.386603,
.834202,2.393969,
.817365,2.398481,
.8,2.4,
-.8,2.4,
-.817365,2.398481,
-.834202,2.393969,
-.85,2.386603,
-.864279,2.376604,
-.876604,2.364279,
-.886603,2.35,
-.893969,2.334202,
-.898481,2.317365,
-.9,2.3,
-.9,-2.3,
-.898481,-2.317365,
-.893969,-2.334202,
-.886603,-2.35,
-.876604,-2.364279,
-.864279,-2.376604,
-.85,-2.386603,
-.834202,-2.393969,
-.817365,-2.398481,
-.8,-2.4,
0.0*
%
%ADD22MACRO22*%
%AMMACRO15*
4,1,40,-.265,-.865,
.265,-.865,
.282365,-.863481,
.299202,-.858969,
.315,-.851603,
.329279,-.841604,
.341604,-.829279,
.351603,-.815,
.358969,-.799202,
.363481,-.782365,
.365,-.765,
.365,.765,
.363481,.782365,
.358969,.799202,
.351603,.815,
.341604,.829279,
.329279,.841604,
.315,.851603,
.299202,.858969,
.282365,.863481,
.265,.865,
-.265,.865,
-.282365,.863481,
-.299202,.858969,
-.315,.851603,
-.329279,.841604,
-.341604,.829279,
-.351603,.815,
-.358969,.799202,
-.363481,.782365,
-.365,.765,
-.365,-.765,
-.363481,-.782365,
-.358969,-.799202,
-.351603,-.815,
-.341604,-.829279,
-.329279,-.841604,
-.315,-.851603,
-.299202,-.858969,
-.282365,-.863481,
-.265,-.865,
0.0*
%
%ADD15MACRO15*%
G75*
%LPD*%
G75*
G36*
G01X83000Y263000D02*
G02I-5000J0D01*
G37*
G36*
G01X98000D02*
G02I-5000J0D01*
G37*
G36*
G01X83000Y278000D02*
G02I-5000J0D01*
G37*
G36*
G01X98000D02*
G02I-5000J0D01*
G37*
G36*
G01X83000Y293000D02*
G02I-5000J0D01*
G37*
G36*
G01X98000D02*
G02I-5000J0D01*
G37*
G36*
G01X113000Y263000D02*
G02I-5000J0D01*
G37*
G36*
G01Y278000D02*
G02I-5000J0D01*
G37*
G36*
G01Y293000D02*
G02I-5000J0D01*
G37*
G54D10*
X40080Y64000D03*
X29920D03*
X16920Y133000D03*
X27080D03*
X32080Y198000D03*
X21920D03*
X13920Y267000D03*
X24080D03*
X44920Y239000D03*
X28920Y278000D03*
X39080D03*
X32920Y327000D03*
X43080D03*
Y338000D03*
X32920D03*
X56920Y64000D03*
X67080D03*
X91080D03*
X80920D03*
X91920Y133000D03*
X55080Y239000D03*
X102080Y133000D03*
X175920Y135000D03*
X186080D03*
X175920Y125000D03*
X186080D03*
Y115000D03*
X175920D03*
X189080Y253000D03*
X178920D03*
X223080Y238000D03*
X212920D03*
X249080Y263000D03*
X238920D03*
X249080Y253000D03*
X238920D03*
Y281000D03*
X249080D03*
Y357000D03*
X238920D03*
X283920Y246000D03*
X294080D03*
X279920Y273000D03*
X290080D03*
X279920Y293000D03*
X290080D03*
X279920Y283000D03*
X290080D03*
X365080Y415000D03*
X354920D03*
X576080Y161000D03*
X565920D03*
X591080Y216000D03*
X580920D03*
X591080Y207000D03*
X580920D03*
X591080Y198000D03*
X580920D03*
X559590Y264000D03*
X549430D03*
X559080Y241000D03*
X548920D03*
X591080Y252000D03*
X580920D03*
X591080Y288000D03*
X580920D03*
X591080Y306000D03*
X580920D03*
X591080Y297000D03*
X580920D03*
X559080Y322000D03*
X548920D03*
X559080Y290000D03*
X548920D03*
X559080Y345000D03*
X548920D03*
X559080Y354000D03*
X548920D03*
X559080Y336000D03*
X548920D03*
X644920Y222500D03*
Y261500D03*
X628920Y381000D03*
X639080D03*
X617920Y353000D03*
X628080D03*
X655080Y222500D03*
Y261500D03*
X656920Y381000D03*
X667080D03*
X699080Y460000D03*
X688920D03*
G54D20*
X63000Y256000D03*
Y260000D03*
Y264000D03*
Y268000D03*
Y272000D03*
Y276000D03*
Y280000D03*
Y284000D03*
Y288000D03*
Y292000D03*
Y296000D03*
Y300000D03*
X123000Y272000D03*
Y268000D03*
Y264000D03*
Y260000D03*
Y256000D03*
Y300000D03*
Y296000D03*
Y292000D03*
Y288000D03*
Y284000D03*
Y280000D03*
Y276000D03*
G54D11*
X54350Y78950D03*
Y91650D03*
Y104350D03*
Y117050D03*
X101650Y104350D03*
Y91650D03*
Y78950D03*
Y117050D03*
G54D12*
X22000Y81000D03*
Y117000D03*
G54D30*
X370000Y132250D03*
X366000D03*
X362000D03*
X358000D03*
X354000D03*
X350000D03*
X346000D03*
X342000D03*
X338000D03*
X334000D03*
Y347750D03*
X338000D03*
X342000D03*
X346000D03*
X350000D03*
X354000D03*
X358000D03*
X362000D03*
X366000D03*
X370000D03*
X426000Y132250D03*
X422000D03*
X418000D03*
X414000D03*
X410000D03*
X406000D03*
X402000D03*
X398000D03*
X394000D03*
X390000D03*
X386000D03*
X382000D03*
X378000D03*
X374000D03*
Y347750D03*
X378000D03*
X382000D03*
X386000D03*
X390000D03*
X394000D03*
X398000D03*
X402000D03*
X406000D03*
X410000D03*
X414000D03*
X418000D03*
X422000D03*
X426000D03*
X482000Y132250D03*
X478000D03*
X474000D03*
X470000D03*
X466000D03*
X462000D03*
X458000D03*
X454000D03*
X450000D03*
X446000D03*
X442000D03*
X438000D03*
X434000D03*
X430000D03*
Y347750D03*
X434000D03*
X438000D03*
X442000D03*
X446000D03*
X450000D03*
X454000D03*
X458000D03*
X462000D03*
X466000D03*
X470000D03*
X474000D03*
X478000D03*
X482000D03*
X506000Y132250D03*
X502000D03*
X498000D03*
X494000D03*
X490000D03*
X486000D03*
Y347750D03*
X490000D03*
X494000D03*
X498000D03*
X502000D03*
X506000D03*
G54D21*
X141500Y107750D03*
Y130250D03*
X151000D03*
X160500Y107750D03*
Y130250D03*
G54D22*
X147000Y170000D03*
X156000Y400000D03*
X189000Y170000D03*
X198000Y400000D03*
G54D31*
X421100Y61500D03*
Y66500D03*
Y71500D03*
Y76500D03*
X432900D03*
Y71500D03*
Y66500D03*
Y61500D03*
X529900Y380500D03*
Y375500D03*
X518100D03*
Y380500D03*
X497410Y428910D03*
Y423910D03*
Y418910D03*
Y413910D03*
X485610D03*
Y418910D03*
Y423910D03*
Y428910D03*
X529900Y390500D03*
Y385500D03*
X518100D03*
Y390500D03*
X529900Y421500D03*
Y416500D03*
Y411500D03*
Y406500D03*
X518100D03*
Y411500D03*
Y416500D03*
Y421500D03*
X497410Y460910D03*
Y455910D03*
Y450910D03*
Y445910D03*
X485610D03*
Y450910D03*
Y455910D03*
Y460910D03*
X591900Y187500D03*
Y182500D03*
Y177500D03*
Y172500D03*
X580100D03*
Y177500D03*
Y182500D03*
Y187500D03*
X591900Y241500D03*
Y236500D03*
Y231500D03*
Y226500D03*
X580100D03*
Y231500D03*
Y236500D03*
Y241500D03*
X591900Y272500D03*
Y267500D03*
Y262500D03*
X580100D03*
Y267500D03*
Y272500D03*
X591900Y326500D03*
Y321500D03*
Y316500D03*
X580100D03*
Y321500D03*
Y326500D03*
X591900Y277500D03*
X580100D03*
X591900Y331500D03*
X580100D03*
X555900Y405500D03*
Y400500D03*
Y395500D03*
Y390500D03*
X544100D03*
Y395500D03*
Y400500D03*
Y405500D03*
X557540Y439620D03*
Y434620D03*
X545740D03*
Y439620D03*
X557540Y449620D03*
Y444620D03*
X545740D03*
Y449620D03*
G54D13*
X18000Y160920D03*
Y171080D03*
X46000Y315080D03*
Y304920D03*
X28000Y411920D03*
Y422080D03*
X56000Y323920D03*
X66000D03*
X56000Y334080D03*
X66000D03*
X198000Y133080D03*
Y122920D03*
X207000Y451920D03*
Y462080D03*
X239000Y91920D03*
Y102080D03*
X229000Y91920D03*
Y102080D03*
X218000Y462080D03*
Y451920D03*
X312000Y60920D03*
Y71080D03*
X302000Y60920D03*
Y71080D03*
X282000Y60920D03*
Y71080D03*
X292000Y60920D03*
Y71080D03*
X308000Y354080D03*
Y343920D03*
X370000Y103920D03*
Y114080D03*
X360000Y381080D03*
Y370920D03*
X348000Y381080D03*
Y370920D03*
X338000Y381080D03*
Y370920D03*
X370000Y381080D03*
Y370920D03*
X326000Y381080D03*
Y370920D03*
X356000Y438080D03*
Y427920D03*
X366000Y438080D03*
Y427920D03*
X346000D03*
Y438080D03*
X426000Y103920D03*
X398000D03*
X426000Y114080D03*
X398000D03*
X392000Y381080D03*
Y370920D03*
X382000Y381080D03*
Y370920D03*
X478000Y103920D03*
X459000D03*
X449000D03*
X436000D03*
X478000Y114080D03*
X459000D03*
X449000D03*
X436000D03*
X494000Y103920D03*
Y114080D03*
X529000Y131920D03*
Y142080D03*
X573000Y131920D03*
Y142080D03*
X551000Y156920D03*
Y167080D03*
Y131920D03*
Y142080D03*
X540000Y131920D03*
Y142080D03*
X544000Y196920D03*
Y207080D03*
X647000Y101920D03*
Y112080D03*
X636000D03*
Y101920D03*
X614000D03*
Y112080D03*
X625000D03*
Y101920D03*
X603000D03*
Y112080D03*
X629000Y132920D03*
Y143080D03*
Y276920D03*
Y287080D03*
X684000Y101920D03*
Y112080D03*
X660000Y101920D03*
Y112080D03*
X672000Y101920D03*
Y112080D03*
X696000Y234080D03*
Y223920D03*
X686000Y249920D03*
Y260080D03*
X666000Y234080D03*
Y223920D03*
X676000Y234080D03*
Y223920D03*
X666000Y249920D03*
Y260080D03*
X676000Y249920D03*
Y260080D03*
X686000Y234080D03*
Y223920D03*
X698000Y249920D03*
Y260080D03*
X696000Y377080D03*
Y366920D03*
X716000Y101920D03*
Y112080D03*
X732000Y101920D03*
Y112080D03*
X726000Y234080D03*
Y223920D03*
X736000Y234080D03*
Y223920D03*
X718000Y249920D03*
Y260080D03*
X728000Y249920D03*
Y260080D03*
X708000Y249920D03*
Y260080D03*
X716000Y223920D03*
Y234080D03*
X706000Y223920D03*
Y234080D03*
X714000Y377080D03*
Y366920D03*
X730000Y377080D03*
Y366920D03*
X797000Y154920D03*
Y165080D03*
X799000Y360080D03*
Y349920D03*
G54D14*
X32000Y154380D03*
Y169620D03*
X30000Y238380D03*
Y253620D03*
X14000Y238380D03*
Y253620D03*
Y295620D03*
Y280380D03*
X33000Y313620D03*
Y298380D03*
X28000Y460620D03*
Y445380D03*
X49000Y154380D03*
Y169620D03*
X83000Y209380D03*
Y224620D03*
X67000Y209380D03*
Y224620D03*
X79000Y325380D03*
Y340620D03*
X125000Y107380D03*
Y122620D03*
X131000Y209380D03*
Y224620D03*
X115000Y209380D03*
Y224620D03*
X147000Y209380D03*
Y224620D03*
X118000Y325380D03*
X134000D03*
X118000Y340620D03*
X134000D03*
X150000Y460620D03*
Y445380D03*
X174000Y357620D03*
Y342380D03*
X158000Y357620D03*
Y342380D03*
X258000Y374380D03*
Y413380D03*
Y428620D03*
Y389620D03*
X309000Y421380D03*
Y436620D03*
X321000Y457380D03*
Y472620D03*
X333000Y436620D03*
Y421380D03*
X650000Y249620D03*
Y234380D03*
X770000Y115380D03*
Y130620D03*
G54D32*
X420000Y240000D03*
G54D23*
X170900Y216000D03*
X215100D03*
G54D15*
X21900Y217000D03*
X52100D03*
G54D24*
X179000Y276000D03*
Y318000D03*
G54D33*
X405000Y425000D03*
Y467000D03*
G54D16*
X38380Y362000D03*
Y379000D03*
X53620Y362000D03*
Y379000D03*
X149380Y253000D03*
X177380Y102000D03*
X192620D03*
X164620Y253000D03*
X274260Y224360D03*
X289500D03*
X320380Y395000D03*
X367620D03*
X352380D03*
X335620D03*
X399620D03*
X384380D03*
X590380Y380000D03*
X605620D03*
G54D34*
X484150Y376980D03*
X476970Y369800D03*
X447760Y383760D03*
X440580Y376580D03*
G54D25*
X168750Y442500D03*
Y452000D03*
Y461500D03*
X191250D03*
Y452000D03*
Y442500D03*
X338750Y453500D03*
Y472500D03*
X361250D03*
Y463000D03*
Y453500D03*
G54D35*
X644000Y152000D03*
Y144000D03*
Y136000D03*
Y200000D03*
Y192000D03*
Y184000D03*
Y300000D03*
Y292000D03*
Y284000D03*
Y348000D03*
Y340000D03*
Y332000D03*
X700000Y152000D03*
Y144000D03*
Y136000D03*
X692000Y152000D03*
Y144000D03*
Y136000D03*
X684000Y152000D03*
Y144000D03*
Y136000D03*
X676000Y152000D03*
Y144000D03*
Y136000D03*
X668000Y152000D03*
Y144000D03*
Y136000D03*
X660000Y152000D03*
Y144000D03*
Y136000D03*
X652000Y152000D03*
Y144000D03*
Y136000D03*
X700000Y200000D03*
Y192000D03*
Y184000D03*
X692000Y200000D03*
Y192000D03*
Y184000D03*
X684000Y200000D03*
Y192000D03*
Y184000D03*
X676000Y200000D03*
Y192000D03*
Y184000D03*
X668000Y200000D03*
Y192000D03*
Y184000D03*
X660000Y200000D03*
Y192000D03*
Y184000D03*
X652000Y200000D03*
Y192000D03*
Y184000D03*
X700000Y300000D03*
Y292000D03*
Y284000D03*
X692000Y300000D03*
Y292000D03*
Y284000D03*
X684000Y300000D03*
Y292000D03*
Y284000D03*
X676000Y300000D03*
Y292000D03*
Y284000D03*
X668000Y300000D03*
Y292000D03*
Y284000D03*
X660000Y300000D03*
Y292000D03*
Y284000D03*
X652000Y300000D03*
Y292000D03*
Y284000D03*
X700000Y348000D03*
Y340000D03*
Y332000D03*
X692000Y348000D03*
Y340000D03*
Y332000D03*
X684000Y348000D03*
Y340000D03*
Y332000D03*
X676000Y348000D03*
Y340000D03*
Y332000D03*
X668000Y348000D03*
Y340000D03*
Y332000D03*
X660000Y348000D03*
Y340000D03*
Y332000D03*
X652000Y348000D03*
Y340000D03*
Y332000D03*
X740000Y152000D03*
Y144000D03*
Y136000D03*
X732000Y152000D03*
Y144000D03*
Y136000D03*
X724000Y152000D03*
Y144000D03*
Y136000D03*
X716000Y152000D03*
Y144000D03*
Y136000D03*
X708000Y152000D03*
Y144000D03*
Y136000D03*
X740000Y200000D03*
Y192000D03*
Y184000D03*
X732000Y200000D03*
Y192000D03*
Y184000D03*
X724000Y200000D03*
Y192000D03*
Y184000D03*
X716000Y200000D03*
Y192000D03*
Y184000D03*
X708000Y200000D03*
Y192000D03*
Y184000D03*
X740000Y300000D03*
Y292000D03*
Y284000D03*
X732000Y300000D03*
Y292000D03*
Y284000D03*
X724000Y300000D03*
Y292000D03*
Y284000D03*
X716000Y300000D03*
Y292000D03*
Y284000D03*
X708000Y300000D03*
Y292000D03*
Y284000D03*
X740000Y348000D03*
Y340000D03*
Y332000D03*
X732000Y348000D03*
Y340000D03*
Y332000D03*
X724000Y348000D03*
Y340000D03*
Y332000D03*
X716000Y348000D03*
Y340000D03*
Y332000D03*
X708000Y348000D03*
Y340000D03*
Y332000D03*
G54D17*
X73000Y170000D03*
X78000Y383000D03*
X115000Y170000D03*
X120000Y383000D03*
G54D26*
X260090Y147100D03*
X255090D03*
Y158900D03*
X260090D03*
X253090Y117100D03*
X248090D03*
X243090D03*
X238090D03*
Y128900D03*
X243090D03*
X248090D03*
X253090D03*
X260500Y207100D03*
X255500D03*
X250500D03*
X245500D03*
Y218900D03*
X250500D03*
X255500D03*
X260500D03*
X311160Y101960D03*
X306160D03*
X301160D03*
X296160D03*
Y113760D03*
X301160D03*
X306160D03*
X311160D03*
X284500Y117100D03*
X279500D03*
X274500D03*
X269500D03*
Y128900D03*
X274500D03*
X279500D03*
X284500D03*
X270090Y147100D03*
X265090D03*
Y158900D03*
X270090D03*
X369500Y77100D03*
X364500D03*
Y88900D03*
X369500D03*
X357500Y102100D03*
X352500D03*
X347500D03*
X342500D03*
Y113900D03*
X347500D03*
X352500D03*
X357500D03*
X334500Y102100D03*
X329500D03*
X324500D03*
X319500D03*
Y113900D03*
X324500D03*
X329500D03*
X334500D03*
X379500Y77100D03*
X374500D03*
Y88900D03*
X379500D03*
G54D27*
X232000Y299000D03*
X256000D03*
Y339000D03*
X232000D03*
G54D18*
X93000Y278000D03*
G54D28*
X232000Y377900D03*
Y422100D03*
G54D19*
X99000Y248000D03*
X95000D03*
X91000D03*
X87000D03*
X83000D03*
X79000D03*
X75000D03*
X71000D03*
Y308000D03*
X75000D03*
X79000D03*
X83000D03*
X87000D03*
X91000D03*
X95000D03*
X99000D03*
X115000Y248000D03*
X111000D03*
X107000D03*
X103000D03*
Y308000D03*
X107000D03*
X111000D03*
X115000D03*
G54D29*
X312250Y154000D03*
Y158000D03*
Y162000D03*
Y166000D03*
Y170000D03*
Y174000D03*
Y178000D03*
Y182000D03*
Y186000D03*
Y190000D03*
Y194000D03*
Y198000D03*
Y202000D03*
Y206000D03*
Y210000D03*
Y214000D03*
Y218000D03*
Y222000D03*
Y226000D03*
Y230000D03*
Y234000D03*
Y238000D03*
Y242000D03*
Y246000D03*
Y250000D03*
Y254000D03*
Y258000D03*
Y262000D03*
Y266000D03*
Y270000D03*
Y274000D03*
Y278000D03*
Y282000D03*
Y286000D03*
Y290000D03*
Y294000D03*
Y298000D03*
Y302000D03*
Y306000D03*
Y310000D03*
Y314000D03*
Y318000D03*
Y322000D03*
Y326000D03*
X527750Y166000D03*
Y162000D03*
Y158000D03*
Y154000D03*
Y218000D03*
Y214000D03*
Y210000D03*
Y206000D03*
Y202000D03*
Y198000D03*
Y194000D03*
Y190000D03*
Y186000D03*
Y182000D03*
Y178000D03*
Y174000D03*
Y170000D03*
Y274000D03*
Y270000D03*
Y266000D03*
Y262000D03*
Y258000D03*
Y254000D03*
Y250000D03*
Y246000D03*
Y242000D03*
Y238000D03*
Y234000D03*
Y230000D03*
Y226000D03*
Y222000D03*
Y326000D03*
Y322000D03*
Y318000D03*
Y314000D03*
Y310000D03*
Y306000D03*
Y302000D03*
Y298000D03*
Y294000D03*
Y290000D03*
Y286000D03*
Y282000D03*
Y278000D03*
M02*
