G04 ================== begin FILE IDENTIFICATION RECORD ==================*
G04 Layout Name:  E:/HARDWARE/PCB/Allegro/PROJECT/A13_SODIMM/PCB/A13_SODIMM_03.brd*
G04 Film Name:    BOT*
G04 File Format:  Gerber RS274X*
G04 File Origin:  Cadence Allegro 16.3-p003*
G04 Origin Date:  Tue Jan 29 13:24:02 2013*
G04 *
G04 Layer:  ETCH/BOTTOM*
G04 Layer:  PIN/BOTTOM*
G04 Layer:  VIA CLASS/BOTTOM*
G04 *
G04 Offset:    (0.000 0.000)*
G04 Mirror:    No*
G04 Mode:      Positive*
G04 Rotation:  0*
G04 FullContactRelief:  No*
G04 UndefLineWidth:     0.200*
G04 ================== end FILE IDENTIFICATION RECORD ====================*
%FSLAX34Y34*MOMM*%
%IR0*IPPOS*OFA0.00000B0.00000*MIA0B0*SFA1.00000B1.00000*%
%ADD13C,3.*%
%ADD10C,1.5*%
%ADD11R,1.5X1.5*%
%ADD12C,.457*%
%ADD14C,.101*%
%ADD15C,.2*%
%ADD16C,.4*%
%ADD17C,.125*%
%ADD18C,.375*%
%ADD19C,.862*%
G75*
%LPD*%
G75*
G36*
G01X2000Y2000D02*
Y538000D01*
X818000D01*
Y2000D01*
X2000D01*
G37*
%LPC*%
G75*
G36*
G01X561000Y188000D02*
X533000Y216000D01*
Y333000D01*
X541000Y341000D01*
X577000D01*
X603000Y315000D01*
Y212000D01*
X579000Y188000D01*
X561000D01*
G37*
G36*
G01X648770Y350150D02*
G03X647230I-770J-672D01*
G02Y355850I-3230J2850D01*
G03X648770I770J672D01*
G02Y350150I3230J-2850D01*
G37*
G36*
G01X332250Y247170D02*
G03Y245830I770J-670D01*
G02X325750I-3250J-2830D01*
G03Y247170I-770J670D01*
G02X332250I3250J2830D01*
G37*
G36*
G01X244220Y233300D02*
G03X243840Y231970I526J-870D01*
G02X235700Y230300I-3838J-1966D01*
G01X235720Y230540D01*
X234900Y231350D01*
X229900D01*
X212350Y248900D01*
Y255180D01*
G03X211860Y255690I-509J1D01*
G02X211730Y255700I265J4300D01*
G03X210650Y254680I-60J-1019D01*
G01Y236900D01*
X206280Y232540D01*
X206300Y232300D01*
G02X202300Y236300I-4300J-300D01*
G01X202540Y236280D01*
X205350Y239100D01*
Y263100D01*
X208720Y266460D01*
X208700Y266700D01*
G02X215790Y263710I4301J298D01*
G03X215600Y262370I659J-777D01*
G02X216300Y259700I-3600J-2371D01*
G01X216280Y259460D01*
X217650Y258100D01*
X217930Y258170D01*
G02X217980Y258190I1611J-3954D01*
G03X218740Y259330I-247J988D01*
G02X225650Y256600I4259J669D01*
G01Y251100D01*
X227100Y249650D01*
X254900D01*
X269900Y264650D01*
X324710D01*
G02X323020Y259350I2291J-3650D01*
G01X272100D01*
X257100Y244350D01*
X230860D01*
G03X230140Y242610I1J-1019D01*
G01X233100Y239650D01*
X238600D01*
G02X244220Y233300I3398J-2655D01*
G37*
G36*
G01X646690Y232150D02*
G03X647060Y230740I875J-524D01*
G02X641230Y229230I-2142J-3740D01*
G03X640860Y230640I-875J524D01*
G02X646690Y232150I2142J3740D01*
G37*
G36*
G01X648770Y202150D02*
G03X647230I-770J-672D01*
G02Y207850I-3230J2850D01*
G03X648770I770J672D01*
G02Y202150I3230J-2850D01*
G37*
G36*
G01X542440Y174550D02*
G03X543880Y174840I580J839D01*
G02X545060Y168950I3620J-2338D01*
G03X543620Y168660I-580J-839D01*
G02X542820Y167740I-3620J2340D01*
G03Y166190I662J-775D01*
G02X537180I-2820J-3260D01*
G03Y167740I-662J775D01*
G02X542440Y174550I2824J3256D01*
G37*
G36*
G01X543000Y151090D02*
G02Y144910I3000J-3090D01*
G02Y151090I-3000J3090D01*
G37*
G36*
G01X770170Y136750D02*
G03X768830I-670J-770D01*
G02Y143250I-2830J3250D01*
G03X770170I670J770D01*
G02Y136750I2830J-3250D01*
G37*
G36*
G01X805000Y329000D02*
Y183000D01*
X801250Y179250D01*
X801210Y179100D01*
G02X799310Y176360I-4215J894D01*
G03Y174640I546J-860D01*
G02X792690Y170980I-2310J-3639D01*
G03X791670Y172000I-1020J0D01*
G01X749000D01*
X725000Y148000D01*
Y140000D01*
X719060Y134060D01*
X719350Y133710D01*
G02X712950Y127950I-3347J-2717D01*
G01X706000Y121000D01*
X692000D01*
X686000Y127000D01*
Y154000D01*
X660000Y180000D01*
Y229430D01*
G03X658600Y230380I-1020J3D01*
G02Y238380I-1600J4000D01*
G03X660000Y239330I380J947D01*
G01Y274670D01*
X659540Y274710D01*
G02Y283290I460J4290D01*
G01X660000Y283330D01*
Y456000D01*
X667000Y463000D01*
X679910D01*
G02X686510Y462500I3092J-3001D01*
G01X686540Y462460D01*
X693000Y456000D01*
Y380000D01*
X696000Y377000D01*
X746390D01*
X746480Y377030D01*
G02X749520I1520J-4030D01*
G01X749610Y377000D01*
X755000D01*
X761000Y371000D01*
Y358000D01*
X778000Y341000D01*
X793000D01*
X805000Y329000D01*
G37*
G36*
G01X266100Y4350D02*
X117900D01*
X108570Y13680D01*
G03X107090Y13640I-721J-718D01*
G02X90970Y16990I-7087J6358D01*
G03X89030I-970J-320D01*
G02X70970I-9030J3010D01*
G03X69030I-970J-320D01*
G02X50970I-9030J3010D01*
G03X49030I-970J-320D01*
G02X31460Y15800I-9029J3012D01*
G03X29520Y15350I-919J-444D01*
G01Y10480D01*
X10480D01*
Y29520D01*
X29520D01*
Y24650D01*
G03X31460Y24200I1021J-6D01*
G02X36990Y29030I8542J-4199D01*
G03Y30970I-320J970D01*
G02X49030Y43010I3010J9030D01*
G03X50970I970J320D01*
G02X64590Y48340I9031J-3010D01*
G01X68350Y52100D01*
Y67600D01*
G02X74000Y74090I2643J3403D01*
G02X77140Y66690I3002J-3093D01*
G03X76650Y66180I19J-509D01*
G01Y50280D01*
G03X77900Y49280I1022J-4D01*
G02X89030Y43010I2102J-9283D01*
G03X90970I970J320D01*
G02X105720Y47610I9031J-3010D01*
G03X107350Y48430I610J817D01*
G01Y59620D01*
X103000Y63970D01*
G03X101270Y63400I-722J-718D01*
G02X96400Y68270I-4270J600D01*
G03X96970Y70000I-148J1008D01*
G01X16350Y150620D01*
Y238900D01*
X13640Y241610D01*
G03X11900Y240890I-721J-721D01*
G01Y184840D01*
X11940Y184740D01*
G02X4060I-3940J-1740D01*
G01X4100Y184840D01*
Y286620D01*
X17100Y299620D01*
Y325650D01*
G03X15490Y326480I-1019J-1D01*
G02X13300Y334300I-2489J3520D01*
G01X13540Y334280D01*
X30720Y351460D01*
X30700Y351700D01*
G02X34700Y347700I4300J300D01*
G01X34460Y347720D01*
X30030Y343280D01*
G03X30230Y341690I724J-716D01*
G02X29560Y333980I-2229J-3690D01*
G01X29460Y333940D01*
X24900Y329380D01*
Y301110D01*
G03X26640Y300390I1019J1D01*
G01X37350Y311100D01*
Y322100D01*
X44900Y329650D01*
X56980D01*
Y434840D01*
X88980Y466840D01*
Y493090D01*
G03X87190Y493760I-1020J2D01*
G02X70970Y496990I-7189J6240D01*
G03X69030I-970J-320D01*
G02X50970I-9030J3010D01*
G03X49030I-970J-320D01*
G02X31460Y495800I-9029J3012D01*
G03X29520Y495350I-919J-444D01*
G01Y490480D01*
X10480D01*
Y509520D01*
X29520D01*
Y504650D01*
G03X31460Y504200I1021J-6D01*
G02X49030Y503010I8541J-4202D01*
G03X50970I970J320D01*
G02X69030I9030J-3010D01*
G03X70970I970J320D01*
G02X88040Y505100I9031J-3010D01*
G01X88190Y504860D01*
X88980D01*
Y505840D01*
X94170Y511020D01*
G03X94080Y512540I-723J720D01*
G02X109030Y523010I5918J7458D01*
G03X110970I970J320D01*
G02X129030I9030J-3010D01*
G03X130970I970J320D01*
G02X149030I9030J-3010D01*
G03X150970I970J320D01*
G02X169030I9030J-3010D01*
G03X170970I970J320D01*
G02X189030I9030J-3010D01*
G03X190970I970J320D01*
G02X209030I9030J-3010D01*
G03X210970I970J320D01*
G02X229030I9030J-3010D01*
G03X230970I970J320D01*
G02X243010Y510970I9030J-3010D01*
G03Y509030I320J-970D01*
G02X249030Y503010I-3010J-9030D01*
G03X250970I970J320D01*
G02X269030I9030J-3010D01*
G03X270970I970J320D01*
G02X289030I9030J-3010D01*
G03X290970I970J320D01*
G02X309030I9030J-3010D01*
G03X310970I970J320D01*
G02X316990Y509030I9030J-3010D01*
G03Y510970I-320J970D01*
G02X329030Y523010I3010J9030D01*
G03X330970I970J320D01*
G02X349030I9030J-3010D01*
G03X350970I970J320D01*
G02X369030I9030J-3010D01*
G03X370970I970J320D01*
G02X389030I9030J-3010D01*
G03X390970I970J320D01*
G02X409030I9030J-3010D01*
G03X410970I970J320D01*
G02X429030I9030J-3010D01*
G03X430970I970J320D01*
G02X448340Y515410I9032J-3007D01*
G01X452650Y511100D01*
Y508430D01*
G03X454280Y507610I1020J-3D01*
G02X469030Y503010I5719J-7610D01*
G03X470970I970J320D01*
G02X489030I9030J-3010D01*
G03X490970I970J320D01*
G02X509030I9030J-3010D01*
G03X510970I970J320D01*
G02X516990Y509030I9030J-3010D01*
G03Y510970I-320J970D01*
G02X529030Y523010I3010J9030D01*
G03X530970I970J320D01*
G02X549030I9030J-3010D01*
G03X550970I970J320D01*
G02X569030I9030J-3010D01*
G03X570970I970J320D01*
G02X589030I9030J-3010D01*
G03X590970I970J320D01*
G02X609030I9030J-3010D01*
G03X610970I970J320D01*
G02X629030I9030J-3010D01*
G03X630970I970J320D01*
G02X649030I9030J-3010D01*
G03X650970I970J320D01*
G02X669030I9030J-3010D01*
G03X670970I970J320D01*
G02X689030I9030J-3010D01*
G03X690970I970J320D01*
G02X709030I9030J-3010D01*
G03X710970I970J320D01*
G02X729030I9030J-3010D01*
G03X730970I970J320D01*
G02X749030I9030J-3010D01*
G03X750970I970J320D01*
G02X769030I9030J-3010D01*
G03X770970I970J320D01*
G02X789030I9030J-3010D01*
G03X790970I970J320D01*
G02X803010Y510970I9030J-3010D01*
G03Y509030I320J-970D01*
G02X790970Y496990I-3010J-9030D01*
G03X789030I-970J-320D01*
G02X770970I-9030J3010D01*
G03X769030I-970J-320D01*
G02X750970I-9030J3010D01*
G03X749030I-970J-320D01*
G02X730970I-9030J3010D01*
G03X729030I-970J-320D01*
G02X710970I-9030J3010D01*
G03X709030I-970J-320D01*
G02X690970I-9030J3010D01*
G03X689030I-970J-320D01*
G02X670970I-9030J3010D01*
G03X669030I-970J-320D01*
G02X650970I-9030J3010D01*
G03X649030I-970J-320D01*
G02X630970I-9030J3010D01*
G03X629030I-970J-320D01*
G02X610970I-9030J3010D01*
G03X609030I-970J-320D01*
G02X590970I-9030J3010D01*
G03X589030I-970J-320D01*
G02X570970I-9030J3010D01*
G03X569030I-970J-320D01*
G02X550970I-9030J3010D01*
G03X549030I-970J-320D01*
G02X530970I-9030J3010D01*
G03X529030I-970J-320D01*
G02X510970I-9030J3010D01*
G03X509030I-970J-320D01*
G02X490970I-9030J3010D01*
G03X489030I-970J-320D01*
G02X470970I-9030J3010D01*
G03X469030I-970J-320D01*
G02X454280Y492390I-9031J3010D01*
G03X452650Y491570I-610J-817D01*
G01Y408900D01*
X416650Y372900D01*
Y340100D01*
X420650Y336100D01*
X420930Y336170D01*
G02X420350Y328020I1073J-4172D01*
G03X419710Y327810I-200J-470D01*
G02X415780Y325700I-3708J2192D01*
G03X415250Y325270I-26J-510D01*
G02X409700Y321890I-4249J730D01*
G03X409070Y321570I-149J-486D01*
G02X402350Y326400I-4067J1431D01*
G01Y378100D01*
X438350Y414100D01*
Y425840D01*
G03X436690Y426630I-1019J-2D01*
G02X431150Y433230I-2686J3370D01*
G03Y434770I-672J770D01*
G02X430770Y435150I2850J3230D01*
G03X429230I-770J-672D01*
G02X422770I-3230J2850D01*
G03X421230I-770J-672D01*
G02X414770I-3230J2850D01*
G03X413230I-770J-672D01*
G02X406770I-3230J2850D01*
G03X405230I-770J-672D01*
G02X398770I-3230J2850D01*
G03X397230I-770J-672D01*
G02X390770I-3230J2850D01*
G03X389230I-770J-672D01*
G02X385220Y433760I-3233J2849D01*
G03X384020Y432760I-181J-1003D01*
G01Y425250D01*
X390020Y419250D01*
Y370240D01*
G03X391220Y369240I1019J3D01*
G02Y360760I780J-4240D01*
G03X390020Y359760I-181J-1003D01*
G01Y340410D01*
X390470Y340360D01*
G02X385700Y335850I-469J-4282D01*
G01X385690Y336040D01*
X384820Y336910D01*
X384300Y336390D01*
X384310Y336170D01*
G02X379780Y331700I-4306J-166D01*
G03X379250Y331270I-26J-510D01*
G02X371980Y335080I-4249J733D01*
G01Y339750D01*
X361980Y349750D01*
Y411750D01*
X360740Y412990D01*
X356650Y408900D01*
Y337570D01*
G03X357520Y337210I509J-2D01*
G01X358060Y337740D01*
X358090Y337820D01*
G02X363820Y332090I3910J-1820D01*
G01X363740Y332060D01*
X354670Y322980D01*
X329960D01*
G03X329010Y321590I-2J-1019D01*
G02X327850Y316770I-4008J-1585D01*
G03Y315230I672J-770D01*
G02X324700Y307700I-2852J-3231D01*
G01X324460Y307720D01*
X320100Y303350D01*
X259900D01*
X256540Y306720D01*
X256300Y306700D01*
G02X256410Y315290I-300J4300D01*
G03X257230Y317030I98J1017D01*
G01X249900Y324350D01*
X235400D01*
G02Y329650I-3400J2650D01*
G01X252100D01*
X268100Y313650D01*
X273200D01*
G03X273920Y315390I1J1019D01*
G01X237330Y351980D01*
X194430D01*
G03X193580Y350390I-1J-1022D01*
G02X192850Y344770I-3582J-2392D01*
G03Y343230I672J-770D01*
G02Y336770I-2850J-3230D01*
G03Y335230I672J-770D01*
G02X193230Y334850I-2850J-3230D01*
G03X194770I770J672D01*
G02Y329150I3230J-2850D01*
G03X193230I-770J-672D01*
G02X186770I-3230J2850D01*
G03X185230I-770J-672D01*
G02X182030Y327690I-3233J2849D01*
G03X181020Y326670I10J-1020D01*
G01Y300160D01*
X160020Y279160D01*
Y208960D01*
G03X161410Y208010I1019J-2D01*
G02X166000Y207090I1584J-4009D01*
G02X172000I3000J-3090D01*
G02X178000I3000J-3090D01*
G02X179570Y208070I3014J-3081D01*
G03X179890Y208700I-166J481D01*
G02X180910Y213000I4110J1296D01*
G02Y219000I3090J3000D01*
G02X187000Y225090I3090J3000D01*
G02X193000I3000J-3090D01*
G02X199090Y219000I3000J-3090D01*
G02Y213000I-3090J-3000D01*
G02X197430Y205930I-3091J-3004D01*
G03X197110Y205300I166J-481D01*
G02Y202700I-4110J-1300D01*
G03X197430Y202070I486J-149D01*
G02X193000Y194910I-1429J-4067D01*
G02X187000I-3000J3090D01*
G02X181000I-3000J3090D01*
G02X175000I-3000J3090D01*
G02X167890Y199300I-3001J3093D01*
G03X167570Y199930I-486J149D01*
G02X166000Y200910I1444J4061D01*
G02X161410Y199990I-3006J3089D01*
G03X160020Y199040I-371J-948D01*
G01Y95160D01*
X154250Y89390D01*
G03X154970Y87650I720J-721D01*
G01X255900D01*
X341900Y173650D01*
X416100D01*
X435460Y154280D01*
X435700Y154300D01*
G02X438190Y146290I299J-4299D01*
G03X437980Y145650I260J-440D01*
G02X429700Y144300I-3981J-1651D01*
G01X429720Y144540D01*
X408900Y165350D01*
X362160D01*
G03X361170Y164080I0J-1021D01*
G02X361250Y163730I-4158J-1134D01*
G03X361780Y163300I504J80D01*
G02X358600Y156350I220J-4303D01*
G01X344100D01*
X291650Y103900D01*
Y81980D01*
G02X290140Y73690I-1650J-3982D01*
G03X289650Y73180I19J-509D01*
G01Y62900D01*
X277920Y51170D01*
G03X278770Y49440I723J-719D01*
G02X289030Y43010I1229J-9440D01*
G03X290970I970J320D01*
G02X309030I9030J-3010D01*
G03X310970I970J320D01*
G02X329030I9030J-3010D01*
G03X330970I970J320D01*
G02X349030I9030J-3010D01*
G03X350970I970J320D01*
G02X369030I9030J-3010D01*
G03X370970I970J320D01*
G02X389030I9030J-3010D01*
G03X390970I970J320D01*
G02X409030I9030J-3010D01*
G03X410970I970J320D01*
G02X429030I9030J-3010D01*
G03X430970I970J320D01*
G02X449030I9030J-3010D01*
G03X450970I970J320D01*
G02X469030I9030J-3010D01*
G03X470970I970J320D01*
G02X489030I9030J-3010D01*
G03X490970I970J320D01*
G02X503010Y30970I9030J-3010D01*
G03Y29030I320J-970D01*
G02X509030Y23010I-3010J-9030D01*
G03X510970I970J320D01*
G02X529030I9030J-3010D01*
G03X530970I970J320D01*
G02X536990Y29030I9030J-3010D01*
G03Y30970I-320J970D01*
G02X549030Y43010I3010J9030D01*
G03X550970I970J320D01*
G02X569030I9030J-3010D01*
G03X570970I970J320D01*
G02X577350Y49140I9029J-3012D01*
G01Y49900D01*
X512350Y114920D01*
Y151210D01*
G03X510880Y152120I-1019J-4D01*
G02X506350Y159400I-1883J3878D01*
G01Y186600D01*
G02X505800Y192880I2651J3396D01*
G03X505610Y194420I-757J688D01*
G02X505150Y201230I2392J3582D01*
G03Y202770I-672J770D01*
G02X508220Y210300I2853J3228D01*
G03X508750Y210730I26J510D01*
G02X510810Y213710I4247J-734D01*
G03X511020Y214350I-260J440D01*
G02X518480Y213460I3980J1651D01*
G01X518380Y213330D01*
Y212650D01*
X519100D01*
X533650Y198100D01*
Y158900D01*
X528780Y154030D01*
G03X529400Y152290I717J-725D01*
G02X527920Y143830I-392J-4291D01*
G03X526650Y142840I-249J-990D01*
G01Y120100D01*
X594110Y52650D01*
X606100D01*
X611920Y46830D01*
G03X613350Y46820I720J719D01*
G02X629030Y43010I6646J-6818D01*
G03X630970I970J320D01*
G02X649030I9030J-3010D01*
G03X650970I970J320D01*
G02X669030I9030J-3010D01*
G03X670970I970J320D01*
G02X689030I9030J-3010D01*
G03X690970I970J320D01*
G02X709030I9030J-3010D01*
G03X710970I970J320D01*
G02X729030I9030J-3010D01*
G03X730970I970J320D01*
G02X749030I9030J-3010D01*
G03X750970I970J320D01*
G02X769030I9030J-3010D01*
G03X770970I970J320D01*
G02X783010Y30970I9030J-3010D01*
G03Y29030I320J-970D01*
G02X789030Y23010I-3010J-9030D01*
G03X790970I970J320D01*
G02Y16990I9030J-3010D01*
G03X789030I-970J-320D01*
G02X770970I-9030J3010D01*
G03X769030I-970J-320D01*
G02X750970I-9030J3010D01*
G03X749030I-970J-320D01*
G02X730970I-9030J3010D01*
G03X729030I-970J-320D01*
G02X710970I-9030J3010D01*
G03X709030I-970J-320D01*
G02X690970I-9030J3010D01*
G03X689030I-970J-320D01*
G02X670970I-9030J3010D01*
G03X669030I-970J-320D01*
G02X650970I-9030J3010D01*
G03X649030I-970J-320D01*
G02X630970I-9030J3010D01*
G03X629030I-970J-320D01*
G02X610970I-9030J3010D01*
G03X609030I-970J-320D01*
G02X590970I-9030J3010D01*
G03X589030I-970J-320D01*
G02X570970I-9030J3010D01*
G03X569030I-970J-320D01*
G02X550970I-9030J3010D01*
G03X549030I-970J-320D01*
G02X530970I-9030J3010D01*
G03X529030I-970J-320D01*
G02X510970I-9030J3010D01*
G03X509030I-970J-320D01*
G02X490970I-9030J3010D01*
G03X489030I-970J-320D01*
G02X470970I-9030J3010D01*
G03X469030I-970J-320D01*
G02X450970I-9030J3010D01*
G03X449030I-970J-320D01*
G02X430970I-9030J3010D01*
G03X429030I-970J-320D01*
G02X410970I-9030J3010D01*
G03X409030I-970J-320D01*
G02X390970I-9030J3010D01*
G03X389030I-970J-320D01*
G02X370970I-9030J3010D01*
G03X369030I-970J-320D01*
G02X350970I-9030J3010D01*
G03X349030I-970J-320D01*
G02X330970I-9030J3010D01*
G03X329030I-970J-320D01*
G02X310970I-9030J3010D01*
G03X309030I-970J-320D01*
G02X290970I-9030J3010D01*
G03X289030I-970J-320D01*
G02X275730Y11490I-9032J3009D01*
G01X275400Y11660D01*
X275100Y11350D01*
X273100D01*
X266100Y4350D01*
G37*
G54D19*
X24000Y64000D03*
X51000D03*
X256000Y263000D03*
X292000Y55000D03*
X297000Y227000D03*
X299000Y246000D03*
X298000Y294000D03*
X324000Y290000D03*
X298000Y282000D03*
X370000Y120000D03*
X398000D03*
X458000D03*
X426000D03*
X454000Y143920D03*
X478000Y120000D03*
X438000Y336000D03*
X474000D03*
X494000Y120000D03*
X516000Y242000D03*
Y290000D03*
Y322000D03*
X516080Y270000D03*
X636000Y96000D03*
X638000Y144000D03*
X640000Y261500D03*
X638000Y292000D03*
X584000Y380000D03*
X644000Y381000D03*
X647000Y118000D03*
X672000D03*
X660000D03*
Y131000D03*
X680000Y140000D03*
X732000Y131000D03*
X799000Y345000D03*
%LPD*%
G75*
G36*
G01X49030Y23010D02*
G03X43010Y29030I-9030J-3010D01*
G02Y30970I320J970D01*
G03X49030Y36990I-3010J9030D01*
G02X50970I970J-320D01*
G03X56990Y30970I9030J3010D01*
G02Y29030I-320J-970D01*
G03X50970Y23010I3010J-9030D01*
G02X49030I-970J320D01*
G37*
G36*
G01X90980Y121430D02*
G02X89390Y120580I-1022J-1D01*
G03X85260Y120940I-2393J-3581D01*
G01X85160Y120900D01*
X81840D01*
X81740Y120940D01*
G03X78260I-1740J-3940D01*
G01X78160Y120900D01*
X74620D01*
X42400Y153120D01*
X39100D01*
X38360Y153860D01*
Y157160D01*
X34900Y160620D01*
Y193650D01*
G02X36510Y194480I1019J-1D01*
G03X42000Y194910I2486J3520D01*
G03X48000I3000J3090D01*
G03X54000I3000J3090D01*
G03X60090Y201000I3000J3090D01*
G03X54000Y207090I-3090J3000D01*
G03X48000I-3000J-3090D01*
G03X42000I-3000J-3090D01*
G03X36510Y207520I-3004J-3090D01*
G02X34900Y208350I-591J831D01*
G01Y212380D01*
X40900Y218380D01*
Y236780D01*
G02X42640Y237500I1019J0D01*
G01X60160Y219980D01*
X83160D01*
X90980Y212160D01*
Y121430D01*
G37*
G36*
G01X27650Y218630D02*
Y238370D01*
G02X29390Y239090I1019J1D01*
G01X33100Y235380D01*
Y221620D01*
X29390Y217910D01*
G02X27650Y218630I-721J719D01*
G37*
G36*
G01X34000Y273090D02*
G03X31230Y274300I-3000J-3092D01*
G02X30560Y276040I51J1019D01*
G01X45500Y290980D01*
X46940Y289540D01*
X46980Y289440D01*
G03X52560Y295020I4020J1560D01*
G01X52460Y295060D01*
X47620Y299900D01*
X46840D01*
X46740Y299940D01*
G03X44590Y300290I-1745J-3940D01*
G02X43770Y302030I-98J1017D01*
G01X49100Y307350D01*
X50600D01*
G03X55590Y305990I3402J2648D01*
G02X56980Y305040I371J-948D01*
G01Y275240D01*
G02X55780Y274240I-1019J3D01*
G03X52000Y273090I-775J-4239D01*
G03X46000I-3000J-3090D01*
G03X40000I-3000J-3090D01*
G03X34000I-3000J-3090D01*
G37*
G36*
G01X114000Y89000D02*
X93000Y110000D01*
Y213000D01*
X84000Y222000D01*
X61000D01*
X49170Y233830D01*
X49130Y233980D01*
G03X45820Y237290I-4210J-900D01*
G01X45670Y237330D01*
X32000Y251000D01*
Y257000D01*
X35000Y260000D01*
X35390D01*
X35480Y259970D01*
G03X38520I1520J4030D01*
G01X38610Y260000D01*
X41390D01*
X41480Y259970D01*
G03X44520I1520J4030D01*
G01X44610Y260000D01*
X47390D01*
X47480Y259970D01*
G03X53210Y263100I1518J4031D01*
G01X53250Y263250D01*
X55750Y265750D01*
X55900Y265790D01*
G03X59030Y271520I-901J4212D01*
G01X59000Y271610D01*
Y321250D01*
X59100Y321350D01*
X81900D01*
X89900Y313350D01*
X91600D01*
G03X95830Y320230I3399J2650D01*
G02X95070Y321570I199J999D01*
G03X90700Y327300I-4068J1429D01*
G01X90460Y327280D01*
X88100Y329650D01*
X59000D01*
Y335910D01*
G03Y342090I-3000J3090D01*
G01Y434000D01*
X91000Y466000D01*
Y505000D01*
X96000Y510000D01*
X125000D01*
X130000Y505000D01*
Y477000D01*
X141050Y465950D01*
G02X140840Y464350I-723J-719D01*
G03X146730Y458460I2160J-3730D01*
G02X148330Y458670I881J-513D01*
G01X156000Y451000D01*
X196790D01*
X196910Y450650D01*
G03X201580Y447730I4092J1350D01*
G02X202730Y446580I139J-1011D01*
G03X206700Y441700I4271J-581D01*
G03X211300Y446300I4300J300D01*
G03X209870Y449220I-4301J-296D01*
G02X210540Y451000I677J761D01*
G01X263000D01*
X294000Y482000D01*
X317000D01*
X318000Y481000D01*
Y464000D01*
X269000Y415000D01*
X200000D01*
X179000Y394000D01*
Y367540D01*
G02X177220Y366870I-1019J7D01*
G03X170420Y361610I-3213J-2871D01*
G02X169570Y360020I-849J-568D01*
G01X162430D01*
G02X161580Y361610I-1J1022D01*
G03X154770Y366850I-3581J2391D01*
G02X153230I-770J672D01*
G03X145950Y362530I-3229J-2853D01*
G01X145980Y362440D01*
Y359560D01*
X145950Y359470D01*
G03X148180Y354090I4051J-1473D01*
G01X148260Y354060D01*
X150330Y351980D01*
X179000D01*
Y351100D01*
X178860Y350950D01*
G03X179000Y344910I3141J-2949D01*
G01Y343090D01*
G03Y336910I3000J-3090D01*
G01Y335090D01*
G03X178770Y334850I2993J-3099D01*
G02X177230I-770J672D01*
G03X170770I-3230J-2850D01*
G02X169230I-770J672D01*
G03Y329150I-3230J-2850D01*
G02X170770I770J-672D01*
G03X177230I3230J2850D01*
G02X178770I770J-672D01*
G03X179000Y328910I3223J2859D01*
G01Y301000D01*
X158000Y280000D01*
Y96000D01*
X151000Y89000D01*
X114000D01*
G37*
G36*
G01X52860Y322610D02*
X44390Y314140D01*
G02X42650Y314860I-721J721D01*
G01Y319900D01*
X47100Y324350D01*
X52140D01*
G02X52860Y322610I-1J-1019D01*
G37*
G36*
G01X89030Y23010D02*
G03X83010Y29030I-9030J-3010D01*
G02Y30970I320J970D01*
G03X89030Y36990I-3010J9030D01*
G02X90970I970J-320D01*
G03X96990Y30970I9030J3010D01*
G02Y29030I-320J-970D01*
G03X90970Y23010I3010J-9030D01*
G02X89030I-970J320D01*
G37*
G36*
G01X96100Y87650D02*
X72390Y111360D01*
G02X73110Y113100I721J721D01*
G01X78160D01*
X78260Y113060D01*
G03X81740I1740J3940D01*
G01X81840Y113100D01*
X85160D01*
X85260Y113060D01*
G03X89390Y113420I1737J3941D01*
G02X90980Y112570I568J-849D01*
G01Y109160D01*
X110750Y89390D01*
G02X110030Y87650I-720J-721D01*
G01X96100D01*
G37*
G36*
G01X131910Y46810D02*
X98110Y80610D01*
G02X98830Y82350I721J721D01*
G01X151680D01*
G02X152700Y81270I1J-1020D01*
G03X160400Y78350I4301J-270D01*
G01X258100D01*
X281610Y101860D01*
G02X283350Y101140I721J-721D01*
G01Y82280D01*
X282960Y82180D01*
G03X281350Y74600I1040J-4182D01*
G01Y66100D01*
X267900Y52650D01*
X148900D01*
X144600Y48340D01*
X144270Y48510D01*
G03X133340Y46800I-4267J-8510D01*
G02X131910Y46810I-710J732D01*
G37*
G36*
G01X114390Y56830D02*
X119990Y51240D01*
G02X119340Y49500I-722J-722D01*
G03X114280Y47610I665J-9498D01*
G02X112650Y48430I-610J817D01*
G01Y56110D01*
G02X114390Y56830I1019J-1D01*
G37*
G36*
G01X156840Y453020D02*
X132020Y477840D01*
Y492090D01*
G02X133710Y492850I1019J-6D01*
G03X149030Y496990I6288J7149D01*
G02X150970I970J-320D01*
G03X165720Y492390I9031J3010D01*
G02X167350Y491570I610J-817D01*
G01Y489100D01*
X165540Y487280D01*
X165300Y487300D01*
G03X162350Y479600I-301J-4300D01*
G01Y468600D01*
X159540Y465780D01*
X159300Y465800D01*
G03X163300Y461800I-300J-4300D01*
G01X163280Y462040D01*
X167650Y466400D01*
Y479600D01*
G03X169300Y483300I-2650J3400D01*
G01X169280Y483540D01*
X172650Y486900D01*
Y491570D01*
G02X174280Y492390I1020J3D01*
G03X189030Y496990I5719J7610D01*
G02X190970I970J-320D01*
G03X209030I9030J3010D01*
G02X210970I970J-320D01*
G03X229030I9030J3010D01*
G02X230970I970J-320D01*
G03X249030I9030J3010D01*
G02X250970I970J-320D01*
G03X269030I9030J3010D01*
G02X270970I970J-320D01*
G03X289030I9030J3010D01*
G02X290970I970J-320D01*
G03X309030I9030J3010D01*
G02X310970I970J-320D01*
G03X317950Y490700I9033J3006D01*
G01X318350Y490620D01*
Y484020D01*
X293160D01*
X262160Y453020D01*
X156840D01*
G37*
G36*
G01X132960Y506410D02*
G02X131480Y506370I-759J683D01*
G01X126370Y511480D01*
G02X126410Y512960I723J721D01*
G03X129030Y516990I-6413J7036D01*
G02X130970I970J-320D01*
G03X136990Y510970I9030J3010D01*
G02Y509030I-320J-970D01*
G03X132960Y506410I3006J-9033D01*
G37*
G36*
G01X149030Y503010D02*
G03X143010Y509030I-9030J-3010D01*
G02Y510970I320J970D01*
G03X149030Y516990I-3010J9030D01*
G02X150970I970J-320D01*
G03X156990Y510970I9030J3010D01*
G02Y509030I-320J-970D01*
G03X150970Y503010I3010J-9030D01*
G02X149030I-970J320D01*
G37*
G36*
G01X279670Y321020D02*
X240670Y360020D01*
X181020D01*
Y393160D01*
X200840Y412980D01*
X269840D01*
X316610Y459750D01*
G02X318350Y459030I721J-720D01*
G01Y447100D01*
X315030Y443780D01*
G02X313290Y444400I-725J717D01*
G03X308600Y439710I-4290J-400D01*
G02X309220Y437970I-97J-1015D01*
G01X290350Y419100D01*
Y328900D01*
X294720Y324540D01*
X294700Y324300D01*
G03X294990Y322410I4300J-307D01*
G02X294040Y321020I-948J-371D01*
G01X279670D01*
G37*
G36*
G01X209030Y503010D02*
G03X203010Y509030I-9030J-3010D01*
G02Y510970I320J970D01*
G03X209030Y516990I-3010J9030D01*
G02X210970I970J-320D01*
G03X216990Y510970I9030J3010D01*
G02Y509030I-320J-970D01*
G03X210970Y503010I3010J-9030D01*
G02X209030I-970J320D01*
G37*
G36*
G01X189030D02*
G03X183010Y509030I-9030J-3010D01*
G02Y510970I320J970D01*
G03X189030Y516990I-3010J9030D01*
G02X190970I970J-320D01*
G03X196990Y510970I9030J3010D01*
G02Y509030I-320J-970D01*
G03X190970Y503010I3010J-9030D01*
G02X189030I-970J320D01*
G37*
G36*
G01X229030D02*
G03X223010Y509030I-9030J-3010D01*
G02Y510970I320J970D01*
G03X229030Y516990I-3010J9030D01*
G02X230970I970J-320D01*
G03X236990Y510970I9030J3010D01*
G02Y509030I-320J-970D01*
G03X230970Y503010I3010J-9030D01*
G02X229030I-970J320D01*
G37*
G36*
G01X309030Y23010D02*
G03X303010Y29030I-9030J-3010D01*
G02Y30970I320J970D01*
G03X309030Y36990I-3010J9030D01*
G02X310970I970J-320D01*
G03X316990Y30970I9030J3010D01*
G02Y29030I-320J-970D01*
G03X310970Y23010I3010J-9030D01*
G02X309030I-970J320D01*
G37*
G36*
G01X289030D02*
G03X283010Y29030I-9030J-3010D01*
G02Y30970I320J970D01*
G03X289030Y36990I-3010J9030D01*
G02X290970I970J-320D01*
G03X296990Y30970I9030J3010D01*
G02Y29030I-320J-970D01*
G03X290970Y23010I3010J-9030D01*
G02X289030I-970J320D01*
G37*
G36*
G01X303960Y321020D02*
G02X303010Y322410I-2J1019D01*
G03X302980Y325650I-4010J1583D01*
G02X303190Y326290I470J200D01*
G03X300700Y334300I-2191J3711D01*
G01X300460Y334280D01*
X298650Y336100D01*
Y415900D01*
X300610Y417860D01*
G02X302350Y417140I721J-721D01*
G01Y371900D01*
X315720Y358540D01*
X315700Y358300D01*
G03X324300Y358220I4297J-311D01*
G02X324730Y358750I510J26D01*
G03X324510Y367280I-727J4249D01*
G02X323750Y368790I128J1011D01*
G03X319760Y375220I-3748J2127D01*
G01X319540Y375210D01*
X317650Y377100D01*
Y401900D01*
X340650Y424900D01*
Y472900D01*
X358370Y490620D01*
X358620Y490580D01*
G03X359770Y490480I1398J9418D01*
G02X360470Y488740I-20J-1019D01*
G01X351980Y480250D01*
Y420250D01*
X339980Y408250D01*
Y337560D01*
X339950Y337470D01*
G03X341120Y332800I4050J-1467D01*
G02X340430Y331020I-684J-759D01*
G01X317330D01*
X307330Y321020D01*
X303960D01*
G37*
G36*
G01X315190Y370550D02*
X310650Y375100D01*
Y399900D01*
X311480Y400730D01*
G02X312350Y400370I361J-360D01*
G01Y374900D01*
X315730Y371530D01*
X315710Y371290D01*
G03X315700Y371240I4191J-864D01*
G01X315690Y371050D01*
X315190Y370550D01*
G37*
G36*
G01X307650Y406860D02*
Y420900D01*
X325610Y438860D01*
G02X327350Y438140I721J-721D01*
G01Y424100D01*
X309390Y406140D01*
G02X307650Y406860I-721J721D01*
G37*
G36*
G01X369030Y23010D02*
G03X363010Y29030I-9030J-3010D01*
G02Y30970I320J970D01*
G03X369030Y36990I-3010J9030D01*
G02X370970I970J-320D01*
G03X376990Y30970I9030J3010D01*
G02Y29030I-320J-970D01*
G03X370970Y23010I3010J-9030D01*
G02X369030I-970J320D01*
G37*
G36*
G01X349030D02*
G03X343010Y29030I-9030J-3010D01*
G02Y30970I320J970D01*
G03X349030Y36990I-3010J9030D01*
G02X350970I970J-320D01*
G03X356990Y30970I9030J3010D01*
G02Y29030I-320J-970D01*
G03X350970Y23010I3010J-9030D01*
G02X349030I-970J320D01*
G37*
G36*
G01X329030D02*
G03X323010Y29030I-9030J-3010D01*
G02Y30970I320J970D01*
G03X329030Y36990I-3010J9030D01*
G02X330970I970J-320D01*
G03X336990Y30970I9030J3010D01*
G02Y29030I-320J-970D01*
G03X330970Y23010I3010J-9030D01*
G02X329030I-970J320D01*
G37*
G36*
G01X347230Y338850D02*
G03X346020Y339810I-3240J-2842D01*
G01Y405750D01*
X349610Y409340D01*
G02X351350Y408620I720J-723D01*
G01Y340280D01*
X350960Y340180D01*
G03X348770Y338850I1040J-4181D01*
G02X347230I-770J672D01*
G37*
G36*
G01X371590Y368010D02*
G03X369220Y368240I-1585J-4010D01*
G02X368020Y369240I-181J1003D01*
G01Y414250D01*
X366020Y416250D01*
Y421250D01*
G02X367760Y421970I1020J-3D01*
G01X375980Y413750D01*
Y393250D01*
X372980Y390250D01*
Y368960D01*
G02X371590Y368010I-1019J-2D01*
G37*
G36*
G01X376110Y344160D02*
X368020Y352250D01*
Y358760D01*
G02X369220Y359760I1019J-3D01*
G03X371590Y359990I785J4240D01*
G02X372980Y359040I371J-948D01*
G01Y349750D01*
X376980Y345750D01*
Y344520D01*
G02X376110Y344160I-510J2D01*
G37*
G36*
G01X382240Y349030D02*
X379020Y352250D01*
Y387750D01*
X382020Y390750D01*
Y416250D01*
X370020Y428250D01*
Y472750D01*
X379250Y481980D01*
X387250D01*
X396440Y491170D01*
X396740Y491050D01*
G03X400700Y490510I3238J8953D01*
G02X401500Y488770I77J-1019D01*
G01X377980Y465250D01*
Y422750D01*
X383980Y416750D01*
Y349750D01*
G02X382240Y349030I-1020J3D01*
G37*
G36*
G01X332650Y426860D02*
Y470900D01*
X333610Y471860D01*
G02X335350Y471140I721J-721D01*
G01Y427100D01*
X334390Y426140D01*
G02X332650Y426860I-721J721D01*
G37*
G36*
G01X323650Y479860D02*
Y491200D01*
X323950Y491340D01*
G03X325720Y492390I-3943J8664D01*
G02X327350Y491570I610J-817D01*
G01Y481100D01*
X325390Y479140D01*
G02X323650Y479860I-721J721D01*
G37*
G36*
G01X429030Y23010D02*
G03X423010Y29030I-9030J-3010D01*
G02Y30970I320J970D01*
G03X429030Y36990I-3010J9030D01*
G02X430970I970J-320D01*
G03X436990Y30970I9030J3010D01*
G02Y29030I-320J-970D01*
G03X430970Y23010I3010J-9030D01*
G02X429030I-970J320D01*
G37*
G36*
G01X409030D02*
G03X403010Y29030I-9030J-3010D01*
G02Y30970I320J970D01*
G03X409030Y36990I-3010J9030D01*
G02X410970I970J-320D01*
G03X416990Y30970I9030J3010D01*
G02Y29030I-320J-970D01*
G03X410970Y23010I3010J-9030D01*
G02X409030I-970J320D01*
G37*
G36*
G01X389030D02*
G03X383010Y29030I-9030J-3010D01*
G02Y30970I320J970D01*
G03X389030Y36990I-3010J9030D01*
G02X390970I970J-320D01*
G03X396990Y30970I9030J3010D01*
G02Y29030I-320J-970D01*
G03X390970Y23010I3010J-9030D01*
G02X389030I-970J320D01*
G37*
G36*
G01X390770Y440850D02*
G02X389230I-770J672D01*
G03X385220Y442240I-3233J-2849D01*
G02X384020Y443240I-181J1003D01*
G01Y462750D01*
X413020Y491750D01*
Y492850D01*
X413720D01*
X413860Y492730D01*
G03X424590Y491660I6143J7271D01*
G01X438350Y477900D01*
Y450160D01*
G02X436690Y449370I-1019J2D01*
G03X430770Y448850I-2687J-3370D01*
G02X429230I-770J672D01*
G03X422770I-3230J-2850D01*
G02X421230I-770J672D01*
G03X414770I-3230J-2850D01*
G02X413230I-770J672D01*
G03X406770I-3230J-2850D01*
G02X405230I-770J672D01*
G03X398770I-3230J-2850D01*
G02X397230I-770J672D01*
G03X391150Y442770I-3230J-2850D01*
G02Y441230I-672J-770D01*
G03X390770Y440850I2850J-3230D01*
G37*
G36*
G01X469030Y23010D02*
G03X463010Y29030I-9030J-3010D01*
G02Y30970I320J970D01*
G03X469030Y36990I-3010J9030D01*
G02X470970I970J-320D01*
G03X476990Y30970I9030J3010D01*
G02Y29030I-320J-970D01*
G03X470970Y23010I3010J-9030D01*
G02X469030I-970J320D01*
G37*
G36*
G01X449030D02*
G03X443010Y29030I-9030J-3010D01*
G02Y30970I320J970D01*
G03X449030Y36990I-3010J9030D01*
G02X450970I970J-320D01*
G03X456990Y30970I9030J3010D01*
G02Y29030I-320J-970D01*
G03X450970Y23010I3010J-9030D01*
G02X449030I-970J320D01*
G37*
G36*
G01X489030D02*
G03X483010Y29030I-9030J-3010D01*
G02Y30970I320J970D01*
G03X489030Y36990I-3010J9030D01*
G02X490970I970J-320D01*
G03X496990Y30970I9030J3010D01*
G02Y29030I-320J-970D01*
G03X490970Y23010I3010J-9030D01*
G02X489030I-970J320D01*
G37*
G36*
G01X513870Y158620D02*
G02X512360Y158700I-719J722D01*
G03X511650Y159400I-3361J-2699D01*
G01Y165840D01*
G02X513310Y166630I1019J-2D01*
G03X517880Y166120I2689J3369D01*
G02X519350Y165210I451J-914D01*
G01Y164100D01*
X513870Y158620D01*
G37*
G36*
G01X511650Y174160D02*
Y186600D01*
G03X511390Y193580I-2651J3396D01*
G02X511200Y195120I567J852D01*
G03X511400Y195350I-3148J2940D01*
G01X516900D01*
X519350Y192900D01*
Y174790D01*
G02X517880Y173880I-1019J4D01*
G03X513310Y173370I-1881J-3879D01*
G02X511650Y174160I-641J792D01*
G37*
G36*
G01X529030Y503010D02*
G03X523010Y509030I-9030J-3010D01*
G02Y510970I320J970D01*
G03X529030Y516990I-3010J9030D01*
G02X530970I970J-320D01*
G03X536990Y510970I9030J3010D01*
G02Y509030I-320J-970D01*
G03X530970Y503010I3010J-9030D01*
G02X529030I-970J320D01*
G37*
G36*
G01X569030Y23010D02*
G03X563010Y29030I-9030J-3010D01*
G02Y30970I320J970D01*
G03X569030Y36990I-3010J9030D01*
G02X570970I970J-320D01*
G03X576990Y30970I9030J3010D01*
G02Y29030I-320J-970D01*
G03X570970Y23010I3010J-9030D01*
G02X569030I-970J320D01*
G37*
G36*
G01X549030D02*
G03X543010Y29030I-9030J-3010D01*
G02Y30970I320J970D01*
G03X549030Y36990I-3010J9030D01*
G02X550970I970J-320D01*
G03X556990Y30970I9030J3010D01*
G02Y29030I-320J-970D01*
G03X550970Y23010I3010J-9030D01*
G02X549030I-970J320D01*
G37*
G36*
G01X589030Y503010D02*
G03X583010Y509030I-9030J-3010D01*
G02Y510970I320J970D01*
G03X589030Y516990I-3010J9030D01*
G02X590970I970J-320D01*
G03X596990Y510970I9030J3010D01*
G02Y509030I-320J-970D01*
G03X590970Y503010I3010J-9030D01*
G02X589030I-970J320D01*
G37*
G36*
G01X569030D02*
G03X563010Y509030I-9030J-3010D01*
G02Y510970I320J970D01*
G03X569030Y516990I-3010J9030D01*
G02X570970I970J-320D01*
G03X576990Y510970I9030J3010D01*
G02Y509030I-320J-970D01*
G03X570970Y503010I3010J-9030D01*
G02X569030I-970J320D01*
G37*
G36*
G01X549030D02*
G03X543010Y509030I-9030J-3010D01*
G02Y510970I320J970D01*
G03X549030Y516990I-3010J9030D01*
G02X550970I970J-320D01*
G03X556990Y510970I9030J3010D01*
G02Y509030I-320J-970D01*
G03X550970Y503010I3010J-9030D01*
G02X549030I-970J320D01*
G37*
G36*
G01X649030Y23010D02*
G03X643010Y29030I-9030J-3010D01*
G02Y30970I320J970D01*
G03X649030Y36990I-3010J9030D01*
G02X650970I970J-320D01*
G03X656990Y30970I9030J3010D01*
G02Y29030I-320J-970D01*
G03X650970Y23010I3010J-9030D01*
G02X649030I-970J320D01*
G37*
G36*
G01X629030D02*
G03X623010Y29030I-9030J-3010D01*
G02Y30970I320J970D01*
G03X629030Y36990I-3010J9030D01*
G02X630970I970J-320D01*
G03X636990Y30970I9030J3010D01*
G02Y29030I-320J-970D01*
G03X630970Y23010I3010J-9030D01*
G02X629030I-970J320D01*
G37*
G36*
G01X649030Y503010D02*
G03X643010Y509030I-9030J-3010D01*
G02Y510970I320J970D01*
G03X649030Y516990I-3010J9030D01*
G02X650970I970J-320D01*
G03X656990Y510970I9030J3010D01*
G02Y509030I-320J-970D01*
G03X650970Y503010I3010J-9030D01*
G02X649030I-970J320D01*
G37*
G36*
G01X629030D02*
G03X623010Y509030I-9030J-3010D01*
G02Y510970I320J970D01*
G03X629030Y516990I-3010J9030D01*
G02X630970I970J-320D01*
G03X636990Y510970I9030J3010D01*
G02Y509030I-320J-970D01*
G03X630970Y503010I3010J-9030D01*
G02X629030I-970J320D01*
G37*
G36*
G01X609030D02*
G03X603010Y509030I-9030J-3010D01*
G02Y510970I320J970D01*
G03X609030Y516990I-3010J9030D01*
G02X610970I970J-320D01*
G03X616990Y510970I9030J3010D01*
G02Y509030I-320J-970D01*
G03X610970Y503010I3010J-9030D01*
G02X609030I-970J320D01*
G37*
G36*
G01X689030Y23010D02*
G03X683010Y29030I-9030J-3010D01*
G02Y30970I320J970D01*
G03X689030Y36990I-3010J9030D01*
G02X690970I970J-320D01*
G03X696990Y30970I9030J3010D01*
G02Y29030I-320J-970D01*
G03X690970Y23010I3010J-9030D01*
G02X689030I-970J320D01*
G37*
G36*
G01X669030D02*
G03X663010Y29030I-9030J-3010D01*
G02Y30970I320J970D01*
G03X669030Y36990I-3010J9030D01*
G02X670970I970J-320D01*
G03X676990Y30970I9030J3010D01*
G02Y29030I-320J-970D01*
G03X670970Y23010I3010J-9030D01*
G02X669030I-970J320D01*
G37*
G36*
G01X689030Y503010D02*
G03X683010Y509030I-9030J-3010D01*
G02Y510970I320J970D01*
G03X689030Y516990I-3010J9030D01*
G02X690970I970J-320D01*
G03X696990Y510970I9030J3010D01*
G02Y509030I-320J-970D01*
G03X690970Y503010I3010J-9030D01*
G02X689030I-970J320D01*
G37*
G36*
G01X669030D02*
G03X663010Y509030I-9030J-3010D01*
G02Y510970I320J970D01*
G03X669030Y516990I-3010J9030D01*
G02X670970I970J-320D01*
G03X676990Y510970I9030J3010D01*
G02Y509030I-320J-970D01*
G03X670970Y503010I3010J-9030D01*
G02X669030I-970J320D01*
G37*
G36*
G01X749030Y23010D02*
G03X743010Y29030I-9030J-3010D01*
G02Y30970I320J970D01*
G03X749030Y36990I-3010J9030D01*
G02X750970I970J-320D01*
G03X756990Y30970I9030J3010D01*
G02Y29030I-320J-970D01*
G03X750970Y23010I3010J-9030D01*
G02X749030I-970J320D01*
G37*
G36*
G01X729030D02*
G03X723010Y29030I-9030J-3010D01*
G02Y30970I320J970D01*
G03X729030Y36990I-3010J9030D01*
G02X730970I970J-320D01*
G03X736990Y30970I9030J3010D01*
G02Y29030I-320J-970D01*
G03X730970Y23010I3010J-9030D01*
G02X729030I-970J320D01*
G37*
G36*
G01X709030D02*
G03X703010Y29030I-9030J-3010D01*
G02Y30970I320J970D01*
G03X709030Y36990I-3010J9030D01*
G02X710970I970J-320D01*
G03X716990Y30970I9030J3010D01*
G02Y29030I-320J-970D01*
G03X710970Y23010I3010J-9030D01*
G02X709030I-970J320D01*
G37*
G36*
G01X749030Y503010D02*
G03X743010Y509030I-9030J-3010D01*
G02Y510970I320J970D01*
G03X749030Y516990I-3010J9030D01*
G02X750970I970J-320D01*
G03X756990Y510970I9030J3010D01*
G02Y509030I-320J-970D01*
G03X750970Y503010I3010J-9030D01*
G02X749030I-970J320D01*
G37*
G36*
G01X729030D02*
G03X723010Y509030I-9030J-3010D01*
G02Y510970I320J970D01*
G03X729030Y516990I-3010J9030D01*
G02X730970I970J-320D01*
G03X736990Y510970I9030J3010D01*
G02Y509030I-320J-970D01*
G03X730970Y503010I3010J-9030D01*
G02X729030I-970J320D01*
G37*
G36*
G01X709030D02*
G03X703010Y509030I-9030J-3010D01*
G02Y510970I320J970D01*
G03X709030Y516990I-3010J9030D01*
G02X710970I970J-320D01*
G03X716990Y510970I9030J3010D01*
G02Y509030I-320J-970D01*
G03X710970Y503010I3010J-9030D01*
G02X709030I-970J320D01*
G37*
G36*
G01X769030Y23010D02*
G03X763010Y29030I-9030J-3010D01*
G02Y30970I320J970D01*
G03X769030Y36990I-3010J9030D01*
G02X770970I970J-320D01*
G03X776990Y30970I9030J3010D01*
G02Y29030I-320J-970D01*
G03X770970Y23010I3010J-9030D01*
G02X769030I-970J320D01*
G37*
G36*
G01X789030Y503010D02*
G03X783010Y509030I-9030J-3010D01*
G02Y510970I320J970D01*
G03X789030Y516990I-3010J9030D01*
G02X790970I970J-320D01*
G03X796990Y510970I9030J3010D01*
G02Y509030I-320J-970D01*
G03X790970Y503010I3010J-9030D01*
G02X789030I-970J320D01*
G37*
G36*
G01X769030D02*
G03X763010Y509030I-9030J-3010D01*
G02Y510970I320J970D01*
G03X769030Y516990I-3010J9030D01*
G02X770970I970J-320D01*
G03X776990Y510970I9030J3010D01*
G02Y509030I-320J-970D01*
G03X770970Y503010I3010J-9030D01*
G02X769030I-970J320D01*
G37*
%LPC*%
G75*
G36*
G01X114170Y418750D02*
G03X112830I-670J-770D01*
G02X107150Y425230I-2829J3249D01*
G03Y426770I-672J770D01*
G02Y433230I2850J3230D01*
G03Y434770I-672J770D01*
G02X112830Y441250I2851J3231D01*
G03X114170I670J770D01*
G02X119830I2830J-3250D01*
G03X121170I670J770D01*
G02X126850Y434770I2829J-3249D01*
G03Y433230I672J-770D01*
G02Y426770I-2850J-3230D01*
G03Y425230I672J-770D01*
G02X121170Y418750I-2851J-3231D01*
G03X119830I-670J-770D01*
G02X114170I-2830J3250D01*
G37*
G36*
G01X136390Y314420D02*
G03X136200Y312880I567J-852D01*
G02X132420Y305730I-3203J-2881D01*
G03X131270Y304580I-139J-1011D01*
G02X127580Y308270I-4270J-580D01*
G03X128730Y309420I139J1011D01*
G02X130610Y313580I4269J575D01*
G03X130800Y315120I-567J852D01*
G02X136390Y314420I3200J2882D01*
G37*
G36*
G01X88450Y294400D02*
G03X88810Y295010I-138J493D01*
G02X97190I4190J990D01*
G03X97550Y294400I498J-117D01*
G02X109400Y282550I-4550J-16400D01*
G03X110010Y282190I493J138D01*
G02Y273810I990J-4190D01*
G03X109400Y273450I-117J-498D01*
G02X97550Y261600I-16400J4550D01*
G03X97190Y260990I138J-493D01*
G02X88810I-4190J-990D01*
G03X88450Y261600I-498J117D01*
G02X76600Y273450I4550J16400D01*
G03X75990Y273810I-493J-138D01*
G02Y282190I-990J4190D01*
G03X76600Y282550I117J498D01*
G02X88450Y294400I16400J-4550D01*
G37*
G36*
G01X85490Y237500D02*
G02X92510I3510J2500D01*
G02X85490I-3510J-2500D01*
G37*
G36*
G01X134460Y127430D02*
G03X134840Y125900I817J-609D01*
G02X129540Y124570I-1838J-3899D01*
G03X129160Y126100I-817J609D01*
G02X128170Y126750I1848J3894D01*
G03X126830I-670J-770D01*
G02X122580Y125930I-2831J3250D01*
G03X121240Y124780I-338J-961D01*
G02X113910Y127000I-4238J-781D01*
G02Y133000I3090J3000D01*
G02X119830Y139250I3091J3001D01*
G03X121170I670J770D01*
G02X126830I2830J-3250D01*
G03X128170I670J770D01*
G02X134090Y133000I2829J-3249D01*
G02X134460Y127430I-3091J-3003D01*
G37*
G54D19*
X76000Y261000D03*
X110000Y295000D03*
Y261000D03*
X76000Y295000D03*
X66000Y339000D03*
X79000Y347000D03*
X151000Y121000D03*
X115000Y236000D03*
X147000Y203000D03*
X131000D03*
X115000D03*
X134000Y347000D03*
X118000D03*
X258000Y397000D03*
%LPD*%
G75*
G54D10*
X40000Y40000D03*
X20000D03*
X40000Y20000D03*
Y500000D03*
Y520000D03*
X20000D03*
X100000Y40000D03*
X80000D03*
X60000D03*
X100000Y20000D03*
X80000D03*
X60000D03*
X100000Y500000D03*
X80000D03*
X60000D03*
X100000Y520000D03*
X80000D03*
X60000D03*
X160000Y40000D03*
X140000D03*
X120000D03*
X160000Y20000D03*
X140000D03*
X120000D03*
X160000Y500000D03*
X140000D03*
X120000D03*
X160000Y520000D03*
X140000D03*
X120000D03*
X200000Y40000D03*
X180000D03*
X200000Y20000D03*
X180000D03*
X200000Y500000D03*
X180000D03*
X200000Y520000D03*
X180000D03*
X260000Y40000D03*
X240000D03*
X220000D03*
X260000Y20000D03*
X240000D03*
X220000D03*
X260000Y500000D03*
X240000D03*
X220000D03*
X260000Y520000D03*
X240000D03*
X220000D03*
X320000Y40000D03*
X300000D03*
X280000D03*
X320000Y20000D03*
X300000D03*
X280000D03*
X320000Y500000D03*
X300000D03*
X280000D03*
X320000Y520000D03*
X300000D03*
X280000D03*
X380000Y40000D03*
X360000D03*
X340000D03*
X380000Y20000D03*
X360000D03*
X340000D03*
X380000Y500000D03*
X360000D03*
X340000D03*
X380000Y520000D03*
X360000D03*
X340000D03*
X420000Y40000D03*
X400000D03*
X420000Y20000D03*
X400000D03*
X420000Y500000D03*
X400000D03*
X420000Y520000D03*
X400000D03*
X480000Y40000D03*
X460000D03*
X440000D03*
X480000Y20000D03*
X460000D03*
X440000D03*
X480000Y500000D03*
X460000D03*
X440000D03*
X480000Y520000D03*
X460000D03*
X440000D03*
X540000Y40000D03*
X520000D03*
X500000D03*
X540000Y20000D03*
X520000D03*
X500000D03*
X540000Y500000D03*
X520000D03*
X500000D03*
X540000Y520000D03*
X520000D03*
X500000D03*
X600000Y40000D03*
X580000D03*
X560000D03*
X600000Y20000D03*
X580000D03*
X560000D03*
X600000Y500000D03*
X580000D03*
X560000D03*
X600000Y520000D03*
X580000D03*
X560000D03*
X640000Y40000D03*
X620000D03*
X640000Y20000D03*
X620000D03*
X640000Y500000D03*
X620000D03*
X640000Y520000D03*
X620000D03*
X700000Y40000D03*
X680000D03*
X660000D03*
X700000Y20000D03*
X680000D03*
X660000D03*
X700000Y500000D03*
X680000D03*
X660000D03*
X700000Y520000D03*
X680000D03*
X660000D03*
X760000Y40000D03*
X740000D03*
X720000D03*
X760000Y20000D03*
X740000D03*
X720000D03*
X760000Y500000D03*
X740000D03*
X720000D03*
X760000Y520000D03*
X740000D03*
X720000D03*
X800000Y40000D03*
X780000D03*
X800000Y20000D03*
X780000D03*
X800000Y500000D03*
X780000D03*
X800000Y520000D03*
X780000D03*
G54D11*
X20000Y20000D03*
Y500000D03*
G54D12*
X24000Y64000D03*
X11000Y133000D03*
X45000Y198000D03*
X39000D03*
X45000Y204000D03*
X39000D03*
X8000Y183000D03*
X44920Y233080D03*
X14000Y232000D03*
X30000D03*
X43000Y264000D03*
X37000D03*
Y270000D03*
X43000D03*
X31000Y264000D03*
Y270000D03*
X46000Y250000D03*
X40000D03*
X43000Y255000D03*
X37000D03*
X28000Y327000D03*
X46000Y320000D03*
X14000Y302000D03*
X33000Y320000D03*
X45000Y296000D03*
X13000Y330000D03*
X38380Y371000D03*
X35000Y352000D03*
X28000Y338000D03*
X69000Y85000D03*
X71000Y71000D03*
X77000D03*
X51000Y64000D03*
X97000D03*
X55620Y154380D03*
X87000Y133000D03*
X80000Y117000D03*
X87000D03*
X83000Y203000D03*
X67000D03*
X51000Y198000D03*
Y204000D03*
X57000Y198000D03*
Y204000D03*
X76000Y261000D03*
X93000Y260000D03*
X75000Y278000D03*
X89000Y235000D03*
Y240000D03*
X49000Y264000D03*
Y270000D03*
X55000D03*
X52000Y250000D03*
X49000Y255000D03*
X55000Y259000D03*
X99000Y236000D03*
Y241000D03*
X83000Y236000D03*
Y241000D03*
X76000Y295000D03*
X93000Y296000D03*
X51000Y291000D03*
X95000Y316000D03*
X91000Y323000D03*
X81000Y318000D03*
X76000D03*
X54000Y310000D03*
X79000Y347000D03*
X66000Y339000D03*
X56000D03*
X157000Y81000D03*
X137000Y100000D03*
X124000Y94000D03*
X149000Y112000D03*
Y106000D03*
Y100000D03*
Y94000D03*
X143000D03*
X137000D03*
X131000D03*
X124000Y100000D03*
X131000D03*
X134000Y107000D03*
X117000Y136000D03*
X131000D03*
X124000D03*
X117000Y124000D03*
X131000Y130000D03*
X124000D03*
X117000D03*
X133000Y122000D03*
X151000Y121000D03*
X115000Y203000D03*
X131000D03*
X147000D03*
X110000Y261000D03*
X111000Y278000D03*
X115000Y236000D03*
X143000Y253000D03*
X131000Y231000D03*
X110000Y295000D03*
X127000Y304000D03*
X133000Y310000D03*
X134000Y318000D03*
X123000D03*
X117000D03*
X137000Y280000D03*
X131000D03*
X118000Y347000D03*
X134000D03*
X150000Y364000D03*
Y358000D03*
X124000Y422000D03*
X117000D03*
X110000D03*
X124000Y430000D03*
X117000D03*
X110000D03*
X124000Y438000D03*
X117000D03*
X110000D03*
X147000Y431000D03*
X153000Y437000D03*
X147000D03*
X153000Y431000D03*
X141000D03*
Y437000D03*
X143000Y460620D03*
X141000Y443000D03*
X171000Y102000D03*
X186080Y110080D03*
X198000Y138000D03*
X196000Y198000D03*
X190000D03*
X184000D03*
X178000D03*
X172000D03*
X193000Y204000D03*
X187000D03*
X181000D03*
X175000D03*
X169000D03*
X163000D03*
X196000Y210000D03*
X190000D03*
X184000D03*
X196000Y216000D03*
X190000D03*
X184000D03*
X196000Y222000D03*
X190000D03*
X184000D03*
X194000Y253000D03*
X171000D03*
X202000Y232000D03*
X212000Y260000D03*
X190000Y332000D03*
X198000D03*
X182000D03*
X174000D03*
X166000D03*
X158000Y364000D03*
X174000D03*
X190000Y340000D03*
X182000D03*
X190000Y348000D03*
X182000D03*
X211000Y442000D03*
X159000Y437000D03*
Y431000D03*
X201000Y452000D03*
X207000Y446000D03*
X159000Y461500D03*
X165000Y483000D03*
X242000Y237000D03*
X219000Y254000D03*
X213000Y267000D03*
X256000Y263000D03*
X223000Y260000D03*
X240000Y230000D03*
X232000Y287000D03*
Y327000D03*
X256000Y311000D03*
Y351000D03*
X258000Y368000D03*
Y407000D03*
Y397000D03*
X292000Y55000D03*
X284000Y78000D03*
X290000D03*
X274260Y216740D03*
X274000Y273000D03*
X279000Y246000D03*
X299000D03*
X297000Y227000D03*
X274000Y293000D03*
Y283000D03*
X298000Y294000D03*
Y282000D03*
X301000Y330000D03*
X299000Y324000D03*
X308000Y359000D03*
X320000Y370920D03*
Y358000D03*
X320380Y401620D03*
X309000Y412000D03*
X314000Y453000D03*
X308000Y467000D03*
X302000D03*
X308000Y461000D03*
X302000D03*
X314000Y473000D03*
X308000D03*
X302000D03*
X314000Y479000D03*
X308000D03*
X314000Y467000D03*
X309000Y444000D03*
X370000Y99000D03*
X357000Y163000D03*
X362000Y159000D03*
X370000Y120000D03*
X329000Y250000D03*
Y243000D03*
X327000Y261000D03*
X324000Y290000D03*
X325000Y320000D03*
Y312000D03*
X375000Y332000D03*
X370000Y386000D03*
X360000D03*
X348000D03*
X370000Y336000D03*
X338000Y386000D03*
X326000D03*
X362000Y336000D03*
X370000Y364000D03*
X344000Y336000D03*
X352000D03*
X324000Y363000D03*
X346000Y423000D03*
X370000Y415000D03*
X325620Y436620D03*
X374000Y395000D03*
X350000Y466000D03*
X372000Y459000D03*
X350000Y473000D03*
X426000Y99000D03*
X398000D03*
Y120000D03*
X426000D03*
X420000Y213000D03*
Y222000D03*
X400000Y220000D03*
X393000Y213000D03*
X420000Y258000D03*
Y267000D03*
X393000Y240000D03*
X402000D03*
X407000Y227000D03*
Y253000D03*
X400000Y260000D03*
X393000Y267000D03*
X422000Y332000D03*
X416000Y330000D03*
X411000Y326000D03*
X405000Y323000D03*
X382000Y386000D03*
X392000D03*
Y365000D03*
X390000Y336080D03*
X380000Y336000D03*
X406000Y395000D03*
X426000Y438000D03*
X418000D03*
X410000D03*
X402000D03*
X394000D03*
X386000D03*
X376000Y446000D03*
Y453000D03*
X426000Y446000D03*
X418000D03*
X410000D03*
X402000D03*
X394000D03*
X478000Y99000D03*
X449000D03*
X459000D03*
X436000D03*
X478000Y120000D03*
X458000D03*
X434000Y144000D03*
X454000Y143920D03*
X436000Y150000D03*
X440000Y220000D03*
X447000Y213000D03*
Y240000D03*
X438000D03*
X433000Y227000D03*
Y253000D03*
X440000Y260000D03*
X447000Y267000D03*
X452000Y388000D03*
X438000Y336000D03*
X474000D03*
X434000Y430000D03*
Y438000D03*
Y446000D03*
X494000Y99000D03*
X529000Y127000D03*
X494000Y120000D03*
X529000Y148000D03*
X509000Y156000D03*
X515000Y216000D03*
X516000Y170000D03*
X508000Y198000D03*
X513000Y202000D03*
X508000Y206000D03*
X513000Y210000D03*
X509000Y190000D03*
X516080Y270000D03*
X516000Y242000D03*
Y290000D03*
Y322000D03*
X489000Y382000D03*
X581000Y161000D03*
X573000Y126000D03*
X540000Y127000D03*
X551000D03*
X555000Y152000D03*
X540000Y148000D03*
Y162930D03*
X546000Y148000D03*
X544000Y192000D03*
X572000Y224000D03*
Y198000D03*
Y208000D03*
Y215000D03*
X540000Y171000D03*
X547500Y172500D03*
X591080Y247080D03*
X561000Y269000D03*
X559080Y235000D03*
X571000Y230000D03*
X573000Y243000D03*
X572500Y236500D03*
X541000Y266000D03*
X549000Y271000D03*
Y278000D03*
X580920Y247000D03*
X559080Y329000D03*
Y296000D03*
X540000Y310000D03*
X545000Y314000D03*
X540000Y328000D03*
Y318000D03*
X548920Y329080D03*
X565000Y336000D03*
X584000Y380000D03*
X647000Y96000D03*
X597000Y101920D03*
X636000Y96000D03*
X648000Y140000D03*
X644000Y131000D03*
X647000Y118000D03*
X638000Y144000D03*
X648000Y188000D03*
X640000D03*
X644000Y205000D03*
X643380Y249620D03*
X643000Y234380D03*
X640000Y261500D03*
X644920Y227000D03*
X648000Y288000D03*
X644000Y279000D03*
X638000Y292000D03*
X648000Y336000D03*
X640000D03*
X624000Y381000D03*
X613000Y353000D03*
X612000Y380000D03*
X644000Y353000D03*
Y381000D03*
X660000Y96000D03*
X672000D03*
X684000D03*
X702000Y127000D03*
X652000Y131000D03*
X668000D03*
X680000Y148000D03*
X696000D03*
X660000Y131000D03*
X680000Y140000D03*
X696000D03*
X660000Y118000D03*
X672000D03*
X696000Y132000D03*
X660000Y205000D03*
X668000D03*
X664000Y188000D03*
X679980Y187980D03*
X659500Y222500D03*
X685000Y173000D03*
X691000D03*
X692000Y210000D03*
X652000Y205000D03*
X676000D03*
X668000Y179000D03*
X696000Y188000D03*
X666000Y219000D03*
X656620Y249620D03*
X666000Y245000D03*
X676000D03*
Y239000D03*
X696000D03*
X666000D03*
X659500Y261500D03*
X657000Y234380D03*
X676000Y265000D03*
X666000D03*
X688000Y327000D03*
X652000Y279000D03*
X668000D03*
X696000Y296000D03*
X680000D03*
X685000Y321000D03*
X691000D03*
X668000Y327000D03*
X660000Y279000D03*
X680000Y288000D03*
X696000D03*
Y280000D03*
X660000Y353000D03*
X668000D03*
X664000Y336000D03*
X652000Y381000D03*
X696000Y382000D03*
X692000Y358000D03*
X652000Y353000D03*
X676000D03*
X696000Y336000D03*
X671000Y381000D03*
X683000Y460000D03*
X677000Y457000D03*
X732000Y96000D03*
X716000D03*
X724000Y131000D03*
X740000D03*
X708000D03*
X732000D03*
X716000D03*
X712000Y188000D03*
X724000Y205000D03*
X740000D03*
X708000D03*
Y216000D03*
X736000Y210000D03*
X728000D03*
X740000Y215000D03*
X744000Y220000D03*
X704000Y210000D03*
X720000D03*
X752000Y220000D03*
X712000Y210000D03*
X753000Y185000D03*
X747000Y183000D03*
X757000Y180000D03*
X732000Y205000D03*
Y216000D03*
X716000Y205000D03*
X724000Y216000D03*
X704000Y273000D03*
X724000Y242000D03*
X732000D03*
X748000Y225000D03*
X712000Y269000D03*
X704000Y327000D03*
X727980Y287980D03*
X736000Y280000D03*
X712000Y288000D03*
X753000Y333000D03*
X747000Y331000D03*
X757000Y328000D03*
X728020Y280020D03*
X712000Y280000D03*
X724000Y353000D03*
X740000D03*
X730000Y382000D03*
X708000Y353000D03*
X714000Y382000D03*
X736000Y358000D03*
X728000D03*
X740000Y363000D03*
X744000Y368000D03*
X704000Y358000D03*
X748000Y373000D03*
X720000Y358000D03*
X752000Y368000D03*
X712000Y358000D03*
X732000Y353000D03*
X716000D03*
X705000Y460000D03*
X775000Y105000D03*
X766000D03*
X797000Y150000D03*
X773000Y140000D03*
X766000D03*
X769000Y185000D03*
X777000D03*
X773000Y180000D03*
X781000D03*
X797000D03*
X789000D03*
X785000Y185000D03*
X765000Y180000D03*
X761000Y185000D03*
X797000Y171000D03*
X793000Y185000D03*
X769000Y333000D03*
X777000D03*
X773000Y328000D03*
X781000D03*
X797000D03*
X789000D03*
X785000Y333000D03*
X765000Y328000D03*
X761000Y333000D03*
X793000D03*
X799000Y365000D03*
Y345000D03*
G54D13*
X93000Y278000D03*
X420000Y240000D03*
G54D14*
G01X549000Y271000D02*
X551340Y273340D01*
X552700D01*
X552740Y273300D01*
X553600D01*
X554440Y272460D01*
Y255440D01*
X551000Y252000D01*
Y224000D01*
X564000Y211000D01*
X569000D01*
X572000Y208000D01*
G01X549000Y278000D02*
X551400Y275600D01*
X554500D01*
X556700Y273400D01*
Y254500D01*
X553260Y251060D01*
Y224940D01*
X564940Y213260D01*
X570260D01*
X572000Y215000D01*
G01X685000Y321000D02*
Y317290D01*
X686870Y315420D01*
Y313370D01*
X685500Y312000D01*
X682300D01*
X678500Y308200D01*
Y303900D01*
X684200Y298200D01*
Y285600D01*
X680440Y281840D01*
Y209060D01*
X687040Y202460D01*
Y175040D01*
X685000Y173000D01*
G01X691000Y321000D02*
Y317290D01*
X689130Y315420D01*
Y312430D01*
X686440Y309740D01*
X683240D01*
X680760Y307260D01*
Y304840D01*
X686460Y299140D01*
Y284660D01*
X682700Y280900D01*
Y210000D01*
X689300Y203400D01*
Y174700D01*
X691000Y173000D01*
G54D15*
G01X360000Y520000D02*
X370000Y510000D01*
Y494000D01*
X355000Y479000D01*
Y419000D01*
X343000Y407000D01*
Y337000D01*
X344000Y336000D01*
G01X380000Y520000D02*
X390000Y510000D01*
Y495000D01*
X384000Y489000D01*
X376000D01*
X363000Y476000D01*
Y415000D01*
X365000Y413000D01*
Y351000D01*
X375000Y341000D01*
Y332000D01*
G01X400000Y500000D02*
Y499000D01*
X392280Y491280D01*
X386000Y485000D01*
X378000D01*
X367000Y474000D01*
Y427000D01*
X379000Y415000D01*
Y392000D01*
X376000Y389000D01*
Y351000D01*
X380000Y347000D01*
Y336000D01*
G01X400000Y520000D02*
X410000Y510000D01*
Y493000D01*
X381000Y464000D01*
Y424000D01*
X387000Y418000D01*
Y339000D01*
X389920Y336080D01*
X390000D01*
G01X704000Y273000D02*
X701000Y270000D01*
Y233000D01*
X699000Y231000D01*
Y207000D01*
X712000Y194000D01*
Y188000D01*
G01X702000Y127000D02*
Y132000D01*
X712000Y142000D01*
Y188000D01*
G01X704000Y273000D02*
Y296000D01*
X708000Y300000D01*
Y323000D01*
X704000Y327000D01*
G54D16*
G01X362000Y336000D02*
X353000Y327000D01*
X319000D01*
X309000Y317000D01*
X278000D01*
X239000Y356000D01*
X152000D01*
X150000Y358000D01*
G01Y364000D02*
Y358000D01*
G54D17*
G01X280000Y40000D02*
X270000Y30000D01*
Y16000D01*
X264000Y10000D01*
X136000D01*
X130000Y16000D01*
Y44970D01*
X22000Y152970D01*
Y241000D01*
X16000Y247000D01*
Y282000D01*
X58000Y324000D01*
X83000D01*
X91000Y316000D01*
X95000D01*
G01X280000Y20000D02*
X274000Y14000D01*
X272000D01*
X265000Y7000D01*
X119000D01*
X110000Y16000D01*
Y60720D01*
X19000Y151720D01*
Y240000D01*
X13000Y246000D01*
Y283000D01*
X40000Y310000D01*
Y321000D01*
X46000Y327000D01*
X87000D01*
X91000Y323000D01*
G01X54000Y310000D02*
X48000D01*
X19000Y281000D01*
Y248000D01*
X25000Y242000D01*
Y155000D01*
X95000Y85000D01*
X257000D01*
X343000Y171000D01*
X415000D01*
X436000Y150000D01*
G01X13000Y330000D02*
X35000Y352000D01*
G01X60000Y40000D02*
X71000Y51000D01*
Y71000D01*
G01X60000Y20000D02*
X70000Y30000D01*
Y46000D01*
X74000Y50000D01*
Y68000D01*
X77000Y71000D01*
G01X140000Y40000D02*
X150000Y50000D01*
X269000D01*
X284000Y65000D01*
Y78000D01*
G01X140000Y20000D02*
X150000Y30000D01*
X265000D01*
X270000Y35000D01*
Y47000D01*
X287000Y64000D01*
Y75000D01*
X290000Y78000D01*
G01X434000Y144000D02*
X410000Y168000D01*
X344000D01*
X257000Y81000D01*
X157000D01*
G01X213000Y267000D02*
X208000Y262000D01*
Y238000D01*
X202000Y232000D01*
G01X165000Y483000D02*
Y467500D01*
X159000Y461500D01*
G01X165000Y483000D02*
X170000Y488000D01*
Y510000D01*
X160000Y520000D01*
G01X219000Y254000D02*
Y250000D01*
X232000Y237000D01*
X242000D01*
G01X327000Y261000D02*
X326000Y262000D01*
X271000D01*
X256000Y247000D01*
X226000D01*
X223000Y250000D01*
Y260000D01*
G01X212000D02*
X215000Y257000D01*
Y250000D01*
X231000Y234000D01*
X236000D01*
X240000Y230000D01*
G01X232000Y327000D02*
X251000D01*
X267000Y311000D01*
X316000D01*
X325000Y320000D01*
G01Y312000D02*
X319000Y306000D01*
X261000D01*
X256000Y311000D01*
G01X357000Y163000D02*
X343000D01*
X286000Y106000D01*
Y80000D01*
X284000Y78000D01*
G01X362000Y159000D02*
X343000D01*
X289000Y105000D01*
Y79000D01*
X290000Y78000D01*
G01X320000Y500000D02*
X321000Y499000D01*
Y446000D01*
X293000Y418000D01*
Y330000D01*
X299000Y324000D01*
G01X360000Y500000D02*
Y496000D01*
X338000Y474000D01*
Y426000D01*
X315000Y403000D01*
Y376000D01*
X320000Y371000D01*
Y370920D01*
G01X340000Y520000D02*
X350000Y510000D01*
Y492000D01*
X330000Y472000D01*
Y423000D01*
X308000Y401000D01*
Y374000D01*
X319000Y363000D01*
X324000D01*
G01X320000Y358000D02*
X305000Y373000D01*
Y422000D01*
X327000Y444000D01*
Y473000D01*
X340000Y486000D01*
Y500000D01*
G01X320000Y520000D02*
X330000Y510000D01*
Y480000D01*
X324000Y474000D01*
Y445000D01*
X296000Y417000D01*
Y335000D01*
X301000Y330000D01*
G01X380000Y500000D02*
Y499000D01*
X359000Y478000D01*
Y415000D01*
X354000Y410000D01*
Y338000D01*
X352000Y336000D01*
G01X420000Y520000D02*
X430000Y510000D01*
Y495000D01*
X444000Y481000D01*
Y412000D01*
X408000Y376000D01*
Y329000D01*
X411000Y326000D01*
G01X420000Y500000D02*
X441000Y479000D01*
Y413000D01*
X405000Y377000D01*
Y323000D01*
G01X440000Y520000D02*
X450000Y510000D01*
Y410000D01*
X414000Y374000D01*
Y339000D01*
X421000Y332000D01*
X422000D01*
G01X440000Y500000D02*
Y490000D01*
X447000Y483000D01*
Y411000D01*
X411000Y375000D01*
Y335000D01*
X416000Y330000D01*
G01X580000Y40000D02*
Y51000D01*
X515000Y116020D01*
Y156000D01*
X522000Y163000D01*
Y194000D01*
X518000Y198000D01*
X508000D01*
G01X600000Y20000D02*
X590000Y30000D01*
Y45000D01*
X518000Y117000D01*
Y155000D01*
X525000Y162000D01*
Y195000D01*
X518000Y202000D01*
X513000D01*
G01X600000Y40000D02*
X599000D01*
X521000Y118000D01*
Y154000D01*
X528000Y161000D01*
Y196000D01*
X518000Y206000D01*
X508000D01*
G01X620000Y20000D02*
X610000Y30000D01*
Y45000D01*
X605000Y50000D01*
X593010D01*
X524000Y119000D01*
Y153000D01*
X531000Y160000D01*
Y197000D01*
X518000Y210000D01*
X513000D01*
G01X509000Y156000D02*
Y190000D01*
G01X572000Y198000D02*
X565000D01*
X544000Y219000D01*
Y232000D01*
X543000Y233000D01*
X541000D01*
X540000Y234000D01*
Y237000D01*
X541000Y238000D01*
X543000D01*
X544000Y239000D01*
Y242000D01*
X543000Y243000D01*
X540000D01*
X539000Y244000D01*
Y247000D01*
X540000Y248000D01*
X543000D01*
X544000Y249000D01*
Y252000D01*
X543000Y253000D01*
X540000D01*
X539000Y254000D01*
Y257000D01*
X540000Y258000D01*
X543000D01*
X543970Y258970D01*
Y263030D01*
X541000Y266000D01*
G01X572000Y224000D02*
X571000D01*
X565000Y230000D01*
Y236000D01*
X561000Y240000D01*
Y251000D01*
X579000Y269000D01*
Y293600D01*
X570600Y302000D01*
X552400D01*
X551200Y300800D01*
Y297600D01*
X550200Y296600D01*
X546200D01*
X545300Y297500D01*
Y308890D01*
X544190Y310000D01*
X540000D01*
G01X545000Y314000D02*
X549600D01*
X551300Y312300D01*
Y310300D01*
X552700Y308900D01*
X554600D01*
X556000Y310300D01*
Y313000D01*
X557000Y314000D01*
X559000D01*
X560000Y313000D01*
Y306500D01*
X560900Y305600D01*
X562900D01*
X564000Y306700D01*
Y313000D01*
X565000Y314000D01*
X567000D01*
X568000Y313000D01*
Y307000D01*
X569000Y306000D01*
X571000D01*
X572000Y307000D01*
Y309000D01*
X573000Y310000D01*
X575000D01*
X576000Y309000D01*
Y304000D01*
X583000Y297000D01*
Y267000D01*
X565000Y249000D01*
Y240000D01*
X568000Y237000D01*
Y233000D01*
X571000Y230000D01*
G01X540000Y328000D02*
X545000Y323000D01*
X564500D01*
X565500Y324000D01*
Y326000D01*
X566500Y327000D01*
X568500D01*
X569500Y326000D01*
Y324000D01*
X570500Y323000D01*
X580100D01*
X585000Y318100D01*
Y309000D01*
X591000Y303000D01*
Y265190D01*
X573000Y247190D01*
Y243000D01*
G01X540000Y318000D02*
X562200D01*
X563850Y319650D01*
X566650D01*
X569500Y316800D01*
X574500D01*
X576300Y318600D01*
X578700D01*
X580000Y317300D01*
Y307000D01*
X587000Y300000D01*
Y266000D01*
X568000Y247000D01*
Y241000D01*
X572500Y236500D01*
G01X696000Y280000D02*
X692000Y276000D01*
Y216000D01*
X696000Y212000D01*
Y196000D01*
X700000Y192000D01*
Y136000D01*
X696000Y132000D01*
G01X692000Y358000D02*
Y332000D01*
X696000Y328000D01*
Y308000D01*
X692000Y304000D01*
Y283000D01*
X689000Y280000D01*
Y213000D01*
X692000Y210000D01*
G01X677000Y457000D02*
X682000Y452000D01*
Y381000D01*
X700000Y363000D01*
Y284000D01*
X696000Y280000D01*
G01X736000Y358000D02*
Y343000D01*
X731000Y338000D01*
Y317000D01*
X732000Y316000D01*
Y277000D01*
X736000Y273000D01*
Y210000D01*
G01X728000D02*
Y272000D01*
X724000Y276000D01*
Y291000D01*
X728000Y295000D01*
Y358000D01*
G01X740000Y215000D02*
Y313000D01*
X734000Y319000D01*
Y336000D01*
X744000Y346000D01*
Y359000D01*
X740000Y363000D01*
G01X744000Y368000D02*
Y363810D01*
X747000Y360810D01*
Y345000D01*
X737000Y335000D01*
Y321000D01*
X744000Y314000D01*
Y220000D01*
G01X704000Y358000D02*
Y350000D01*
X714000Y340000D01*
Y297000D01*
X708000Y291000D01*
Y233000D01*
X704000Y229000D01*
Y210000D01*
G01X720000Y358000D02*
Y210000D01*
G01X752000Y220000D02*
Y314000D01*
X743000Y323000D01*
Y333000D01*
X753000Y343000D01*
Y364000D01*
X752000Y365000D01*
Y368000D01*
G01X712000Y210000D02*
Y228000D01*
X717000Y233000D01*
Y345000D01*
X712000Y350000D01*
Y358000D01*
G01X753000Y185000D02*
Y191000D01*
X759000Y197000D01*
Y317000D01*
X753000Y323000D01*
Y333000D01*
G01X747000Y183000D02*
Y190000D01*
X756000Y199000D01*
Y315000D01*
X747000Y324000D01*
Y331000D01*
G01X748000Y373000D02*
Y365000D01*
X750000Y363000D01*
Y344000D01*
X740000Y334000D01*
Y322000D01*
X748000Y314000D01*
Y225000D01*
G01X769000Y333000D02*
Y324000D01*
X771000Y322000D01*
Y191190D01*
X769000Y189190D01*
Y185000D01*
G01X777000Y333000D02*
Y185000D01*
G01X773000Y180000D02*
Y187000D01*
X774000Y188000D01*
Y323000D01*
X773000Y324000D01*
Y328000D01*
G01X781000D02*
Y180000D01*
G01X797000Y328000D02*
Y180000D01*
G01X789000Y328000D02*
Y180000D01*
G01X785000Y333000D02*
Y185000D01*
G01X765000Y328000D02*
Y323810D01*
X768000Y320810D01*
Y192000D01*
X765000Y189000D01*
Y180000D01*
G01X761000Y185000D02*
Y190000D01*
X765000Y194000D01*
Y320000D01*
X761000Y324000D01*
Y333000D01*
G01X757000Y180000D02*
Y190000D01*
X762000Y195000D01*
Y318810D01*
X757000Y323810D01*
Y328000D01*
G01X793000Y333000D02*
Y185000D01*
G54D18*
G01X45000Y296000D02*
X24000Y275000D01*
Y250000D01*
X37000Y237000D01*
Y220000D01*
X31000Y214000D01*
Y159000D01*
X34460Y155540D01*
Y152240D01*
X37480Y149220D01*
X40780D01*
X73000Y117000D01*
X80000D01*
G01X8000Y183000D02*
Y285000D01*
X21000Y298000D01*
Y331000D01*
X28000Y338000D01*
G01X45000Y296000D02*
X46000D01*
X51000Y291000D01*
G01X87000Y117000D02*
X80000D01*
M02*
