G04 ================== begin FILE IDENTIFICATION RECORD ==================*
G04 Layout Name:  E:/HARDWARE/PCB/Allegro/PROJECT/A13_SODIMM/PCB/A13_SODIMM_03.brd*
G04 Film Name:    PWR*
G04 File Format:  Gerber RS274X*
G04 File Origin:  Cadence Allegro 16.3-p003*
G04 Origin Date:  Tue Jan 29 13:24:02 2013*
G04 *
G04 Layer:  ETCH/PWR*
G04 Layer:  PIN/PWR*
G04 Layer:  VIA CLASS/PWR*
G04 *
G04 Offset:    (0.000 0.000)*
G04 Mirror:    No*
G04 Mode:      Positive*
G04 Rotation:  0*
G04 FullContactRelief:  No*
G04 UndefLineWidth:     0.200*
G04 ================== end FILE IDENTIFICATION RECORD ====================*
%FSLAX34Y34*MOMM*%
%IR0*IPPOS*OFA0.00000B0.00000*MIA0B0*SFA1.00000B1.00000*%
%ADD12C,3.*%
%ADD10C,1.5*%
%ADD11C,.457*%
%ADD13C,.4*%
%ADD14C,.5*%
%ADD15C,1.704*%
%ADD16C,.662*%
G75*
%LPD*%
G75*
G36*
G01X4000Y4000D02*
Y536000D01*
X816000D01*
Y4000D01*
X4000D01*
G37*
%LPC*%
G75*
G36*
G01X305710Y458610D02*
G03X304290I-710J-732D01*
G02X299610Y463290I-2290J2390D01*
G03Y464710I-732J710D01*
G02Y469290I2390J2290D01*
G03Y470710I-732J710D01*
G02X304290Y475390I2390J2290D01*
G03X305710I710J732D01*
G02X305950Y475600I2297J-2383D01*
G03Y476400I-315J400D01*
G02X310290Y481390I2052J2597D01*
G03X311710I710J732D01*
G02X316390Y476710I2290J-2390D01*
G03Y475290I732J-710D01*
G02Y470710I-2390J-2290D01*
G03Y469290I732J-710D01*
G02X311710Y464610I-2390J-2290D01*
G03X310290I-710J-732D01*
G02X310050Y464400I-2297J2383D01*
G03Y463600I315J-400D01*
G02X305710Y458610I-2052J-2597D01*
G37*
G36*
G01X210300Y446240D02*
G03X211240Y445300I1018J78D01*
G02X207700Y441760I-240J-3300D01*
G03X206760Y442700I-1018J-78D01*
G02X210300Y446240I240J3300D01*
G37*
G36*
G01X144710Y428610D02*
G03X143290I-710J-732D01*
G02X138610Y433290I-2290J2390D01*
G03Y434710I-732J710D01*
G02Y439290I2390J2290D01*
G03Y440710I-732J710D01*
G02X143390I2390J2290D01*
G03Y439290I732J-710D01*
G02X143600Y439050I-2383J-2297D01*
G03X144400I400J315D01*
G02X149290Y439390I2599J-2050D01*
G03X150710I710J732D01*
G02X155290I2290J-2390D01*
G03X156710I710J732D01*
G02X161390Y434710I2290J-2390D01*
G03Y433290I732J-710D01*
G02X156710Y428610I-2390J-2290D01*
G03X155290I-710J-732D01*
G02X150710I-2290J2390D01*
G03X149290I-710J-732D01*
G02X144710I-2290J2390D01*
G37*
G36*
G01X324210Y359700D02*
G03X323270Y358520I68J-1018D01*
G02X319790Y361300I-3268J-522D01*
G03X320730Y362480I-68J1018D01*
G02X324210Y359700I3268J522D01*
G37*
G36*
G01X302380Y326990D02*
G03X301910Y325580I426J-925D01*
G02X297620Y327010I-2910J-1580D01*
G03X298090Y328420I-426J925D01*
G02X302380Y326990I2910J1580D01*
G37*
G36*
G01X405850Y230100D02*
G03X406360Y231590I-358J955D01*
G02X404450Y236170I13652J8382D01*
G03X403110Y236880I-990J-249D01*
G02Y243120I-1110J3120D01*
G03X404450Y243830I350J959D01*
G02X406360Y248410I15562J-3802D01*
G03X405850Y249900I-868J535D01*
G02X410100Y254150I1150J3100D01*
G03X411590Y253640I955J358D01*
G02X416170Y255550I8382J-13652D01*
G03X416880Y256890I-249J990D01*
G02X423120I3120J1110D01*
G03X423830Y255550I959J-350D01*
G02X428410Y253640I-3802J-15562D01*
G03X429900Y254150I535J868D01*
G02X434150Y249900I3100J-1150D01*
G03X433640Y248410I358J-955D01*
G02X435550Y243830I-13652J-8382D01*
G03X436890Y243120I990J249D01*
G02Y236880I1110J-3120D01*
G03X435550Y236170I-350J-959D01*
G02X433640Y231590I-15562J3802D01*
G03X434150Y230100I868J-535D01*
G02X429900Y225850I-1150J-3100D01*
G03X428410Y226360I-955J-358D01*
G02X423830Y224450I-8382J13652D01*
G03X423120Y223110I249J-990D01*
G02X416880I-3120J-1110D01*
G03X416170Y224450I-959J350D01*
G02X411590Y226360I3802J15562D01*
G03X410100Y225850I-535J-868D01*
G02X405850Y230100I-3100J1150D01*
G37*
G36*
G01X360300Y163210D02*
G03X361480Y162270I1018J68D01*
G02X358700Y158790I522J-3268D01*
G03X357520Y159730I-1018J-68D01*
G02X360300Y163210I-522J3268D01*
G37*
G36*
G01X437380Y146990D02*
G03X436910Y145580I426J-925D01*
G02X432620Y147010I-2910J-1580D01*
G03X433090Y148420I-426J925D01*
G02X437380Y146990I2910J1580D01*
G37*
G36*
G01X551530Y83710D02*
X202470D01*
X124710Y161470D01*
Y211530D01*
X160710Y247530D01*
Y339530D01*
X175470Y354290D01*
X191530D01*
X204290Y341530D01*
Y255470D01*
X156290Y207470D01*
Y176530D01*
X193480Y139350D01*
G03X195090Y139580I718J721D01*
G02X199580Y135090I2910J-1580D01*
G03X199350Y133480I491J-892D01*
G01X221530Y111290D01*
X407470D01*
X425470Y129290D01*
X518470D01*
X533710Y144530D01*
Y177470D01*
X512440Y198730D01*
X512300Y198770D01*
G02X511960Y198860I675J3237D01*
G03X511290Y198320I-161J-486D01*
G02X508520Y201270I-3294J-317D01*
G03X509700Y202210I162J1008D01*
G02X509710Y202320I3297J-244D01*
G03X509040Y202860I-509J54D01*
G02X508520Y209270I-1041J3142D01*
G03X509700Y210210I162J1008D01*
G02X509710Y210340I3302J-189D01*
G01Y217530D01*
X512470Y220290D01*
X518620D01*
X527290Y211400D01*
Y205530D01*
X539480Y193350D01*
G03X541090Y193580I718J721D01*
G02X545580Y189090I2910J-1580D01*
G03X545350Y187480I491J-892D01*
G01X581290Y151530D01*
Y113470D01*
X551530Y83710D01*
G37*
G36*
G01X287710Y75610D02*
G03X286290I-710J-732D01*
G02Y80390I-2290J2390D01*
G03X287710I710J732D01*
G02Y75610I2290J-2390D01*
G37*
G36*
G01X74710Y68610D02*
G03X73290I-710J-732D01*
G02Y73390I-2290J2390D01*
G03X74710I710J732D01*
G02Y68610I2290J-2390D01*
G37*
G36*
G01X765530Y86710D02*
X633470D01*
X623710Y96470D01*
Y141470D01*
X588470Y176710D01*
X570470D01*
X505710Y241470D01*
Y269530D01*
X513140Y276970D01*
G03X512420Y278710I-719J722D01*
G01X382530D01*
X322530Y218710D01*
X295470D01*
X288710Y225470D01*
Y264530D01*
X358920Y334750D01*
X358830Y335040D01*
G02X362960Y339170I3170J960D01*
G01X363250Y339080D01*
X375710Y351530D01*
Y382470D01*
X374130Y384050D01*
G03X372600Y383960I-725J-721D01*
G02X366950Y387290I-2601J2046D01*
G03X366010Y388710I-937J401D01*
G01X363990D01*
G03X363050Y387290I-3J-1019D01*
G02X356950I-3050J-1290D01*
G03X356010Y388710I-937J401D01*
G01X351990D01*
G03X351050Y387290I-3J-1019D01*
G02X344950I-3050J-1290D01*
G03X344010Y388710I-937J401D01*
G01X341990D01*
G03X341050Y387290I-3J-1019D01*
G02X334950I-3050J-1290D01*
G03X334010Y388710I-937J401D01*
G01X329990D01*
G03X329050Y387290I-3J-1019D01*
G02X322950I-3050J-1290D01*
G03X322010Y388710I-937J401D01*
G01X130470D01*
X104710Y414470D01*
Y439530D01*
X109470Y444290D01*
X126530D01*
X131290Y439530D01*
Y427530D01*
X134530Y424290D01*
X342940D01*
X343080Y424560D01*
G02X348920I2920J-1560D01*
G01X349060Y424290D01*
X381420D01*
G03X382140Y426030I1J1018D01*
G01X376710Y431470D01*
Y441680D01*
G03X375760Y442700I-1020J2D01*
G02X374050Y448680I238J3302D01*
G03Y450320I-599J820D01*
G02X372950Y454280I1951J2675D01*
G03X372000Y455690I-943J389D01*
G02X375050Y457720I0J3306D01*
G03X376000Y456310I943J-389D01*
G02X377950Y450320I0J-3312D01*
G03Y448680I599J-820D01*
G02X378600Y448040I-1975J-2656D01*
G03X380130Y447950I805J631D01*
G01X404470Y472290D01*
X733530D01*
X809290Y396530D01*
Y130470D01*
X765530Y86710D01*
G37*
G36*
G01X126680Y92050D02*
G02X121610Y96290I-2671J1957D01*
G03Y97710I-732J710D01*
G02X126680Y101950I2399J2283D01*
G03X128320I820J599D01*
G02X130700Y103300I2679J-1949D01*
G03X131410Y104940I-94J1014D01*
G02X136590I2590J2060D01*
G03X137300Y103300I804J-626D01*
G02X139390Y97710I-299J-3298D01*
G03Y96290I732J-710D01*
G02X139600Y96050I-2383J-2297D01*
G03X140400I400J315D01*
G02X145290Y96390I2599J-2050D01*
G03X146710I710J732D01*
G02X146950Y96600I2297J-2383D01*
G03Y97400I-315J400D01*
G02X146610Y102290I2050J2599D01*
G03Y103710I-732J710D01*
G02Y108290I2390J2290D01*
G03Y109710I-732J710D01*
G02X151390I2390J2290D01*
G03Y108290I732J-710D01*
G02Y103710I-2390J-2290D01*
G03Y102290I732J-710D01*
G02Y97710I-2390J-2290D01*
G03Y96290I732J-710D01*
G02X146710Y91610I-2390J-2290D01*
G03X145290I-710J-732D01*
G02X140710I-2290J2390D01*
G03X139290I-710J-732D01*
G02X134710I-2290J2390D01*
G03X133290I-710J-732D01*
G02X128320Y92050I-2293J2389D01*
G03X126680I-820J-599D01*
G37*
G36*
G01X82680Y115050D02*
G02Y118950I-2680J1950D01*
G03X84320I820J599D01*
G02Y115050I2680J-1950D01*
G03X82680I-820J-599D01*
G37*
G36*
G01X119390Y126290D02*
G02X114610I-2390J-2290D01*
G03Y127710I-732J710D01*
G02Y132290I2390J2290D01*
G03Y133710I-732J710D01*
G02X119680Y137950I2399J2283D01*
G03X121320I820J599D01*
G02X126680I2680J-1950D01*
G03X128320I820J599D01*
G02X133390Y133710I2671J-1957D01*
G03Y132290I732J-710D01*
G02X128320Y128050I-2399J-2283D01*
G03X126680I-820J-599D01*
G02X121320I-2680J1950D01*
G03X119680I-820J-599D01*
G02X119390Y127710I-2659J1974D01*
G03Y126290I732J-710D01*
G37*
G36*
G01X242490Y232180D02*
G02X239040Y233170I-2492J-2179D01*
G03X239510Y234820I-294J976D01*
G02X242960Y233830I2492J2179D01*
G03X242490Y232180I294J-976D01*
G37*
G36*
G01X222050Y255280D02*
G02X219000Y257310I-3050J-1276D01*
G03X219950Y258720I7J1021D01*
G02X223000Y256690I3050J1276D01*
G03X222050Y255280I-7J-1021D01*
G37*
G36*
G01X214270Y262410D02*
G02X210490Y262950I-2273J-2409D01*
G03X210730Y264590I-465J906D01*
G02X214510Y264050I2273J2409D01*
G03X214270Y262410I465J-906D01*
G37*
G36*
G01X351950Y468680D02*
G02X348050I-1950J-2680D01*
G03Y470320I-599J820D01*
G02X351950I1950J2680D01*
G03Y468680I599J-820D01*
G37*
G36*
G01X66530Y191710D02*
X34470D01*
X26710Y199470D01*
Y230530D01*
X26920Y230750D01*
X26830Y231040D01*
G02X30960Y235170I3170J960D01*
G01X31250Y235080D01*
X43730Y247550D01*
X43440Y247910D01*
G02X43400Y247950I2305J2345D01*
G03X42600I-400J-315D01*
G02X36750Y250650I-2603J2047D01*
G03X36050Y251830I-998J206D01*
G02X33950Y256290I949J3171D01*
G03X33010Y257710I-937J401D01*
G01X21470D01*
X7710Y271470D01*
Y506530D01*
X12470Y511290D01*
X14350D01*
G03X14960Y513130I4J1020D01*
G02X25040I5040J6870D01*
G03X25650Y511290I606J-820D01*
G01X34350D01*
G03X34960Y513130I4J1020D01*
G02X43570Y512260I5043J6869D01*
G01X43270Y512130D01*
Y511290D01*
X44530D01*
X49290Y506530D01*
G03X51030Y505860I1018J48D01*
G01X56110Y510930D01*
G03X55880Y512540I-725J718D01*
G02X65040Y513130I4119J7459D01*
G03X65650Y511290I606J-820D01*
G01X74350D01*
G03X74960Y513130I4J1020D01*
G02X86790Y525140I5036J6871D01*
G01X86950Y524940D01*
X87710D01*
Y526530D01*
X92470Y531290D01*
X147530D01*
X152290Y526530D01*
Y524940D01*
X153050D01*
X153210Y525140D01*
G02X154020Y513930I6791J-5144D01*
G03X152290Y513200I-710J-731D01*
G01Y506800D01*
G03X154020Y506070I1020J1D01*
G02X163520Y492240I5979J-6071D01*
G01Y487310D01*
G03X164650Y486290I1020J-6D01*
G02X161730Y482470I348J-3292D01*
G03X160010Y483030I-1005J-165D01*
G01X148460Y471480D01*
X126460D01*
X96520Y441540D01*
Y405460D01*
X144960Y357020D01*
G03X146700Y357800I721J722D01*
G02X147610Y360290I3302J204D01*
G03Y361710I-732J710D01*
G02X152390I2390J2290D01*
G03Y360290I732J-710D01*
G02X148120Y355280I-2393J-2285D01*
G03X146520Y354440I-579J-841D01*
G01Y302540D01*
X127520Y283540D01*
Y282400D01*
X128430Y282080D01*
G02X133290Y282390I2573J-2081D01*
G03X134710I710J732D01*
G02Y277610I2290J-2390D01*
G03X133290I-710J-732D01*
G02X129120Y277280I-2287J2391D01*
G03X127520Y276440I-579J-841D01*
G01Y253540D01*
X118520Y244540D01*
Y236000D01*
G02X117490Y233510I-3525J0D01*
G01X109460Y225480D01*
X93540D01*
X86510Y232510D01*
G02X86150Y232940I2510J2467D01*
G03X84770Y233200I-827J-597D01*
G02X80500Y238170I-1772J2797D01*
G03Y238830I-388J330D01*
G02X85680Y242940I2497J2173D01*
G03X87090Y242710I822J602D01*
G02X92060Y238730I1912J-2705D01*
G01X92020Y238640D01*
Y236960D01*
X93960Y235020D01*
G03X95700Y235800I721J722D01*
G02X96500Y238170I3302J205D01*
G03Y238830I-388J330D01*
G02X101500I2500J2170D01*
G03Y238170I388J-330D01*
G02X101720Y234120I-2501J-2167D01*
G03X102560Y232520I841J-579D01*
G01X106540D01*
X111480Y237460D01*
Y246190D01*
G03X109740Y246910I-1018J1D01*
G01X108530Y245710D01*
X79530D01*
X73290Y239470D01*
Y198470D01*
X66530Y191710D01*
G37*
G54D15*
X40000Y20000D03*
Y40000D03*
X20000D03*
X100000Y20000D03*
X80000D03*
X60000D03*
X100000Y40000D03*
X80000D03*
X60000D03*
X180000Y20000D03*
X160000D03*
X140000D03*
X120000D03*
X180000Y40000D03*
X160000D03*
X140000D03*
X120000D03*
X180000Y520000D03*
Y500000D03*
X260000Y20000D03*
X240000D03*
X220000D03*
X200000D03*
X260000Y40000D03*
X240000D03*
X220000D03*
X200000D03*
X260000Y520000D03*
X240000D03*
X220000D03*
X200000D03*
X260000Y500000D03*
X240000D03*
X220000D03*
X200000D03*
X340000Y20000D03*
X320000D03*
X300000D03*
X280000D03*
X340000Y40000D03*
X320000D03*
X300000D03*
X280000D03*
X340000Y520000D03*
X320000D03*
X300000D03*
X280000D03*
X340000Y500000D03*
X320000D03*
X300000D03*
X280000D03*
X420000Y20000D03*
X400000D03*
X380000D03*
X360000D03*
X420000Y40000D03*
X400000D03*
X380000D03*
X360000D03*
X420000Y520000D03*
X400000D03*
X380000D03*
X360000D03*
X420000Y500000D03*
X400000D03*
X380000D03*
X360000D03*
X480000Y20000D03*
X460000D03*
X440000D03*
X480000Y40000D03*
X460000D03*
X440000D03*
X480000Y520000D03*
X460000D03*
X440000D03*
Y500000D03*
X560000Y20000D03*
X540000D03*
X500000D03*
X560000Y40000D03*
X540000D03*
X520000D03*
X500000D03*
X560000Y520000D03*
X540000D03*
X520000D03*
X500000D03*
X560000Y500000D03*
X540000D03*
X520000D03*
X640000Y20000D03*
X620000D03*
X600000D03*
X580000D03*
X640000Y40000D03*
X620000D03*
X600000D03*
X580000D03*
X640000Y520000D03*
X620000D03*
X600000D03*
X580000D03*
X640000Y500000D03*
X620000D03*
X600000D03*
X580000D03*
X720000Y20000D03*
X700000D03*
X680000D03*
X660000D03*
X720000Y40000D03*
X700000D03*
X680000D03*
X660000D03*
X720000Y520000D03*
X700000D03*
X680000D03*
X660000D03*
X720000Y500000D03*
X700000D03*
X680000D03*
X660000D03*
X780000Y20000D03*
X760000D03*
X740000D03*
X800000Y40000D03*
X780000D03*
X760000D03*
X740000D03*
X800000Y520000D03*
X780000D03*
X760000D03*
X740000D03*
X800000Y500000D03*
X780000D03*
X760000D03*
X740000D03*
G54D16*
X11000Y133000D03*
X14000Y232000D03*
X69000Y85000D03*
X87000Y133000D03*
X55620Y154380D03*
X83000Y203000D03*
X157000Y81000D03*
X151000Y121000D03*
X133000Y122000D03*
X171000Y102000D03*
X131000Y231000D03*
X115000Y203000D03*
X143000Y253000D03*
X158000Y364000D03*
X174000D03*
X159000Y461500D03*
X143000Y460620D03*
X202000Y232000D03*
X232000Y287000D03*
X256000Y311000D03*
X258000Y368000D03*
X232000Y327000D03*
X256000Y351000D03*
X201000Y452000D03*
X274260Y216740D03*
X279000Y246000D03*
X274000Y293000D03*
Y283000D03*
Y273000D03*
X325000Y320000D03*
Y312000D03*
X320000Y370920D03*
X308000Y359000D03*
X314000Y453000D03*
X325620Y436620D03*
X398000Y120000D03*
X400000Y220000D03*
X393000Y240000D03*
Y213000D03*
Y267000D03*
X400000Y260000D03*
X352000Y336000D03*
X344000D03*
X420000Y213000D03*
X440000Y220000D03*
X447000Y240000D03*
Y213000D03*
X420000Y267000D03*
X440000Y260000D03*
X447000Y267000D03*
X509000Y156000D03*
Y190000D03*
X597000Y101920D03*
X581000Y161000D03*
%LPD*%
G75*
G36*
G01X52220Y254220D02*
X53870Y255870D01*
X54160Y255800D01*
G03X58200Y259840I840J3200D01*
G01X58130Y260130D01*
X63000Y265000D01*
Y335150D01*
G02X64490Y336060I1021J2D01*
G03Y341940I1510J2940D01*
G02X63000Y342850I-469J908D01*
G01Y371000D01*
X50000Y384000D01*
Y503000D01*
X57000Y510000D01*
X84000D01*
X88000Y506000D01*
Y493000D01*
X70000Y475000D01*
Y393000D01*
X109000Y354000D01*
Y308000D01*
X119000Y298000D01*
Y258000D01*
X108000Y247000D01*
X79000D01*
X72000Y240000D01*
Y199000D01*
X66000Y193000D01*
X35000D01*
X28000Y200000D01*
Y227780D01*
G02X29250Y228780I1021J5D01*
G03X32630Y234010I750J3223D01*
G01X32360Y234360D01*
X44870Y246870D01*
X45160Y246800D01*
G03X48290Y247610I842J3201D01*
G02X49710I710J-732D01*
G03X52530Y253270I2289J2392D01*
G02X52130Y253930I85J503D01*
G03X52180Y254090I-3132J1067D01*
G01X52220Y254220D01*
G37*
G36*
G01X22000Y259000D02*
X9000Y272000D01*
Y326860D01*
G02X10720Y327600I1020J-1D01*
G03Y332400I2280J2400D01*
G02X9000Y333140I-700J741D01*
G01Y506000D01*
X13000Y510000D01*
X44000D01*
X48000Y506000D01*
Y381000D01*
X59530Y369470D01*
X59660Y342440D01*
G02X58020Y341630I-1019J-2D01*
G03X58040Y336390I-2018J-2628D01*
G02X59690Y335600I631J-801D01*
G01X60000Y269000D01*
X50000Y259000D01*
X22000D01*
G37*
G36*
G01X121000Y299000D02*
X111000Y309000D01*
Y356000D01*
X73000Y394000D01*
Y476000D01*
X89000Y492000D01*
Y492180D01*
X89290Y492470D01*
Y506530D01*
X89000Y506820D01*
Y526000D01*
X93000Y530000D01*
X147000D01*
X151000Y526000D01*
Y488000D01*
X144000Y481000D01*
X124000D01*
X88000Y445000D01*
Y402000D01*
X139000Y351000D01*
Y306000D01*
X132000Y299000D01*
X121000D01*
G37*
G36*
G01X203000Y85000D02*
X126000Y162000D01*
Y211000D01*
X162000Y247000D01*
Y339000D01*
X176000Y353000D01*
X191000D01*
X203000Y341000D01*
Y256000D01*
X199040Y252040D01*
G02X197310Y252820I-713J727D01*
G03X194180Y249690I-3310J180D01*
G02X194960Y247960I53J-1017D01*
G01X155000Y208000D01*
Y176000D01*
X221000Y110000D01*
X408000D01*
X426000Y128000D01*
X519000D01*
X535000Y144000D01*
Y178000D01*
X515050Y197950D01*
G02X515120Y199460I720J723D01*
G03X512480Y205270I-2121J2541D01*
G02X511300Y206210I-162J1008D01*
G03X511290Y206320I-3297J-244D01*
G02X511960Y206860I509J54D01*
G03X512250Y213220I1044J3139D01*
G02X511000Y214220I-229J995D01*
G01Y217000D01*
X513000Y219000D01*
X518080D01*
X526000Y210880D01*
Y205000D01*
X580000Y151000D01*
Y114000D01*
X551000Y85000D01*
X203000D01*
G37*
G36*
G01X120290Y288730D02*
Y297710D01*
X129270D01*
G02X129990Y295970I-1J-1019D01*
G01X122030Y288010D01*
G02X120290Y288730I-721J721D01*
G37*
G36*
G01X296000Y220000D02*
X290000Y226000D01*
Y264000D01*
X359640Y333640D01*
X359990Y333370D01*
G03X364340Y338340I2009J2631D01*
G01X377000Y351000D01*
Y383000D01*
X373220Y386780D01*
X373180Y386910D01*
G03X370910Y389180I-3180J-910D01*
G01X370780Y389220D01*
X370000Y390000D01*
X131000D01*
X106000Y415000D01*
Y439000D01*
X110000Y443000D01*
X126000D01*
X130000Y439000D01*
Y427000D01*
X134000Y423000D01*
X342660D01*
X342720Y422560D01*
G03X349280I3280J440D01*
G01X349340Y423000D01*
X407000D01*
X429000Y401000D01*
Y332000D01*
X435000Y326000D01*
X491000D01*
X520000Y297000D01*
Y286000D01*
X514000Y280000D01*
X382000D01*
X322000Y220000D01*
X296000D01*
G37*
G36*
G01X634000Y88000D02*
X625000Y97000D01*
Y142000D01*
X589000Y178000D01*
X571000D01*
X507000Y242000D01*
Y269000D01*
X522000Y284000D01*
Y298000D01*
X492000Y328000D01*
X437000D01*
X432000Y333000D01*
Y401000D01*
X408000Y425000D01*
X385000D01*
X378000Y432000D01*
Y443360D01*
G03X379180Y445090I-2004J2634D01*
G01X379220Y445220D01*
X405000Y471000D01*
X733000D01*
X808000Y396000D01*
Y131000D01*
X765000Y88000D01*
X634000D01*
G37*
%LPC*%
G75*
G36*
G01X78830Y315500D02*
G03X78170I-330J-388D01*
G02Y320500I-2170J2500D01*
G03X78830I330J388D01*
G02Y315500I2170J-2500D01*
G37*
G36*
G01X108550Y281830D02*
G03X109890Y281120I990J249D01*
G02Y274880I1110J-3120D01*
G03X108550Y274170I-350J-959D01*
G02X96830Y262450I-15550J3830D01*
G03X96120Y261110I249J-990D01*
G02X89880I-3120J-1110D01*
G03X89170Y262450I-959J350D01*
G02X77450Y274170I3830J15550D01*
G03X76110Y274880I-990J-249D01*
G02Y281120I-1110J3120D01*
G03X77450Y281830I350J959D01*
G02X89170Y293550I15550J-3830D01*
G03X89880Y294890I-249J990D01*
G02X96120I3120J1110D01*
G03X96830Y293550I959J-350D01*
G02X108550Y281830I-3830J-15550D01*
G37*
G36*
G01X120710Y315610D02*
G03X119290I-710J-732D01*
G02Y320390I-2290J2390D01*
G03X120710I710J732D01*
G02Y315610I2290J-2390D01*
G37*
G36*
G01X379480Y332730D02*
G03X378300Y331790I-162J-1008D01*
G02X371700I-3300J210D01*
G03X370520Y332730I-1018J-68D01*
G02X373300Y336210I-522J3268D01*
G03X374480Y335270I1018J68D01*
G02X375520I520J-3270D01*
G03X376700Y336210I162J1008D01*
G02X379480Y332730I3302J-212D01*
G37*
G36*
G01X408230Y322270D02*
G02X406360Y326020I-3230J731D01*
G03X407770Y326730I415J930D01*
G02X411520Y329270I3229J-730D01*
G03X412700Y330210I162J1008D01*
G02X417580Y332910I3303J-209D01*
G03X418990Y333380I485J896D01*
G02X420420Y329090I3010J-1380D01*
G03X419010Y328620I-485J-896D01*
G02X415480Y326730I-3010J1380D01*
G03X414300Y325790I-162J-1008D01*
G02X409640Y322980I-3303J209D01*
G03X408230Y322270I-415J-930D01*
G37*
G36*
G01X739270Y357480D02*
G03X740210Y356300I1008J-162D01*
G02X736730Y353520I-212J-3302D01*
G03X735790Y354700I-1008J162D01*
G02Y361300I210J3300D01*
G03X736730Y362480I-68J1018D01*
G02X739790Y366300I3269J517D01*
G03X740730Y367480I-68J1018D01*
G02X743790Y371300I3269J517D01*
G03X744730Y372480I-68J1018D01*
G02X751270I3270J520D01*
G03X752210Y371300I1008J-162D01*
G02X748730Y368520I-212J-3302D01*
G03X747790Y369700I-1008J162D01*
G02X747680Y369710I244J3297D01*
G03X747140Y369040I-54J-509D01*
G02X744210Y364700I-3141J-1039D01*
G03X743270Y363520I68J-1018D01*
G02X740210Y359700I-3269J-517D01*
G03X739270Y358520I68J-1018D01*
G02Y357480I-3270J-520D01*
G37*
G36*
G01X728210Y354700D02*
G03X727270Y353520I68J-1018D01*
G02X720730I-3270J-520D01*
G03X719790Y354700I-1008J162D01*
G02X723270Y357480I212J3302D01*
G03X724210Y356300I1008J-162D01*
G02X724320Y356290I-244J-3297D01*
G03X724860Y356960I54J509D01*
G02X728210Y354700I3140J1041D01*
G37*
G36*
G01X712210D02*
G03X711270Y353520I68J-1018D01*
G02X704730I-3270J-520D01*
G03X703790Y354700I-1008J162D01*
G02X707270Y357480I212J3302D01*
G03X708210Y356300I1008J-162D01*
G02X708320Y356290I-244J-3297D01*
G03X708860Y356960I54J509D01*
G02X712210Y354700I3140J1041D01*
G37*
G36*
G01X760680Y329710D02*
G03X760140Y329040I-54J-509D01*
G02X753730Y328520I-3142J-1041D01*
G03X752790Y329700I-1008J162D01*
G02X751420Y330090I200J3303D01*
G03X750010Y329620I-485J-896D01*
G02X748580Y333910I-3010J1380D01*
G03X749990Y334380I485J896D01*
G02X756270Y332480I3011J-1377D01*
G03X757210Y331300I1008J-162D01*
G02X757320Y331290I-244J-3297D01*
G03X757860Y331960I54J509D01*
G02X764270Y332480I3142J1041D01*
G03X765210Y331300I1008J-162D01*
G02X765320Y331290I-244J-3297D01*
G03X765860Y331960I54J509D01*
G02X772270Y332480I3142J1041D01*
G03X773210Y331300I1008J-162D01*
G02X773320Y331290I-244J-3297D01*
G03X773860Y331960I54J509D01*
G02X780270Y332480I3142J1041D01*
G03X781210Y331300I1008J-162D01*
G02X781320Y331290I-244J-3297D01*
G03X781860Y331960I54J509D01*
G02X788270Y332480I3142J1041D01*
G03X789210Y331300I1008J-162D01*
G02X789320Y331290I-244J-3297D01*
G03X789860Y331960I54J509D01*
G02X796270Y332480I3142J1041D01*
G03X797210Y331300I1008J-162D01*
G02X793730Y328520I-212J-3302D01*
G03X792790Y329700I-1008J162D01*
G02X792680Y329710I244J3297D01*
G03X792140Y329040I-54J-509D01*
G02X785730Y328520I-3142J-1041D01*
G03X784790Y329700I-1008J162D01*
G02X784680Y329710I244J3297D01*
G03X784140Y329040I-54J-509D01*
G02X777730Y328520I-3142J-1041D01*
G03X776790Y329700I-1008J162D01*
G02X776680Y329710I244J3297D01*
G03X776140Y329040I-54J-509D01*
G02X769730Y328520I-3142J-1041D01*
G03X768790Y329700I-1008J162D01*
G02X768680Y329710I244J3297D01*
G03X768140Y329040I-54J-509D01*
G02X761730Y328520I-3142J-1041D01*
G03X760790Y329700I-1008J162D01*
G02X760680Y329710I244J3297D01*
G37*
G36*
G01X544480Y310730D02*
G03X543300Y309790I-162J-1008D01*
G02X540520Y313270I-3302J212D01*
G03X541700Y314210I162J1008D01*
G02X541710Y314320I3297J-244D01*
G03X541040Y314860I-509J54D01*
G02X543300Y318210I-1041J3140D01*
G03X544480Y317270I1018J68D01*
G02Y310730I520J-3270D01*
G37*
G36*
G01X678390Y242710D02*
G03Y241290I732J-710D01*
G02X673610I-2390J-2290D01*
G03Y242710I-732J710D01*
G02X678390I2390J2290D01*
G37*
G36*
G01X668390D02*
G03Y241290I732J-710D01*
G02X663610I-2390J-2290D01*
G03Y242710I-732J710D01*
G02X668390I2390J2290D01*
G37*
G36*
G01X739270Y209480D02*
G03X740210Y208300I1008J-162D01*
G02X736730Y205520I-212J-3302D01*
G03X735790Y206700I-1008J162D01*
G02Y213300I210J3300D01*
G03X736730Y214480I-68J1018D01*
G02X739790Y218300I3269J517D01*
G03X740730Y219480I-68J1018D01*
G02X743790Y223300I3269J517D01*
G03X744730Y224480I-68J1018D01*
G02X751270I3270J520D01*
G03X752210Y223300I1008J-162D01*
G02X748730Y220520I-212J-3302D01*
G03X747790Y221700I-1008J162D01*
G02X747680Y221710I244J3297D01*
G03X747140Y221040I-54J-509D01*
G02X744210Y216700I-3141J-1039D01*
G03X743270Y215520I68J-1018D01*
G02X740210Y211700I-3269J-517D01*
G03X739270Y210520I68J-1018D01*
G02Y209480I-3270J-520D01*
G37*
G36*
G01X728210Y206700D02*
G03X727270Y205520I68J-1018D01*
G02X720730I-3270J-520D01*
G03X719790Y206700I-1008J162D01*
G02X723270Y209480I212J3302D01*
G03X724210Y208300I1008J-162D01*
G02X724320Y208290I-244J-3297D01*
G03X724860Y208960I54J509D01*
G02X728210Y206700I3140J1041D01*
G37*
G36*
G01X760680Y181710D02*
G03X760140Y181040I-54J-509D01*
G02X753730Y180520I-3142J-1041D01*
G03X752790Y181700I-1008J162D01*
G02X751420Y182090I200J3303D01*
G03X750010Y181620I-485J-896D01*
G02X748580Y185910I-3010J1380D01*
G03X749990Y186380I485J896D01*
G02X756270Y184480I3011J-1377D01*
G03X757210Y183300I1008J-162D01*
G02X757320Y183290I-244J-3297D01*
G03X757860Y183960I54J509D01*
G02X764270Y184480I3142J1041D01*
G03X765210Y183300I1008J-162D01*
G02X765320Y183290I-244J-3297D01*
G03X765860Y183960I54J509D01*
G02X772270Y184480I3142J1041D01*
G03X773210Y183300I1008J-162D01*
G02X773320Y183290I-244J-3297D01*
G03X773860Y183960I54J509D01*
G02X780270Y184480I3142J1041D01*
G03X781210Y183300I1008J-162D01*
G02X781320Y183290I-244J-3297D01*
G03X781860Y183960I54J509D01*
G02X788270Y184480I3142J1041D01*
G03X789210Y183300I1008J-162D01*
G02X789320Y183290I-244J-3297D01*
G03X789860Y183960I54J509D01*
G02X796270Y184480I3142J1041D01*
G03X797210Y183300I1008J-162D01*
G02X793730Y180520I-212J-3302D01*
G03X792790Y181700I-1008J162D01*
G02X792680Y181710I244J3297D01*
G03X792140Y181040I-54J-509D01*
G02X785730Y180520I-3142J-1041D01*
G03X784790Y181700I-1008J162D01*
G02X784680Y181710I244J3297D01*
G03X784140Y181040I-54J-509D01*
G02X777730Y180520I-3142J-1041D01*
G03X776790Y181700I-1008J162D01*
G02X776680Y181710I244J3297D01*
G03X776140Y181040I-54J-509D01*
G02X769730Y180520I-3142J-1041D01*
G03X768790Y181700I-1008J162D01*
G02X768680Y181710I244J3297D01*
G03X768140Y181040I-54J-509D01*
G02X761730Y180520I-3142J-1041D01*
G03X760790Y181700I-1008J162D01*
G02X760680Y181710I244J3297D01*
G37*
G36*
G01X688710Y170610D02*
G03X687290I-710J-732D01*
G02Y175390I-2290J2390D01*
G03X688710I710J732D01*
G02Y170610I2290J-2390D01*
G37*
G36*
G01X687290Y318610D02*
G02X684270Y324230I-2290J2391D01*
G03X684980Y325640I-220J995D01*
G02X691020I3020J1360D01*
G03X691730Y324230I930J-415D01*
G02X688710Y318610I-730J-3229D01*
G03X687290I-710J-732D01*
G37*
G36*
G01X550950Y273680D02*
G02X547050I-1950J-2680D01*
G03Y275320I-599J820D01*
G02X550950I1950J2680D01*
G03Y273680I599J-820D01*
G37*
G36*
G01X573940Y226680D02*
G02X569290Y225910I-1945J-2680D01*
G03X569060Y227320I-832J588D01*
G02X569520Y232960I1941J2680D01*
G03X569870Y234490I-460J910D01*
G02X570520Y239150I2630J2008D01*
G03X570640Y240680I-611J818D01*
G02X574980Y240350I2359J2321D01*
G03X574860Y238820I611J-818D01*
G02X573980Y233540I-2360J-2320D01*
G03X573630Y232010I460J-910D01*
G02X573710Y228090I-2629J-2014D01*
G03X573940Y226680I832J-588D01*
G37*
G36*
G01X573950Y210680D02*
G02X570050I-1950J-2680D01*
G03Y212320I-599J820D01*
G02X573950I1950J2680D01*
G03Y210680I599J-820D01*
G37*
G36*
G01X711270Y205520D02*
G02X704730I-3270J-520D01*
G03X703790Y206700I-1008J162D01*
G02X704000Y213310I210J3302D01*
G03X704950Y214720I7J1021D01*
G02X711050I3050J1280D01*
G03X712000Y213310I943J-389D01*
G02X712210Y206700I0J-3308D01*
G03X711270Y205520I68J-1018D01*
G37*
G36*
G01X705310Y127000D02*
G02X703280Y130050I-3306J0D01*
G03X704690Y131000I389J943D01*
G02X706720Y127950I3306J0D01*
G03X705310Y127000I-389J-943D01*
G37*
G54D15*
X100000Y500000D03*
X140000Y520000D03*
Y500000D03*
X120000D03*
G54D16*
X67000Y203000D03*
X44920Y233080D03*
X76000Y261000D03*
X110000Y295000D03*
Y261000D03*
X76000Y295000D03*
X95000Y316000D03*
X91000Y323000D03*
X79000Y347000D03*
X33000Y320000D03*
X14000Y302000D03*
X28000Y327000D03*
Y338000D03*
X54000Y310000D03*
X45000Y296000D03*
X51000Y291000D03*
X46000Y320000D03*
X35000Y352000D03*
X38380Y371000D03*
X134000Y347000D03*
X118000D03*
X186080Y110080D03*
X147000Y203000D03*
X131000D03*
X171000Y253000D03*
X398000Y99000D03*
X370000D03*
X436000D03*
X459000D03*
X478000D03*
X426000D03*
X449000D03*
X555000Y152000D03*
X551000Y127000D03*
X540000D03*
X494000Y99000D03*
X529000Y127000D03*
X573000Y126000D03*
X258000Y407000D03*
X327000Y261000D03*
X309000Y412000D03*
X320380Y401620D03*
X390000Y336080D03*
X392000Y386000D03*
X382000D03*
X374000Y395000D03*
X406000D03*
X370000Y415000D03*
X489000Y382000D03*
X452000Y388000D03*
X559080Y235000D03*
X561000Y269000D03*
X559080Y296000D03*
X541000Y266000D03*
X559080Y329000D03*
X540000Y328000D03*
X565000Y336000D03*
X644000Y131000D03*
X572000Y198000D03*
X640000Y188000D03*
X643380Y249620D03*
X591080Y247080D03*
X644000Y279000D03*
X612000Y380000D03*
X624000Y381000D03*
X613000Y353000D03*
X640000Y336000D03*
X647000Y96000D03*
X660000D03*
X684000D03*
X672000D03*
X716000D03*
X696000Y132000D03*
X680000Y148000D03*
X648000Y140000D03*
X696000Y148000D03*
X668000Y131000D03*
X652000D03*
X659500Y222500D03*
X696000Y239000D03*
X692000Y210000D03*
X712000Y188000D03*
X648000D03*
X664000D03*
X660000Y205000D03*
X668000D03*
X679980Y187980D03*
X656620Y249620D03*
X659500Y261500D03*
X696000Y280000D03*
X704000Y273000D03*
X712000Y288000D03*
X648000D03*
X680000Y296000D03*
X652000Y279000D03*
X668000D03*
X696000Y296000D03*
X652000Y381000D03*
X704000Y327000D03*
X714000Y382000D03*
X696000D03*
X692000Y358000D03*
X668000Y353000D03*
X648000Y336000D03*
X660000Y353000D03*
X664000Y336000D03*
X705000Y460000D03*
X677000Y457000D03*
X775000Y105000D03*
X766000D03*
X732000Y96000D03*
X724000Y131000D03*
X740000D03*
X732000Y242000D03*
X724000D03*
X727980Y287980D03*
X736000Y280000D03*
X730000Y382000D03*
X797000Y150000D03*
X799000Y365000D03*
%LPD*%
G75*
G54D10*
X40000Y40000D03*
X20000D03*
X40000Y20000D03*
X20000D03*
X40000Y500000D03*
X20000D03*
X40000Y520000D03*
X20000D03*
X100000Y40000D03*
X80000D03*
X60000D03*
X100000Y20000D03*
X80000D03*
X60000D03*
X100000Y500000D03*
X80000D03*
X60000D03*
X100000Y520000D03*
X80000D03*
X60000D03*
X160000Y40000D03*
X140000D03*
X120000D03*
X160000Y20000D03*
X140000D03*
X120000D03*
X160000Y500000D03*
X140000D03*
X120000D03*
X160000Y520000D03*
X140000D03*
X120000D03*
X200000Y40000D03*
X180000D03*
X200000Y20000D03*
X180000D03*
X200000Y500000D03*
X180000D03*
X200000Y520000D03*
X180000D03*
X260000Y40000D03*
X240000D03*
X220000D03*
X260000Y20000D03*
X240000D03*
X220000D03*
X260000Y500000D03*
X240000D03*
X220000D03*
X260000Y520000D03*
X240000D03*
X220000D03*
X320000Y40000D03*
X300000D03*
X280000D03*
X320000Y20000D03*
X300000D03*
X280000D03*
X320000Y500000D03*
X300000D03*
X280000D03*
X320000Y520000D03*
X300000D03*
X280000D03*
X380000Y40000D03*
X360000D03*
X340000D03*
X380000Y20000D03*
X360000D03*
X340000D03*
X380000Y500000D03*
X360000D03*
X340000D03*
X380000Y520000D03*
X360000D03*
X340000D03*
X420000Y40000D03*
X400000D03*
X420000Y20000D03*
X400000D03*
X420000Y500000D03*
X400000D03*
X420000Y520000D03*
X400000D03*
X480000Y40000D03*
X460000D03*
X440000D03*
X480000Y20000D03*
X460000D03*
X440000D03*
X480000Y500000D03*
X460000D03*
X440000D03*
X480000Y520000D03*
X460000D03*
X440000D03*
X540000Y40000D03*
X520000D03*
X500000D03*
X540000Y20000D03*
X520000D03*
X500000D03*
X540000Y500000D03*
X520000D03*
X500000D03*
X540000Y520000D03*
X520000D03*
X500000D03*
X600000Y40000D03*
X580000D03*
X560000D03*
X600000Y20000D03*
X580000D03*
X560000D03*
X600000Y500000D03*
X580000D03*
X560000D03*
X600000Y520000D03*
X580000D03*
X560000D03*
X640000Y40000D03*
X620000D03*
X640000Y20000D03*
X620000D03*
X640000Y500000D03*
X620000D03*
X640000Y520000D03*
X620000D03*
X700000Y40000D03*
X680000D03*
X660000D03*
X700000Y20000D03*
X680000D03*
X660000D03*
X700000Y500000D03*
X680000D03*
X660000D03*
X700000Y520000D03*
X680000D03*
X660000D03*
X760000Y40000D03*
X740000D03*
X720000D03*
X760000Y20000D03*
X740000D03*
X720000D03*
X760000Y500000D03*
X740000D03*
X720000D03*
X760000Y520000D03*
X740000D03*
X720000D03*
X800000Y40000D03*
X780000D03*
X800000Y20000D03*
X780000D03*
X800000Y500000D03*
X780000D03*
X800000Y520000D03*
X780000D03*
G54D11*
X24000Y64000D03*
X11000Y133000D03*
X45000Y198000D03*
X39000D03*
X45000Y204000D03*
X39000D03*
X8000Y183000D03*
X44920Y233080D03*
X14000Y232000D03*
X30000D03*
X43000Y264000D03*
X37000D03*
Y270000D03*
X43000D03*
X31000Y264000D03*
Y270000D03*
X46000Y250000D03*
X40000D03*
X43000Y255000D03*
X37000D03*
X28000Y327000D03*
X46000Y320000D03*
X14000Y302000D03*
X33000Y320000D03*
X45000Y296000D03*
X13000Y330000D03*
X38380Y371000D03*
X35000Y352000D03*
X28000Y338000D03*
X69000Y85000D03*
X71000Y71000D03*
X77000D03*
X51000Y64000D03*
X97000D03*
X55620Y154380D03*
X87000Y133000D03*
X80000Y117000D03*
X87000D03*
X83000Y203000D03*
X67000D03*
X51000Y198000D03*
Y204000D03*
X57000Y198000D03*
Y204000D03*
X76000Y261000D03*
X93000Y260000D03*
X75000Y278000D03*
X89000Y235000D03*
Y240000D03*
X49000Y264000D03*
Y270000D03*
X55000D03*
X52000Y250000D03*
X49000Y255000D03*
X55000Y259000D03*
X99000Y236000D03*
Y241000D03*
X83000Y236000D03*
Y241000D03*
X76000Y295000D03*
X93000Y296000D03*
X51000Y291000D03*
X95000Y316000D03*
X91000Y323000D03*
X81000Y318000D03*
X76000D03*
X54000Y310000D03*
X79000Y347000D03*
X66000Y339000D03*
X56000D03*
X157000Y81000D03*
X137000Y100000D03*
X124000Y94000D03*
X149000Y112000D03*
Y106000D03*
Y100000D03*
Y94000D03*
X143000D03*
X137000D03*
X131000D03*
X124000Y100000D03*
X131000D03*
X134000Y107000D03*
X117000Y136000D03*
X131000D03*
X124000D03*
X117000Y124000D03*
X131000Y130000D03*
X124000D03*
X117000D03*
X133000Y122000D03*
X151000Y121000D03*
X115000Y203000D03*
X131000D03*
X147000D03*
X110000Y261000D03*
X111000Y278000D03*
X115000Y236000D03*
X143000Y253000D03*
X131000Y231000D03*
X110000Y295000D03*
X127000Y304000D03*
X133000Y310000D03*
X134000Y318000D03*
X123000D03*
X117000D03*
X137000Y280000D03*
X131000D03*
X118000Y347000D03*
X134000D03*
X150000Y364000D03*
Y358000D03*
X124000Y422000D03*
X117000D03*
X110000D03*
X124000Y430000D03*
X117000D03*
X110000D03*
X124000Y438000D03*
X117000D03*
X110000D03*
X147000Y431000D03*
X153000Y437000D03*
X147000D03*
X153000Y431000D03*
X141000D03*
Y437000D03*
X143000Y460620D03*
X141000Y443000D03*
X171000Y102000D03*
X186080Y110080D03*
X198000Y138000D03*
X196000Y198000D03*
X190000D03*
X184000D03*
X178000D03*
X172000D03*
X193000Y204000D03*
X187000D03*
X181000D03*
X175000D03*
X169000D03*
X163000D03*
X196000Y210000D03*
X190000D03*
X184000D03*
X196000Y216000D03*
X190000D03*
X184000D03*
X196000Y222000D03*
X190000D03*
X184000D03*
X194000Y253000D03*
X171000D03*
X202000Y232000D03*
X212000Y260000D03*
X190000Y332000D03*
X198000D03*
X182000D03*
X174000D03*
X166000D03*
X158000Y364000D03*
X174000D03*
X190000Y340000D03*
X182000D03*
X190000Y348000D03*
X182000D03*
X211000Y442000D03*
X159000Y437000D03*
Y431000D03*
X201000Y452000D03*
X207000Y446000D03*
X159000Y461500D03*
X165000Y483000D03*
X242000Y237000D03*
X219000Y254000D03*
X213000Y267000D03*
X256000Y263000D03*
X223000Y260000D03*
X240000Y230000D03*
X232000Y287000D03*
Y327000D03*
X256000Y311000D03*
Y351000D03*
X258000Y368000D03*
Y407000D03*
Y397000D03*
X292000Y55000D03*
X284000Y78000D03*
X290000D03*
X274260Y216740D03*
X274000Y273000D03*
X279000Y246000D03*
X299000D03*
X297000Y227000D03*
X274000Y293000D03*
Y283000D03*
X298000Y294000D03*
Y282000D03*
X301000Y330000D03*
X299000Y324000D03*
X308000Y359000D03*
X320000Y370920D03*
Y358000D03*
X320380Y401620D03*
X309000Y412000D03*
X314000Y453000D03*
X308000Y467000D03*
X302000D03*
X308000Y461000D03*
X302000D03*
X314000Y473000D03*
X308000D03*
X302000D03*
X314000Y479000D03*
X308000D03*
X314000Y467000D03*
X309000Y444000D03*
X370000Y99000D03*
X357000Y163000D03*
X362000Y159000D03*
X370000Y120000D03*
X329000Y250000D03*
Y243000D03*
X327000Y261000D03*
X324000Y290000D03*
X325000Y320000D03*
Y312000D03*
X375000Y332000D03*
X370000Y386000D03*
X360000D03*
X348000D03*
X370000Y336000D03*
X338000Y386000D03*
X326000D03*
X362000Y336000D03*
X370000Y364000D03*
X344000Y336000D03*
X352000D03*
X324000Y363000D03*
X346000Y423000D03*
X370000Y415000D03*
X325620Y436620D03*
X374000Y395000D03*
X350000Y466000D03*
X372000Y459000D03*
X350000Y473000D03*
X426000Y99000D03*
X398000D03*
Y120000D03*
X426000D03*
X420000Y213000D03*
Y222000D03*
X400000Y220000D03*
X393000Y213000D03*
X420000Y258000D03*
Y267000D03*
X393000Y240000D03*
X402000D03*
X407000Y227000D03*
Y253000D03*
X400000Y260000D03*
X393000Y267000D03*
X422000Y332000D03*
X416000Y330000D03*
X411000Y326000D03*
X405000Y323000D03*
X382000Y386000D03*
X392000D03*
Y365000D03*
X390000Y336080D03*
X380000Y336000D03*
X406000Y395000D03*
X426000Y438000D03*
X418000D03*
X410000D03*
X402000D03*
X394000D03*
X386000D03*
X376000Y446000D03*
Y453000D03*
X426000Y446000D03*
X418000D03*
X410000D03*
X402000D03*
X394000D03*
X478000Y99000D03*
X449000D03*
X459000D03*
X436000D03*
X478000Y120000D03*
X458000D03*
X434000Y144000D03*
X454000Y143920D03*
X436000Y150000D03*
X440000Y220000D03*
X447000Y213000D03*
Y240000D03*
X438000D03*
X433000Y227000D03*
Y253000D03*
X440000Y260000D03*
X447000Y267000D03*
X452000Y388000D03*
X438000Y336000D03*
X474000D03*
X434000Y430000D03*
Y438000D03*
Y446000D03*
X494000Y99000D03*
X529000Y127000D03*
X494000Y120000D03*
X529000Y148000D03*
X509000Y156000D03*
X515000Y216000D03*
X516000Y170000D03*
X508000Y198000D03*
X513000Y202000D03*
X508000Y206000D03*
X513000Y210000D03*
X509000Y190000D03*
X516080Y270000D03*
X516000Y242000D03*
Y290000D03*
Y322000D03*
X489000Y382000D03*
X581000Y161000D03*
X573000Y126000D03*
X540000Y127000D03*
X551000D03*
X555000Y152000D03*
X540000Y148000D03*
Y162930D03*
X546000Y148000D03*
X544000Y192000D03*
X572000Y224000D03*
Y198000D03*
Y208000D03*
Y215000D03*
X540000Y171000D03*
X547500Y172500D03*
X591080Y247080D03*
X561000Y269000D03*
X559080Y235000D03*
X571000Y230000D03*
X573000Y243000D03*
X572500Y236500D03*
X541000Y266000D03*
X549000Y271000D03*
Y278000D03*
X580920Y247000D03*
X559080Y329000D03*
Y296000D03*
X540000Y310000D03*
X545000Y314000D03*
X540000Y328000D03*
Y318000D03*
X548920Y329080D03*
X565000Y336000D03*
X584000Y380000D03*
X647000Y96000D03*
X597000Y101920D03*
X636000Y96000D03*
X648000Y140000D03*
X644000Y131000D03*
X647000Y118000D03*
X638000Y144000D03*
X648000Y188000D03*
X640000D03*
X644000Y205000D03*
X643380Y249620D03*
X643000Y234380D03*
X640000Y261500D03*
X644920Y227000D03*
X648000Y288000D03*
X644000Y279000D03*
X638000Y292000D03*
X648000Y336000D03*
X640000D03*
X624000Y381000D03*
X613000Y353000D03*
X612000Y380000D03*
X644000Y353000D03*
Y381000D03*
X660000Y96000D03*
X672000D03*
X684000D03*
X702000Y127000D03*
X652000Y131000D03*
X668000D03*
X680000Y148000D03*
X696000D03*
X660000Y131000D03*
X680000Y140000D03*
X696000D03*
X660000Y118000D03*
X672000D03*
X696000Y132000D03*
X660000Y205000D03*
X668000D03*
X664000Y188000D03*
X679980Y187980D03*
X659500Y222500D03*
X685000Y173000D03*
X691000D03*
X692000Y210000D03*
X652000Y205000D03*
X676000D03*
X668000Y179000D03*
X696000Y188000D03*
X666000Y219000D03*
X656620Y249620D03*
X666000Y245000D03*
X676000D03*
Y239000D03*
X696000D03*
X666000D03*
X659500Y261500D03*
X657000Y234380D03*
X676000Y265000D03*
X666000D03*
X688000Y327000D03*
X652000Y279000D03*
X668000D03*
X696000Y296000D03*
X680000D03*
X685000Y321000D03*
X691000D03*
X668000Y327000D03*
X660000Y279000D03*
X680000Y288000D03*
X696000D03*
Y280000D03*
X660000Y353000D03*
X668000D03*
X664000Y336000D03*
X652000Y381000D03*
X696000Y382000D03*
X692000Y358000D03*
X652000Y353000D03*
X676000D03*
X696000Y336000D03*
X671000Y381000D03*
X683000Y460000D03*
X677000Y457000D03*
X732000Y96000D03*
X716000D03*
X724000Y131000D03*
X740000D03*
X708000D03*
X732000D03*
X716000D03*
X712000Y188000D03*
X724000Y205000D03*
X740000D03*
X708000D03*
Y216000D03*
X736000Y210000D03*
X728000D03*
X740000Y215000D03*
X744000Y220000D03*
X704000Y210000D03*
X720000D03*
X752000Y220000D03*
X712000Y210000D03*
X753000Y185000D03*
X747000Y183000D03*
X757000Y180000D03*
X732000Y205000D03*
Y216000D03*
X716000Y205000D03*
X724000Y216000D03*
X704000Y273000D03*
X724000Y242000D03*
X732000D03*
X748000Y225000D03*
X712000Y269000D03*
X704000Y327000D03*
X727980Y287980D03*
X736000Y280000D03*
X712000Y288000D03*
X753000Y333000D03*
X747000Y331000D03*
X757000Y328000D03*
X728020Y280020D03*
X712000Y280000D03*
X724000Y353000D03*
X740000D03*
X730000Y382000D03*
X708000Y353000D03*
X714000Y382000D03*
X736000Y358000D03*
X728000D03*
X740000Y363000D03*
X744000Y368000D03*
X704000Y358000D03*
X748000Y373000D03*
X720000Y358000D03*
X752000Y368000D03*
X712000Y358000D03*
X732000Y353000D03*
X716000D03*
X705000Y460000D03*
X775000Y105000D03*
X766000D03*
X797000Y150000D03*
X773000Y140000D03*
X766000D03*
X769000Y185000D03*
X777000D03*
X773000Y180000D03*
X781000D03*
X797000D03*
X789000D03*
X785000Y185000D03*
X765000Y180000D03*
X761000Y185000D03*
X797000Y171000D03*
X793000Y185000D03*
X769000Y333000D03*
X777000D03*
X773000Y328000D03*
X781000D03*
X797000D03*
X789000D03*
X785000Y333000D03*
X765000Y328000D03*
X761000Y333000D03*
X793000D03*
X799000Y365000D03*
Y345000D03*
G54D12*
X93000Y278000D03*
X420000Y240000D03*
G54D13*
G01X89000D02*
Y235000D01*
G54D14*
G01X115000Y236000D02*
X108000Y229000D01*
X95000D01*
X89000Y235000D01*
G01X115000Y236000D02*
Y246000D01*
X124000Y255000D01*
Y285000D01*
X143000Y304000D01*
Y354000D01*
X93000Y404000D01*
Y443000D01*
X125000Y475000D01*
X147000D01*
X160000Y488000D01*
Y500000D01*
M02*
