G04 ================== begin FILE IDENTIFICATION RECORD ==================*
G04 Layout Name:  E:/HARDWARE/PCB/Allegro/PROJECT/A13_SODIMM/PCB/A13_SODIMM_03.brd*
G04 Film Name:    SOLDERMASK_TOP*
G04 File Format:  Gerber RS274X*
G04 File Origin:  Cadence Allegro 16.3-p003*
G04 Origin Date:  Tue Jan 29 13:24:02 2013*
G04 *
G04 Layer:  BOARD GEOMETRY/SOLDERMASK_TOP*
G04 Layer:  VIA CLASS/SOLDERMASK_TOP*
G04 Layer:  PIN/SOLDERMASK_TOP*
G04 Layer:  PACKAGE GEOMETRY/SOLDERMASK_TOP*
G04 *
G04 Offset:    (0.000 0.000)*
G04 Mirror:    No*
G04 Mode:      Positive*
G04 Rotation:  0*
G04 FullContactRelief:  No*
G04 UndefLineWidth:     0.200*
G04 ================== end FILE IDENTIFICATION RECORD ====================*
%FSLAX34Y34*MOMM*%
%IR0*IPPOS*OFA0.00000B0.00000*MIA0B0*SFA1.00000B1.00000*%
%AMMACRO28*
4,1,40,2.45,-.85,
2.45,.85,
2.448481,.867365,
2.443969,.884202,
2.436603,.9,
2.426604,.914279,
2.414279,.926604,
2.4,.936603,
2.384202,.943969,
2.367365,.948481,
2.35,.95,
-2.35,.95,
-2.367365,.948481,
-2.384202,.943969,
-2.4,.936603,
-2.414279,.926604,
-2.426604,.914279,
-2.436603,.9,
-2.443969,.884202,
-2.448481,.867365,
-2.45,.85,
-2.45,-.85,
-2.448481,-.867365,
-2.443969,-.884202,
-2.436603,-.9,
-2.426604,-.914279,
-2.414279,-.926604,
-2.4,-.936603,
-2.384202,-.943969,
-2.367365,-.948481,
-2.35,-.95,
2.35,-.95,
2.367365,-.948481,
2.384202,-.943969,
2.4,-.936603,
2.414279,-.926604,
2.426604,-.914279,
2.436603,-.9,
2.443969,-.884202,
2.448481,-.867365,
2.45,-.85,
0.0*
%
%ADD28MACRO28*%
%AMMACRO26*
4,1,40,-.85,-2.45,
.85,-2.45,
.867365,-2.448481,
.884202,-2.443969,
.9,-2.436603,
.914279,-2.426604,
.926604,-2.414279,
.936603,-2.4,
.943969,-2.384202,
.948481,-2.367365,
.95,-2.35,
.95,2.35,
.948481,2.367365,
.943969,2.384202,
.936603,2.4,
.926604,2.414279,
.914279,2.426604,
.9,2.436603,
.884202,2.443969,
.867365,2.448481,
.85,2.45,
-.85,2.45,
-.867365,2.448481,
-.884202,2.443969,
-.9,2.436603,
-.914279,2.426604,
-.926604,2.414279,
-.936603,2.4,
-.943969,2.384202,
-.948481,2.367365,
-.95,2.35,
-.95,-2.35,
-.948481,-2.367365,
-.943969,-2.384202,
-.936603,-2.4,
-.926604,-2.414279,
-.914279,-2.426604,
-.9,-2.436603,
-.884202,-2.443969,
-.867365,-2.448481,
-.85,-2.45,
0.0*
%
%ADD26MACRO26*%
%AMMACRO17*
4,1,40,-.315,-.915,
.315,-.915,
.332365,-.913481,
.349202,-.908969,
.365,-.901603,
.379279,-.891604,
.391604,-.879279,
.401603,-.865,
.408969,-.849202,
.413481,-.832365,
.415,-.815,
.415,.815,
.413481,.832365,
.408969,.849202,
.401603,.865,
.391604,.879279,
.379279,.891604,
.365,.901603,
.349202,.908969,
.332365,.913481,
.315,.915,
-.315,.915,
-.332365,.913481,
-.349202,.908969,
-.365,.901603,
-.379279,.891604,
-.391604,.879279,
-.401603,.865,
-.408969,.849202,
-.413481,.832365,
-.415,.815,
-.415,-.815,
-.413481,-.832365,
-.408969,-.849202,
-.401603,-.865,
-.391604,-.879279,
-.379279,-.891604,
-.365,-.901603,
-.349202,-.908969,
-.332365,-.913481,
-.315,-.915,
0.0*
%
%ADD17MACRO17*%
%ADD29O,1.5X.8*%
%ADD19C,2.*%
%ADD25O,.8X1.5*%
%ADD24C,3.2*%
%ADD34O,.4X1.85*%
%ADD33O,1.85X.4*%
%ADD10C,1.6*%
%ADD11R,1.6X1.6*%
%ADD13O,2.37X.808*%
%ADD16R,.965X1.041*%
%ADD18R,1.041X.965*%
%ADD21R,4.35X4.35*%
%AMMACRO23*
4,1,40,-.45,.05,
-.45,-.05,
-.448481,-.067365,
-.443969,-.084202,
-.436603,-.1,
-.426604,-.114279,
-.414279,-.126604,
-.4,-.136603,
-.384202,-.143969,
-.367365,-.148481,
-.35,-.15,
.35,-.15,
.367365,-.148481,
.384202,-.143969,
.4,-.136603,
.414279,-.126604,
.426604,-.114279,
.436603,-.1,
.443969,-.084202,
.448481,-.067365,
.45,-.05,
.45,.05,
.448481,.067365,
.443969,.084202,
.436603,.1,
.426604,.114279,
.414279,.126604,
.4,.136603,
.384202,.143969,
.367365,.148481,
.35,.15,
-.35,.15,
-.367365,.148481,
-.384202,.143969,
-.4,.136603,
-.414279,.126604,
-.426604,.114279,
-.436603,.1,
-.443969,.084202,
-.448481,.067365,
-.45,.05,
0.0*
%
%ADD23MACRO23*%
%AMMACRO22*
4,1,40,.05,.45,
-.05,.45,
-.067365,.448481,
-.084202,.443969,
-.1,.436603,
-.114279,.426604,
-.126604,.414279,
-.136603,.4,
-.143969,.384202,
-.148481,.367365,
-.15,.35,
-.15,-.35,
-.148481,-.367365,
-.143969,-.384202,
-.136603,-.4,
-.126604,-.414279,
-.114279,-.426604,
-.1,-.436603,
-.084202,-.443969,
-.067365,-.448481,
-.05,-.45,
.05,-.45,
.067365,-.448481,
.084202,-.443969,
.1,-.436603,
.114279,-.426604,
.126604,-.414279,
.136603,-.4,
.143969,-.384202,
.148481,-.367365,
.15,-.35,
.15,.35,
.148481,.367365,
.143969,.384202,
.136603,.4,
.126604,.414279,
.114279,.426604,
.1,.436603,
.084202,.443969,
.067365,.448481,
.05,.45,
0.0*
%
%ADD22MACRO22*%
%AMMACRO30*
4,1,40,-.2,.31,
-.2,-.31,
-.198481,-.327365,
-.193969,-.344202,
-.186603,-.36,
-.176604,-.374279,
-.164279,-.386604,
-.15,-.396603,
-.134202,-.403969,
-.117365,-.408481,
-.1,-.41,
.1,-.41,
.117365,-.408481,
.134202,-.403969,
.15,-.396603,
.164279,-.386604,
.176604,-.374279,
.186603,-.36,
.193969,-.344202,
.198481,-.327365,
.2,-.31,
.2,.31,
.198481,.327365,
.193969,.344202,
.186603,.36,
.176604,.374279,
.164279,.386604,
.15,.396603,
.134202,.403969,
.117365,.408481,
.1,.41,
-.1,.41,
-.117365,.408481,
-.134202,.403969,
-.15,.396603,
-.164279,.386604,
-.176604,.374279,
-.186603,.36,
-.193969,.344202,
-.198481,.327365,
-.2,.31,
0.0*
%
%ADD30MACRO30*%
%AMMACRO14*
4,1,40,-.95,.65,
-.95,-.65,
-.948481,-.667365,
-.943969,-.684202,
-.936603,-.7,
-.926604,-.714279,
-.914279,-.726604,
-.9,-.736603,
-.884202,-.743969,
-.867365,-.748481,
-.85,-.75,
.85,-.75,
.867365,-.748481,
.884202,-.743969,
.9,-.736603,
.914279,-.726604,
.926604,-.714279,
.936603,-.7,
.943969,-.684202,
.948481,-.667365,
.95,-.65,
.95,.65,
.948481,.667365,
.943969,.684202,
.936603,.7,
.926604,.714279,
.914279,.726604,
.9,.736603,
.884202,.743969,
.867365,.748481,
.85,.75,
-.85,.75,
-.867365,.748481,
-.884202,.743969,
-.9,.736603,
-.914279,.726604,
-.926604,.714279,
-.936603,.7,
-.943969,.684202,
-.948481,.667365,
-.95,.65,
0.0*
%
%ADD14MACRO14*%
%AMMACRO37*
4,1,40,-2.45,.85,
-2.45,-.85,
-2.448481,-.867365,
-2.443969,-.884202,
-2.436603,-.9,
-2.426604,-.914279,
-2.414279,-.926604,
-2.4,-.936603,
-2.384202,-.943969,
-2.367365,-.948481,
-2.35,-.95,
2.35,-.95,
2.367365,-.948481,
2.384202,-.943969,
2.4,-.936603,
2.414279,-.926604,
2.426604,-.914279,
2.436603,-.9,
2.443969,-.884202,
2.448481,-.867365,
2.45,-.85,
2.45,.85,
2.448481,.867365,
2.443969,.884202,
2.436603,.9,
2.426604,.914279,
2.414279,.926604,
2.4,.936603,
2.384202,.943969,
2.367365,.948481,
2.35,.95,
-2.35,.95,
-2.367365,.948481,
-2.384202,.943969,
-2.4,.936603,
-2.414279,.926604,
-2.426604,.914279,
-2.436603,.9,
-2.443969,.884202,
-2.448481,.867365,
-2.45,.85,
0.0*
%
%ADD37MACRO37*%
%AMMACRO20*
4,1,40,.85,2.45,
-.85,2.45,
-.867365,2.448481,
-.884202,2.443969,
-.9,2.436603,
-.914279,2.426604,
-.926604,2.414279,
-.936603,2.4,
-.943969,2.384202,
-.948481,2.367365,
-.95,2.35,
-.95,-2.35,
-.948481,-2.367365,
-.943969,-2.384202,
-.936603,-2.4,
-.926604,-2.414279,
-.914279,-2.426604,
-.9,-2.436603,
-.884202,-2.443969,
-.867365,-2.448481,
-.85,-2.45,
.85,-2.45,
.867365,-2.448481,
.884202,-2.443969,
.9,-2.436603,
.914279,-2.426604,
.926604,-2.414279,
.936603,-2.4,
.943969,-2.384202,
.948481,-2.367365,
.95,-2.35,
.95,2.35,
.948481,2.367365,
.943969,2.384202,
.936603,2.4,
.926604,2.414279,
.914279,2.426604,
.9,2.436603,
.884202,2.443969,
.867365,2.448481,
.85,2.45,
0.0*
%
%ADD20MACRO20*%
%AMMACRO32*
4,1,40,-.875,1.035,
-.875,-1.035,
-.873481,-1.052365,
-.868969,-1.069202,
-.861603,-1.085,
-.851604,-1.099279,
-.839279,-1.111604,
-.825,-1.121603,
-.809202,-1.128969,
-.792365,-1.133481,
-.775,-1.135,
.775,-1.135,
.792365,-1.133481,
.809202,-1.128969,
.825,-1.121603,
.839279,-1.111604,
.851604,-1.099279,
.861603,-1.085,
.868969,-1.069202,
.873481,-1.052365,
.875,-1.035,
.875,1.035,
.873481,1.052365,
.868969,1.069202,
.861603,1.085,
.851604,1.099279,
.839279,1.111604,
.825,1.121603,
.809202,1.128969,
.792365,1.133481,
.775,1.135,
-.775,1.135,
-.792365,1.133481,
-.809202,1.128969,
-.825,1.121603,
-.839279,1.111604,
-.851604,1.099279,
-.861603,1.085,
-.868969,1.069202,
-.873481,1.052365,
-.875,1.035,
0.0*
%
%ADD32MACRO32*%
%AMMACRO27*
4,1,40,1.035,.875,
-1.035,.875,
-1.052365,.873481,
-1.069202,.868969,
-1.085,.861603,
-1.099279,.851604,
-1.111604,.839279,
-1.121603,.825,
-1.128969,.809202,
-1.133481,.792365,
-1.135,.775,
-1.135,-.775,
-1.133481,-.792365,
-1.128969,-.809202,
-1.121603,-.825,
-1.111604,-.839279,
-1.099279,-.851604,
-1.085,-.861603,
-1.069202,-.868969,
-1.052365,-.873481,
-1.035,-.875,
1.035,-.875,
1.052365,-.873481,
1.069202,-.868969,
1.085,-.861603,
1.099279,-.851604,
1.111604,-.839279,
1.121603,-.825,
1.128969,-.809202,
1.133481,-.792365,
1.135,-.775,
1.135,.775,
1.133481,.792365,
1.128969,.809202,
1.121603,.825,
1.111604,.839279,
1.099279,.851604,
1.085,.861603,
1.069202,.868969,
1.052365,.873481,
1.035,.875,
0.0*
%
%ADD27MACRO27*%
%ADD36R,6.2X6.2*%
%ADD39C,.612*%
%AMMACRO38*
21,1,.737,.61,0.0,0.0,45.*%
%ADD38MACRO38*%
%ADD15R,.61X.737*%
%ADD12R,.737X.61*%
%ADD31R,1.295X1.905*%
%AMMACRO35*
4,1,40,-.31,-.2,
.31,-.2,
.327365,-.198481,
.344202,-.193969,
.36,-.186603,
.374279,-.176604,
.386604,-.164279,
.396603,-.15,
.403969,-.134202,
.408481,-.117365,
.41,-.1,
.41,.1,
.408481,.117365,
.403969,.134202,
.396603,.15,
.386604,.164279,
.374279,.176604,
.36,.186603,
.344202,.193969,
.327365,.198481,
.31,.2,
-.31,.2,
-.327365,.198481,
-.344202,.193969,
-.36,.186603,
-.374279,.176604,
-.386604,.164279,
-.396603,.15,
-.403969,.134202,
-.408481,.117365,
-.41,.1,
-.41,-.1,
-.408481,-.117365,
-.403969,-.134202,
-.396603,-.15,
-.386604,-.164279,
-.374279,-.176604,
-.36,-.186603,
-.344202,-.193969,
-.327365,-.198481,
-.31,-.2,
0.0*
%
%ADD35MACRO35*%
G75*
%LPD*%
G75*
G36*
G01X114250Y299250D02*
Y256750D01*
X71750D01*
Y299250D01*
X114250D01*
G37*
G54D10*
X40000Y40000D03*
X20000D03*
X40000Y20000D03*
Y500000D03*
Y520000D03*
X20000D03*
X100000Y40000D03*
X80000D03*
X60000D03*
X100000Y20000D03*
X80000D03*
X60000D03*
X100000Y500000D03*
X80000D03*
X60000D03*
X100000Y520000D03*
X80000D03*
X60000D03*
X160000Y40000D03*
X140000D03*
X120000D03*
X160000Y20000D03*
X140000D03*
X120000D03*
X160000Y500000D03*
X140000D03*
X120000D03*
X160000Y520000D03*
X140000D03*
X120000D03*
X200000Y40000D03*
X180000D03*
X200000Y20000D03*
X180000D03*
X200000Y500000D03*
X180000D03*
X200000Y520000D03*
X180000D03*
X260000Y40000D03*
X240000D03*
X220000D03*
X260000Y20000D03*
X240000D03*
X220000D03*
X260000Y500000D03*
X240000D03*
X220000D03*
X260000Y520000D03*
X240000D03*
X220000D03*
X320000Y40000D03*
X300000D03*
X280000D03*
X320000Y20000D03*
X300000D03*
X280000D03*
X320000Y500000D03*
X300000D03*
X280000D03*
X320000Y520000D03*
X300000D03*
X280000D03*
X380000Y40000D03*
X360000D03*
X340000D03*
X380000Y20000D03*
X360000D03*
X340000D03*
X380000Y500000D03*
X360000D03*
X340000D03*
X380000Y520000D03*
X360000D03*
X340000D03*
X420000Y40000D03*
X400000D03*
X420000Y20000D03*
X400000D03*
X420000Y500000D03*
X400000D03*
X420000Y520000D03*
X400000D03*
X480000Y40000D03*
X460000D03*
X440000D03*
X480000Y20000D03*
X460000D03*
X440000D03*
X480000Y500000D03*
X460000D03*
X440000D03*
X480000Y520000D03*
X460000D03*
X440000D03*
X540000Y40000D03*
X520000D03*
X500000D03*
X540000Y20000D03*
X520000D03*
X500000D03*
X540000Y500000D03*
X520000D03*
X500000D03*
X540000Y520000D03*
X520000D03*
X500000D03*
X600000Y40000D03*
X580000D03*
X560000D03*
X600000Y20000D03*
X580000D03*
X560000D03*
X600000Y500000D03*
X580000D03*
X560000D03*
X600000Y520000D03*
X580000D03*
X560000D03*
X640000Y40000D03*
X620000D03*
X640000Y20000D03*
X620000D03*
X640000Y500000D03*
X620000D03*
X640000Y520000D03*
X620000D03*
X700000Y40000D03*
X680000D03*
X660000D03*
X700000Y20000D03*
X680000D03*
X660000D03*
X700000Y500000D03*
X680000D03*
X660000D03*
X700000Y520000D03*
X680000D03*
X660000D03*
X760000Y40000D03*
X740000D03*
X720000D03*
X760000Y20000D03*
X740000D03*
X720000D03*
X760000Y500000D03*
X740000D03*
X720000D03*
X760000Y520000D03*
X740000D03*
X720000D03*
X800000Y40000D03*
X780000D03*
X800000Y20000D03*
X780000D03*
X800000Y500000D03*
X780000D03*
X800000Y520000D03*
X780000D03*
G54D20*
X73000Y170000D03*
X78000Y383000D03*
X115000Y170000D03*
X120000Y383000D03*
G54D11*
X20000Y20000D03*
Y500000D03*
G54D12*
X40080Y64000D03*
X29920D03*
X16920Y133000D03*
X27080D03*
X32080Y198000D03*
X21920D03*
X13920Y267000D03*
X24080D03*
X44920Y239000D03*
X28920Y278000D03*
X39080D03*
X32920Y327000D03*
X43080D03*
Y338000D03*
X32920D03*
X56920Y64000D03*
X67080D03*
X91080D03*
X80920D03*
X91920Y133000D03*
X55080Y239000D03*
X102080Y133000D03*
X175920Y135000D03*
X186080D03*
X175920Y125000D03*
X186080D03*
Y115000D03*
X175920D03*
X189080Y253000D03*
X178920D03*
X223080Y238000D03*
X212920D03*
X249080Y263000D03*
X238920D03*
X249080Y253000D03*
X238920D03*
Y281000D03*
X249080D03*
Y357000D03*
X238920D03*
X283920Y246000D03*
X294080D03*
X279920Y273000D03*
X290080D03*
X279920Y293000D03*
X290080D03*
X279920Y283000D03*
X290080D03*
X365080Y415000D03*
X354920D03*
X576080Y161000D03*
X565920D03*
X591080Y216000D03*
X580920D03*
X591080Y207000D03*
X580920D03*
X591080Y198000D03*
X580920D03*
X559590Y264000D03*
X549430D03*
X559080Y241000D03*
X548920D03*
X591080Y252000D03*
X580920D03*
X591080Y288000D03*
X580920D03*
X591080Y306000D03*
X580920D03*
X591080Y297000D03*
X580920D03*
X559080Y322000D03*
X548920D03*
X559080Y290000D03*
X548920D03*
X559080Y345000D03*
X548920D03*
X559080Y354000D03*
X548920D03*
X559080Y336000D03*
X548920D03*
X644920Y222500D03*
Y261500D03*
X628920Y381000D03*
X639080D03*
X617920Y353000D03*
X628080D03*
X655080Y222500D03*
Y261500D03*
X656920Y381000D03*
X667080D03*
X699080Y460000D03*
X688920D03*
G54D30*
X260090Y147100D03*
X255090D03*
Y158900D03*
X260090D03*
X253090Y117100D03*
X248090D03*
X243090D03*
X238090D03*
Y128900D03*
X243090D03*
X248090D03*
X253090D03*
X260500Y207100D03*
X255500D03*
X250500D03*
X245500D03*
Y218900D03*
X250500D03*
X255500D03*
X260500D03*
X311160Y101960D03*
X306160D03*
X301160D03*
X296160D03*
Y113760D03*
X301160D03*
X306160D03*
X311160D03*
X284500Y117100D03*
X279500D03*
X274500D03*
X269500D03*
Y128900D03*
X274500D03*
X279500D03*
X284500D03*
X270090Y147100D03*
X265090D03*
Y158900D03*
X270090D03*
X369500Y77100D03*
X364500D03*
Y88900D03*
X369500D03*
X357500Y102100D03*
X352500D03*
X347500D03*
X342500D03*
Y113900D03*
X347500D03*
X352500D03*
X357500D03*
X334500Y102100D03*
X329500D03*
X324500D03*
X319500D03*
Y113900D03*
X324500D03*
X329500D03*
X334500D03*
X379500Y77100D03*
X374500D03*
Y88900D03*
X379500D03*
G54D21*
X93000Y278000D03*
G54D31*
X232000Y299000D03*
X256000D03*
Y339000D03*
X232000D03*
G54D22*
X99000Y248000D03*
X95000D03*
X91000D03*
X87000D03*
X83000D03*
X79000D03*
X75000D03*
X71000D03*
Y308000D03*
X75000D03*
X79000D03*
X83000D03*
X87000D03*
X91000D03*
X95000D03*
X99000D03*
X115000Y248000D03*
X111000D03*
X107000D03*
X103000D03*
Y308000D03*
X107000D03*
X111000D03*
X115000D03*
G54D13*
X54350Y78950D03*
Y91650D03*
Y104350D03*
Y117050D03*
X101650Y104350D03*
Y91650D03*
Y78950D03*
Y117050D03*
G54D32*
X232000Y377900D03*
Y422100D03*
G54D14*
X22000Y81000D03*
Y117000D03*
G54D23*
X63000Y256000D03*
Y260000D03*
Y264000D03*
Y268000D03*
Y272000D03*
Y276000D03*
Y280000D03*
Y284000D03*
Y288000D03*
Y292000D03*
Y296000D03*
Y300000D03*
X123000Y272000D03*
Y268000D03*
Y264000D03*
Y260000D03*
Y256000D03*
Y300000D03*
Y296000D03*
Y292000D03*
Y288000D03*
Y284000D03*
Y280000D03*
Y276000D03*
G54D15*
X18000Y160920D03*
Y171080D03*
X46000Y315080D03*
Y304920D03*
X28000Y411920D03*
Y422080D03*
X56000Y323920D03*
X66000D03*
X56000Y334080D03*
X66000D03*
X198000Y133080D03*
Y122920D03*
X207000Y451920D03*
Y462080D03*
X239000Y91920D03*
Y102080D03*
X229000Y91920D03*
Y102080D03*
X218000Y462080D03*
Y451920D03*
X312000Y60920D03*
Y71080D03*
X302000Y60920D03*
Y71080D03*
X282000Y60920D03*
Y71080D03*
X292000Y60920D03*
Y71080D03*
X308000Y354080D03*
Y343920D03*
X370000Y103920D03*
Y114080D03*
X360000Y381080D03*
Y370920D03*
X348000Y381080D03*
Y370920D03*
X338000Y381080D03*
Y370920D03*
X370000Y381080D03*
Y370920D03*
X326000Y381080D03*
Y370920D03*
X356000Y438080D03*
Y427920D03*
X366000Y438080D03*
Y427920D03*
X346000D03*
Y438080D03*
X426000Y103920D03*
X398000D03*
X426000Y114080D03*
X398000D03*
X392000Y381080D03*
Y370920D03*
X382000Y381080D03*
Y370920D03*
X478000Y103920D03*
X459000D03*
X449000D03*
X436000D03*
X478000Y114080D03*
X459000D03*
X449000D03*
X436000D03*
X494000Y103920D03*
Y114080D03*
X529000Y131920D03*
Y142080D03*
X573000Y131920D03*
Y142080D03*
X551000Y156920D03*
Y167080D03*
Y131920D03*
Y142080D03*
X540000Y131920D03*
Y142080D03*
X544000Y196920D03*
Y207080D03*
X647000Y101920D03*
Y112080D03*
X636000D03*
Y101920D03*
X614000D03*
Y112080D03*
X625000D03*
Y101920D03*
X603000D03*
Y112080D03*
X629000Y132920D03*
Y143080D03*
Y276920D03*
Y287080D03*
X684000Y101920D03*
Y112080D03*
X660000Y101920D03*
Y112080D03*
X672000Y101920D03*
Y112080D03*
X696000Y234080D03*
Y223920D03*
X686000Y249920D03*
Y260080D03*
X666000Y234080D03*
Y223920D03*
X676000Y234080D03*
Y223920D03*
X666000Y249920D03*
Y260080D03*
X676000Y249920D03*
Y260080D03*
X686000Y234080D03*
Y223920D03*
X698000Y249920D03*
Y260080D03*
X696000Y377080D03*
Y366920D03*
X716000Y101920D03*
Y112080D03*
X732000Y101920D03*
Y112080D03*
X726000Y234080D03*
Y223920D03*
X736000Y234080D03*
Y223920D03*
X718000Y249920D03*
Y260080D03*
X728000Y249920D03*
Y260080D03*
X708000Y249920D03*
Y260080D03*
X716000Y223920D03*
Y234080D03*
X706000Y223920D03*
Y234080D03*
X714000Y377080D03*
Y366920D03*
X730000Y377080D03*
Y366920D03*
X797000Y154920D03*
Y165080D03*
X799000Y360080D03*
Y349920D03*
G54D33*
X312250Y154000D03*
Y158000D03*
Y162000D03*
Y166000D03*
Y170000D03*
Y174000D03*
Y178000D03*
Y182000D03*
Y186000D03*
Y190000D03*
Y194000D03*
Y198000D03*
Y202000D03*
Y206000D03*
Y210000D03*
Y214000D03*
Y218000D03*
Y222000D03*
Y226000D03*
Y230000D03*
Y234000D03*
Y238000D03*
Y242000D03*
Y246000D03*
Y250000D03*
Y254000D03*
Y258000D03*
Y262000D03*
Y266000D03*
Y270000D03*
Y274000D03*
Y278000D03*
Y282000D03*
Y286000D03*
Y290000D03*
Y294000D03*
Y298000D03*
Y302000D03*
Y306000D03*
Y310000D03*
Y314000D03*
Y318000D03*
Y322000D03*
Y326000D03*
X527750Y166000D03*
Y162000D03*
Y158000D03*
Y154000D03*
Y218000D03*
Y214000D03*
Y210000D03*
Y206000D03*
Y202000D03*
Y198000D03*
Y194000D03*
Y190000D03*
Y186000D03*
Y182000D03*
Y178000D03*
Y174000D03*
Y170000D03*
Y274000D03*
Y270000D03*
Y266000D03*
Y262000D03*
Y258000D03*
Y254000D03*
Y250000D03*
Y246000D03*
Y242000D03*
Y238000D03*
Y234000D03*
Y230000D03*
Y226000D03*
Y222000D03*
Y326000D03*
Y322000D03*
Y318000D03*
Y314000D03*
Y310000D03*
Y306000D03*
Y302000D03*
Y298000D03*
Y294000D03*
Y290000D03*
Y286000D03*
Y282000D03*
Y278000D03*
G54D24*
X93000D03*
X420000Y240000D03*
G54D16*
X32000Y154380D03*
Y169620D03*
X30000Y238380D03*
Y253620D03*
X14000Y238380D03*
Y253620D03*
Y295620D03*
Y280380D03*
X33000Y313620D03*
Y298380D03*
X28000Y460620D03*
Y445380D03*
X49000Y154380D03*
Y169620D03*
X83000Y209380D03*
Y224620D03*
X67000Y209380D03*
Y224620D03*
X79000Y325380D03*
Y340620D03*
X125000Y107380D03*
Y122620D03*
X131000Y209380D03*
Y224620D03*
X115000Y209380D03*
Y224620D03*
X147000Y209380D03*
Y224620D03*
X118000Y325380D03*
X134000D03*
X118000Y340620D03*
X134000D03*
X150000Y460620D03*
Y445380D03*
X174000Y357620D03*
Y342380D03*
X158000Y357620D03*
Y342380D03*
X258000Y374380D03*
Y413380D03*
Y428620D03*
Y389620D03*
X309000Y421380D03*
Y436620D03*
X321000Y457380D03*
Y472620D03*
X333000Y436620D03*
Y421380D03*
X650000Y249620D03*
Y234380D03*
X770000Y115380D03*
Y130620D03*
G54D34*
X370000Y132250D03*
X366000D03*
X362000D03*
X358000D03*
X354000D03*
X350000D03*
X346000D03*
X342000D03*
X338000D03*
X334000D03*
Y347750D03*
X338000D03*
X342000D03*
X346000D03*
X350000D03*
X354000D03*
X358000D03*
X362000D03*
X366000D03*
X370000D03*
X426000Y132250D03*
X422000D03*
X418000D03*
X414000D03*
X410000D03*
X406000D03*
X402000D03*
X398000D03*
X394000D03*
X390000D03*
X386000D03*
X382000D03*
X378000D03*
X374000D03*
Y347750D03*
X378000D03*
X382000D03*
X386000D03*
X390000D03*
X394000D03*
X398000D03*
X402000D03*
X406000D03*
X410000D03*
X414000D03*
X418000D03*
X422000D03*
X426000D03*
X482000Y132250D03*
X478000D03*
X474000D03*
X470000D03*
X466000D03*
X462000D03*
X458000D03*
X454000D03*
X450000D03*
X446000D03*
X442000D03*
X438000D03*
X434000D03*
X430000D03*
Y347750D03*
X434000D03*
X438000D03*
X442000D03*
X446000D03*
X450000D03*
X454000D03*
X458000D03*
X462000D03*
X466000D03*
X470000D03*
X474000D03*
X478000D03*
X482000D03*
X506000Y132250D03*
X502000D03*
X498000D03*
X494000D03*
X490000D03*
X486000D03*
Y347750D03*
X490000D03*
X494000D03*
X498000D03*
X502000D03*
X506000D03*
G54D25*
X141500Y107750D03*
Y130250D03*
X151000D03*
X160500Y107750D03*
Y130250D03*
G54D35*
X421100Y61500D03*
Y66500D03*
Y71500D03*
Y76500D03*
X432900D03*
Y71500D03*
Y66500D03*
Y61500D03*
X529900Y380500D03*
Y375500D03*
X518100D03*
Y380500D03*
X497410Y428910D03*
Y423910D03*
Y418910D03*
Y413910D03*
X485610D03*
Y418910D03*
Y423910D03*
Y428910D03*
X529900Y390500D03*
Y385500D03*
X518100D03*
Y390500D03*
X529900Y421500D03*
Y416500D03*
Y411500D03*
Y406500D03*
X518100D03*
Y411500D03*
Y416500D03*
Y421500D03*
X497410Y460910D03*
Y455910D03*
Y450910D03*
Y445910D03*
X485610D03*
Y450910D03*
Y455910D03*
Y460910D03*
X591900Y187500D03*
Y182500D03*
Y177500D03*
Y172500D03*
X580100D03*
Y177500D03*
Y182500D03*
Y187500D03*
X591900Y241500D03*
Y236500D03*
Y231500D03*
Y226500D03*
X580100D03*
Y231500D03*
Y236500D03*
Y241500D03*
X591900Y272500D03*
Y267500D03*
Y262500D03*
X580100D03*
Y267500D03*
Y272500D03*
X591900Y326500D03*
Y321500D03*
Y316500D03*
X580100D03*
Y321500D03*
Y326500D03*
X591900Y277500D03*
X580100D03*
X591900Y331500D03*
X580100D03*
X555900Y405500D03*
Y400500D03*
Y395500D03*
Y390500D03*
X544100D03*
Y395500D03*
Y400500D03*
Y405500D03*
X557540Y439620D03*
Y434620D03*
X545740D03*
Y439620D03*
X557540Y449620D03*
Y444620D03*
X545740D03*
Y449620D03*
G54D17*
X21900Y217000D03*
X52100D03*
G54D26*
X147000Y170000D03*
X156000Y400000D03*
X189000Y170000D03*
X198000Y400000D03*
G54D36*
X420000Y240000D03*
G54D27*
X170900Y216000D03*
X215100D03*
G54D18*
X38380Y362000D03*
Y379000D03*
X53620Y362000D03*
Y379000D03*
X149380Y253000D03*
X177380Y102000D03*
X192620D03*
X164620Y253000D03*
X274260Y224360D03*
X289500D03*
X320380Y395000D03*
X367620D03*
X352380D03*
X335620D03*
X399620D03*
X384380D03*
X590380Y380000D03*
X605620D03*
G54D37*
X405000Y425000D03*
Y467000D03*
G54D19*
X50000Y480000D03*
X790000Y60000D03*
Y480000D03*
G54D28*
X179000Y276000D03*
Y318000D03*
G54D38*
X484150Y376980D03*
X476970Y369800D03*
X447760Y383760D03*
X440580Y376580D03*
G54D29*
X168750Y442500D03*
Y452000D03*
Y461500D03*
X191250D03*
Y452000D03*
Y442500D03*
X338750Y453500D03*
Y472500D03*
X361250D03*
Y463000D03*
Y453500D03*
G54D39*
X644000Y152000D03*
Y144000D03*
Y136000D03*
Y200000D03*
Y192000D03*
Y184000D03*
Y300000D03*
Y292000D03*
Y284000D03*
Y348000D03*
Y340000D03*
Y332000D03*
X700000Y152000D03*
Y144000D03*
Y136000D03*
X692000Y152000D03*
Y144000D03*
Y136000D03*
X684000Y152000D03*
Y144000D03*
Y136000D03*
X676000Y152000D03*
Y144000D03*
Y136000D03*
X668000Y152000D03*
Y144000D03*
Y136000D03*
X660000Y152000D03*
Y144000D03*
Y136000D03*
X652000Y152000D03*
Y144000D03*
Y136000D03*
X700000Y200000D03*
Y192000D03*
Y184000D03*
X692000Y200000D03*
Y192000D03*
Y184000D03*
X684000Y200000D03*
Y192000D03*
Y184000D03*
X676000Y200000D03*
Y192000D03*
Y184000D03*
X668000Y200000D03*
Y192000D03*
Y184000D03*
X660000Y200000D03*
Y192000D03*
Y184000D03*
X652000Y200000D03*
Y192000D03*
Y184000D03*
X700000Y300000D03*
Y292000D03*
Y284000D03*
X692000Y300000D03*
Y292000D03*
Y284000D03*
X684000Y300000D03*
Y292000D03*
Y284000D03*
X676000Y300000D03*
Y292000D03*
Y284000D03*
X668000Y300000D03*
Y292000D03*
Y284000D03*
X660000Y300000D03*
Y292000D03*
Y284000D03*
X652000Y300000D03*
Y292000D03*
Y284000D03*
X700000Y348000D03*
Y340000D03*
Y332000D03*
X692000Y348000D03*
Y340000D03*
Y332000D03*
X684000Y348000D03*
Y340000D03*
Y332000D03*
X676000Y348000D03*
Y340000D03*
Y332000D03*
X668000Y348000D03*
Y340000D03*
Y332000D03*
X660000Y348000D03*
Y340000D03*
Y332000D03*
X652000Y348000D03*
Y340000D03*
Y332000D03*
X740000Y152000D03*
Y144000D03*
Y136000D03*
X732000Y152000D03*
Y144000D03*
Y136000D03*
X724000Y152000D03*
Y144000D03*
Y136000D03*
X716000Y152000D03*
Y144000D03*
Y136000D03*
X708000Y152000D03*
Y144000D03*
Y136000D03*
X740000Y200000D03*
Y192000D03*
Y184000D03*
X732000Y200000D03*
Y192000D03*
Y184000D03*
X724000Y200000D03*
Y192000D03*
Y184000D03*
X716000Y200000D03*
Y192000D03*
Y184000D03*
X708000Y200000D03*
Y192000D03*
Y184000D03*
X740000Y300000D03*
Y292000D03*
Y284000D03*
X732000Y300000D03*
Y292000D03*
Y284000D03*
X724000Y300000D03*
Y292000D03*
Y284000D03*
X716000Y300000D03*
Y292000D03*
Y284000D03*
X708000Y300000D03*
Y292000D03*
Y284000D03*
X740000Y348000D03*
Y340000D03*
Y332000D03*
X732000Y348000D03*
Y340000D03*
Y332000D03*
X724000Y348000D03*
Y340000D03*
Y332000D03*
X716000Y348000D03*
Y340000D03*
Y332000D03*
X708000Y348000D03*
Y340000D03*
Y332000D03*
M02*
