G04 ================== begin FILE IDENTIFICATION RECORD ==================*
G04 Layout Name:  E:/HARDWARE/PCB/Allegro/PROJECT/A13_SODIMM/PCB/A13_SODIMM_03.brd*
G04 Film Name:    TOP*
G04 File Format:  Gerber RS274X*
G04 File Origin:  Cadence Allegro 16.3-p003*
G04 Origin Date:  Tue Jan 29 13:24:01 2013*
G04 *
G04 Layer:  ETCH/TOP*
G04 Layer:  PIN/TOP*
G04 Layer:  VIA CLASS/TOP*
G04 *
G04 Offset:    (0.000 0.000)*
G04 Mirror:    No*
G04 Mode:      Positive*
G04 Rotation:  0*
G04 FullContactRelief:  No*
G04 UndefLineWidth:     0.200*
G04 ================== end FILE IDENTIFICATION RECORD ====================*
%FSLAX34Y34*MOMM*%
%IR0*IPPOS*OFA0.00000B0.00000*MIA0B0*SFA1.00000B1.00000*%
%ADD30O,1.3X.6*%
%ADD26O,.6X1.3*%
%ADD20C,1.*%
%ADD35O,.2X1.65*%
%ADD34O,1.65X.2*%
%ADD25C,3.*%
%ADD10C,1.5*%
%ADD13O,2.17X.608*%
%ADD11R,1.5X1.5*%
%ADD22R,4.15X4.15*%
%AMMACRO24*
4,1,38,-.4,0.0,
-.398481,-.017365,
-.393969,-.034202,
-.386603,-.05,
-.376604,-.064279,
-.364279,-.076604,
-.35,-.086603,
-.334202,-.093969,
-.317365,-.098481,
-.3,-.1,
.3,-.1,
.317365,-.098481,
.334202,-.093969,
.35,-.086603,
.364279,-.076604,
.376604,-.064279,
.386603,-.05,
.393969,-.034202,
.398481,-.017365,
.4,0.0,
.398481,.017365,
.393969,.034202,
.386603,.05,
.376604,.064279,
.364279,.076604,
.35,.086603,
.334202,.093969,
.317365,.098481,
.3,.1,
-.3,.1,
-.317365,.098481,
-.334202,.093969,
-.35,.086603,
-.364279,.076604,
-.376604,.064279,
-.386603,.05,
-.393969,.034202,
-.398481,.017365,
-.4,0.0,
0.0*
%
%ADD24MACRO24*%
%AMMACRO23*
4,1,38,0.0,.4,
-.017365,.398481,
-.034202,.393969,
-.05,.386603,
-.064279,.376604,
-.076604,.364279,
-.086603,.35,
-.093969,.334202,
-.098481,.317365,
-.1,.3,
-.1,-.3,
-.098481,-.317365,
-.093969,-.334202,
-.086603,-.35,
-.076604,-.364279,
-.064279,-.376604,
-.05,-.386603,
-.034202,-.393969,
-.017365,-.398481,
0.0,-.4,
.017365,-.398481,
.034202,-.393969,
.05,-.386603,
.064279,-.376604,
.076604,-.364279,
.086603,-.35,
.093969,-.334202,
.098481,-.317365,
.1,-.3,
.1,.3,
.098481,.317365,
.093969,.334202,
.086603,.35,
.076604,.364279,
.064279,.376604,
.05,.386603,
.034202,.393969,
.017365,.398481,
0.0,.4,
0.0*
%
%ADD23MACRO23*%
%AMMACRO31*
4,1,40,-.15,.26,
-.15,-.26,
-.148481,-.277365,
-.143969,-.294202,
-.136603,-.31,
-.126604,-.324279,
-.114279,-.336604,
-.1,-.346603,
-.084202,-.353969,
-.067365,-.358481,
-.05,-.36,
.05,-.36,
.067365,-.358481,
.084202,-.353969,
.1,-.346603,
.114279,-.336604,
.126604,-.324279,
.136603,-.31,
.143969,-.294202,
.148481,-.277365,
.15,-.26,
.15,.26,
.148481,.277365,
.143969,.294202,
.136603,.31,
.126604,.324279,
.114279,.336604,
.1,.346603,
.084202,.353969,
.067365,.358481,
.05,.36,
-.05,.36,
-.067365,.358481,
-.084202,.353969,
-.1,.346603,
-.114279,.336604,
-.126604,.324279,
-.136603,.31,
-.143969,.294202,
-.148481,.277365,
-.15,.26,
0.0*
%
%ADD31MACRO31*%
%AMMACRO14*
4,1,40,-.9,.6,
-.9,-.6,
-.898481,-.617365,
-.893969,-.634202,
-.886603,-.65,
-.876604,-.664279,
-.864279,-.676604,
-.85,-.686603,
-.834202,-.693969,
-.817365,-.698481,
-.8,-.7,
.8,-.7,
.817365,-.698481,
.834202,-.693969,
.85,-.686603,
.864279,-.676604,
.876604,-.664279,
.886603,-.65,
.893969,-.634202,
.898481,-.617365,
.9,-.6,
.9,.6,
.898481,.617365,
.893969,.634202,
.886603,.65,
.876604,.664279,
.864279,.676604,
.85,.686603,
.834202,.693969,
.817365,.698481,
.8,.7,
-.8,.7,
-.817365,.698481,
-.834202,.693969,
-.85,.686603,
-.864279,.676604,
-.876604,.664279,
-.886603,.65,
-.893969,.634202,
-.898481,.617365,
-.9,.6,
0.0*
%
%ADD14MACRO14*%
%AMMACRO38*
4,1,40,-2.4,.8,
-2.4,-.8,
-2.398481,-.817365,
-2.393969,-.834202,
-2.386603,-.85,
-2.376604,-.864279,
-2.364279,-.876604,
-2.35,-.886603,
-2.334202,-.893969,
-2.317365,-.898481,
-2.3,-.9,
2.3,-.9,
2.317365,-.898481,
2.334202,-.893969,
2.35,-.886603,
2.364279,-.876604,
2.376604,-.864279,
2.386603,-.85,
2.393969,-.834202,
2.398481,-.817365,
2.4,-.8,
2.4,.8,
2.398481,.817365,
2.393969,.834202,
2.386603,.85,
2.376604,.864279,
2.364279,.876604,
2.35,.886603,
2.334202,.893969,
2.317365,.898481,
2.3,.9,
-2.3,.9,
-2.317365,.898481,
-2.334202,.893969,
-2.35,.886603,
-2.364279,.876604,
-2.376604,.864279,
-2.386603,.85,
-2.393969,.834202,
-2.398481,.817365,
-2.4,.8,
0.0*
%
%ADD38MACRO38*%
%AMMACRO21*
4,1,40,.8,2.4,
-.8,2.4,
-.817365,2.398481,
-.834202,2.393969,
-.85,2.386603,
-.864279,2.376604,
-.876604,2.364279,
-.886603,2.35,
-.893969,2.334202,
-.898481,2.317365,
-.9,2.3,
-.9,-2.3,
-.898481,-2.317365,
-.893969,-2.334202,
-.886603,-2.35,
-.876604,-2.364279,
-.864279,-2.376604,
-.85,-2.386603,
-.834202,-2.393969,
-.817365,-2.398481,
-.8,-2.4,
.8,-2.4,
.817365,-2.398481,
.834202,-2.393969,
.85,-2.386603,
.864279,-2.376604,
.876604,-2.364279,
.886603,-2.35,
.893969,-2.334202,
.898481,-2.317365,
.9,-2.3,
.9,2.3,
.898481,2.317365,
.893969,2.334202,
.886603,2.35,
.876604,2.364279,
.864279,2.376604,
.85,2.386603,
.834202,2.393969,
.817365,2.398481,
.8,2.4,
0.0*
%
%ADD21MACRO21*%
%AMMACRO33*
4,1,40,-.825,.985,
-.825,-.985,
-.823481,-1.002365,
-.818969,-1.019202,
-.811603,-1.035,
-.801604,-1.049279,
-.789279,-1.061604,
-.775,-1.071603,
-.759202,-1.078969,
-.742365,-1.083481,
-.725,-1.085,
.725,-1.085,
.742365,-1.083481,
.759202,-1.078969,
.775,-1.071603,
.789279,-1.061604,
.801604,-1.049279,
.811603,-1.035,
.818969,-1.019202,
.823481,-1.002365,
.825,-.985,
.825,.985,
.823481,1.002365,
.818969,1.019202,
.811603,1.035,
.801604,1.049279,
.789279,1.061604,
.775,1.071603,
.759202,1.078969,
.742365,1.083481,
.725,1.085,
-.725,1.085,
-.742365,1.083481,
-.759202,1.078969,
-.775,1.071603,
-.789279,1.061604,
-.801604,1.049279,
-.811603,1.035,
-.818969,1.019202,
-.823481,1.002365,
-.825,.985,
0.0*
%
%ADD33MACRO33*%
%AMMACRO28*
4,1,40,.985,.825,
-.985,.825,
-1.002365,.823481,
-1.019202,.818969,
-1.035,.811603,
-1.049279,.801604,
-1.061604,.789279,
-1.071603,.775,
-1.078969,.759202,
-1.083481,.742365,
-1.085,.725,
-1.085,-.725,
-1.083481,-.742365,
-1.078969,-.759202,
-1.071603,-.775,
-1.061604,-.789279,
-1.049279,-.801604,
-1.035,-.811603,
-1.019202,-.818969,
-1.002365,-.823481,
-.985,-.825,
.985,-.825,
1.002365,-.823481,
1.019202,-.818969,
1.035,-.811603,
1.049279,-.801604,
1.061604,-.789279,
1.071603,-.775,
1.078969,-.759202,
1.083481,-.742365,
1.085,-.725,
1.085,.725,
1.083481,.742365,
1.078969,.759202,
1.071603,.775,
1.061604,.789279,
1.049279,.801604,
1.035,.811603,
1.019202,.818969,
1.002365,.823481,
.985,.825,
0.0*
%
%ADD28MACRO28*%
%ADD37R,6.X6.*%
%ADD40C,.413*%
%ADD32R,1.194X1.803*%
%ADD15C,.457*%
%AMMACRO39*
21,1,.635,.508,0.0,0.0,45.*%
%ADD39MACRO39*%
%ADD16R,.508X.635*%
%ADD12R,.635X.508*%
%AMMACRO36*
4,1,40,-.26,-.15,
.26,-.15,
.277365,-.148481,
.294202,-.143969,
.31,-.136603,
.324279,-.126604,
.336604,-.114279,
.346603,-.1,
.353969,-.084202,
.358481,-.067365,
.36,-.05,
.36,.05,
.358481,.067365,
.353969,.084202,
.346603,.1,
.336604,.114279,
.324279,.126604,
.31,.136603,
.294202,.143969,
.277365,.148481,
.26,.15,
-.26,.15,
-.277365,.148481,
-.294202,.143969,
-.31,.136603,
-.324279,.126604,
-.336604,.114279,
-.346603,.1,
-.353969,.084202,
-.358481,.067365,
-.36,.05,
-.36,-.05,
-.358481,-.067365,
-.353969,-.084202,
-.346603,-.1,
-.336604,-.114279,
-.324279,-.126604,
-.31,-.136603,
-.294202,-.143969,
-.277365,-.148481,
-.26,-.15,
0.0*
%
%ADD36MACRO36*%
%ADD17R,.813X.889*%
%ADD19R,.889X.813*%
%AMMACRO29*
4,1,40,2.4,-.8,
2.4,.8,
2.398481,.817365,
2.393969,.834202,
2.386603,.85,
2.376604,.864279,
2.364279,.876604,
2.35,.886603,
2.334202,.893969,
2.317365,.898481,
2.3,.9,
-2.3,.9,
-2.317365,.898481,
-2.334202,.893969,
-2.35,.886603,
-2.364279,.876604,
-2.376604,.864279,
-2.386603,.85,
-2.393969,.834202,
-2.398481,.817365,
-2.4,.8,
-2.4,-.8,
-2.398481,-.817365,
-2.393969,-.834202,
-2.386603,-.85,
-2.376604,-.864279,
-2.364279,-.876604,
-2.35,-.886603,
-2.334202,-.893969,
-2.317365,-.898481,
-2.3,-.9,
2.3,-.9,
2.317365,-.898481,
2.334202,-.893969,
2.35,-.886603,
2.364279,-.876604,
2.376604,-.864279,
2.386603,-.85,
2.393969,-.834202,
2.398481,-.817365,
2.4,-.8,
0.0*
%
%ADD29MACRO29*%
%AMMACRO27*
4,1,40,-.8,-2.4,
.8,-2.4,
.817365,-2.398481,
.834202,-2.393969,
.85,-2.386603,
.864279,-2.376604,
.876604,-2.364279,
.886603,-2.35,
.893969,-2.334202,
.898481,-2.317365,
.9,-2.3,
.9,2.3,
.898481,2.317365,
.893969,2.334202,
.886603,2.35,
.876604,2.364279,
.864279,2.376604,
.85,2.386603,
.834202,2.393969,
.817365,2.398481,
.8,2.4,
-.8,2.4,
-.817365,2.398481,
-.834202,2.393969,
-.85,2.386603,
-.864279,2.376604,
-.876604,2.364279,
-.886603,2.35,
-.893969,2.334202,
-.898481,2.317365,
-.9,2.3,
-.9,-2.3,
-.898481,-2.317365,
-.893969,-2.334202,
-.886603,-2.35,
-.876604,-2.364279,
-.864279,-2.376604,
-.85,-2.386603,
-.834202,-2.393969,
-.817365,-2.398481,
-.8,-2.4,
0.0*
%
%ADD27MACRO27*%
%AMMACRO18*
4,1,40,-.265,-.865,
.265,-.865,
.282365,-.863481,
.299202,-.858969,
.315,-.851603,
.329279,-.841604,
.341604,-.829279,
.351603,-.815,
.358969,-.799202,
.363481,-.782365,
.365,-.765,
.365,.765,
.363481,.782365,
.358969,.799202,
.351603,.815,
.341604,.829279,
.329279,.841604,
.315,.851603,
.299202,.858969,
.282365,.863481,
.265,.865,
-.265,.865,
-.282365,.863481,
-.299202,.858969,
-.315,.851603,
-.329279,.841604,
-.341604,.829279,
-.351603,.815,
-.358969,.799202,
-.363481,.782365,
-.365,.765,
-.365,-.765,
-.363481,-.782365,
-.358969,-.799202,
-.351603,-.815,
-.341604,-.829279,
-.329279,-.841604,
-.315,-.851603,
-.299202,-.858969,
-.282365,-.863481,
-.265,-.865,
0.0*
%
%ADD18MACRO18*%
%ADD41C,.101*%
%ADD42C,.2*%
%ADD43C,.3*%
%ADD44C,.4*%
%ADD45C,.5*%
%ADD46C,.34*%
%ADD47C,.35*%
%ADD48C,.125*%
%ADD49C,.18*%
%ADD50C,.375*%
%ADD51C,2.006*%
G75*
%LPD*%
G75*
G36*
G01X2000Y2000D02*
Y538000D01*
X818000D01*
Y2000D01*
X2000D01*
G37*
%LPC*%
G75*
G36*
G01X432020Y479020D02*
Y455980D01*
X381160D01*
X380990Y456150D01*
X380890Y456190D01*
G02X379190Y457890I1110J2810D01*
G01X379150Y457990D01*
X370160Y466980D01*
X356160D01*
X352980Y470160D01*
Y470930D01*
X352960Y471010D01*
G02Y473990I4790J1490D01*
G01X352980Y474070D01*
Y475840D01*
X356160Y479020D01*
X432020D01*
G37*
G36*
G01X314110Y430160D02*
Y426430D01*
X303890D01*
Y430160D01*
X302920D01*
Y443080D01*
X303670D01*
G03X304690Y444080I-1J1021D01*
G02X313310I4310J-80D01*
G03X314330Y443080I1021J21D01*
G01X315080D01*
Y430160D01*
X314110D01*
G37*
G36*
G01X30000Y71980D02*
X14000D01*
G02X10980Y75000I0J3020D01*
G01Y87000D01*
G02X14000Y90020I3020J0D01*
G01X30000D01*
G02X32210Y89060I0J-3024D01*
G03X33980Y89750I751J690D01*
G01Y103250D01*
X38100Y107370D01*
X42480D01*
G02X46540Y109410I4060J-3020D01*
G01X62160D01*
G02Y99290I0J-5060D01*
G01X46540D01*
G02X42480Y101330I0J5060D01*
G01X40600D01*
X40020Y100750D01*
Y81750D01*
X36250Y77980D01*
X33020D01*
Y75000D01*
G02X30000Y71980I-3020J0D01*
G37*
G36*
G01X731100Y7350D02*
X513900D01*
X508080Y13170D01*
G03X506650Y13180I-720J-719D01*
G02X490970Y16990I-6646J6818D01*
G03X489030I-970J-320D01*
G02X470970I-9030J3010D01*
G03X469030I-970J-320D01*
G02X450970I-9030J3010D01*
G03X449030I-970J-320D01*
G02X430970I-9030J3010D01*
G03X429030I-970J-320D01*
G02X410970I-9030J3010D01*
G03X409030I-970J-320D01*
G02X390970I-9030J3010D01*
G03X389030I-970J-320D01*
G02X370970I-9030J3010D01*
G03X369030I-970J-320D01*
G02X350970I-9030J3010D01*
G03X349030I-970J-320D01*
G02X330970I-9030J3010D01*
G03X329030I-970J-320D01*
G02X310970I-9030J3010D01*
G03X309030I-970J-320D01*
G02X290970I-9030J3010D01*
G03X289030I-970J-320D01*
G02X270970I-9030J3010D01*
G03X269030I-970J-320D01*
G02X250970I-9030J3010D01*
G03X249030I-970J-320D01*
G02X230970I-9030J3010D01*
G03X229030I-970J-320D01*
G02X210970I-9030J3010D01*
G03X209030I-970J-320D01*
G02X190970I-9030J3010D01*
G03X189030I-970J-320D01*
G02X170970I-9030J3010D01*
G03X169030I-970J-320D01*
G02X150970I-9030J3010D01*
G03X149030I-970J-320D01*
G02X130970I-9030J3010D01*
G03X129030I-970J-320D01*
G02X110970I-9030J3010D01*
G03X109030I-970J-320D01*
G02X90970I-9030J3010D01*
G03X89030I-970J-320D01*
G02X70970I-9030J3010D01*
G03X69030I-970J-320D01*
G02X50970I-9030J3010D01*
G03X49030I-970J-320D01*
G02X31460Y15800I-9029J3012D01*
G03X29520Y15350I-919J-444D01*
G01Y10480D01*
X10480D01*
Y29520D01*
X29520D01*
Y24650D01*
G03X31460Y24200I1021J-6D01*
G02X36990Y29030I8542J-4199D01*
G03Y30970I-320J970D01*
G02X37350Y49140I3013J9029D01*
G01Y52100D01*
X38250Y53000D01*
X37430Y53820D01*
Y59440D01*
X24720D01*
Y59750D01*
G02Y68250I-720J4250D01*
G01Y68560D01*
X45280D01*
Y59440D01*
X42730D01*
Y56020D01*
X43100Y55650D01*
X82900D01*
X84950Y57700D01*
G03X84230Y59440I-721J721D01*
G01X75720D01*
Y65530D01*
X74040Y67210D01*
X72280Y65450D01*
Y59440D01*
X51720D01*
Y59750D01*
G02Y68250I-720J4250D01*
G01Y68560D01*
X65860D01*
G03X66850Y69850I5J1021D01*
G02X68350Y74400I4152J1154D01*
G01Y79100D01*
X83550Y94300D01*
X89530D01*
G02X89690Y94550I4341J-2602D01*
G03X89270Y95350I-418J291D01*
G01X80100D01*
X73750Y89000D01*
X66470D01*
G02X62160Y86590I-4310J2649D01*
G01X46540D01*
G02Y96710I0J5060D01*
G01X62160D01*
G02X66470Y94300I0J-5059D01*
G01X71550D01*
X77900Y100650D01*
X88380D01*
G03X89300Y102120I4J1020D01*
G02X89060Y106000I4541J2228D01*
G03X88090Y107350I-966J329D01*
G01X76900D01*
X70350Y113900D01*
Y131900D01*
X65900Y136350D01*
X34900D01*
X34020Y137240D01*
G03X32280Y136520I-720J-722D01*
G01Y128440D01*
X30100D01*
Y126050D01*
X30520Y125970D01*
G02X33020Y123000I-514J-2970D01*
G01Y120070D01*
X42480D01*
G02X46540Y122110I4060J-3020D01*
G01X62160D01*
G02Y111990I0J-5060D01*
G01X46540D01*
G02X42480Y114030I0J5060D01*
G01X33020D01*
Y111000D01*
G02X30000Y107980I-3020J0D01*
G01X14000D01*
G02X10980Y111000I0J3020D01*
G01Y123000D01*
G02X14000Y126020I3020J0D01*
G01X24060D01*
Y128440D01*
X21880D01*
Y129920D01*
X20950D01*
Y136080D01*
X21880D01*
Y137560D01*
X31230D01*
G03X31950Y139300I-1J1019D01*
G01X27900Y143350D01*
X17900D01*
X10350Y150900D01*
Y177840D01*
G03X9080Y178830I-1021J0D01*
G02X5300Y186360I-1079J4172D01*
G03X5380Y187870I-642J791D01*
G01X4350Y188900D01*
Y304100D01*
X10350Y310100D01*
Y326600D01*
G02X14590Y334010I2646J3404D01*
G03X15980Y334960I371J948D01*
G01Y385670D01*
X89330Y459020D01*
X109330D01*
X135980Y485670D01*
Y491370D01*
G02X130970Y496990I4022J8628D01*
G03X129030I-970J-320D01*
G02X110970I-9030J3010D01*
G03X109030I-970J-320D01*
G02X90970I-9030J3010D01*
G03X89030I-970J-320D01*
G02X70970I-9030J3010D01*
G03X69030I-970J-320D01*
G02X50970I-9030J3010D01*
G03X49030I-970J-320D01*
G02X31460Y495800I-9029J3012D01*
G03X29520Y495350I-919J-444D01*
G01Y490480D01*
X23900D01*
Y486620D01*
X31900Y478620D01*
Y467080D01*
X34080D01*
Y454160D01*
X33110D01*
Y451840D01*
X34080D01*
Y438920D01*
X31520D01*
Y427280D01*
X32560D01*
Y416880D01*
X31080D01*
Y415950D01*
X24920D01*
Y416880D01*
X23440D01*
Y427280D01*
X24480D01*
Y438920D01*
X21920D01*
Y451840D01*
X22890D01*
Y454160D01*
X21920D01*
Y467080D01*
X24100D01*
Y475380D01*
X16100Y483380D01*
Y490480D01*
X10480D01*
Y509520D01*
X29520D01*
Y504650D01*
G03X31460Y504200I1021J-6D01*
G02X49030Y503010I8541J-4202D01*
G03X50970I970J320D01*
G02X69030I9030J-3010D01*
G03X70970I970J320D01*
G02X89030I9030J-3010D01*
G03X90970I970J320D01*
G02X96990Y509030I9030J-3010D01*
G03Y510970I-320J970D01*
G02X109030Y523010I3010J9030D01*
G03X110970I970J320D01*
G02X129030I9030J-3010D01*
G03X130970I970J320D01*
G02X149030I9030J-3010D01*
G03X150970I970J320D01*
G02X169030I9030J-3010D01*
G03X170970I970J320D01*
G02X189030I9030J-3010D01*
G03X190970I970J320D01*
G02X209030I9030J-3010D01*
G03X210970I970J320D01*
G02X224270Y528510I9032J-3009D01*
G01X224600Y528340D01*
X228900Y532650D01*
X326100D01*
X331920Y526830D01*
G03X333350Y526820I720J719D01*
G02X349030Y523010I6646J-6818D01*
G03X350970I970J320D01*
G02X369030I9030J-3010D01*
G03X370970I970J320D01*
G02X389030I9030J-3010D01*
G03X390970I970J320D01*
G02X409030I9030J-3010D01*
G03X410970I970J320D01*
G02X429030I9030J-3010D01*
G03X430970I970J320D01*
G02X443010Y510970I9030J-3010D01*
G03Y509030I320J-970D01*
G02X449030Y503010I-3010J-9030D01*
G03X450970I970J320D01*
G02X469030I9030J-3010D01*
G03X470970I970J320D01*
G02X489030I9030J-3010D01*
G03X490970I970J320D01*
G02X509030I9030J-3010D01*
G03X510970I970J320D01*
G02X516990Y509030I9030J-3010D01*
G03Y510970I-320J970D01*
G02X529030Y523010I3010J9030D01*
G03X530970I970J320D01*
G02X549030I9030J-3010D01*
G03X550970I970J320D01*
G02X569030I9030J-3010D01*
G03X570970I970J320D01*
G02X589030I9030J-3010D01*
G03X590970I970J320D01*
G02X609030I9030J-3010D01*
G03X610970I970J320D01*
G02X629030I9030J-3010D01*
G03X630970I970J320D01*
G02X649030I9030J-3010D01*
G03X650970I970J320D01*
G02X669030I9030J-3010D01*
G03X670970I970J320D01*
G02X689030I9030J-3010D01*
G03X690970I970J320D01*
G02X709030I9030J-3010D01*
G03X710970I970J320D01*
G02X729030I9030J-3010D01*
G03X730970I970J320D01*
G02X749030I9030J-3010D01*
G03X750970I970J320D01*
G02X769030I9030J-3010D01*
G03X770970I970J320D01*
G02X789030I9030J-3010D01*
G03X790970I970J320D01*
G02X803010Y510970I9030J-3010D01*
G03Y509030I320J-970D01*
G02X790970Y496990I-3010J-9030D01*
G03X789030I-970J-320D01*
G02X770970I-9030J3010D01*
G03X769030I-970J-320D01*
G02X750970I-9030J3010D01*
G03X749030I-970J-320D01*
G02X730970I-9030J3010D01*
G03X729030I-970J-320D01*
G02X710970I-9030J3010D01*
G03X709030I-970J-320D01*
G02X690970I-9030J3010D01*
G03X689030I-970J-320D01*
G02X670970I-9030J3010D01*
G03X669030I-970J-320D01*
G02X650970I-9030J3010D01*
G03X649030I-970J-320D01*
G02X630970I-9030J3010D01*
G03X629030I-970J-320D01*
G02X610970I-9030J3010D01*
G03X609030I-970J-320D01*
G02X590970I-9030J3010D01*
G03X589030I-970J-320D01*
G02X570970I-9030J3010D01*
G03X569030I-970J-320D01*
G02X550970I-9030J3010D01*
G03X549030I-970J-320D01*
G02X530970I-9030J3010D01*
G03X529030I-970J-320D01*
G02X510970I-9030J3010D01*
G03X509030I-970J-320D01*
G02X490970I-9030J3010D01*
G03X489030I-970J-320D01*
G02X470970I-9030J3010D01*
G03X469030I-970J-320D01*
G02X450970I-9030J3010D01*
G03X449030I-970J-320D01*
G02X430970I-9030J3010D01*
G03X429030I-970J-320D01*
G02X410970I-9030J3010D01*
G03X409030I-970J-320D01*
G02X390970I-9030J3010D01*
G03X389030I-970J-320D01*
G02X370970I-9030J3010D01*
G03X369030I-970J-320D01*
G02X350970I-9030J3010D01*
G03X349030I-970J-320D01*
G02X333350Y493180I-9034J3008D01*
G03X331920Y493170I-710J-729D01*
G01X326100Y487350D01*
X311100D01*
X309510Y485760D01*
G03X310230Y484020I721J-721D01*
G01X339840D01*
X347020Y476840D01*
Y474070D01*
X347040Y473990D01*
G02Y471010I-4790J-1490D01*
G01X347020Y470930D01*
Y470160D01*
X343840Y466980D01*
X327840D01*
X327080Y466230D01*
Y466160D01*
X327010D01*
X326840Y465980D01*
X326110D01*
Y462430D01*
X317970D01*
Y462560D01*
G03X316390Y463410I-1019J0D01*
G02X316080Y463230I-2317J3633D01*
G01X316020Y463160D01*
Y460160D01*
X310840Y454980D01*
X299650D01*
Y346100D01*
X301700Y344050D01*
G03X303440Y344770I721J721D01*
G01Y349120D01*
X304920D01*
Y350050D01*
X309220D01*
G03X309980Y351750I-2J1021D01*
G01Y404250D01*
X316980Y411250D01*
Y443250D01*
X325980Y452250D01*
Y458250D01*
X331750Y464020D01*
X345250D01*
X352750Y456520D01*
X353730D01*
X353890Y456700D01*
G02X357750Y458520I3860J-3183D01*
G01X364750D01*
G02Y448480I0J-5020D01*
G01X357750D01*
G02X353740Y450480I0J5020D01*
G01X350020D01*
Y443280D01*
X370560D01*
Y435880D01*
G03X372300Y435160I1019J0D01*
G01X388160Y451020D01*
X440020D01*
Y435480D01*
G03X441760Y434760I1020J2D01*
G01X476000Y469000D01*
X733000D01*
X806000Y396000D01*
Y325000D01*
X763000Y282000D01*
X747000D01*
X738000Y273000D01*
Y250000D01*
X761000Y227000D01*
Y201000D01*
X767000Y195000D01*
X796000D01*
X803000Y188000D01*
Y171000D01*
X801560Y169560D01*
Y159880D01*
X800080D01*
Y158950D01*
X793920D01*
Y159880D01*
X791880D01*
X776260Y144260D01*
G03X776220Y142860I723J-721D01*
G02X776940Y138260I-3221J-2861D01*
G01X776900Y138160D01*
Y132380D01*
X776080Y131570D01*
Y124160D01*
X775110D01*
Y120430D01*
X764890D01*
Y124160D01*
X763920D01*
Y129450D01*
G03X762170Y130170I-1021J4D01*
G01X747000Y115000D01*
X736560D01*
Y106880D01*
X735080D01*
Y105950D01*
X728920D01*
Y106880D01*
X727440D01*
Y115000D01*
X720560D01*
Y106880D01*
X719080D01*
Y105950D01*
X712920D01*
Y106880D01*
X711440D01*
Y115000D01*
X688560D01*
Y106880D01*
X687080D01*
Y105950D01*
X680920D01*
Y106880D01*
X679440D01*
Y115000D01*
X676560D01*
Y106880D01*
X675080D01*
Y105950D01*
X668920D01*
Y106880D01*
X667440D01*
Y115000D01*
X664560D01*
Y106880D01*
X663080D01*
Y105950D01*
X656920D01*
Y106880D01*
X655440D01*
Y115000D01*
X651560D01*
Y106880D01*
X650080D01*
Y105950D01*
X643920D01*
Y106880D01*
X642440D01*
Y115000D01*
X640560D01*
Y96720D01*
X640310D01*
Y96190D01*
G02X640170Y94930I-4307J-159D01*
G01X640100Y94650D01*
X646100Y88650D01*
X658100D01*
X664100Y82650D01*
X676100D01*
X682100Y76650D01*
X693100D01*
X699100Y70650D01*
X712100D01*
X718100Y64650D01*
X732100D01*
X735100Y61650D01*
X749100D01*
X755100Y55650D01*
X767100D01*
X774780Y47970D01*
X775120Y48170D01*
G02X783010Y30970I4887J-8168D01*
G03Y29030I320J-970D01*
G02X789030Y23010I-3010J-9030D01*
G03X790970I970J320D01*
G02Y16990I9030J-3010D01*
G03X789030I-970J-320D01*
G02X770970I-9030J3010D01*
G03X769030I-970J-320D01*
G02X750970I-9030J3010D01*
G03X749030I-970J-320D01*
G02X735730Y11490I-9032J3009D01*
G01X735400Y11660D01*
X731100Y7350D01*
G37*
G54D51*
X50000Y480000D03*
X790000Y60000D03*
Y480000D03*
%LPD*%
G75*
G36*
G01X20650Y176280D02*
Y179260D01*
G02X21520Y179620I509J1D01*
G01X22160Y178980D01*
X42160D01*
X42980Y178160D01*
Y176080D01*
X42920D01*
Y163160D01*
X42980D01*
Y162980D01*
X43890D01*
Y159430D01*
X54110D01*
Y162980D01*
X61980D01*
Y144650D01*
X38100D01*
X36570Y146170D01*
G02X37290Y147920I720J727D01*
G01X38080D01*
Y160840D01*
X37110D01*
Y163160D01*
X38080D01*
Y176080D01*
X25920D01*
Y172640D01*
X24370D01*
X24300Y172570D01*
G02X22560Y173290I-720J723D01*
G01Y176280D01*
X20650D01*
G37*
G36*
G01X20100Y148650D02*
X15650Y153100D01*
Y155720D01*
X22560D01*
Y157900D01*
X24170D01*
G02X25920Y157180I728J-717D01*
G01Y148650D01*
X20100D01*
G37*
G36*
G01X35100Y225350D02*
X40650Y230900D01*
Y239900D01*
X42100Y241350D01*
X48950D01*
Y235920D01*
X49880D01*
Y234440D01*
X54120D01*
G02X54840Y232700I0J-1019D01*
G01X51160Y229020D01*
X42160D01*
X38980Y225840D01*
Y212840D01*
X35160Y209020D01*
X30160D01*
X29760Y208620D01*
G02X28020Y209340I-721J720D01*
G01Y225350D01*
X35100D01*
G37*
G36*
G01X92800Y242040D02*
G02X92920Y242670I449J241D01*
G03X93710Y243670I-1921J2330D01*
G01X93750Y243750D01*
X94000Y244000D01*
Y244680D01*
G03X94020Y245000I-2550J320D01*
G01Y251000D01*
G03X94000Y251320I-2570J0D01*
G01Y252000D01*
X96000D01*
Y251320D01*
G03X95980Y251000I2550J-320D01*
G01Y244080D01*
G03X94950Y239530I3021J-3075D01*
G01X94980Y239440D01*
Y237560D01*
X94950Y237470D01*
G03X97000Y232180I4051J-1472D01*
G01Y194000D01*
X82000Y179000D01*
Y146000D01*
X64000D01*
Y165000D01*
X45000D01*
Y179000D01*
X43000Y181000D01*
X23000D01*
X20650Y183350D01*
Y184100D01*
X13000Y191750D01*
Y222000D01*
X16350Y225350D01*
X26000D01*
Y202000D01*
X25000Y201000D01*
Y192000D01*
X27000Y190000D01*
X60000D01*
X64000Y194000D01*
X81000D01*
X90000Y203000D01*
Y230790D01*
X90350Y230910D01*
G03X92940Y236740I-1351J4091D01*
G01X92900Y236840D01*
Y238160D01*
X92940Y238260D01*
G03X92800Y242040I-3940J1747D01*
G37*
G36*
G01X74000Y252000D02*
X80000D01*
Y251320D01*
G03X79980Y251000I2550J-320D01*
G01Y244080D01*
G03X78950Y239530I3021J-3075D01*
G01X78980Y239440D01*
Y237560D01*
X78950Y237470D01*
G03X78790Y236900I4057J-1446D01*
G01X78750Y236750D01*
X71000Y229000D01*
Y220000D01*
X62000D01*
X60000Y218000D01*
Y197000D01*
X58000Y195000D01*
X29000D01*
Y205000D01*
X31000Y207000D01*
X36000D01*
X41000Y212000D01*
Y225000D01*
X43000Y227000D01*
X52000D01*
X59440Y234440D01*
X60280D01*
Y235280D01*
X66000Y241000D01*
X72000D01*
X74000Y243000D01*
Y244680D01*
G03X74020Y245000I-2550J320D01*
G01Y251000D01*
G03X74000Y251320I-2570J0D01*
G01Y252000D01*
G37*
G36*
G01X11390Y228140D02*
G02X9650Y228860I-721J721D01*
G01Y243430D01*
X19110D01*
Y247160D01*
X20080D01*
Y260080D01*
X17440D01*
Y262440D01*
X18980D01*
Y261980D01*
X26160D01*
X26320Y261830D01*
G02X25600Y260080I-720J-727D01*
G01X23920D01*
Y247160D01*
X23980D01*
Y246980D01*
X24890D01*
Y243430D01*
X35450D01*
G02X35810Y242560I0J-509D01*
G01X35350Y242100D01*
Y233100D01*
X32900Y230650D01*
X13900D01*
X11390Y228140D01*
G37*
G36*
G01X67000Y273000D02*
Y267020D01*
X55160D01*
X55140Y267000D01*
X55000D01*
X49000Y261000D01*
X30000D01*
X27000Y264000D01*
X21000D01*
Y270000D01*
X27000D01*
X30000Y273000D01*
X59680D01*
G03X60000Y272980I320J2550D01*
G01X66000D01*
G03X66320Y273000I0J2570D01*
G01X67000D01*
G37*
G36*
G01X66000Y264980D02*
G03X66320Y265000I0J2570D01*
G01X67000D01*
Y259000D01*
X66320D01*
G03X66000Y259020I-320J-2550D01*
G01X60000D01*
G03X59680Y259000I0J-2570D01*
G01X59000D01*
X58750Y258750D01*
X58670Y258710D01*
G03X57290Y257330I1330J-2710D01*
G01X57250Y257250D01*
X56000Y256000D01*
Y249000D01*
X53650Y246650D01*
X39900D01*
X39250Y246000D01*
X38000D01*
X35000Y249000D01*
X26000D01*
Y258000D01*
X49000D01*
X51460Y260460D01*
X51500Y260490D01*
G03X52510Y261500I-2500J3510D01*
G01X52540Y261540D01*
X56000Y265000D01*
X59680D01*
G03X60000Y264980I320J2550D01*
G01X66000D01*
G37*
G36*
G01X9650Y290570D02*
Y301900D01*
X15530Y307780D01*
X19980Y303330D01*
Y290570D01*
X9650D01*
G37*
G36*
G01X40980Y304340D02*
G02X39240Y303620I-1019J0D01*
G01X39080Y303770D01*
Y304840D01*
X38110D01*
Y308570D01*
X27890D01*
Y308030D01*
G02X27020Y307670I-509J-2D01*
G01X24020Y310670D01*
Y333570D01*
G02X25610Y334420I1022J1D01*
G03X27300Y333750I2397J3579D01*
G01X27720Y333680D01*
Y333440D01*
X40430D01*
Y331560D01*
X37880D01*
Y330080D01*
X36950D01*
Y323920D01*
X37880D01*
Y322440D01*
X48350D01*
Y311900D01*
X48570Y311680D01*
X48310Y311050D01*
X42920D01*
Y310120D01*
X41440D01*
Y310020D01*
X40980D01*
Y304340D01*
G37*
G36*
G01X67000Y289000D02*
Y287000D01*
X66320D01*
G03X66000Y287020I-320J-2550D01*
G01X60000D01*
G03X59680Y287000I0J-2570D01*
G01X50000D01*
X43000Y294000D01*
X29000D01*
Y303000D01*
X37000D01*
X41000Y299000D01*
X47000D01*
X57000Y289000D01*
X59680D01*
G03X60000Y288980I320J2550D01*
G01X66000D01*
G03X66320Y289000I0J2570D01*
G01X67000D01*
G37*
G36*
G01X58750Y277250D02*
X59000Y277000D01*
X59680D01*
G03X60000Y276980I320J2550D01*
G01X66000D01*
G03X66320Y277000I0J2570D01*
G01X67000D01*
Y275020D01*
X36000D01*
Y289000D01*
X44000D01*
X48000Y285000D01*
X49140D01*
X49160Y284980D01*
X54020D01*
X57000Y282000D01*
Y280320D01*
G03Y279680I3000J-320D01*
G01Y279000D01*
X57250Y278750D01*
X57290Y278670D01*
G03X58670Y277290I2710J1330D01*
G01X58750Y277250D01*
G37*
G36*
G01X66000Y296980D02*
G03X66320Y297000I0J2570D01*
G01X67000D01*
Y291020D01*
X58980D01*
X48000Y302000D01*
X43000D01*
Y308000D01*
X48000D01*
X57250Y298750D01*
X57290Y298670D01*
G03X58670Y297290I2710J1330D01*
G01X58750Y297250D01*
X59000Y297000D01*
X59680D01*
G03X60000Y296980I320J2550D01*
G01X66000D01*
G37*
G36*
G01X78900Y349350D02*
X84350Y343900D01*
Y335570D01*
X73890D01*
Y332020D01*
X70980D01*
Y329120D01*
X69080D01*
Y330050D01*
X62920D01*
Y329120D01*
X59080D01*
Y330050D01*
X52920D01*
Y329120D01*
X51440D01*
Y328540D01*
G02X50570Y328180I-509J0D01*
G01X49100Y329650D01*
X48280D01*
Y331560D01*
X45730D01*
Y333440D01*
X48280D01*
Y342560D01*
X45730D01*
Y345020D01*
X43140Y347610D01*
G02X43860Y349350I721J721D01*
G01X78900D01*
G37*
G36*
G01X38400Y354650D02*
G03X34700Y356300I-3400J-2650D01*
G01X34460Y356280D01*
X33650Y357100D01*
Y382900D01*
X45240Y394490D01*
G02X46980Y393770I721J-721D01*
G01Y384110D01*
X43430D01*
Y373890D01*
X46980D01*
Y367110D01*
X43430D01*
Y356890D01*
X46980D01*
Y354650D01*
X38400D01*
G37*
G36*
G01X69030Y23010D02*
G03X63010Y29030I-9030J-3010D01*
G02Y30970I320J970D01*
G03X69030Y36990I-3010J9030D01*
G02X70970I970J-320D01*
G03X76990Y30970I9030J3010D01*
G02Y29030I-320J-970D01*
G03X70970Y23010I3010J-9030D01*
G02X69030I-970J320D01*
G37*
G36*
G01X80090Y83340D02*
X85750Y89000D01*
X89530D01*
G03X93840Y86590I4310J2649D01*
G01X109660D01*
X110510Y85740D01*
G02X109730Y84000I-721J-722D01*
G03X109460Y84010I-270J-3640D01*
G01X93840D01*
G03X89530Y81600I0J-5059D01*
G01X80810D01*
G02X80090Y83340I1J1019D01*
G37*
G36*
G01X101170Y62920D02*
G03X96280Y68250I-4172J1081D01*
G01Y68560D01*
X82140D01*
G02X81150Y69850I-5J1021D01*
G03X79830Y74250I-4152J1153D01*
G01X79650Y74410D01*
Y74900D01*
X81050Y76300D01*
X89530D01*
G03X93840Y73890I4310J2649D01*
G01X109460D01*
G03X113770Y76300I0J5059D01*
G01X115950D01*
X120900Y71350D01*
X121370D01*
G02X121730Y70480I0J-509D01*
G01X118900Y67650D01*
X109900D01*
X103900Y61650D01*
X102160D01*
G02X101170Y62920I0J1021D01*
G37*
G36*
G01X75650Y123970D02*
Y134100D01*
X72140Y137610D01*
G02X72860Y139350I721J721D01*
G01X102900D01*
X103360Y138890D01*
G02X103000Y138020I-360J-361D01*
G01X96980D01*
Y137560D01*
X96880D01*
Y136080D01*
X95950D01*
Y129920D01*
X96880D01*
Y128740D01*
X94160Y126020D01*
X80160D01*
X77390Y123250D01*
G02X75650Y123970I-721J720D01*
G37*
G36*
G01X84020Y178160D02*
X99000Y193140D01*
X103980Y188160D01*
Y144650D01*
X84020D01*
Y178160D01*
G37*
G36*
G01X109000Y122000D02*
X109350Y121650D01*
Y120900D01*
X113000Y117250D01*
Y115000D01*
X111000Y113000D01*
X79000D01*
X77000Y115000D01*
Y120000D01*
X81000Y124000D01*
X95000D01*
X99000Y128000D01*
Y136000D01*
X106000D01*
X109000Y133000D01*
Y122000D01*
G37*
G36*
G01X62020Y196110D02*
Y214430D01*
X72110D01*
Y217980D01*
X73020D01*
Y218160D01*
X73080D01*
Y228230D01*
X75170Y230320D01*
G02X76920Y229600I727J-720D01*
G01Y218160D01*
X77890D01*
Y214430D01*
X87980D01*
Y203840D01*
X80160Y196020D01*
X63160D01*
X62890Y195750D01*
G02X62020Y196110I-361J359D01*
G37*
G36*
G01X107510Y243760D02*
X106020Y245250D01*
Y254020D01*
X99980D01*
Y253990D01*
X99400D01*
G03X98600I-400J-2990D01*
G01X98020D01*
Y254020D01*
X93650D01*
Y254100D01*
X90100Y257650D01*
X79900D01*
X76270Y254020D01*
X71980D01*
Y253990D01*
X71400D01*
G03X67980Y251140I-403J-2993D01*
G01X67960Y250650D01*
X66900D01*
X63390Y247140D01*
G02X61650Y247860I-721J721D01*
G01Y252980D01*
X66000D01*
G03X68990Y256400I0J3017D01*
G01Y256980D01*
X69020D01*
Y279020D01*
X68990D01*
Y279600D01*
G03X68260Y282000I-2991J401D01*
G03X68990Y284400I-2261J1999D01*
G01Y284980D01*
X69020D01*
Y299020D01*
X68990D01*
Y299600D01*
G03X66000Y303020I-2990J403D01*
G01X60730D01*
X56940Y306810D01*
X57250Y307170D01*
G03X58010Y311590I-3249J2834D01*
G02X58960Y312980I948J371D01*
G01X64750D01*
X67980Y309750D01*
Y305000D01*
G03X73000Y302740I3019J0D01*
G03X78020Y305000I2001J2260D01*
G01Y310660D01*
G02X79760Y311380I1019J0D01*
G01X79980Y311160D01*
Y301980D01*
X86020D01*
Y302010D01*
X86600D01*
G03X89000Y302740I401J2991D01*
G03X93000I2000J2260D01*
G03X95400Y302010I1999J2261D01*
G01X95980D01*
Y301980D01*
X102020D01*
Y311160D01*
X102240Y311380D01*
G02X103980Y310660I721J-720D01*
G01Y301980D01*
X116980D01*
Y296980D01*
X117010D01*
Y296400D01*
G03Y295600I2990J-400D01*
G01Y295020D01*
X116980D01*
Y288980D01*
X125660D01*
G02X126380Y287240I0J-1019D01*
G01X126160Y287020D01*
X116980D01*
Y280980D01*
X117010D01*
Y280400D01*
G03X117740Y278000I2991J-401D01*
G03Y274000I2260J-2000D01*
G03Y270000I2260J-2000D01*
G03Y266000I2260J-2000D01*
G03Y262000I2260J-2000D01*
G03Y258000I2260J-2000D01*
G03X120000Y252980I2260J-2001D01*
G01X126350D01*
Y250650D01*
X118040D01*
X118020Y251140D01*
G03X113000Y253260I-3017J-141D01*
G03X107980Y251000I-2001J-2260D01*
G01Y245000D01*
G03X108010Y244560I3242J0D01*
G01X108050Y244300D01*
X107510Y243760D01*
G37*
G36*
G01X95830Y320230D02*
G02X95070Y321570I199J999D01*
G03X90730Y327300I-4067J1428D01*
G02X89650Y328320I-60J1019D01*
G01Y346100D01*
X89000Y346750D01*
Y347000D01*
X81000Y355000D01*
X50000D01*
X49000Y356000D01*
Y398000D01*
X95000Y444000D01*
X124000D01*
X128000Y440000D01*
Y418000D01*
X123000Y413000D01*
X96000D01*
X91000Y408000D01*
Y360000D01*
X103000Y348000D01*
Y315000D01*
X101750Y313750D01*
X101670Y313710D01*
G03X100290Y312330I1330J-2710D01*
G01X100250Y312250D01*
X100000Y312000D01*
Y311320D01*
G03X99980Y311000I2550J-320D01*
G01Y304000D01*
X98000D01*
Y304680D01*
G03X98020Y305000I-2550J320D01*
G01Y312920D01*
G03X95830Y320230I-3018J3079D01*
G37*
G36*
G01X80250Y313750D02*
X79000Y315000D01*
X76270D01*
X73000Y318270D01*
Y330000D01*
X84000D01*
Y311320D01*
G03X83980Y311000I2550J-320D01*
G01Y305000D01*
G03X84000Y304680I2570J0D01*
G01Y304000D01*
X82020D01*
Y311000D01*
G03X82000Y311320I-2570J0D01*
G01Y312000D01*
X81750Y312250D01*
X81710Y312330D01*
G03X80330Y313710I-2710J-1330D01*
G01X80250Y313750D01*
G37*
G36*
G01X102240Y351620D02*
X93020Y360840D01*
Y407160D01*
X96840Y410980D01*
X123840D01*
X127610Y414750D01*
G02X129350Y414030I721J-720D01*
G01Y409020D01*
X103980D01*
Y352340D01*
G02X102240Y351620I-1019J0D01*
G37*
G36*
G01X149030Y23010D02*
G03X146050Y27350I-9032J-3008D01*
G01X147100D01*
X152650Y32900D01*
Y33950D01*
G03X156990Y30970I7348J6052D01*
G02Y29030I-320J-970D01*
G03X150970Y23010I3010J-9030D01*
G02X149030I-970J320D01*
G37*
G36*
G01X150000Y90000D02*
X124000D01*
X121000Y93000D01*
Y112000D01*
X135000D01*
X138000Y115000D01*
X150000D01*
X152000Y113000D01*
Y92000D01*
X150000Y90000D01*
G37*
G36*
G01X130110Y114020D02*
Y117570D01*
X119650D01*
Y118100D01*
X114650Y123100D01*
Y135100D01*
X107510Y142240D01*
G02X108230Y143980I721J721D01*
G01X126020D01*
Y196020D01*
X117840D01*
X110020Y203840D01*
Y214430D01*
X120110D01*
Y218160D01*
X121080D01*
Y231080D01*
X118900D01*
Y234160D01*
X118940Y234260D01*
G03X119170Y237080I-3941J1741D01*
G02X120160Y238350I990J249D01*
G01X127900D01*
X129630Y236620D01*
G02X129310Y234960I-722J-722D01*
G03X126720Y231530I1686J-3966D01*
G01X126670Y231080D01*
X124920D01*
Y218160D01*
X125890D01*
Y214430D01*
X136110D01*
Y218160D01*
X137080D01*
Y228280D01*
X137710Y228540D01*
X137900Y228350D01*
X140920D01*
Y218160D01*
X141890D01*
Y214430D01*
X152110D01*
Y218160D01*
X153080D01*
Y228350D01*
X199710D01*
G03X204700Y235360I2289J3652D01*
G02X204620Y236870I642J791D01*
G01X205980Y238240D01*
G02X207730Y237520I727J-720D01*
G01X207720Y233440D01*
X208900D01*
Y226270D01*
X205250D01*
G03X202230Y223250I0J-3020D01*
G01Y208750D01*
G03X205250Y205730I3020J0D01*
G01X224950D01*
G03X225980Y205910I0J3037D01*
G02X227350Y204950I351J-957D01*
G01Y202100D01*
X202760Y177510D01*
G02X201020Y178230I-721J721D01*
G01Y223840D01*
X197840Y227020D01*
X156980D01*
Y202160D01*
X176980Y182160D01*
Y144160D01*
X179840Y141300D01*
G02X179120Y139560I-720J-721D01*
G01X170720D01*
Y119020D01*
X163150D01*
Y122490D01*
G03X165520Y126750I-2644J4260D01*
G01Y133750D01*
G03X155480I-5020J0D01*
G01Y126750D01*
G03X157630Y122630I5023J0D01*
G01X157850Y122480D01*
Y121600D01*
X152050Y115800D01*
X150840Y117020D01*
X137160D01*
X134160Y114020D01*
X130110D01*
G37*
G36*
G01X102020Y251000D02*
G03X102000Y251320I-2570J0D01*
G01Y252000D01*
X103980D01*
Y245000D01*
G03X104000Y244680I2570J0D01*
G01Y244000D01*
X104250Y243750D01*
X104290Y243670D01*
G03X105670Y242290I2710J1330D01*
G01X105750Y242250D01*
X108000Y240000D01*
Y203000D01*
X117000Y194000D01*
X124000D01*
Y146000D01*
X106000D01*
Y189000D01*
X101000Y194000D01*
Y232180D01*
G03X103050Y237470I-2001J3818D01*
G01X103020Y237560D01*
Y239440D01*
X103050Y239530D01*
G03X102020Y244080I-4051J1475D01*
G01Y251000D01*
G37*
G36*
G01X135440Y284020D02*
X132560D01*
X132470Y284050D01*
G03X127920Y283020I-1475J-4051D01*
G01X120000D01*
G03X119680Y283000I0J-2570D01*
G01X119000D01*
Y284980D01*
X126000D01*
G03X126320Y285000I0J2570D01*
G01X127000D01*
X127250Y285250D01*
X127330Y285290D01*
G03X128710Y286670I-1330J2710D01*
G01X128750Y286750D01*
X130000Y288000D01*
X203000D01*
Y267000D01*
X143000D01*
X134890Y275110D01*
G02X135250Y275980I361J360D01*
G01X135440D01*
X135530Y275950D01*
G03Y284050I1470J4050D01*
G01X135440Y284020D01*
G37*
G36*
G01X127910Y323400D02*
G02X126170Y322680I-1020J2D01*
G01X124080Y324770D01*
Y331840D01*
X124020D01*
Y332020D01*
X123110D01*
Y335570D01*
X114020D01*
Y344980D01*
X125840D01*
X131020Y350160D01*
Y376770D01*
G02X132760Y377490I1019J-1D01*
G01X143900Y366350D01*
X144840D01*
G02X145830Y365080I0J-1021D01*
G03X145950Y362530I4171J-1082D01*
G01X145980Y362440D01*
Y359670D01*
X140980Y354670D01*
Y332020D01*
X139110D01*
Y335570D01*
X128890D01*
Y332020D01*
X127980D01*
Y331840D01*
X127920D01*
X127910Y323400D01*
G37*
G36*
G01X141760Y310620D02*
G02X140020Y311340I-721J720D01*
G01Y318920D01*
X140080D01*
Y321360D01*
X142050D01*
X148240Y327550D01*
G02X149980Y326830I721J-719D01*
G01Y318840D01*
X141760Y310620D01*
G37*
G36*
G01X205020Y271230D02*
Y290020D01*
X151340D01*
G02X150620Y291760I0J1019D01*
G01X159840Y300980D01*
X198840D01*
X205020Y307160D01*
Y334770D01*
G02X206760Y335490I1019J-1D01*
G01X208350Y333900D01*
Y272100D01*
X206760Y270510D01*
G02X205020Y271230I-721J721D01*
G37*
G36*
G01X126000Y292980D02*
G03X126320Y293000I0J2570D01*
G01X127000D01*
X127250Y293250D01*
X127330Y293290D01*
G03X128710Y294670I-1330J2710D01*
G01X128750Y294750D01*
X152000Y318000D01*
Y347000D01*
X177000D01*
X177430Y347430D01*
X179110D01*
Y349110D01*
X181000Y351000D01*
X190000D01*
X203000Y338000D01*
Y308000D01*
X198000Y303000D01*
X159000D01*
X147000Y291000D01*
X126320D01*
G03X126000Y291020I-320J-2550D01*
G01X119000D01*
Y293000D01*
X119680D01*
G03X120000Y292980I320J2550D01*
G01X126000D01*
G37*
G36*
G01X119000Y299000D02*
Y301000D01*
X120000D01*
X130000Y311000D01*
Y330000D01*
X138000D01*
Y311000D01*
X126020Y299020D01*
X120000D01*
G03X119680Y299000I0J-2570D01*
G01X119000D01*
G37*
G36*
G01X113670Y347080D02*
X111920D01*
Y334160D01*
X112000D01*
Y331840D01*
X111920D01*
Y318920D01*
X112000D01*
Y317000D01*
X108000Y313000D01*
Y311320D01*
G03X107980Y311000I2550J-320D01*
G01Y305000D01*
G03X108000Y304680I2570J0D01*
G01Y304000D01*
X106020D01*
Y311000D01*
G03X106000Y311320I-2570J0D01*
G01Y407000D01*
X129000D01*
Y351000D01*
X125000Y347000D01*
X124080D01*
Y347080D01*
X122330D01*
X122280Y347530D01*
G03X113720I-4280J-530D01*
G01X113670Y347080D01*
G37*
G36*
G01X116000Y306000D02*
Y304000D01*
X110020D01*
Y312020D01*
X114000Y316000D01*
Y316140D01*
X114020Y316160D01*
Y330000D01*
X122000D01*
Y324000D01*
X126000Y320000D01*
Y316000D01*
X116000Y306000D01*
G37*
G36*
G01X149020Y349020D02*
Y351330D01*
X151740Y354060D01*
X151820Y354090D01*
G03X154050Y359470I-1821J3907D01*
G01X154020Y359560D01*
Y362440D01*
X154050Y362530D01*
G03X154170Y365080I-4051J1468D01*
G02X155160Y366350I990J249D01*
G01X175900D01*
X187490Y354760D01*
G02X186770Y353020I-721J-721D01*
G01X180160D01*
X179710Y352570D01*
X168890D01*
Y349020D01*
X163110D01*
Y352570D01*
X152890D01*
Y349020D01*
X149020D01*
G37*
G36*
G01X138000Y447000D02*
X141000Y450000D01*
X155000D01*
X160000Y455000D01*
X175000D01*
Y449000D01*
X164000D01*
X160000Y445000D01*
Y440000D01*
X166000Y434000D01*
Y376000D01*
X147000D01*
X141000Y382000D01*
Y424000D01*
X138000Y427000D01*
Y447000D01*
G37*
G36*
G01X138110Y383640D02*
X137650Y384100D01*
Y423260D01*
G02X138520Y423620I509J1D01*
G01X138980Y423160D01*
Y384000D01*
G02X138110Y383640I-509J0D01*
G37*
G36*
G01X139390Y451250D02*
G02X137650Y451970I-721J720D01*
G01Y458900D01*
X151100Y472350D01*
X168100D01*
X182650Y486900D01*
Y490860D01*
G03X185720Y492390I-2641J9145D01*
G02X187350Y491570I610J-817D01*
G01Y481100D01*
X175350Y469100D01*
Y467170D01*
G02X173980Y466210I-1021J-1D01*
G03X172250Y466520I-1730J-4672D01*
G01X165250D01*
G03X162070Y465390I0J-5040D01*
G01X161930Y465270D01*
X161090D01*
X160980Y465330D01*
G03X157540Y457450I-1986J-3824D01*
G02X157910Y455770I-352J-958D01*
G01X156850Y454710D01*
G02X155110Y455430I-721J720D01*
G01Y455570D01*
X144890D01*
Y452020D01*
X140160D01*
X139390Y451250D01*
G37*
G36*
G01X152140Y485390D02*
X152650Y485900D01*
Y491570D01*
G02X154280Y492390I1020J3D01*
G03X165720I5720J7610D01*
G02X167350Y491570I610J-817D01*
G01Y488160D01*
G02X166080Y487170I-1021J0D01*
G03X160820Y484040I-1079J-4171D01*
G01X160720Y483650D01*
X152860D01*
G02X152140Y485390I1J1019D01*
G37*
G36*
G01X127610Y443250D02*
X124840Y446020D01*
X119230D01*
G02X118510Y447760I1J1019D01*
G01X127610Y456860D01*
G02X129350Y456140I721J-721D01*
G01Y443970D01*
G02X127610Y443250I-1019J0D01*
G37*
G36*
G01X129030Y503010D02*
G03X123010Y509030I-9030J-3010D01*
G02Y510970I320J970D01*
G03X129030Y516990I-3010J9030D01*
G02X130970I970J-320D01*
G03X136990Y510970I9030J3010D01*
G02Y509030I-320J-970D01*
G03X130970Y503010I3010J-9030D01*
G02X129030I-970J320D01*
G37*
G36*
G01X109030D02*
G03X103010Y509030I-9030J-3010D01*
G02Y510970I320J970D01*
G03X109030Y516990I-3010J9030D01*
G02X110970I970J-320D01*
G03X116990Y510970I9030J3010D01*
G02Y509030I-320J-970D01*
G03X110970Y503010I3010J-9030D01*
G02X109030I-970J320D01*
G37*
G36*
G01X155770Y87030D02*
X157650Y88900D01*
Y98490D01*
G02X158980Y99470I1021J7D01*
G03X165520Y104250I1523J4780D01*
G01Y110830D01*
X165670Y110980D01*
X170720D01*
Y110440D01*
X181120D01*
Y111920D01*
X182050D01*
Y118080D01*
X181120D01*
Y119980D01*
X188160D01*
X189980Y118160D01*
Y110840D01*
X187230Y108080D01*
X186160D01*
Y107110D01*
X182430D01*
Y97650D01*
X181900D01*
X172900Y88650D01*
X160900D01*
X157540Y85280D01*
X157300Y85300D01*
G03X156590Y85290I-295J-4300D01*
G02X155770Y87030I-98J1017D01*
G37*
G36*
G01X189620Y107620D02*
X192000Y110000D01*
Y119000D01*
X189000Y122000D01*
X183000D01*
Y141000D01*
X179000Y145000D01*
Y183000D01*
X159000Y203000D01*
Y225000D01*
X197000D01*
X199000Y223000D01*
Y147000D01*
X190000Y138000D01*
Y130000D01*
X194000Y126000D01*
X201000D01*
Y120750D01*
X199250Y119000D01*
X197000D01*
Y98750D01*
X196250Y98000D01*
X188000D01*
Y106000D01*
X188540Y106540D01*
X188580Y106570D01*
G03X189620Y107620I-2497J3513D01*
G37*
G36*
G01X194290Y128570D02*
X192020Y130840D01*
Y137160D01*
X199610Y144750D01*
G02X201350Y144030I721J-720D01*
G01Y129050D01*
X194920D01*
Y128830D01*
X194290Y128570D01*
G37*
G36*
G01X184120Y248650D02*
Y249920D01*
X185050D01*
Y256080D01*
X184120D01*
Y257350D01*
X199140D01*
G02X199860Y255610I-1J-1019D01*
G01X192900Y248650D01*
X184120D01*
G37*
G36*
G01X159570D02*
Y257350D01*
X173720D01*
Y248650D01*
X159570D01*
G37*
G36*
G01X226350Y264790D02*
G02X224880Y263880I-1019J4D01*
G03X223140Y264310I-1882J-3879D01*
G02X222650Y264820I19J509D01*
G01Y340100D01*
X199510Y363240D01*
G02X200230Y364980I721J721D01*
G01X240840D01*
X243020Y367160D01*
Y391020D01*
X215840D01*
X209020Y397840D01*
Y435840D01*
X196840Y448020D01*
X183650D01*
Y456300D01*
G02X185190Y457180I1019J4D01*
G03X187750Y456480I2560J4331D01*
G01X194750D01*
G03X197760Y457480I0J5030D01*
G01X202440D01*
Y456880D01*
X203920D01*
Y455950D01*
X210080D01*
Y456880D01*
X211560D01*
Y458060D01*
X213440D01*
Y457020D01*
X212980D01*
Y447160D01*
X216980Y443160D01*
Y411160D01*
X220160Y407980D01*
X240840D01*
X243020Y410160D01*
Y421980D01*
X252890D01*
Y418430D01*
X264000D01*
Y396080D01*
X263330D01*
G02X262310Y397080I1J1021D01*
G03X253690I-4310J-80D01*
G02X252670Y396080I-1021J21D01*
G01X251920D01*
Y383160D01*
X252890D01*
Y379430D01*
X264000D01*
Y318000D01*
X284000Y298000D01*
X284880D01*
Y296080D01*
X283950D01*
Y289920D01*
X284880D01*
Y286080D01*
X283950D01*
Y279920D01*
X284880D01*
Y276080D01*
X283950D01*
Y270650D01*
X230900D01*
X226350Y266100D01*
Y264790D01*
G37*
G36*
G01X185240Y377510D02*
X183650Y379100D01*
Y423030D01*
G02X185390Y423750I1019J0D01*
G01X186980Y422160D01*
Y378230D01*
G02X185240Y377510I-1019J1D01*
G37*
G36*
G01X168020Y374650D02*
Y434840D01*
X167120Y435740D01*
G02X167840Y437480I720J721D01*
G01X172250D01*
G03X173980Y437790I0J4982D01*
G02X175350Y436830I349J-959D01*
G01Y375400D01*
X175470Y375280D01*
X175210Y374650D01*
X168020D01*
G37*
G36*
G01X241000Y389000D02*
Y368000D01*
X240000Y367000D01*
X198000D01*
X189000Y376000D01*
Y423000D01*
X185000Y427000D01*
Y446000D01*
X196000D01*
X207000Y435000D01*
Y397000D01*
X215000Y389000D01*
X241000D01*
G37*
G36*
G01X185900Y468150D02*
X195650Y477900D01*
Y490000D01*
G02X196990Y490970I1020J1D01*
G03X206290Y492850I3014J9031D01*
G02X207980Y492090I671J-766D01*
G01Y481160D01*
X220130Y469020D01*
G02X219410Y467280I-722J-720D01*
G01X213440D01*
Y466100D01*
X211560D01*
Y467280D01*
X202440D01*
Y465520D01*
X197760D01*
G03X194750Y466520I-3010J-4030D01*
G01X187750D01*
G03X186810Y466430I0J-4954D01*
G02X185900Y468150I-185J1003D01*
G37*
G36*
G01X208520Y506370D02*
G02X207040Y506410I-721J723D01*
G03X203010Y509030I-7036J-6413D01*
G02Y510970I320J970D01*
G03X209030Y516990I-3010J9030D01*
G02X210970I970J-320D01*
G03X213760Y512810I9032J3007D01*
G02X213170Y511020I-668J-772D01*
G01X208520Y506370D01*
G37*
G36*
G01X252650Y48430D02*
Y56900D01*
X255610Y59860D01*
G02X257350Y59140I721J-721D01*
G01Y49150D01*
X257000Y49040D01*
G03X254280Y47610I3013J-9033D01*
G02X252650Y48430I-610J817D01*
G37*
G36*
G01X215140Y69390D02*
X229100Y83350D01*
X233140D01*
G02X233860Y81610I-1J-1019D01*
G01X219900Y67650D01*
X215860D01*
G02X215140Y69390I1J1019D01*
G37*
G36*
G01X212650Y147630D02*
Y171900D01*
X213480Y172730D01*
G02X214350Y172370I361J-360D01*
G01Y148100D01*
X213520Y147270D01*
G02X212650Y147630I-361J360D01*
G37*
G36*
G01X225980Y226090D02*
G03X224950Y226270I-1030J-2857D01*
G01X216940D01*
Y233440D01*
X223810D01*
X227350Y229900D01*
Y227050D01*
G02X225980Y226090I-1019J-3D01*
G37*
G36*
G01X219000Y412000D02*
Y444000D01*
X215000Y448000D01*
Y455000D01*
X221000D01*
X224000Y458000D01*
Y468000D01*
X210000Y482000D01*
Y505000D01*
X214000Y509000D01*
X226000D01*
X230000Y505000D01*
Y487000D01*
X262000Y455000D01*
Y424000D01*
X241000D01*
Y411000D01*
X240000Y410000D01*
X221000D01*
X219000Y412000D01*
G37*
G36*
G01X312790Y506960D02*
X307100Y512650D01*
X251100D01*
X248340Y515400D01*
X248510Y515730D01*
G03X247610Y525720I-8510J4269D01*
G02X248430Y527350I817J610D01*
G01X311570D01*
G02X312390Y525720I3J-1020D01*
G03X316990Y510970I7610J-5719D01*
G02Y509030I-320J-970D01*
G03X313490Y506950I3001J-9035D01*
G02X312790Y506960I-345J374D01*
G37*
G36*
G01X232960Y506410D02*
G02X231480Y506370I-759J683D01*
G01X226830Y511020D01*
G02X226240Y512810I78J1018D01*
G03X229030Y516990I-6242J7187D01*
G02X230970I970J-320D01*
G03X236990Y510970I9030J3010D01*
G02Y509030I-320J-970D01*
G03X232960Y506410I3006J-9033D01*
G37*
G36*
G01X265720Y47610D02*
G03X262650Y49140I-5711J-7615D01*
G01Y62900D01*
X265610Y65860D01*
G02X267350Y65140I721J-721D01*
G01Y48430D01*
G02X265720Y47610I-1020J-3D01*
G37*
G36*
G01X290630Y49380D02*
X288080Y46830D01*
G02X286650Y46820I-720J719D01*
G03X274280Y47610I-6646J-6819D01*
G02X272650Y48430I-610J817D01*
G01Y68900D01*
X275700Y71950D01*
G02X277440Y71230I721J-721D01*
G01Y55720D01*
X286680D01*
G02X287700Y54760I2J-1019D01*
G03X290310Y51040I4301J242D01*
G02X290630Y49380I-402J-938D01*
G37*
G36*
G01X315980Y95770D02*
X314140Y97600D01*
X314320Y97940D01*
G03X314680Y99360I-2621J1420D01*
G01Y104560D01*
G03X313400Y107030I-3023J0D01*
G02Y108690I590J830D01*
G03X314680Y111160I-1743J2470D01*
G01Y116360D01*
G03X313810Y118480I-3018J0D01*
G01Y119980D01*
G02X315550Y120700I1019J-1D01*
G01X316850Y119400D01*
Y118630D01*
X316720Y118490D01*
G03X315980Y116500I2306J-1990D01*
G01Y111300D01*
G03X317260Y108830I3023J0D01*
G02Y107170I-590J-830D01*
G03X315980Y104700I1743J-2470D01*
G01Y99500D01*
G03X316850Y97380I3018J0D01*
G01Y96130D01*
G02X315980Y95770I-509J0D01*
G37*
G36*
G01X294650Y76280D02*
Y77100D01*
X294280Y77460D01*
X294300Y77700D01*
G03X287000Y81090I-4299J298D01*
G03X286290Y81650I-3008J-3084D01*
G01X286240Y81690D01*
X285830Y82090D01*
X287150Y83400D01*
Y89640D01*
G02X288890Y90360I1019J-1D01*
G01X299350Y79900D01*
Y76280D01*
X294650D01*
G37*
G36*
G01X322150Y121130D02*
Y121600D01*
X318650Y125100D01*
Y139100D01*
X308510Y149240D01*
G02X309230Y150980I721J721D01*
G01X319500D01*
G03X321760Y156000I0J3019D01*
G03Y160000I-2260J2000D01*
G03Y164000I-2260J2000D01*
G03Y168000I-2260J2000D01*
G03Y172000I-2260J2000D01*
G03Y176000I-2260J2000D01*
G03Y180000I-2260J2000D01*
G03Y184000I-2260J2000D01*
G03Y188000I-2260J2000D01*
G03Y192000I-2260J2000D01*
G03Y196000I-2260J2000D01*
G03Y200000I-2260J2000D01*
G03Y204000I-2260J2000D01*
G03Y208000I-2260J2000D01*
G03Y212000I-2260J2000D01*
G03Y216000I-2260J2000D01*
G03Y220000I-2260J2000D01*
G03Y224000I-2260J2000D01*
G03Y228000I-2260J2000D01*
G03Y232000I-2260J2000D01*
G03Y236000I-2260J2000D01*
G03Y240000I-2260J2000D01*
G03Y244000I-2260J2000D01*
G03Y248000I-2260J2000D01*
G03Y252000I-2260J2000D01*
G03Y256000I-2260J2000D01*
G03X322430Y257290I-2264J1995D01*
G02X324110Y257800I991J-244D01*
G03X327300Y256700I2888J3200D01*
G01X327540Y256720D01*
X328200Y256050D01*
G02X327760Y254350I-719J-721D01*
G03X324480Y250000I1245J-4350D01*
G01Y171130D01*
X352130Y143480D01*
X353860D01*
Y142550D01*
X353450Y142470D01*
G03X352000Y141760I555J-2968D01*
G03X348000I-2000J-2260D01*
G03X344000I-2000J-2260D01*
G03X340000I-2000J-2260D01*
G03X336000I-2000J-2260D01*
G03X330980Y139500I-2001J-2260D01*
G01Y125650D01*
X327900D01*
X323020Y120770D01*
G02X322150Y121130I-361J360D01*
G37*
G36*
G01X269650Y198860D02*
Y227900D01*
X271100Y229350D01*
X279310D01*
Y219250D01*
X283040D01*
Y218280D01*
X289070D01*
G02X289790Y216530I0J-1023D01*
G01X271390Y198140D01*
G02X269650Y198860I-721J721D01*
G37*
G36*
G01X270140Y245390D02*
X273100Y248350D01*
X287950D01*
Y243650D01*
X270860D01*
G02X270140Y245390I1J1019D01*
G37*
G36*
G01X317610Y374500D02*
G02X316020Y375350I-568J849D01*
G01Y401750D01*
X323020Y408750D01*
Y440750D01*
X331960Y449690D01*
X332310Y449430D01*
G03X335250Y448480I2940J4074D01*
G01X340830D01*
X341980Y447330D01*
Y443280D01*
X341440D01*
Y432880D01*
X342920D01*
Y431950D01*
X349080D01*
Y432880D01*
X350980D01*
Y424840D01*
X347160Y421020D01*
X344840D01*
X339080Y426770D01*
Y427840D01*
X338110D01*
Y431570D01*
X327890D01*
Y428020D01*
X326980D01*
Y427840D01*
X326920D01*
Y414920D01*
X328230D01*
X333160Y409980D01*
X360020D01*
Y410440D01*
X360120D01*
Y411920D01*
X361050D01*
Y418080D01*
X360120D01*
Y419260D01*
X362840Y421980D01*
X368160D01*
X377160Y412980D01*
X417520D01*
G02X418240Y411240I-2J-1020D01*
G01X396000Y389000D01*
Y382000D01*
X393000Y379000D01*
Y377050D01*
X388920D01*
Y376120D01*
X385080D01*
Y377050D01*
X379520D01*
Y386540D01*
X381890Y388920D01*
X390840D01*
Y389890D01*
X394570D01*
Y400110D01*
X390840D01*
Y401080D01*
X377920D01*
Y394890D01*
X372480Y389460D01*
Y377050D01*
X366920D01*
Y376120D01*
X363080D01*
Y377050D01*
X357520D01*
Y388920D01*
X358840D01*
Y389890D01*
X362570D01*
Y400110D01*
X358840D01*
Y401080D01*
X345920D01*
Y388920D01*
X350480D01*
Y377050D01*
X344920D01*
Y376120D01*
X341080D01*
Y377050D01*
X335470D01*
Y386490D01*
X337520Y388540D01*
Y388920D01*
X342080D01*
Y401080D01*
X329160D01*
Y400110D01*
X325430D01*
Y389890D01*
X328430D01*
Y377050D01*
X322920D01*
Y376120D01*
X321430D01*
G02X320340Y375220I-1011J114D01*
G03X317610Y374500I-327J-4297D01*
G37*
G36*
G01X322470Y347800D02*
X316020Y354250D01*
Y355160D01*
X316750D01*
X316900Y355010D01*
G03X323380Y355320I3104J2990D01*
G01X330890D01*
X330980Y355230D01*
Y343000D01*
G02X329240Y342280I-1019J-1D01*
G01X324840Y346680D01*
G03X322630Y347780I-2754J-2763D01*
G01X322470Y347800D01*
G37*
G36*
G01X310000Y457000D02*
X301000D01*
X299650Y458350D01*
Y474650D01*
X307000Y482000D01*
X339000D01*
X345000Y476000D01*
Y471000D01*
X343000Y469000D01*
X327000D01*
X326000Y468000D01*
X318000D01*
X314000Y464000D01*
Y461000D01*
X310000Y457000D01*
G37*
G36*
G01X345720Y47610D02*
G03X343000Y49040I-5733J-7603D01*
G01X342650Y49150D01*
Y57140D01*
G02X344390Y57860I1019J-1D01*
G01X347350Y54900D01*
Y48430D01*
G02X345720Y47610I-1020J-3D01*
G37*
G36*
G01X332650Y48430D02*
Y63140D01*
G02X334390Y63860I1019J-1D01*
G01X337350Y60900D01*
Y49140D01*
G03X334280Y47610I2641J-9145D01*
G02X332650Y48430I-610J817D01*
G37*
G36*
G01X325720Y47610D02*
G03X323650Y48790I-5712J-7615D01*
G01Y68140D01*
G02X325390Y68860I1019J-1D01*
G01X327350Y66900D01*
Y48430D01*
G02X325720Y47610I-1020J-3D01*
G37*
G36*
G01X370610Y96140D02*
X367650Y99100D01*
Y107950D01*
X372350D01*
Y96860D01*
G02X370610Y96140I-1019J1D01*
G37*
G36*
G01X355870Y152520D02*
X333520Y174870D01*
Y175500D01*
G02X334390Y175860I509J0D01*
G01X356860Y153390D01*
G02X356500Y152520I-360J-361D01*
G01X355870D01*
G37*
G36*
G01X502970Y154770D02*
X502100Y155650D01*
X453100D01*
X436100Y172650D01*
X353100D01*
X344650Y181100D01*
Y258100D01*
X330100Y272650D01*
X329860D01*
G02X329140Y274390I1J1019D01*
G01X336650Y281900D01*
Y323100D01*
X336390Y323360D01*
G02X337110Y325100I721J721D01*
G01X359870D01*
X365900Y331130D01*
Y334160D01*
X365940Y334260D01*
G03X366210Y336930I-3940J1747D01*
G02X366600Y337540I497J112D01*
G03X369020Y340500I-600J2960D01*
G01Y358230D01*
G02X369890Y358590I509J2D01*
G01X370380Y358100D01*
X370540D01*
G02X371410Y356560I-5J-1019D01*
G03X370980Y355000I2615J-1560D01*
G01Y340500D01*
G03X371300Y339150I3008J0D01*
G01X371350Y339050D01*
Y336900D01*
X372350Y335900D01*
Y335410D01*
X372170Y335250D01*
G03X379250Y331270I2832J-3250D01*
G02X379780Y331700I504J-80D01*
G03X384170Y337100I222J4304D01*
G02X384850Y337710I491J136D01*
G03X385380Y337540I1184J2779D01*
G02X385780Y336940I-100J-500D01*
G03X394220I4220J-860D01*
G02X394620Y337540I500J100D01*
G03X396000Y338240I-631J2954D01*
G03X400000I2000J2260D01*
G03X404000I2000J2260D01*
G03X408000I2000J2260D01*
G03X412000I2000J2260D01*
G03X416000I2000J2260D01*
G03X420000I2000J2260D01*
G03X424000I2000J2260D01*
G03X428000I2000J2260D01*
G03X432000I2000J2260D01*
G03X433400Y337540I2004J2258D01*
G02X433790Y336930I-107J-498D01*
G03X434120Y334120I4209J-930D01*
G02X433210Y332650I-914J-451D01*
G01X426280D01*
X426180Y333040D01*
G03X418290Y334190I-4181J-1042D01*
G02X417650Y333980I-440J260D01*
G03X411750Y330730I-1652J-3981D01*
G02X411220Y330300I-504J80D01*
G03X406930Y327430I-226J-4304D01*
G02X406300Y327110I-481J166D01*
G03X405300Y318700I-1299J-4110D01*
G01X405540Y318720D01*
X405900Y318350D01*
X480900D01*
X491350Y307900D01*
Y183900D01*
X515750Y159500D01*
X514280Y158030D01*
G02X512690Y158230I-716J724D01*
G03X504710Y155590I-3689J-2229D01*
G02X502970Y154770I-1017J-98D01*
G37*
G36*
G01X326690Y293370D02*
G03X323070Y294210I-2689J-3369D01*
G02X322460Y294600I-112J497D01*
G03X321760Y296000I-2958J-604D01*
G03Y300000I-2260J2000D01*
G03Y304000I-2260J2000D01*
G03X322440Y306680I-2261J2000D01*
G02X323740Y307880I996J225D01*
G03X326880Y308120I1264J4120D01*
G02X328350Y307210I451J-914D01*
G01Y294160D01*
G02X326690Y293370I-1019J2D01*
G37*
G36*
G01X347610Y419000D02*
X348000D01*
X348460Y419460D01*
G03X349540Y420540I-2460J3540D01*
G01X353000Y424000D01*
Y431000D01*
X371000D01*
X389000Y449000D01*
X438000D01*
Y425000D01*
X428000Y415000D01*
X378000D01*
X369000Y424000D01*
X362000D01*
X358000Y420000D01*
Y412000D01*
X334000D01*
X329000Y417000D01*
Y426000D01*
X337000D01*
X342460Y420540D01*
G03X343540Y419460I3540J2460D01*
G01X344000Y419000D01*
X344390D01*
X344480Y418970D01*
G03X347520I1520J4030D01*
G01X347610Y419000D01*
G37*
G36*
G01X382000Y458000D02*
X371000Y469000D01*
X357000D01*
X355000Y471000D01*
Y475000D01*
X357000Y477000D01*
X430000D01*
Y458000D01*
X382000D01*
G37*
G36*
G01X369030Y503010D02*
G03X363010Y509030I-9030J-3010D01*
G02Y510970I320J970D01*
G03X369030Y516990I-3010J9030D01*
G02X370970I970J-320D01*
G03X376990Y510970I9030J3010D01*
G02Y509030I-320J-970D01*
G03X370970Y503010I3010J-9030D01*
G02X369030I-970J320D01*
G37*
G36*
G01X349030D02*
G03X343010Y509030I-9030J-3010D01*
G02Y510970I320J970D01*
G03X349030Y516990I-3010J9030D01*
G02X350970I970J-320D01*
G03X356990Y510970I9030J3010D01*
G02Y509030I-320J-970D01*
G03X350970Y503010I3010J-9030D01*
G02X349030I-970J320D01*
G37*
G36*
G01X413100Y79650D02*
X396650Y96100D01*
Y99100D01*
X394650Y101100D01*
Y107950D01*
X401350D01*
Y93900D01*
X414730Y80520D01*
G02X414370Y79650I-360J-361D01*
G01X413100D01*
G37*
G36*
G01X425100Y97650D02*
X421650Y101100D01*
Y108880D01*
X422920D01*
Y107950D01*
X429080D01*
Y108880D01*
X432920D01*
Y107950D01*
X439080D01*
Y108880D01*
X441350D01*
Y97650D01*
X425100D01*
G37*
G36*
G01X381740Y83830D02*
G03X383020Y86300I-1743J2470D01*
G01Y86770D01*
G02X384760Y87490I1019J-1D01*
G01X402860Y69390D01*
G02X402140Y67650I-721J-721D01*
G01X398100D01*
X392100Y73650D01*
X383000D01*
Y74180D01*
X383010Y74210D01*
G03X383020Y74500I-4200J290D01*
G01Y79700D01*
G03X381740Y82170I-3023J0D01*
G02Y83830I590J830D01*
G37*
G36*
G01X419900Y152350D02*
X427350Y144900D01*
Y143530D01*
G02X426250Y142510I-1020J-3D01*
G03X424000Y141760I-247J-3009D01*
G03X420000I-2000J-2260D01*
G03X416000I-2000J-2260D01*
G03X412000I-2000J-2260D01*
G03X408000I-2000J-2260D01*
G03X404000I-2000J-2260D01*
G03X402780Y142420I-2009J-2255D01*
G02X402410Y143020I129J493D01*
G03X401200Y147200I-4412J988D01*
G01X397780Y150610D01*
G02X398500Y152350I723J720D01*
G01X419900D01*
G37*
G36*
G01X429030Y503010D02*
G03X423010Y509030I-9030J-3010D01*
G02Y510970I320J970D01*
G03X429030Y516990I-3010J9030D01*
G02X430970I970J-320D01*
G03X436990Y510970I9030J3010D01*
G02Y509030I-320J-970D01*
G03X430970Y503010I3010J-9030D01*
G02X429030I-970J320D01*
G37*
G36*
G01X409030D02*
G03X403010Y509030I-9030J-3010D01*
G02Y510970I320J970D01*
G03X409030Y516990I-3010J9030D01*
G02X410970I970J-320D01*
G03X416990Y510970I9030J3010D01*
G02Y509030I-320J-970D01*
G03X410970Y503010I3010J-9030D01*
G02X409030I-970J320D01*
G37*
G36*
G01X389030D02*
G03X383010Y509030I-9030J-3010D01*
G02Y510970I320J970D01*
G03X389030Y516990I-3010J9030D01*
G02X390970I970J-320D01*
G03X396990Y510970I9030J3010D01*
G02Y509030I-320J-970D01*
G03X390970Y503010I3010J-9030D01*
G02X389030I-970J320D01*
G37*
G36*
G01X463100Y82650D02*
X446650Y99100D01*
Y107950D01*
X452080D01*
Y108880D01*
X455920D01*
Y107950D01*
X461350D01*
Y93900D01*
X470860Y84390D01*
G02X470140Y82650I-721J-721D01*
G01X463100D01*
G37*
G36*
G01X478610Y96140D02*
X475650Y99100D01*
Y107950D01*
X480350D01*
Y96860D01*
G02X478610Y96140I-1019J1D01*
G37*
G36*
G01X460000Y141760D02*
G03X458620Y142460I-2011J-2254D01*
G02X458220Y143060I100J500D01*
G03X457840Y145870I-4221J860D01*
G02X458750Y147350I912J459D01*
G01X498900D01*
X502050Y144200D01*
G02X501500Y142480I-724J-716D01*
G03X500000Y141760I506J-2977D01*
G03X496000I-2000J-2260D01*
G03X492000I-2000J-2260D01*
G03X488000I-2000J-2260D01*
G03X484000I-2000J-2260D01*
G03X480000I-2000J-2260D01*
G03X476000I-2000J-2260D01*
G03X472000I-2000J-2260D01*
G03X468000I-2000J-2260D01*
G03X464000I-2000J-2260D01*
G03X460000I-2000J-2260D01*
G37*
G36*
G01X441880Y334120D02*
G03X442210Y336930I-3879J1880D01*
G02X442600Y337540I497J112D01*
G03X444000Y338240I-604J2958D01*
G03X448000I2000J2260D01*
G03X452000I2000J2260D01*
G03X456000I2000J2260D01*
G03X460000I2000J2260D01*
G03X464000I2000J2260D01*
G03X468000I2000J2260D01*
G03X469400Y337540I2004J2258D01*
G02X469790Y336930I-107J-498D01*
G03X470120Y334120I4209J-930D01*
G02X469210Y332650I-914J-451D01*
G01X442790D01*
G02X441880Y334120I4J1019D01*
G37*
G36*
G01X504000Y338240D02*
G03X508490Y338800I1998J2262D01*
G02X510060Y338940I843J-577D01*
G01X518940Y330060D01*
G02X518800Y328490I-717J-727D01*
G03X517540Y326600I1697J-2496D01*
G02X516930Y326210I-498J107D01*
G03Y317790I-930J-4210D01*
G02X517540Y317400I112J-497D01*
G03X518240Y316000I2958J604D01*
G03Y312000I2260J-2000D01*
G03Y308000I2260J-2000D01*
G03Y304000I2260J-2000D01*
G03Y300000I2260J-2000D01*
G03Y296000I2260J-2000D01*
G03X517540Y294600I2258J-2004D01*
G02X516930Y294210I-498J107D01*
G03Y285790I-930J-4210D01*
G02X517540Y285400I112J-497D01*
G03X518240Y284000I2958J604D01*
G03Y280000I2260J-2000D01*
G03Y276000I2260J-2000D01*
G03X517540Y274620I2254J-2011D01*
G02X516940Y274220I-500J100D01*
G03Y265780I-860J-4220D01*
G02X517540Y265380I100J-500D01*
G03X518240Y264000I2954J631D01*
G03Y260000I2260J-2000D01*
G03Y256000I2260J-2000D01*
G03Y252000I2260J-2000D01*
G03Y248000I2260J-2000D01*
G03X517540Y246600I2258J-2004D01*
G02X516930Y246210I-498J107D01*
G03Y237790I-930J-4210D01*
G02X517540Y237400I112J-497D01*
G03X518240Y236000I2958J604D01*
G03Y232000I2260J-2000D01*
G03Y228000I2260J-2000D01*
G03Y224000I2260J-2000D01*
G03X517560Y221320I2261J-2000D01*
G02X516260Y220120I-996J-225D01*
G03X511020Y214350I-1259J-4121D01*
G02X510810Y213710I-470J-200D01*
G03X508750Y210730I2187J-3714D01*
G02X508220Y210300I-504J80D01*
G03X506920Y210170I-226J-4302D01*
G02X505650Y211160I-249J990D01*
G01Y313100D01*
X486100Y332650D01*
X478790D01*
G02X477880Y334120I4J1019D01*
G03X478210Y336930I-3879J1880D01*
G02X478600Y337540I497J112D01*
G03X480000Y338240I-604J2958D01*
G03X484000I2000J2260D01*
G03X488000I2000J2260D01*
G03X492000I2000J2260D01*
G03X496000I2000J2260D01*
G03X500000I2000J2260D01*
G03X504000I2000J2260D01*
G37*
G36*
G01X529030Y23010D02*
G03X514280Y27610I-9031J-3010D01*
G02X512650Y28430I-610J817D01*
G01Y47350D01*
X523900D01*
X527350Y43900D01*
Y28900D01*
X531660Y24600D01*
X531490Y24270D01*
G03X530970Y23010I8517J-4252D01*
G02X529030I-970J320D01*
G37*
G36*
G01X506100Y91650D02*
X500100Y97650D01*
X492100D01*
X491650Y98100D01*
Y107950D01*
X497080D01*
Y108880D01*
X498560D01*
X499130Y109120D01*
X514860Y93390D01*
G02X514140Y91650I-721J-721D01*
G01X506100D01*
G37*
G36*
G01X555980Y155750D02*
X564750Y146980D01*
X568440D01*
Y136880D01*
X569920D01*
Y135950D01*
X576080D01*
Y136880D01*
X577100D01*
Y126770D01*
X595690Y108180D01*
X598440D01*
Y106880D01*
X599920D01*
Y105950D01*
X606080D01*
Y106880D01*
X607560D01*
Y108180D01*
X609440D01*
Y106880D01*
X610920D01*
Y105950D01*
X617080D01*
Y106880D01*
X618560D01*
Y108180D01*
X620440D01*
Y97650D01*
X586100D01*
X583100Y100650D01*
X569100D01*
X563100Y106650D01*
X552100D01*
X546100Y112650D01*
X531100D01*
X524650Y119100D01*
Y136880D01*
X525920D01*
Y135950D01*
X532080D01*
Y136880D01*
X533560D01*
Y147280D01*
X533310D01*
Y147810D01*
G03X533010Y149590I-4308J189D01*
G02X533960Y150980I948J371D01*
G01X535000D01*
X535030D01*
G02X535990Y149590I12J-1018D01*
G03X535690Y147810I4008J-1591D01*
G01Y147280D01*
X535440D01*
Y136880D01*
X536920D01*
Y135950D01*
X543080D01*
Y136880D01*
X544560D01*
Y143020D01*
G02X545430Y143380I510J-2D01*
G01X546440Y142370D01*
Y136880D01*
X547920D01*
Y135950D01*
X554080D01*
Y136880D01*
X555560D01*
Y147280D01*
X551320D01*
G02X550300Y148240I-2J1019D01*
G03X548020Y151810I-4303J-235D01*
G01Y159000D01*
X555980D01*
Y155750D01*
G37*
G36*
G01X529030Y503010D02*
G03X523010Y509030I-9030J-3010D01*
G02Y510970I320J970D01*
G03X529030Y516990I-3010J9030D01*
G02X530970I970J-320D01*
G03X536990Y510970I9030J3010D01*
G02Y509030I-320J-970D01*
G03X530970Y503010I3010J-9030D01*
G02X529030I-970J320D01*
G37*
G36*
G01X589030Y23010D02*
G03X583010Y29030I-9030J-3010D01*
G02Y30970I320J970D01*
G03X589030Y36990I-3010J9030D01*
G02X590970I970J-320D01*
G03X596990Y30970I9030J3010D01*
G02Y29030I-320J-970D01*
G03X590970Y23010I3010J-9030D01*
G02X589030I-970J320D01*
G37*
G36*
G01Y503010D02*
G03X583010Y509030I-9030J-3010D01*
G02Y510970I320J970D01*
G03X589030Y516990I-3010J9030D01*
G02X590970I970J-320D01*
G03X596990Y510970I9030J3010D01*
G02Y509030I-320J-970D01*
G03X590970Y503010I3010J-9030D01*
G02X589030I-970J320D01*
G37*
G36*
G01X569030D02*
G03X563010Y509030I-9030J-3010D01*
G02Y510970I320J970D01*
G03X569030Y516990I-3010J9030D01*
G02X570970I970J-320D01*
G03X576990Y510970I9030J3010D01*
G02Y509030I-320J-970D01*
G03X570970Y503010I3010J-9030D01*
G02X569030I-970J320D01*
G37*
G36*
G01X549030D02*
G03X543010Y509030I-9030J-3010D01*
G02Y510970I320J970D01*
G03X549030Y516990I-3010J9030D01*
G02X550970I970J-320D01*
G03X556990Y510970I9030J3010D01*
G02Y509030I-320J-970D01*
G03X550970Y503010I3010J-9030D01*
G02X549030I-970J320D01*
G37*
G36*
G01X609030Y23010D02*
G03X603010Y29030I-9030J-3010D01*
G02Y30970I320J970D01*
G03X609030Y36990I-3010J9030D01*
G02X610970I970J-320D01*
G03X616990Y30970I9030J3010D01*
G02Y29030I-320J-970D01*
G03X610970Y23010I3010J-9030D01*
G02X609030I-970J320D01*
G37*
G36*
G01X649030Y503010D02*
G03X643010Y509030I-9030J-3010D01*
G02Y510970I320J970D01*
G03X649030Y516990I-3010J9030D01*
G02X650970I970J-320D01*
G03X656990Y510970I9030J3010D01*
G02Y509030I-320J-970D01*
G03X650970Y503010I3010J-9030D01*
G02X649030I-970J320D01*
G37*
G36*
G01X629030D02*
G03X623010Y509030I-9030J-3010D01*
G02Y510970I320J970D01*
G03X629030Y516990I-3010J9030D01*
G02X630970I970J-320D01*
G03X636990Y510970I9030J3010D01*
G02Y509030I-320J-970D01*
G03X630970Y503010I3010J-9030D01*
G02X629030I-970J320D01*
G37*
G36*
G01X609030D02*
G03X603010Y509030I-9030J-3010D01*
G02Y510970I320J970D01*
G03X609030Y516990I-3010J9030D01*
G02X610970I970J-320D01*
G03X616990Y510970I9030J3010D01*
G02Y509030I-320J-970D01*
G03X610970Y503010I3010J-9030D01*
G02X609030I-970J320D01*
G37*
G36*
G01X704000Y242000D02*
X699000Y247000D01*
X696000D01*
Y253000D01*
X710000D01*
Y246000D01*
X718000Y238000D01*
Y231000D01*
X704000D01*
Y242000D01*
G37*
G36*
G01X689030Y503010D02*
G03X683010Y509030I-9030J-3010D01*
G02Y510970I320J970D01*
G03X689030Y516990I-3010J9030D01*
G02X690970I970J-320D01*
G03X696990Y510970I9030J3010D01*
G02Y509030I-320J-970D01*
G03X690970Y503010I3010J-9030D01*
G02X689030I-970J320D01*
G37*
G36*
G01X669030D02*
G03X663010Y509030I-9030J-3010D01*
G02Y510970I320J970D01*
G03X669030Y516990I-3010J9030D01*
G02X670970I970J-320D01*
G03X676990Y510970I9030J3010D01*
G02Y509030I-320J-970D01*
G03X670970Y503010I3010J-9030D01*
G02X669030I-970J320D01*
G37*
G36*
G01X729030Y23010D02*
G03X723010Y29030I-9030J-3010D01*
G02Y30970I320J970D01*
G03X729030Y36990I-3010J9030D01*
G02X730970I970J-320D01*
G03X736990Y30970I9030J3010D01*
G02Y29030I-320J-970D01*
G03X730970Y23010I3010J-9030D01*
G02X729030I-970J320D01*
G37*
G36*
G01X749030Y503010D02*
G03X743010Y509030I-9030J-3010D01*
G02Y510970I320J970D01*
G03X749030Y516990I-3010J9030D01*
G02X750970I970J-320D01*
G03X756990Y510970I9030J3010D01*
G02Y509030I-320J-970D01*
G03X750970Y503010I3010J-9030D01*
G02X749030I-970J320D01*
G37*
G36*
G01X729030D02*
G03X723010Y509030I-9030J-3010D01*
G02Y510970I320J970D01*
G03X729030Y516990I-3010J9030D01*
G02X730970I970J-320D01*
G03X736990Y510970I9030J3010D01*
G02Y509030I-320J-970D01*
G03X730970Y503010I3010J-9030D01*
G02X729030I-970J320D01*
G37*
G36*
G01X709030D02*
G03X703010Y509030I-9030J-3010D01*
G02Y510970I320J970D01*
G03X709030Y516990I-3010J9030D01*
G02X710970I970J-320D01*
G03X716990Y510970I9030J3010D01*
G02Y509030I-320J-970D01*
G03X710970Y503010I3010J-9030D01*
G02X709030I-970J320D01*
G37*
G36*
G01X789030D02*
G03X783010Y509030I-9030J-3010D01*
G02Y510970I320J970D01*
G03X789030Y516990I-3010J9030D01*
G02X790970I970J-320D01*
G03X796990Y510970I9030J3010D01*
G02Y509030I-320J-970D01*
G03X790970Y503010I3010J-9030D01*
G02X789030I-970J320D01*
G37*
G36*
G01X769030D02*
G03X763010Y509030I-9030J-3010D01*
G02Y510970I320J970D01*
G03X769030Y516990I-3010J9030D01*
G02X770970I970J-320D01*
G03X776990Y510970I9030J3010D01*
G02Y509030I-320J-970D01*
G03X770970Y503010I3010J-9030D01*
G02X769030I-970J320D01*
G37*
%LPC*%
G75*
G36*
G01X147020Y123980D02*
X145690D01*
G02X137310I-4190J2770D01*
G01X135980D01*
Y196020D01*
X158020D01*
Y142160D01*
X154840Y138980D01*
X148840D01*
X147020Y137160D01*
Y123980D01*
G37*
G36*
G01X237330Y327960D02*
G03X236310Y326960I-2J-1018D01*
G02X227690I-4310J40D01*
G03X226670Y327960I-1018J-18D01*
G01X224010D01*
Y350040D01*
X228230D01*
Y351640D01*
X233720Y357140D01*
Y361560D01*
X244120D01*
Y360080D01*
X245050D01*
Y353920D01*
X244120D01*
Y352440D01*
X239690D01*
X239030Y351780D01*
G03X239750Y350040I719J-721D01*
G01X239990D01*
Y327960D01*
X237330D01*
G37*
G36*
G01X254280Y280860D02*
Y276440D01*
X243880D01*
Y277920D01*
X242950D01*
Y284080D01*
X243880D01*
Y285560D01*
X248310D01*
X248970Y286220D01*
G03X248250Y287960I-719J721D01*
G01X248010D01*
Y310040D01*
X250670D01*
G03X251690Y311040I2J1018D01*
G02X260310I4310J-40D01*
G03X261330Y310040I1018J18D01*
G01X263990D01*
Y287960D01*
X259770D01*
Y286360D01*
X254280Y280860D01*
G37*
%LPD*%
G75*
G36*
G01X145000Y138000D02*
Y126000D01*
X138000D01*
Y194000D01*
X156000D01*
Y143000D01*
X154000Y141000D01*
X148000D01*
X145000Y138000D01*
G37*
G36*
G01X185000Y449000D02*
Y455000D01*
X210000D01*
Y449000D01*
X215000Y444000D01*
Y441000D01*
X212000Y438000D01*
X208000D01*
X197000Y449000D01*
X185000D01*
G37*
G54D10*
X40000Y40000D03*
X20000D03*
X40000Y20000D03*
Y500000D03*
Y520000D03*
X20000D03*
X100000Y40000D03*
X80000D03*
X60000D03*
X100000Y20000D03*
X80000D03*
X60000D03*
X100000Y500000D03*
X80000D03*
X60000D03*
X100000Y520000D03*
X80000D03*
X60000D03*
X160000Y40000D03*
X140000D03*
X120000D03*
X160000Y20000D03*
X140000D03*
X120000D03*
X160000Y500000D03*
X140000D03*
X120000D03*
X160000Y520000D03*
X140000D03*
X120000D03*
X200000Y40000D03*
X180000D03*
X200000Y20000D03*
X180000D03*
X200000Y500000D03*
X180000D03*
X200000Y520000D03*
X180000D03*
X260000Y40000D03*
X240000D03*
X220000D03*
X260000Y20000D03*
X240000D03*
X220000D03*
X260000Y500000D03*
X240000D03*
X220000D03*
X260000Y520000D03*
X240000D03*
X220000D03*
X320000Y40000D03*
X300000D03*
X280000D03*
X320000Y20000D03*
X300000D03*
X280000D03*
X320000Y500000D03*
X300000D03*
X280000D03*
X320000Y520000D03*
X300000D03*
X280000D03*
X380000Y40000D03*
X360000D03*
X340000D03*
X380000Y20000D03*
X360000D03*
X340000D03*
X380000Y500000D03*
X360000D03*
X340000D03*
X380000Y520000D03*
X360000D03*
X340000D03*
X420000Y40000D03*
X400000D03*
X420000Y20000D03*
X400000D03*
X420000Y500000D03*
X400000D03*
X420000Y520000D03*
X400000D03*
X480000Y40000D03*
X460000D03*
X440000D03*
X480000Y20000D03*
X460000D03*
X440000D03*
X480000Y500000D03*
X460000D03*
X440000D03*
X480000Y520000D03*
X460000D03*
X440000D03*
X540000Y40000D03*
X520000D03*
X500000D03*
X540000Y20000D03*
X520000D03*
X500000D03*
X540000Y500000D03*
X520000D03*
X500000D03*
X540000Y520000D03*
X520000D03*
X500000D03*
X600000Y40000D03*
X580000D03*
X560000D03*
X600000Y20000D03*
X580000D03*
X560000D03*
X600000Y500000D03*
X580000D03*
X560000D03*
X600000Y520000D03*
X580000D03*
X560000D03*
X640000Y40000D03*
X620000D03*
X640000Y20000D03*
X620000D03*
X640000Y500000D03*
X620000D03*
X640000Y520000D03*
X620000D03*
X700000Y40000D03*
X680000D03*
X660000D03*
X700000Y20000D03*
X680000D03*
X660000D03*
X700000Y500000D03*
X680000D03*
X660000D03*
X700000Y520000D03*
X680000D03*
X660000D03*
X760000Y40000D03*
X740000D03*
X720000D03*
X760000Y20000D03*
X740000D03*
X720000D03*
X760000Y500000D03*
X740000D03*
X720000D03*
X760000Y520000D03*
X740000D03*
X720000D03*
X800000Y40000D03*
X780000D03*
X800000Y20000D03*
X780000D03*
X800000Y500000D03*
X780000D03*
X800000Y520000D03*
X780000D03*
G54D11*
X20000Y20000D03*
Y500000D03*
G54D20*
X50000Y480000D03*
X790000Y60000D03*
Y480000D03*
G54D12*
X40080Y64000D03*
X29920D03*
X16920Y133000D03*
X27080D03*
X32080Y198000D03*
X21920D03*
X13920Y267000D03*
X24080D03*
X44920Y239000D03*
X28920Y278000D03*
X39080D03*
X32920Y327000D03*
X43080D03*
Y338000D03*
X32920D03*
X56920Y64000D03*
X67080D03*
X91080D03*
X80920D03*
X91920Y133000D03*
X55080Y239000D03*
X102080Y133000D03*
X175920Y135000D03*
X186080D03*
X175920Y125000D03*
X186080D03*
Y115000D03*
X175920D03*
X189080Y253000D03*
X178920D03*
X223080Y238000D03*
X212920D03*
X249080Y263000D03*
X238920D03*
X249080Y253000D03*
X238920D03*
Y281000D03*
X249080D03*
Y357000D03*
X238920D03*
X283920Y246000D03*
X294080D03*
X279920Y273000D03*
X290080D03*
X279920Y293000D03*
X290080D03*
X279920Y283000D03*
X290080D03*
X365080Y415000D03*
X354920D03*
X576080Y161000D03*
X565920D03*
X591080Y216000D03*
X580920D03*
X591080Y207000D03*
X580920D03*
X591080Y198000D03*
X580920D03*
X559590Y264000D03*
X549430D03*
X559080Y241000D03*
X548920D03*
X591080Y252000D03*
X580920D03*
X591080Y288000D03*
X580920D03*
X591080Y306000D03*
X580920D03*
X591080Y297000D03*
X580920D03*
X559080Y322000D03*
X548920D03*
X559080Y290000D03*
X548920D03*
X559080Y345000D03*
X548920D03*
X559080Y354000D03*
X548920D03*
X559080Y336000D03*
X548920D03*
X644920Y222500D03*
Y261500D03*
X628920Y381000D03*
X639080D03*
X617920Y353000D03*
X628080D03*
X655080Y222500D03*
Y261500D03*
X656920Y381000D03*
X667080D03*
X699080Y460000D03*
X688920D03*
G54D21*
X73000Y170000D03*
X78000Y383000D03*
X115000Y170000D03*
X120000Y383000D03*
G54D30*
X168750Y442500D03*
Y452000D03*
Y461500D03*
X191250D03*
Y452000D03*
Y442500D03*
X338750Y453500D03*
Y472500D03*
X361250D03*
Y463000D03*
Y453500D03*
G54D40*
X644000Y152000D03*
Y144000D03*
Y136000D03*
Y200000D03*
Y192000D03*
Y184000D03*
Y300000D03*
Y292000D03*
Y284000D03*
Y348000D03*
Y340000D03*
Y332000D03*
X700000Y152000D03*
Y144000D03*
Y136000D03*
X692000Y152000D03*
Y144000D03*
Y136000D03*
X684000Y152000D03*
Y144000D03*
Y136000D03*
X676000Y152000D03*
Y144000D03*
Y136000D03*
X668000Y152000D03*
Y144000D03*
Y136000D03*
X660000Y152000D03*
Y144000D03*
Y136000D03*
X652000Y152000D03*
Y144000D03*
Y136000D03*
X700000Y200000D03*
Y192000D03*
Y184000D03*
X692000Y200000D03*
Y192000D03*
Y184000D03*
X684000Y200000D03*
Y192000D03*
Y184000D03*
X676000Y200000D03*
Y192000D03*
Y184000D03*
X668000Y200000D03*
Y192000D03*
Y184000D03*
X660000Y200000D03*
Y192000D03*
Y184000D03*
X652000Y200000D03*
Y192000D03*
Y184000D03*
X700000Y300000D03*
Y292000D03*
Y284000D03*
X692000Y300000D03*
Y292000D03*
Y284000D03*
X684000Y300000D03*
Y292000D03*
Y284000D03*
X676000Y300000D03*
Y292000D03*
Y284000D03*
X668000Y300000D03*
Y292000D03*
Y284000D03*
X660000Y300000D03*
Y292000D03*
Y284000D03*
X652000Y300000D03*
Y292000D03*
Y284000D03*
X700000Y348000D03*
Y340000D03*
Y332000D03*
X692000Y348000D03*
Y340000D03*
Y332000D03*
X684000Y348000D03*
Y340000D03*
Y332000D03*
X676000Y348000D03*
Y340000D03*
Y332000D03*
X668000Y348000D03*
Y340000D03*
Y332000D03*
X660000Y348000D03*
Y340000D03*
Y332000D03*
X652000Y348000D03*
Y340000D03*
Y332000D03*
X740000Y152000D03*
Y144000D03*
Y136000D03*
X732000Y152000D03*
Y144000D03*
Y136000D03*
X724000Y152000D03*
Y144000D03*
Y136000D03*
X716000Y152000D03*
Y144000D03*
Y136000D03*
X708000Y152000D03*
Y144000D03*
Y136000D03*
X740000Y200000D03*
Y192000D03*
Y184000D03*
X732000Y200000D03*
Y192000D03*
Y184000D03*
X724000Y200000D03*
Y192000D03*
Y184000D03*
X716000Y200000D03*
Y192000D03*
Y184000D03*
X708000Y200000D03*
Y192000D03*
Y184000D03*
X740000Y300000D03*
Y292000D03*
Y284000D03*
X732000Y300000D03*
Y292000D03*
Y284000D03*
X724000Y300000D03*
Y292000D03*
Y284000D03*
X716000Y300000D03*
Y292000D03*
Y284000D03*
X708000Y300000D03*
Y292000D03*
Y284000D03*
X740000Y348000D03*
Y340000D03*
Y332000D03*
X732000Y348000D03*
Y340000D03*
Y332000D03*
X724000Y348000D03*
Y340000D03*
Y332000D03*
X716000Y348000D03*
Y340000D03*
Y332000D03*
X708000Y348000D03*
Y340000D03*
Y332000D03*
G54D31*
X260090Y147100D03*
X255090D03*
Y158900D03*
X260090D03*
X253090Y117100D03*
X248090D03*
X243090D03*
X238090D03*
Y128900D03*
X243090D03*
X248090D03*
X253090D03*
X260500Y207100D03*
X255500D03*
X250500D03*
X245500D03*
Y218900D03*
X250500D03*
X255500D03*
X260500D03*
X311160Y101960D03*
X306160D03*
X301160D03*
X296160D03*
Y113760D03*
X301160D03*
X306160D03*
X311160D03*
X284500Y117100D03*
X279500D03*
X274500D03*
X269500D03*
Y128900D03*
X274500D03*
X279500D03*
X284500D03*
X270090Y147100D03*
X265090D03*
Y158900D03*
X270090D03*
X369500Y77100D03*
X364500D03*
Y88900D03*
X369500D03*
X357500Y102100D03*
X352500D03*
X347500D03*
X342500D03*
Y113900D03*
X347500D03*
X352500D03*
X357500D03*
X334500Y102100D03*
X329500D03*
X324500D03*
X319500D03*
Y113900D03*
X324500D03*
X329500D03*
X334500D03*
X379500Y77100D03*
X374500D03*
Y88900D03*
X379500D03*
G54D22*
X93000Y278000D03*
G54D13*
X54350Y78950D03*
Y91650D03*
Y104350D03*
Y117050D03*
X101650Y104350D03*
Y91650D03*
Y78950D03*
Y117050D03*
G54D50*
G01X29920Y64000D02*
X24000D01*
G01X16920Y133000D02*
X11000D01*
G01X44920Y239000D02*
Y233080D01*
G01X14000Y238380D02*
Y232000D01*
G01X30000Y238380D02*
Y232000D01*
G01X32920Y327000D02*
X28000D01*
G01X14000Y295620D02*
Y302000D01*
G01X33000Y313620D02*
Y320000D01*
G01X38380Y371000D02*
Y379000D01*
G01Y362000D02*
Y371000D01*
G01X32920Y338000D02*
X28000D01*
G01Y460620D02*
Y477000D01*
X20000Y485000D01*
Y500000D01*
G01X54350Y78950D02*
X62950D01*
X69000Y85000D01*
G01X56920Y64000D02*
X51000D01*
G01X91080D02*
X97000D01*
G01X49000Y154380D02*
X55620D01*
G01X91920Y133000D02*
X87000D01*
G01X83000Y209380D02*
Y203000D01*
G01X67000Y209380D02*
Y203000D01*
G01X107000Y255000D02*
Y264000D01*
X93000Y278000D01*
G01X89000Y240000D02*
Y235000D01*
G01X46000Y315080D02*
Y320000D01*
G01X79000Y301000D02*
Y292000D01*
X93000Y278000D01*
G01D02*
X103000Y288000D01*
G01X79000Y340620D02*
Y347000D01*
G01X66000Y334080D02*
Y339000D01*
G01X56000Y334080D02*
Y339000D01*
G01X115000Y209380D02*
Y203000D01*
G01X131000Y209380D02*
Y203000D01*
G01X147000Y209380D02*
Y203000D01*
G01X115000Y224620D02*
Y236000D01*
G01X103000Y288000D02*
Y301000D01*
G01X118000Y340620D02*
Y347000D01*
G01X134000Y340620D02*
Y347000D01*
G01X150000Y460620D02*
X143000D01*
G01X177380Y102000D02*
X171000D01*
G01X186080Y115000D02*
Y110080D01*
G01X198000Y133080D02*
Y138000D01*
G01X189080Y253000D02*
X194000D01*
G01X164620D02*
X171000D01*
G01X158000Y357620D02*
Y364000D01*
G01X174000Y357620D02*
Y364000D01*
G01X249080Y253000D02*
Y263000D01*
G01D02*
X256000D01*
G01X232000Y299000D02*
Y287000D01*
G01X238920Y281000D02*
X238000D01*
X232000Y287000D01*
G01X256000Y339000D02*
Y351000D01*
G01X249080Y357000D02*
X250000D01*
X256000Y351000D01*
G01X258000Y374380D02*
Y368000D01*
G01Y413380D02*
Y407000D01*
G01Y389620D02*
Y397000D01*
G01X292000Y60920D02*
Y55000D01*
G01X282000Y60920D02*
X292000D01*
G01X274260Y224360D02*
Y216740D01*
G01X279920Y273000D02*
X274000D01*
G01X283920Y246000D02*
X279000D01*
G01X294080D02*
X299000D01*
G01X302000D02*
X299000D01*
G01X289500Y224360D02*
X294360D01*
X297000Y227000D01*
G01X290080Y273000D02*
Y283000D01*
G01X279920Y293000D02*
X274000D01*
G01X279920Y283000D02*
X274000D01*
G01X290080D02*
X291080Y282000D01*
X298000D01*
G01X308000Y354080D02*
Y359000D01*
G01X322080Y343920D02*
X308000D01*
G01X309000Y421380D02*
Y412000D01*
G01Y436620D02*
Y444000D01*
G01X321000Y457380D02*
X318380D01*
X314000Y453000D01*
G01X370000Y103920D02*
Y99000D01*
G01X362000Y336000D02*
Y332750D01*
X358250Y329000D01*
X337000D01*
X322080Y343920D01*
G01X370000Y381080D02*
Y386000D01*
G01X360000Y381080D02*
Y386000D01*
G01X348000Y381080D02*
Y386000D01*
G01X338000Y381080D02*
Y386000D01*
G01X326000Y381080D02*
Y386000D01*
G01X362000Y337000D02*
Y336000D01*
G01X370000Y364000D02*
X372000Y362000D01*
X379000D01*
X382000Y359000D01*
G01X370000Y370920D02*
Y364000D01*
G01X346000Y427920D02*
Y423000D01*
G01X365080Y415000D02*
X370000D01*
G01X320380Y395000D02*
Y401620D01*
G01X333000Y436620D02*
X325620D01*
G01X367620Y395000D02*
X374000D01*
G01X426000Y103920D02*
Y99000D01*
G01X398000Y103920D02*
Y99000D01*
G01X382000Y381080D02*
Y386000D01*
G01X392000Y381080D02*
Y386000D01*
G01Y365000D02*
X394000Y363000D01*
Y358000D01*
G01X392000Y370920D02*
Y365000D01*
G01X399620Y395000D02*
X406000D01*
G01X478000Y103920D02*
Y99000D01*
G01X449000Y103920D02*
Y99000D01*
G01X459000Y103920D02*
Y99000D01*
G01X436000Y103920D02*
Y99000D01*
G01X447760Y383760D02*
X452000Y388000D01*
G01X438000Y338000D02*
Y336000D01*
G01Y359000D02*
Y374000D01*
X440580Y376580D01*
G01X474000Y338000D02*
Y336000D01*
G01Y359000D02*
Y366830D01*
X476970Y369800D01*
G01X494000Y103920D02*
Y99000D01*
G01X529000Y131920D02*
Y127000D01*
G01Y142080D02*
Y148000D01*
G01X548920Y241000D02*
X547920Y242000D01*
X539000D01*
G01X518000D02*
X516000D01*
G01X548920Y290000D02*
X538000D01*
G01X484150Y376980D02*
X488630Y381460D01*
Y381630D01*
X489000Y382000D01*
G01X576080Y161000D02*
X581000D01*
G01X573000Y131920D02*
Y126000D01*
G01X540000Y131920D02*
Y127000D01*
G01X551000Y131920D02*
Y127000D01*
G01Y156920D02*
Y156000D01*
X555000Y152000D01*
G01X603000Y112080D02*
X597310D01*
X581000Y128390D01*
Y148000D01*
X574000Y155000D01*
X569000D01*
X565920Y158080D01*
Y161000D01*
G01X544000Y196920D02*
Y192000D01*
G01X591080Y252000D02*
Y247080D01*
G01X559590Y264000D02*
Y267590D01*
X561000Y269000D01*
G01X559080Y241000D02*
Y235000D01*
G01X580920Y252000D02*
Y247000D01*
G01X559080Y322000D02*
Y329000D01*
G01Y290000D02*
Y296000D01*
G01X548920Y336000D02*
Y329080D01*
G01D02*
Y322000D01*
G01X559080Y336000D02*
X565000D01*
G01X590380Y380000D02*
X584000D01*
G01X614000Y101920D02*
X603000D01*
G01D02*
X597000D01*
G01X625000D02*
X636000D01*
G01D02*
Y96000D01*
G01X614000Y112080D02*
X603000D01*
G01X625000D02*
X614000D01*
G01X636000D02*
X625000D01*
G01X644000Y131000D02*
X630920D01*
X629000Y132920D01*
G01X644000Y136000D02*
Y131000D01*
G01X638000Y144000D02*
X629920D01*
X629000Y143080D01*
G01X644000Y144000D02*
X638000D01*
G01X644000Y192000D02*
X640000Y188000D01*
G01X644000Y200000D02*
Y205000D01*
G01X650000Y249620D02*
X643380D01*
G01X644920Y261500D02*
X640000D01*
G01X644920Y222500D02*
Y227000D01*
G01X650000Y234380D02*
X643000D01*
G01X644000Y279000D02*
X631080D01*
X629000Y276920D01*
G01X644000Y284000D02*
Y279000D01*
G01X638000Y292000D02*
X633920D01*
X629000Y287080D01*
G01X644000Y292000D02*
X638000D01*
G01X644000Y340000D02*
X640000Y336000D01*
G01X628920Y381000D02*
X624000D01*
G01X617920Y353000D02*
X613000D01*
G01X605620Y380000D02*
X612000D01*
G01X644000Y348000D02*
Y353000D01*
G01X628080D02*
X644000D01*
G01X639080Y381000D02*
X644000D01*
G01X660000Y101920D02*
Y96000D01*
G01X672000Y101920D02*
Y96000D01*
G01X684000Y101920D02*
Y96000D01*
G01X647000Y101920D02*
Y96000D01*
G01X660000Y112080D02*
Y118000D01*
G01X672000Y112080D02*
Y118000D01*
G01X647000Y112080D02*
Y118000D01*
G01X652000Y136000D02*
Y131000D01*
G01Y144000D02*
X648000Y140000D01*
G01X668000Y136000D02*
Y131000D01*
G01X684000Y144000D02*
X680000Y148000D01*
G01X700000Y144000D02*
X696000Y148000D01*
G01X660000Y136000D02*
Y131000D01*
G01X676000Y144000D02*
X680000Y140000D01*
G01X692000Y144000D02*
X696000Y140000D01*
G01X660000Y200000D02*
Y205000D01*
G01X668000Y200000D02*
Y205000D01*
G01X652000Y192000D02*
X648000Y188000D01*
G01X668000Y192000D02*
X664000Y188000D01*
G01X684000Y192000D02*
X679980Y187980D01*
G01X652000Y200000D02*
Y205000D01*
G01X676000Y200000D02*
Y205000D01*
G01Y223920D02*
Y205000D01*
G01X668000Y184000D02*
Y179000D01*
G01X692000Y192000D02*
X696000Y188000D01*
G01X692000Y192000D02*
X688000Y196000D01*
Y197000D01*
G01Y205000D02*
X686000Y207000D01*
Y223920D01*
G01X666000D02*
Y219000D01*
G01X686000Y234080D02*
X676000D01*
G01D02*
Y239000D01*
G01X686000Y234080D02*
X696000D01*
G01D02*
Y239000D01*
G01X686000Y249920D02*
X676000D01*
G01D02*
Y245000D01*
G01X666000Y234080D02*
Y239000D01*
G01Y249920D02*
Y245000D01*
G01X655080Y222500D02*
X659500D01*
G01X655080Y261500D02*
X659500D01*
G01X650000Y249620D02*
X656620D01*
G01X698000Y260080D02*
X708000D01*
G01X676000D02*
Y265000D01*
G01X666000Y260080D02*
Y265000D01*
G01X650000Y234380D02*
X657000D01*
G01X652000Y284000D02*
Y279000D01*
G01X668000Y284000D02*
Y279000D01*
G01X652000Y292000D02*
X648000Y288000D01*
G01X700000Y292000D02*
X696000Y296000D01*
G01X684000Y292000D02*
X680000Y296000D01*
G01X668000Y332000D02*
Y327000D01*
G01X660000Y284000D02*
Y279000D01*
G01X676000Y292000D02*
X680000Y288000D01*
G01X692000Y292000D02*
X696000Y288000D01*
G01X660000Y348000D02*
Y353000D01*
G01X668000Y348000D02*
Y353000D01*
G01X652000Y340000D02*
X648000Y336000D01*
G01X668000Y340000D02*
X664000Y336000D01*
G01X656920Y381000D02*
X652000D01*
G01X696000Y377080D02*
Y382000D01*
G01X652000Y348000D02*
Y353000D01*
G01X676000Y348000D02*
Y353000D01*
G01X692000Y340000D02*
X696000Y336000D01*
G01X667080Y381000D02*
X671000D01*
G01X699080Y460000D02*
X705000D01*
G01X688920D02*
X683000D01*
G01X732000Y101920D02*
Y96000D01*
G01X716000Y101920D02*
Y96000D01*
G01X732000Y112080D02*
Y131000D01*
G01X716000Y112080D02*
Y131000D01*
G01X724000Y136000D02*
Y131000D01*
G01X740000Y136000D02*
Y131000D01*
G01X708000Y136000D02*
Y131000D01*
G01X732000Y136000D02*
Y131000D01*
G01X716000Y136000D02*
Y131000D01*
G01X724000Y200000D02*
Y205000D01*
G01X740000Y200000D02*
Y205000D01*
G01X708000Y200000D02*
Y205000D01*
G01X706000Y223920D02*
Y218000D01*
X708000Y216000D01*
G01X732000Y206700D02*
Y205000D01*
G01Y200000D02*
Y205000D01*
G01X736000Y223920D02*
Y220000D01*
X732000Y216000D01*
G01D02*
Y213300D01*
G01X716000Y205000D02*
Y206700D01*
G01Y214000D02*
X718000Y216000D01*
X724000D01*
G01X716000Y200000D02*
Y205000D01*
G01X726000Y223920D02*
Y218000D01*
X724000Y216000D01*
G01X718000Y249920D02*
Y248000D01*
X724000Y242000D01*
G01X726000Y234080D02*
Y240000D01*
X724000Y242000D01*
G01X728000Y249920D02*
Y246000D01*
X732000Y242000D01*
G01X736000Y234080D02*
Y238000D01*
X732000Y242000D01*
G01X716000Y223920D02*
X706000D01*
G01X728020Y280020D02*
Y275020D01*
X728000Y275000D01*
Y260080D01*
G01X718000D02*
Y274000D01*
X712000Y280000D01*
G01X708000Y260080D02*
Y265000D01*
X712000Y269000D01*
G01X724000Y284000D02*
X727980Y287980D01*
G01X740000Y284000D02*
X736000Y280000D01*
G01X708000Y284000D02*
X712000Y288000D01*
G01X732000Y284000D02*
X728020Y280020D01*
G01X716000Y284000D02*
X712000Y280000D01*
G01X724000Y348000D02*
Y353000D01*
G01X740000Y348000D02*
Y353000D01*
G01X730000Y377080D02*
Y382000D01*
G01X708000Y348000D02*
Y353000D01*
G01X714000Y377080D02*
Y382000D01*
G01X732000Y348000D02*
Y353000D01*
G01D02*
Y354700D01*
G01Y362000D02*
X730000Y364000D01*
Y366920D01*
G01X716000Y348000D02*
Y353000D01*
G01D02*
Y354700D01*
G01Y361300D02*
X714000Y363300D01*
Y366920D01*
G01X770000Y115000D02*
X775000Y110000D01*
Y105000D01*
G01X766000D02*
Y111000D01*
X770000Y115000D01*
G01X797000Y154920D02*
Y150000D01*
G01X770000Y115000D02*
Y115380D01*
G01X773000Y140000D02*
Y134000D01*
X770000Y131000D01*
G01X797000Y165080D02*
Y171000D01*
G01X766000Y140000D02*
Y135000D01*
X770000Y131000D01*
G01Y130620D02*
Y131000D01*
G01X799000Y360080D02*
Y365000D01*
G01Y349920D02*
Y345000D01*
G54D41*
G01X549000Y271000D02*
Y271740D01*
X545950Y274790D01*
X538410D01*
X537620Y274000D01*
X527750D01*
G01X549000Y278000D02*
X548050Y277050D01*
X538570D01*
X537620Y278000D01*
X527750D01*
G01X580920Y306000D02*
X576260D01*
X575250Y304990D01*
Y303640D01*
X574240Y302630D01*
X571700D01*
X566000Y296930D01*
Y288000D01*
X563130Y285130D01*
X538490D01*
X537620Y286000D01*
X527750D01*
G01X580920Y297000D02*
X576260D01*
X575250Y298010D01*
Y299360D01*
X574240Y300370D01*
X572640D01*
X568260Y295990D01*
Y287060D01*
X564070Y282870D01*
X538490D01*
X537620Y282000D01*
X527750D01*
G01X548920Y345000D02*
X550600Y346680D01*
Y348200D01*
X549770Y349030D01*
X543840D01*
X543180Y348370D01*
X538430D01*
X535600Y351200D01*
Y355100D01*
X533900Y356800D01*
X530100D01*
X528750Y355450D01*
Y343750D01*
X525800Y340800D01*
X518500D01*
X515700Y343600D01*
Y359200D01*
X513160Y361740D01*
X507370D01*
X505130Y359500D01*
Y358490D01*
X506000Y357620D01*
Y347750D01*
G01X548920Y354000D02*
X544260D01*
X543250Y352990D01*
Y351640D01*
X542240Y350630D01*
X539370D01*
X537860Y352140D01*
Y356040D01*
X534840Y359060D01*
X529160D01*
X526490Y356390D01*
Y344690D01*
X524860Y343060D01*
X519440D01*
X517960Y344540D01*
Y360140D01*
X514100Y364000D01*
X506430D01*
X502870Y360440D01*
Y358490D01*
X502000Y357620D01*
Y347750D01*
G01X572000Y208000D02*
X574830Y210830D01*
X577090D01*
X580920Y207000D01*
G01Y216000D02*
X578010Y213090D01*
X573900D01*
X572000Y215000D01*
G01X684000Y332000D02*
Y332800D01*
X682150Y334650D01*
X680250D01*
X679210Y335690D01*
Y337110D01*
X680200Y338100D01*
Y341500D01*
X681900Y343200D01*
Y344700D01*
X680200Y346400D01*
Y349250D01*
X683000Y352050D01*
Y355000D01*
X668000Y370000D01*
X567100D01*
X565060Y367960D01*
Y364540D01*
X567200Y362400D01*
X571000D01*
X574260Y359140D01*
Y352690D01*
X569940Y348370D01*
X565750D01*
X564740Y347360D01*
Y346010D01*
X563730Y345000D01*
X559080D01*
G01Y354000D02*
X563730D01*
X564740Y352990D01*
Y351640D01*
X565750Y350630D01*
X569000D01*
X572000Y353630D01*
Y358200D01*
X570060Y360140D01*
X566260D01*
X562800Y363600D01*
Y368900D01*
X566160Y372260D01*
X668940D01*
X685260Y355940D01*
Y352000D01*
X687570Y349690D01*
Y338430D01*
X692000Y334000D01*
Y332000D01*
G01X591080Y216000D02*
X595730D01*
X596740Y214990D01*
Y213640D01*
X597750Y212630D01*
X600670D01*
X603000Y210300D01*
Y205600D01*
X603800Y204800D01*
X607800D01*
X608800Y205800D01*
Y212100D01*
X605450Y215450D01*
Y219870D01*
X607780Y222200D01*
X619900D01*
X625200Y216900D01*
Y210560D01*
X622680Y208040D01*
X619470D01*
X618460Y207030D01*
Y204740D01*
X619470Y203730D01*
X624570D01*
X626860Y201440D01*
Y194140D01*
X642800Y178200D01*
X650100D01*
X665360Y162940D01*
Y154640D01*
X668000Y152000D01*
G01X660000D02*
X661020D01*
X663100Y154080D01*
Y162000D01*
X649160Y175940D01*
X641860D01*
X624600Y193200D01*
Y200500D01*
X623630Y201470D01*
X618530D01*
X616200Y203800D01*
Y207970D01*
X618530Y210300D01*
X621740D01*
X622940Y211500D01*
Y215960D01*
X618960Y219940D01*
X608720D01*
X607710Y218930D01*
Y216390D01*
X611060Y213040D01*
Y204860D01*
X608740Y202540D01*
X602860D01*
X600740Y204660D01*
Y209360D01*
X599730Y210370D01*
X597750D01*
X596740Y209360D01*
Y208010D01*
X595730Y207000D01*
X591080D01*
G01X668000Y300000D02*
X666900Y301100D01*
Y308940D01*
X652180Y323660D01*
X645070D01*
X642040Y320630D01*
Y315670D01*
X641030Y314660D01*
X637440D01*
X635900Y316200D01*
Y322510D01*
X632710Y325700D01*
X626990D01*
X624100Y322810D01*
Y310000D01*
X622200Y308100D01*
X618300D01*
X616850Y309550D01*
Y317250D01*
X614300Y319800D01*
X608300D01*
X605000Y316500D01*
Y304330D01*
X603300Y302630D01*
X597750D01*
X596740Y303640D01*
Y304990D01*
X595730Y306000D01*
X591080D01*
G01X660000Y300000D02*
X659870Y300130D01*
Y302660D01*
X660600Y303390D01*
X664010D01*
X664640Y304020D01*
Y308000D01*
X651240Y321400D01*
X646010D01*
X644300Y319690D01*
Y314730D01*
X641970Y312400D01*
X636500D01*
X633640Y315260D01*
Y321570D01*
X631770Y323440D01*
X627930D01*
X626360Y321870D01*
Y309060D01*
X623140Y305840D01*
X617360D01*
X614590Y308610D01*
Y316310D01*
X613360Y317540D01*
X609240D01*
X607260Y315560D01*
Y303390D01*
X604240Y300370D01*
X597750D01*
X596740Y299360D01*
Y298010D01*
X595730Y297000D01*
X591080D01*
G01X684000Y184000D02*
Y174000D01*
G01X692000Y184000D02*
Y174000D01*
G01X684000Y332000D02*
Y322000D01*
G01X692000Y332000D02*
Y322000D01*
G54D32*
X232000Y299000D03*
X256000D03*
Y339000D03*
X232000D03*
G54D14*
X22000Y81000D03*
Y117000D03*
G54D23*
X99000Y248000D03*
X95000D03*
X91000D03*
X87000D03*
X83000D03*
X79000D03*
X75000D03*
X71000D03*
Y308000D03*
X75000D03*
X79000D03*
X83000D03*
X87000D03*
X91000D03*
X95000D03*
X99000D03*
X115000Y248000D03*
X111000D03*
X107000D03*
X103000D03*
Y308000D03*
X107000D03*
X111000D03*
X115000D03*
G54D42*
G01X22000Y81000D02*
X35000D01*
X37000Y83000D01*
Y102000D01*
X39350Y104350D01*
X54350D01*
G01X32000Y169620D02*
X25620D01*
X24000Y168000D01*
Y162000D01*
X22920Y160920D01*
X18000D01*
G01X54350Y117050D02*
X22050D01*
G01X27080Y133000D02*
Y122080D01*
X22050Y117050D01*
G01X107000Y248000D02*
Y255000D01*
G01X89000Y240000D02*
Y241000D01*
X87000Y243000D01*
Y248000D01*
G01X94000Y241000D02*
Y243000D01*
X95000Y244000D01*
Y248000D01*
G01X99000D02*
Y241000D01*
G01X83000Y248000D02*
Y241000D01*
G01X79000Y308000D02*
Y301000D01*
G01X95000Y308000D02*
Y316000D01*
G01X66000Y323920D02*
X67000Y322920D01*
Y320000D01*
X75000Y312000D01*
Y308000D01*
G01X71000D02*
Y311000D01*
X66000Y316000D01*
X59000D01*
X56000Y319000D01*
Y323920D01*
G01X107000Y240000D02*
X103000Y244000D01*
Y248000D01*
G01X123000Y288000D02*
X116000D01*
G01X103000Y301000D02*
Y308000D01*
G01X123000Y280000D02*
X131000D01*
G01X312250Y246000D02*
X302000D01*
G01X312250Y290000D02*
X302000D01*
G01X312250D02*
X324000D01*
G01X312250Y294000D02*
X298000D01*
G01X301000Y282000D02*
X312250D01*
G01X322080Y343920D02*
X313000Y353000D01*
Y403000D01*
X320000Y410000D01*
Y442000D01*
X329000Y451000D01*
Y457000D01*
X333000Y461000D01*
X344000D01*
X351500Y453500D01*
X361250D01*
G01X398000Y144000D02*
Y132250D01*
G01X370000D02*
Y120000D01*
G01Y347750D02*
Y336000D01*
G01X362000Y347750D02*
Y337000D01*
G01X382000Y359000D02*
Y347750D01*
G01X360000Y370920D02*
Y366000D01*
X366000Y360000D01*
Y347750D01*
G01X358000D02*
Y360920D01*
X348000Y370920D01*
G01X354000Y347750D02*
Y359000D01*
X348000Y365000D01*
X343000D01*
X338000Y370000D01*
Y370920D01*
G01X346000Y347750D02*
Y338000D01*
X344000Y336000D01*
G01X342000Y347750D02*
Y360000D01*
X337000Y365000D01*
X331000D01*
X326000Y370000D01*
Y370920D01*
G01D02*
X320000D01*
G01X398000Y120000D02*
Y132250D01*
G01X426000D02*
Y120000D01*
G01X394000Y358000D02*
Y347750D01*
G01X382000Y370920D02*
Y366000D01*
X386000Y362000D01*
Y347750D01*
G01X478000Y132250D02*
Y120000D01*
G01X458000Y132250D02*
Y120000D01*
G01X454000Y132250D02*
Y123000D01*
X449000Y118000D01*
Y114080D01*
G01X454000Y132250D02*
Y143920D01*
G01X438000Y347750D02*
Y338000D01*
G01Y347750D02*
Y359000D01*
G01X474000Y347750D02*
Y338000D01*
G01Y347750D02*
Y359000D01*
G01X494000Y132250D02*
Y120000D01*
G01X527750Y218000D02*
X542000D01*
X549000Y211000D01*
Y179000D01*
X559000Y169000D01*
Y157000D01*
X566000Y150000D01*
X570540D01*
X573000Y147540D01*
Y142080D01*
G01X544000Y207080D02*
Y209000D01*
X540000Y213000D01*
X539000Y214000D01*
X527750D01*
G01D02*
X517000D01*
X515000Y216000D01*
G01X540000Y171000D02*
Y183750D01*
X537750Y186000D01*
X527750D01*
G01X540000Y162930D02*
X536930Y166000D01*
X527750D01*
G01X547500Y172500D02*
X545000Y175000D01*
Y184930D01*
X535930Y194000D01*
X527750D01*
G01Y170000D02*
X516000D01*
G01X549430Y264000D02*
X549080D01*
X546040Y267040D01*
X542780Y270290D01*
X538570D01*
X538280Y270000D01*
X527750D01*
G01D02*
X516080D01*
G01X539000Y242000D02*
X527750D01*
G01D02*
X518000D01*
G01X527750Y222000D02*
X544000D01*
X553000Y213000D01*
Y181000D01*
X565920Y168080D01*
Y161000D01*
G01X538000Y290000D02*
X527750D01*
G01D02*
X516000D01*
G01X548920Y322000D02*
X548840Y321920D01*
X543560D01*
X542480Y323000D01*
X539000D01*
X538000Y322000D01*
X527750D01*
G01D02*
X516000D01*
G01X540000Y148000D02*
Y162930D01*
G01Y142080D02*
Y148000D01*
G01X546000D02*
Y147080D01*
X551000Y142080D01*
G01X546000Y148000D02*
X545000Y149000D01*
Y166000D01*
X540000Y171000D01*
G01X551000Y167080D02*
Y169000D01*
X547500Y172500D01*
G01X688000Y334000D02*
X684000Y338000D01*
Y340000D01*
G01X708000Y192000D02*
X712000Y188000D01*
G54D15*
X24000Y64000D03*
X11000Y133000D03*
X45000Y198000D03*
X39000D03*
X45000Y204000D03*
X39000D03*
X8000Y183000D03*
X44920Y233080D03*
X14000Y232000D03*
X30000D03*
X43000Y264000D03*
X37000D03*
Y270000D03*
X43000D03*
X31000Y264000D03*
Y270000D03*
X46000Y250000D03*
X40000D03*
X43000Y255000D03*
X37000D03*
X28000Y327000D03*
X46000Y320000D03*
X14000Y302000D03*
X33000Y320000D03*
X45000Y296000D03*
X13000Y330000D03*
X38380Y371000D03*
X35000Y352000D03*
X28000Y338000D03*
X69000Y85000D03*
X71000Y71000D03*
X77000D03*
X51000Y64000D03*
X97000D03*
X55620Y154380D03*
X87000Y133000D03*
X80000Y117000D03*
X87000D03*
X83000Y203000D03*
X67000D03*
X51000Y198000D03*
Y204000D03*
X57000Y198000D03*
Y204000D03*
X76000Y261000D03*
X93000Y260000D03*
X75000Y278000D03*
X89000Y235000D03*
Y240000D03*
X49000Y264000D03*
Y270000D03*
X55000D03*
X52000Y250000D03*
X49000Y255000D03*
X55000Y259000D03*
X99000Y236000D03*
Y241000D03*
X83000Y236000D03*
Y241000D03*
X76000Y295000D03*
X93000Y296000D03*
X51000Y291000D03*
X95000Y316000D03*
X91000Y323000D03*
X81000Y318000D03*
X76000D03*
X54000Y310000D03*
X79000Y347000D03*
X66000Y339000D03*
X56000D03*
X157000Y81000D03*
X137000Y100000D03*
X124000Y94000D03*
X149000Y112000D03*
Y106000D03*
Y100000D03*
Y94000D03*
X143000D03*
X137000D03*
X131000D03*
X124000Y100000D03*
X131000D03*
X134000Y107000D03*
X117000Y136000D03*
X131000D03*
X124000D03*
X117000Y124000D03*
X131000Y130000D03*
X124000D03*
X117000D03*
X133000Y122000D03*
X151000Y121000D03*
X115000Y203000D03*
X131000D03*
X147000D03*
X110000Y261000D03*
X111000Y278000D03*
X115000Y236000D03*
X143000Y253000D03*
X131000Y231000D03*
X110000Y295000D03*
X127000Y304000D03*
X133000Y310000D03*
X134000Y318000D03*
X123000D03*
X117000D03*
X137000Y280000D03*
X131000D03*
X118000Y347000D03*
X134000D03*
X150000Y364000D03*
Y358000D03*
X124000Y422000D03*
X117000D03*
X110000D03*
X124000Y430000D03*
X117000D03*
X110000D03*
X124000Y438000D03*
X117000D03*
X110000D03*
X147000Y431000D03*
X153000Y437000D03*
X147000D03*
X153000Y431000D03*
X141000D03*
Y437000D03*
X143000Y460620D03*
X141000Y443000D03*
X171000Y102000D03*
X186080Y110080D03*
X198000Y138000D03*
X196000Y198000D03*
X190000D03*
X184000D03*
X178000D03*
X172000D03*
X193000Y204000D03*
X187000D03*
X181000D03*
X175000D03*
X169000D03*
X163000D03*
X196000Y210000D03*
X190000D03*
X184000D03*
X196000Y216000D03*
X190000D03*
X184000D03*
X196000Y222000D03*
X190000D03*
X184000D03*
X194000Y253000D03*
X171000D03*
X202000Y232000D03*
X212000Y260000D03*
X190000Y332000D03*
X198000D03*
X182000D03*
X174000D03*
X166000D03*
X158000Y364000D03*
X174000D03*
X190000Y340000D03*
X182000D03*
X190000Y348000D03*
X182000D03*
X211000Y442000D03*
X159000Y437000D03*
Y431000D03*
X201000Y452000D03*
X207000Y446000D03*
X159000Y461500D03*
X165000Y483000D03*
X242000Y237000D03*
X219000Y254000D03*
X213000Y267000D03*
X256000Y263000D03*
X223000Y260000D03*
X240000Y230000D03*
X232000Y287000D03*
Y327000D03*
X256000Y311000D03*
Y351000D03*
X258000Y368000D03*
Y407000D03*
Y397000D03*
X292000Y55000D03*
X284000Y78000D03*
X290000D03*
X274260Y216740D03*
X274000Y273000D03*
X279000Y246000D03*
X299000D03*
X297000Y227000D03*
X274000Y293000D03*
Y283000D03*
X298000Y294000D03*
Y282000D03*
X301000Y330000D03*
X299000Y324000D03*
X308000Y359000D03*
X320000Y370920D03*
Y358000D03*
X320380Y401620D03*
X309000Y412000D03*
X314000Y453000D03*
X308000Y467000D03*
X302000D03*
X308000Y461000D03*
X302000D03*
X314000Y473000D03*
X308000D03*
X302000D03*
X314000Y479000D03*
X308000D03*
X314000Y467000D03*
X309000Y444000D03*
X370000Y99000D03*
X357000Y163000D03*
X362000Y159000D03*
X370000Y120000D03*
X329000Y250000D03*
Y243000D03*
X327000Y261000D03*
X324000Y290000D03*
X325000Y320000D03*
Y312000D03*
X375000Y332000D03*
X370000Y386000D03*
X360000D03*
X348000D03*
X370000Y336000D03*
X338000Y386000D03*
X326000D03*
X362000Y336000D03*
X370000Y364000D03*
X344000Y336000D03*
X352000D03*
X324000Y363000D03*
X346000Y423000D03*
X370000Y415000D03*
X325620Y436620D03*
X374000Y395000D03*
X350000Y466000D03*
X372000Y459000D03*
X350000Y473000D03*
X426000Y99000D03*
X398000D03*
Y120000D03*
X426000D03*
X420000Y213000D03*
Y222000D03*
X400000Y220000D03*
X393000Y213000D03*
X420000Y258000D03*
Y267000D03*
X393000Y240000D03*
X402000D03*
X407000Y227000D03*
Y253000D03*
X400000Y260000D03*
X393000Y267000D03*
X422000Y332000D03*
X416000Y330000D03*
X411000Y326000D03*
X405000Y323000D03*
X382000Y386000D03*
X392000D03*
Y365000D03*
X390000Y336080D03*
X380000Y336000D03*
X406000Y395000D03*
X426000Y438000D03*
X418000D03*
X410000D03*
X402000D03*
X394000D03*
X386000D03*
X376000Y446000D03*
Y453000D03*
X426000Y446000D03*
X418000D03*
X410000D03*
X402000D03*
X394000D03*
X478000Y99000D03*
X449000D03*
X459000D03*
X436000D03*
X478000Y120000D03*
X458000D03*
X434000Y144000D03*
X454000Y143920D03*
X436000Y150000D03*
X440000Y220000D03*
X447000Y213000D03*
Y240000D03*
X438000D03*
X433000Y227000D03*
Y253000D03*
X440000Y260000D03*
X447000Y267000D03*
X452000Y388000D03*
X438000Y336000D03*
X474000D03*
X434000Y430000D03*
Y438000D03*
Y446000D03*
X494000Y99000D03*
X529000Y127000D03*
X494000Y120000D03*
X529000Y148000D03*
X509000Y156000D03*
X515000Y216000D03*
X516000Y170000D03*
X508000Y198000D03*
X513000Y202000D03*
X508000Y206000D03*
X513000Y210000D03*
X509000Y190000D03*
X516080Y270000D03*
X516000Y242000D03*
Y290000D03*
Y322000D03*
X489000Y382000D03*
X581000Y161000D03*
X573000Y126000D03*
X540000Y127000D03*
X551000D03*
X555000Y152000D03*
X540000Y148000D03*
Y162930D03*
X546000Y148000D03*
X544000Y192000D03*
X572000Y224000D03*
Y198000D03*
Y208000D03*
Y215000D03*
X540000Y171000D03*
X547500Y172500D03*
X591080Y247080D03*
X561000Y269000D03*
X559080Y235000D03*
X571000Y230000D03*
X573000Y243000D03*
X572500Y236500D03*
X541000Y266000D03*
X549000Y271000D03*
Y278000D03*
X580920Y247000D03*
X559080Y329000D03*
Y296000D03*
X540000Y310000D03*
X545000Y314000D03*
X540000Y328000D03*
Y318000D03*
X548920Y329080D03*
X565000Y336000D03*
X584000Y380000D03*
X647000Y96000D03*
X597000Y101920D03*
X636000Y96000D03*
X648000Y140000D03*
X644000Y131000D03*
X647000Y118000D03*
X638000Y144000D03*
X648000Y188000D03*
X640000D03*
X644000Y205000D03*
X643380Y249620D03*
X643000Y234380D03*
X640000Y261500D03*
X644920Y227000D03*
X648000Y288000D03*
X644000Y279000D03*
X638000Y292000D03*
X648000Y336000D03*
X640000D03*
X624000Y381000D03*
X613000Y353000D03*
X612000Y380000D03*
X644000Y353000D03*
Y381000D03*
X660000Y96000D03*
X672000D03*
X684000D03*
X702000Y127000D03*
X652000Y131000D03*
X668000D03*
X680000Y148000D03*
X696000D03*
X660000Y131000D03*
X680000Y140000D03*
X696000D03*
X660000Y118000D03*
X672000D03*
X696000Y132000D03*
X660000Y205000D03*
X668000D03*
X664000Y188000D03*
X679980Y187980D03*
X659500Y222500D03*
X685000Y173000D03*
X691000D03*
X692000Y210000D03*
X652000Y205000D03*
X676000D03*
X668000Y179000D03*
X696000Y188000D03*
X666000Y219000D03*
X656620Y249620D03*
X666000Y245000D03*
X676000D03*
Y239000D03*
X696000D03*
X666000D03*
X659500Y261500D03*
X657000Y234380D03*
X676000Y265000D03*
X666000D03*
X688000Y327000D03*
X652000Y279000D03*
X668000D03*
X696000Y296000D03*
X680000D03*
X685000Y321000D03*
X691000D03*
X668000Y327000D03*
X660000Y279000D03*
X680000Y288000D03*
X696000D03*
Y280000D03*
X660000Y353000D03*
X668000D03*
X664000Y336000D03*
X652000Y381000D03*
X696000Y382000D03*
X692000Y358000D03*
X652000Y353000D03*
X676000D03*
X696000Y336000D03*
X671000Y381000D03*
X683000Y460000D03*
X677000Y457000D03*
X732000Y96000D03*
X716000D03*
X724000Y131000D03*
X740000D03*
X708000D03*
X732000D03*
X716000D03*
X712000Y188000D03*
X724000Y205000D03*
X740000D03*
X708000D03*
Y216000D03*
X736000Y210000D03*
X728000D03*
X740000Y215000D03*
X744000Y220000D03*
X704000Y210000D03*
X720000D03*
X752000Y220000D03*
X712000Y210000D03*
X753000Y185000D03*
X747000Y183000D03*
X757000Y180000D03*
X732000Y205000D03*
Y216000D03*
X716000Y205000D03*
X724000Y216000D03*
X704000Y273000D03*
X724000Y242000D03*
X732000D03*
X748000Y225000D03*
X712000Y269000D03*
X704000Y327000D03*
X727980Y287980D03*
X736000Y280000D03*
X712000Y288000D03*
X753000Y333000D03*
X747000Y331000D03*
X757000Y328000D03*
X728020Y280020D03*
X712000Y280000D03*
X724000Y353000D03*
X740000D03*
X730000Y382000D03*
X708000Y353000D03*
X714000Y382000D03*
X736000Y358000D03*
X728000D03*
X740000Y363000D03*
X744000Y368000D03*
X704000Y358000D03*
X748000Y373000D03*
X720000Y358000D03*
X752000Y368000D03*
X712000Y358000D03*
X732000Y353000D03*
X716000D03*
X705000Y460000D03*
X775000Y105000D03*
X766000D03*
X797000Y150000D03*
X773000Y140000D03*
X766000D03*
X769000Y185000D03*
X777000D03*
X773000Y180000D03*
X781000D03*
X797000D03*
X789000D03*
X785000Y185000D03*
X765000Y180000D03*
X761000Y185000D03*
X797000Y171000D03*
X793000Y185000D03*
X769000Y333000D03*
X777000D03*
X773000Y328000D03*
X781000D03*
X797000D03*
X789000D03*
X785000Y333000D03*
X765000Y328000D03*
X761000Y333000D03*
X793000D03*
X799000Y365000D03*
Y345000D03*
G54D33*
X232000Y377900D03*
Y422100D03*
G54D24*
X63000Y256000D03*
Y260000D03*
Y264000D03*
Y268000D03*
Y272000D03*
Y276000D03*
Y280000D03*
Y284000D03*
Y288000D03*
Y292000D03*
Y296000D03*
Y300000D03*
X123000Y272000D03*
Y268000D03*
Y264000D03*
Y260000D03*
Y256000D03*
Y300000D03*
Y296000D03*
Y292000D03*
Y288000D03*
Y284000D03*
Y280000D03*
Y276000D03*
G54D43*
G01X13920Y267000D02*
Y253700D01*
X14000Y253620D01*
G01X28920Y278000D02*
X16380D01*
X14000Y280380D01*
G01X28000Y445380D02*
Y422080D01*
G01X94000Y231000D02*
Y241000D01*
G01X302000Y290000D02*
X300000Y288000D01*
X296000D01*
X294000Y290000D01*
X291000Y293000D01*
X290080D01*
G01X298000Y282000D02*
X301000D01*
G01X352380Y395000D02*
X354000Y393380D01*
Y373000D01*
X356080Y370920D01*
X360000D01*
G01X335620Y395000D02*
X334000Y393380D01*
Y390000D01*
X331950Y387950D01*
Y373050D01*
X334080Y370920D01*
X338000D01*
G01X384380Y395000D02*
X383000D01*
X379000Y391000D01*
X376000Y388000D01*
Y373000D01*
X378080Y370920D01*
X382000D01*
G54D16*
X18000Y160920D03*
Y171080D03*
X46000Y315080D03*
Y304920D03*
X28000Y411920D03*
Y422080D03*
X56000Y323920D03*
X66000D03*
X56000Y334080D03*
X66000D03*
X198000Y133080D03*
Y122920D03*
X207000Y451920D03*
Y462080D03*
X239000Y91920D03*
Y102080D03*
X229000Y91920D03*
Y102080D03*
X218000Y462080D03*
Y451920D03*
X312000Y60920D03*
Y71080D03*
X302000Y60920D03*
Y71080D03*
X282000Y60920D03*
Y71080D03*
X292000Y60920D03*
Y71080D03*
X308000Y354080D03*
Y343920D03*
X370000Y103920D03*
Y114080D03*
X360000Y381080D03*
Y370920D03*
X348000Y381080D03*
Y370920D03*
X338000Y381080D03*
Y370920D03*
X370000Y381080D03*
Y370920D03*
X326000Y381080D03*
Y370920D03*
X356000Y438080D03*
Y427920D03*
X366000Y438080D03*
Y427920D03*
X346000D03*
Y438080D03*
X426000Y103920D03*
X398000D03*
X426000Y114080D03*
X398000D03*
X392000Y381080D03*
Y370920D03*
X382000Y381080D03*
Y370920D03*
X478000Y103920D03*
X459000D03*
X449000D03*
X436000D03*
X478000Y114080D03*
X459000D03*
X449000D03*
X436000D03*
X494000Y103920D03*
Y114080D03*
X529000Y131920D03*
Y142080D03*
X573000Y131920D03*
Y142080D03*
X551000Y156920D03*
Y167080D03*
Y131920D03*
Y142080D03*
X540000Y131920D03*
Y142080D03*
X544000Y196920D03*
Y207080D03*
X647000Y101920D03*
Y112080D03*
X636000D03*
Y101920D03*
X614000D03*
Y112080D03*
X625000D03*
Y101920D03*
X603000D03*
Y112080D03*
X629000Y132920D03*
Y143080D03*
Y276920D03*
Y287080D03*
X684000Y101920D03*
Y112080D03*
X660000Y101920D03*
Y112080D03*
X672000Y101920D03*
Y112080D03*
X696000Y234080D03*
Y223920D03*
X686000Y249920D03*
Y260080D03*
X666000Y234080D03*
Y223920D03*
X676000Y234080D03*
Y223920D03*
X666000Y249920D03*
Y260080D03*
X676000Y249920D03*
Y260080D03*
X686000Y234080D03*
Y223920D03*
X698000Y249920D03*
Y260080D03*
X696000Y377080D03*
Y366920D03*
X716000Y101920D03*
Y112080D03*
X732000Y101920D03*
Y112080D03*
X726000Y234080D03*
Y223920D03*
X736000Y234080D03*
Y223920D03*
X718000Y249920D03*
Y260080D03*
X728000Y249920D03*
Y260080D03*
X708000Y249920D03*
Y260080D03*
X716000Y223920D03*
Y234080D03*
X706000Y223920D03*
Y234080D03*
X714000Y377080D03*
Y366920D03*
X730000Y377080D03*
Y366920D03*
X797000Y154920D03*
Y165080D03*
X799000Y360080D03*
Y349920D03*
G54D25*
X93000Y278000D03*
X420000Y240000D03*
G54D34*
X312250Y154000D03*
Y158000D03*
Y162000D03*
Y166000D03*
Y170000D03*
Y174000D03*
Y178000D03*
Y182000D03*
Y186000D03*
Y190000D03*
Y194000D03*
Y198000D03*
Y202000D03*
Y206000D03*
Y210000D03*
Y214000D03*
Y218000D03*
Y222000D03*
Y226000D03*
Y230000D03*
Y234000D03*
Y238000D03*
Y242000D03*
Y246000D03*
Y250000D03*
Y254000D03*
Y258000D03*
Y262000D03*
Y266000D03*
Y270000D03*
Y274000D03*
Y278000D03*
Y282000D03*
Y286000D03*
Y290000D03*
Y294000D03*
Y298000D03*
Y302000D03*
Y306000D03*
Y310000D03*
Y314000D03*
Y318000D03*
Y322000D03*
Y326000D03*
X527750Y166000D03*
Y162000D03*
Y158000D03*
Y154000D03*
Y218000D03*
Y214000D03*
Y210000D03*
Y206000D03*
Y202000D03*
Y198000D03*
Y194000D03*
Y190000D03*
Y186000D03*
Y182000D03*
Y178000D03*
Y174000D03*
Y170000D03*
Y274000D03*
Y270000D03*
Y266000D03*
Y262000D03*
Y258000D03*
Y254000D03*
Y250000D03*
Y246000D03*
Y242000D03*
Y238000D03*
Y234000D03*
Y230000D03*
Y226000D03*
Y222000D03*
Y326000D03*
Y322000D03*
Y318000D03*
Y314000D03*
Y310000D03*
Y306000D03*
Y302000D03*
Y298000D03*
Y294000D03*
Y290000D03*
Y286000D03*
Y282000D03*
Y278000D03*
G54D44*
G01X36000Y287000D02*
X28000D01*
X24000Y291000D01*
Y305000D01*
X20000Y309000D01*
Y384000D01*
X91000Y455000D01*
X111000D01*
X140000Y484000D01*
Y500000D01*
G01X39000Y284000D02*
X36000Y287000D01*
G01X99000Y241000D02*
Y236000D01*
G01X83000Y241000D02*
Y236000D01*
G01Y224620D02*
Y236000D01*
G01X149380Y253000D02*
X143000D01*
G01X131000Y224620D02*
Y231000D01*
G01X116000Y288000D02*
X103000D01*
G01X134000Y325380D02*
X140380D01*
X145000Y330000D01*
Y353000D01*
X150000Y358000D01*
G01X131000Y280000D02*
X137000D01*
G01X150000Y364000D02*
Y358000D01*
G01X175920Y115000D02*
X164000D01*
X160500Y111500D01*
Y107750D01*
G01X175920Y125000D02*
Y135000D01*
G01Y115000D02*
Y125000D01*
G01X191250Y461500D02*
X206420D01*
X207000Y462080D01*
G01X218000D02*
X207000D01*
G01X212920Y238000D02*
Y218180D01*
X215100Y216000D01*
G01X346000Y438080D02*
X356000D01*
G01X366000D02*
X356000D01*
G01X346000D02*
Y449000D01*
X341500Y453500D01*
X338750D01*
G54D17*
X32000Y154380D03*
Y169620D03*
X30000Y238380D03*
Y253620D03*
X14000Y238380D03*
Y253620D03*
Y295620D03*
Y280380D03*
X33000Y313620D03*
Y298380D03*
X28000Y460620D03*
Y445380D03*
X49000Y154380D03*
Y169620D03*
X83000Y209380D03*
Y224620D03*
X67000Y209380D03*
Y224620D03*
X79000Y325380D03*
Y340620D03*
X125000Y107380D03*
Y122620D03*
X131000Y209380D03*
Y224620D03*
X115000Y209380D03*
Y224620D03*
X147000Y209380D03*
Y224620D03*
X118000Y325380D03*
X134000D03*
X118000Y340620D03*
X134000D03*
X150000Y460620D03*
Y445380D03*
X174000Y357620D03*
Y342380D03*
X158000Y357620D03*
Y342380D03*
X258000Y374380D03*
Y413380D03*
Y428620D03*
Y389620D03*
X309000Y421380D03*
Y436620D03*
X321000Y457380D03*
Y472620D03*
X333000Y436620D03*
Y421380D03*
X650000Y249620D03*
Y234380D03*
X770000Y115380D03*
Y130620D03*
G54D35*
X370000Y132250D03*
X366000D03*
X362000D03*
X358000D03*
X354000D03*
X350000D03*
X346000D03*
X342000D03*
X338000D03*
X334000D03*
Y347750D03*
X338000D03*
X342000D03*
X346000D03*
X350000D03*
X354000D03*
X358000D03*
X362000D03*
X366000D03*
X370000D03*
X426000Y132250D03*
X422000D03*
X418000D03*
X414000D03*
X410000D03*
X406000D03*
X402000D03*
X398000D03*
X394000D03*
X390000D03*
X386000D03*
X382000D03*
X378000D03*
X374000D03*
Y347750D03*
X378000D03*
X382000D03*
X386000D03*
X390000D03*
X394000D03*
X398000D03*
X402000D03*
X406000D03*
X410000D03*
X414000D03*
X418000D03*
X422000D03*
X426000D03*
X482000Y132250D03*
X478000D03*
X474000D03*
X470000D03*
X466000D03*
X462000D03*
X458000D03*
X454000D03*
X450000D03*
X446000D03*
X442000D03*
X438000D03*
X434000D03*
X430000D03*
Y347750D03*
X434000D03*
X438000D03*
X442000D03*
X446000D03*
X450000D03*
X454000D03*
X458000D03*
X462000D03*
X466000D03*
X470000D03*
X474000D03*
X478000D03*
X482000D03*
X506000Y132250D03*
X502000D03*
X498000D03*
X494000D03*
X490000D03*
X486000D03*
Y347750D03*
X490000D03*
X494000D03*
X498000D03*
X502000D03*
X506000D03*
G54D26*
X141500Y107750D03*
Y130250D03*
X151000D03*
X160500Y107750D03*
Y130250D03*
G54D45*
G01X329000Y243000D02*
Y173000D01*
X354000Y148000D01*
X394000D01*
X398000Y144000D01*
G01X329000Y250000D02*
Y243000D01*
G54D18*
X21900Y217000D03*
X52100D03*
G54D27*
X147000Y170000D03*
X156000Y400000D03*
X189000Y170000D03*
X198000Y400000D03*
G54D36*
X421100Y61500D03*
Y66500D03*
Y71500D03*
Y76500D03*
X432900D03*
Y71500D03*
Y66500D03*
Y61500D03*
X529900Y380500D03*
Y375500D03*
X518100D03*
Y380500D03*
X497410Y428910D03*
Y423910D03*
Y418910D03*
Y413910D03*
X485610D03*
Y418910D03*
Y423910D03*
Y428910D03*
X529900Y390500D03*
Y385500D03*
X518100D03*
Y390500D03*
X529900Y421500D03*
Y416500D03*
Y411500D03*
Y406500D03*
X518100D03*
Y411500D03*
Y416500D03*
Y421500D03*
X497410Y460910D03*
Y455910D03*
Y450910D03*
Y445910D03*
X485610D03*
Y450910D03*
Y455910D03*
Y460910D03*
X591900Y187500D03*
Y182500D03*
Y177500D03*
Y172500D03*
X580100D03*
Y177500D03*
Y182500D03*
Y187500D03*
X591900Y241500D03*
Y236500D03*
Y231500D03*
Y226500D03*
X580100D03*
Y231500D03*
Y236500D03*
Y241500D03*
X591900Y272500D03*
Y267500D03*
Y262500D03*
X580100D03*
Y267500D03*
Y272500D03*
X591900Y326500D03*
Y321500D03*
Y316500D03*
X580100D03*
Y321500D03*
Y326500D03*
X591900Y277500D03*
X580100D03*
X591900Y331500D03*
X580100D03*
X555900Y405500D03*
Y400500D03*
Y395500D03*
Y390500D03*
X544100D03*
Y395500D03*
Y400500D03*
Y405500D03*
X557540Y439620D03*
Y434620D03*
X545740D03*
Y439620D03*
X557540Y449620D03*
Y444620D03*
X545740D03*
Y449620D03*
G54D46*
G01X232000Y339000D02*
Y327000D01*
G01X256000Y299000D02*
Y311000D01*
G54D19*
X38380Y362000D03*
Y379000D03*
X53620Y362000D03*
Y379000D03*
X149380Y253000D03*
X177380Y102000D03*
X192620D03*
X164620Y253000D03*
X274260Y224360D03*
X289500D03*
X320380Y395000D03*
X367620D03*
X352380D03*
X335620D03*
X399620D03*
X384380D03*
X590380Y380000D03*
X605620D03*
G54D37*
X420000Y240000D03*
G54D28*
X170900Y216000D03*
X215100D03*
G54D47*
G01X168750Y461500D02*
X159000D01*
G01X256000Y299000D02*
Y287920D01*
X249080Y281000D01*
G01X232000Y339000D02*
Y350080D01*
X238920Y357000D01*
G01X370000Y120000D02*
Y114080D01*
G01X398000D02*
Y120000D01*
G01X426000D02*
Y114080D01*
G01X478000Y120000D02*
Y114080D01*
G01X458000Y120000D02*
X459000Y119000D01*
Y114080D01*
G01X494000Y120000D02*
Y114080D01*
G01X684000Y112080D02*
Y128000D01*
G01D02*
X676000Y136000D01*
G01X702000Y127000D02*
X698230Y123230D01*
X688770D01*
X684000Y128000D01*
G01X704000Y273000D02*
X687000D01*
G01X686000Y260080D02*
Y272000D01*
X687000Y273000D01*
G01D02*
X676000Y284000D01*
G01X697920Y250000D02*
X693000D01*
X692000Y251000D01*
Y258830D01*
X690750Y260080D01*
X686000D01*
G54D29*
X179000Y276000D03*
Y318000D03*
G54D38*
X405000Y425000D03*
Y467000D03*
G54D48*
G01X242000Y237000D02*
X244000Y235000D01*
Y228000D01*
X242000Y226000D01*
Y197000D01*
X220000Y175000D01*
Y146000D01*
X216000Y142000D01*
Y115000D01*
X212000Y111000D01*
Y94000D01*
X201000Y83000D01*
X187000D01*
X178000Y74000D01*
X168000D01*
X162000Y68000D01*
X150000D01*
X147000Y65000D01*
X124000D01*
X121000Y62000D01*
X112000D01*
X106000Y56000D01*
X91000D01*
X85000Y50000D01*
X54000D01*
X50000Y46000D01*
Y30000D01*
X40000Y20000D01*
G01Y40000D02*
Y51000D01*
X42000Y53000D01*
G01D02*
X84000D01*
X90000Y59000D01*
X105000D01*
X111000Y65000D01*
X120000D01*
X123000Y68000D01*
X146000D01*
X149000Y71000D01*
X161000D01*
X167000Y77000D01*
X177000D01*
X186000Y86000D01*
X200000D01*
X209000Y95000D01*
Y112000D01*
X213000Y116000D01*
Y143000D01*
X217000Y147000D01*
Y176000D01*
X239000Y198000D01*
Y229000D01*
X240000Y230000D01*
G01X40080Y64000D02*
Y54920D01*
X42000Y53000D01*
G01X13000Y330000D02*
Y309000D01*
X7000Y303000D01*
Y190000D01*
X13000Y184000D01*
Y152000D01*
X19000Y146000D01*
X29000D01*
X36000Y139000D01*
X67000D01*
X73000Y133000D01*
Y115000D01*
X78000Y110000D01*
X113000D01*
X118000Y105000D01*
Y91000D01*
X123000Y86000D01*
X151000D01*
X155000Y90000D01*
Y115000D01*
X160500Y120500D01*
Y130250D01*
G01X32000Y154380D02*
Y147000D01*
X37000Y142000D01*
X104000D01*
X112000Y134000D01*
Y122000D01*
X117000Y117000D01*
Y110000D01*
X119000Y108000D01*
X124380D01*
G01X22050Y117050D02*
X22000Y117000D01*
G01X18000Y171080D02*
Y183000D01*
X10000Y191000D01*
Y223000D01*
X15000Y228000D01*
X34000D01*
X38000Y232000D01*
Y241000D01*
X41000Y244000D01*
X57000D01*
X59000Y246000D01*
Y255000D01*
X60000Y256000D01*
X63000D01*
G01X54000Y310000D02*
X51000Y313000D01*
Y324000D01*
X48000Y327000D01*
X43080D01*
G01Y338000D02*
Y327000D01*
G01X165000Y483000D02*
X163000Y481000D01*
X148000D01*
X114000Y447000D01*
X94000D01*
X31000Y384000D01*
Y356000D01*
X35000Y352000D01*
G01D02*
X80000D01*
X87000Y345000D01*
Y308000D01*
G01X140000Y520000D02*
X150000Y510000D01*
Y487000D01*
X113000Y450000D01*
X93000D01*
X28000Y385000D01*
Y352000D01*
X33000Y347000D01*
X40000D01*
X43080Y343920D01*
Y338000D01*
G01X250500Y207100D02*
Y197500D01*
X226000Y173000D01*
Y144000D01*
X222000Y140000D01*
Y113000D01*
X218000Y109000D01*
Y92000D01*
X203000Y77000D01*
X189000D01*
X180000Y68000D01*
X170000D01*
X164000Y62000D01*
X152000D01*
X149000Y59000D01*
X126000D01*
X123000Y56000D01*
X114000D01*
X108000Y50000D01*
X95000D01*
X90000Y45000D01*
Y30000D01*
X80000Y20000D01*
G01X245500Y207100D02*
Y196500D01*
X223000Y174000D01*
Y145000D01*
X219000Y141000D01*
Y114000D01*
X215000Y110000D01*
Y93000D01*
X202000Y80000D01*
X188000D01*
X179000Y71000D01*
X169000D01*
X163000Y65000D01*
X151000D01*
X148000Y62000D01*
X125000D01*
X122000Y59000D01*
X113000D01*
X107000Y53000D01*
X92000D01*
X80000Y41000D01*
Y40000D01*
G01X54350Y91650D02*
X72650D01*
X79000Y98000D01*
X112000D01*
X115000Y95000D01*
Y89000D01*
X123000Y81000D01*
X157000D01*
G01X67080Y64000D02*
X71000Y67920D01*
Y71000D01*
G01D02*
Y78000D01*
X84650Y91650D01*
X101650D01*
G01X77000Y71000D02*
Y68000D01*
X80920Y64080D01*
Y64000D01*
G01X77000Y71000D02*
Y76000D01*
X79950Y78950D01*
X101650D01*
G01X55080Y239000D02*
X59000D01*
X68000Y248000D01*
X71000D01*
G01X79000D02*
Y253000D01*
X81000Y255000D01*
X89000D01*
X91000Y253000D01*
Y248000D01*
G01Y308000D02*
Y323000D01*
G01X63000Y300000D02*
X60000D01*
X54000Y306000D01*
Y310000D01*
G01X120000Y20000D02*
X130000Y30000D01*
X146000D01*
X150000Y34000D01*
Y44000D01*
X156000Y50000D01*
X168000D01*
X174000Y56000D01*
X184000D01*
X193000Y65000D01*
X207000D01*
X228000Y86000D01*
X237000D01*
X239000Y88000D01*
Y91920D01*
G01X120000Y40000D02*
X130000Y50000D01*
X152000D01*
X155000Y53000D01*
X167000D01*
X173000Y59000D01*
X183000D01*
X192000Y68000D01*
X206000D01*
X229000Y91000D01*
Y91920D01*
G01X255500Y207100D02*
Y197500D01*
X229000Y171000D01*
Y143000D01*
X225000Y139000D01*
Y112000D01*
X221000Y108000D01*
Y91000D01*
X204000Y74000D01*
X190000D01*
X181000Y65000D01*
X171000D01*
X165000Y59000D01*
X153000D01*
X150000Y56000D01*
X127000D01*
X124000Y53000D01*
X115000D01*
X102000Y40000D01*
X100000D01*
G01X260500Y207100D02*
Y197500D01*
X232000Y169000D01*
Y142000D01*
X228000Y138000D01*
Y111000D01*
X224000Y107000D01*
Y90000D01*
X205000Y71000D01*
X191000D01*
X182000Y62000D01*
X172000D01*
X166000Y56000D01*
X154000D01*
X151000Y53000D01*
X129000D01*
X126000Y50000D01*
X116000D01*
X110000Y44000D01*
Y30000D01*
X100000Y20000D01*
G01X124380Y108000D02*
X125000Y107380D01*
G01X312250Y262000D02*
X271000D01*
X253000Y244000D01*
X237000D01*
X233000Y240000D01*
Y200000D01*
X207000Y174000D01*
Y119000D01*
X203000Y115000D01*
Y97000D01*
X198000Y92000D01*
X184000D01*
X175000Y83000D01*
X165000D01*
X159000Y77000D01*
X123000D01*
X108350Y91650D01*
X101650D01*
G01X312250Y258000D02*
X271000D01*
X254000Y241000D01*
X239000D01*
X236000Y238000D01*
Y199000D01*
X210000Y173000D01*
Y118000D01*
X206000Y114000D01*
Y96000D01*
X199000Y89000D01*
X185000D01*
X176000Y80000D01*
X166000D01*
X160000Y74000D01*
X122000D01*
X117050Y78950D01*
X101650D01*
G01X123000Y260000D02*
X129000D01*
X132000Y257000D01*
Y250000D01*
X142000Y240000D01*
X196000D01*
X206000Y250000D01*
X226000D01*
X229000Y253000D01*
Y265000D01*
X232000Y268000D01*
X240000D01*
G01X241000Y247000D02*
X207000D01*
X197000Y237000D01*
X141000D01*
X129000Y249000D01*
Y255000D01*
X128000Y256000D01*
X123000D01*
G01X223080Y238000D02*
Y241920D01*
X221000Y244000D01*
X208000D01*
X198000Y234000D01*
X140000D01*
X126000Y248000D01*
X115000D01*
G01X123000Y276000D02*
X129000D01*
X142000Y263000D01*
X203000D01*
X211000Y271000D01*
Y335000D01*
X177000Y369000D01*
X145000D01*
X132000Y382000D01*
Y461000D01*
X149000Y478000D01*
X166000D01*
X170000Y482000D01*
Y510000D01*
X180000Y520000D01*
G01X219000Y254000D02*
X218000Y253000D01*
X205000D01*
X195000Y243000D01*
X143000D01*
X135000Y251000D01*
Y258000D01*
X129000Y264000D01*
X123000D01*
G01X147000Y224620D02*
Y229700D01*
X145700Y231000D01*
G01D02*
X139000D01*
X129000Y241000D01*
X113000D01*
X111000Y243000D01*
Y248000D01*
G01X145700Y231000D02*
X201000D01*
X202000Y232000D01*
G01X177000Y246000D02*
X144000D01*
X138000Y252000D01*
Y259000D01*
X129000Y268000D01*
X123000D01*
G01X212000Y260000D02*
X141000D01*
X129000Y272000D01*
X123000D01*
G01X213000Y267000D02*
X214000Y268000D01*
Y336250D01*
X178250Y372000D01*
X146000D01*
X135000Y383000D01*
Y460000D01*
X150000Y475000D01*
X167000D01*
X180000Y488000D01*
Y500000D01*
G01X200000Y40000D02*
Y48000D01*
X202000Y50000D01*
X212000D01*
X215000Y53000D01*
X225000D01*
X257000Y85000D01*
Y139000D01*
X255090Y140910D01*
Y147100D01*
G01X200000Y20000D02*
X210000Y30000D01*
Y44000D01*
X216000Y50000D01*
X226000D01*
X260090Y84090D01*
Y147100D01*
G01X160000Y40000D02*
X162000D01*
X175000Y53000D01*
X185000D01*
X194000Y62000D01*
X208000D01*
X211000Y65000D01*
X221000D01*
X244000Y88000D01*
Y108000D01*
X238090Y113910D01*
Y117100D01*
G01X160000Y20000D02*
X170000Y30000D01*
Y44000D01*
X176000Y50000D01*
X186000D01*
X195000Y59000D01*
X209000D01*
X212000Y62000D01*
X222000D01*
X247000Y87000D01*
Y109000D01*
X243090Y112910D01*
Y117100D01*
G01X180000Y40000D02*
X196000Y56000D01*
X210000D01*
X213000Y59000D01*
X223000D01*
X250000Y86000D01*
Y110090D01*
X248090Y112000D01*
Y117100D01*
G01X180000Y20000D02*
X190000Y30000D01*
Y45000D01*
X198000Y53000D01*
X211000D01*
X214000Y56000D01*
X224000D01*
X253090Y85090D01*
Y117100D01*
G01X157000Y81000D02*
X162000Y86000D01*
X174000D01*
X183000Y95000D01*
X197000D01*
X200000Y98000D01*
Y116000D01*
X204000Y120000D01*
Y175000D01*
X230000Y201000D01*
Y231000D01*
X223080Y237920D01*
Y238000D01*
G01X200000Y520000D02*
X190000Y510000D01*
Y480000D01*
X178000Y468000D01*
Y376500D01*
X217000Y337500D01*
Y259000D01*
X214000Y256000D01*
X204000D01*
X194000Y246000D01*
X177000D01*
G01X178920Y253000D02*
Y247920D01*
X177000Y246000D01*
G01X223000Y260000D02*
X220000Y263000D01*
Y339000D01*
X181000Y378000D01*
Y467000D01*
X193000Y479000D01*
Y493000D01*
X200000Y500000D01*
G01X220000Y40000D02*
X263000Y83000D01*
Y140000D01*
X265090Y142090D01*
Y147100D01*
G01X220000Y20000D02*
X230000Y30000D01*
Y46000D01*
X266000Y82000D01*
Y139000D01*
X270090Y143090D01*
Y147100D01*
G01X240000Y40000D02*
Y52000D01*
X269500Y81500D01*
Y117100D01*
G01X240000Y20000D02*
X250000Y30000D01*
Y58000D01*
X274500Y82500D01*
Y117100D01*
G01X260000Y40000D02*
Y64000D01*
X279500Y83500D01*
Y117100D01*
G01X260000Y20000D02*
X270000Y30000D01*
Y70000D01*
X284500Y84500D01*
Y117100D01*
G01X229000Y102080D02*
Y108000D01*
X231000Y110000D01*
Y137000D01*
X235000Y141000D01*
Y168000D01*
X264000Y197000D01*
Y230000D01*
X269000Y235000D01*
X299000D01*
X300000Y234000D01*
X312250D01*
G01X239000Y102080D02*
Y108000D01*
X234000Y113000D01*
Y136000D01*
X238000Y140000D01*
Y166000D01*
X267000Y195000D01*
Y229000D01*
X270000Y232000D01*
X298000D01*
X300000Y230000D01*
X312250D01*
G01X255090Y158900D02*
Y162090D01*
X303000Y210000D01*
X312250D01*
G01X260090Y158900D02*
Y163090D01*
X303000Y206000D01*
X312250D01*
G01X238090Y128900D02*
Y134090D01*
X242000Y138000D01*
Y165000D01*
X303000Y226000D01*
X312250D01*
G01X243090Y128900D02*
Y135000D01*
X245000Y136910D01*
Y164000D01*
X303000Y222000D01*
X312250D01*
G01X248090Y128900D02*
Y163090D01*
X303000Y218000D01*
X312250D01*
G01X253090Y128900D02*
Y137910D01*
X251000Y140000D01*
Y162000D01*
X303000Y214000D01*
X312250D01*
G01X245500Y218900D02*
Y224500D01*
X247000Y226000D01*
Y230000D01*
X271000Y254000D01*
X312250D01*
G01X250500Y218900D02*
Y229500D01*
X272000Y251000D01*
X302000D01*
X303000Y250000D01*
X312250D01*
G01X255500Y218900D02*
Y229500D01*
X267000Y241000D01*
X299000D01*
X300000Y242000D01*
X312250D01*
G01X260500Y218900D02*
Y230500D01*
X268000Y238000D01*
X312250D01*
G01X240000Y268000D02*
X295000D01*
X297000Y270000D01*
Y273000D01*
X302000Y278000D01*
X312250D01*
G01X238920Y263000D02*
Y266920D01*
X240000Y268000D01*
G01X238920Y253000D02*
Y249080D01*
X241000Y247000D01*
G01D02*
X252000D01*
X270000Y265000D01*
X296000D01*
X300000Y269000D01*
Y272000D01*
X302000Y274000D01*
X312250D01*
G01X260000Y500000D02*
X254040D01*
X251520Y497480D01*
Y484480D01*
X273500Y462500D01*
Y319040D01*
X291290Y301250D01*
X301220D01*
X301970Y302000D01*
X312250D01*
G01X240000Y500000D02*
X249020Y490980D01*
Y483440D01*
X271000Y461460D01*
Y318000D01*
X290250Y298750D01*
X301220D01*
X301970Y298000D01*
X312250D01*
G01Y278000D02*
X325000D01*
X331000Y284000D01*
Y321000D01*
X318000Y334000D01*
X304000D01*
X294000Y344000D01*
Y478000D01*
X310000Y494000D01*
Y506000D01*
X306000Y510000D01*
X250000D01*
X240000Y520000D01*
G01X220000D02*
X230000Y530000D01*
X325000D01*
X330000Y525000D01*
Y495000D01*
X325000Y490000D01*
X310000D01*
X297000Y477000D01*
Y345000D01*
X305000Y337000D01*
X319000D01*
X334000Y322000D01*
Y283000D01*
X325000Y274000D01*
X312250D01*
G01X300000Y20000D02*
X290000Y30000D01*
Y45000D01*
X302000Y57000D01*
Y60920D01*
G01X300000Y40000D02*
Y45000D01*
X312000Y57000D01*
Y60920D01*
G01X320000Y20000D02*
X310000Y30000D01*
Y46000D01*
X318000Y54000D01*
Y75000D01*
X296160Y96840D01*
Y101960D01*
G01X284000Y78000D02*
X282000Y76000D01*
Y71080D01*
G01X292000D02*
Y76000D01*
X290000Y78000D01*
G01X312000Y71080D02*
Y76000D01*
X292000Y96000D01*
Y137000D01*
X289000Y140000D01*
Y159000D01*
X304000Y174000D01*
X312250D01*
G01X302000Y71080D02*
Y81000D01*
X289000Y94000D01*
Y136000D01*
X286000Y139000D01*
Y160000D01*
X304000Y178000D01*
X312250D01*
G01X340000Y40000D02*
Y62000D01*
X327000Y75000D01*
Y81000D01*
X311160Y96840D01*
Y101960D01*
G01X340000Y20000D02*
X330000Y30000D01*
Y68000D01*
X324000Y74000D01*
Y79000D01*
X306160Y96840D01*
Y101960D01*
G01X320000Y40000D02*
X321000Y41000D01*
Y77000D01*
X301160Y96840D01*
Y101960D01*
G01X312250Y154000D02*
X305000D01*
X304000Y153000D01*
Y150000D01*
X316000Y138000D01*
Y124000D01*
X319500Y120500D01*
Y113900D01*
G01X311160Y113760D02*
Y137840D01*
X301000Y148000D01*
Y155000D01*
X304000Y158000D01*
X312250D01*
G01X306160Y113760D02*
Y137840D01*
X298000Y146000D01*
Y156000D01*
X304000Y162000D01*
X312250D01*
G01X301160Y113760D02*
Y137840D01*
X295000Y144000D01*
Y157000D01*
X304000Y166000D01*
X312250D01*
G01X296160Y113760D02*
Y137840D01*
X292000Y142000D01*
Y158000D01*
X304000Y170000D01*
X312250D01*
G01X265090Y158900D02*
Y164090D01*
X303000Y202000D01*
X312250D01*
G01X270090Y158900D02*
Y165090D01*
X303000Y198000D01*
X312250D01*
G01Y194000D02*
X303000D01*
X274000Y165000D01*
Y141000D01*
X269500Y136500D01*
Y128900D01*
G01X312250Y190000D02*
X303000D01*
X277000Y164000D01*
Y138000D01*
X274500Y135500D01*
Y128900D01*
G01X312250Y186000D02*
X303000D01*
X280000Y163000D01*
Y129400D01*
X279500Y128900D01*
G01X312250Y182000D02*
X303000D01*
X283000Y162000D01*
Y137000D01*
X284500Y135500D01*
Y128900D01*
G01X312250Y270000D02*
X329000D01*
X342000Y257000D01*
Y180000D01*
X352000Y170000D01*
X435000D01*
X452000Y153000D01*
X501000D01*
X513000Y141000D01*
Y115000D01*
X527000Y101000D01*
X542000D01*
X548000Y95000D01*
X559000D01*
X565000Y89000D01*
X579000D01*
X582000Y86000D01*
X622000D01*
X625000Y83000D01*
X636000D01*
X642000Y77000D01*
X654000D01*
X660000Y71000D01*
X672000D01*
X678000Y65000D01*
X689000D01*
X695000Y59000D01*
X708000D01*
X714000Y53000D01*
X728000D01*
X731000Y50000D01*
X745000D01*
X750000Y45000D01*
Y30000D01*
X760000Y20000D01*
G01X312250Y266000D02*
X329000D01*
X339000Y256000D01*
Y179000D01*
X351000Y167000D01*
X434000D01*
X451000Y150000D01*
X500000D01*
X510000Y140000D01*
Y114000D01*
X526000Y98000D01*
X541000D01*
X547000Y92000D01*
X558000D01*
X564000Y86000D01*
X578000D01*
X581000Y83000D01*
X621000D01*
X624000Y80000D01*
X635000D01*
X641000Y74000D01*
X653000D01*
X659000Y68000D01*
X671000D01*
X677000Y62000D01*
X688000D01*
X694000Y56000D01*
X707000D01*
X713000Y50000D01*
X726000D01*
X736000Y40000D01*
X740000D01*
G01X312250Y318000D02*
X323000D01*
X325000Y320000D01*
G01X312250Y314000D02*
X323000D01*
X325000Y312000D01*
G01X300000Y500000D02*
X293900D01*
X291450Y497550D01*
Y487450D01*
X284000Y480000D01*
Y323000D01*
X297750Y309250D01*
X301220D01*
X301970Y310000D01*
X312250D01*
G01X280000Y500000D02*
X288950Y491050D01*
Y488490D01*
X281500Y481040D01*
Y321960D01*
X296710Y306750D01*
X301220D01*
X301970Y306000D01*
X312250D01*
G01X301000Y330000D02*
X305000Y326000D01*
X312250D01*
G01Y322000D02*
X301000D01*
X299000Y324000D01*
G01X400000Y40000D02*
X394000Y46000D01*
X392000D01*
X385000Y53000D01*
X373000D01*
X347500Y78500D01*
Y102100D01*
G01X400000Y20000D02*
X390000Y30000D01*
Y44000D01*
X384000Y50000D01*
X372000D01*
X342500Y79500D01*
Y102100D01*
G01X380000Y40000D02*
X378000D01*
X339000Y79000D01*
Y88500D01*
X334500Y93000D01*
Y102100D01*
G01X380000Y20000D02*
X370000Y30000D01*
Y44000D01*
X336000Y78000D01*
Y87000D01*
X329500Y93500D01*
Y102100D01*
G01X360000Y40000D02*
Y50000D01*
X333000Y77000D01*
Y85000D01*
X324500Y93500D01*
Y102100D01*
G01X360000Y20000D02*
X350000Y30000D01*
Y56000D01*
X330000Y76000D01*
Y83000D01*
X319500Y93500D01*
Y102100D01*
G01X366000Y132250D02*
Y123000D01*
X365000Y122000D01*
Y98000D01*
X369500Y93500D01*
Y88900D01*
G01X364500D02*
Y94500D01*
X362000Y97000D01*
Y132250D01*
G01X440000Y40000D02*
X428000Y52000D01*
X414000D01*
X407000Y59000D01*
X395000D01*
X389000Y65000D01*
X377000D01*
X369500Y72500D01*
Y77100D01*
G01X440000Y20000D02*
X430000Y30000D01*
Y44000D01*
X424870Y49130D01*
X412870D01*
X406000Y56000D01*
X394000D01*
X388000Y62000D01*
X376000D01*
X364500Y73500D01*
Y77100D01*
G01X420000Y40000D02*
X418000D01*
X405000Y53000D01*
X393000D01*
X387000Y59000D01*
X375000D01*
X357500Y76500D01*
Y102100D01*
G01X420000Y20000D02*
X410000Y30000D01*
Y44000D01*
X404000Y50000D01*
X392000D01*
X386000Y56000D01*
X374000D01*
X352500Y77500D01*
Y102100D01*
G01X357000Y163000D02*
X434000D01*
X446000Y151000D01*
Y132250D01*
G01X362000Y159000D02*
X434000D01*
X442000Y151000D01*
Y132250D01*
G01X358000D02*
Y114400D01*
X357500Y113900D01*
G01X352500D02*
Y118500D01*
X354000Y120000D01*
Y132250D01*
G01X347500Y113900D02*
Y118500D01*
X350000Y121000D01*
Y132250D01*
G01X342500Y113900D02*
Y118500D01*
X346000Y122000D01*
Y132250D01*
G01X334500Y113900D02*
Y115500D01*
X342000Y123000D01*
Y132250D01*
G01X329500Y113900D02*
Y118500D01*
X331000Y120000D01*
X335000D01*
X338000Y123000D01*
Y132250D01*
G01X324500Y113900D02*
Y118500D01*
X329000Y123000D01*
X333000D01*
X334000Y124000D01*
Y132250D01*
G01X327000Y261000D02*
X336000Y252000D01*
Y178000D01*
X359000Y155000D01*
X421000D01*
X430000Y146000D01*
Y132250D01*
G01X350000Y347750D02*
Y338000D01*
X352000Y336000D01*
G01X324000Y363000D02*
X326000Y361000D01*
X333000D01*
X338000Y356000D01*
Y347750D01*
G01X320000Y358000D02*
X332000D01*
X334000Y356000D01*
Y347750D01*
G01X460000Y20000D02*
X450000Y30000D01*
Y44000D01*
X439000Y55000D01*
X415000D01*
X408000Y62000D01*
X396000D01*
X390000Y68000D01*
X378000D01*
X374500Y71500D01*
Y77100D01*
G01X390000Y132250D02*
Y123000D01*
X389000Y122000D01*
Y99000D01*
X391000Y97000D01*
Y94000D01*
X411000Y74000D01*
X413000D01*
X415500Y71500D01*
X421100D01*
G01Y66500D02*
X415500D01*
X411000Y71000D01*
X409000D01*
X388000Y92000D01*
Y95000D01*
X386000Y97000D01*
Y132250D01*
G01X421100Y61500D02*
X416500D01*
X410000Y68000D01*
X408000D01*
X385000Y91000D01*
Y93000D01*
X382000Y96000D01*
Y132250D01*
G01X379500Y88900D02*
Y93500D01*
X378000Y95000D01*
Y132250D01*
G01X374000D02*
Y123000D01*
X375000Y122000D01*
Y89400D01*
X374500Y88900D01*
G01X394000Y132250D02*
Y122000D01*
X392000Y120000D01*
Y100000D01*
X394000Y98000D01*
Y95000D01*
X412000Y77000D01*
X420600D01*
X421100Y76500D01*
G01X460000Y40000D02*
X458000D01*
X440000Y58000D01*
X416000D01*
X409000Y65000D01*
X397000D01*
X391000Y71000D01*
X381000D01*
X379500Y72500D01*
Y77100D01*
G01X580000Y20000D02*
X570000Y30000D01*
Y46000D01*
X566000Y50000D01*
X552000D01*
X546000Y56000D01*
X535000D01*
X529000Y62000D01*
X514000D01*
X511000Y65000D01*
X497000D01*
X491000Y71000D01*
X480000D01*
X474000Y77000D01*
X461000D01*
X443000Y95000D01*
X424000D01*
X419000Y100000D01*
Y119000D01*
X422000Y122000D01*
Y132250D01*
G01X560000Y40000D02*
X558000D01*
X545000Y53000D01*
X534000D01*
X528000Y59000D01*
X513000D01*
X510000Y62000D01*
X496000D01*
X490000Y68000D01*
X479000D01*
X473000Y74000D01*
X460000D01*
X442000Y92000D01*
X423000D01*
X416000Y99000D01*
Y120000D01*
X418000Y122000D01*
Y132250D01*
G01X560000Y20000D02*
X550000Y30000D01*
Y44000D01*
X544000Y50000D01*
X533000D01*
X527000Y56000D01*
X512000D01*
X509000Y59000D01*
X495000D01*
X489000Y65000D01*
X478000D01*
X472000Y71000D01*
X459000D01*
X441000Y89000D01*
X422000D01*
X413000Y98000D01*
Y121000D01*
X414000Y122000D01*
Y132250D01*
G01X540000Y40000D02*
X539000D01*
X526000Y53000D01*
X511000D01*
X508000Y56000D01*
X494000D01*
X488000Y62000D01*
X477000D01*
X471000Y68000D01*
X458000D01*
X440000Y86000D01*
X421000D01*
X410000Y97000D01*
Y132250D01*
G01X540000Y20000D02*
X530000Y30000D01*
Y45000D01*
X525000Y50000D01*
X510000D01*
X507000Y53000D01*
X493000D01*
X487000Y59000D01*
X476000D01*
X470000Y65000D01*
X457000D01*
X439000Y83000D01*
X420000D01*
X407000Y96000D01*
Y121000D01*
X406000Y122000D01*
Y132250D01*
G01X740000Y20000D02*
X730000Y10000D01*
X515000D01*
X510000Y15000D01*
Y46000D01*
X506000Y50000D01*
X492000D01*
X486000Y56000D01*
X475000D01*
X469000Y62000D01*
X456000D01*
X438000Y80000D01*
X419000D01*
X404000Y95000D01*
Y120000D01*
X402000Y122000D01*
Y132250D01*
G01X416000Y330000D02*
X419000Y327000D01*
X484000D01*
X500000Y311000D01*
Y187000D01*
X509000Y178000D01*
X527750D01*
G01X411000Y326000D02*
X413000Y324000D01*
X483000D01*
X497000Y310000D01*
Y186000D01*
X509000Y174000D01*
X527750D01*
G01X405000Y323000D02*
X407000Y321000D01*
X482000D01*
X494000Y309000D01*
Y185000D01*
X517000Y162000D01*
X527750D01*
G01X485610Y450910D02*
X485520Y451000D01*
X479000D01*
X406000Y378000D01*
Y347750D01*
G01X485610Y460910D02*
X480910D01*
X398000Y378000D01*
Y347750D01*
G01X545740Y439620D02*
X545360Y440000D01*
X508000D01*
X504000Y436000D01*
X480200D01*
X470100Y425900D01*
X454940Y410750D01*
X454750D01*
X422000Y378000D01*
Y347750D01*
G01X545740Y434620D02*
X541380D01*
X539000Y437000D01*
X509000D01*
X505000Y433000D01*
X481000D01*
X426000Y378000D01*
Y347750D01*
G01X545740Y444620D02*
X540620D01*
X539000Y443000D01*
X507000D01*
X503000Y439000D01*
X479000D01*
X418000Y378000D01*
Y347750D01*
G01X485610Y455910D02*
X479910D01*
X402000Y378000D01*
Y347750D01*
G01X485610Y445910D02*
X485520Y446000D01*
X478000D01*
X410000Y378000D01*
Y347750D01*
G01X545740Y449620D02*
X541620D01*
X538000Y446000D01*
X506000D01*
X502000Y442000D01*
X478000D01*
X414000Y378000D01*
Y347750D01*
G01X390000D02*
Y336080D01*
G01X380000Y336000D02*
X378000Y338000D01*
Y347750D01*
G01X375000Y332000D02*
Y337000D01*
X374000Y338000D01*
Y347750D01*
G01X422000Y332000D02*
X424000Y330000D01*
X485000D01*
X503000Y312000D01*
Y188000D01*
X509000Y182000D01*
X527750D01*
G01X500000Y40000D02*
X498000D01*
X485000Y53000D01*
X474000D01*
X468000Y59000D01*
X455000D01*
X437500Y76500D01*
X432900D01*
G01X500000Y20000D02*
X490000Y30000D01*
Y44000D01*
X484000Y50000D01*
X473000D01*
X467000Y56000D01*
X454000D01*
X438500Y71500D01*
X432900D01*
G01X480000Y40000D02*
X479000D01*
X466000Y53000D01*
X453000D01*
X439500Y66500D01*
X432900D01*
G01X480000Y20000D02*
X470000Y30000D01*
Y45000D01*
X465000Y50000D01*
X452000D01*
X440500Y61500D01*
X432900D01*
G01X620000Y40000D02*
X610000Y50000D01*
X570000D01*
X567000Y53000D01*
X553000D01*
X547000Y59000D01*
X536000D01*
X530000Y65000D01*
X515000D01*
X512000Y68000D01*
X498000D01*
X492000Y74000D01*
X481000D01*
X475000Y80000D01*
X462000D01*
X444000Y98000D01*
Y118000D01*
X450000Y124000D01*
Y132250D01*
G01X660000Y40000D02*
X659000D01*
X646000Y53000D01*
X634000D01*
X628000Y59000D01*
X617000D01*
X614000Y62000D01*
X574000D01*
X571000Y65000D01*
X557000D01*
X551000Y71000D01*
X540000D01*
X534000Y77000D01*
X519000D01*
X516000Y80000D01*
X502000D01*
X496000Y86000D01*
X485000D01*
X473000Y98000D01*
Y122000D01*
X474000Y123000D01*
Y132250D01*
G01X660000Y20000D02*
X650000Y30000D01*
Y45000D01*
X645000Y50000D01*
X633000D01*
X627000Y56000D01*
X616000D01*
X613000Y59000D01*
X573000D01*
X570000Y62000D01*
X556000D01*
X550000Y68000D01*
X539000D01*
X533000Y74000D01*
X518000D01*
X515000Y77000D01*
X501000D01*
X495000Y83000D01*
X484000D01*
X470000Y97000D01*
Y132250D01*
G01X640000Y40000D02*
X639000D01*
X626000Y53000D01*
X615000D01*
X612000Y56000D01*
X572000D01*
X569000Y59000D01*
X555000D01*
X549000Y65000D01*
X538000D01*
X532000Y71000D01*
X517000D01*
X514000Y74000D01*
X500000D01*
X494000Y80000D01*
X483000D01*
X467000Y96000D01*
Y122000D01*
X466000Y123000D01*
Y132250D01*
G01X640000Y20000D02*
X630000Y30000D01*
Y45000D01*
X625000Y50000D01*
X614000D01*
X611000Y53000D01*
X571000D01*
X568000Y56000D01*
X554000D01*
X548000Y62000D01*
X537000D01*
X531000Y68000D01*
X516000D01*
X513000Y71000D01*
X499000D01*
X493000Y77000D01*
X482000D01*
X464000Y95000D01*
Y120000D01*
X462000Y122000D01*
Y132250D01*
G01X434000D02*
Y144000D01*
G01X438000Y132250D02*
Y122000D01*
X436000Y120000D01*
Y114080D01*
G01Y150000D02*
X438000Y148000D01*
Y132250D01*
G01X485610Y428910D02*
X480910D01*
X430000Y378000D01*
Y347750D01*
G01X544100Y395500D02*
X538500D01*
X537000Y397000D01*
X513000D01*
X478000Y362000D01*
Y347750D01*
G01X544100Y400500D02*
X543600Y400000D01*
X512000D01*
X507000Y395000D01*
X495000D01*
X470000Y370000D01*
Y347750D01*
G01X466000D02*
Y370000D01*
X494000Y398000D01*
X506000D01*
X511000Y403000D01*
X537000D01*
X539500Y405500D01*
X544100D01*
G01X518100Y406500D02*
X510500D01*
X505000Y401000D01*
X493000D01*
X462000Y370000D01*
Y347750D01*
G01X518100Y411500D02*
X511500D01*
X504000Y404000D01*
X492000D01*
X458000Y370000D01*
Y347750D01*
G01X485610Y423910D02*
X479910D01*
X434000Y378000D01*
Y347750D01*
G01X485610Y418910D02*
X478910D01*
X462000Y402000D01*
Y399000D01*
X465000Y396000D01*
Y394000D01*
X463380Y392380D01*
X461620D01*
X458000Y396000D01*
X456000D01*
X455000Y395000D01*
Y392000D01*
X457000Y390000D01*
Y386000D01*
X442000Y371000D01*
Y347750D01*
G01X518100Y421500D02*
X513500D01*
X502000Y410000D01*
X490000D01*
X450000Y370000D01*
Y347750D01*
G01X518100Y416500D02*
X512500D01*
X503000Y407000D01*
X491000D01*
X454000Y370000D01*
Y347750D01*
G01X485610Y413910D02*
X485520Y414000D01*
X481000D01*
X480000Y413000D01*
Y411000D01*
X482000Y409000D01*
Y407000D01*
X480880Y405880D01*
X479120D01*
X476000Y409000D01*
X474000D01*
X473000Y408000D01*
Y406000D01*
X476120Y402880D01*
Y401120D01*
X475000Y400000D01*
X473000D01*
X470000Y403000D01*
X468000D01*
X466380Y401380D01*
Y399620D01*
X469000Y397000D01*
Y394000D01*
X446000Y371000D01*
Y347750D01*
G01X720000Y40000D02*
X719000D01*
X706000Y53000D01*
X693000D01*
X687000Y59000D01*
X676000D01*
X670000Y65000D01*
X658000D01*
X652000Y71000D01*
X640000D01*
X634000Y77000D01*
X623000D01*
X620000Y80000D01*
X580000D01*
X577000Y83000D01*
X563000D01*
X557000Y89000D01*
X546000D01*
X540000Y95000D01*
X525000D01*
X506000Y114000D01*
Y132250D01*
G01X720000Y20000D02*
X710000Y30000D01*
Y44000D01*
X704000Y50000D01*
X692000D01*
X686000Y56000D01*
X675000D01*
X669000Y62000D01*
X657000D01*
X651000Y68000D01*
X639000D01*
X633000Y74000D01*
X622000D01*
X619000Y77000D01*
X579000D01*
X576000Y80000D01*
X562000D01*
X556000Y86000D01*
X545000D01*
X539000Y92000D01*
X524000D01*
X502000Y114000D01*
Y132250D01*
G01X700000Y40000D02*
X698000D01*
X685000Y53000D01*
X674000D01*
X668000Y59000D01*
X656000D01*
X650000Y65000D01*
X638000D01*
X632000Y71000D01*
X621000D01*
X618000Y74000D01*
X578000D01*
X575000Y77000D01*
X561000D01*
X555000Y83000D01*
X544000D01*
X538000Y89000D01*
X523000D01*
X499000Y113000D01*
Y122000D01*
X498000Y123000D01*
Y132250D01*
G01X700000Y20000D02*
X690000Y30000D01*
Y44000D01*
X684000Y50000D01*
X673000D01*
X667000Y56000D01*
X655000D01*
X649000Y62000D01*
X637000D01*
X631000Y68000D01*
X620000D01*
X617000Y71000D01*
X577000D01*
X574000Y74000D01*
X560000D01*
X554000Y80000D01*
X543000D01*
X537000Y86000D01*
X522000D01*
X519000Y89000D01*
X505000D01*
X499000Y95000D01*
X491000D01*
X489000Y97000D01*
Y122000D01*
X490000Y123000D01*
Y132250D01*
G01X680000Y40000D02*
X679000D01*
X666000Y53000D01*
X654000D01*
X648000Y59000D01*
X636000D01*
X630000Y65000D01*
X619000D01*
X616000Y68000D01*
X576000D01*
X573000Y71000D01*
X559000D01*
X553000Y77000D01*
X542000D01*
X536000Y83000D01*
X521000D01*
X518000Y86000D01*
X504000D01*
X498000Y92000D01*
X488000D01*
X486000Y94000D01*
Y132250D01*
G01X680000Y20000D02*
X670000Y30000D01*
Y45000D01*
X665000Y50000D01*
X653000D01*
X647000Y56000D01*
X635000D01*
X629000Y62000D01*
X618000D01*
X615000Y65000D01*
X575000D01*
X572000Y68000D01*
X558000D01*
X552000Y74000D01*
X541000D01*
X535000Y80000D01*
X520000D01*
X517000Y83000D01*
X503000D01*
X497000Y89000D01*
X486000D01*
X483000Y92000D01*
Y122000D01*
X482000Y123000D01*
Y132250D01*
G01X509000Y156000D02*
Y149000D01*
X516000Y142000D01*
Y116000D01*
X528000Y104000D01*
X543000D01*
X549000Y98000D01*
X560000D01*
X566000Y92000D01*
X580000D01*
X583000Y89000D01*
X623000D01*
X626000Y86000D01*
X637000D01*
X643000Y80000D01*
X655000D01*
X661000Y74000D01*
X673000D01*
X679000Y68000D01*
X690000D01*
X696000Y62000D01*
X709000D01*
X715000Y56000D01*
X729000D01*
X732000Y53000D01*
X746000D01*
X759000Y40000D01*
X760000D01*
G01X780000Y20000D02*
X770000Y30000D01*
Y45000D01*
X765000Y50000D01*
X753000D01*
X747000Y56000D01*
X733000D01*
X730000Y59000D01*
X716000D01*
X710000Y65000D01*
X697000D01*
X691000Y71000D01*
X680000D01*
X674000Y77000D01*
X662000D01*
X656000Y83000D01*
X644000D01*
X638000Y89000D01*
X627000D01*
X624000Y92000D01*
X584000D01*
X581000Y95000D01*
X567000D01*
X561000Y101000D01*
X550000D01*
X544000Y107000D01*
X529000D01*
X519000Y117000D01*
Y143000D01*
X513000Y149000D01*
Y153000D01*
X518000Y158000D01*
X527750D01*
G01X780000Y40000D02*
X779000D01*
X766000Y53000D01*
X754000D01*
X748000Y59000D01*
X734000D01*
X731000Y62000D01*
X717000D01*
X711000Y68000D01*
X698000D01*
X692000Y74000D01*
X681000D01*
X675000Y80000D01*
X663000D01*
X657000Y86000D01*
X645000D01*
X639000Y92000D01*
X628000D01*
X625000Y95000D01*
X585000D01*
X582000Y98000D01*
X568000D01*
X562000Y104000D01*
X551000D01*
X545000Y110000D01*
X530000D01*
X522000Y118000D01*
Y144000D01*
X516000Y150000D01*
Y152000D01*
X518000Y154000D01*
X527750D01*
G01Y198000D02*
X508000D01*
G01X527750Y202000D02*
X513000D01*
G01X527750Y206000D02*
X508000D01*
G01X527750Y210000D02*
X513000D01*
G01X527750Y190000D02*
X509000D01*
G01X580100Y187500D02*
X572500D01*
X567000Y193000D01*
Y220000D01*
X551000Y236000D01*
X545000D01*
X543000Y238000D01*
X527750D01*
G01Y230000D02*
X547000D01*
X561000Y216000D01*
Y187000D01*
X570500Y177500D01*
X580100D01*
G01X527750Y250000D02*
X539000D01*
X540000Y249000D01*
X565000D01*
X574000Y258000D01*
Y266000D01*
X575500Y267500D01*
X580100D01*
G01X527750Y246000D02*
X566000D01*
X577000Y257000D01*
Y261000D01*
X578500Y262500D01*
X580100D01*
G01X527750Y254000D02*
X540000D01*
X542000Y252000D01*
X564000D01*
X571000Y259000D01*
Y269000D01*
X574500Y272500D01*
X580100D01*
G01X527750Y258000D02*
X540000D01*
X543000Y255000D01*
X563000D01*
X568000Y260000D01*
Y273000D01*
X572500Y277500D01*
X580100D01*
G01X527750Y266000D02*
X541000D01*
G01X580920Y288000D02*
X575840D01*
X565000Y277160D01*
Y261000D01*
X562000Y258000D01*
X544000D01*
X540000Y262000D01*
X527750D01*
G01X580100Y182500D02*
X571500D01*
X564000Y190000D01*
Y218000D01*
X549000Y233000D01*
X544000D01*
X543000Y234000D01*
X527750D01*
G01X580100Y172500D02*
X569500D01*
X558000Y184000D01*
Y214000D01*
X546000Y226000D01*
X527750D01*
G01Y310000D02*
X540000D01*
G01X527750Y314000D02*
X545000D01*
G01X540000Y328000D02*
X538000Y326000D01*
X527750D01*
G01Y318000D02*
X540000D01*
G01X580100Y321500D02*
X577500D01*
X561000Y305000D01*
X550000D01*
X543000Y298000D01*
X527750D01*
G01X580100Y331500D02*
X577500D01*
X559000Y313000D01*
X550000D01*
X543000Y306000D01*
X527750D01*
G01X580100Y316500D02*
X577500D01*
X562000Y301000D01*
X550000D01*
X543000Y294000D01*
X527750D01*
G01X580100Y326500D02*
X577500D01*
X560000Y309000D01*
X550000D01*
X543000Y302000D01*
X527750D01*
G01X704000Y358000D02*
Y387000D01*
X701000Y390000D01*
X688000D01*
X687000Y389000D01*
Y379000D01*
X686000Y378000D01*
X685000D01*
X684000Y379000D01*
Y389000D01*
X683000Y390000D01*
X682000D01*
X681000Y389000D01*
Y379000D01*
X680000Y378000D01*
X679000D01*
X678000Y379000D01*
Y389000D01*
X677000Y390000D01*
X577000D01*
X568000Y381000D01*
X530400D01*
X529900Y380500D01*
G01X692000Y358000D02*
Y362000D01*
X691000Y363000D01*
X685000D01*
X684000Y364000D01*
Y365000D01*
X685000Y366000D01*
X690000D01*
X691000Y367000D01*
Y368000D01*
X690000Y369000D01*
X680000D01*
X679000Y370000D01*
Y371000D01*
X680000Y372000D01*
X690000D01*
X691000Y373000D01*
Y374000D01*
X690000Y375000D01*
X676000D01*
X675000Y376000D01*
Y386000D01*
X674000Y387000D01*
X578000D01*
X569000Y378000D01*
X538000D01*
X535500Y375500D01*
X529900D01*
G01X544100Y390500D02*
X539500D01*
X536000Y394000D01*
X514000D01*
X482000Y362000D01*
Y347750D01*
G01X518100Y380500D02*
X512500D01*
X494000Y362000D01*
Y347750D01*
G01X518100Y390500D02*
X514500D01*
X486000Y362000D01*
Y347750D01*
G01X518100Y385500D02*
X513500D01*
X490000Y362000D01*
Y347750D01*
G01X518100Y375500D02*
X511500D01*
X498000Y362000D01*
Y347750D01*
G01X497410Y428910D02*
X497500Y429000D01*
X505000D01*
X510000Y434000D01*
X538000D01*
X542000Y430000D01*
X561000D01*
X563000Y432000D01*
X727000D01*
X771000Y388000D01*
Y337000D01*
X769000Y335000D01*
Y333000D01*
G01X748000Y373000D02*
Y383000D01*
X720000Y411000D01*
X570000D01*
X568000Y409000D01*
X539000D01*
X536500Y406500D01*
X529900D01*
G01X720000Y358000D02*
Y391000D01*
X715000Y396000D01*
X575000D01*
X566000Y387000D01*
X539000D01*
X535500Y390500D01*
X529900D01*
G01X752000Y368000D02*
Y383000D01*
X721000Y414000D01*
X569000D01*
X567000Y412000D01*
X530400D01*
X529900Y411500D01*
G01X765000Y328000D02*
Y335000D01*
X768000Y338000D01*
Y387000D01*
X726000Y429000D01*
X564000D01*
X562000Y427000D01*
X541000D01*
X537000Y431000D01*
X511000D01*
X503910Y423910D01*
X497410D01*
G01X529900Y385500D02*
X536500D01*
X538000Y384000D01*
X567000D01*
X576000Y393000D01*
X704000D01*
X708000Y389000D01*
Y362000D01*
X712000Y358000D01*
G01X761000Y333000D02*
Y335000D01*
X765000Y339000D01*
Y386000D01*
X725000Y426000D01*
X565000D01*
X563000Y424000D01*
X540000D01*
X536000Y428000D01*
X512000D01*
X503000Y419000D01*
X497500D01*
X497410Y418910D01*
G01X753000Y333000D02*
Y335000D01*
X759000Y341000D01*
Y384000D01*
X723000Y420000D01*
X567000D01*
X565000Y418000D01*
X538000D01*
X534500Y421500D01*
X529900D01*
G01X747000Y331000D02*
X748000Y332000D01*
Y334000D01*
X756000Y342000D01*
Y383000D01*
X722000Y417000D01*
X568000D01*
X566000Y415000D01*
X536000D01*
X534500Y416500D01*
X529900D01*
G01X757000Y328000D02*
Y335000D01*
X762000Y340000D01*
Y385000D01*
X724000Y423000D01*
X566000D01*
X564000Y421000D01*
X539000D01*
X535000Y425000D01*
X513000D01*
X501910Y413910D01*
X497410D01*
G01X797000Y328000D02*
Y337000D01*
X792000Y342000D01*
Y395000D01*
X734000Y453000D01*
X573000D01*
X567000Y459000D01*
X539000D01*
X535000Y455000D01*
X505000D01*
X504090Y455910D01*
X497410D01*
G01X789000Y328000D02*
Y336000D01*
X786000Y339000D01*
Y393000D01*
X732000Y447000D01*
X571000D01*
X565000Y453000D01*
X541000D01*
X537000Y449000D01*
X505000D01*
X501910Y445910D01*
X497410D01*
G01X677000Y457000D02*
X676000Y456000D01*
X574000D01*
X568000Y462000D01*
X538000D01*
X534000Y458000D01*
X506000D01*
X503090Y460910D01*
X497410D01*
G01X793000Y333000D02*
Y336000D01*
X789000Y340000D01*
Y394000D01*
X733000Y450000D01*
X572000D01*
X566000Y456000D01*
X540000D01*
X536000Y452000D01*
X504000D01*
X502910Y450910D01*
X497410D01*
G01X591900Y172500D02*
X595500D01*
X597000Y171000D01*
Y167000D01*
X595000Y165000D01*
X587000D01*
X586000Y164000D01*
Y162000D01*
X587000Y161000D01*
X589000D01*
X590000Y160000D01*
Y158000D01*
X589000Y157000D01*
X587000D01*
X586000Y156000D01*
Y154000D01*
X587000Y153000D01*
X589000D01*
X590000Y152000D01*
Y139000D01*
X592000Y137000D01*
X600000D01*
X601000Y136000D01*
Y134000D01*
X600000Y133000D01*
X597000D01*
X596000Y132000D01*
Y128300D01*
X602300Y122000D01*
X667000D01*
X672000Y127000D01*
Y145310D01*
X676000Y149310D01*
Y152000D01*
G01X580920Y198000D02*
X572000D01*
G01X580100Y226500D02*
X574500D01*
X572000Y224000D01*
G01X580100Y231500D02*
X572500D01*
X571000Y230000D01*
G01X580100Y241500D02*
X574500D01*
X573000Y243000D01*
G01X580100Y236500D02*
X572500D01*
G01X676000Y340000D02*
Y342000D01*
X672000Y346000D01*
Y356100D01*
X664100Y364000D01*
X590000D01*
X584700Y358700D01*
Y344300D01*
X590000Y339000D01*
X596000D01*
X598000Y337000D01*
Y333000D01*
X596500Y331500D01*
X591900D01*
G01X736000Y358000D02*
Y383000D01*
X717000Y402000D01*
X573000D01*
X566500Y395500D01*
X555900D01*
G01X777000Y333000D02*
Y390000D01*
X729000Y438000D01*
X568000D01*
X566380Y439620D01*
X557540D01*
G01Y434620D02*
X728380D01*
X774000Y389000D01*
Y336000D01*
X773000Y335000D01*
Y328000D01*
G01X555900Y390500D02*
X565500D01*
X574000Y399000D01*
X716000D01*
X723000Y392000D01*
Y363000D01*
X728000Y358000D01*
G01X740000Y363000D02*
Y383000D01*
X718000Y405000D01*
X572000D01*
X567500Y400500D01*
X555900D01*
G01X744000Y368000D02*
Y383000D01*
X719000Y408000D01*
X571000D01*
X568500Y405500D01*
X555900D01*
G01X781000Y328000D02*
Y336000D01*
X780000Y337000D01*
Y391000D01*
X730000Y441000D01*
X569000D01*
X565380Y444620D01*
X557540D01*
G01Y449620D02*
X564380D01*
X570000Y444000D01*
X731000D01*
X783000Y392000D01*
Y338000D01*
X785000Y336000D01*
Y333000D01*
G01X652000Y152000D02*
Y158400D01*
X647400Y163000D01*
X643000D01*
X635000Y155000D01*
X633000D01*
X632000Y156000D01*
Y158000D01*
X638000Y164000D01*
Y166000D01*
X637000Y167000D01*
X635000D01*
X628000Y160000D01*
X626000D01*
X625000Y161000D01*
Y163000D01*
X632000Y170000D01*
Y172000D01*
X631000Y173000D01*
X629000D01*
X624000Y168000D01*
X622000D01*
X621000Y169000D01*
Y171000D01*
X626000Y176000D01*
Y178000D01*
X625000Y179000D01*
X623000D01*
X618000Y174000D01*
X616000D01*
X615000Y175000D01*
Y177000D01*
X620000Y182000D01*
Y184000D01*
X619000Y185000D01*
X617000D01*
X612000Y180000D01*
X610000D01*
X609000Y181000D01*
Y183000D01*
X611000Y185000D01*
Y193000D01*
X610000Y194000D01*
X608000D01*
X607000Y193000D01*
Y187000D01*
X606000Y186000D01*
X604000D01*
X603000Y187000D01*
Y193000D01*
X602000Y194000D01*
X600000D01*
X598960Y192940D01*
Y189720D01*
X596740Y187500D01*
X591900D01*
G01Y182500D02*
X602600D01*
X606000Y179100D01*
Y168700D01*
X607100Y167600D01*
X609600D01*
X612000Y170000D01*
X614000D01*
X615120Y168880D01*
Y167120D01*
X606700Y158700D01*
Y157200D01*
X608000Y155900D01*
X609900D01*
X617000Y163000D01*
X619000D01*
X620000Y162000D01*
Y160000D01*
X612000Y152000D01*
Y134000D01*
X613000Y133000D01*
X615000D01*
X616000Y134000D01*
Y141000D01*
X617000Y142000D01*
X620000D01*
X621000Y143000D01*
Y145000D01*
X620000Y146000D01*
X617000D01*
X616000Y147000D01*
Y150000D01*
X623000Y157000D01*
X625000D01*
X626000Y156000D01*
Y154000D01*
X625000Y153000D01*
Y151000D01*
X626000Y150000D01*
X628000D01*
X630000Y152000D01*
X632000D01*
X633000Y151000D01*
Y149000D01*
X634000Y148000D01*
X654000D01*
X658000Y144000D01*
X660000D01*
G01X668000D02*
X664000Y140000D01*
Y128000D01*
X662000Y126000D01*
X611200D01*
X608000Y129200D01*
Y140000D01*
X607000Y141000D01*
X597000D01*
X596000Y142000D01*
Y144000D01*
X597000Y145000D01*
X607000D01*
X608000Y146000D01*
Y148000D01*
X607000Y149000D01*
X595000D01*
X594000Y150000D01*
Y152000D01*
X595000Y153000D01*
X602000D01*
X603000Y154000D01*
Y156000D01*
X602000Y157000D01*
X595000D01*
X594000Y158000D01*
Y160000D01*
X595000Y161000D01*
X599400D01*
X602000Y163600D01*
Y173000D01*
X597500Y177500D01*
X591900D01*
G01X652000Y184000D02*
X672000Y164000D01*
Y150000D01*
X670000Y148000D01*
X658000D01*
X656000Y150000D01*
Y160000D01*
X647000Y169000D01*
X641000D01*
X612000Y198000D01*
X591080D01*
G01X591900Y241500D02*
X626500D01*
X639000Y229000D01*
Y218000D01*
X642000Y215000D01*
X665000D01*
X672000Y208000D01*
Y198000D01*
X676000Y194000D01*
Y192000D01*
G01X591900Y236500D02*
X625500D01*
X636000Y226000D01*
Y215000D01*
X639000Y212000D01*
X661000D01*
X664000Y209000D01*
Y198000D01*
X666000Y196000D01*
X670000D01*
X672000Y194000D01*
Y188000D01*
X676000Y184000D01*
G01X591900Y231500D02*
X624500D01*
X633000Y223000D01*
Y212000D01*
X636000Y209000D01*
X654000D01*
X656000Y207000D01*
Y198000D01*
X659000Y195000D01*
Y193000D01*
X660000Y192000D01*
G01X591900Y226500D02*
X622500D01*
X630000Y219000D01*
Y207000D01*
X632000Y205000D01*
X637000D01*
X638000Y204000D01*
Y202000D01*
X637000Y201000D01*
X632000D01*
X631000Y200000D01*
Y198000D01*
X632000Y197000D01*
X634000D01*
X635000Y196000D01*
Y194000D01*
X636000Y193000D01*
X638000D01*
X641000Y196000D01*
X654000D01*
X656000Y194000D01*
Y188000D01*
X660000Y184000D01*
G01X591900Y277500D02*
X597500D01*
X599000Y279000D01*
Y284000D01*
X600000Y285000D01*
X602000D01*
X603000Y284000D01*
Y274000D01*
X604000Y273000D01*
X606000D01*
X607000Y274000D01*
Y284000D01*
X608000Y285000D01*
X610000D01*
X611000Y284000D01*
Y274000D01*
X612000Y273000D01*
X614000D01*
X615000Y274000D01*
Y283750D01*
X616250Y285000D01*
X618000D01*
X619000Y284000D01*
Y277000D01*
X620000Y276000D01*
X622000D01*
X623000Y277000D01*
Y292000D01*
X625000Y294000D01*
X629400D01*
X631000Y295600D01*
Y300000D01*
X632000Y301000D01*
X634000D01*
X635000Y300000D01*
Y297000D01*
X636000Y296000D01*
X648000D01*
X652000Y300000D01*
G01X591900Y272500D02*
X599300D01*
X606000Y265800D01*
Y257000D01*
X607000Y256000D01*
X609000D01*
X610000Y257000D01*
Y269000D01*
X611000Y270000D01*
X613000D01*
X614000Y269000D01*
Y257000D01*
X615000Y256000D01*
X617000D01*
X618000Y257000D01*
Y269800D01*
X619000Y270800D01*
X620900D01*
X622000Y269700D01*
Y264000D01*
X623000Y263000D01*
X625000D01*
X626000Y264000D01*
Y269000D01*
X627000Y270000D01*
X632000D01*
X637000Y275000D01*
X654000D01*
X656000Y277000D01*
Y288000D01*
X660000Y292000D01*
G01X591900Y267500D02*
X597800D01*
X602000Y263300D01*
Y250000D01*
X603000Y249000D01*
X605000D01*
X606000Y250000D01*
Y252000D01*
X607000Y253000D01*
X609000D01*
X610000Y252000D01*
Y250000D01*
X611000Y249000D01*
X613000D01*
X614000Y250000D01*
Y252000D01*
X615000Y253000D01*
X617000D01*
X618000Y252000D01*
Y250000D01*
X619000Y249000D01*
X621000D01*
X622000Y250000D01*
Y259000D01*
X623000Y260000D01*
X625000D01*
X626000Y259000D01*
Y252500D01*
X626900Y251600D01*
X628900D01*
X630000Y252700D01*
Y263000D01*
X639000Y272000D01*
X660000D01*
X664000Y276000D01*
Y288000D01*
X668000Y292000D01*
G01X591900Y262500D02*
X596500D01*
X598000Y261000D01*
Y248000D01*
X600000Y246000D01*
X636600D01*
X637400Y246800D01*
Y249200D01*
X636600Y250000D01*
X635000D01*
X634000Y251000D01*
Y253000D01*
X635000Y254000D01*
X637000D01*
X638000Y255000D01*
Y257000D01*
X637000Y258000D01*
X635000D01*
X634000Y259000D01*
Y262000D01*
X641000Y269000D01*
X665700D01*
X672310Y275610D01*
Y293530D01*
X676000Y297220D01*
Y300000D01*
G01X652000Y332000D02*
X654810Y329190D01*
Y327490D01*
X656300Y326000D01*
X658000D01*
X672000Y312000D01*
Y298000D01*
X670000Y296000D01*
X658000D01*
X656000Y298000D01*
Y302000D01*
X653000Y305000D01*
X631000D01*
X614000Y288000D01*
X591080D01*
G01X660000Y340000D02*
Y342000D01*
X656000Y346000D01*
Y355000D01*
X653000Y358000D01*
X608000D01*
X602000Y352000D01*
X600000D01*
X599000Y351000D01*
Y349000D01*
X600000Y348000D01*
X613000D01*
X614000Y347000D01*
Y345000D01*
X613000Y344000D01*
X604000D01*
X603000Y343000D01*
Y341000D01*
X604000Y340000D01*
X611000D01*
X612000Y339000D01*
Y337000D01*
X611000Y336000D01*
X606000D01*
X605000Y335000D01*
Y330000D01*
X596500Y321500D01*
X591900D01*
G01X676000Y332000D02*
X672000Y336000D01*
Y342000D01*
X670000Y344000D01*
X666000D01*
X664000Y346000D01*
Y355000D01*
X658000Y361000D01*
X606000D01*
X601700Y356700D01*
X599000D01*
X598000Y357700D01*
Y360000D01*
X597000Y361000D01*
X595000D01*
X592300Y358300D01*
Y347700D01*
X601000Y339000D01*
Y331000D01*
X596500Y326500D01*
X591900D01*
G01X660000Y332000D02*
X656000Y336000D01*
Y342000D01*
X654000Y344000D01*
X638700D01*
X638000Y344700D01*
Y347000D01*
X637000Y348000D01*
X635000D01*
X634000Y347000D01*
Y334000D01*
X633000Y333000D01*
X631000D01*
X630000Y334000D01*
Y347000D01*
X629000Y348000D01*
X627000D01*
X626000Y347000D01*
Y334000D01*
X625000Y333000D01*
X623000D01*
X622000Y334000D01*
Y347000D01*
X621000Y348000D01*
X619000D01*
X618000Y347000D01*
Y338000D01*
X596500Y316500D01*
X591900D01*
G01X753000Y185000D02*
Y181000D01*
X749000Y177000D01*
X717000D01*
X692000Y152000D01*
G01X747000Y183000D02*
X744000Y180000D01*
X712000D01*
X684000Y152000D01*
G01X692000Y136000D02*
X696000Y132000D01*
G01Y223920D02*
Y196000D01*
X700000Y192000D01*
G01X684000Y174000D02*
X685000Y173000D01*
G01X692000Y174000D02*
X691000Y173000D01*
G01X692000Y200000D02*
Y210000D01*
G01X688000Y197000D02*
Y205000D01*
G01X698000Y249920D02*
X697920Y250000D01*
G01X684000Y322000D02*
X685000Y321000D01*
G01X692000Y322000D02*
X691000Y321000D01*
G01X753000Y333000D02*
Y329000D01*
X749000Y325000D01*
X717000D01*
X692000Y300000D01*
G01X747000Y331000D02*
X744000Y328000D01*
X712000D01*
X684000Y300000D01*
G01X692000Y284000D02*
X696000Y280000D01*
G01Y366920D02*
Y344000D01*
X700000Y340000D01*
G01X692000Y348000D02*
Y358000D01*
G01X716000Y152000D02*
Y156000D01*
X725000Y165000D01*
X756000D01*
X769000Y178000D01*
Y185000D01*
G01X777000D02*
Y178000D01*
X758000Y159000D01*
X727000D01*
X724000Y156000D01*
Y152000D01*
G01X773000Y180000D02*
Y178000D01*
X757000Y162000D01*
X726000D01*
X720000Y156000D01*
Y148000D01*
X716000Y144000D01*
G01X781000Y180000D02*
Y178000D01*
X759000Y156000D01*
X730000D01*
X728000Y154000D01*
Y148000D01*
X724000Y144000D01*
G01X797000Y180000D02*
Y178000D01*
X759000Y140000D01*
X736000D01*
X732000Y144000D01*
G01X789000Y180000D02*
Y178000D01*
X759000Y148000D01*
X736000D01*
X732000Y152000D01*
G01X740000D02*
X759000D01*
X785000Y178000D01*
Y185000D01*
G01X765000Y180000D02*
Y178000D01*
X755000Y168000D01*
X724000D01*
X712000Y156000D01*
Y148000D01*
X708000Y144000D01*
G01X761000Y185000D02*
Y178000D01*
X754000Y171000D01*
X723030D01*
X708000Y155970D01*
Y152000D01*
G01X757000Y180000D02*
X751000Y174000D01*
X722000D01*
X700000Y152000D01*
G01X793000Y185000D02*
Y178000D01*
X759000Y144000D01*
X740000D01*
G01X724000Y184000D02*
X728000Y188000D01*
Y194000D01*
X730000Y196000D01*
X734000D01*
X736000Y198000D01*
Y210000D01*
G01X728000D02*
Y198000D01*
X724000Y194000D01*
Y192000D01*
G01X740000Y215000D02*
X744000Y211000D01*
Y198000D01*
X742000Y196000D01*
X738000D01*
X735000Y193000D01*
X733000D01*
X732000Y192000D01*
G01X744000Y220000D02*
Y215810D01*
X747000Y212810D01*
Y197000D01*
X742000Y192000D01*
X740000D01*
G01X704000Y210000D02*
Y190000D01*
X700000Y186000D01*
Y184000D01*
G01X732000D02*
X736000Y188000D01*
X742000D01*
X750000Y196000D01*
Y215000D01*
X748000Y217000D01*
Y225000D01*
G01X720000Y210000D02*
Y188000D01*
X716000Y184000D01*
G01X752000Y220000D02*
Y217000D01*
X753000Y216000D01*
Y195000D01*
X742000Y184000D01*
X740000D01*
G01X712000Y210000D02*
Y196000D01*
X716000Y192000D01*
G01X732000Y212000D02*
Y206700D01*
G01X716000D02*
Y214000D01*
G01X704000Y327000D02*
Y333220D01*
X708000Y337220D01*
Y340000D01*
G01X716000Y300000D02*
Y304000D01*
X725000Y313000D01*
X756000D01*
X769000Y326000D01*
Y333000D01*
G01X777000D02*
Y326000D01*
X758000Y307000D01*
X727000D01*
X724000Y304000D01*
Y300000D01*
G01X773000Y328000D02*
Y326000D01*
X757000Y310000D01*
X726000D01*
X720000Y304000D01*
Y296000D01*
X716000Y292000D01*
G01X781000Y328000D02*
Y326000D01*
X759000Y304000D01*
X730000D01*
X728000Y302000D01*
Y296000D01*
X724000Y292000D01*
G01X797000Y328000D02*
Y326000D01*
X759000Y288000D01*
X736000D01*
X732000Y292000D01*
G01X789000Y328000D02*
Y326000D01*
X759000Y296000D01*
X736000D01*
X732000Y300000D01*
G01X740000D02*
X759000D01*
X785000Y326000D01*
Y333000D01*
G01X765000Y328000D02*
Y326000D01*
X755000Y316000D01*
X724000D01*
X712000Y304000D01*
Y296000D01*
X708000Y292000D01*
G01X761000Y333000D02*
Y326000D01*
X754000Y319000D01*
X723030D01*
X708000Y303970D01*
Y300000D01*
G01X757000Y328000D02*
X751000Y322000D01*
X722000D01*
X700000Y300000D01*
G01X793000Y333000D02*
Y326000D01*
X759000Y292000D01*
X740000D01*
G01X724000Y332000D02*
X728000Y336000D01*
Y342000D01*
X730000Y344000D01*
X734000D01*
X736000Y346000D01*
Y358000D01*
G01X728000D02*
Y346000D01*
X724000Y342000D01*
Y340000D01*
G01X740000Y363000D02*
X744000Y359000D01*
Y346000D01*
X742000Y344000D01*
X738000D01*
X735000Y341000D01*
X733000D01*
X732000Y340000D01*
G01X744000Y368000D02*
Y363810D01*
X747000Y360810D01*
Y345000D01*
X742000Y340000D01*
X740000D01*
G01X704000Y358000D02*
Y338000D01*
X700000Y334000D01*
Y332000D01*
G01X748000Y373000D02*
Y365000D01*
X750000Y363000D01*
Y344000D01*
X742000Y336000D01*
X736000D01*
X732000Y332000D01*
G01X720000Y358000D02*
Y336000D01*
X716000Y332000D01*
G01X740000D02*
X742000D01*
X753000Y343000D01*
Y365000D01*
X752000Y366000D01*
Y368000D01*
G01X712000Y358000D02*
Y344000D01*
X716000Y340000D01*
G01X732000Y354700D02*
Y362000D01*
G01X716000Y354700D02*
Y361300D01*
G54D39*
X484150Y376980D03*
X476970Y369800D03*
X447760Y383760D03*
X440580Y376580D03*
G54D49*
G01X688000Y327000D02*
Y334000D01*
M02*
